<?xml version="1.0" encoding="UTF-8"?>
<svg id="Layer_1" data-name="Layer 1" xmlns="http://www.w3.org/2000/svg" viewBox="0 0 721.33 190.66">
  <defs>
    <style>
      .cls-1 {
        fill: #7a534c;
      }

      .cls-2 {
        fill: #79524b;
      }

      .cls-3 {
        fill: #79524c;
      }

      .cls-4 {
        fill: #ac8176;
      }

      .cls-5 {
        fill: #785049;
      }

      .cls-6 {
        fill: #78514a;
      }
    </style>
  </defs>
  <path class="cls-4" d="M2.45,174.06c.35-1.69,.18-3.2-1.52-4.14,3.26-2.79,3.51-6.52,3.51-10.47-.04-48.39-.03-96.77-.03-145.16,0-9.22,.19-9.41,9.41-9.41,13.57,0,27.13-.04,40.7,.02,3.34,.02,6.56-.21,9.53-1.88,1.67-.04,3.35-.08,5.02-.12,4.2,2.06,8.69,1.98,13.22,1.98,187.18-.03,374.36-.02,561.54,0,3.98,0,7.98,.31,11.06-2.96,2.26,1.46,2.34,1.45,3.87-.77,1.69,3.21,4.47,3.8,7.87,3.77,14.25-.13,28.5-.09,42.74-.04,6.71,.03,7.57,.88,7.58,7.63,.03,55.09,.03,110.17,0,165.26,0,6.79-.79,7.5-8.06,7.5-58.09,.02-116.17,.01-174.26,0-3.3,0-6.58,.05-9.78,.93-1.09-.19-2.17-.37-3.26-.56-3.14-.24-6.28-.37-9.43-.37-81.05,0-162.11,0-243.16,0-3.15,0-6.3-.09-9.25,1.31-1.31-.06-2.62-.13-3.93-.19-3-1.24-6.16-1.12-9.32-1.12-76.77,0-153.54,0-230.31,0-1.78,0-3.57,.03-5.35-.02-5.14-.16-5.86-.72-6.41-5.87-.21-2-1.08-3.63-1.98-5.31Z"/>
  <path class="cls-5" d="M654.89,1.9c-.8,3.76-1.22,4.13-4.73,4.24-.68,.02-1.37,0-2.06,0-190.59,0-381.17,0-571.76,.04-3.05,0-5.76-.16-7.27-3.29,.2-1.97,1.23-2.94,3.27-2.75,.82,.07,1.64,.01,2.47,.01,191.42,0,382.84,0,574.27,.04,2.02,0,4.53-1.03,5.81,1.72Z"/>
  <path class="cls-6" d="M524.85,186.19c.13-1.43,.85-2.28,2.35-2.31,1.23-.02,2.47-.03,3.7-.03,59.76,0,119.52,0,179.28,0,6.03,0,5.45,.46,5.45-5.61,0-55.66,0-111.32,0-166.99,0-5.43,.4-5.11-5.12-5.11-15.35,0-30.7,0-46.05,0-.96,0-1.92-.05-2.88,0-1.84,.11-2.89-.53-2.75-2.56,.06-.81-.05-1.64-.08-2.46,.87-1.65,2.42-.94,3.66-.95,6.44-.07,12.88,.08,19.32-.06,11.35-.25,22.7-.03,34.05,.03,1.09,0,2.19,0,3.28,.11,.87,.09,1.74,.61,1.52,1.56-.71,3.01,.75,5.77,.75,8.73-.1,57.28-.08,114.56-.08,171.84,0,1.23,.07,2.47-.03,3.7-.26,3.18-.94,3.64-4.31,3.35-1.22-.11-2.46-.04-3.7-.04-60.83,0-121.66,0-182.49,0-.55,0-1.11-.08-1.64,.01-2.6,.46-3.79-.89-4.24-3.22Z"/>
  <path class="cls-2" d="M2.45,174.06c2.18-.13,3.41,.74,3.27,3.08-.02,.27,0,.55,0,.82q.15,5.91,5.9,5.9c79.53,0,159.06,0,238.59,0,1.23,0,2.46,.04,3.7,.02,1.79-.03,1.87,1.21,1.91,2.5-.83,2.41-2.48,3.08-5.02,3.08-79.56-.07-159.13-.06-238.69-.07-1.5,0-3.03,.14-4.46-.45-1.85-.76-3.3-.31-4.37,1.72-2.24-1.65-3.2-3.56-3.17-6.04,.03-2.47,.14-4.94-.04-7.39-.14-1.9,.69-2.78,2.37-3.17Z"/>
  <path class="cls-3" d="M259.74,186.57c.07-1.73,.63-2.93,2.7-2.72,.95,.09,1.92,.01,2.88,.01,83.47,0,166.93,0,250.4,.03,2.07,0,4.51-.84,5.87,1.75,0,0,0,0,0,0-.96,.51-.14,1.73-.92,2.32-1.01,1.82-2.76,1.46-4.37,1.46-9.04,0-18.08,0-27.12,0-74.64,0-149.27,0-223.91,0-.96,0-1.92-.04-2.88,0-1.99,.07-2.64-1.07-2.65-2.84Z"/>
  <path class="cls-1" d="M64.06,3.02c-.77,2.46-2.42,3.21-4.99,3.19-15.63-.1-31.25-.05-46.88-.05-.96,0-1.92-.02-2.88,0-3.52,.07-3.53,.08-3.58,3.78-.03,2.33,0,4.66,0,6.99,0,48.27,0,96.53,0,144.8,0,2.04,.07,4.04-.89,6.02-.88,1.79-2.08,2.39-3.9,2.17-1.42-1.35-.78-3.1-.78-4.66-.04-47.81-.03-95.63-.03-143.44,0-6.26,.03-12.52,.04-18.79C.16,.7,.7,.16,3.53,.15c11.23-.03,22.46-.01,33.7-.01,6.71,0,13.43,.14,20.13-.06,2.85-.08,5.08,.56,6.69,2.94Z"/>
  <path class="cls-4" d="M520.67,187.95c.04-.88-.16-1.85,.92-2.32-.1,.85,.12,1.84-.92,2.32Z"/>
</svg>