<?xml version="1.0" encoding="UTF-8"?>
<svg id="Layer_1" data-name="Layer 1" xmlns="http://www.w3.org/2000/svg" viewBox="0 0 1812.52 1080">
  <defs>
    <style>
      .cls-1 {
        fill: #979797;
      }

      .cls-2 {
        fill: #7a514b;
      }

      .cls-3 {
        fill: #a2b050;
      }

      .cls-4 {
        fill: silver;
      }

      .cls-5 {
        fill: #79514a;
      }

      .cls-6 {
        fill: #79524b;
      }

      .cls-7 {
        fill: #7a514a;
      }

      .cls-8 {
        fill: #e3cab9;
      }

      .cls-9 {
        fill: #996d69;
      }

      .cls-10 {
        fill: #f2b178;
      }

      .cls-11 {
        fill: #969696;
      }

      .cls-12 {
        fill: #986d69;
      }

      .cls-13 {
        fill: #a0c9ed;
      }

      .cls-14 {
        fill: #c37a7f;
      }

      .cls-15 {
        fill: #7a524b;
      }

      .cls-16 {
        fill: #bebebe;
      }

      .cls-17 {
        fill: #795049;
      }

      .cls-18 {
        fill: #ac8176;
      }

      .cls-19 {
        fill: #785049;
      }

      .cls-20 {
        fill: #e9a1a6;
      }

      .cls-21 {
        fill: #d4aa5a;
      }

      .cls-22 {
        fill: #edc15e;
      }

      .cls-23 {
        fill: #f3b8ba;
      }

      .cls-24 {
        fill: #c57b80;
      }

      .cls-25 {
        fill: #78514a;
      }
    </style>
  </defs>
  <g>
    <path class="cls-18" d="M1036.17,951.06c2.36,.12,4.71,.25,7.07,.37,2.67,4.85,7.2,4.94,11.96,4.93,44.54-.06,89.11,1.03,133.61-.27,84.68-2.47,169.35-.41,254.02-1.19,23.12-.21,46.26,.57,69.36-.14,95.37-2.94,190.77-.56,286.15-1.31,4.53-.04,9.31-.98,13.45,1.99,.14,.96,.26-.3,.27,.67,.56,36.45,.7,72.9-.06,109.35-3.78,3.15-8.34,2.21-12.63,2.22-70.37,.06-140.76-.86-211.12,.37-45.03,.78-90.06,.82-135.08,1.08-4.82,.03-9.07,1.13-12.95,3.9-1.05-3.69-3.55-4.33-6.86-3.27-233.44-1.3-466.89-.2-700.33-.61-6.68-.01-13.26-.39-17.19,6.54-2.43-.11-4.86-.22-7.28-.33-5.28-5.66-11.97-6.29-19.3-6.28-122.96,.13-245.95-1.16-368.89,.48-100.79,1.35-201.57,.21-302.35,1.04-5.57,.05-11.11-.39-10.69,7.72-2.44,.56-4.88,1.11-7.31,1.67,0-40.92,0-81.84,0-122.77,3.68-2.82,7.09-1.37,10.48,.63,3.75,2.87,8.15,2.88,12.55,2.88,58.66,.01,117.36,1.25,175.97-.34,62.55-1.7,125.07-.33,187.6-1.04,6.11-.07,11.66-.41,15.09-6.36,2.14,0,4.18-.35,5.97-1.63,2.31,7.1,7.66,8.05,14.32,8,34.79-.23,69.61,.66,104.38-.25,110.2-2.9,220.43,.42,330.61-1.68,55.23-1.05,110.43-.4,165.64-1.01,5.46-.06,9.97-1.21,13.56-5.38Z"/>
    <path class="cls-19" d="M0,324.4c41.6,3.16,79.47,17.28,114.58,39.31,29.55,18.54,55.16,41.4,75.18,70.15,9.47,13.61,17.47,28.03,22.27,44.05,.97,3.23,2.48,5.83,5.43,8.13,6.18,4.81,10.31,11.58,14.58,18.09,2.8,4.27,5.31,8.73,8.2,12.93,3.36,4.88,3.04,9.49-.31,14.14-.99,1.38-1.88,2.84-2.91,4.4,5.52,4.77,8.74,11.4,13.2,16.98,1.59-.27,1.29-1.43,1.28-2.29-.12-18.49,.31-37.02-.59-55.47-.98-20.06-3.46-40.03-7.22-59.8q-1.3-6.84,4.89-9.39c6.02-2.35,6.31,2.82,7.19,6.05,2.17,7.98,3.4,16.22,4.35,24.42,3.3,28.52,5.22,57.13,4.88,85.87-.05,4.17-1.11,8.2-1.22,12.34-.04,1.61-.33,3.82,1.96,4.07,1.64,.18,2.27-1.57,2.75-2.97,.63-1.85,.98-3.77,1.12-5.72,4.38-62.18-.93-123.14-25.42-181.11-27.15-64.27-72.35-110.55-138.67-134.8-10.33-3.78-12.79-7.14-10.73-14.63,1.06-1.75,2.5-.96,3.83-.5,7.11,2.42,14.31,4.61,21.25,7.44,3.94,1.6,7.33,1.57,11.06-.23,9.83-4.75,19.81-9.19,29.58-14.03,14.13-7,28.17-14.19,42.18-21.45,2.93-1.52,5.9-2.07,9.08-2.1,5.24,.7,4.74,3.98,2.9,7.26-1.95,3.48-5.39,5.45-8.79,7.43-17.66,10.26-36.22,18.71-54.67,27.39-2.12,1-5.43,1.46-5.72,3.93-.34,2.86,3.21,3.11,5.14,4.29,28.12,17.2,49.56,32.53,79.27,72.57,.41-3.29,1.22-6.12,2.99-8.51,2.2-2.97,4.96-3.72,8.24-1.71,1.87,.98,3,2.04,2.21,4.59-1.66,5.3-2.59,10.85-4.49,16.06-1.21,3.31-.99,5.8,.75,8.78,21.57,36.79,33.54,76.78,39.76,118.75,4.44,29.94,4.91,60,3.83,90.15-.12,3.38-1.01,6.68-1.03,10.12-.07,8.99-.56,9.32,5.41,15.69,2.48,2.65,2.46,4.69,2.06,7.67-3.07,22.42-8,44.41-14.97,65.94-1.11,3.41-2.9,6.43,1.63,9.47,2.96,1.98,3,6.46,3,10.14,0,7.52,.28,15.04-1.2,22.51-1.01,5.07-.31,5.67,4.92,6.12,9.03,.78,11.09,3.8,9.96,12.85-2.16,17.22-7.62,33.58-12.43,50.12-1.1,3.79-2.82,7.3-4.99,10.5-4.36,6.44-10.54,7.84-17.94,4.26-2.65,2.57-3.39,6.27-5.1,9.41-2.9,5.34-5.67,10.72-9.46,15.55-2.75,3.51-5.95,4.62-10.13,3.85-20.8-3.8-41.38-8.43-61.7-14.45-11.28-3.34-18.53-8.71-22.34-20.69-2.72-8.53-3.45-16.89-3.83-25.38-1.13-25.4,6.66-48.84,16.86-71.67,5.73-12.82,13.96-23.83,23.38-34.14,2.63-2.87,5.18-3.87,8.78-3.66,8.53,.48,16.84,2.25,25.15,4.01,6.65,1.41,13.22,3.18,19.78,4.98,3.05,.84,4.24,.01,5.05-3.13,4.51-17.54,6.43-35.29,5.72-53.39-.14-3.56-2.45-5.62-3.55-8.44-3.42-8.75-10.19-15.41-14.31-23.69-.78-1.57-1.9-1.94-3.56-1.61-4.21,.82-6.98-1.69-9.33-4.54-8.64-10.5-17.27-21.01-25.67-31.71-4.58-5.83-4.84-12.66-2.4-19.35,.98-2.7,.69-4.44-.76-6.66-10.52-16.12-22.16-31.35-35.07-45.64-6.37-7.05-12.91-13.91-19.88-20.37-2.24-2.07-3.06-4.93-4.67-7.34-1.19-1.77,.19-3.2,1.03-4.65,4.12-4.76,7.32-1.59,10.38,1.33,13.19,12.62,25.67,25.9,36.95,40.3,5.67,7.23,11.2,14.54,15.72,22.57-8.38-13.97-16.5-28.06-27.3-40.44-26.84-30.76-58.86-54.35-96.25-70.62-20.41-8.88-41.61-15.01-63.82-17.39-2.7-.29-5.26-1-7.25-3.05v-10.23Z"/>
    <path class="cls-9" d="M8.77,958.7c-2.71-1.77-5.76-1.48-8.77-1.46v-4.38c.56-.43,1.16-.7,1.89-.7,1.16,0,2.32,0,3.48-.03-1.16-.03-2.32-.04-3.48-.03-.73,0-1.33-.27-1.89-.7v-73.08c3.07-2.65,6.82-2.2,10.43-2.22,17.49-.06,34.97-.19,52.46,.06,6.99,.1,13.51-.51,19.02-5.3,1.4,.95,2.85,1.18,4.37,.3,3.12,4.73,7.89,4.91,12.89,4.91,48.57-.05,97.14-.03,145.71-.03,1.94,0,3.89-.02,5.83,.02,9.83,.24,11.17,1.75,11.69,11.5,.28,5.35-1.76,11.39,3.69,15.56,2.61,2.31-.39,4.78,.2,7.15-3.95,5.47-3.93,11.75-3.94,18.14-.07,28.33,2.66,25.19-25.54,25.27-39.41,.12-78.81,.06-118.22,.02-33.31-.04-66.58,2.48-99.9,1.48-3.79-.11-7.26,.5-9.9,3.53Z"/>
    <path class="cls-9" d="M33.47,580.15c-1.76,2.88-1.4,5.37,1.36,7.42-5.32,3.94-4.73,9.72-4.73,15.29,0,84.64-.02,169.29,0,253.93,0,2.19,.05,4.37-.1,6.56-.16,2.43-1.1,4.57-3.61,4.77-8.85,.71-17.82,2.75-26.4-1.51V349.25c8.06-.34,15.83,1.9,23.76,2.77,3.88,.42,5.54,3.56,6.01,7.27,.42,3.39,.3,6.79,.3,10.19,0,65.13,.01,130.26,0,195.39,0,5.37-.13,10.73,3.42,15.28Z"/>
    <path class="cls-23" d="M94.77,219.15c.15,7.26,1.48,9.17,9.02,11.83,13.8,4.86,27.12,10.73,39.79,18.05,43.28,25,74.87,60.71,96.55,105.47,15.39,31.78,24.46,65.4,28.94,100.35,1.48,11.56,2.24,23.16,3.1,34.78,.79,10.7,1.29,21.4,.69,32.04-.68,11.85-.37,23.78-2.35,35.55-.53,3.16-3.39,5.33-6.4,4.79-1.36-.24-2.19-1.1-2.26-2.44-.12-2.19-.39-4.43-.05-6.56,2.06-13.08,1.35-26.27,.83-39.34-1.09-27.13-2.96-54.25-8.41-80.95-.66-3.25-.83-7.07-5.65-7.09-.24-1.73-.97-3.05-2.84-3.43,2.64-6.63,1.35-13.08-.54-19.66-12.07-41.93-30.18-80.5-61.56-111.78-28.53-28.43-62.75-46.31-101.91-54.87-18.78-4.11-37.79-6.59-57.1-6.11-4.57,.11-8.76,.63-11.34,5.03C8.78,235.22,4.5,233.12,0,233.79v-17.54c6.1-3.81,12.81-2.19,19.21-1.73,20.59,1.45,41.32,2.07,61.42,7.55,4.63,1.26,7.29-1.39,9.97-4.3,1.33,.66,1.9,3.61,4.18,1.39Z"/>
    <path class="cls-7" d="M0,866.62H27.76c0-89.04,0-177.56,0-266.08,0-1.95-.03-3.9,0-5.84,.13-6.55,.19-6.6,7.06-7.13,2.01,1.26,3.06,3.01,2.93,5.46-.09,1.7-.01,3.4-.01,5.1,0,86.31,0,172.61-.01,258.92,0,2.9,.34,5.84-.52,8.88,2.43,1.37,5.12,.66,7.67,.69,10.21,.09,20.42,.14,30.62-.02,3.33-.05,5.75,.57,6.38,4.25-1.35,5.65-5.05,7.53-10.66,7.5-23.74-.14-47.49-.04-71.23-.03v-11.69Z"/>
    <path class="cls-5" d="M33.47,580.15c-3.97,.26-5.9-1.54-5.71-5.58,.09-1.94,0-3.89,0-5.83,0-67.78,0-135.57,0-203.35,0-1.7,.05-3.4-.01-5.1-.2-5.85-.8-6.72-6.9-6.57-5.4,.14-10.45-2.12-15.85-1.7-2.05,.16-3.23-2.02-5-2.78v-7.31c5.65-3.5,11.9-2.26,17.76-1.56,39.28,4.67,73.4,21.4,104,45.82,4.16,3.32,9.1,7.31,5.16,14.05-3.83,3.32-6.77,.62-9.57-1.62-9.88-7.9-20.24-15.1-31.13-21.52-16.35-9.64-33.97-17.04-47.88-19.94-1.06,2.69-.56,5.56-.56,8.32-.03,68.32-.04,136.64,0,204.96,0,3.95,.45,7.93-4.3,9.7Z"/>
    <path class="cls-16" d="M126.92,400.25c.87-5.11-1.23-8.86-5.18-11.97-27.26-21.39-57.06-37.58-91.38-44.32C20.38,342,10.24,340.82,0,341.94v-7.31c50.24,5.15,94.38,25.05,133.73,56.02,24.45,19.24,45.13,41.93,59.43,69.92,1.49,2.91,3.45,5.71,3.73,10.29-8.12-11.29-15.51-21.77-23.69-31.66-10.54-12.74-21.78-24.76-33.78-36.15-2.82-2.68-5.08-1.86-7.84-1.12-.88-2.42-2.66-2.33-4.64-1.68Z"/>
    <path class="cls-5" d="M90.59,217.76c-.29,7.14-1.63,8.52-8.03,6.95-18.83-4.62-37.88-6.94-57.27-7.59-8.42-.28-16.86-.62-25.29-.87v-5.85c7.63-4.7,16.12-3.64,24.4-3.4,20.15,.58,40.08,3.06,59.72,7.74,2.4,.57,4.7,1.18,6.47,3.02Z"/>
    <path class="cls-18" d="M0,951.39c1.57,.05,3.19-.29,4.79,.6-1.55,1.41-3.24,.69-4.79,.86v-1.46Z"/>
    <path class="cls-25" d="M7.31,1078.33c-.83-1.2-1.95-2.29-2.43-3.61-1.55-4.26-.1-6.25,4.55-6.48,2.19-.1,4.38-.03,6.57-.03,94.45,0,188.93,1.16,283.36-.28,131.18-2,262.34-.21,393.51-1.07,1.46,0,2.92-.01,4.38,0,7.7,.06,8.54,.69,11.29,8.52-1.76,1.8-3.74,2.94-6.42,2.68-1.93-.19-3.89-.04-5.84-.04-165.44,.08-330.87,.14-496.31,.25-61.31,.04-122.62,.21-183.92,.31-2.91,0-5.83-.16-8.74-.24Z"/>
    <path class="cls-19" d="M715.83,1075.7c.59-8.68,.78-8.85,10.28-8.85,204.48-.04,408.96-.07,613.44-.11,28.24,0,56.48,0,84.71,0,3.39,0,6.86-.39,9.09,3.04-.08,7.21-.08,7.25-7.03,7.3-7.06,.05-14.12,.03-21.18,.04-191.14,.05-382.29,.07-573.43,.19-36.03,.02-72.07,.48-108.1,.64-2.69,.01-6.02,1.37-7.77-2.24Z"/>
    <path class="cls-15" d="M1811.56,1065.48c.71,13.06,.64,10.51-10.02,10.52-96.56,.09-193.12,.08-289.68,.13-2.88,0-5.84-.58-8.64,.7-18.92,.02-37.83,.02-56.75,.07-2.93,0-6.09,.57-6.26-3.85,1.72-6.22,1.72-6.28,8.34-6.29,37.92-.02,75.86,.93,113.75-.21,80.9-2.43,161.8-.33,242.69-1.16,2.19-.02,4.37,.06,6.56,.09Z"/>
    <path class="cls-19" d="M474.5,559.92c-3.45-1.96-3.87-5.08-3.85-8.72,.12-18.75,.05-37.51,.05-56.26,0-87.44,.12-174.88-.21-262.32-.03-7.8,2.67-12.01,9.16-15.25,12.4-6.18,24.61-12.73,36.89-19.14,51.73-26.98,103.44-53.98,155.19-80.92,37.95-19.76,75.95-39.4,113.9-59.15,32.56-16.94,65.06-34,97.64-50.92,5.13-2.66,10.13-5.46,16-6.8,3.75-.86,6.47-.43,9.57,1.18,23.51,12.21,47.07,24.35,70.59,36.56,36.47,18.92,72.92,37.87,109.38,56.81,42.28,21.96,84.56,43.94,126.85,65.89,35.6,18.48,71.21,36.93,106.84,55.35,3.43,1.77,6.74,3.69,10.81,4.13,3.4,.36,5.77,2.41,5.28,6.46-.17,1.44-.03,2.92-.03,4.38,0,145.9,0,291.79,.05,437.69,0,4.48,0,8.77-3.54,12.12-4.55,3.54-5.87-.48-6.96-3.37-1.47-3.91-.88-8.18-.88-12.31-.02-137.74-.01-275.48-.01-413.22,0-3.41,.07-6.82-.03-10.22-.24-7.7-.91-8.39-8.34-8.64-2.43-.08-4.87-.03-7.3-.03-72.5,0-145,.01-217.5-.02-5.82,0-12.01,.62-14.86-6.39-1.97-5.54,.78-7.68,5.89-8.07,2.92-.22,5.84-.14,8.76-.14,67.93,0,135.86,0,204.93,0-11.29-6.05-21.78-11.51-32.27-16.85-34.93-17.78-69.65-35.97-104.44-54.01-65.91-34.18-131.75-68.49-197.71-102.58-12.32-6.37-24.72-12.62-36.96-19.14-3.91-2.08-5.76-1.41-7.73,2.75-7.15,15.08-19.74,16.48-31.11,3.8-7.99-8.92-8.07-9.07-18.66-3.59-56,28.96-111.92,58.07-167.74,87.38-23.92,12.56-47.89,25.05-71.9,37.42-41.33,21.3-82.45,43-124.01,64.47,2.56,.71,4.99,.33,7.37,.33,180.91,.02,361.81,.02,542.72,.03,3.16,0,6.35-.23,9.48,.32,5.6,.97,6.65,2.97,5.12,9.3-2.52,3.45-6.11,4.65-10.17,4.87-3.65,.2-7.3,.13-10.95,.13-184.26,0-368.52,0-552.78,0q-13.96,0-13.97,13.92c0,98.85,0,197.71-.01,296.56,0,3.89,.37,7.83-.62,11.64-1.06,4.07-3.22,6.64-7.93,4.57Z"/>
    <path class="cls-12" d="M1079.99,224.97c2.15,4.7,5.55,6.06,10.88,6.05,75.7-.23,151.41-.15,227.12-.15,1.7,0,3.41-.03,5.11,0,6.34,.12,6.41,.13,6.44,6.61,.06,12.66,.02,25.32,.02,37.99,0,131.73,0,263.47,0,395.2,0,2.19-.31,4.46,.14,6.55,.57,2.62,1.52,5.47,5.37,3.78-1.11,3.3-.74,6.02,2.96,7.39-5.14,2.77-6.38,7.18-6.23,12.77,.31,11.44,.15,22.89,.07,34.33-.09,12.15-1.41,13.54-13.35,13.58-25.56,.08-51.12,.02-76.68,.03-42.12,0-84.23,.05-126.34-.05-7.05-.02-14.06,.53-21.09,.64-2.53-2.72-5.57-1.14-8.44-1.03-5.32,1.01-10.68,.45-16.02,.45-191.06,.03-382.12,.02-573.18,.02q-18.42,0-18.43-18.74c0-49.42-.04-98.85,.05-148.27,.01-5.95-.49-11.63-3.83-16.75-.01-1.82-.03-3.64-.04-5.47q5.98-1.44,6.17-6.89c.06-1.7,.01-3.41,.01-5.11,0-101.8,0-203.61,0-305.41,0-1.22,0-2.44,0-3.65,.04-7.94,.04-7.98,8.01-7.98,100.8,0,201.6,0,302.4,0,88.87,0,177.74-.04,266.61,.09,5.12,0,9.56-.66,13.15-4.5,3.07-.37,6.19-.44,9.15-1.48Z"/>
    <path class="cls-19" d="M1811.52,944.1c.45,3.85,.49,7.69-.08,11.53-90.04,.06-180.1-.98-270.12,.46-110.69,1.77-221.38-.41-332.04,1.52-52.53,.92-105.05,.24-157.56,1-.97,.01-1.95,.01-2.92,0q-7.42-.05-5.55-7.19c1.38-2.03,2.75-3.72,5.72-3.55,12.64,.7,25.25-.85,37.89-.84,44.5,.02,89.01,0,133.51,0h7.7c1.38-2.57-.69-3.48-1.59-4.66-8.11-10.6-16.33-21.12-24.51-31.67-1.19-1.53-2.59-2.95-3.53-4.62-4.16-7.4-4.54-6.7,2.48-11.11,78.59-49.36,157.16-98.74,235.74-148.11,1.03-.65,2.07-1.28,3.1-1.91,6.34-3.89,6.52-3.82,9.18,3.73,1.16,4.42-1.44,6.61-4.78,8.71-24.29,15.26-48.55,30.57-72.87,45.78-51.52,32.23-102.81,64.84-154.4,96.96-4.01,2.5-4.88,4.89-1.77,8.7,6.45,7.92,12.69,16,18.82,24.17,2.66,3.54,5.18,3.64,8.6,1.24,9.37-6.55,19.34-12.17,28.74-18.68,3.59-2.49,7.3-4.06,11.37-.92,4.65,4.48,3.05,8.19-1.52,11.37-8.99,6.26-18.15,12.26-28.14,18.35,2.46,1.17,4.54,.64,6.48,.64,13.15,.05,26.29-.16,39.44,.06,62.55,1.02,125.06-2.31,187.6-1.43,4.49,.06,6.87-.49,5.44-5.89-.73-2.76,.81-5.72,1.51-8.55,13.17-52.93,26.45-105.84,39.61-158.77,.58-2.33,1.6-4.6,1.29-7.65-6.32,2.91-11.74,6.9-17.29,10.52-48.31,31.53-96.87,62.69-145.18,94.21-23.24,15.16-46.56,30.2-69.92,45.18-7.44,4.77-8.98,4.62-16.06-1.13-2.61-4.44,.94-6.08,3.72-7.92,23.53-15.54,47.26-30.78,70.97-46.04,29.64-19.08,59.12-38.39,88.73-57.5,23.89-15.42,47.77-30.88,71.68-46.26,6.65-4.28,6.62-4.28,1.35-10.24-6.63-7.5-12.51-15.45-14.35-26.16-15.45,9.21-29.57,18.66-44.06,27.53-2.93,1.79-5.91,5.04-9.57,1.05-4.78-5.93-4.65-7.38,1.39-11.19,16.63-10.49,33.23-21.03,49.97-31.36,7.84-4.83,10.64-6.18,19.12,1.65,6.67,6.16,12,13.29,16.55,21.08,.8,1.36,.93,3.25,3.47,4.13,2.26-8.95,4.51-17.8,6.74-26.65,2.78-11.05,5.75-22.05,8.19-33.17,.91-4.17,2.71-5.23,6.45-4,4.24,1.17,4.67,4.49,4.45,8.08-.16,2.68-1,5.26-1.64,7.85-20.1,80.79-39.83,161.68-60.15,242.41-.79,3.15-2.44,6.31-1.05,10.59,2.86-2.86,2.93-6.07,3.58-8.96,3.74-16.63,8.01-33.13,12.33-49.61,1.97-7.51,4.14-8.42,11.58-6.07,3.77,3.45,2.41,7.6,1.47,11.59-4.07,17.29-8.9,34.39-12.6,51.77-1.78,8.38-1.33,9.03,6.85,9.07,19.94,.09,39.89,.08,59.83,0,7.5-.03,7.41-.14,6.96-7.95-.51-8.99-.2-18-.21-27-.02-53.04-.05-106.08,.05-159.12,0-4.41-1.29-9.48,3.76-12.5,8.88-.93,10.76,.54,10.86,9.74,.24,21.65,.07,43.3,.08,64.94,.01,31.14,.08,62.27-.04,93.4-.04,10.71,.5,21.37,1.28,32.05,.34,4.7,2.17,6.59,6.71,6.36,2.18-.11,4.38-.01,6.56,0,26.99,.08,53.98-.16,80.97,.11,30.82-1.81,61.67-1.71,92.51-1.53,3.82,.02,7.87-.65,11.11,2.32Z"/>
    <path class="cls-22" d="M1454.37,746.04c2.6,1.56,4.49,.04,6.6-1.3,13.33-8.48,26.7-16.89,40.12-25.24,2.24-1.39,4.23-3.3,7.89-4.07,2.84,13.71,10.94,24.26,21.69,33.26-1.86,2.67-4.63,3.77-6.97,5.29-72.8,47.22-145.63,94.39-218.46,141.56-5.3,3.44-10.61,6.87-15.93,10.27-1.65,1.06-3.43,1.96-3.28,4.35,.15,3.66-2.5,4.27-5.22,4.79-3.11-1.72-5.45-.08-7.97,1.59-10.35,6.83-20.78,13.55-31.21,20.26-4.47,2.87-4.54,2.84-7.9-1.46-7.19-9.19-14.39-18.38-21.51-27.62-3.39-4.4-3.38-4.55,1.48-7.62,21.6-13.63,43.23-27.21,64.86-40.8,35.83-22.51,71.68-44.99,107.51-67.5,19.15-12.04,38.22-24.21,57.48-36.08,2.94-1.81,4.54-3.99,5.4-7.07,2.52,.58,4.01-.97,5.44-2.63Z"/>
    <path class="cls-19" d="M1811.6,298.11c.24,4.31,.51,8.61-.15,12.91-2.64,3.35-6.56,4.03-10.37,4.76-23.42,4.52-46.86,5.02-70.3,.06-9.96-2.11-10.26-1.92-10.27,8.34-.03,76.66,0,153.32-.07,229.98,0,5.21,1.21,10.86-3.35,15.14-9.11,3.39-11.34,1.84-11.38-8.72-.14-37.47-.05-74.94-.05-112.41,0-8.39,.01-8.3-8.42-6.93-22.72,3.7-45.57,2.66-68.41,1.68-.48-.02-.96-.14-1.45-.2-14.19-1.72-14.99-1.02-14.99,13.2,0,87.84,.01,175.67-.03,263.51,0,6,.91,12.61-6.91,15.11-5.23,1.33-7.15-1.48-7.51-6.12-.36-4.62-.17-9.24-.17-13.87,0-28.21-.06-56.42,.03-81.85-2.96,14.47-7.49,31.45-11.66,48.5-14.2,58.15-28.66,116.24-42.77,174.41-1.14,4.69-1.82,9.76-7.19,11.94-7.74,.51-9.52-1.17-7.97-8.4,1.78-8.32,3.65-16.64,5.73-24.9,19.95-79.54,39.02-159.29,58.91-238.85,1.8-7.21,3.63-14.44,4.18-21.93-1.71,2.92-2.24,6.2-3.05,9.39-6.07,24.07-11.92,48.19-18.18,72.21-1.2,4.6-1.8,10.87-9.56,8.65-3.95-2.45-3.33-6-2.41-9.69,5.49-21.85,10.94-43.7,16.4-65.55,2.12-8.47,4.23-16.93,6.33-25.4,2.23-8.99,3.2-9.66,12.42-8.53,.84-2.35,.41-4.78,.41-7.18,.03-36.49,.02-72.98,.03-109.48,0-9.45,.9-10.79,10.07-13.11,13.91-3.52,28.13-5.47,42.43-5.79,16.49-.37,33.03-.81,49.48,1.43,6.25,.85,6.33,.65,6.34-5.83,.02-34.06,0-68.12,.02-102.18,0-14.33,1.58-15.69,15.86-17.28,22.53-2.51,45.09-2.33,67.64-1.22,6.84,.34,14.26-.52,20.33,4.19Z"/>
    <path class="cls-5" d="M474.54,565.39c4.36,.64,6.29,3.24,6.15,7.57-.06,1.7,0,3.41,0,5.11,0,53.31,0,106.63,0,159.94,0,9.32-.5,8.77,8.68,8.77,195.67,0,391.34,0,587.01,.06,3.22,0,6.9-1.38,9.59,1.83,0,0-.07,.53-.07,.53,.37,2.06,.93,4.13-.36,6.08-1.99,2.11-4.54,2.68-7.3,2.66-1.7,0-3.41,0-5.11,0-196.11,0-392.22,0-588.33,0-.97,0-1.95,0-2.92,0-6.69-.08-8.28-1.41-10.48-7.72-.85-2.43-.67-4.79-.67-7.18-.03-56.47-.02-112.93-.02-169.4,0-3.35-.74-7.04,3.84-8.25Z"/>
    <path class="cls-19" d="M1036.17,951.06c-1.02,7.56-1.02,7.62-8.4,7.63-49.4,.03-98.81-.84-148.18,.23-109.7,2.38-219.4-.22-329.08,1.61-43.76,.73-87.51,.38-131.26,.99-.49,0-.97,0-1.46,0-10.41-.19-10.4,1.85-10.13-10.15,3.79-.97,7.65-1.36,11.55-1.37,1.46,0,2.92-.02,4.38-.03,102.51-.19,205.03,.22,307.53-.82,57.46-.58,114.91,.15,172.36-.77,41.64-.67,83.27-.17,124.9-.39,2.8-.01,6.67-1.67,7.79,3.06Z"/>
    <path class="cls-19" d="M8.77,958.7c-.53-5.65-.53-5.82,4.9-5.85,19.7-.08,39.43,.72,59.09-.18,60.01-2.76,120.04-.42,180.05-1.3,7.18-.11,7.21-.1,7.25-7.29,.04-8.51,.11-17.03-.03-25.54-.08-4.55,1.52-7.52,6.26-8.27,2.94,1.88,2.77,4.9,2.78,7.8,.03,8.75-.02,17.5,.02,26.25,.03,6.43,.07,6.5,6.35,6.53,14.34,.05,28.68,.02,43.02,.02,24.79,0,49.58,0,74.37,0,3.13,0,6.39-.49,8.89,2.15-.51,8.19-.8,8.52-8.98,8.53-58.85,.06-117.73-1.01-176.54,.45-65.63,1.63-131.24,.16-196.84,1.12-4.2,.06-8.43,.41-10.56-4.41Z"/>
    <path class="cls-23" d="M241.11,300.92q-6.54,.12-8.47,5.57c-.4,1.14-.71,2.32-1.08,3.47-.37,1.15-.76,2.28-1.6,4.77-23.6-34.51-53.32-61.05-90.78-80.26,7.65-3.76,14.16-6.93,20.64-10.17,15.22-7.6,30.41-15.25,45.66-22.81,3.37-1.67,5.99-4.13,8.23-7.03,2.25-2.91,1.17-4.91-1.96-6.19,1.15-1.59,2.54-2.76,4.64-2.72,7.32,4.01,13.63,1.61,20-2.63,4.64-3.09,9.97-5.05,15.24-6.91,5.53-1.96,6.87-1.01,7.39,4.94,.66,7.6-.99,15.01-2.12,22.44-4.17,27.4-10.03,54.47-16.36,81.43-.98,4.17-1.3,8.11,.42,12.08-1.01,1.38-.76,2.71,.15,4.02Z"/>
    <path class="cls-2" d="M1094.4,749.7c2.02-3.19,5.18-2.96,8.38-2.95,27.47,.04,54.94,.03,82.41,.03h132.73c1.46,0,2.92,.01,4.38,0,7.18-.07,7.23-.07,7.24-7.25,.03-14.1,.07-28.21,0-42.31-.06-10.96,.55-8.6,8.5-8.81,1.13,6.52,.52,13.1,.48,19.65-.08,13.62,.65,27.25-.49,40.86-.62,7.44-2.15,9.03-9.17,9.03-74.98,.02-149.97-.03-224.95,.12-4.47,0-7.36-1.58-9.65-5.01-.73-1.1-.77-2.27,.15-3.34Z"/>
    <path class="cls-13" d="M1566.24,663.73c5.27,.33,6.31-3.59,7.27-7.41,4.44-17.62,8.8-35.27,13.21-52.9,2.76-11.06,5.52-22.11,8.33-33.15,.33-1.29,.3-3.26,2.4-2.89,1.65,.29,2.05,1.8,2.12,3.37,.18,4.19-.71,8.22-1.69,12.23-6.74,27.55-13.5,55.11-20.27,82.65-15.75,64.05-31.51,128.09-47.26,192.13-.17,.71-.34,1.41-.48,2.13q-1.21,6.09,5.66,6.64c1.45,2.06,.63,3.41-1.37,4.39-6.91-.4-6.94-.41-8.61,6.41-4.45,18.14-8.87,36.3-13.33,54.44-.63,2.55-1.39,5.07-2.08,7.57-6.83-1.26-6.37-2.37-4.82-8.65,7.79-31.55,15.74-63.06,23.58-94.6,13.24-53.24,26.42-106.49,39.74-159.7,.99-3.94,.59-7.09-2.4-9.84,0-.94,0-1.88,0-2.82Z"/>
    <path class="cls-6" d="M266.08,903.11c-5.06,1.24-5.78,.93-5.96-3.6-.21-5.33-.18-10.68-.02-16.02,.11-3.61-1.09-5.52-4.97-5.22-1.93,.15-3.88,.02-5.82,.02-50.72,0-101.44,0-152.15,0-1.21,0-2.43,0-3.64,0q-7.06-.06-7.24-7.13c.87-4.42,4.03-4.57,7.71-4.55,25.05,.1,50.11,.05,75.16,.05s52.54,.08,78.81-.06c5.83-.03,11.51,.61,17.22,1.55,2.56,.42,3.92,1.56,3.91,4.27-.04,7.54-.11,15.09,.03,22.63,.06,3.19-2.68,5.15-3.03,8.08Z"/>
    <path class="cls-19" d="M240.96,296.9c-4.78-2.31-4.76-2.3-3.6-7.51,3.94-17.73,8.16-35.4,11.7-53.21,3.02-15.18,5.39-30.49,7.79-45.78,.71-4.51,.92-9.17,.06-14.33-7.12,2.03-13.3,5.73-19.74,8.82-1.53,.73-2.99,1.6-4.48,2.41q-9.13,4.97-16.29-1.76c.2-2.27,1.9-3.3,3.65-4.17,11.3-5.59,22.31-11.77,34.02-16.51,1.34-.54,2.72-1.07,4.13-1.37,4.7-1,4.49-.42,6.83,4.19,3.45,6.8,2.55,13.84,1.73,20.6-4.22,34.9-11.79,69.18-19.82,103.36-.82,3.48-1.88,5.88-5.97,5.24Z"/>
    <path class="cls-12" d="M1085.53,755.28c.12-2.03,.24-4.06,.36-6.08,1.55,2.13,1.97,4.19-.36,6.08Z"/>
    <path class="cls-17" d="M13.26,234.81c-.42-1.06-1.47-2.06-.44-3.29,2.14-2.54,4.74-3.93,8.22-3.95,36.91-.27,72.53,6.02,106.16,21.6,49.34,22.85,82.87,60.82,104.55,110.06,7.36,16.73,13.01,34.02,17.62,51.67,1.2,4.6,1.14,8.69-3.66,11.3-4.31,1.09-5.2-1.66-6-5.02-4.26-17.97-9.92-35.49-17.4-52.39-19.1-43.18-47.46-78.22-89.12-101.66-18.21-10.25-37.95-15.95-58.16-20.37-17.34-3.8-34.91-5.85-52.66-5.93-3.29-.02-6.15-1.06-9.12-2.02Z"/>
    <path class="cls-4" d="M231.93,723.73c-6.43,1.42-9.79,5.55-11.17,11.89-2.87,13.13-9.3,24.96-13.98,37.43-.9,2.41-2.27,3.61-4.91,2.94-12.23-3.07-24.52-5.88-36.01-11.37-2.99-1.43-3.15-3.09-2.14-5.64,1.97-4.96,4.03-9.89,5.85-14.9,10.65-29.28,17.56-59.47,22.17-90.26,.94-6.25,.8-12.55,1.64-19.1,11.13,1.32,21.39,5.01,31.87,7.77,3.52,.92,6.96,2.16,10.4,3.34,5.91,2.04,6.23,2.44,5.21,8.25-1.09,6.2-2.4,12.37-3.68,18.54-2.61,12.58-5.61,25.07-8.96,37.47-1.73,6.4-1.32,6.85,5.73,8.65,1.21,2.43,.39,4.03-2.03,4.98Z"/>
    <path class="cls-20" d="M231.93,723.73c.91-1.56,1.98-3.06,2.03-4.98,3.27-1.37,3.32-4.67,4.05-7.34,4.72-17.33,8.48-34.88,11.81-52.53,.23-1.19,.18-2.45,.5-3.61,.57-2.09,1.5-3.43,4.14-2.25,2.36,1.06,4.67,1.85,7.64,.8,2.89-1.02,7.74,4,8.01,7.53,.52,6.84-.72,13.61-1.64,20.28-3.71,27.02-10.38,53.34-20.5,78.7-2.52,6.31-5.37,12.51-9.15,18.22-2.06,3.11-4.27,4.81-8.44,3.46-4.76-1.54-10.08-1.13-14.63-3.53,.12-2.97,1.09-5.48,2.36-7.79,6.17-11.18,9.11-23.52,13.09-35.5,1.28-3.87,1.39-7.6,.72-11.48Z"/>
    <path class="cls-24" d="M279.69,571.5c-2.86,23.36-7.94,45.44-15.34,66.99-.95,2.75-2.53,3.46-4.88,1.56-1.51-1.22-2.8-2.74-4.39-3.83-1.92-1.31-2.29-2.71-1.64-4.94,1-3.48,1.41-7.12,2.35-10.62,2.14-8.02,3.21-16.13,2.93-24.45-.17-5.1-.04-10.21-.03-15.32,.02-8.04,.04-8.27,7.87-8.05,4.17,.12,8.11-1.18,13.14-1.33Z"/>
    <path class="cls-1" d="M182.46,648.78c-5.17,34.27-12,68.06-25.46,100.6-9.8-16.89,7.37-85.65,25.46-100.6Z"/>
    <path class="cls-14" d="M260.74,755.24c2.61-8.63,5.01-16.73,7.52-24.8,2.74-8.8,4.35-17.86,6.38-26.82,.27-1.18,.39-2.4,.77-3.54,.7-2.07,2.11-3.22,4.43-2.81,2.64,.47,3.83,2.21,3.39,4.7-.72,4.04-1.63,8.06-2.67,12.03-3.08,11.71-6.03,23.46-10.2,34.85-2.2,6-2.54,6.25-9.62,6.39Z"/>
    <path class="cls-11" d="M200.43,497.05q7.75-4.89,13.62,1.03c6.93,6.94,11.6,15.48,16.89,23.6,1.66,2.55,.82,4.55-.67,6.62-1.41,1.97-3,2.41-4.76,.46-1.62-1.8-3.26-3.59-4.74-5.5-5.33-6.9-10.41-14.01-16.5-20.29-1.55-1.6-2.83-3.32-3.86-5.92Z"/>
    <path class="cls-3" d="M1716.55,568.55c2.19-3,1.73-6.47,1.73-9.85,0-79.07,0-158.14,0-237.21,0-1.7-.05-3.41,.01-5.11,.2-5.13,1.14-5.99,6.25-4.57,16.29,4.55,32.94,5.85,49.69,4.99,12.55-.64,25.03-2.41,37.21-5.79,.09,2.67,.26,5.34,.26,8.02,.01,205.68,.01,411.36,0,617.04,0,2.67-.12,5.35-.18,8.02-23.84,0-47.68,.03-71.52-.04-8.26-.02-16.4,2.09-24.69,1.32-2.41-.22-4.84-.33-7.25-.49-.73-3.32-1.17-6.57,2.22-8.87,4.06-.55,5.72-2.97,5.74-6.96,.1-19.59,.06-39.18,.02-58.76,0-3.07-1.37-5.57-2.95-8.05-.67-1.81-.56-3.56,.33-5.27,2.56-3.34,2.43-7.31,2.44-11.17,.06-87.47,.05-174.93,.02-262.4,0-2.92-.23-5.82-.96-8.67-.76-2.41-.07-4.44,1.63-6.21Z"/>
    <path class="cls-8" d="M815.27,732.16c-2.83,1.39-4.95-.45-7.23-1.58-98.77-.99-197.54-.16-296.31-.44-2.19,0-4.38-.06-6.56-.17-5.04-.26-7.42-2.99-7.68-7.89-.18-3.41-.16-6.81-.16-10.22,0-125.34-.02-250.68,.03-376.02,0-7.31-.07-14.57-2.04-21.67-.13-3.37-1.94-6.55-1.21-10.03,4.96-11.65,2.79-23.94,3.2-36,.14-4.14-.02-8.28,.18-12.42,.25-5.35,3.03-7.94,8.31-8.09,2.43-.07,4.87-.12,7.3-.12,263.68-.02,527.37,.04,791.05-.03,9.3,0,10.18,.83,10.2,11.47,.1,54.31,0,108.62,.11,162.93,.01,4.7-1.12,9.72,2.17,13.97q1.76,5.46-3.11,8.4c1.1,2.8,.89,5.74,.88,8.66-.02,86.18,0,172.36-.01,258.54,0,18.15-.54,18.68-19,18.68-154.3,0-308.59,0-462.89,.03-5.8,0-11.71-.61-17.23,1.99Z"/>
    <path class="cls-19" d="M1316.63,435.86c-2.76,2.39-4.04,.39-4.56-1.89-.47-2.09-.22-4.36-.22-6.54,0-56.48,0-112.95-.03-169.43,0-2.64,.44-5.32-.43-8.09h-18.76c-261.12,0-522.24,0-783.35,.02-10.99,0-9.7-1.42-9.77,9.63-.07,10.95-.29,21.92,.11,32.86,.19,5.17-1.24,8.95-5.51,11.72-3.23-.34-4.65-2.17-4.64-5.38,.03-17.54-.09-35.07,.09-52.61,.05-5.17,1.56-6.31,6.65-6.51,2.43-.09,4.87-.04,7.3-.04,266.36,0,532.72,.01,799.08-.11,4.8,0,9.5,1.72,14.38,.44,1.87-.49,3.27,1.06,3.59,2.88,.33,1.9,.24,3.88,.24,5.82,0,58.21-.11,116.42,.21,174.62,.03,5.19-3.09,8.37-4.38,12.61Z"/>
    <path class="cls-19" d="M815.27,732.16c.32-3.18,2.04-4.78,5.27-4.74,2.19,.03,4.38-.01,6.57-.01,158.27,0,316.53,0,474.8,0,11.25,0,9.92,.28,9.92-9.78,.02-88.17,0-176.34,.08-264.51,0-2.96-1.39-6.37,1.61-8.86,7.05,.63,7.12,.69,7.28,7.02,.04,1.46,0,2.92,0,4.38,0,88.9,0,177.81,0,266.71,0,1.22,.01,2.44,0,3.65-.15,10.08-1.96,11.93-11.99,11.93-160.71,.02-321.42,0-482.13,.18-5.34,0-8.68-1.94-11.42-5.98Z"/>
    <path class="cls-19" d="M495.32,314.16c3.09,1.25,4.48,3.49,4.2,6.86-.16,1.94-.03,3.89-.03,5.84,0,130.53,0,261.07,.01,391.6,0,9.59-1.28,8.93,9.07,8.93,96.65,0,193.31,0,289.96,.07,3.36,0,7.58-1.68,9.5,3.11-1.3,6.27-2.23,7.18-7.73,7.42-1.46,.07-2.92,.01-4.38,.01-96.4,0-192.8,0-289.21,0-1.7,0-3.41,.05-5.11-.02-6.95-.29-9.28-2.62-10.77-9.4-1.21-5.52-1.39-11.03-1.39-16.62,.02-128.82,.01-257.64,.01-386.46,0-1.95,.08-3.9,0-5.84-.17-4.14,2-5.7,5.86-5.51Z"/>
    <path class="cls-10" d="M1709.49,936.71c-.33,2.76,.51,5.72-1.44,8.19-2.42,.13-4.84,.38-7.26,.38-27.48,.03-54.95,.03-82.43,0-2.39,0-4.86,.48-7.8-.81,2.7-8.75-.75-17.44-.72-26.35,.17-56.19,.09-112.37,.09-168.56,0-.97,0-1.95,0-2.92q-.01-8.44-8.53-8.94c-.64-2.7,3.63-1.91,3.18-4.47,4.37-1.41,5.48-4.4,5.45-8.89-.21-25.07-.1-50.14-.1-75.21v-197.16c0-1.46,0-2.92,0-4.38,.03-8.16,.05-8.4,7.94-7.78,19.89,1.58,39.79,2.18,59.71,1.27,9.91-.45,19.75-1.64,29.64-4.6,1.12,2.71,.57,5.38,.58,7.92,.05,37.97,.03,75.94,.03,113.92,0,.49,0,.97,0,1.46q0,9.39,8.73,8.77c.18,1.5-.54,2.72-1.21,3.95-4.28,3.91-5.12,8.85-5.11,14.45,.1,85.19,.11,170.38-.03,255.57,0,5.58,1.52,10.4,3.88,15.19,0,1.52-.01,3.03-.02,4.55-3.26,3.67-3.93,8.04-3.9,12.8,.13,17.93,.01,35.86,.06,53.79,0,2.64,.57,5.34-.74,7.86Z"/>
    <path class="cls-21" d="M1521.71,718.69c5.48,4.35,9.11,10.07,11.61,16.55-5.74-4.14-9.53-9.69-11.61-16.55Z"/>
    <path class="cls-19" d="M236.85,197.35c5.93-.06,7.86,1.95,6.53,6.4-2.09,6.97-4.64,13.8-7.23,20.6-5.62,14.74-12.06,29.21-14.86,44.88-.65,3.65-2.59,6.81-4.1,10.1-1.51,3.27-2.77,3.37-5.35,.58-1.47-1.59-2.61-3.5-3.91-5.25-8.07-10.87-17.49-20.2-29.94-26.01-1.82-.85-3.27-1.85-4.38-3.61-3.5-5.58-3.34-6.79,2.4-10.32,17.6-10.83,35.14-21.75,52.25-33.35,3.01-2.04,6.16-3.93,8.6-4.03Z"/>
    <path class="cls-19" d="M1714.08,857.72c-5.41-1.49-6.39-5.13-6.38-10.44,.17-88.52,.12-177.05,.13-265.57,0-8.22,.03-8.22,7.51-9.2,1.42,.48,2.76,1.06,2.82,2.86,.06,1.95,.12,3.89,.12,5.84,0,89.12,0,178.24,0,267.37,0,1.7,0,3.41-.05,5.11-.1,2.64-1.51,3.99-4.15,4.03Z"/>
    <path class="cls-19" d="M1709.49,936.71c-1.61-2.62-1.66-5.54-1.66-8.47,0-19.48-.03-38.96,.01-58.44,.01-6.13,.11-6.13,6.22-7.54,2.06,.03,4,.3,4.14,2.96,.1,1.94,.08,3.89,.09,5.83,0,18.71,0,37.42,0,56.14,0,1.22,.02,2.43-.01,3.65-.21,7.54-1.52,8.41-8.79,5.87Z"/>
    <path class="cls-24" d="M228.14,215.47c-4.7,15.9-12.13,30.64-15.61,48.04-7.03-8.16-14.4-14.27-22.14-19.94-2.48-1.81-2.01-3.64,.46-5.08,12.56-7.32,24.62-15.45,37.29-23.02Z"/>
  </g>
  <g>
    <path class="cls-2" d="M575.03,390.31c0-.62,.21-2.07,.21-3.31,.21-1.03,.21-2.28,.41-3.52,0-.62,0-1.24,.21-2.07,0-1.24,0-2.48,.21-3.73,.41-1.45,0-3.11,0-4.76,.21-3.1,.21-6,.21-9.11,0-1.86-.41-3.52-.41-5.17s-.62-3.31-.41-5.17c.21-.21,0-.62-.21-.83-.21-.62-.21-1.45-.21-2.28,0-.21,0-.41,.21-.62l2.28-3.1c.62-1.04,1.66-1.24,2.69-1.04q2.48,.41,3.73,2.69l2.48,4.35c.21,.62,.21,1.24-.21,1.86-.21,.21-.21,.62-.21,1.03l.62,6c.21,2.28,.21,4.35,.21,6.62v7.66c0,.41,.21,.83,.21,1.24v2.28c0,.21-.21,.41-.21,.62,.41,2.07,0,4.14-.21,6.21-.21,1.45-.21,3.11-.41,4.55-.21,.83-.21,1.66-.21,2.48,.21,1.45,.21,2.9,.41,4.55,0,1.24,.21,2.48,.21,3.73-.21,2.28-.41,4.55-.41,6.83v1.24c-.83,4.97-.21,9.73-.41,14.7,0,.41-.21,.83-.21,1.24-.21,.41-.41,.83-.41,1.03,.21,1.24,0,2.48,.21,3.73s0,2.48,0,3.52c0,.62-.21,1.45-.21,2.07v7.45c0,.62,.21,1.24,.21,1.86,0,.21,.21,.41,0,.41-.41,1.86,0,3.73-.21,5.59,0,1.03-.21,1.86-.41,2.9v4.14c-.21,.62-.21,1.24-.21,1.86v5.18c0,.83,0,1.66-.21,2.48-.41,.83-.41,1.66-1.03,2.28-.21,.21-.21,.62-.41,.83-.41,1.45-.83,1.86-2.07,1.86-.62,0-1.24,.21-1.86,.62-.62,.41-1.45,0-1.86-.41-1.04-.83-1.86-1.66-2.48-2.69-.41-.62-.62-1.24-.62-1.86-.21-1.66-.21-3.31-.21-4.97,0-.83,.21-1.66,.21-2.48v-14.7c0-.83-.21-1.86-.21-2.9v-1.45c0-3.52,0-6.83,.21-10.35,0-2.48,0-5.17,.21-7.66,.41-2.28,.21-4.55,.21-7.04,.21-2.07,.21-4.35,.41-6.62,0-1.66,.21-3.31,.41-4.97v-2.48c0-2.48,0-4.76-.21-7.24-.21-1.45,0-3.1,0-5.18Z"/>
    <path class="cls-2" d="M599.46,456.76c0-3.52,.21-6.83,.21-10.14,0-1.45,.21-2.69,.41-3.93,0-.83-.21-1.66-.21-2.48,0-.21-.21-.62,0-1.04,.41-.83,.21-1.66,.21-2.48,0-.62,.21-1.45,.21-2.28-.21-2.48,0-5.18,0-7.66,0-1.45,.21-2.9,.21-4.14,0-.83-.21-1.66-.21-2.48v-.41c.41-1.66-.21-3.31,.21-5.18,.21-1.66,0-3.31,0-5.18,.21-2.69,.21-5.59,.62-8.28,.21-1.86,.21-3.73,.21-5.59,.21-1.45,.41-3.1,.41-4.55,.21-.21,.21-.41,.21-.62,0-1.86,0-3.52,.21-5.38,.21-1.45,.41-2.9,.41-4.55,.21-1.45,.21-3.1,.41-4.55,0-1.04,.21-2.07,.21-3.11s-.21-2.07-.21-3.1c0-1.24,.21-2.28,.41-3.52,.21-1.03,.21-2.28,.21-3.31,.21-1.66,.21-3.31,.41-5.17,0-.83,.21-1.66,.41-2.48,.21-1.45,.62-3.11-.21-4.55-.21-.41-.21-.62,0-1.03,.41-.21,.62-.62,.83-.83,.62-.21,1.04-.62,1.45-1.24,.62-.83,1.24-1.24,2.28-1.24,.62,0,1.03,0,1.45-.41,.21,0,.62-.21,.62,0,1.24,.62,2.48,.83,3.31,2.07,.62,1.03,1.24,1.66,1.86,2.48,.62,.41,.83,.83,.83,1.45,0,.83,0,1.66,.41,2.28v.62c-1.03,1.86-.83,3.73-.62,5.8,0,1.45,.21,2.69,.21,4.14l-.62,7.66c0,.62-.41,1.04-.41,1.66-.21,1.45-.41,2.9,.21,4.55,.21,.21,0,.62,0,1.03,0,.62-.21,1.04-.21,1.66-.41,1.45-.62,3.11-.83,4.55,0,.83-.21,1.45-.41,2.28v3.93c-.41,1.45-.62,2.69,0,4.14,.21,.62,.21,1.24-.21,2.07,0,0,0,.21-.21,.41-.21,1.24-.41,2.48-.62,3.73v1.24c.41,.83,.41,1.66,0,2.48v.62c.62,1.66,0,3.31,0,5.18,0,1.24-.41,2.48,0,3.73,.21,.83,0,1.66-.21,2.48-.21,.41,0,1.03,0,1.45,0,.83,0,1.45-.21,2.28,0,.83-.21,1.66,.21,2.48,.21,.21,.21,.62,.21,.83,0,1.24-.21,2.69-.21,3.93v3.73c0,1.66-.21,3.31-.21,5.18,0,.62,0,1.24,.21,1.86,.21,1.45,.21,2.69,.21,3.93-.21,.83,0,1.66,.21,2.48v1.45c0,.41,0,.83,.21,1.24,.21,.62,.21,1.24,0,1.86-.41,1.04-.62,1.86-.83,2.9v7.24c0,1.04,.41,1.24,1.24,1.24,1.04,0,2.07-.21,3.1-.21,1.66,0,3.31-.41,4.97-.83,2.28-.41,4.35-.83,6.62-1.45,.62,0,1.24-.41,1.86-.62,1.04-.62,2.28-1.03,3.31-1.24,1.45-.41,2.69-.83,3.93-1.04,.41-.21,.62-.21,.83,0,.62,0,1.04,.21,1.45,0,.21-.21,.41-.21,.62,0,.83,0,1.66,.21,2.48,.21q1.03,.21,1.24,1.24c.21,.62,.41,1.24,0,2.07-.21,.21-.21,.62,0,.83,.62,1.03,.41,2.07,.21,3.1,0,1.04-.83,1.66-1.66,1.86-1.04,.21-2.07,.41-2.9,.41-1.24,0-2.28,.21-3.11,.83-.41,.62-1.03,.83-1.86,1.04-.41,0-.83,.41-1.24,.62-.62,.62-1.45,.83-2.28,.62-.62,0-1.24,.21-2.07,.62-1.45,.83-3.31,1.24-5.17,1.66-.83,0-1.45,.21-2.28,.62-1.03,.21-2.07,.21-3.31,.21-.21-.21-.62-.21-.83,0-1.03,.62-2.07,.41-3.31,.62-1.03,0-2.28-.21-3.52-.21-1.45,0-2.48-.41-3.73-.83-.62-.21-1.24-.62-1.66-1.24-1.24-1.24-2.48-2.48-3.52-3.73-.41-.41-.62-.83-.83-1.24-.83-1.24-1.45-2.48-1.66-3.93-.21-1.86-.83-3.73-.62-5.38Z"/>
    <path class="cls-2" d="M657.62,456.76c0-3.52,.21-6.83,.21-10.14,0-1.45,.21-2.69,.41-3.93,0-.83-.21-1.66-.21-2.48,0-.21-.21-.62,0-1.04,.41-.83,.21-1.66,.21-2.48,0-.62,.21-1.45,.21-2.28-.21-2.48,0-5.18,0-7.66,0-1.45,.21-2.9,.21-4.14,0-.83-.21-1.66-.21-2.48v-.41c.41-1.66-.21-3.31,.21-5.18,.21-1.66,0-3.31,0-5.18,.21-2.69,.21-5.59,.62-8.28,.21-1.86,.21-3.73,.21-5.59,.21-1.45,.41-3.1,.41-4.55,.21-.21,.21-.41,.21-.62,0-1.86,0-3.52,.21-5.38,.21-1.45,.41-2.9,.41-4.55,.21-1.45,.21-3.1,.41-4.55,0-1.04,.21-2.07,.21-3.11s-.21-2.07-.21-3.1c0-1.24,.21-2.28,.41-3.52,.21-1.03,.21-2.28,.21-3.31,.21-1.66,.21-3.31,.41-5.17,0-.83,.21-1.66,.41-2.48,.21-1.45,.62-3.11-.21-4.55-.21-.41-.21-.62,0-1.03,.41-.21,.62-.62,.83-.83,.62-.21,1.03-.62,1.45-1.24,.62-.83,1.24-1.24,2.28-1.24,.62,0,1.04,0,1.45-.41,.21,0,.62-.21,.62,0,1.24,.62,2.48,.83,3.31,2.07,.62,1.03,1.24,1.66,1.86,2.48,.62,.41,.83,.83,.83,1.45,0,.83,0,1.66,.41,2.28v.62c-1.04,1.86-.83,3.73-.62,5.8,0,1.45,.21,2.69,.21,4.14l-.62,7.66c0,.62-.41,1.04-.41,1.66-.21,1.45-.41,2.9,.21,4.55,.21,.21,0,.62,0,1.03,0,.62-.21,1.04-.21,1.66-.41,1.45-.62,3.11-.83,4.55,0,.83-.21,1.45-.41,2.28v3.93c-.41,1.45-.62,2.69,0,4.14,.21,.62,.21,1.24-.21,2.07,0,0,0,.21-.21,.41-.21,1.24-.41,2.48-.62,3.73v1.24c.41,.83,.41,1.66,0,2.48v.62c.62,1.66,0,3.31,0,5.18,0,1.24-.41,2.48,0,3.73,.21,.83,0,1.66-.21,2.48-.21,.41,0,1.03,0,1.45,0,.83,0,1.45-.21,2.28,0,.83-.21,1.66,.21,2.48,.21,.21,.21,.62,.21,.83,0,1.24-.21,2.69-.21,3.93v3.73c0,1.66-.21,3.31-.21,5.18,0,.62,0,1.24,.21,1.86,.21,1.45,.21,2.69,.21,3.93-.21,.83,0,1.66,.21,2.48v1.45c0,.41,0,.83,.21,1.24,.21,.62,.21,1.24,0,1.86-.41,1.04-.62,1.86-.83,2.9v7.24c0,1.04,.41,1.24,1.24,1.24,1.03,0,2.07-.21,3.11-.21,1.66,0,3.31-.41,4.97-.83,2.28-.41,4.35-.83,6.62-1.45,.62,0,1.24-.41,1.86-.62,1.03-.62,2.28-1.03,3.31-1.24,1.45-.41,2.69-.83,3.93-1.04,.41-.21,.62-.21,.83,0,.62,0,1.04,.21,1.45,0,.21-.21,.41-.21,.62,0,.83,0,1.66,.21,2.48,.21q1.04,.21,1.24,1.24c.21,.62,.41,1.24,0,2.07-.21,.21-.21,.62,0,.83,.62,1.03,.41,2.07,.21,3.1,0,1.04-.83,1.66-1.66,1.86-1.03,.21-2.07,.41-2.9,.41-1.24,0-2.28,.21-3.1,.83-.41,.62-1.04,.83-1.86,1.04-.41,0-.83,.41-1.24,.62-.62,.62-1.45,.83-2.28,.62-.62,0-1.24,.21-2.07,.62-1.45,.83-3.31,1.24-5.18,1.66-.83,0-1.45,.21-2.28,.62-1.04,.21-2.07,.21-3.31,.21-.21-.21-.62-.21-.83,0-1.04,.62-2.07,.41-3.31,.62-1.04,0-2.28-.21-3.52-.21-1.45,0-2.48-.41-3.73-.83-.62-.21-1.24-.62-1.66-1.24-1.24-1.24-2.48-2.48-3.52-3.73-.41-.41-.62-.83-.83-1.24-.83-1.24-1.45-2.48-1.66-3.93-.21-1.86-.83-3.73-.62-5.38Z"/>
    <path class="cls-2" d="M715.79,418.47c0-2.48,.21-4.55,.21-6.83v-11.39c0-2.69,0-5.17,.21-7.87,.21-2.28,.62-4.55,.83-6.83,.21-1.66,.21-3.31,.62-4.97,0-1.04,.41-2.07,.62-3.31l1.24-6.83c0-1.03,.21-2.07,.41-2.9,.41-1.04,.83-2.28,1.24-3.11,.21-.62,.62-1.03,1.03-1.45,.41-.41,1.04-.21,1.66,0,.21,0,.41,0,.62-.21,.62,0,1.24,0,1.86,.62,.21,0,.21,.21,.41,.21,1.03,.21,1.45,1.03,1.86,1.86,0,.41,.21,.83,.21,1.24-.21,.62,0,1.45,.41,2.07,.21,.41,.21,.62-.21,1.04-.83,.62-1.24,1.45-1.24,2.28-.21,1.24-.41,2.69-.21,3.93,.21,1.66-.41,3.11,0,4.55,.21,.62,0,1.66-.21,2.48,0,.62-.21,1.24-.21,1.86v1.24c-.83,2.69-.83,5.38-.83,8.07,0,.62,0,1.24-.21,1.86v1.24c.21,.83,.41,1.45,0,2.28,0,.21,0,.41,.21,.41,.41,.62,.41,1.24,.41,1.86-.21,1.45-.21,3.11-.21,4.55,0,2.07,.21,3.93,.41,5.8v10.56c0,.83,.41,1.66-.21,2.48v.21c.83,.83,.21,2.07,.83,3.1,.21,.41,.21,1.04,.21,1.66-.21,1.66,.21,3.31,.62,4.97,.21,1.45,.62,2.9,1.03,4.35l.21,1.45c0,1.24,.62,2.28,1.04,3.52,.41,1.86,1.45,3.31,2.48,4.97,1.24,2.28,3.52,3.31,6,3.93,.41,0,.62,0,1.03-.21,2.69-.21,4.97-1.45,7.25-2.9,.21,0,.41-.21,.83-.41,.62-.21,.83-.62,1.24-1.24,.62-1.45,1.04-3.11,1.45-4.55l1.24-4.55c.21-1.24,.83-2.28,1.04-3.52,.41-1.45,.62-2.9,.83-4.55,.62-2.48,.62-5.17,1.45-7.66,.62-2.07,.83-4.35,1.04-6.62l.62-3.73c.21-.21,.21-.41,.21-.62,0-1.86,.21-3.93,.41-5.8,.21-3.31,.21-6.42,.41-9.73,.21-2.28,0-4.76,0-7.04,0-.83-.41-1.86-.21-2.69,.41-2.07,0-3.93,0-6-.21-2.9-.21-6-.41-8.9,0-2.28-.21-4.35-.62-6.42,0-1.03,.21-1.86,.21-2.9,.21-.62,.62-1.24,1.45-1.04,.83,0,1.86,0,2.69,.21l.83,.21c1.66-.21,2.07,1.24,3.1,2.28,.62,.62,.62,1.86,.62,2.9,.21,.83-.21,1.86-.21,2.9,.21,1.66,.41,3.1,.41,4.76,.21,1.04,0,2.07,.62,3.1v.62l.62,7.87c.21,1.86,.41,3.52,.83,5.38v.83c-.41,1.24-.21,2.28,0,3.52,.21,2.69,.21,5.59,.21,8.28v1.66c-.21,.62-.62,1.24-.21,2.07,.21,0,.21,.21,.21,.41-.62,1.24-.21,2.48-.83,3.73-.21,.21-.21,.41-.21,.41,.41,1.45,.21,2.69,0,3.93-.21,1.24-.41,2.48-.41,3.52l-.41,2.28q-.21,0-.21,.21c0,1.86-.62,3.52-1.04,5.38-.21,1.66-.62,3.1-1.24,4.76-.21,.83-.21,1.86-.62,2.69-.41,1.03-.21,2.07-.41,3.1,0,.21,0,.41-.21,.62-.62,1.04-.83,2.07-1.03,3.31-.21,.62-.62,1.04-1.03,1.66l-.62,1.24c-.21,1.45-.62,2.9-1.66,4.35,0,0-.21,.21-.21,.41,0,1.45-1.24,2.69-1.45,4.14l-.41,.62c-1.24,.62-1.86,2.07-3.1,2.9-.41,.41-.83,.62-1.45,1.03-.41,.41-1.03,.83-1.45,.83-1.45,.21-2.69,1.03-3.93,1.24-.41,0-.83,.41-1.04,.62-1.24,1.24-2.28,2.28-4.14,2.07-.41,0-.83,.41-1.45,0h-.21c-.83,.83-1.66,.62-2.48,.62s-1.66,0-2.48-.41c-.62-.41-1.66-.41-2.48-.62-.21-.21-.41,0-.62-.21-1.24-1.03-2.9-1.66-3.93-3.11,0-.21-.21-.41-.41-.62-1.03-.62-1.66-1.45-2.07-2.48-.21-.41-.62-.83-1.04-1.04-.83-.41-1.24-1.03-1.24-2.07,0-.41,0-.83-.21-1.04-.83-1.66-1.24-3.31-2.07-4.76-.83-1.45-1.03-3.11-1.45-4.55-.21-1.03-.62-2.28-.41-3.52,0-.21-.41-.62-.41-1.03l-1.86-8.28c-.62-2.9-.62-5.59-.62-8.49v-4.35Z"/>
    <path class="cls-2" d="M818.05,358.85v-4.14c0-1.03-.41-1.66-1.45-1.86-.21,0-.62-.21-.62-.41-.62-.83-1.66-1.24-2.69-1.45-.62-.21-1.45-.62-2.28-.83-1.03-.21-2.07-.41-3.11-.62h-.41c-1.04,.21-2.07,.62-3.11,.83l-.83,.21c-.83-.21-1.45,.41-1.86,1.04-.41,.62-.83,1.04-1.45,1.24-1.03,.41-1.66,1.03-2.07,2.07-.62,1.24-1.45,2.48-2.48,3.52-.83,.83-1.24,2.07-1.45,3.31-.21,1.24-.62,2.48-1.45,3.52l-.62,1.45c-.21,.62-.41,1.45-.62,2.07l-.21,.83c.21,1.45,.21,2.9,.21,4.35v.41c0,1.24,0,2.48-.21,3.52-.21,2.28,.41,4.35,1.04,6.42,.41,1.86,.62,3.52,1.24,5.17,.41,1.45,1.03,2.69,1.45,4.14,.41,.62,.83,1.24,1.03,2.07,1.24,2.69,2.28,5.59,3.31,8.49,.21,.21,.21,.41,.21,.41,1.24,1.86,2.28,3.52,3.31,5.38l2.48,5.17c.21,.21,.21,.62,.41,1.04,1.45,1.66,1.86,3.52,3.1,5.38,0,0,0,.21,.21,.41,1.24,1.66,1.86,3.52,2.69,5.18,1.03,2.07,2.07,3.93,2.9,6,.62,1.24,1.24,2.69,2.07,3.93,.21,.21,.41,.62,.41,.83,.41,.83,.83,1.66,1.04,2.69,.21,.21,.21,.62,.41,1.03v.62c.62,.83,.83,1.86,1.24,2.69,.62,1.66,1.24,3.31,1.45,5.18l.62,3.93c.21,1.24,.41,2.69,.41,3.93-.21,2.28,.21,4.76-1.04,6.83,0,1.66-1.04,2.48-2.07,3.52-1.24,1.04-2.28,1.86-3.73,2.07-.83,.21-1.66,.62-2.48,1.03-1.66,.83-3.52,1.45-5.59,1.66-.62,0-1.04,0-1.66-.41-.62-.41-1.24-.83-2.28-.62-.83,.21-1.66-.21-2.48-.83-.41-.83-1.03-1.24-1.86-1.66s-1.66-1.24-2.48-1.86l-1.86-1.24c-.21-.21-.62-.41-.62-.62-.62-1.04-1.45-1.86-2.28-2.69-.62-.62-1.03-1.24-1.24-2.07,0-.62-.21-1.24-.62-1.66-.41-1.04-.62-2.28-.83-3.52-.21-1.04-.21-1.86-.41-2.9v-.83c.41-1.24,.62-1.45,2.07-1.24l2.28,.62c.41,.21,.83,.41,1.04,.62l1.24,2.9c.21,.62,.41,1.04,.83,1.66,.62,.41,1.04,1.04,1.45,1.66,.41,.83,1.03,1.45,1.86,2.07,.62,.41,1.24,.83,1.86,1.45,1.24,1.24,2.48,2.28,4.35,2.69,2.07,.21,3.1-.41,3.52-2.07,.21-.62,.41-1.24,.41-1.66l.62-8.28c0-1.66-.21-3.1-.62-4.55l-1.86-6.62c0-.41-.21-.83-.41-1.24l-1.24-2.48c-1.45-2.69-2.48-5.59-4.35-8.07,0-.21-.21-.21-.21-.41-.83-2.07-2.28-3.93-3.31-6-1.04-2.07-2.28-3.73-3.31-5.8-1.45-2.9-2.9-5.8-4.35-8.69l-2.9-5.59c0-.21-.21-.41-.21-.62-.62-3.11-2.07-5.8-3.31-8.69-1.45-3.52-2.69-7.24-3.11-11.18,0-1.45,0-2.69-.21-3.93-.41-1.86-.21-3.73-.21-5.38,0-1.86,.21-3.52,.41-5.38,0-1.24,.21-2.28,.21-3.52,.21-1.86,.83-3.52,1.66-5.17,.62-1.04,.83-2.28,1.45-3.52,.83-1.86,1.86-3.73,2.9-5.38,.21-.62,.83-1.24,1.24-1.66,1.66-1.03,2.9-2.28,4.76-3.11l.41-.41c1.66-1.45,3.52-2.07,5.8-2.28,1.45-.21,2.9-.62,4.14-1.03,1.45-.41,2.69-.62,3.93-.41,1.45,0,2.9,.21,4.14,.41,1.86,.41,3.31,1.24,4.97,1.86,.62,.41,1.45,.83,1.86,1.45,.83,.83,1.66,1.45,2.9,1.66,1.03,.21,1.66,1.03,1.86,2.07,.21,.62,0,1.24,.62,1.86,.21,0,.21,.41,.21,.62-.21,1.24-.41,2.69,.21,3.93,0,2.28,.83,4.55,.21,6.62-.21,.83-.21,1.45,0,2.28,0,1.45-.62,2.69-1.24,4.14,0,.41-.21,1.03-.41,1.45-.21,.83-.83,1.04-1.66,.62-.62-.21-1.04-.62-1.24-1.45-.21-1.04-.62-2.28-1.03-3.31-.62-1.66-1.04-3.31-.83-5.18v-1.66h-.21Z"/>
    <path class="cls-2" d="M867.93,459.66c0-1.45,.21-2.9,.21-4.35,0-1.04-.21-1.86-.21-2.69,.21-2.48,.41-4.97,.62-7.24v-1.24c.21-2.28,.41-4.35,.41-6.42,0-2.48,.41-4.97,.62-7.45,.21-2.9,.41-5.59,.41-8.49,.21-1.66,.21-3.31,.21-4.97,0-2.69,0-5.38,.41-7.87,.21-2.07,0-4.14,0-6.21v-6.42c0-2.48,0-4.97,.21-7.45,.41-4.55,.41-9.32,.21-13.87,0-2.9-.21-5.8-.41-8.69v-3.31c0-2.07,0-4.35-.41-6.42-.21-.83-.21-1.04-1.24-.83-2.07,0-4.14,0-6,.21-2.07,.41-3.93,0-5.8,.21h-5.59c-.62,0-1.24,.21-1.86,.21-.41,.21-.83,.41-1.03,.62-.62,.62-1.04,1.45-1.66,2.28-.62,.83-1.66,1.24-2.69,.83-1.24-.21-2.07-.62-2.9-1.66-.41-.62-1.03-1.24-1.24-2.07,0-.21-.21-.41-.41-.62-.83-.41-1.03-1.24-1.03-2.07-.41-1.24-.62-2.28-.83-3.52,0-.21,0-.41-.21-.62-.41-.62-.41-1.24-.21-1.86,0-.21-.21-.62-.21-1.04v-1.45c0-.62,.41-.83,1.03-1.04,1.04-.21,2.07-.41,3.11-.62h.41c1.04-1.04,2.28-.62,3.52-.41,.21,0,.41,.21,.62,.21,1.86,0,3.93,0,5.8-.21,1.86-.21,3.73-.41,5.38-.62l6.42-.62c2.69-.21,5.38-.62,8.07-.41,1.45,0,2.69-.41,4.14-.21,2.48,0,4.97,.21,7.45,.41,1.86,0,3.52,.21,5.18,.41l3.31,.62c.41,0,.83,0,1.24,.21,2.07,0,4.14,.83,6.21,1.45,1.66,.41,2.9,1.45,3.31,3.31,.41,1.66,.62,3.52-.41,5.17-.41,.41-.83,.83-1.66,.83h-4.35c-.62-.21-1.24,0-1.86,0l-8.28,.62c-1.45,0-2.9,.21-4.35,.41-1.24,.21-1.66,.62-1.86,1.86-.21,1.66-.41,3.31,.21,4.76v.83c-.21,.83,0,1.45,0,2.28s.21,1.66,.21,2.69c.21,2.48,.41,4.97,.62,7.66v.21c0,1.24,0,2.48-.21,3.52-.21,2.07-.41,4.14,0,6.21,0,.41,0,.83-.21,1.24v1.03c0,.62,.21,1.45,0,2.28-.21,.62,0,1.24-.21,1.86,0,1.04,0,2.07-.21,3.11-.41,.83-.21,1.86,0,2.69,0,.83,0,1.66-.41,2.48-.21,.83-.21,1.66-.21,2.48,0,1.45,.21,2.69,0,4.14-.21,1.86-.21,3.73-.21,5.8,0,.83,0,1.86-.21,2.9,0,1.24-.21,2.69,0,4.14,0,1.03-.21,2.28-.21,3.31-.41,3.73-.62,7.66-.62,11.38,0,1.24-.21,2.48-.41,3.73,0,1.24,0,2.48-.21,3.93,0,.21,.21,.62,0,.83-.62,1.66-.41,3.31-.41,4.97,0,1.24-.21,2.48-.21,3.93v1.86c-.21,1.86-.21,3.73-.41,5.8,0,.83,.21,1.86,.21,2.69,0,1.45-.21,3.11-.21,4.55,0,.83,0,1.45,.41,2.28,.41,.62,.41,1.45,.62,2.28q.21,.21,0,.21c-.41,1.24-1.24,1.86-2.28,2.48-.83,.41-1.66,0-2.28-.41-1.45-1.45-2.9-2.69-3.52-4.55-1.24-2.69-1.66-5.59-1.45-8.49Z"/>
    <path class="cls-2" d="M916.58,461.94c0-2.07,0-4.14-.21-6,0-.62,.21-1.45,.21-2.07v-.62c-.62-5.17-.62-10.56-.83-15.73,0-.62-.21-1.03-.21-1.66v-4.35c0-3.11,0-6.21-.21-9.31v-4.14c0-1.24,.21-2.48,.21-3.73,0-.21,.21-.41,0-.41-.41-2.9-.21-5.8-.21-8.49v-22.98c0-1.66,.41-3.11,.41-4.76v-14.08c.21-1.24,.21-2.28,0-3.52,0-1.24-.21-2.28-.21-3.52,0-.62,.21-1.03,.21-1.66,.21-1.45,.41-3.1,.41-4.76,0-.41,0-1.04,.21-1.45,.21-.41,.41-.62,.62-.62,.62-.41,1.24-.83,1.45-1.45,0-.21,.21-.41,.41-.41,1.24-.62,2.48-1.24,3.73-1.24,.41,0,.83,0,1.03,.21,.41,.62,1.24,.62,1.86,.62,2.07-.21,4.14-.21,6.21,0,1.66,0,3.31,.21,4.97,.41,1.45,.41,3.11,1.03,4.55,1.45l3.52,.62c1.66,.21,3.11,1.04,4.55,1.45,1.04,.21,1.66,.62,2.48,1.24,.83,.41,1.66,.83,2.48,1.45,.21,0,.41,.21,.62,.41,1.03,1.24,2.28,2.07,3.52,2.9,.41,.21,.62,.41,.83,.83,.83,1.45,1.45,2.9,2.07,4.35,1.66,2.9,1.24,6,.83,9.11-.21,2.69-1.03,4.97-2.28,7.24-.41,.83-1.03,1.24-1.45,2.07-1.24,1.45-2.9,2.69-3.93,4.14-.21,.41-.62,.62-.83,1.03-.21,.21-.41,.62-.83,.62-1.04,.41-1.45,1.45-2.48,1.86-.83,.21-1.66,1.04-2.28,1.66-1.86,1.04-3.73,2.48-5.8,3.11-.62,.21-1.24,.21-1.66,.41-.62,.21-.83,.62-.41,1.24,.62,.62,1.45,1.24,2.07,2.07,.41,.41,1.03,.83,1.45,1.45l2.9,3.73c.62,1.03,1.45,2.07,1.45,3.31,0,.21,0,.41,.21,.62,1.03,2.69,1.86,5.59,2.48,8.49,.21,1.03,.21,2.28,.41,3.31,.62,3.31,.41,6.62,.83,9.94,.21,2.07,.41,4.14,.83,6.21,.21,2.07,.62,4.14,1.03,6.21,.41,1.86,.83,3.52,1.86,5.17,.62,1.24,1.86,2.28,3.52,2.28h.62c1.45,.41,1.86,.83,1.45,2.28-.41,1.66-1.45,2.48-3.11,2.48h-1.86c-1.45-.41-2.9-1.04-4.35-1.66-.62,0-1.04-.41-1.45-.83-.41-.21-.62-.83-1.24-1.04-.83-.41-1.24-.83-1.66-1.66-1.66-2.48-2.9-4.97-3.1-8.07-.21-2.07-.83-4.14-1.04-6.21l-.62-5.59c0-1.66,0-3.52-.41-5.17-.21-1.66-.21-3.31-.41-4.97-.41-1.24-.41-2.69-.83-4.14-.41-1.03-.41-2.28-.62-3.31-.41-1.66-1.03-3.31-1.86-4.97-.21-.41-.62-.83-1.04-1.24-.41-.62-1.03-1.24-1.66-1.66-1.45-1.86-3.1-3.52-5.38-4.35-1.03-.41-2.07-.41-3.31-.62-.83-.21-1.24,.41-1.03,1.24,.21,.62,.21,1.24,.21,1.86,0,1.24-.21,2.48-.21,3.73,0,2.28,.21,4.55,.21,6.83,.21,.62,.21,1.24,.41,2.07v.62c.21,2.69,.21,5.38,0,8.07,0,1.66,0,3.11-.83,4.76v.41c.62,1.24,.41,2.48,.41,3.73-.21,1.66,0,3.52,.21,5.17v2.48c.21,2.69,.21,5.59,.41,8.49,0,1.45,.41,2.69,.62,4.14,.21,2.07,.41,4.14,.41,6.21,0,.83-.21,1.66-.41,2.48v.21c.21,1.24-.41,2.48-.21,3.93v.21c-.21,1.86,.21,3.52-.21,5.38l-.62,3.73c-.21,1.24-.62,1.66-2.07,1.66-.21,0-.62,0-1.04,.21-2.07,.21-3.52-.83-4.76-2.48-1.04-1.24-1.86-2.9-1.86-4.55-.21-1.45-.41-2.9-.41-4.14Zm36.43-97.29c.21-1.24-.41-2.69-.83-4.14-.41-1.66-1.66-2.69-3.31-3.1-1.24-.41-2.48-.62-3.52-1.04-2.07-1.24-4.55-1.66-6.83-2.07-2.07-.41-4.35-.62-6.62-.62-.21,0-.62,0-.83-.21-1.24-.21-2.28,0-3.52,.21-1.03,.21-1.24,.41-1.24,1.66,0,2.69,.41,5.17,.21,7.66,0,.41,.21,.62,.21,1.04,.21,1.24,.41,2.48,0,3.73-.21,1.24,0,2.28,0,3.52-.21,.41,0,.62,0,1.03,0,2.48,.41,5.18,0,7.66-.21,.21-.21,.41,0,.62,.21,.83,0,1.86-.21,2.9-.21,1.24-.21,2.48-.21,3.73,0,.62,.41,.83,1.03,.41,1.45-.83,2.69-1.86,4.35-2.28,1.86-.41,3.73-1.24,5.38-1.86l5.38-1.86c.83-.41,1.45-.83,2.07-1.45,.41-.62,1.03-1.03,1.66-1.45,.41-.41,1.03-.62,1.45-1.03,1.04-1.03,1.86-2.07,2.48-3.11,.62-.83,1.24-1.66,1.66-2.48,.83-2.28,1.45-4.55,1.24-7.45Z"/>
    <path class="cls-2" d="M1008.69,466.08c0-.62,0-1.45,.41-2.48,.41-1.45,.62-2.9,1.03-4.55l1.24-5.8c.21-1.24,.41-2.48,.41-3.73,.21-.83,.21-1.66,.21-2.48,0-.21,0-.41,.21-.62,0-.62,.21-1.03,.21-1.66,.21-2.48,.41-4.76,.83-7.25,.21-.62-.41-1.86-1.24-2.07-.83-.21-1.86-.41-2.69,0-.83,0-1.66,.21-2.28-.21-.21-.21-.62-.21-.83-.21-1.03,.21-2.07,.21-3.31,.21-1.03,0-2.28,0-3.31-.21-.41,0-.83,.21-1.24,.41-.62,.41-1.66,.62-2.48,.83-1.03,0-1.86,0-2.9,.21s-2.28,.41-3.31,.83c-.62,0-1.03,.21-1.45,.41-.62,.21-1.04,.62-1.04,1.24,.21,1.45,0,3.11,.41,4.35,.21,.21,.21,.41,.21,.62-.21,2.07,.21,4.14,.41,6v.41c-.21,2.28,.41,4.35,.83,6.62,0,1.45,.21,2.69,.41,4.14l.62,2.69c.21,.21,.41,.41,.41,.62,0,1.66,.41,3.1,.21,4.76,0,1.04-.62,1.66-1.24,2.48-.21,0-.41,.21-.62,.21-.83-.21-1.66-.41-2.07-1.04-.21-.62-.83-.83-1.45-1.04-2.07-.41-3.31-1.86-3.93-3.93v-.41c.21-.62,0-1.24-.21-1.66-.41-.62-.62-1.45-1.03-2.07-.21-.41-.21-.83-.41-1.24-.41-.62-.41-1.45-.41-2.07-.21-1.04-.62-2.07-.83-2.9,0-.62-.21-1.24-.21-1.66-.21-2.9-.62-5.59-1.24-8.07,0-.21-.21-.21-.21-.41,.41-1.86-.62-3.73-.62-5.8l-.62-5.8c-.21-.62-.83-1.24-.41-1.86-.41-2.07-.21-4.14-.21-6.21v-15.32c0-2.07,.41-4.14,.41-6.21,.21-.41,0-.83,.21-1.03,0-1.66,.21-3.11,.41-4.76,0-1.45,.21-3.11,.41-4.55,0-1.24,.21-2.28,.41-3.52,0-.41,.21-.83,.21-1.24l.62-4.55c.21-2.48,.21-5.17,.62-7.87,.21-1.24,.41-2.9,1.03-4.14,.41-1.24,.83-2.48,1.24-3.73l2.48-7.87c.41-1.24,1.03-2.28,1.45-3.52,.41-2.07,1.66-3.93,2.48-5.8l.41-1.04c.41-.83,.83-1.66,1.45-2.48,.21-.21,.41-.41,.62-.83,.41-1.03,1.45-1.86,2.28-2.9,.41-.21,.62-.62,1.03-1.24,.62-1.24,1.66-1.66,2.9-.83,.62,.21,1.04,.21,1.66-.21,1.04-.83,2.28-.41,3.31,0,1.04,.41,1.86,.62,2.9,.83,1.24,.21,2.28,.41,3.11,1.24,.21,.21,.41,.41,.62,.41,1.04,.62,2.07,1.24,2.69,2.28,.41,.83,1.24,1.66,2.07,2.07,.62,.62,1.24,1.04,1.45,1.86,0,.41,.21,.62,.41,.83,1.24,1.66,2.48,3.31,3.31,5.18,.41,.83,.83,1.86,1.04,2.69v.21c1.03,1.66,1.24,3.73,1.66,5.59,.21,.21,.21,.62,.21,1.03-.21,1.04,.21,2.28,.41,3.31,.21,2.07,1.04,3.93,1.66,6,.21,1.04,.41,1.86,.41,2.9,0,1.45,.21,2.69,.41,3.93v1.86c-.21,.83-.21,1.45-.21,2.28,.41,1.66,.41,3.31,.41,4.76-.21,1.04,.21,1.86,.21,2.9,.21,1.03,0,2.28,0,3.31,0,.41,0,1.03,.21,1.45,.21,1.24,.21,2.28,.21,3.31,.21,.21,0,.41,0,.62-.41,1.45-.21,2.69-.21,4.14,0,.83,.21,1.66-.41,2.28v.41c.21,1.45,.21,2.69,0,3.93-.41,1.66,0,3.11-.21,4.55,0,1.45,.21,2.69,.21,4.14,0,.21-.21,.62-.21,1.03,0,0-.21,.21-.21,.41,.62,1.66-.41,3.31-.21,4.76,0,.41-.21,.83-.21,1.24-1.03,2.69-1.24,5.59-1.45,8.49-.21,1.24,.21,2.69,0,3.93,0,1.45-.21,2.69-.41,3.93-.41,3.1-1.24,6-1.86,9.11v.21c.21,1.03-.21,2.07-.41,3.11,0,1.03-.41,2.07-.62,3.1-.21,.83-.41,1.66-.62,2.48l-1.24,4.55c-.21,.83-.21,1.45-.41,2.07-.21,1.66-1.66,2.48-3.11,1.66l-2.07-1.24c-.41-.41-.83-.83-.83-1.24-.21-1.04-.83-2.07-.62-3.31v-.62Zm6.21-86.73h.21v-1.45c0-1.03,0-1.86-.41-2.69-.21-.21-.21-.41-.21-.62-.41-2.28-.83-4.55-1.45-6.83-.21-1.03-.41-2.07-.62-3.31l-.62-3.31c0-.21,0-.41-.21-.62-.41-1.24-1.04-2.28-1.66-3.52-.21-1.03-.83-1.66-1.24-2.48-.41-.62-1.03-1.03-1.86-1.24-.83-.41-1.86-.83-2.9-1.04-2.28-.62-3.93-.21-4.97,2.07-.62,1.24-1.03,2.69-1.86,3.73-1.03,1.66-1.86,3.52-2.48,5.18-1.45,2.69-2.07,5.59-2.48,8.49-.21,1.45-.62,2.69-.83,3.93-.41,1.45-.83,2.9-1.45,4.35-1.04,2.69-1.24,5.59-1.24,8.49,0,2.07-.41,4.14-.21,6.21,0,2.28-.62,4.35-.83,6.42,0,1.66-.41,3.11-.41,4.76v.83c-.62,1.03-.41,2.07-.62,3.31v1.45c0,1.24-.21,2.28,0,3.31,0,.41,.21,.62,0,.83-.41,1.03-.41,2.28-.21,3.31,.21,.41,0,.62,0,1.03,0,1.66-.21,3.11,.41,4.55,.21,.41,0,1.04,0,1.45q0,.83,.83,1.04c.41,0,.83,0,1.24-.21,1.86-.62,3.52-1.03,5.59-.62h.41c1.03-.21,2.07-.21,2.9-.21,1.03,0,2.07-.41,3.11-.41h4.76c1.24,0,2.28,.62,3.52,0h.21c1.24,.21,2.48,.21,3.52,.41,.83,0,1.24-.21,1.24-1.24v-.83c.62-3.31,.62-6.62,.62-9.94,0-1.24,.21-2.69,.21-3.93,.21-1.86,.21-3.73,.41-5.38,0-1.24,0-2.48,.21-3.73v-1.45c0-2.48,0-4.97,.21-7.45,0-.41,.21-1.03,0-1.45,0-2.07-.41-4.14-.41-6,0-1.66-.21-3.31-.41-5.17Z"/>
    <path class="cls-2" d="M1066.86,459.66c0-1.45,.21-2.9,.21-4.35,0-1.04-.21-1.86-.21-2.69,.21-2.48,.41-4.97,.62-7.24v-1.24c.21-2.28,.41-4.35,.41-6.42,0-2.48,.41-4.97,.62-7.45,.21-2.9,.41-5.59,.41-8.49,.21-1.66,.21-3.31,.21-4.97,0-2.69,0-5.38,.41-7.87,.21-2.07,0-4.14,0-6.21v-6.42c0-2.48,0-4.97,.21-7.45,.41-4.55,.41-9.32,.21-13.87,0-2.9-.21-5.8-.41-8.69v-3.31c0-2.07,0-4.35-.41-6.42-.21-.83-.21-1.04-1.24-.83-2.07,0-4.14,0-6,.21-2.07,.41-3.93,0-5.8,.21h-5.59c-.62,0-1.24,.21-1.86,.21-.41,.21-.83,.41-1.04,.62-.62,.62-1.03,1.45-1.66,2.28-.62,.83-1.66,1.24-2.69,.83-1.24-.21-2.07-.62-2.9-1.66-.41-.62-1.04-1.24-1.24-2.07,0-.21-.21-.41-.41-.62-.83-.41-1.04-1.24-1.04-2.07-.41-1.24-.62-2.28-.83-3.52,0-.21,0-.41-.21-.62-.41-.62-.41-1.24-.21-1.86,0-.21-.21-.62-.21-1.04v-1.45c0-.62,.41-.83,1.04-1.04,1.03-.21,2.07-.41,3.11-.62h.41c1.03-1.04,2.28-.62,3.52-.41,.21,0,.41,.21,.62,.21,1.86,0,3.93,0,5.8-.21,1.86-.21,3.73-.41,5.38-.62l6.42-.62c2.69-.21,5.38-.62,8.07-.41,1.45,0,2.69-.41,4.14-.21,2.48,0,4.97,.21,7.45,.41,1.86,0,3.52,.21,5.17,.41l3.31,.62c.41,0,.83,0,1.24,.21,2.07,0,4.14,.83,6.21,1.45,1.66,.41,2.9,1.45,3.31,3.31,.41,1.66,.62,3.52-.41,5.17-.41,.41-.83,.83-1.66,.83h-4.35c-.62-.21-1.24,0-1.86,0l-8.28,.62c-1.45,0-2.9,.21-4.35,.41-1.24,.21-1.66,.62-1.86,1.86-.21,1.66-.41,3.31,.21,4.76v.83c-.21,.83,0,1.45,0,2.28s.21,1.66,.21,2.69c.21,2.48,.41,4.97,.62,7.66v.21c0,1.24,0,2.48-.21,3.52-.21,2.07-.41,4.14,0,6.21,0,.41,0,.83-.21,1.24v1.03c0,.62,.21,1.45,0,2.28-.21,.62,0,1.24-.21,1.86,0,1.04,0,2.07-.21,3.11-.41,.83-.21,1.86,0,2.69,0,.83,0,1.66-.41,2.48-.21,.83-.21,1.66-.21,2.48,0,1.45,.21,2.69,0,4.14-.21,1.86-.21,3.73-.21,5.8,0,.83,0,1.86-.21,2.9,0,1.24-.21,2.69,0,4.14,0,1.03-.21,2.28-.21,3.31-.41,3.73-.62,7.66-.62,11.38,0,1.24-.21,2.48-.41,3.73,0,1.24,0,2.48-.21,3.93,0,.21,.21,.62,0,.83-.62,1.66-.41,3.31-.41,4.97,0,1.24-.21,2.48-.21,3.93v1.86c-.21,1.86-.21,3.73-.41,5.8,0,.83,.21,1.86,.21,2.69,0,1.45-.21,3.11-.21,4.55,0,.83,0,1.45,.41,2.28,.41,.62,.41,1.45,.62,2.28q.21,.21,0,.21c-.41,1.24-1.24,1.86-2.28,2.48-.83,.41-1.66,0-2.28-.41-1.45-1.45-2.9-2.69-3.52-4.55-1.24-2.69-1.66-5.59-1.45-8.49Z"/>
    <path class="cls-2" d="M1114.27,369.41c0-.41,.21-1.03,.41-1.66l.62-2.28c.21-.62,.41-.83,.83-1.45,1.03-1.04,2.07-2.07,3.52-2.9,.21,0,.41-.21,.62-.21,1.66,0,3.31-1.04,5.17-.83,.83,.21,1.45,.41,1.86,1.24,1.24,1.66,1.86,3.31,1.45,5.38,0,.41-.21,.83-.41,1.03l-.62,1.86c-.62,.83-1.24,1.45-1.66,2.28l-1.45,1.86c-.62,1.04-1.66,1.66-2.9,1.86-1.04,.21-2.07,.21-3.11,.21-.21,0-.62-.21-.83-.41-.62-.62-1.24-1.03-1.66-1.66-.83-1.45-1.86-2.48-1.86-4.35Zm1.24,72.86c.21-1.03,.21-2.07,.41-3.11v-.62c-.21-1.86,0-3.52,0-5.38,0-1.66,0-3.31,.21-4.97,.21-.83,.62-1.66,.41-2.48-.41-1.66,0-3.1-.21-4.55,0-4.35,0-8.69,.21-13.04,0-1.24,.21-2.69,.21-3.93,.21-.21,.21-.41,.21-.62-.41-1.45-.41-3.1,0-4.55,.21-.83,0-1.66,.21-2.48,.41-1.66,.21-3.11,.41-4.55,0-.62,.41-1.03,.62-1.45l.62-1.24c0-1.03,.83-1.66,1.66-2.28,.41-.41,3.31-.41,3.93,0,.41,.41,.83,1.04,1.03,1.66,.41,.62,.62,1.45,1.03,2.28,0,.21,.21,.62,0,.83-.62,.62-.21,1.24-.21,1.86,0,1.45,.41,2.9,.21,4.35s.21,2.9,.21,4.35v7.66l.21,.83c-.41,1.45,.21,2.9,.21,4.35,0,.62-.21,1.24-.41,1.66-.21,1.24,0,2.48,0,3.52,.21,1.45,.21,2.9,.21,4.14,0,.62-.21,1.24-.21,1.66-.21,1.04-.21,1.86-.21,2.9-.21,1.66,.21,3.31,.62,4.76,.21,.83,.41,1.45,.21,2.07-.21,.83-.21,1.66,0,2.28,.21,.83,.21,1.45-.41,2.07-.41,.41-.41,1.04-.21,1.66,.21,.21,0,.62,0,1.04,0,.21-.21,.62,0,1.03,.21,1.66-.41,3.11-1.24,4.35-.62,1.24-1.66,2.48-3.31,2.07-1.45-.21-2.9-.62-4.14-1.04-1.24-.62-2.07-1.86-2.07-3.31-.21-1.24-.21-2.48-.41-3.73Z"/>
    <path class="cls-2" d="M1185.68,397.97c0,1.45,.21,2.69,.21,3.93v5.59s-.21,.21,0,.41c.41,2.28-.21,4.76-.21,7.04,0,1.45-.62,2.9-.62,4.35-.62,1.04-.41,2.07-.41,3.11,0,.83-.21,1.66-.41,2.48-.62,1.03-.83,2.28-1.03,3.52-.41,2.07-1.03,4.35-2.07,6.42-.41,.62-.62,1.24-.83,1.86-.83,1.24-1.45,2.28-2.28,3.31-.21,.41-.62,.62-.83,.83-.62,.21-1.03,.62-1.45,1.24-.21,.62-.83,1.03-1.45,1.24-1.24,.62-2.69,1.45-4.14,1.66-1.03,.21-2.07,.41-2.9,.83-.83,.21-1.66,.62-2.48,1.24-.21,0-.41,.21-.62,.41-.83,.41-1.24,.21-1.86-.41-.21-.21-.41-.62-.83-.83-.21-.41-.83-.62-1.24-.62-1.03-.21-1.86-.62-2.69-1.03-.41-.21-1.03,0-1.24-.62,0,0-.41-.21-.62,0-.62,.21-1.03,0-1.45-.21-.83-.62-1.86-1.04-2.48-1.86-.41-.21-.83-.41-1.24-.83,0,0-.21,0-.41-.21-2.69-2.07-4.97-4.35-5.59-7.87l-.62-2.28c-.41-1.86-1.03-3.73-1.45-5.38v-1.04c-.21-.62-.21-1.24-.41-1.86,0-.41,0-.83-.21-1.45,0-1.66-.21-3.31-.41-5.17v-2.9c.21-2.69,.41-5.59,.83-8.28,.41-2.9,1.04-5.59,1.66-8.28,.21-1.66,.62-3.31,1.04-4.97,.41-1.45,.62-2.69,1.24-3.93,.83-1.86,1.45-3.93,2.28-6,.41-1.04,1.24-2.28,1.86-3.31,.21-.41,.41-.62,.62-.83,1.03-2.9,3.31-4.76,5.17-7.24,.62-1.04,1.66-1.66,2.9-2.28,1.03-.62,2.07-1.24,2.69-2.28,.41-.62,1.03-.83,1.86-1.24,.62-.21,1.04,0,1.24,.41l.41,.41c.21,1.66,1.86,1.86,2.9,2.48l1.86,1.24c1.66,1.24,3.52,2.48,4.97,4.14,1.24,1.24,2.69,2.48,3.73,4.14,.41,.62,.83,1.45,1.24,2.28s.83,1.66,1.45,2.48c.83,1.24,1.03,2.48,1.45,3.73,.21,.83,.62,1.45,.83,2.28,.41,1.66,1.04,3.31,1.45,4.97,.41,1.86,.83,3.52,.62,5.18Zm-6.83-2.69c-.21-.83,0-1.66-.21-2.48-.62-2.07-1.45-4.14-2.07-6-.21-1.03-.41-2.07-1.03-2.9-1.24-2.07-3.11-3.73-4.76-5.59-1.03-1.04-2.48-.83-3.52,0-.62,.62-1.45,1.03-2.28,1.24-1.86,.62-3.31,1.66-4.35,3.31-.21,.41-.62,.83-.83,1.04-1.24,.41-1.66,1.24-1.86,2.28-.83,2.48-2.07,4.97-2.9,7.45-1.03,2.28-1.45,4.76-2.28,7.04-.62,2.28-.62,4.35-1.03,6.62-.41,2.07-.41,4.14-1.03,6v.62c0,.83,.41,1.86-.21,2.69-.21,0,0,.41,0,.62,0,2.28,0,4.55,.21,6.83,.21,2.69,.41,5.17,1.03,7.66,.21,.83,.41,1.24,1.03,1.86,.41,.62,1.03,1.04,1.86,1.45,2.48,1.45,5.38,1.45,8.07,1.45,1.24,0,2.48-.21,3.52-.62,1.86-.41,3.31-1.03,4.55-2.48,1.03-1.03,1.86-2.28,3.11-3.31,.83-.83,1.45-2.07,1.86-3.31l1.66-6c.21-1.24,.41-2.48,.83-3.93,.21-.83,0-1.86,.21-2.9,0-1.45,.21-2.9,.41-4.35,.21-1.86,.62-3.93,.21-6-.21-1.66-.21-3.31,.21-4.97v-.41c-.62-.83-.41-1.86-.41-2.9Z"/>
    <path class="cls-2" d="M1200.79,465.25c-.21-2.07-.62-4.76-.83-7.45-.21-2.07-.41-4.35-.21-6.42,.21-.62,.21-1.24,0-1.66,0-2.69-.41-5.17-.41-7.66-.21-2.07-.41-4.35-.41-6.62,0-.83,0-1.66,.21-2.48,.41-1.45,.21-3.11,.21-4.55-.21-2.07-.41-4.35-.41-6.42,0-1.04,.21-2.07,.21-3.1,0-1.24-.21-2.28,.21-3.52v-3.73c0-.62,0-1.03-.21-1.66-.21-.62-.21-1.45-.21-2.07,0-2.07,0-3.93-.21-5.8,0-.62,0-1.24-.21-1.66v-7.87c-.21-2.48,0-4.97,.21-7.45,.21-2.48,0-4.76,.21-7.04,0-1.86,.21-3.73,.21-5.59v-6c.21-.41,.21-1.04,.21-1.45,0-2.07-.21-4.35-.21-6.42v-1.66c0-.62,.21-1.24,.21-2.07,0-1.24,.21-2.48-.41-3.73-.21-.83,0-1.45,.62-1.86,.41-.41,.62-.62,.62-1.24-.21-.83,.41-1.24,.83-1.66l3.73-2.48c.21-.21,.41,0,.62,0,.41,1.45,1.45,2.07,2.28,3.11,.41,.83,1.03,1.86,1.66,2.69,1.86,2.28,3.73,4.76,5.38,7.45,.62,.83,1.24,1.86,1.66,2.9,.62,1.24,1.24,2.48,1.66,3.73,.41,.62,.83,1.45,1.24,2.28,.21,.62,.41,1.03,.83,1.66,0,.21,0,.62,.21,.62,1.24,1.45,1.66,3.31,2.07,4.97,.62,1.86,.83,3.73,1.45,5.59,.83,2.28,1.45,4.55,2.69,6.83,1.04,1.66,1.45,3.52,2.28,5.17,.21,.62,.41,1.03,.41,1.66,1.03,2.48,1.86,4.97,2.69,7.66,.21,.83,.41,1.66,.83,2.28,.83,1.66,1.24,3.31,1.86,4.97,.62,2.9,1.66,5.59,2.48,8.49,.41,1.04,.62,2.07,.83,3.31,.21,1.04,.62,2.07,1.03,3.31,.21,1.04,.62,2.28,.83,3.52,.62,1.86,1.24,3.73,1.66,5.8,.21,1.04,.21,2.07,.83,3.1v.41c.41,.62,.83,1.03,1.03,.83,.41-.21,.21-.62,.21-1.04v-2.9c0-.21,.21-.62,0-.83-.21-.41-.21-.83,.21-1.24,0-.21,0-.41,.21-.83v-2.48c-.41-.83,0-1.66,.21-2.69,0-.21,.21-.62,.21-1.03-.21-.83,0-1.45,.21-2.28v-1.24c-.21-.62,0-1.45,.21-2.07,.41-.41,.83-.83,.62-1.45l.21-.21c1.24,0,.41-.83,.41-1.45s.21-1.04,0-1.66-.21-1.24-.83-1.66c-.21-.21-.41-.62-.21-.83,.41-.62,.21-1.03,0-1.45-.21-.41,0-.62,0-1.04,0-1.45,.21-2.9,.41-4.14v-.62c0-1.66-.21-3.52-.21-5.18-.21-.41,0-.83,0-1.24,.62-1.66,.62-3.52,.83-5.38,0-1.24,.21-2.48,.21-3.73v-.21c.21-2.07,.21-4.14,.41-6.21,.21-2.28,0-4.55,0-6.83,0-.62,0-1.24,.21-1.86,.21-.41,.21-.83,.21-1.24,0-1.03,0-2.07,.21-3.1,.21-1.66,0-3.31,0-4.97,0-.62,.21-1.24,.21-2.07,.21-1.66,0-3.52-.41-5.17,0-1.04,0-2.07,.21-3.11v-2.07c0-1.86,.62-3.52,1.66-4.97,.21-.21,.62-.41,1.03-.83l.83-.62c.41-1.04,1.45-1.24,2.28-1.45,.62-.21,1.24,0,1.45,.62,.41,1.03,.83,1.86,1.45,2.69,.41,.41,.41,1.03,.62,1.45,.21,.83,.41,1.86,.62,2.69v.83c-.21,2.69,0,5.38,0,8.07v5.8c-.83,2.07-.62,4.35-.83,6.62-.21,1.66-.21,3.52-.21,5.38-.21,1.66-.41,3.11-.41,4.76-.21,1.03-.41,1.86-.21,2.9,.21,.62,.21,1.45,0,2.28l-.41,4.14c-.41,2.07-.41,4.14-.62,6.21,0,1.66-.21,3.52-.41,5.17v.62c.21,1.86-.21,3.52-.21,5.38,0,1.66-.41,3.11-.62,4.76v.21c.21,1.66,0,3.31,0,4.97l-.62,6c0,1.04-.21,2.07-.21,3.31v22.98c0,1.24-.21,2.69-.21,3.93,0,.83,0,1.66,.21,2.48,0,1.24-.21,2.48-.62,3.73-.21,.41-.41,1.04-.41,1.66s0,1.04-.41,1.66c-1.04,1.04-1.45,2.48-1.86,3.73-.41,1.03-1.04,1.66-2.07,2.07-2.9,.83-4.55,.21-5.8-2.48l-2.48-4.35c-.62-2.07-1.24-3.93-1.45-6,0-.83-.21-1.45-.41-2.07,0-1.04-.21-2.07-.21-3.31,0,0,0-.21-.21-.21-.83-2.28-.83-4.35-1.24-6.62-.21-1.45-.41-2.9-1.03-4.14-1.04-2.07-1.45-4.35-1.86-6.42-.41-1.24-.83-2.28-1.03-3.52-.21-.21-.21-.41-.21-.62-.21-2.48-1.24-4.76-1.86-7.04-.62-1.24-1.04-2.69-1.24-4.14,0-.41,0-.62-.21-.83-.62-1.66-.83-3.11-1.45-4.76-.83-1.86-1.45-3.52-2.07-5.38-.21-1.04-.62-2.07-1.04-2.9-1.24-2.48-1.86-5.17-2.48-7.66-.41-1.45-1.03-2.69-1.45-4.14-1.24-1.86-1.66-3.93-2.9-5.59-1.03-1.66-1.45-3.52-1.86-5.17-.41-2.07-1.04-3.93-1.45-5.8,0-.21,0-.41-.21-.62-.83-1.86-1.86-3.73-2.69-5.38-.21-.41-.62-.83-.83-1.04-.21-.41-.62-.62-.83-.41-.21,.21-.41,.62-.41,.83,0,2.48,0,5.17-.21,7.66l-.21,2.07c-.21,1.86-.21,3.52-.21,5.17-.21,1.03-.21,1.86-.21,2.9,0,1.24,.21,2.48-.21,3.73v1.03c.62,3.11,.41,6.21,.62,9.32,.21,1.04,.21,2.07,.21,3.1v31.05c0,3.1,.21,6.21,.41,9.11,0,1.86,.21,3.52,.21,5.38,0,1.45-.21,2.9,.21,4.35v.21c-.21,1.45,.21,2.9,.41,4.35,.21,2.9,.41,6,1.24,8.69q.41,1.24-.62,1.86c-1.03,.41-1.86,1.03-2.9,1.66-.41,.41-1.03,.62-1.66,1.03-1.45,.62-2.48,.21-3.31-1.03-1.03-1.86-1.24-3.93-1.03-6.62Z"/>
    <path class="cls-2" d="M687.12,524.25c3.73,.21,7.04,.21,10.14,1.04,1.45,.21,2.9,.62,4.35,1.03,1.66,.41,3.52,.83,5.18,1.45l1.24,.62c1.66,.83,3.11,1.66,4.76,2.69,.83,.41,1.66,1.24,2.48,2.07,1.24,1.04,2.28,2.48,3.31,3.93,1.03,1.66,2.07,3.11,2.9,4.76,.41,.83,.62,1.86,.83,2.9,.21,.41,.21,1.04,.41,1.45v1.03c0,2.07,0,4.35,.21,6.42,0,.83,0,1.45-.41,2.07-.21,.21-.21,.62-.21,1.04-.21,1.03-.41,2.28-1.24,3.11-.41,.62-.62,1.24-.83,2.07l-.62,.83c0,.21-.41,.41-.41,.83-.21,1.24-1.45,2.28-1.86,3.31-1.45,.83-1.86,2.28-2.9,3.31-.83,.83-1.66,1.86-2.28,2.69-.83,1.03-1.86,1.66-2.9,2.48-.83,.62-1.66,1.45-2.69,2.07-.83,.41-1.66,1.24-2.69,1.24-.41,0-.62,.41-1.03,.62l-2.48,1.45c-.41,.21-.62,.21-1.03,.21-.83,.21-1.45,.41-2.07,1.03-1.24,.83-2.48,1.45-3.93,1.45s-2.9,.41-4.14,.83c-1.04,.41-2.07,.62-3.1,.83l-1.45,.62c-.83,.41-1.24,1.03-1.24,1.86,0,2.28-.41,4.55-.41,6.83,0,1.03,0,2.28,.21,3.31v2.48c.21,1.04,.21,2.07,.41,3.11,.21,1.66,.21,3.31,0,4.97-.21,1.86,.21,3.52,.21,5.38,0,.83,.21,1.66,.21,2.48,.21,2.48,.21,5.17,.21,7.66,.21,1.03,.21,2.28,.41,3.31,.41,1.45,.41,3.1,.41,4.76s-.41,3.31,0,4.76v.83c-.21,.41-.21,1.03-.21,1.45,.21,2.48,.62,4.97,.83,7.66,0,1.04,.21,2.28,.21,3.52,0,2.07-1.24,3.52-2.9,4.55-1.24,.62-2.28,.83-3.52,.21-.41-.21-.83,0-1.04,0h-.83c-1.24-.21-1.66-1.03-1.24-2.07l.62-1.24c.21-.62,.41-1.45,0-2.28-.21-.21-.21-.41-.21-.62,.21-1.45-.41-3.11-.41-4.76-.21-1.66-.41-3.52-.21-5.17,.21-1.03,0-2.28,0-3.31,0-.83,.21-1.86,.21-2.9,0-.41-.21-.83-.21-1.24-.21-.62-.21-1.24-.41-2.07-.21-2.28,0-4.55,0-7.04v-1.24c0-.21-.21-.41-.21-.62,0-2.9-.41-5.8-.41-8.69,.21-1.86,.21-3.73,.41-5.38v-.83c-.62-2.07-.21-4.35-.41-6.62-.21-2.48,.21-4.76,.21-7.04v-.41c.62-2.69,.41-5.18,.41-7.87v-5.59c0-.41,.21-1.03,.21-1.66,.21-1.03,.21-2.07,.41-3.1,0-1.86,0-3.73,.21-5.59v-.83c-.41-1.86,0-3.73,0-5.38,.21-2.48,.83-4.76,.83-7.25v-3.93c-.21-1.66,0-3.31,.41-4.97,.41-2.07,.41-4.14,.21-6.21-.62-1.04-.21-2.28-.21-3.52,0-1.03,.21-1.86-.21-2.9,.41-1.04,0-1.86-.83-2.69-.21-.21-.21-.83-.21-1.24,0-.62,.41-.62,.83-1.04,.21,0,.62-.21,.62-.62,.62-.83,1.66-1.24,2.28-2.07,.21-.21,.62-.21,1.03-.21,2.07-.21,4.14-.21,5.8-.41Zm1.66,9.52h-2.28c-1.03,0-1.45,.41-1.45,1.45v.62c.41,1.66,.41,3.31,0,4.76-.21,1.66-.21,3.31-.41,4.76v.62c0,3.52,.21,6.83,.21,10.35,0,1.03-.41,2.07-.41,3.11-.21,2.48,0,5.17,0,7.66,0,.41,.21,1.04,0,1.66-.41,2.48,.21,5.17-.62,7.45v.21c0,.62,.62,1.03,1.03,.83l4.35-1.86c1.04-.21,1.86-.62,2.9-1.03,1.66-.62,3.31-1.03,4.97-1.66l4.97-2.9c.62-.62,1.45-1.04,2.07-1.66,.41-.41,.83-1.04,1.45-1.45,1.86-1.24,3.11-3.11,4.35-4.97,.83-1.45,1.86-2.9,2.28-4.55,.62-.62,.83-1.66,1.04-2.48,.41-1.45,.21-3.1,.21-4.76l-.62-2.48c-.62-1.24-1.24-2.48-2.07-3.73-.41-.83-1.24-1.66-1.86-2.48-.62-.83-1.03-1.66-1.86-2.28-1.03-.83-2.48-1.45-3.73-2.28-.83-.41-1.86-.83-2.9-1.04-.62-.41-1.45-.62-2.07-.83-.41,0-.62,0-.83-.21-1.45-.62-2.69-.83-4.14-.83h-4.55Z"/>
    <path class="cls-2" d="M736.59,644.1c0-2.07,0-4.14-.21-6,0-.62,.21-1.45,.21-2.07v-.62c-.62-5.18-.62-10.56-.83-15.73,0-.62-.21-1.04-.21-1.66v-4.35c0-3.1,0-6.21-.21-9.31v-4.14c0-1.24,.21-2.48,.21-3.73,0-.21,.21-.41,0-.41-.41-2.9-.21-5.8-.21-8.49v-22.98c0-1.66,.41-3.1,.41-4.76v-14.08c.21-1.24,.21-2.28,0-3.52,0-1.24-.21-2.28-.21-3.52,0-.62,.21-1.03,.21-1.66,.21-1.45,.41-3.11,.41-4.76,0-.41,0-1.03,.21-1.45,.21-.41,.41-.62,.62-.62,.62-.41,1.24-.83,1.45-1.45,0-.21,.21-.41,.41-.41,1.24-.62,2.48-1.24,3.73-1.24,.41,0,.83,0,1.03,.21,.41,.62,1.24,.62,1.86,.62,2.07-.21,4.14-.21,6.21,0,1.66,0,3.31,.21,4.97,.41,1.45,.41,3.1,1.04,4.55,1.45l3.52,.62c1.66,.21,3.1,1.03,4.55,1.45,1.03,.21,1.66,.62,2.48,1.24,.83,.41,1.66,.83,2.48,1.45,.21,0,.41,.21,.62,.41,1.03,1.24,2.28,2.07,3.52,2.9,.41,.21,.62,.41,.83,.83,.83,1.45,1.45,2.9,2.07,4.35,1.66,2.9,1.24,6,.83,9.11-.21,2.69-1.04,4.97-2.28,7.25-.41,.83-1.04,1.24-1.45,2.07-1.24,1.45-2.9,2.69-3.93,4.14-.21,.41-.62,.62-.83,1.04-.21,.21-.41,.62-.83,.62-1.03,.41-1.45,1.45-2.48,1.86-.83,.21-1.66,1.03-2.28,1.66-1.86,1.03-3.73,2.48-5.8,3.1-.62,.21-1.24,.21-1.66,.41-.62,.21-.83,.62-.41,1.24,.62,.62,1.45,1.24,2.07,2.07,.41,.41,1.04,.83,1.45,1.45l2.9,3.73c.62,1.03,1.45,2.07,1.45,3.31,0,.21,0,.41,.21,.62,1.03,2.69,1.86,5.59,2.48,8.49,.21,1.04,.21,2.28,.41,3.31,.62,3.31,.41,6.62,.83,9.94,.21,2.07,.41,4.14,.83,6.21,.21,2.07,.62,4.14,1.04,6.21,.41,1.86,.83,3.52,1.86,5.18,.62,1.24,1.86,2.28,3.52,2.28h.62c1.45,.41,1.86,.83,1.45,2.28-.41,1.66-1.45,2.48-3.1,2.48h-1.86c-1.45-.41-2.9-1.03-4.35-1.66-.62,0-1.03-.41-1.45-.83-.41-.21-.62-.83-1.24-1.03-.83-.41-1.24-.83-1.66-1.66-1.66-2.48-2.9-4.97-3.11-8.07-.21-2.07-.83-4.14-1.03-6.21l-.62-5.59c0-1.66,0-3.52-.41-5.17-.21-1.66-.21-3.31-.41-4.97-.41-1.24-.41-2.69-.83-4.14-.41-1.03-.41-2.28-.62-3.31-.41-1.66-1.04-3.31-1.86-4.97-.21-.41-.62-.83-1.03-1.24-.41-.62-1.03-1.24-1.66-1.66-1.45-1.86-3.11-3.52-5.38-4.35-1.04-.41-2.07-.41-3.31-.62-.83-.21-1.24,.41-1.04,1.24,.21,.62,.21,1.24,.21,1.86,0,1.24-.21,2.48-.21,3.73,0,2.28,.21,4.55,.21,6.83,.21,.62,.21,1.24,.41,2.07v.62c.21,2.69,.21,5.38,0,8.07,0,1.66,0,3.11-.83,4.76v.41c.62,1.24,.41,2.48,.41,3.73-.21,1.66,0,3.52,.21,5.18v2.48c.21,2.69,.21,5.59,.41,8.49,0,1.45,.41,2.69,.62,4.14,.21,2.07,.41,4.14,.41,6.21,0,.83-.21,1.66-.41,2.48v.21c.21,1.24-.41,2.48-.21,3.93v.21c-.21,1.86,.21,3.52-.21,5.38l-.62,3.73c-.21,1.24-.62,1.66-2.07,1.66-.21,0-.62,0-1.03,.21-2.07,.21-3.52-.83-4.76-2.48-1.03-1.24-1.86-2.9-1.86-4.55-.21-1.45-.41-2.9-.41-4.14Zm36.43-97.29c.21-1.24-.41-2.69-.83-4.14-.41-1.66-1.66-2.69-3.31-3.11-1.24-.41-2.48-.62-3.52-1.03-2.07-1.24-4.55-1.66-6.83-2.07-2.07-.41-4.35-.62-6.62-.62-.21,0-.62,0-.83-.21-1.24-.21-2.28,0-3.52,.21-1.04,.21-1.24,.41-1.24,1.66,0,2.69,.41,5.18,.21,7.66,0,.41,.21,.62,.21,1.03,.21,1.24,.41,2.48,0,3.73-.21,1.24,0,2.28,0,3.52-.21,.41,0,.62,0,1.03,0,2.48,.41,5.17,0,7.66-.21,.21-.21,.41,0,.62,.21,.83,0,1.86-.21,2.9-.21,1.24-.21,2.48-.21,3.73,0,.62,.41,.83,1.04,.41,1.45-.83,2.69-1.86,4.35-2.28,1.86-.41,3.73-1.24,5.38-1.86l5.38-1.86c.83-.41,1.45-.83,2.07-1.45,.41-.62,1.04-1.03,1.66-1.45,.41-.41,1.04-.62,1.45-1.03,1.03-1.04,1.86-2.07,2.48-3.11,.62-.83,1.24-1.66,1.66-2.48,.83-2.28,1.45-4.55,1.24-7.45Z"/>
    <path class="cls-2" d="M839.26,580.14c0,1.45,.21,2.69,.21,3.93v5.59s-.21,.21,0,.41c.41,2.28-.21,4.76-.21,7.04,0,1.45-.62,2.9-.62,4.35-.62,1.03-.41,2.07-.41,3.11,0,.83-.21,1.66-.41,2.48-.62,1.04-.83,2.28-1.04,3.52-.41,2.07-1.04,4.35-2.07,6.42-.41,.62-.62,1.24-.83,1.86-.83,1.24-1.45,2.28-2.28,3.31-.21,.41-.62,.62-.83,.83-.62,.21-1.03,.62-1.45,1.24-.21,.62-.83,1.03-1.45,1.24-1.24,.62-2.69,1.45-4.14,1.66-1.04,.21-2.07,.41-2.9,.83-.83,.21-1.66,.62-2.48,1.24-.21,0-.41,.21-.62,.41-.83,.41-1.24,.21-1.86-.41-.21-.21-.41-.62-.83-.83-.21-.41-.83-.62-1.24-.62-1.04-.21-1.86-.62-2.69-1.04-.41-.21-1.04,0-1.24-.62,0,0-.41-.21-.62,0-.62,.21-1.03,0-1.45-.21-.83-.62-1.86-1.03-2.48-1.86-.41-.21-.83-.41-1.24-.83,0,0-.21,0-.41-.21-2.69-2.07-4.97-4.35-5.59-7.87l-.62-2.28c-.41-1.86-1.03-3.73-1.45-5.38v-1.03c-.21-.62-.21-1.24-.41-1.86,0-.41,0-.83-.21-1.45,0-1.66-.21-3.31-.41-5.17v-2.9c.21-2.69,.41-5.59,.83-8.28,.41-2.9,1.03-5.59,1.66-8.28,.21-1.66,.62-3.31,1.03-4.97,.41-1.45,.62-2.69,1.24-3.93,.83-1.86,1.45-3.93,2.28-6,.41-1.03,1.24-2.28,1.86-3.31,.21-.41,.41-.62,.62-.83,1.04-2.9,3.31-4.76,5.18-7.25,.62-1.03,1.66-1.66,2.9-2.28,1.04-.62,2.07-1.24,2.69-2.28,.41-.62,1.04-.83,1.86-1.24,.62-.21,1.03,0,1.24,.41l.41,.41c.21,1.66,1.86,1.86,2.9,2.48l1.86,1.24c1.66,1.24,3.52,2.48,4.97,4.14,1.24,1.24,2.69,2.48,3.73,4.14,.41,.62,.83,1.45,1.24,2.28,.41,.83,.83,1.66,1.45,2.48,.83,1.24,1.04,2.48,1.45,3.73,.21,.83,.62,1.45,.83,2.28,.41,1.66,1.03,3.31,1.45,4.97,.41,1.86,.83,3.52,.62,5.17Zm-6.83-2.69c-.21-.83,0-1.66-.21-2.48-.62-2.07-1.45-4.14-2.07-6-.21-1.03-.41-2.07-1.04-2.9-1.24-2.07-3.1-3.73-4.76-5.59-1.04-1.03-2.48-.83-3.52,0-.62,.62-1.45,1.04-2.28,1.24-1.86,.62-3.31,1.66-4.35,3.31-.21,.41-.62,.83-.83,1.03-1.24,.41-1.66,1.24-1.86,2.28-.83,2.48-2.07,4.97-2.9,7.45-1.04,2.28-1.45,4.76-2.28,7.04-.62,2.28-.62,4.35-1.04,6.62-.41,2.07-.41,4.14-1.04,6v.62c0,.83,.41,1.86-.21,2.69-.21,0,0,.41,0,.62,0,2.28,0,4.55,.21,6.83,.21,2.69,.41,5.17,1.04,7.66,.21,.83,.41,1.24,1.04,1.86,.41,.62,1.03,1.03,1.86,1.45,2.48,1.45,5.38,1.45,8.07,1.45,1.24,0,2.48-.21,3.52-.62,1.86-.41,3.31-1.04,4.55-2.48,1.04-1.03,1.86-2.28,3.1-3.31,.83-.83,1.45-2.07,1.86-3.31l1.66-6c.21-1.24,.41-2.48,.83-3.93,.21-.83,0-1.86,.21-2.9,0-1.45,.21-2.9,.41-4.35,.21-1.86,.62-3.93,.21-6-.21-1.66-.21-3.31,.21-4.97v-.41c-.62-.83-.41-1.86-.41-2.9Z"/>
    <path class="cls-2" d="M864.93,634.37c.83,0,1.66,0,2.48,.21,1.45,.41,2.9,1.03,4.35,1.66,.83,.21,1.24,1.03,1.45,2.07,0,1.24,0,2.48-.62,3.52-.41,.62-.83,1.04-1.45,1.04s-1.45,.21-2.07,0c-.83,0-1.86-.21-2.69-.62-.62-.21-1.03-.62-1.45-1.03-1.04-1.66-2.69-1.66-4.35-1.24-.41,0-.83,.41-1.24,.83-.62,.62-1.04,1.24-1.66,1.86l-.62,.83c-.21,.83,0,3.52,.21,4.14l1.24,3.1c.21,.83,.62,1.24,1.03,1.66,1.03,.41,2.07,.83,3.31,.83,.83,0,1.45,.21,2.28,.21,2.28,.21,4.55,.62,6.83-.21,.41-.21,1.03-.21,1.45-.41,1.66-.41,3.1-1.04,4.14-2.48,.21-.21,.62-.21,.83-.41,.62-.41,1.24-.83,1.66-1.45,1.86-2.07,3.73-4.35,4.55-7.24,.83-2.07,1.45-4.14,2.07-6.21,.21-.83,.41-1.66,.41-2.48,.41-2.48,.62-4.97,.83-7.45l.62-4.14c.41-2.07,.83-3.93,1.03-6,.21-.83,.21-1.86,.41-2.69,0,0,0-.21-.21-.21-.41-1.86,0-3.73-.21-5.59,0-2.28,.41-4.55,.41-6.83,0-1.45,.21-2.9,.21-4.35,0-.62,.21-1.24,.21-2.07s-.21-1.86-.21-2.9c-.21-2.07,0-3.93,0-6v-6.42c0-2.07-.21-3.93-.21-5.8-.21-2.07-.41-4.14-.62-6.21v-2.07c-.21-1.86-.21-3.73-.41-5.59,0-.41,0-.83-.21-1.24,0-.21-.21-.41,0-.41,.21-1.24-.21-2.48-.41-3.52,0-1.86-.41-3.52-.21-5.17,.21-1.86-.62-3.52-.21-5.38l-.21-.83c0-.62-.21-1.04-.21-1.45,0-2.07,0-4.14-.41-6.21-.21-1.45,0-2.69,1.24-3.73,.41-.21,.83-.83,1.03-1.24,.62-.62,1.24-1.24,2.28-1.03,1.45-.62,2.28,.21,2.9,1.24,.83,.83,1.45,1.86,1.45,3.31,0,.21,0,.41,.21,.62,.62,1.45,.41,2.9,.62,4.35s.21,2.69,.21,3.93c0,.83,.41,1.66,.41,2.28,.21,1.03,.21,2.07,.21,3.11s.21,2.07,.21,3.1c-.21,1.04,.21,2.07,0,3.1,0,.62,.21,1.45,.41,2.07,.21,1.86,.41,3.52,.62,5.38v.21c-.41,2.48,0,4.55,.41,6.83v.62c0,1.86,0,3.73,.21,5.38,0,1.03,.21,2.07,.41,3.11v2.48c-.21,2.07,0,4.14,0,6v2.07c0,.41-.21,.83,0,1.24,0,1.86-.21,3.73-.21,5.59,0,.62-.21,1.03-.21,1.45,0,1.04-.21,2.07-.21,2.9v.83c-.41,1.66,0,3.11-.21,4.76v6.62c0,1.24,0,2.28-.21,3.52,0,1.45,0,2.9-.41,4.35v1.04c0,.83-.21,1.45-.21,2.28,0,1.66-.62,3.11-.83,4.76-.21,.83,0,1.66-.21,2.28-.62,2.28-1.04,4.55-1.66,6.62-.21,1.45-.83,2.69-1.24,3.93-.21,.62-.21,1.45-.41,2.07-.41,1.66-1.24,3.31-2.07,4.97-.62,1.03-1.24,2.28-1.86,3.31l-.83,1.45c-.83,.83-1.66,1.86-2.07,2.9-.41,1.03-1.24,1.66-2.07,2.07-1.24,.62-2.28,1.03-2.9,2.28-.21,.21-.62,.41-.83,.62l-2.48,.62c-.62,.21-1.03,.41-1.24,.83-1.45,1.03-2.9,1.03-4.35,.83-1.24,0-2.48,0-3.52,.21-.83,.21-1.86,.21-2.69,0-.41,0-.83-.21-1.24-.21-.83,0-1.24-.41-1.45-1.03-.21-.41-.41-.62-1.04-.62-1.24-.21-2.28-.83-3.52-1.24-1.45-.62-2.9-1.66-4.14-2.69-.62-.41-1.24-1.03-1.45-1.66-.62-1.03-1.45-2.07-1.66-3.1-.41-1.86-.83-3.93,.21-5.59,.21-.21,.41-.62,.41-.83,0-1.66,.62-3.11,1.24-4.55,.21-.83,1.03-1.24,1.66-1.86,.62-.41,1.24-.83,1.66-1.66,.62-.83,1.66-1.24,2.69-1.45,1.45-.41,3.11-.41,4.55-.62Z"/>
    <path class="cls-2" d="M925.37,646.17c2.28-.41,4.35-.41,6.42-.83,1.66-.21,3.31-.83,4.97-1.24,2.28-.21,4.55-1.03,6.83-1.03,1.45,0,3.11,0,4.35,.62,.21,.21,.41,.21,.62,.21,.41,.21,.83,.21,1.03,.41,.62,.41,1.04,.83,1.45,1.24,.62,.41,.83,1.24,.62,2.07-.41,1.24-1.45,1.66-2.48,2.28-.41,.21-.83,.21-1.45,.41-.62,.21-1.03,.41-1.45,.83-.62,.83-1.45,1.03-2.48,1.03,0,0-.21-.21-.41-.21-1.86,.62-3.93,.21-5.8,.62-1.66,.41-3.52,.41-5.17,.83-1.66,.21-3.31,.83-5.18,.41h-.41c-1.24,.41-2.48,.62-3.73,1.03-1.03,.62-2.07,.41-3.1,0-.62-.21-1.45-.83-2.07-1.66-.41-.62-1.03-.83-1.86-1.03-.21,0-.41,0-.83-.21-1.24-.21-1.86-1.03-1.66-2.28,.21-.83,0-1.45-.21-2.28-.21-.41-.21-.83-.21-1.03-.21-1.86-.21-3.52-.21-5.38,.21-2.28,0-4.55,.41-6.83l-.21-1.45c0-.41-.21-.62-.41-1.04,0-1.66,0-3.52-.21-5.38,0-1.04-.21-2.07-.21-3.11v-7.25c0-1.45,.21-2.9,.21-4.35,0-.83-.21-1.86-.21-2.69,.21-1.86,.21-3.52,.21-5.38v-.41c.21-3.31,.21-6.42,.41-9.73,0-1.03,0-1.86,.21-2.9,0-.83,.21-1.45,.21-2.28v-4.97l.62-5.8c.21-1.66,.41-3.11,.41-4.76,.21-2.48,.62-5.17,.62-7.66v-4.14c.21-2.07,.21-4.14,.41-6.21v-9.31l-.62-4.55c0-.62,0-1.24-.21-1.86v-.62c.21-.62,0-1.24,0-1.86-.21-1.24-.21-2.48-.21-3.52,0-.21,0-.62,.21-.62,.83-.83,1.04-2.28,2.07-2.9,.62-.62,1.24-.83,2.28-.62,1.24,.21,2.48,0,3.93-.21,1.45-.41,3.11-.41,4.55-.62l9.31-1.24c1.24-.21,2.48-.21,3.73-.41,.21,0,.21-.21,.41-.21,2.9,0,6-.21,8.9,0,2.28,.21,4.55,1.03,6,3.1,.21,.21,.41,.41,.41,.83,0,1.24,0,2.48-.62,3.52-.62,.62-2.28,1.66-3.31,1.66-1.04-.21-2.07-.21-3.11,.21h-.62c-1.45-.21-3.11,.21-4.76,.21-1.24,.21-2.69,.21-4.14,.21h-.83c-1.66,.62-3.52,1.04-5.17,.62h-.62c-1.03,.21-1.86,.41-2.69,.41-1.03-.21-2.07,0-3.11,.21-1.45,0-2.28,1.45-3.1,2.48-.21,.21-.21,.62-.21,1.03,.41,1.66,.41,3.31,.41,4.97,0,.83,.21,1.86,.21,2.69,0,.62-.21,1.04-.21,1.66v15.73c0,1.86-.41,3.93-.62,6,0,1.86-.21,3.73-.41,5.59-.41,3.93-.21,7.87-.41,11.8,0,2.48,0,4.76-.41,7.04v14.08c0,.62,.41,.83,1.03,.83,1.86-.21,3.73-.41,5.38-.62l7.87-1.24c1.03-.21,2.07-.41,2.9-.41,1.86-.21,3.52,0,5.18,.83,.62,.62,1.66,1.03,2.28,1.45,.83,.62,1.04,.83,.62,1.86,0,.21-.21,.62-.21,1.03,0,.62-.41,1.03-.83,1.24-1.03,.62-1.86,1.45-2.9,1.45-1.45,.21-2.48,.62-3.73,1.24-.83,.41-1.66,.41-2.69,.41-1.66,.21-3.31,.41-4.76,.41-.83,.21-1.66,.21-2.28,.21l-1.03,.41c-1.03,.41-2.48,.83-3.52,1.66-.62,.41-1.45,.62-2.28,1.03-.83,.21-1.24,.83-1.24,1.86,0,2.28,.21,4.76,.41,7.04v4.55c-.21,1.66-.21,3.31,.21,4.76v5.18c0,.41,.41,.62,.83,.62h1.66v.21Z"/>
    <path class="cls-2" d="M978.98,587.59c-.21,2.07,0,3.93-.41,6-.21,.41,.21,1.04,0,1.45-.41,2.28,0,4.55,0,6.83,.21,3.73,.21,7.25,.41,10.97,0,.62,0,1.03,.21,1.66,.41,1.24,.62,2.48,.83,3.73l.62,3.52c0,.41,.21,.83,.21,1.24s0,.83,.21,1.24c.62,1.03,.62,2.48,1.03,3.73,.21,1.24,.83,2.48,1.24,3.73,.62,1.24,1.03,2.48,1.45,3.73,.41,1.24,1.24,2.28,2.07,3.31,.83,.83,1.45,1.66,2.07,2.48,.21,.21,.41,.62,.62,.62,1.66,1.24,3.11,2.28,4.76,3.31,.62,.41,1.45,.41,2.07,.41,1.66,.21,3.31,.21,4.76-.62,.83-.41,1.45-.83,2.28-1.24l4.97-3.73c1.03-.83,1.86-1.66,2.9-2.69,.62-.62,1.03-1.45,1.66-2.07,.83-1.03,1.86-1.86,2.69-2.9l1.86-1.86c.62-.41,1.03-1.03,1.66-1.45,.62-.62,.83-.41,1.45,0,.41,.41,.83,.83,.62,1.66,0,1.24,0,2.48-.41,3.73-.21,.41-.21,.83-.21,1.03,0,1.03-.21,1.86-.62,2.69-.83,1.45-1.45,3.11-2.69,4.35-.41,.41-.62,.83-.62,1.45-.21,.83-.62,1.24-1.24,1.86-1.03,1.03-2.28,2.07-2.9,3.52,0,.21-.21,.41-.41,.41-1.03,.41-1.45,1.66-2.28,2.07-.62,.62-1.45,1.24-2.07,1.45-2.07,1.04-4.14,2.07-6.62,2.28-3.1,.41-6.42,.41-9.52-.41-.62-.21-1.45-.62-2.07-1.03l-2.48-1.24c-.62-.21-1.03-.62-1.45-1.04-.83-1.03-1.86-1.86-2.69-2.69l-1.24-1.45c-.62-.83-1.45-1.66-2.07-2.48l-.62-.83c-.41-.83-.83-1.66-1.45-2.28,0-.21-.21-.21-.21-.21-.21-1.24-1.03-2.07-1.66-3.1-.41-1.24-.62-2.48-1.03-3.52-.21-.83-.62-1.45-1.03-2.28-.62-1.24-1.24-2.69-1.45-4.35-.41-1.24-.41-2.48-.83-3.73,0-.62-.21-1.24-.41-1.86-.41-1.66-.62-3.31-1.04-4.76-.41-1.03-.41-2.07-.41-3.11,0-.41-.41-1.03-.41-1.66-.21-2.07-.21-3.93-.21-5.8-.21-3.1-.21-6-.21-9.11,0-3.73,0-7.66,.21-11.38,.21-2.07,.41-3.93,.83-6,0-.83,0-1.66,.21-2.48,.21-1.45,.62-2.9,.83-4.35,.41-1.86,.83-3.73,1.24-5.59l1.24-4.35c.41-1.24,1.03-2.28,1.24-3.31,.21-.41,.21-1.03,.41-1.45,.62-1.86,1.45-3.52,2.48-4.97,.41-.62,.83-1.24,1.04-1.86,.41-1.66,1.66-3.11,2.69-4.76,.41-.62,.83-1.24,1.03-1.86,.41-.41,.62-1.03,1.04-1.45,1.03-.83,1.86-1.86,2.28-3.1l.21-.21c1.04-1.03,1.86-2.07,2.9-2.9,.21-.21,.21-.41,.41-.41,1.86-1.24,3.52-2.48,5.38-3.52,.83-.62,1.66-.83,2.48-1.03,.21,0,.62-.21,.83-.41,1.03-.62,2.28-1.03,3.31-1.45,1.24-.41,2.69-.62,3.93-.62,2.28-.21,4.35-.21,6.62-.21,.83,0,1.86,0,2.69,.41,1.86,.83,3.73,1.45,5.59,1.86,.21,0,.62,.21,.83,.41,.21,0,.21,.41,.21,.62,0,.62-.21,1.45,0,2.07,0,1.24-1.03,1.86-1.86,2.48-.41,.21-.83,.41-1.03,.62-1.45,1.03-2.9,1.03-4.35,0-1.03-.62-2.28-.83-3.31-.83-1.45-.21-2.9-.21-4.35,.21h-1.03c-.83-.21-1.86-.21-2.9,.21l-1.24,.62c-.83,.62-1.66,1.24-2.69,1.45-1.04,0-1.86,.62-2.28,1.45-.21,.41-.62,.62-1.03,1.04l-1.66,1.45c-.41,.41-.62,1.04-.83,1.66-.41,1.24-.83,2.48-1.86,3.31-.41,.41-.62,1.04-.83,1.66-.62,1.66-1.86,2.9-2.69,4.35,0,.21-.21,.41-.41,.62-.41,.41-.62,.83-.62,1.24,0,.62-.21,1.03-.41,1.66-.62,1.24-1.03,2.69-2.07,3.93v.62c-.41,1.45-.83,2.69-1.04,4.14-.41,1.66-1.03,3.1-1.24,4.76-.21,1.24-.83,2.28-1.03,3.52l-.62,3.31c0,1.03,0,2.07-.21,3.1-.21,.83-.21,1.86-.21,2.9v1.86Z"/>
    <path class="cls-2" d="M1064.27,641.82c0-1.45,.21-2.9,.21-4.35,0-1.03-.21-1.86-.21-2.69,.21-2.48,.41-4.97,.62-7.25v-1.24c.21-2.28,.41-4.35,.41-6.42,0-2.48,.41-4.97,.62-7.45,.21-2.9,.41-5.59,.41-8.49,.21-1.66,.21-3.31,.21-4.97,0-2.69,0-5.38,.41-7.87,.21-2.07,0-4.14,0-6.21v-6.42c0-2.48,0-4.97,.21-7.45,.41-4.55,.41-9.31,.21-13.87,0-2.9-.21-5.8-.41-8.69v-3.31c0-2.07,0-4.35-.41-6.42-.21-.83-.21-1.03-1.24-.83-2.07,0-4.14,0-6,.21-2.07,.41-3.93,0-5.8,.21h-5.59c-.62,0-1.24,.21-1.86,.21-.41,.21-.83,.41-1.04,.62-.62,.62-1.03,1.45-1.66,2.28-.62,.83-1.66,1.24-2.69,.83-1.24-.21-2.07-.62-2.9-1.66-.41-.62-1.04-1.24-1.24-2.07,0-.21-.21-.41-.41-.62-.83-.41-1.04-1.24-1.04-2.07-.41-1.24-.62-2.28-.83-3.52,0-.21,0-.41-.21-.62-.41-.62-.41-1.24-.21-1.86,0-.21-.21-.62-.21-1.03v-1.45c0-.62,.41-.83,1.04-1.03,1.03-.21,2.07-.41,3.11-.62h.41c1.03-1.03,2.28-.62,3.52-.41,.21,0,.41,.21,.62,.21,1.86,0,3.93,0,5.8-.21,1.86-.21,3.73-.41,5.38-.62l6.42-.62c2.69-.21,5.38-.62,8.07-.41,1.45,0,2.69-.41,4.14-.21,2.48,0,4.97,.21,7.45,.41,1.86,0,3.52,.21,5.17,.41l3.31,.62c.41,0,.83,0,1.24,.21,2.07,0,4.14,.83,6.21,1.45,1.66,.41,2.9,1.45,3.31,3.31,.41,1.66,.62,3.52-.41,5.18-.41,.41-.83,.83-1.66,.83h-4.35c-.62-.21-1.24,0-1.86,0l-8.28,.62c-1.45,0-2.9,.21-4.35,.41-1.24,.21-1.66,.62-1.86,1.86-.21,1.66-.41,3.31,.21,4.76v.83c-.21,.83,0,1.45,0,2.28s.21,1.66,.21,2.69c.21,2.48,.41,4.97,.62,7.66v.21c0,1.24,0,2.48-.21,3.52-.21,2.07-.41,4.14,0,6.21,0,.41,0,.83-.21,1.24v1.03c0,.62,.21,1.45,0,2.28-.21,.62,0,1.24-.21,1.86,0,1.03,0,2.07-.21,3.11-.41,.83-.21,1.86,0,2.69,0,.83,0,1.66-.41,2.48-.21,.83-.21,1.66-.21,2.48,0,1.45,.21,2.69,0,4.14-.21,1.86-.21,3.73-.21,5.8,0,.83,0,1.86-.21,2.9,0,1.24-.21,2.69,0,4.14,0,1.03-.21,2.28-.21,3.31-.41,3.73-.62,7.66-.62,11.39,0,1.24-.21,2.48-.41,3.73,0,1.24,0,2.48-.21,3.93,0,.21,.21,.62,0,.83-.62,1.66-.41,3.31-.41,4.97,0,1.24-.21,2.48-.21,3.93v1.86c-.21,1.86-.21,3.73-.41,5.8,0,.83,.21,1.86,.21,2.69,0,1.45-.21,3.1-.21,4.55,0,.83,0,1.45,.41,2.28,.41,.62,.41,1.45,.62,2.28q.21,.21,0,.21c-.41,1.24-1.24,1.86-2.28,2.48-.83,.41-1.66,0-2.28-.41-1.45-1.45-2.9-2.69-3.52-4.55-1.24-2.69-1.66-5.59-1.45-8.49Z"/>
    <path class="cls-2" d="M1148.93,541.01v-4.14c0-1.04-.41-1.66-1.45-1.86-.21,0-.62-.21-.62-.41-.62-.83-1.66-1.24-2.69-1.45-.62-.21-1.45-.62-2.28-.83-1.03-.21-2.07-.41-3.11-.62h-.41c-1.03,.21-2.07,.62-3.11,.83l-.83,.21c-.83-.21-1.45,.41-1.86,1.03-.41,.62-.83,1.03-1.45,1.24-1.03,.41-1.66,1.04-2.07,2.07-.62,1.24-1.45,2.48-2.48,3.52-.83,.83-1.24,2.07-1.45,3.31-.21,1.24-.62,2.48-1.45,3.52l-.62,1.45c-.21,.62-.41,1.45-.62,2.07l-.21,.83c.21,1.45,.21,2.9,.21,4.35v.41c0,1.24,0,2.48-.21,3.52-.21,2.28,.41,4.35,1.03,6.42,.41,1.86,.62,3.52,1.24,5.17,.41,1.45,1.03,2.69,1.45,4.14,.41,.62,.83,1.24,1.03,2.07,1.24,2.69,2.28,5.59,3.31,8.49,.21,.21,.21,.41,.21,.41,1.24,1.86,2.28,3.52,3.31,5.38l2.48,5.18c.21,.21,.21,.62,.41,1.03,1.45,1.66,1.86,3.52,3.1,5.38,0,0,0,.21,.21,.41,1.24,1.66,1.86,3.52,2.69,5.17,1.03,2.07,2.07,3.93,2.9,6,.62,1.24,1.24,2.69,2.07,3.93,.21,.21,.41,.62,.41,.83,.41,.83,.83,1.66,1.04,2.69,.21,.21,.21,.62,.41,1.03v.62c.62,.83,.83,1.86,1.24,2.69,.62,1.66,1.24,3.31,1.45,5.17l.62,3.93c.21,1.24,.41,2.69,.41,3.93-.21,2.28,.21,4.76-1.03,6.83,0,1.66-1.04,2.48-2.07,3.52-1.24,1.03-2.28,1.86-3.73,2.07-.83,.21-1.66,.62-2.48,1.03-1.66,.83-3.52,1.45-5.59,1.66-.62,0-1.03,0-1.66-.41-.62-.41-1.24-.83-2.28-.62-.83,.21-1.66-.21-2.48-.83-.41-.83-1.03-1.24-1.86-1.66-.83-.41-1.66-1.24-2.48-1.86l-1.86-1.24c-.21-.21-.62-.41-.62-.62-.62-1.03-1.45-1.86-2.28-2.69-.62-.62-1.03-1.24-1.24-2.07,0-.62-.21-1.24-.62-1.66-.41-1.03-.62-2.28-.83-3.52-.21-1.03-.21-1.86-.41-2.9v-.83c.41-1.24,.62-1.45,2.07-1.24l2.28,.62c.41,.21,.83,.41,1.03,.62l1.24,2.9c.21,.62,.41,1.03,.83,1.66,.62,.41,1.03,1.03,1.45,1.66,.41,.83,1.03,1.45,1.86,2.07,.62,.41,1.24,.83,1.86,1.45,1.24,1.24,2.48,2.28,4.35,2.69,2.07,.21,3.1-.41,3.52-2.07,.21-.62,.41-1.24,.41-1.66l.62-8.28c0-1.66-.21-3.11-.62-4.55l-1.86-6.62c0-.41-.21-.83-.41-1.24l-1.24-2.48c-1.45-2.69-2.48-5.59-4.35-8.07,0-.21-.21-.21-.21-.41-.83-2.07-2.28-3.93-3.31-6-1.04-2.07-2.28-3.73-3.31-5.8-1.45-2.9-2.9-5.8-4.35-8.69l-2.9-5.59c0-.21-.21-.41-.21-.62-.62-3.11-2.07-5.8-3.31-8.69-1.45-3.52-2.69-7.25-3.11-11.18,0-1.45,0-2.69-.21-3.93-.41-1.86-.21-3.73-.21-5.38,0-1.86,.21-3.52,.41-5.38,0-1.24,.21-2.28,.21-3.52,.21-1.86,.83-3.52,1.66-5.18,.62-1.03,.83-2.28,1.45-3.52,.83-1.86,1.86-3.73,2.9-5.38,.21-.62,.83-1.24,1.24-1.66,1.66-1.04,2.9-2.28,4.76-3.1l.41-.41c1.66-1.45,3.52-2.07,5.8-2.28,1.45-.21,2.9-.62,4.14-1.04,1.45-.41,2.69-.62,3.93-.41,1.45,0,2.9,.21,4.14,.41,1.86,.41,3.31,1.24,4.97,1.86,.62,.41,1.45,.83,1.86,1.45,.83,.83,1.66,1.45,2.9,1.66,1.03,.21,1.66,1.04,1.86,2.07,.21,.62,0,1.24,.62,1.86,.21,0,.21,.41,.21,.62-.21,1.24-.41,2.69,.21,3.93,0,2.28,.83,4.55,.21,6.62-.21,.83-.21,1.45,0,2.28,0,1.45-.62,2.69-1.24,4.14,0,.41-.21,1.04-.41,1.45-.21,.83-.83,1.03-1.66,.62-.62-.21-1.04-.62-1.24-1.45-.21-1.03-.62-2.28-1.03-3.31-.62-1.66-1.03-3.31-.83-5.17v-1.66h-.21Z"/>
  </g>
</svg>