<?xml version="1.0" encoding="UTF-8"?>
<svg id="Layer_1" data-name="Layer 1" xmlns="http://www.w3.org/2000/svg" viewBox="0 0 1741.39 1037.62">
  <defs>
    <style>
      .cls-1 {
        fill: #979797;
      }

      .cls-2 {
        fill: #7a514b;
      }

      .cls-3 {
        fill: #a2b050;
      }

      .cls-4 {
        fill: silver;
      }

      .cls-5 {
        fill: #79514a;
      }

      .cls-6 {
        fill: #79524b;
      }

      .cls-7 {
        fill: #7a514a;
      }

      .cls-8 {
        fill: #e3cab9;
      }

      .cls-9 {
        fill: #996d69;
      }

      .cls-10 {
        fill: #f2b178;
      }

      .cls-11 {
        fill: #969696;
      }

      .cls-12 {
        fill: #986d69;
      }

      .cls-13 {
        fill: #a0c9ed;
      }

      .cls-14 {
        fill: #c37a7f;
      }

      .cls-15 {
        fill: #7a524b;
      }

      .cls-16 {
        fill: #bebebe;
      }

      .cls-17 {
        fill: #795049;
      }

      .cls-18 {
        fill: #ac8176;
      }

      .cls-19 {
        fill: #785049;
      }

      .cls-20 {
        fill: #e9a1a6;
      }

      .cls-21 {
        fill: #d4aa5a;
      }

      .cls-22 {
        fill: #edc15e;
      }

      .cls-23 {
        fill: #f3b8ba;
      }

      .cls-24 {
        fill: #c57b80;
      }

      .cls-25 {
        fill: #78514a;
      }
    </style>
  </defs>
  <g>
    <path class="cls-18" d="M995.51,913.74c2.26,.12,4.53,.24,6.79,.35,2.56,4.66,6.92,4.75,11.49,4.74,42.79-.05,85.61,.99,128.36-.26,81.36-2.37,162.71-.39,244.05-1.15,22.21-.21,44.44,.55,66.64-.13,91.63-2.82,183.28-.53,274.92-1.26,4.35-.03,8.95-.94,12.92,1.91,.13,.93,.25-.29,.26,.65,.53,35.02,.67,70.04-.06,105.06-3.63,3.03-8.01,2.13-12.13,2.13-67.61,.06-135.24-.82-202.83,.35-43.27,.75-86.52,.79-129.78,1.04-4.63,.03-8.72,1.08-12.44,3.74-1.01-3.54-3.41-4.16-6.6-3.14-224.28-1.25-448.57-.19-672.85-.59-6.41-.01-12.74-.38-16.52,6.28-2.33-.11-4.67-.21-7-.32-5.07-5.44-11.5-6.04-18.54-6.03-118.14,.13-236.29-1.11-354.41,.47-96.84,1.29-193.66,.21-290.49,1-5.35,.04-10.67-.38-10.27,7.41-2.34,.54-4.68,1.07-7.03,1.61,0-39.32,0-78.63,0-117.95,3.54-2.71,6.81-1.31,10.07,.61,3.6,2.76,7.83,2.77,12.06,2.77,56.36,.01,112.75,1.2,169.07-.32,60.09-1.63,120.16-.32,180.24-1,5.87-.07,11.21-.39,14.49-6.11,2.05,0,4.01-.34,5.73-1.57,2.22,6.82,7.36,7.73,13.76,7.69,33.43-.22,66.88,.64,100.29-.24,105.88-2.78,211.78,.4,317.64-1.61,53.06-1.01,106.1-.39,159.14-.97,5.25-.06,9.58-1.16,13.03-5.17Z"/>
    <path class="cls-19" d="M0,311.67c39.97,3.04,76.35,16.6,110.08,37.77,28.39,17.81,52.99,39.78,72.23,67.4,9.1,13.07,16.79,26.93,21.4,42.32,.93,3.1,2.38,5.6,5.22,7.81,5.93,4.62,9.9,11.12,14,17.38,2.69,4.1,5.1,8.39,7.88,12.42,3.23,4.69,2.92,9.12-.3,13.59-.96,1.33-1.81,2.73-2.79,4.23,5.3,4.58,8.4,10.95,12.68,16.31,1.53-.26,1.24-1.38,1.23-2.2-.12-17.77,.3-35.56-.57-53.29-.95-19.27-3.33-38.46-6.94-57.45q-1.25-6.57,4.7-9.02c5.78-2.25,6.07,2.71,6.91,5.81,2.09,7.67,3.27,15.58,4.18,23.46,3.17,27.4,5.02,54.89,4.69,82.5-.05,4-1.07,7.88-1.17,11.85-.04,1.54-.32,3.67,1.88,3.91,1.58,.17,2.18-1.51,2.64-2.85,.6-1.78,.94-3.63,1.07-5.5,4.21-59.74-.9-118.3-24.42-174-26.08-61.75-69.52-106.21-133.23-129.51-9.92-3.63-12.29-6.86-10.31-14.06,1.02-1.68,2.41-.92,3.68-.48,6.83,2.33,13.75,4.43,20.42,7.15,3.78,1.54,7.04,1.51,10.63-.22,9.44-4.56,19.03-8.83,28.42-13.48,13.58-6.73,27.07-13.63,40.52-20.61,2.81-1.46,5.67-1.99,8.72-2.01,5.04,.68,4.55,3.82,2.78,6.97-1.87,3.34-5.18,5.24-8.44,7.14-16.97,9.86-34.8,17.97-52.52,26.31-2.04,.96-5.22,1.4-5.5,3.78-.33,2.75,3.09,2.99,4.94,4.12,27.02,16.53,47.62,31.25,76.16,69.72,.39-3.16,1.17-5.88,2.87-8.17,2.11-2.86,4.77-3.58,7.92-1.64,1.8,.94,2.89,1.96,2.12,4.41-1.6,5.09-2.49,10.43-4.31,15.43-1.16,3.18-.95,5.57,.72,8.44,20.72,35.34,32.22,73.77,38.2,114.09,4.26,28.76,4.72,57.65,3.68,86.61-.12,3.25-.97,6.42-.99,9.72-.07,8.63-.54,8.95,5.2,15.07,2.39,2.54,2.37,4.51,1.98,7.37-2.95,21.54-7.68,42.67-14.39,63.35-1.06,3.28-2.78,6.18,1.56,9.09,2.84,1.9,2.88,6.21,2.88,9.74,0,7.23,.27,14.45-1.16,21.63-.97,4.87-.3,5.45,4.72,5.88,8.67,.75,10.66,3.65,9.57,12.34-2.07,16.55-7.32,32.26-11.94,48.15-1.06,3.64-2.71,7.01-4.8,10.09-4.19,6.18-10.13,7.54-17.24,4.09-2.55,2.47-3.26,6.03-4.9,9.04-2.79,5.13-5.45,10.29-9.09,14.94-2.64,3.37-5.72,4.43-9.73,3.7-19.99-3.65-39.76-8.1-59.27-13.88-10.84-3.21-17.8-8.37-21.47-19.87-2.61-8.2-3.32-16.23-3.68-24.38-1.08-24.4,6.4-46.93,16.2-68.86,5.5-12.32,13.41-22.9,22.46-32.8,2.52-2.76,4.97-3.71,8.44-3.52,8.19,.46,16.18,2.17,24.16,3.86,6.39,1.35,12.7,3.05,19,4.78,2.93,.8,4.07,.01,4.85-3,4.33-16.85,6.18-33.9,5.5-51.3-.13-3.42-2.36-5.4-3.41-8.11-3.29-8.41-9.79-14.8-13.74-22.76-.75-1.51-1.83-1.86-3.42-1.55-4.04,.79-6.7-1.62-8.96-4.37-8.3-10.09-16.59-20.19-24.67-30.46-4.4-5.6-4.65-12.16-2.31-18.59,.95-2.59,.67-4.27-.73-6.4-10.1-15.49-21.29-30.12-33.69-43.85-6.12-6.77-12.41-13.37-19.1-19.57-2.15-1.99-2.94-4.74-4.49-7.05-1.14-1.7,.19-3.07,.99-4.46,3.96-4.58,7.04-1.53,9.97,1.28,12.68,12.13,24.66,24.89,35.5,38.71,5.45,6.95,10.76,13.97,15.1,21.68-8.05-13.42-15.85-26.95-26.23-38.85-25.79-29.55-56.55-52.22-92.47-67.85-19.61-8.53-39.98-14.42-61.31-16.71-2.59-.28-5.06-.96-6.96-2.93v-9.83Z"/>
    <path class="cls-9" d="M8.42,921.07c-2.6-1.7-5.53-1.43-8.42-1.4v-4.21c.53-.42,1.11-.68,1.82-.67,1.11,0,2.23,0,3.35-.03-1.12-.03-2.23-.04-3.35-.03-.71,0-1.28-.26-1.82-.67v-70.21c2.95-2.54,6.56-2.12,10.02-2.13,16.8-.05,33.6-.18,50.4,.06,6.71,.09,12.98-.49,18.27-5.09,1.34,.91,2.74,1.14,4.2,.29,3,4.55,7.58,4.72,12.38,4.71,46.66-.05,93.33-.03,139.99-.03,1.87,0,3.73-.02,5.6,.02,9.44,.23,10.73,1.68,11.23,11.04,.27,5.14-1.69,10.94,3.54,14.95,2.51,2.22-.37,4.59,.19,6.87-3.8,5.26-3.77,11.29-3.79,17.42-.07,27.22,2.56,24.2-24.54,24.28-37.86,.11-75.72,.06-113.58,.02-32-.04-63.97,2.39-95.98,1.42-3.64-.11-6.98,.48-9.51,3.39Z"/>
    <path class="cls-9" d="M32.16,557.38c-1.69,2.77-1.35,5.16,1.31,7.13-5.11,3.78-4.54,9.34-4.54,14.69,0,81.32-.02,162.64,0,243.96,0,2.1,.04,4.2-.09,6.31-.15,2.33-1.05,4.39-3.47,4.59-8.5,.68-17.12,2.64-25.36-1.45V335.54c7.74-.33,15.21,1.83,22.82,2.66,3.73,.41,5.33,3.42,5.77,6.98,.41,3.26,.29,6.53,.29,9.79,0,62.57,.01,125.15,0,187.72,0,5.16-.12,10.31,3.29,14.68Z"/>
    <path class="cls-23" d="M91.05,210.55c.14,6.97,1.43,8.81,8.67,11.36,13.25,4.67,26.05,10.31,38.23,17.34,41.58,24.01,71.93,58.33,92.76,101.33,14.79,30.53,23.5,62.83,27.8,96.42,1.42,11.11,2.16,22.25,2.98,33.41,.76,10.28,1.24,20.56,.66,30.78-.65,11.38-.36,22.85-2.26,34.16-.51,3.04-3.26,5.12-6.15,4.6-1.3-.24-2.1-1.05-2.17-2.35-.11-2.1-.37-4.25-.05-6.3,1.98-12.57,1.3-25.24,.8-37.79-1.04-26.07-2.84-52.12-8.08-77.77-.64-3.12-.79-6.79-5.43-6.81-.23-1.67-.94-2.93-2.73-3.3,2.53-6.37,1.3-12.56-.52-18.89-11.6-40.29-28.99-77.34-59.15-107.39-27.41-27.31-60.29-44.49-97.91-52.72-18.04-3.95-36.31-6.33-54.86-5.87-4.4,.11-8.42,.6-10.9,4.83-4.3,.39-8.42-1.62-12.74-.98v-16.85c5.86-3.66,12.3-2.1,18.45-1.67,19.78,1.4,39.7,1.99,59,7.25,4.45,1.21,7-1.34,9.58-4.13,1.28,.64,1.82,3.47,4.02,1.33Z"/>
    <path class="cls-7" d="M0,832.61H26.67c0-85.55,0-170.59,0-255.64,0-1.87-.03-3.74,0-5.61,.13-6.3,.19-6.34,6.79-6.85,1.94,1.21,2.94,2.89,2.82,5.24-.09,1.63-.01,3.27-.01,4.9,0,82.92,0,165.84-.01,248.76,0,2.79,.32,5.61-.5,8.53,2.34,1.31,4.92,.64,7.37,.66,9.81,.09,19.62,.14,29.42-.02,3.2-.05,5.53,.55,6.13,4.08-1.29,5.43-4.85,7.23-10.25,7.2-22.81-.14-45.62-.04-68.44-.03v-11.23Z"/>
    <path class="cls-5" d="M32.16,557.38c-3.82,.25-5.66-1.48-5.49-5.36,.08-1.86,0-3.73,0-5.6,0-65.12,0-130.25,0-195.37,0-1.63,.04-3.27-.01-4.9-.19-5.62-.77-6.46-6.63-6.31-5.19,.13-10.04-2.03-15.23-1.63-1.97,.15-3.1-1.94-4.81-2.67v-7.02c5.42-3.36,11.44-2.17,17.06-1.5,37.74,4.49,70.52,20.56,99.92,44.02,4,3.19,8.74,7.02,4.96,13.5-3.68,3.19-6.51,.6-9.19-1.55-9.49-7.59-19.44-14.5-29.91-20.68-15.71-9.26-32.63-16.37-46-19.16-1.02,2.58-.54,5.34-.54,7.99-.03,65.64-.03,131.28,0,196.92,0,3.8,.43,7.62-4.13,9.32Z"/>
    <path class="cls-16" d="M121.94,384.54c.83-4.91-1.18-8.52-4.98-11.5-26.19-20.55-54.82-36.11-87.79-42.58C19.58,328.58,9.84,327.45,0,328.52v-7.02c48.27,4.94,90.68,24.07,128.48,53.82,23.49,18.49,43.36,40.29,57.09,67.18,1.43,2.8,3.32,5.48,3.58,9.88-7.8-10.85-14.9-20.92-22.76-30.42-10.13-12.24-20.93-23.79-32.45-34.73-2.71-2.57-4.88-1.79-7.54-1.08-.84-2.32-2.55-2.24-4.46-1.62Z"/>
    <path class="cls-5" d="M87.04,209.22c-.28,6.86-1.57,8.18-7.72,6.68-18.09-4.44-36.39-6.67-55.02-7.3-8.09-.27-16.19-.6-24.3-.83v-5.62c7.33-4.51,15.49-3.49,23.44-3.26,19.36,.56,38.51,2.94,57.38,7.44,2.31,.55,4.52,1.13,6.22,2.9Z"/>
    <path class="cls-18" d="M0,914.05c1.5,.05,3.07-.28,4.6,.58-1.49,1.35-3.11,.67-4.6,.83v-1.4Z"/>
    <path class="cls-25" d="M7.03,1036.01c-.8-1.15-1.87-2.2-2.33-3.47-1.49-4.09-.1-6.01,4.38-6.22,2.1-.1,4.21-.03,6.31-.03,90.75,0,181.51,1.11,272.24-.27,126.03-1.92,252.05-.2,378.06-1.03,1.4,0,2.81,0,4.21,0,7.4,.05,8.21,.67,10.85,8.18-1.69,1.73-3.59,2.83-6.17,2.57-1.85-.18-3.74-.04-5.61-.03-158.94,.08-317.89,.13-476.83,.24-58.9,.04-117.8,.2-176.71,.3-2.8,0-5.6-.15-8.4-.23Z"/>
    <path class="cls-19" d="M687.74,1033.49c.57-8.34,.75-8.5,9.88-8.5,196.46-.04,392.91-.07,589.37-.1,27.13,0,54.26,0,81.39,0,3.25,0,6.59-.37,8.73,2.92-.08,6.93-.08,6.96-6.75,7.01-6.78,.05-13.57,.03-20.35,.03-183.64,.05-367.29,.07-550.93,.18-34.62,.02-69.24,.47-103.86,.62-2.58,.01-5.79,1.31-7.47-2.15Z"/>
    <path class="cls-15" d="M1740.47,1023.67c.69,12.55,.61,10.1-9.62,10.11-92.77,.09-185.54,.07-278.31,.13-2.77,0-5.62-.55-8.3,.67-18.17,.02-36.35,.02-54.52,.06-2.81,0-5.86,.54-6.01-3.7,1.65-5.97,1.65-6.04,8.02-6.04,36.43-.02,72.89,.89,109.28-.2,77.72-2.34,155.45-.32,233.17-1.11,2.1-.02,4.2,.06,6.3,.09Z"/>
    <path class="cls-19" d="M455.88,537.95c-3.31-1.88-3.72-4.89-3.7-8.38,.11-18.02,.05-36.04,.05-54.06,0-84.01,.12-168.02-.2-252.03-.03-7.49,2.56-11.53,8.8-14.65,11.91-5.94,23.64-12.23,35.45-18.39,49.7-25.92,99.38-51.86,149.1-77.75,36.46-18.98,72.97-37.86,109.43-56.83,31.28-16.28,62.51-32.67,93.81-48.92,4.93-2.56,9.73-5.25,15.38-6.54,3.61-.82,6.22-.41,9.19,1.13,22.59,11.73,45.22,23.4,67.82,35.12,35.04,18.18,70.06,36.38,105.08,54.58,40.62,21.1,81.24,42.22,121.87,63.3,34.2,17.75,68.42,35.48,102.65,53.18,3.29,1.7,6.48,3.55,10.39,3.97,3.26,.35,5.55,2.32,5.08,6.21-.17,1.38-.02,2.8-.02,4.21,0,140.17,0,280.34,.05,420.52,0,4.31,0,8.42-3.4,11.64-4.37,3.4-5.64-.46-6.69-3.24-1.42-3.76-.85-7.86-.85-11.83-.02-132.34-.01-264.67-.01-397.01,0-3.27,.07-6.55-.03-9.82-.23-7.4-.88-8.06-8.01-8.3-2.34-.08-4.67-.03-7.01-.03-69.65,0-139.31,.01-208.96-.02-5.59,0-11.54,.59-14.27-6.14-1.89-5.32,.75-7.38,5.66-7.75,2.8-.21,5.61-.13,8.42-.13,65.26,0,130.53,0,196.88,0-10.85-5.81-20.92-11.06-31-16.19-33.56-17.08-66.92-34.55-100.34-51.89-63.32-32.84-126.58-65.8-189.95-98.56-11.84-6.12-23.75-12.12-35.51-18.39-3.76-2-5.53-1.35-7.42,2.65-6.87,14.48-18.97,15.83-29.89,3.65-7.68-8.57-7.75-8.71-17.93-3.45-53.8,27.83-107.53,55.79-161.16,83.95-22.98,12.07-46.01,24.06-69.08,35.95-39.71,20.46-79.21,41.32-119.15,61.94,2.46,.68,4.8,.31,7.08,.31,173.81,.02,347.61,.02,521.42,.03,3.04,0,6.1-.22,9.11,.3,5.38,.94,6.39,2.85,4.92,8.94-2.42,3.32-5.87,4.47-9.77,4.68-3.51,.19-7.01,.12-10.52,.12-177.03,0-354.06,0-531.09,0q-13.41,0-13.42,13.37c0,94.97,0,189.95-.01,284.92,0,3.74,.36,7.52-.59,11.18-1.01,3.91-3.09,6.38-7.62,4.39Z"/>
    <path class="cls-12" d="M1037.61,216.15c2.06,4.51,5.33,5.82,10.46,5.81,72.73-.22,145.47-.15,218.2-.15,1.64,0,3.27-.03,4.91,0,6.09,.12,6.16,.12,6.19,6.35,.05,12.16,.02,24.33,.02,36.5,0,126.56,0,253.13,0,379.69,0,2.11-.3,4.28,.14,6.3,.55,2.51,1.46,5.25,5.16,3.63-1.06,3.17-.71,5.78,2.85,7.1-4.94,2.66-6.13,6.9-5.99,12.27,.3,10.99,.15,21.99,.07,32.99-.08,11.68-1.35,13.01-12.83,13.05-24.56,.08-49.12,.02-73.67,.03-40.46,0-80.92,.05-121.39-.05-6.77-.02-13.51,.51-20.27,.62-2.43-2.61-5.36-1.1-8.11-.99-5.11,.97-10.26,.43-15.39,.43-183.56,.03-367.12,.02-550.68,.02q-17.7,0-17.71-18.01c0-47.48-.04-94.97,.05-142.45,0-5.72-.47-11.18-3.68-16.09-.01-1.75-.03-3.5-.04-5.25q5.74-1.39,5.93-6.62c.05-1.64,.01-3.28,.01-4.91,0-97.81,0-195.62,0-293.43,0-1.17,0-2.34,0-3.51,.04-7.63,.04-7.66,7.7-7.66,96.84,0,193.69,0,290.53,0,85.38,0,170.76-.03,256.14,.09,4.92,0,9.19-.64,12.63-4.33,2.95-.36,5.94-.42,8.79-1.42Z"/>
    <path class="cls-19" d="M1740.43,907.05c.43,3.69,.47,7.39-.07,11.07-86.51,.06-173.04-.94-259.52,.45-106.35,1.7-212.69-.39-319.01,1.46-50.47,.88-100.92,.23-151.38,.96-.94,.01-1.87,.01-2.81,0q-7.12-.04-5.34-6.91c1.32-1.95,2.64-3.57,5.5-3.41,12.15,.68,24.26-.82,36.4-.81,42.76,.02,85.52,0,128.27,0h7.4c1.33-2.47-.66-3.34-1.53-4.48-7.79-10.19-15.69-20.3-23.55-30.43-1.14-1.47-2.49-2.83-3.39-4.44-4-7.11-4.36-6.44,2.39-10.68,75.5-47.42,150.99-94.87,226.49-142.3,.99-.62,1.99-1.23,2.98-1.84,6.09-3.74,6.26-3.67,8.82,3.59,1.11,4.25-1.39,6.35-4.59,8.37-23.34,14.66-46.65,29.37-70.01,43.99-49.5,30.97-98.77,62.3-148.34,93.16-3.85,2.4-4.68,4.7-1.7,8.36,6.19,7.61,12.19,15.38,18.08,23.22,2.55,3.4,4.97,3.49,8.26,1.19,9-6.29,18.59-11.69,27.61-17.95,3.45-2.39,7.01-3.9,10.93-.88,4.46,4.3,2.93,7.87-1.46,10.92-8.63,6.02-17.43,11.78-27.03,17.63,2.36,1.12,4.37,.61,6.22,.62,12.63,.05,25.26-.15,37.89,.06,60.09,.98,120.15-2.22,180.24-1.37,4.31,.06,6.6-.47,5.22-5.66-.7-2.65,.78-5.5,1.46-8.21,12.65-50.86,25.41-101.68,38.06-152.54,.56-2.24,1.54-4.42,1.24-7.35-6.07,2.8-11.28,6.63-16.62,10.11-46.42,30.3-93.07,60.23-139.49,90.52-22.33,14.57-44.73,29.02-67.18,43.41-7.15,4.58-8.62,4.44-15.43-1.08-2.51-4.26,.9-5.84,3.58-7.61,22.61-14.93,45.4-29.57,68.18-44.23,28.47-18.33,56.8-36.88,85.25-55.24,22.96-14.82,45.89-29.66,68.87-44.45,6.39-4.11,6.36-4.11,1.29-9.84-6.37-7.2-12.02-14.84-13.79-25.13-14.85,8.85-28.41,17.93-42.33,26.45-2.81,1.72-5.68,4.84-9.19,1.01-4.6-5.7-4.47-7.09,1.33-10.75,15.98-10.08,31.93-20.21,48-30.13,7.53-4.64,10.22-5.93,18.37,1.59,6.41,5.92,11.53,12.77,15.9,20.26,.77,1.31,.89,3.12,3.33,3.96,2.17-8.6,4.33-17.1,6.47-25.6,2.67-10.61,5.52-21.18,7.86-31.87,.88-4,2.6-5.02,6.2-3.84,4.07,1.13,4.49,4.32,4.28,7.76-.16,2.58-.96,5.05-1.58,7.54-19.31,77.62-38.26,155.33-57.79,232.9-.76,3.03-2.34,6.06-1,10.18,2.75-2.74,2.81-5.83,3.44-8.61,3.59-15.98,7.7-31.83,11.84-47.66,1.89-7.22,3.98-8.09,11.13-5.83,3.62,3.31,2.32,7.3,1.42,11.14-3.91,16.61-8.55,33.04-12.1,49.74-1.71,8.06-1.28,8.68,6.58,8.71,19.16,.09,38.32,.07,57.49,0,7.21-.03,7.12-.13,6.69-7.63-.49-8.64-.2-17.29-.2-25.94-.02-50.96-.05-101.92,.05-152.88,0-4.23-1.24-9.11,3.62-12.01,8.54-.9,10.34,.52,10.44,9.35,.23,20.8,.07,41.6,.08,62.4,.01,29.91,.07,59.83-.04,89.74-.04,10.29,.48,20.53,1.23,30.79,.33,4.51,2.09,6.33,6.44,6.11,2.1-.11,4.2,0,6.31,0,25.93,.08,51.86-.16,77.79,.1,29.61-1.74,59.25-1.64,88.88-1.47,3.67,.02,7.56-.62,10.67,2.23Z"/>
    <path class="cls-22" d="M1397.3,716.77c2.5,1.5,4.32,.04,6.35-1.25,12.81-8.14,25.65-16.23,38.54-24.25,2.15-1.34,4.07-3.17,7.58-3.91,2.73,13.17,10.51,23.31,20.84,31.96-1.79,2.56-4.45,3.63-6.69,5.09-69.94,45.37-139.92,90.68-209.89,136-5.1,3.3-10.19,6.6-15.31,9.87-1.59,1.01-3.3,1.89-3.15,4.18,.15,3.52-2.4,4.1-5.02,4.6-2.99-1.65-5.23-.07-7.66,1.53-9.95,6.56-19.96,13.02-29.99,19.47-4.3,2.76-4.36,2.72-7.59-1.4-6.91-8.83-13.82-17.65-20.67-26.53-3.26-4.22-3.25-4.37,1.42-7.32,20.75-13.1,41.53-26.15,62.31-39.2,34.43-21.62,68.87-43.22,103.29-64.86,18.4-11.56,36.72-23.26,55.22-34.66,2.83-1.74,4.37-3.84,5.19-6.79,2.42,.56,3.85-.93,5.22-2.53Z"/>
    <path class="cls-19" d="M1740.5,286.41c.23,4.14,.49,8.27-.14,12.4-2.54,3.22-6.3,3.87-9.96,4.58-22.5,4.34-45.02,4.82-67.54,.06-9.57-2.02-9.86-1.84-9.86,8.02-.03,73.65,0,147.3-.07,220.95,0,5.01,1.17,10.44-3.22,14.55-8.75,3.26-10.9,1.77-10.93-8.38-.13-36-.05-72-.05-108,0-8.06,.01-7.98-8.09-6.66-21.83,3.55-43.78,2.56-65.72,1.61-.46-.02-.92-.13-1.39-.19-13.63-1.65-14.4-.98-14.4,12.68,0,84.39,.01,168.78-.03,253.17,0,5.77,.87,12.11-6.64,14.51-5.02,1.28-6.87-1.42-7.21-5.88-.34-4.43-.17-8.88-.17-13.32,0-27.1-.05-54.21,.03-78.64-2.85,13.9-7.2,30.21-11.2,46.6-13.65,55.87-27.54,111.68-41.09,167.57-1.09,4.5-1.75,9.37-6.91,11.47-7.43,.49-9.15-1.12-7.66-8.07,1.71-8,3.51-15.99,5.5-23.92,19.17-76.42,37.49-153.04,56.6-229.47,1.73-6.93,3.48-13.87,4.02-21.07-1.64,2.8-2.16,5.96-2.93,9.02-5.83,23.12-11.45,46.3-17.47,69.37-1.15,4.42-1.72,10.44-9.19,8.31-3.79-2.36-3.2-5.76-2.31-9.31,5.27-20.99,10.51-41.98,15.76-62.98,2.03-8.13,4.06-16.27,6.08-24.41,2.15-8.64,3.07-9.28,11.93-8.2,.81-2.26,.39-4.6,.4-6.89,.03-35.06,.02-70.12,.03-105.18,0-9.08,.86-10.37,9.68-12.6,13.37-3.38,27.02-5.25,40.76-5.56,15.84-.36,31.73-.77,47.53,1.37,6,.82,6.09,.62,6.09-5.6,.02-32.72,0-65.45,.02-98.17,0-13.77,1.52-15.07,15.24-16.6,21.64-2.41,43.32-2.24,64.99-1.17,6.57,.32,13.7-.5,19.54,4.03Z"/>
    <path class="cls-5" d="M455.92,543.2c4.19,.62,6.04,3.12,5.91,7.27-.05,1.64,0,3.27,0,4.91,0,51.22,0,102.44,0,153.67,0,8.95-.48,8.43,8.34,8.43,187.99,0,375.98,0,563.97,.06,3.1,0,6.63-1.32,9.21,1.76,0,0-.07,.5-.07,.5,.36,1.98,.9,3.96-.34,5.85-1.91,2.03-4.36,2.57-7.01,2.56-1.64,0-3.27,0-4.91,0-188.41,0-376.83,0-565.24,0-.94,0-1.87,0-2.81,0-6.43-.08-7.96-1.35-10.07-7.42-.81-2.33-.64-4.6-.64-6.9-.03-54.25-.02-108.5-.02-162.75,0-3.22-.71-6.77,3.69-7.93Z"/>
    <path class="cls-19" d="M995.51,913.74c-.98,7.26-.98,7.32-8.07,7.33-47.46,.03-94.93-.81-142.37,.22-105.39,2.28-210.79-.21-316.17,1.54-42.05,.7-84.08,.36-126.11,.96-.47,0-.94,0-1.4,0-10-.18-9.99,1.77-9.73-9.75,3.64-.94,7.35-1.31,11.1-1.32,1.4,0,2.81-.02,4.21-.03,98.49-.19,196.98,.21,295.46-.78,55.2-.56,110.41,.15,165.6-.74,40-.64,80-.16,120-.37,2.69-.01,6.41-1.6,7.48,2.94Z"/>
    <path class="cls-19" d="M8.42,921.07c-.51-5.43-.51-5.6,4.7-5.62,18.93-.08,37.89,.7,56.77-.17,57.66-2.65,115.33-.41,172.98-1.25,6.9-.1,6.93-.1,6.96-7,.04-8.18,.11-16.36-.03-24.54-.07-4.37,1.46-7.22,6.01-7.95,2.83,1.81,2.66,4.7,2.67,7.5,.03,8.41-.02,16.82,.02,25.22,.03,6.17,.07,6.25,6.1,6.27,13.78,.05,27.55,.02,41.33,.02,23.82,0,47.63,0,71.45,0,3.01,0,6.14-.48,8.54,2.06-.49,7.87-.77,8.18-8.63,8.19-56.54,.06-113.11-.97-169.61,.43-63.05,1.57-126.09,.15-189.12,1.07-4.04,.06-8.1,.4-10.14-4.23Z"/>
    <path class="cls-23" d="M231.65,289.11q-6.28,.11-8.14,5.35c-.39,1.1-.68,2.23-1.04,3.34-.35,1.1-.73,2.19-1.54,4.58-22.68-33.15-51.22-58.65-87.22-77.11,7.35-3.62,13.61-6.66,19.83-9.77,14.63-7.3,29.22-14.66,43.86-21.92,3.24-1.61,5.76-3.97,7.91-6.76,2.16-2.8,1.12-4.72-1.88-5.95,1.1-1.53,2.44-2.65,4.46-2.61,7.03,3.85,13.1,1.54,19.22-2.53,4.46-2.96,9.58-4.85,14.64-6.64,5.31-1.88,6.6-.98,7.1,4.75,.63,7.3-.95,14.42-2.04,21.55-4.01,26.32-9.64,52.33-15.72,78.24-.94,4.01-1.25,7.79,.41,11.61-.97,1.32-.73,2.6,.14,3.86Z"/>
    <path class="cls-2" d="M1051.45,720.28c1.94-3.07,4.98-2.84,8.05-2.83,26.39,.04,52.78,.02,79.18,.02h127.52c1.4,0,2.8,.01,4.2,0,6.9-.07,6.94-.07,6.96-6.97,.03-13.55,.06-27.1,0-40.65-.06-10.53,.53-8.26,8.16-8.47,1.09,6.27,.5,12.59,.46,18.88-.08,13.08,.62,26.18-.47,39.25-.6,7.15-2.06,8.68-8.81,8.68-72.04,.02-144.08-.03-216.12,.12-4.3,0-7.07-1.52-9.27-4.82-.71-1.06-.74-2.18,.14-3.21Z"/>
    <path class="cls-13" d="M1504.77,637.69c5.06,.31,6.06-3.45,6.99-7.12,4.26-16.93,8.46-33.88,12.69-50.82,2.65-10.62,5.31-21.24,8.01-31.85,.32-1.24,.29-3.14,2.31-2.78,1.58,.28,1.97,1.73,2.03,3.24,.17,4.02-.68,7.9-1.63,11.75-6.48,26.47-12.97,52.94-19.47,79.41-15.13,61.53-30.27,123.06-45.41,184.59-.17,.68-.32,1.36-.46,2.04q-1.16,5.85,5.44,6.38c1.39,1.98,.61,3.28-1.32,4.22-6.64-.39-6.67-.39-8.28,6.15-4.28,17.43-8.52,34.87-12.8,52.31-.6,2.45-1.34,4.87-2,7.27-6.57-1.21-6.12-2.28-4.63-8.31,7.48-30.31,15.12-60.59,22.65-90.89,12.72-51.15,25.38-102.31,38.18-153.44,.95-3.79,.56-6.81-2.3-9.45,0-.9,0-1.81,0-2.71Z"/>
    <path class="cls-6" d="M255.64,867.67c-4.87,1.19-5.55,.89-5.73-3.45-.21-5.12-.18-10.26-.02-15.39,.1-3.47-1.04-5.3-4.77-5.02-1.85,.14-3.73,.01-5.59,.01-48.73,0-97.46,0-146.18,0-1.17,0-2.33,0-3.5,0q-6.78-.05-6.96-6.85c.84-4.24,3.88-4.39,7.41-4.37,24.07,.1,48.14,.05,72.21,.05s50.48,.08,75.71-.06c5.6-.03,11.06,.59,16.54,1.49,2.46,.4,3.77,1.5,3.76,4.1-.04,7.25-.1,14.49,.03,21.74,.06,3.06-2.58,4.94-2.91,7.76Z"/>
    <path class="cls-19" d="M231.51,285.25c-4.59-2.22-4.57-2.21-3.46-7.21,3.79-17.03,7.84-34.01,11.24-51.12,2.9-14.58,5.18-29.29,7.48-43.98,.68-4.34,.88-8.81,.06-13.76-6.84,1.95-12.78,5.5-18.97,8.47-1.47,.71-2.88,1.54-4.31,2.32q-8.77,4.77-15.65-1.69c.2-2.19,1.83-3.17,3.51-4,10.86-5.37,21.44-11.31,32.68-15.86,1.29-.52,2.61-1.02,3.97-1.31,4.52-.96,4.32-.41,6.57,4.02,3.32,6.53,2.45,13.3,1.67,19.79-4.06,33.53-11.32,66.46-19.05,99.31-.79,3.34-1.8,5.65-5.74,5.04Z"/>
    <path class="cls-12" d="M1042.93,725.64c.11-1.95,.23-3.9,.34-5.85,1.49,2.04,1.9,4.02-.34,5.85Z"/>
    <path class="cls-17" d="M12.74,225.6c-.41-1.02-1.42-1.98-.42-3.16,2.06-2.44,4.56-3.77,7.89-3.8,35.47-.26,69.68,5.78,102,20.75,47.4,21.95,79.62,58.43,100.44,105.74,7.07,16.08,12.5,32.68,16.93,49.64,1.15,4.42,1.09,8.35-3.51,10.86-4.14,1.04-5-1.59-5.76-4.82-4.1-17.26-9.53-34.1-16.72-50.34-18.35-41.49-45.6-75.15-85.62-97.67-17.5-9.85-36.46-15.32-55.88-19.57-16.66-3.65-33.54-5.62-50.59-5.7-3.16-.02-5.91-1.02-8.76-1.95Z"/>
    <path class="cls-4" d="M222.82,695.33c-6.18,1.36-9.4,5.33-10.73,11.42-2.76,12.61-8.94,23.98-13.43,35.97-.87,2.31-2.18,3.46-4.72,2.83-11.75-2.95-23.55-5.65-34.59-10.92-2.87-1.37-3.03-2.97-2.05-5.42,1.9-4.77,3.87-9.5,5.62-14.32,10.23-28.13,16.87-57.14,21.3-86.71,.9-6,.77-12.05,1.58-18.35,10.69,1.27,20.55,4.81,30.62,7.46,3.38,.89,6.68,2.07,9.99,3.21,5.68,1.96,5.99,2.34,5,7.93-1.05,5.96-2.3,11.89-3.53,17.81-2.51,12.09-5.39,24.08-8.61,36-1.66,6.14-1.26,6.58,5.5,8.31,1.16,2.34,.38,3.87-1.95,4.78Z"/>
    <path class="cls-20" d="M222.82,695.33c.87-1.5,1.91-2.94,1.95-4.78,3.14-1.32,3.19-4.48,3.89-7.05,4.54-16.65,8.15-33.51,11.35-50.47,.22-1.15,.17-2.35,.48-3.47,.55-2,1.44-3.3,3.97-2.16,2.27,1.02,4.48,1.78,7.34,.77,2.78-.98,7.44,3.84,7.7,7.24,.5,6.57-.7,13.08-1.57,19.49-3.56,25.96-9.97,51.24-19.69,75.62-2.42,6.07-5.16,12.02-8.79,17.51-1.98,2.99-4.1,4.62-8.11,3.33-4.58-1.48-9.68-1.09-14.06-3.39,.12-2.85,1.05-5.27,2.27-7.49,5.93-10.74,8.75-22.6,12.58-34.11,1.23-3.71,1.33-7.3,.7-11.03Z"/>
    <path class="cls-24" d="M268.72,549.08c-2.74,22.45-7.62,43.65-14.74,64.36-.91,2.64-2.43,3.33-4.69,1.5-1.45-1.17-2.69-2.63-4.22-3.68-1.84-1.26-2.2-2.6-1.58-4.75,.96-3.34,1.35-6.84,2.25-10.2,2.06-7.71,3.08-15.5,2.81-23.49-.16-4.9-.04-9.81-.03-14.72,.02-7.72,.04-7.94,7.56-7.73,4,.11,7.79-1.13,12.62-1.28Z"/>
    <path class="cls-1" d="M175.3,623.32c-4.97,32.93-11.53,65.39-24.46,96.65-9.42-16.23,7.08-82.29,24.46-96.65Z"/>
    <path class="cls-14" d="M250.5,725.6c2.51-8.29,4.81-16.07,7.23-23.83,2.63-8.45,4.18-17.16,6.13-25.76,.26-1.13,.37-2.31,.74-3.4,.68-1.99,2.03-3.09,4.26-2.7,2.54,.45,3.68,2.13,3.26,4.52-.69,3.88-1.56,7.74-2.57,11.56-2.96,11.25-5.79,22.54-9.8,33.48-2.11,5.76-2.44,6.01-9.24,6.14Z"/>
    <path class="cls-11" d="M192.56,477.54q7.45-4.7,13.09,.99c6.65,6.67,11.15,14.87,16.23,22.67,1.6,2.45,.79,4.37-.64,6.36-1.35,1.89-2.88,2.31-4.57,.44-1.56-1.73-3.14-3.45-4.56-5.29-5.12-6.63-10-13.46-15.85-19.49-1.48-1.53-2.72-3.19-3.71-5.68Z"/>
    <path class="cls-3" d="M1649.19,546.24c2.11-2.88,1.66-6.22,1.66-9.47,0-75.97,0-151.93,0-227.9,0-1.64-.05-3.27,.01-4.91,.19-4.93,1.1-5.76,6.01-4.39,15.65,4.37,31.64,5.62,47.74,4.8,12.05-.61,24.05-2.32,35.75-5.56,.09,2.57,.25,5.13,.25,7.7,.01,197.61,.01,395.22,0,592.83,0,2.57-.12,5.14-.18,7.71-22.91,0-45.81,.03-68.72-.04-7.94-.02-15.75,2.01-23.72,1.27-2.32-.21-4.65-.32-6.97-.47-.7-3.19-1.13-6.31,2.13-8.52,3.9-.53,5.49-2.85,5.51-6.69,.09-18.82,.06-37.64,.02-56.46,0-2.95-1.32-5.35-2.83-7.73-.64-1.74-.54-3.42,.31-5.06,2.46-3.21,2.34-7.03,2.34-10.74,.05-84.03,.05-168.07,.02-252.1,0-2.81-.22-5.6-.92-8.33-.73-2.32-.06-4.27,1.57-5.96Z"/>
    <path class="cls-8" d="M783.28,703.43c-2.72,1.33-4.76-.43-6.95-1.52-94.89-.95-189.79-.15-284.68-.42-2.1,0-4.2-.06-6.31-.17-4.84-.25-7.12-2.87-7.38-7.59-.18-3.27-.15-6.54-.15-9.82,0-120.42-.02-240.84,.03-361.26,0-7.02-.07-14-1.96-20.82-.13-3.24-1.86-6.29-1.17-9.63,4.76-11.19,2.68-23,3.08-34.58,.14-3.97-.02-7.95,.17-11.93,.24-5.14,2.91-7.63,7.98-7.78,2.34-.07,4.68-.12,7.02-.12,253.34-.02,506.67,.04,760.01-.03,8.94,0,9.78,.8,9.8,11.02,.09,52.18,0,104.36,.11,156.54,0,4.51-1.08,9.34,2.09,13.43q1.69,5.24-2.98,8.07c1.06,2.69,.85,5.52,.85,8.32-.02,82.8,0,165.59-.01,248.39,0,17.43-.52,17.95-18.26,17.95-148.24,0-296.48,0-444.72,.03-5.57,0-11.25-.59-16.56,1.91Z"/>
    <path class="cls-19" d="M1264.96,418.75c-2.65,2.29-3.88,.38-4.38-1.82-.46-2.01-.21-4.18-.21-6.29,0-54.26,0-108.52-.03-162.78,0-2.53,.42-5.11-.42-7.77h-18.03c-250.87,0-501.74,0-752.61,.02-10.56,0-9.32-1.36-9.38,9.25-.06,10.52-.28,21.06,.1,31.57,.18,4.96-1.19,8.6-5.29,11.26-3.1-.33-4.46-2.09-4.46-5.17,.03-16.85-.08-33.7,.08-50.54,.05-4.96,1.49-6.06,6.39-6.25,2.34-.09,4.68-.04,7.02-.04,255.91,0,511.82,.01,767.72-.1,4.61,0,9.13,1.66,13.82,.42,1.8-.48,3.14,1.01,3.45,2.76,.32,1.82,.23,3.73,.23,5.59,0,55.92-.11,111.85,.2,167.77,.03,4.98-2.97,8.04-4.21,12.11Z"/>
    <path class="cls-19" d="M783.28,703.43c.31-3.05,1.96-4.59,5.06-4.56,2.1,.02,4.21-.01,6.32-.01,152.05,0,304.11,0,456.16,0,10.81,0,9.53,.27,9.53-9.4,.02-84.71,0-169.42,.07-254.13,0-2.85-1.34-6.12,1.55-8.51,6.77,.61,6.84,.66,6.99,6.75,.04,1.4,0,2.81,0,4.21,0,85.42,0,170.83,0,256.25,0,1.17,.01,2.34,0,3.51-.14,9.68-1.89,11.46-11.51,11.46-154.4,.02-308.81,0-463.21,.17-5.13,0-8.34-1.87-10.97-5.75Z"/>
    <path class="cls-19" d="M475.88,301.83c2.97,1.2,4.3,3.35,4.04,6.59-.15,1.86-.03,3.74-.03,5.61,0,125.41,0,250.82,.01,376.24,0,9.22-1.23,8.58,8.72,8.58,92.86,0,185.72,0,278.58,.06,3.23,0,7.28-1.61,9.13,2.99-1.25,6.03-2.14,6.9-7.43,7.13-1.4,.06-2.81,.01-4.21,.01-92.62,0-185.24,0-277.86,0-1.64,0-3.28,.05-4.91-.02-6.68-.28-8.92-2.52-10.35-9.03-1.16-5.3-1.33-10.6-1.33-15.97,.02-123.76,.01-247.53,.01-371.29,0-1.87,.07-3.75,0-5.61-.17-3.98,1.92-5.48,5.63-5.29Z"/>
    <path class="cls-10" d="M1642.4,899.95c-.31,2.65,.49,5.5-1.38,7.87-2.32,.12-4.65,.36-6.97,.37-26.4,.03-52.8,.03-79.19,0-2.3,0-4.67,.46-7.49-.77,2.6-8.41-.72-16.76-.69-25.32,.17-53.98,.08-107.96,.08-161.94,0-.93,0-1.87,0-2.8q-.01-8.11-8.19-8.59c-.61-2.59,3.49-1.83,3.06-4.3,4.2-1.35,5.27-4.23,5.23-8.54-.2-24.09-.1-48.17-.1-72.26v-189.43c0-1.4,0-2.81,0-4.21,.03-7.84,.05-8.07,7.63-7.47,19.1,1.52,38.22,2.1,57.37,1.22,9.52-.43,18.98-1.58,28.47-4.42,1.08,2.61,.55,5.16,.55,7.61,.04,36.48,.03,72.96,.03,109.45,0,.47,0,.94,0,1.4q0,9.02,8.38,8.43c.17,1.44-.52,2.61-1.16,3.8-4.12,3.76-4.92,8.51-4.91,13.89,.1,81.85,.11,163.69-.03,245.54,0,5.36,1.46,9.99,3.73,14.6,0,1.46-.01,2.91-.02,4.37-3.13,3.53-3.78,7.72-3.75,12.3,.12,17.22,.01,34.45,.06,51.68,0,2.53,.55,5.13-.71,7.55Z"/>
    <path class="cls-21" d="M1461.99,690.49c5.27,4.18,8.75,9.68,11.15,15.9-5.52-3.98-9.15-9.31-11.15-15.9Z"/>
    <path class="cls-19" d="M227.56,189.61c5.7-.05,7.55,1.87,6.27,6.15-2,6.69-4.46,13.26-6.95,19.8-5.4,14.16-11.59,28.06-14.28,43.12-.63,3.51-2.49,6.54-3.94,9.71-1.45,3.14-2.66,3.24-5.14,.56-1.42-1.53-2.51-3.36-3.76-5.04-7.75-10.45-16.8-19.41-28.77-24.99-1.75-.82-3.14-1.77-4.21-3.47-3.36-5.36-3.21-6.52,2.31-9.92,16.91-10.4,33.76-20.89,50.2-32.04,2.9-1.96,5.92-3.78,8.26-3.87Z"/>
    <path class="cls-19" d="M1646.81,824.06c-5.2-1.43-6.14-4.93-6.13-10.03,.17-85.05,.12-170.1,.12-255.15,0-7.89,.03-7.89,7.22-8.84,1.36,.47,2.66,1.02,2.71,2.75,.06,1.87,.11,3.74,.11,5.61,0,85.62,0,171.25,0,256.87,0,1.64,0,3.28-.05,4.91-.09,2.54-1.45,3.83-3.99,3.88Z"/>
    <path class="cls-19" d="M1642.4,899.95c-1.55-2.51-1.59-5.32-1.59-8.14,0-18.71-.03-37.43,.01-56.14,.01-5.89,.1-5.89,5.97-7.24,1.98,.03,3.84,.29,3.98,2.84,.09,1.86,.08,3.73,.08,5.6,0,17.98,0,35.96,0,53.93,0,1.17,.02,2.34-.01,3.5-.2,7.25-1.46,8.08-8.44,5.64Z"/>
    <path class="cls-24" d="M219.19,207.02c-4.52,15.27-11.66,29.44-14.99,46.16-6.76-7.84-13.83-13.71-21.27-19.16-2.38-1.74-1.93-3.5,.44-4.88,12.07-7.04,23.65-14.84,35.82-22.12Z"/>
  </g>
  <g>
    <path class="cls-2" d="M697.27,435.02l5.32-.61c1.02,0,2.05-.2,3.28-.2h.2c1.84-.82,3.89-.21,5.73,.2,.61,0,1.02,.2,1.64,.2,1.02,.41,1.23,.82,1.02,2.05-.41,2.66-2.66,3.28-4.91,3.69-2.05,.61-4.1,.61-6.14,1.02h-7.37c-2.87,0-5.73-.21-8.6-.21-.82,0-1.84,0-2.46-.61-.41-.2-.82-.61-1.23-1.02-.61-1.02-1.43-1.64-2.05-2.46-.41-.21-.61-.41-.41-.82v-.61c-.2-1.64-.61-3.28-.82-4.91-.2-.61-.2-1.23-.2-1.84,0-3.89,0-7.78-.2-11.47l-.61-11.26c0-3.07-.21-6.14-.41-9.21-.41-2.46-.41-4.71-.61-7.17,0-1.23,.2-2.25-.41-3.48-.2-.82-.2-1.64-.2-2.46,0-2.46-.41-5.12-.21-7.58,.21-2.25,.21-4.5,.21-6.96,0-4.1-.21-8.19,0-12.29,0-2.25,0-4.5,.41-6.76,.21-1.84,0-3.69,0-5.32,.21-3.07,.21-5.94,.41-8.81,0-1.23,0-2.25,.21-3.28v-1.23c.2-1.84,.61-3.48,.82-5.32,0-.41-.2-.61,0-1.02,.41-.61,.41-1.64,.41-2.46,.2-1.64,.2-3.28,.2-4.92,.2-1.23,.41-2.46,.41-3.48-.21-1.23,.2-1.64,1.02-2.25,1.23-.82,2.46-.82,3.89-.82h1.84c.61,0,1.23,0,1.84,.61,1.23,.82,2.25,1.64,3.28,2.46,.2,.2,.41,.41,.41,.61,.21,1.23,.61,2.66,0,4.1-.2,.41-.41,1.02-.2,1.64,.2,.41,0,.82-.41,1.02-1.02,.82-1.23,2.05-1.43,3.28-.21,.61-.41,1.43-.61,2.25v.61c.61,1.23,0,2.46,.41,3.69-.41,2.66,.41,5.12-.41,7.78-.41,1.02-.41,2.25-.41,3.28,0,.61,.2,1.02,.41,1.43,.21,.61,.21,1.23,0,1.84,0,.61-.2,1.02,0,1.64,.41,1.43,0,2.66,.21,4.1,0,.41-.21,.61-.21,1.02-.2,.61-.2,1.23-.2,1.84v5.32c0,.61-.2,1.23-.2,1.84s0,1.23-.21,1.84v.82c.21,.41,0,1.02,0,1.43-.2,.41-.2,1.02,0,1.43,.41,1.23,.41,2.46,.41,3.69,0,1.02,.2,2.05,0,3.07,0,1.02-.2,1.84-.41,2.87,0,.41-.2,.82-.2,1.23,.41,1.23,0,2.46-.2,3.48-.21,.82-.21,1.43,0,2.05,.2,.41,.2,1.02,0,1.43-.21,.82,0,1.64,.2,2.46s.41,1.43,.2,2.05c0,.82,.21,1.64,.21,2.46,0,.61,0,1.23-.21,2.05v.61c.41,1.23,.21,2.46,.21,3.69,.2,1.23,.2,2.25,.2,3.48-.2,1.43,0,2.66,0,4.1,0,.2,0,.41,.2,.61,.21,.82,.21,1.64,0,2.46,0,.41-.2,.82-.2,1.23,.2,1.84,0,3.69,0,5.73,0,.61,0,1.23,.41,1.64,.2,.21,.2,.41,.2,.61-.2,1.02-.2,2.05-.2,3.07-.21,1.23,0,2.46,.2,3.48,0,1.43,.21,2.87,0,4.1,0,1.64,.21,3.07,.21,4.5,.2,.82,.41,1.02,1.43,1.23,1.64,0,3.28,.21,4.91,.41Z"/>
    <path class="cls-2" d="M726.76,337.96c0-.41,.21-1.02,.41-1.64l.61-2.25c.2-.61,.41-.82,.82-1.43,1.02-1.02,2.05-2.05,3.48-2.87,.2,0,.41-.2,.61-.2,1.64,0,3.28-1.02,5.12-.82,.82,.21,1.43,.41,1.84,1.23,1.23,1.64,1.84,3.28,1.43,5.32,0,.41-.2,.82-.41,1.02l-.61,1.84c-.61,.82-1.23,1.43-1.64,2.25l-1.43,1.84c-.61,1.02-1.64,1.64-2.87,1.84-1.02,.21-2.05,.21-3.07,.21-.2,0-.61-.21-.82-.41-.61-.61-1.23-1.02-1.64-1.64-.82-1.43-1.84-2.46-1.84-4.3Zm1.23,72.08c.21-1.02,.21-2.05,.41-3.07v-.61c-.2-1.84,0-3.48,0-5.32,0-1.64,0-3.28,.21-4.91,.2-.82,.61-1.64,.41-2.46-.41-1.64,0-3.07-.2-4.5,0-4.3,0-8.6,.2-12.9,0-1.23,.21-2.66,.21-3.89,.2-.2,.2-.41,.2-.61-.41-1.43-.41-3.07,0-4.5,.21-.82,0-1.64,.21-2.46,.41-1.64,.2-3.07,.41-4.5,0-.61,.41-1.02,.61-1.43l.61-1.23c0-1.02,.82-1.64,1.64-2.25,.41-.41,3.28-.41,3.89,0,.41,.41,.82,1.02,1.02,1.64,.41,.61,.61,1.43,1.02,2.25,0,.21,.21,.61,0,.82-.61,.61-.2,1.23-.2,1.84,0,1.43,.41,2.87,.2,4.3-.2,1.43,.21,2.87,.21,4.3v7.58l.2,.82c-.41,1.43,.21,2.87,.21,4.3,0,.61-.21,1.23-.41,1.64-.21,1.23,0,2.46,0,3.48,.2,1.43,.2,2.87,.2,4.1,0,.61-.2,1.23-.2,1.64-.21,1.02-.21,1.84-.21,2.87-.2,1.64,.21,3.28,.61,4.71,.2,.82,.41,1.43,.2,2.05-.2,.82-.2,1.64,0,2.25,.2,.82,.2,1.43-.41,2.05-.41,.41-.41,1.02-.2,1.64,.2,.21,0,.61,0,1.02,0,.21-.21,.61,0,1.02,.2,1.64-.41,3.07-1.23,4.3-.61,1.23-1.64,2.46-3.28,2.05-1.43-.2-2.87-.61-4.1-1.02-1.23-.61-2.05-1.84-2.05-3.28-.2-1.23-.2-2.46-.41-3.69Z"/>
    <path class="cls-2" d="M790.44,327.52v-4.1c0-1.02-.41-1.64-1.43-1.84-.2,0-.61-.2-.61-.41-.61-.82-1.64-1.23-2.66-1.43-.61-.2-1.43-.61-2.25-.82-1.02-.2-2.05-.41-3.07-.61h-.41c-1.02,.21-2.05,.61-3.07,.82l-.82,.2c-.82-.2-1.43,.41-1.84,1.02s-.82,1.02-1.43,1.23c-1.02,.41-1.64,1.02-2.05,2.05-.61,1.23-1.43,2.46-2.46,3.48-.82,.82-1.23,2.05-1.43,3.28-.21,1.23-.61,2.46-1.43,3.48l-.61,1.43c-.2,.61-.41,1.43-.61,2.05l-.21,.82c.21,1.43,.21,2.87,.21,4.3v.41c0,1.23,0,2.46-.21,3.48-.2,2.25,.41,4.3,1.02,6.35,.41,1.84,.61,3.48,1.23,5.12,.41,1.43,1.02,2.66,1.43,4.1,.41,.61,.82,1.23,1.02,2.05,1.23,2.66,2.25,5.53,3.28,8.4,.2,.21,.2,.41,.2,.41,1.23,1.84,2.25,3.48,3.28,5.32l2.46,5.12c.2,.2,.2,.61,.41,1.02,1.43,1.64,1.84,3.48,3.07,5.32,0,0,0,.2,.21,.41,1.23,1.64,1.84,3.48,2.66,5.12,1.02,2.05,2.05,3.89,2.87,5.94,.61,1.23,1.23,2.66,2.05,3.89,.21,.2,.41,.61,.41,.82,.41,.82,.82,1.64,1.02,2.66,.21,.21,.21,.61,.41,1.02v.61c.61,.82,.82,1.84,1.23,2.66,.61,1.64,1.23,3.28,1.43,5.12l.61,3.89c.2,1.23,.41,2.66,.41,3.89-.21,2.25,.2,4.71-1.02,6.76,0,1.64-1.02,2.46-2.05,3.48-1.23,1.02-2.25,1.84-3.69,2.05-.82,.21-1.64,.61-2.46,1.02-1.64,.82-3.48,1.43-5.53,1.64-.61,0-1.02,0-1.64-.41-.61-.41-1.23-.82-2.25-.61-.82,.21-1.64-.2-2.46-.82-.41-.82-1.02-1.23-1.84-1.64-.82-.41-1.64-1.23-2.46-1.84l-1.84-1.23c-.21-.2-.61-.41-.61-.61-.61-1.02-1.43-1.84-2.25-2.66-.61-.61-1.02-1.23-1.23-2.05,0-.61-.2-1.23-.61-1.64-.41-1.02-.61-2.25-.82-3.48-.21-1.02-.21-1.84-.41-2.87v-.82c.41-1.23,.61-1.43,2.05-1.23l2.25,.61c.41,.2,.82,.41,1.02,.61l1.23,2.87c.2,.61,.41,1.02,.82,1.64,.61,.41,1.02,1.02,1.43,1.64,.41,.82,1.02,1.43,1.84,2.05,.61,.41,1.23,.82,1.84,1.43,1.23,1.23,2.46,2.25,4.3,2.66,2.05,.2,3.07-.41,3.48-2.05,.2-.61,.41-1.23,.41-1.64l.61-8.19c0-1.64-.21-3.07-.61-4.5l-1.84-6.55c0-.41-.2-.82-.41-1.23l-1.23-2.46c-1.43-2.66-2.46-5.53-4.3-7.99,0-.2-.21-.2-.21-.41-.82-2.05-2.25-3.89-3.28-5.94-1.02-2.05-2.25-3.69-3.28-5.73-1.43-2.87-2.87-5.73-4.3-8.6l-2.87-5.53c0-.2-.2-.41-.2-.61-.61-3.07-2.05-5.73-3.28-8.6-1.43-3.48-2.66-7.17-3.07-11.06,0-1.43,0-2.66-.2-3.89-.41-1.84-.21-3.69-.21-5.32,0-1.84,.21-3.48,.41-5.32,0-1.23,.2-2.25,.2-3.48,.21-1.84,.82-3.48,1.64-5.12,.61-1.02,.82-2.25,1.43-3.48,.82-1.84,1.84-3.69,2.87-5.32,.21-.61,.82-1.23,1.23-1.64,1.64-1.02,2.87-2.25,4.71-3.07l.41-.41c1.64-1.43,3.48-2.05,5.73-2.25,1.43-.2,2.87-.61,4.1-1.02,1.43-.41,2.66-.61,3.89-.41,1.43,0,2.87,.2,4.1,.41,1.84,.41,3.28,1.23,4.91,1.84,.61,.41,1.43,.82,1.84,1.43,.82,.82,1.64,1.43,2.87,1.64,1.02,.21,1.64,1.02,1.84,2.05,.21,.61,0,1.23,.61,1.84,.2,0,.2,.41,.2,.61-.2,1.23-.41,2.66,.2,3.89,0,2.25,.82,4.5,.21,6.55-.21,.82-.21,1.43,0,2.25,0,1.43-.61,2.66-1.23,4.1,0,.41-.2,1.02-.41,1.43-.21,.82-.82,1.02-1.64,.61-.61-.2-1.02-.61-1.23-1.43-.2-1.02-.61-2.25-1.02-3.28-.61-1.64-1.02-3.28-.82-5.12v-1.64h-.2Z"/>
    <path class="cls-2" d="M839.79,427.24c0-1.43,.2-2.87,.2-4.3,0-1.02-.2-1.84-.2-2.66,.2-2.46,.41-4.91,.61-7.17v-1.23c.2-2.25,.41-4.3,.41-6.35,0-2.46,.41-4.91,.61-7.37,.2-2.87,.41-5.53,.41-8.4,.21-1.64,.21-3.28,.21-4.91,0-2.66,0-5.32,.41-7.78,.2-2.05,0-4.1,0-6.14v-6.35c0-2.46,0-4.91,.2-7.37,.41-4.5,.41-9.21,.2-13.72,0-2.87-.2-5.73-.41-8.6v-3.28c0-2.05,0-4.3-.41-6.35-.21-.82-.21-1.02-1.23-.82-2.05,0-4.1,0-5.94,.21-2.05,.41-3.89,0-5.73,.2h-5.53c-.61,0-1.23,.21-1.84,.21-.41,.2-.82,.41-1.02,.61-.61,.61-1.02,1.43-1.64,2.25-.61,.82-1.64,1.23-2.66,.82-1.23-.2-2.05-.61-2.87-1.64-.41-.61-1.02-1.23-1.23-2.05,0-.21-.2-.41-.41-.61-.82-.41-1.02-1.23-1.02-2.05-.41-1.23-.61-2.25-.82-3.48,0-.2,0-.41-.2-.61-.41-.61-.41-1.23-.2-1.84,0-.2-.21-.61-.21-1.02v-1.43c0-.61,.41-.82,1.02-1.02,1.02-.21,2.05-.41,3.07-.61h.41c1.02-1.02,2.25-.61,3.48-.41,.2,0,.41,.2,.61,.2,1.84,0,3.89,0,5.73-.2,1.84-.21,3.69-.41,5.32-.61l6.35-.61c2.66-.2,5.32-.61,7.99-.41,1.43,0,2.66-.41,4.1-.21,2.46,0,4.91,.21,7.37,.41,1.84,0,3.48,.2,5.12,.41l3.28,.61c.41,0,.82,0,1.23,.2,2.05,0,4.1,.82,6.14,1.43,1.64,.41,2.87,1.43,3.28,3.28,.41,1.64,.61,3.48-.41,5.12-.41,.41-.82,.82-1.64,.82h-4.3c-.61-.21-1.23,0-1.84,0l-8.19,.61c-1.43,0-2.87,.2-4.3,.41-1.23,.2-1.64,.61-1.84,1.84-.2,1.64-.41,3.28,.2,4.71v.82c-.2,.82,0,1.43,0,2.25s.21,1.64,.21,2.66c.2,2.46,.41,4.91,.61,7.58v.2c0,1.23,0,2.46-.2,3.48-.21,2.05-.41,4.1,0,6.14,0,.41,0,.82-.21,1.23v1.02c0,.61,.21,1.43,0,2.25-.2,.61,0,1.23-.2,1.84,0,1.02,0,2.05-.21,3.07-.41,.82-.2,1.84,0,2.66,0,.82,0,1.64-.41,2.46-.21,.82-.21,1.64-.21,2.46,0,1.43,.21,2.66,0,4.1-.2,1.84-.2,3.69-.2,5.73,0,.82,0,1.84-.2,2.87,0,1.23-.21,2.66,0,4.1,0,1.02-.21,2.25-.21,3.28-.41,3.69-.61,7.58-.61,11.26,0,1.23-.2,2.46-.41,3.69,0,1.23,0,2.46-.2,3.89,0,.21,.2,.61,0,.82-.61,1.64-.41,3.28-.41,4.91,0,1.23-.2,2.46-.2,3.89v1.84c-.21,1.84-.21,3.69-.41,5.73,0,.82,.2,1.84,.2,2.66,0,1.43-.2,3.07-.2,4.5,0,.82,0,1.43,.41,2.25,.41,.61,.41,1.43,.61,2.25q.2,.21,0,.21c-.41,1.23-1.23,1.84-2.25,2.46-.82,.41-1.64,0-2.25-.41-1.43-1.43-2.87-2.66-3.48-4.5-1.23-2.66-1.64-5.53-1.43-8.4Z"/>
    <path class="cls-2" d="M1002.17,366.22c0,1.43,.21,2.66,.21,3.89v5.53s-.21,.21,0,.41c.41,2.25-.21,4.71-.21,6.96,0,1.43-.61,2.87-.61,4.3-.61,1.02-.41,2.05-.41,3.07,0,.82-.21,1.64-.41,2.46-.61,1.02-.82,2.25-1.02,3.48-.41,2.05-1.02,4.3-2.05,6.35-.41,.61-.61,1.23-.82,1.84-.82,1.23-1.43,2.25-2.25,3.28-.21,.41-.61,.61-.82,.82-.61,.2-1.02,.61-1.43,1.23-.2,.61-.82,1.02-1.43,1.23-1.23,.61-2.66,1.43-4.09,1.64-1.02,.2-2.05,.41-2.87,.82-.82,.2-1.64,.61-2.46,1.23-.21,0-.41,.2-.61,.41-.82,.41-1.23,.2-1.84-.41-.21-.2-.41-.61-.82-.82-.21-.41-.82-.61-1.23-.61-1.02-.2-1.84-.61-2.66-1.02-.41-.2-1.02,0-1.23-.61,0,0-.41-.2-.61,0-.62,.21-1.02,0-1.43-.2-.82-.61-1.84-1.02-2.46-1.84-.41-.2-.82-.41-1.23-.82,0,0-.2,0-.41-.2-2.66-2.05-4.91-4.3-5.53-7.78l-.61-2.25c-.41-1.84-1.02-3.69-1.43-5.32v-1.02c-.21-.61-.21-1.23-.41-1.84,0-.41,0-.82-.2-1.43,0-1.64-.2-3.28-.41-5.12v-2.87c.21-2.66,.41-5.53,.82-8.19,.41-2.87,1.02-5.53,1.64-8.19,.21-1.64,.61-3.28,1.02-4.91,.41-1.43,.61-2.66,1.23-3.89,.82-1.84,1.43-3.89,2.25-5.94,.41-1.02,1.23-2.25,1.84-3.28,.2-.41,.41-.61,.61-.82,1.02-2.87,3.28-4.71,5.12-7.17,.61-1.02,1.64-1.64,2.87-2.25,1.02-.61,2.05-1.23,2.66-2.25,.41-.61,1.02-.82,1.84-1.23,.61-.2,1.02,0,1.23,.41l.41,.41c.21,1.64,1.84,1.84,2.87,2.46l1.84,1.23c1.64,1.23,3.48,2.46,4.91,4.1,1.23,1.23,2.66,2.46,3.69,4.1,.41,.61,.82,1.43,1.23,2.25,.41,.82,.82,1.64,1.43,2.46,.82,1.23,1.02,2.46,1.43,3.69,.2,.82,.61,1.43,.82,2.25,.41,1.64,1.02,3.28,1.43,4.91,.41,1.84,.82,3.48,.61,5.12Zm-6.76-2.66c-.21-.82,0-1.64-.21-2.46-.61-2.05-1.43-4.1-2.05-5.94-.21-1.02-.41-2.05-1.02-2.87-1.23-2.05-3.07-3.69-4.71-5.53-1.02-1.02-2.46-.82-3.48,0-.61,.61-1.43,1.02-2.25,1.23-1.84,.61-3.28,1.64-4.3,3.28-.21,.41-.61,.82-.82,1.02-1.23,.41-1.64,1.23-1.84,2.25-.82,2.46-2.05,4.91-2.87,7.37-1.02,2.25-1.43,4.71-2.25,6.96-.61,2.25-.61,4.3-1.02,6.55-.41,2.05-.41,4.1-1.02,5.94v.61c0,.82,.41,1.84-.21,2.66-.2,0,0,.41,0,.61,0,2.25,0,4.5,.21,6.76,.21,2.66,.41,5.12,1.02,7.58,.2,.82,.41,1.23,1.02,1.84,.41,.61,1.02,1.02,1.84,1.43,2.46,1.43,5.32,1.43,7.99,1.43,1.23,0,2.46-.21,3.48-.61,1.84-.41,3.28-1.02,4.5-2.46,1.02-1.02,1.84-2.25,3.07-3.28,.82-.82,1.43-2.05,1.84-3.28l1.64-5.94c.2-1.23,.41-2.46,.82-3.89,.2-.82,0-1.84,.2-2.87,0-1.43,.21-2.87,.41-4.3,.2-1.84,.61-3.89,.2-5.94-.2-1.64-.2-3.28,.21-4.91v-.41c-.61-.82-.41-1.84-.41-2.87Z"/>
    <path class="cls-2" d="M1032.68,362.33c2.46-.41,4.3,.2,6.35,.41h1.64c2.25-.21,4.71-.61,6.96-.61,2.46-.21,4.71,.82,6.76,2.05,1.02,.61,1.23,1.64,1.23,2.66-.2,.82-.82,1.43-1.64,1.64-.41,.21-.82,.21-1.43,.41-.61,0-1.23,.2-1.64,.2-1.84-.41-3.69,0-5.32-.2-.41,0-.82,.2-1.23,.2-.61,.21-1.23,.21-2.05,.21h-1.02c-.41,.2-.82,.2-1.43,.2-1.02,.2-2.05-.2-3.07,.2l-.82-.2c-.61-.2-1.23-.41-1.84-.2-.2,.2-.41,.2-.61,0-1.02-.41-2.25-.21-3.48,0-.21,.2-.62,.2-.82,.41l-2.87,1.23c-1.02,.41-1.43,1.23-1.43,2.25,0,1.23-.2,2.46-.2,3.48s.2,1.84,.2,2.66c-.2,1.84-.41,3.48-.41,5.32-.21,1.84-.41,3.69-.41,5.73-.21,.21,0,.41,0,.61,.41,.61,.41,1.43,.41,2.05,0,2.05-.21,4.1,0,5.94,0,1.64,0,3.07-.21,4.71-.2,.41-.2,1.02,0,1.43,.21,2.25,.61,4.3,.82,6.55,0,.82-.21,1.64-.21,2.66,.21,1.43,.21,3.07,.41,4.71,0,.82,0,1.84,.2,2.66v4.71c.61,.82,.21,2.05,.41,3.07,.2,.41-.21,1.02-.21,1.64v3.07l.21,.82c.61,1.84,0,3.28-.82,4.71-.21,0-.21,.2-.41,.2-1.23,.2-2.25,.82-3.48,.61h-1.02c-1.02,.21-1.64-.41-2.25-1.43-1.43-1.84-1.84-3.89-2.05-6.35,0-2.05,0-4.1-.41-6.14v-.82c-.21-1.64-.21-3.48-.21-5.12s-.21-3.28-.21-4.91c-.2-.21,0-.61,0-.82v-2.05c.21-1.02,0-1.84,.21-2.87,.21-.2,.21-.61,.21-.82l-.61-8.4c0-1.02,.2-1.84,.2-2.66-.61-9.42,0-18.63-.2-28.05,0-1.64,.41-3.48,.41-5.12,.21-1.02,.21-2.05,.21-3.07v-3.89c0-2.46,0-4.71,.2-6.96,0-1.84,.21-3.48,.21-5.12l.41-2.87c.21-.82,0-1.84,0-2.66,0-2.25,.21-4.3,.21-6.55v-5.94c0-1.64,0-3.07,.21-4.71s.21-3.07,.41-4.71c0-.41,.21-.82,.21-1.23,.21-.2,.41-.41,.41-.82,.21-1.43,1.23-1.64,2.25-1.84,.82-.2,1.64,0,2.46,0,.61,0,1.23,.61,1.84,1.02,.41,.61,1.02,.61,1.64,.41,.61-.2,1.43-.2,2.05-.2,2.05,.2,4.09,.2,6.14-.21,1.84-.2,3.69-.41,5.53,0h2.87c1.43,0,2.66-.2,4.1-.2,1.02,0,2.25,0,3.28,.21,1.02,0,2.05,.2,3.07,.41,.62,0,1.02,0,1.43,.21,1.64,.61,3.28,1.43,4.92,2.05,1.23,.41,1.43,.82,1.23,2.05-.21,.2-.21,.41-.21,.61,0,1.23-.61,1.64-1.64,2.05-.82,.2-1.84,.2-2.66,0-1.43-.2-2.87-.61-4.3-.82-1.43-.2-3.07-.2-4.71,.21-1.43,.2-2.87,0-4.3,0-.82,0-1.64-.21-2.46-.41-.41,0-.82,0-1.23,.2-1.43,.61-2.66,.61-4.1,.41-1.23-.2-2.46-.2-3.48-.41-1.02-.21-1.84,.2-2.87,.2-.41,0-.82,.2-1.23,.2-.82,0-1.23,.41-1.64,1.23-.21,.61-.41,1.43,0,2.05q.21,.21,.21,.41v7.99c0,2.66,.2,5.32,0,7.99,0,2.05-.41,4.1-.41,5.94-.2,.61,0,1.23,0,1.64v10.65q0,1.23,1.02,1.23l2.25,.41c1.43,0,2.66,.2,3.89,.2Z"/>
    <path class="cls-2" d="M643.21,491.13c3.69,.2,6.96,.2,10.03,1.02,1.43,.2,2.87,.61,4.3,1.02,1.64,.41,3.48,.82,5.12,1.43l1.23,.61c1.64,.82,3.07,1.64,4.71,2.66,.82,.41,1.64,1.23,2.46,2.05,1.23,1.02,2.25,2.46,3.28,3.89,1.02,1.64,2.05,3.07,2.87,4.71,.41,.82,.61,1.84,.82,2.87,.2,.41,.2,1.02,.41,1.43v1.02c0,2.05,0,4.3,.21,6.35,0,.82,0,1.43-.41,2.05-.2,.21-.2,.61-.2,1.02-.21,1.02-.41,2.25-1.23,3.07-.41,.61-.61,1.23-.82,2.05l-.61,.82c0,.21-.41,.41-.41,.82-.2,1.23-1.43,2.25-1.84,3.28-1.43,.82-1.84,2.25-2.87,3.28-.82,.82-1.64,1.84-2.25,2.66-.82,1.02-1.84,1.64-2.87,2.46-.82,.61-1.64,1.43-2.66,2.05-.82,.41-1.64,1.23-2.66,1.23-.41,0-.61,.41-1.02,.61l-2.46,1.43c-.41,.21-.61,.21-1.02,.21-.82,.2-1.43,.41-2.05,1.02-1.23,.82-2.46,1.43-3.89,1.43s-2.87,.41-4.1,.82c-1.02,.41-2.05,.61-3.07,.82l-1.43,.62c-.82,.41-1.23,1.02-1.23,1.84,0,2.25-.41,4.5-.41,6.76,0,1.02,0,2.25,.21,3.28v2.46c.2,1.02,.2,2.05,.41,3.07,.2,1.64,.2,3.28,0,4.92-.21,1.84,.2,3.48,.2,5.32,0,.82,.2,1.64,.2,2.46,.21,2.46,.21,5.12,.21,7.58,.2,1.02,.2,2.25,.41,3.28,.41,1.43,.41,3.07,.41,4.71s-.41,3.28,0,4.71v.82c-.2,.41-.2,1.02-.2,1.43,.2,2.46,.61,4.92,.82,7.58,0,1.02,.21,2.25,.21,3.48,0,2.05-1.23,3.48-2.87,4.51-1.23,.61-2.25,.82-3.48,.2-.41-.2-.82,0-1.02,0h-.82c-1.23-.2-1.64-1.02-1.23-2.05l.61-1.23c.2-.61,.41-1.43,0-2.25-.21-.21-.21-.41-.21-.61,.21-1.43-.41-3.07-.41-4.71-.2-1.64-.41-3.48-.2-5.12,.2-1.02,0-2.25,0-3.28,0-.82,.2-1.84,.2-2.87,0-.41-.2-.82-.2-1.23-.2-.61-.2-1.23-.41-2.05-.2-2.25,0-4.5,0-6.96v-1.23c0-.2-.2-.41-.2-.61,0-2.87-.41-5.73-.41-8.6,.21-1.84,.21-3.69,.41-5.32v-.82c-.61-2.05-.2-4.3-.41-6.55-.2-2.46,.21-4.71,.21-6.96v-.41c.61-2.66,.41-5.12,.41-7.78v-5.53c0-.41,.21-1.02,.21-1.64,.2-1.02,.2-2.05,.41-3.07,0-1.84,0-3.69,.21-5.53v-.82c-.41-1.84,0-3.69,0-5.32,.2-2.46,.82-4.71,.82-7.17v-3.89c-.2-1.64,0-3.28,.41-4.91,.41-2.05,.41-4.1,.21-6.14-.61-1.02-.21-2.25-.21-3.48,0-1.02,.21-1.84-.2-2.87,.41-1.02,0-1.84-.82-2.66-.2-.21-.2-.82-.2-1.23,0-.61,.41-.61,.82-1.02,.21,0,.61-.21,.61-.61,.61-.82,1.64-1.23,2.25-2.05,.2-.2,.61-.2,1.02-.2,2.05-.21,4.1-.21,5.73-.41Zm1.64,9.42h-2.25c-1.02,0-1.43,.41-1.43,1.43v.61c.41,1.64,.41,3.28,0,4.71-.2,1.64-.2,3.28-.41,4.71v.62c0,3.48,.2,6.76,.2,10.24,0,1.02-.41,2.05-.41,3.07-.2,2.46,0,5.12,0,7.58,0,.41,.21,1.02,0,1.64-.41,2.46,.21,5.12-.61,7.37v.21c0,.61,.61,1.02,1.02,.82l4.3-1.84c1.02-.2,1.84-.61,2.87-1.02,1.64-.61,3.28-1.02,4.91-1.64l4.91-2.87c.61-.61,1.43-1.02,2.05-1.64,.41-.41,.82-1.02,1.43-1.43,1.84-1.23,3.07-3.07,4.3-4.91,.82-1.43,1.84-2.87,2.25-4.5,.61-.61,.82-1.64,1.02-2.46,.41-1.43,.21-3.07,.21-4.71l-.61-2.46c-.61-1.23-1.23-2.46-2.05-3.69-.41-.82-1.23-1.64-1.84-2.46s-1.02-1.64-1.84-2.25c-1.02-.82-2.46-1.43-3.69-2.25-.82-.41-1.84-.82-2.87-1.02-.61-.41-1.43-.61-2.05-.82-.41,0-.61,0-.82-.2-1.43-.61-2.66-.82-4.1-.82h-4.5Z"/>
    <path class="cls-2" d="M692.15,609.7c0-2.05,0-4.09-.21-5.94,0-.62,.21-1.43,.21-2.05v-.61c-.61-5.12-.61-10.44-.82-15.56,0-.61-.2-1.02-.2-1.64v-4.3c0-3.07,0-6.14-.21-9.21v-4.09c0-1.23,.21-2.46,.21-3.69,0-.2,.2-.41,0-.41-.41-2.87-.21-5.73-.21-8.4v-22.73c0-1.64,.41-3.07,.41-4.71v-13.92c.2-1.23,.2-2.25,0-3.48,0-1.23-.2-2.25-.2-3.48,0-.61,.2-1.02,.2-1.64,.2-1.43,.41-3.07,.41-4.71,0-.41,0-1.02,.2-1.43,.21-.41,.41-.61,.61-.61,.61-.41,1.23-.82,1.43-1.43,0-.2,.2-.41,.41-.41,1.23-.61,2.46-1.23,3.69-1.23,.41,0,.82,0,1.02,.2,.41,.61,1.23,.61,1.84,.61,2.05-.21,4.1-.21,6.14,0,1.64,0,3.28,.2,4.91,.41,1.43,.41,3.07,1.02,4.5,1.43l3.48,.61c1.64,.2,3.07,1.02,4.51,1.43,1.02,.2,1.64,.61,2.46,1.23,.82,.41,1.64,.82,2.46,1.43,.2,0,.41,.2,.61,.41,1.02,1.23,2.25,2.05,3.48,2.87,.41,.2,.61,.41,.82,.82,.82,1.43,1.43,2.87,2.05,4.3,1.64,2.87,1.23,5.94,.82,9.01-.2,2.66-1.02,4.92-2.25,7.17-.41,.82-1.02,1.23-1.43,2.05-1.23,1.43-2.87,2.66-3.89,4.1-.2,.41-.61,.61-.82,1.02-.21,.21-.41,.61-.82,.61-1.02,.41-1.43,1.43-2.46,1.84-.82,.2-1.64,1.02-2.25,1.64-1.84,1.02-3.69,2.46-5.73,3.07-.61,.21-1.23,.21-1.64,.41-.61,.2-.82,.61-.41,1.23,.61,.61,1.43,1.23,2.05,2.05,.41,.41,1.02,.82,1.43,1.43l2.87,3.69c.61,1.02,1.43,2.05,1.43,3.28,0,.21,0,.41,.21,.61,1.02,2.66,1.84,5.53,2.46,8.4,.21,1.02,.21,2.25,.41,3.28,.61,3.28,.41,6.55,.82,9.83,.2,2.05,.41,4.1,.82,6.14,.21,2.05,.61,4.1,1.02,6.14,.41,1.84,.82,3.48,1.84,5.12,.61,1.23,1.84,2.25,3.48,2.25h.61c1.43,.41,1.84,.82,1.43,2.25-.41,1.64-1.43,2.46-3.07,2.46h-1.84c-1.43-.41-2.87-1.02-4.3-1.64-.61,0-1.02-.41-1.43-.82-.41-.21-.61-.82-1.23-1.02-.82-.41-1.23-.82-1.64-1.64-1.64-2.46-2.87-4.92-3.07-7.99-.2-2.05-.82-4.1-1.02-6.14l-.61-5.53c0-1.64,0-3.48-.41-5.12-.2-1.64-.2-3.28-.41-4.92-.41-1.23-.41-2.66-.82-4.1-.41-1.02-.41-2.25-.61-3.28-.41-1.64-1.02-3.28-1.84-4.91-.21-.41-.61-.82-1.02-1.23-.41-.61-1.02-1.23-1.64-1.64-1.43-1.84-3.07-3.48-5.32-4.3-1.02-.41-2.05-.41-3.28-.61-.82-.21-1.23,.41-1.02,1.23,.2,.61,.2,1.23,.2,1.84,0,1.23-.2,2.46-.2,3.69,0,2.25,.21,4.5,.21,6.76,.2,.61,.2,1.23,.41,2.05v.61c.21,2.66,.21,5.32,0,7.99,0,1.64,0,3.07-.82,4.71v.41c.61,1.23,.41,2.46,.41,3.69-.21,1.64,0,3.48,.2,5.12v2.46c.2,2.66,.2,5.53,.41,8.4,0,1.43,.41,2.66,.61,4.1,.2,2.05,.41,4.1,.41,6.14,0,.82-.2,1.64-.41,2.46v.2c.2,1.23-.41,2.46-.21,3.89v.21c-.2,1.84,.21,3.48-.2,5.32l-.61,3.69c-.2,1.23-.61,1.64-2.05,1.64-.2,0-.61,0-1.02,.21-2.05,.2-3.48-.82-4.71-2.46-1.02-1.23-1.84-2.87-1.84-4.5-.2-1.43-.41-2.87-.41-4.1Zm36.04-96.24c.2-1.23-.41-2.66-.82-4.09-.41-1.64-1.64-2.66-3.28-3.07-1.23-.41-2.46-.61-3.48-1.02-2.05-1.23-4.51-1.64-6.76-2.05-2.05-.41-4.3-.61-6.55-.61-.2,0-.61,0-.82-.21-1.23-.2-2.25,0-3.48,.21-1.02,.2-1.23,.41-1.23,1.64,0,2.66,.41,5.12,.21,7.58,0,.41,.2,.61,.2,1.02,.2,1.23,.41,2.46,0,3.69-.21,1.23,0,2.25,0,3.48-.2,.41,0,.61,0,1.02,0,2.46,.41,5.12,0,7.58-.2,.21-.2,.41,0,.61,.2,.82,0,1.84-.2,2.87-.21,1.23-.21,2.46-.21,3.69,0,.61,.41,.82,1.02,.41,1.43-.82,2.66-1.84,4.3-2.25,1.84-.41,3.69-1.23,5.32-1.84l5.32-1.84c.82-.41,1.43-.82,2.05-1.43,.41-.61,1.02-1.02,1.64-1.43,.41-.41,1.02-.61,1.43-1.02,1.02-1.02,1.84-2.05,2.46-3.07,.61-.82,1.23-1.64,1.64-2.46,.82-2.25,1.43-4.5,1.23-7.37Z"/>
    <path class="cls-2" d="M793.72,546.42c0,1.43,.2,2.66,.2,3.89v5.53s-.2,.2,0,.41c.41,2.25-.2,4.71-.2,6.96,0,1.43-.61,2.87-.61,4.3-.61,1.02-.41,2.05-.41,3.07,0,.82-.21,1.64-.41,2.46-.61,1.02-.82,2.25-1.02,3.48-.41,2.05-1.02,4.3-2.05,6.35-.41,.61-.61,1.23-.82,1.84-.82,1.23-1.43,2.25-2.25,3.28-.21,.41-.61,.61-.82,.82-.61,.21-1.02,.61-1.43,1.23-.21,.61-.82,1.02-1.43,1.23-1.23,.61-2.66,1.43-4.1,1.64-1.02,.21-2.05,.41-2.87,.82-.82,.21-1.64,.61-2.46,1.23-.21,0-.41,.21-.61,.41-.82,.41-1.23,.21-1.84-.41-.2-.21-.41-.61-.82-.82-.21-.41-.82-.61-1.23-.61-1.02-.21-1.84-.61-2.66-1.02-.41-.21-1.02,0-1.23-.61,0,0-.41-.21-.61,0-.61,.2-1.02,0-1.43-.21-.82-.61-1.84-1.02-2.46-1.84-.41-.21-.82-.41-1.23-.82,0,0-.21,0-.41-.21-2.66-2.05-4.91-4.3-5.53-7.78l-.61-2.25c-.41-1.84-1.02-3.69-1.43-5.32v-1.02c-.2-.61-.2-1.23-.41-1.84,0-.41,0-.82-.2-1.43,0-1.64-.2-3.28-.41-5.12v-2.87c.21-2.66,.41-5.53,.82-8.19,.41-2.87,1.02-5.53,1.64-8.19,.2-1.64,.61-3.28,1.02-4.91,.41-1.43,.61-2.66,1.23-3.89,.82-1.84,1.43-3.89,2.25-5.94,.41-1.02,1.23-2.25,1.84-3.28,.21-.41,.41-.61,.61-.82,1.02-2.87,3.28-4.71,5.12-7.17,.61-1.02,1.64-1.64,2.87-2.25,1.02-.61,2.05-1.23,2.66-2.25,.41-.61,1.02-.82,1.84-1.23,.61-.21,1.02,0,1.23,.41l.41,.41c.21,1.64,1.84,1.84,2.87,2.46l1.84,1.23c1.64,1.23,3.48,2.46,4.91,4.1,1.23,1.23,2.66,2.46,3.69,4.1,.41,.61,.82,1.43,1.23,2.25s.82,1.64,1.43,2.46c.82,1.23,1.02,2.46,1.43,3.69,.21,.82,.61,1.43,.82,2.25,.41,1.64,1.02,3.28,1.43,4.92,.41,1.84,.82,3.48,.61,5.12Zm-6.76-2.66c-.2-.82,0-1.64-.2-2.46-.61-2.05-1.43-4.1-2.05-5.94-.2-1.02-.41-2.05-1.02-2.87-1.23-2.05-3.07-3.69-4.71-5.53-1.02-1.02-2.46-.82-3.48,0-.61,.61-1.43,1.02-2.25,1.23-1.84,.61-3.28,1.64-4.3,3.28-.2,.41-.61,.82-.82,1.02-1.23,.41-1.64,1.23-1.84,2.25-.82,2.46-2.05,4.91-2.87,7.37-1.02,2.25-1.43,4.71-2.25,6.96-.61,2.25-.61,4.3-1.02,6.55-.41,2.05-.41,4.1-1.02,5.94v.61c0,.82,.41,1.84-.2,2.66-.21,0,0,.41,0,.61,0,2.25,0,4.5,.2,6.76,.2,2.66,.41,5.12,1.02,7.58,.2,.82,.41,1.23,1.02,1.84,.41,.61,1.02,1.02,1.84,1.43,2.46,1.43,5.32,1.43,7.99,1.43,1.23,0,2.46-.21,3.48-.61,1.84-.41,3.28-1.02,4.5-2.46,1.02-1.02,1.84-2.25,3.07-3.28,.82-.82,1.43-2.05,1.84-3.28l1.64-5.94c.21-1.23,.41-2.46,.82-3.89,.2-.82,0-1.84,.2-2.87,0-1.43,.21-2.87,.41-4.3,.21-1.84,.61-3.89,.21-5.94-.21-1.64-.21-3.28,.2-4.92v-.41c-.61-.82-.41-1.84-.41-2.87Z"/>
    <path class="cls-2" d="M819.11,600.07c.82,0,1.64,0,2.46,.21,1.43,.41,2.87,1.02,4.3,1.64,.82,.21,1.23,1.02,1.43,2.05,0,1.23,0,2.46-.61,3.48-.41,.61-.82,1.02-1.43,1.02s-1.43,.21-2.05,0c-.82,0-1.84-.2-2.66-.61-.61-.2-1.02-.61-1.43-1.02-1.02-1.64-2.66-1.64-4.3-1.23-.41,0-.82,.41-1.23,.82-.61,.62-1.02,1.23-1.64,1.84l-.61,.82c-.2,.82,0,3.48,.21,4.1l1.23,3.07c.2,.82,.61,1.23,1.02,1.64,1.02,.41,2.05,.82,3.28,.82,.82,0,1.43,.2,2.25,.2,2.25,.21,4.5,.61,6.76-.2,.41-.21,1.02-.21,1.43-.41,1.64-.41,3.07-1.02,4.1-2.46,.21-.21,.61-.21,.82-.41,.61-.41,1.23-.82,1.64-1.43,1.84-2.05,3.69-4.3,4.5-7.17,.82-2.05,1.43-4.1,2.05-6.14,.2-.82,.41-1.64,.41-2.46,.41-2.46,.61-4.92,.82-7.37l.61-4.1c.41-2.05,.82-3.89,1.02-5.94,.21-.82,.21-1.84,.41-2.66,0,0,0-.21-.2-.21-.41-1.84,0-3.69-.21-5.53,0-2.25,.41-4.5,.41-6.76,0-1.43,.2-2.87,.2-4.3,0-.61,.21-1.23,.21-2.05s-.21-1.84-.21-2.87c-.2-2.05,0-3.89,0-5.94v-6.35c0-2.05-.2-3.89-.2-5.73-.2-2.05-.41-4.1-.61-6.14v-2.05c-.21-1.84-.21-3.69-.41-5.53,0-.41,0-.82-.2-1.23,0-.21-.21-.41,0-.41,.2-1.23-.21-2.46-.41-3.48,0-1.84-.41-3.48-.21-5.12,.21-1.84-.61-3.48-.2-5.32l-.2-.82c0-.61-.21-1.02-.21-1.43,0-2.05,0-4.1-.41-6.14-.21-1.43,0-2.66,1.23-3.69,.41-.21,.82-.82,1.02-1.23,.61-.61,1.23-1.23,2.25-1.02,1.43-.61,2.25,.2,2.87,1.23,.82,.82,1.43,1.84,1.43,3.28,0,.2,0,.41,.2,.61,.61,1.43,.41,2.87,.61,4.3,.21,1.43,.21,2.66,.21,3.89,0,.82,.41,1.64,.41,2.25,.21,1.02,.21,2.05,.21,3.07s.2,2.05,.2,3.07c-.2,1.02,.2,2.05,0,3.07,0,.61,.2,1.43,.41,2.05,.2,1.84,.41,3.48,.61,5.32v.2c-.41,2.46,0,4.5,.41,6.76v.61c0,1.84,0,3.69,.2,5.32,0,1.02,.21,2.05,.41,3.07v2.46c-.2,2.05,0,4.09,0,5.94v2.05c0,.41-.2,.82,0,1.23,0,1.84-.2,3.69-.2,5.53,0,.61-.21,1.02-.21,1.43,0,1.02-.2,2.05-.2,2.87v.82c-.41,1.64,0,3.07-.21,4.71v6.55c0,1.23,0,2.25-.2,3.48,0,1.43,0,2.87-.41,4.3v1.02c0,.82-.2,1.43-.2,2.25,0,1.64-.61,3.07-.82,4.71-.2,.82,0,1.64-.2,2.25-.61,2.25-1.02,4.5-1.64,6.55-.2,1.43-.82,2.66-1.23,3.89-.21,.61-.21,1.43-.41,2.05-.41,1.64-1.23,3.28-2.05,4.91-.61,1.02-1.23,2.25-1.84,3.28l-.82,1.43c-.82,.82-1.64,1.84-2.05,2.87-.41,1.02-1.23,1.64-2.05,2.05-1.23,.61-2.25,1.02-2.87,2.25-.21,.21-.61,.41-.82,.61l-2.46,.61c-.61,.21-1.02,.41-1.23,.82-1.43,1.02-2.87,1.02-4.3,.82-1.23,0-2.46,0-3.48,.2-.82,.21-1.84,.21-2.66,0-.41,0-.82-.2-1.23-.2-.82,0-1.23-.41-1.43-1.02-.2-.41-.41-.61-1.02-.61-1.23-.21-2.25-.82-3.48-1.23-1.43-.61-2.87-1.64-4.1-2.66-.61-.41-1.23-1.02-1.43-1.64-.61-1.02-1.43-2.05-1.64-3.07-.41-1.84-.82-3.89,.2-5.53,.21-.21,.41-.62,.41-.82,0-1.64,.61-3.07,1.23-4.5,.21-.82,1.02-1.23,1.64-1.84,.61-.41,1.23-.82,1.64-1.64,.61-.82,1.64-1.23,2.66-1.43,1.43-.41,3.07-.41,4.5-.61Z"/>
    <path class="cls-2" d="M878.9,611.74c2.25-.41,4.3-.41,6.35-.82,1.64-.21,3.28-.82,4.91-1.23,2.25-.2,4.51-1.02,6.76-1.02,1.43,0,3.07,0,4.3,.61,.2,.21,.41,.21,.61,.21,.41,.2,.82,.2,1.02,.41,.61,.41,1.02,.82,1.43,1.23,.61,.41,.82,1.23,.61,2.05-.41,1.23-1.43,1.64-2.46,2.25-.41,.2-.82,.2-1.43,.41-.61,.21-1.02,.41-1.43,.82-.61,.82-1.43,1.02-2.46,1.02,0,0-.2-.2-.41-.2-1.84,.61-3.89,.2-5.73,.61-1.64,.41-3.48,.41-5.12,.82-1.64,.21-3.28,.82-5.12,.41h-.41c-1.23,.41-2.46,.61-3.69,1.02-1.02,.61-2.05,.41-3.07,0-.61-.2-1.43-.82-2.05-1.64-.41-.61-1.02-.82-1.84-1.02-.2,0-.41,0-.82-.2-1.23-.21-1.84-1.02-1.64-2.25,.21-.82,0-1.43-.2-2.25-.2-.41-.2-.82-.2-1.02-.21-1.84-.21-3.48-.21-5.32,.21-2.25,0-4.5,.41-6.76l-.2-1.43c0-.41-.21-.61-.41-1.02,0-1.64,0-3.48-.2-5.32,0-1.02-.21-2.05-.21-3.07v-7.17c0-1.43,.21-2.87,.21-4.3,0-.82-.21-1.84-.21-2.66,.21-1.84,.21-3.48,.21-5.32v-.41c.2-3.28,.2-6.35,.41-9.62,0-1.02,0-1.84,.21-2.87,0-.82,.2-1.43,.2-2.25v-4.92l.61-5.73c.21-1.64,.41-3.07,.41-4.71,.2-2.46,.61-5.12,.61-7.58v-4.1c.21-2.05,.21-4.1,.41-6.14v-9.21l-.61-4.5c0-.61,0-1.23-.21-1.84v-.61c.21-.61,0-1.23,0-1.84-.2-1.23-.2-2.46-.2-3.48,0-.2,0-.61,.2-.61,.82-.82,1.02-2.25,2.05-2.87,.61-.61,1.23-.82,2.25-.61,1.23,.2,2.46,0,3.89-.2,1.43-.41,3.07-.41,4.51-.61l9.21-1.23c1.23-.2,2.46-.2,3.69-.41,.21,0,.21-.2,.41-.2,2.87,0,5.94-.2,8.81,0,2.25,.2,4.5,1.02,5.94,3.07,.2,.2,.41,.41,.41,.82,0,1.23,0,2.46-.61,3.48-.61,.61-2.25,1.64-3.28,1.64-1.02-.21-2.05-.21-3.07,.2h-.61c-1.43-.2-3.07,.2-4.71,.2-1.23,.21-2.66,.21-4.1,.21h-.82c-1.64,.61-3.48,1.02-5.12,.61h-.61c-1.02,.2-1.84,.41-2.66,.41-1.02-.21-2.05,0-3.07,.2-1.43,0-2.25,1.43-3.07,2.46-.21,.21-.21,.61-.21,1.02,.41,1.64,.41,3.28,.41,4.91,0,.82,.2,1.84,.2,2.66,0,.61-.2,1.02-.2,1.64v15.56c0,1.84-.41,3.89-.61,5.94,0,1.84-.21,3.69-.41,5.53-.41,3.89-.2,7.78-.41,11.67,0,2.46,0,4.71-.41,6.96v13.92c0,.61,.41,.82,1.02,.82,1.84-.2,3.69-.41,5.32-.61l7.78-1.23c1.02-.2,2.05-.41,2.87-.41,1.84-.21,3.48,0,5.12,.82,.61,.61,1.64,1.02,2.25,1.43,.82,.61,1.02,.82,.61,1.84,0,.2-.2,.61-.2,1.02,0,.61-.41,1.02-.82,1.23-1.02,.61-1.84,1.43-2.87,1.43-1.43,.21-2.46,.61-3.69,1.23-.82,.41-1.64,.41-2.66,.41-1.64,.21-3.28,.41-4.71,.41-.82,.21-1.64,.21-2.25,.21l-1.02,.41c-1.02,.41-2.46,.82-3.48,1.64-.61,.41-1.43,.62-2.25,1.02-.82,.21-1.23,.82-1.23,1.84,0,2.25,.21,4.71,.41,6.96v4.51c-.2,1.64-.2,3.28,.2,4.71v5.12c0,.41,.41,.61,.82,.61h1.64v.2Z"/>
    <path class="cls-2" d="M931.93,553.79c-.2,2.05,0,3.89-.41,5.94-.2,.41,.21,1.02,0,1.43-.41,2.25,0,4.5,0,6.76,.21,3.69,.21,7.17,.41,10.85,0,.61,0,1.02,.2,1.64,.41,1.23,.61,2.46,.82,3.69l.61,3.48c0,.41,.2,.82,.2,1.23s0,.82,.21,1.23c.61,1.02,.61,2.46,1.02,3.69,.2,1.23,.82,2.46,1.23,3.69,.61,1.23,1.02,2.46,1.43,3.69,.41,1.23,1.23,2.25,2.05,3.28,.82,.82,1.43,1.64,2.05,2.46,.2,.21,.41,.61,.61,.61,1.64,1.23,3.07,2.25,4.71,3.28,.61,.41,1.43,.41,2.05,.41,1.64,.21,3.28,.21,4.71-.61,.82-.41,1.43-.82,2.25-1.23l4.91-3.69c1.02-.82,1.84-1.64,2.87-2.66,.61-.61,1.02-1.43,1.64-2.05,.82-1.02,1.84-1.84,2.66-2.87l1.84-1.84c.61-.41,1.02-1.02,1.64-1.43,.61-.61,.82-.41,1.43,0,.41,.41,.82,.82,.61,1.64,0,1.23,0,2.46-.41,3.69-.2,.41-.2,.82-.2,1.02,0,1.02-.21,1.84-.61,2.66-.82,1.43-1.43,3.07-2.66,4.3-.41,.41-.61,.82-.61,1.43-.21,.82-.61,1.23-1.23,1.84-1.02,1.02-2.25,2.05-2.87,3.48,0,.2-.21,.41-.41,.41-1.02,.41-1.43,1.64-2.25,2.05-.61,.61-1.43,1.23-2.05,1.43-2.05,1.02-4.1,2.05-6.55,2.25-3.07,.41-6.35,.41-9.42-.41-.61-.21-1.43-.61-2.05-1.02l-2.46-1.23c-.61-.2-1.02-.61-1.43-1.02-.82-1.02-1.84-1.84-2.66-2.66l-1.23-1.43c-.61-.82-1.43-1.64-2.05-2.46l-.61-.82c-.41-.82-.82-1.64-1.43-2.25,0-.21-.2-.21-.2-.21-.2-1.23-1.02-2.05-1.64-3.07-.41-1.23-.61-2.46-1.02-3.48-.2-.82-.61-1.43-1.02-2.25-.61-1.23-1.23-2.66-1.43-4.3-.41-1.23-.41-2.46-.82-3.69,0-.61-.2-1.23-.41-1.84-.41-1.64-.61-3.28-1.02-4.71-.41-1.02-.41-2.05-.41-3.07,0-.41-.41-1.02-.41-1.64-.2-2.05-.2-3.89-.2-5.73-.21-3.07-.21-5.94-.21-9.01,0-3.69,0-7.58,.21-11.26,.2-2.05,.41-3.89,.82-5.94,0-.82,0-1.64,.2-2.46,.21-1.43,.61-2.87,.82-4.3,.41-1.84,.82-3.69,1.23-5.53l1.23-4.3c.41-1.23,1.02-2.25,1.23-3.28,.2-.41,.2-1.02,.41-1.43,.61-1.84,1.43-3.48,2.46-4.92,.41-.61,.82-1.23,1.02-1.84,.41-1.64,1.64-3.07,2.66-4.71,.41-.61,.82-1.23,1.02-1.84,.41-.41,.61-1.02,1.02-1.43,1.02-.82,1.84-1.84,2.25-3.07l.2-.21c1.02-1.02,1.84-2.05,2.87-2.87,.21-.21,.21-.41,.41-.41,1.84-1.23,3.48-2.46,5.32-3.48,.82-.61,1.64-.82,2.46-1.02,.21,0,.61-.21,.82-.41,1.02-.61,2.25-1.02,3.28-1.43,1.23-.41,2.66-.61,3.89-.61,2.25-.2,4.3-.2,6.55-.2,.82,0,1.84,0,2.66,.41,1.84,.82,3.69,1.43,5.53,1.84,.21,0,.61,.2,.82,.41,.2,0,.2,.41,.2,.61,0,.61-.2,1.43,0,2.05,0,1.23-1.02,1.84-1.84,2.46-.41,.21-.82,.41-1.02,.62-1.43,1.02-2.87,1.02-4.3,0-1.02-.62-2.25-.82-3.28-.82-1.43-.21-2.87-.21-4.3,.2h-1.02c-.82-.2-1.84-.2-2.87,.21l-1.23,.61c-.82,.61-1.64,1.23-2.66,1.43-1.02,0-1.84,.61-2.25,1.43-.2,.41-.61,.61-1.02,1.02l-1.64,1.43c-.41,.41-.61,1.02-.82,1.64-.41,1.23-.82,2.46-1.84,3.28-.41,.41-.61,1.02-.82,1.64-.61,1.64-1.84,2.87-2.66,4.3,0,.2-.2,.41-.41,.61-.41,.41-.61,.82-.61,1.23,0,.61-.2,1.02-.41,1.64-.61,1.23-1.02,2.66-2.05,3.89v.61c-.41,1.43-.82,2.66-1.02,4.1-.41,1.64-1.02,3.07-1.23,4.71-.21,1.23-.82,2.25-1.02,3.48l-.61,3.28c0,1.02,0,2.05-.21,3.07-.2,.82-.2,1.84-.2,2.87v1.84Z"/>
    <path class="cls-2" d="M1016.3,607.44c0-1.43,.21-2.87,.21-4.3,0-1.02-.21-1.84-.21-2.66,.21-2.46,.41-4.92,.61-7.17v-1.23c.21-2.25,.41-4.3,.41-6.35,0-2.46,.41-4.91,.61-7.37,.21-2.87,.41-5.53,.41-8.4,.21-1.64,.21-3.28,.21-4.91,0-2.66,0-5.32,.41-7.78,.21-2.05,0-4.09,0-6.14v-6.35c0-2.46,0-4.91,.21-7.37,.41-4.5,.41-9.21,.21-13.72,0-2.87-.21-5.73-.41-8.6v-3.28c0-2.05,0-4.3-.41-6.35-.21-.82-.21-1.02-1.23-.82-2.05,0-4.1,0-5.94,.2-2.05,.41-3.89,0-5.73,.21h-5.53c-.61,0-1.23,.21-1.84,.21-.41,.2-.82,.41-1.02,.61-.61,.61-1.02,1.43-1.64,2.25-.61,.82-1.64,1.23-2.66,.82-1.23-.2-2.05-.61-2.87-1.64-.41-.61-1.02-1.23-1.23-2.05,0-.21-.2-.41-.41-.61-.82-.41-1.02-1.23-1.02-2.05-.41-1.23-.61-2.25-.82-3.48,0-.2,0-.41-.21-.61-.41-.61-.41-1.23-.21-1.84,0-.21-.2-.61-.2-1.02v-1.43c0-.61,.41-.82,1.02-1.02,1.02-.2,2.05-.41,3.07-.61h.41c1.02-1.02,2.25-.61,3.48-.41,.21,0,.41,.2,.61,.2,1.84,0,3.89,0,5.73-.2,1.84-.21,3.69-.41,5.32-.61l6.35-.61c2.66-.2,5.32-.61,7.99-.41,1.43,0,2.66-.41,4.1-.21,2.46,0,4.91,.21,7.37,.41,1.84,0,3.48,.2,5.12,.41l3.28,.61c.41,0,.82,0,1.23,.2,2.05,0,4.09,.82,6.14,1.43,1.64,.41,2.87,1.43,3.28,3.28,.41,1.64,.61,3.48-.41,5.12-.41,.41-.82,.82-1.64,.82h-4.3c-.61-.21-1.23,0-1.84,0l-8.19,.61c-1.43,0-2.87,.2-4.3,.41-1.23,.2-1.64,.61-1.84,1.84-.21,1.64-.41,3.28,.2,4.71v.82c-.2,.82,0,1.43,0,2.25s.21,1.64,.21,2.66c.21,2.46,.41,4.91,.61,7.58v.21c0,1.23,0,2.46-.21,3.48-.2,2.05-.41,4.1,0,6.14,0,.41,0,.82-.2,1.23v1.02c0,.61,.2,1.43,0,2.25-.21,.61,0,1.23-.21,1.84,0,1.02,0,2.05-.21,3.07-.41,.82-.2,1.84,0,2.66,0,.82,0,1.64-.41,2.46-.21,.82-.21,1.64-.21,2.46,0,1.43,.21,2.66,0,4.1-.21,1.84-.21,3.69-.21,5.73,0,.82,0,1.84-.2,2.87,0,1.23-.21,2.66,0,4.09,0,1.02-.21,2.25-.21,3.28-.41,3.69-.61,7.58-.61,11.26,0,1.23-.21,2.46-.41,3.69,0,1.23,0,2.46-.21,3.89,0,.2,.21,.61,0,.82-.61,1.64-.41,3.28-.41,4.92,0,1.23-.21,2.46-.21,3.89v1.84c-.21,1.84-.21,3.69-.41,5.73,0,.82,.2,1.84,.2,2.66,0,1.43-.2,3.07-.2,4.51,0,.82,0,1.43,.41,2.25,.41,.61,.41,1.43,.61,2.25q.21,.2,0,.2c-.41,1.23-1.23,1.84-2.25,2.46-.82,.41-1.64,0-2.25-.41-1.43-1.43-2.87-2.66-3.48-4.5-1.23-2.66-1.64-5.53-1.43-8.4Z"/>
    <path class="cls-2" d="M1100.05,507.72v-4.1c0-1.02-.41-1.64-1.43-1.84-.21,0-.61-.2-.61-.41-.62-.82-1.64-1.23-2.66-1.43-.62-.21-1.43-.61-2.25-.82-1.02-.2-2.05-.41-3.07-.61h-.41c-1.02,.21-2.05,.61-3.07,.82l-.82,.2c-.82-.2-1.43,.41-1.84,1.02s-.82,1.02-1.43,1.23c-1.02,.41-1.64,1.02-2.05,2.05-.61,1.23-1.43,2.46-2.46,3.48-.82,.82-1.23,2.05-1.43,3.28-.2,1.23-.61,2.46-1.43,3.48l-.61,1.43c-.2,.61-.41,1.43-.61,2.05l-.2,.82c.2,1.43,.2,2.87,.2,4.3v.41c0,1.23,0,2.46-.2,3.48-.21,2.25,.41,4.3,1.02,6.35,.41,1.84,.61,3.48,1.23,5.12,.41,1.43,1.02,2.66,1.43,4.1,.41,.61,.82,1.23,1.02,2.05,1.23,2.66,2.25,5.53,3.28,8.4,.21,.2,.21,.41,.21,.41,1.23,1.84,2.25,3.48,3.28,5.32l2.46,5.12c.21,.21,.21,.61,.41,1.02,1.43,1.64,1.84,3.48,3.07,5.32,0,0,0,.21,.21,.41,1.23,1.64,1.84,3.48,2.66,5.12,1.02,2.05,2.05,3.89,2.87,5.94,.61,1.23,1.23,2.66,2.05,3.89,.21,.21,.41,.61,.41,.82,.41,.82,.82,1.64,1.02,2.66,.21,.2,.21,.61,.41,1.02v.61c.61,.82,.82,1.84,1.23,2.66,.61,1.64,1.23,3.28,1.43,5.12l.61,3.89c.21,1.23,.41,2.66,.41,3.89-.21,2.25,.21,4.71-1.02,6.76,0,1.64-1.02,2.46-2.05,3.48-1.23,1.02-2.25,1.84-3.69,2.05-.82,.2-1.64,.61-2.46,1.02-1.64,.82-3.48,1.43-5.53,1.64-.61,0-1.02,0-1.64-.41-.61-.41-1.23-.82-2.25-.61-.82,.21-1.64-.21-2.46-.82-.41-.82-1.02-1.23-1.84-1.64-.82-.41-1.64-1.23-2.46-1.84l-1.84-1.23c-.2-.21-.61-.41-.61-.61-.61-1.02-1.43-1.84-2.25-2.66-.61-.62-1.02-1.23-1.23-2.05,0-.61-.21-1.23-.61-1.64-.41-1.02-.61-2.25-.82-3.48-.21-1.02-.21-1.84-.41-2.87v-.82c.41-1.23,.62-1.43,2.05-1.23l2.25,.61c.41,.21,.82,.41,1.02,.61l1.23,2.87c.21,.61,.41,1.02,.82,1.64,.61,.41,1.02,1.02,1.43,1.64,.41,.82,1.02,1.43,1.84,2.05,.61,.41,1.23,.82,1.84,1.43,1.23,1.23,2.46,2.25,4.3,2.66,2.05,.21,3.07-.41,3.48-2.05,.2-.61,.41-1.23,.41-1.64l.61-8.19c0-1.64-.21-3.07-.61-4.51l-1.84-6.55c0-.41-.21-.82-.41-1.23l-1.23-2.46c-1.43-2.66-2.46-5.53-4.3-7.99,0-.21-.21-.21-.21-.41-.82-2.05-2.25-3.89-3.28-5.94s-2.25-3.69-3.28-5.73c-1.43-2.87-2.87-5.73-4.3-8.6l-2.87-5.53c0-.21-.21-.41-.21-.61-.61-3.07-2.05-5.73-3.28-8.6-1.43-3.48-2.66-7.17-3.07-11.06,0-1.43,0-2.66-.21-3.89-.41-1.84-.2-3.69-.2-5.32,0-1.84,.2-3.48,.41-5.32,0-1.23,.21-2.25,.21-3.48,.2-1.84,.82-3.48,1.64-5.12,.61-1.02,.82-2.25,1.43-3.48,.82-1.84,1.84-3.69,2.87-5.32,.2-.61,.82-1.23,1.23-1.64,1.64-1.02,2.87-2.25,4.71-3.07l.41-.41c1.64-1.43,3.48-2.05,5.73-2.25,1.43-.2,2.87-.61,4.1-1.02,1.43-.41,2.66-.61,3.89-.41,1.43,0,2.87,.2,4.1,.41,1.84,.41,3.28,1.23,4.91,1.84,.61,.41,1.43,.82,1.84,1.43,.82,.82,1.64,1.43,2.87,1.64,1.02,.21,1.64,1.02,1.84,2.05,.21,.61,0,1.23,.61,1.84,.21,0,.21,.41,.21,.61-.21,1.23-.41,2.66,.21,3.89,0,2.25,.82,4.51,.2,6.55-.2,.82-.2,1.43,0,2.25,0,1.43-.61,2.66-1.23,4.1,0,.41-.2,1.02-.41,1.43-.21,.82-.82,1.02-1.64,.62-.61-.21-1.02-.62-1.23-1.43-.2-1.02-.61-2.25-1.02-3.28-.61-1.64-1.02-3.28-.82-5.12v-1.64h-.21Z"/>
  </g>
</svg>