<?xml version="1.0" encoding="UTF-8"?>
<svg id="Layer_1" data-name="Layer 1" xmlns="http://www.w3.org/2000/svg" viewBox="0 0 1675.96 998.63">
  <defs>
    <style>
      .cls-1 {
        fill: #979797;
      }

      .cls-2 {
        fill: #7a514b;
      }

      .cls-3 {
        fill: #a2b050;
      }

      .cls-4 {
        fill: silver;
      }

      .cls-5 {
        fill: #79514a;
      }

      .cls-6 {
        fill: #79524b;
      }

      .cls-7 {
        fill: #7a514a;
      }

      .cls-8 {
        fill: #e3cab9;
      }

      .cls-9 {
        fill: #996d69;
      }

      .cls-10 {
        fill: #f2b178;
      }

      .cls-11 {
        fill: #969696;
      }

      .cls-12 {
        fill: #986d69;
      }

      .cls-13 {
        fill: #a0c9ed;
      }

      .cls-14 {
        fill: #c37a7f;
      }

      .cls-15 {
        fill: #7a524b;
      }

      .cls-16 {
        fill: #bebebe;
      }

      .cls-17 {
        fill: #795049;
      }

      .cls-18 {
        fill: #ac8176;
      }

      .cls-19 {
        fill: #785049;
      }

      .cls-20 {
        fill: #e9a1a6;
      }

      .cls-21 {
        fill: #d4aa5a;
      }

      .cls-22 {
        fill: #edc15e;
      }

      .cls-23 {
        fill: #f3b8ba;
      }

      .cls-24 {
        fill: #c57b80;
      }

      .cls-25 {
        fill: #78514a;
      }
    </style>
  </defs>
  <g>
    <path class="cls-18" d="M958.11,879.41c2.18,.11,4.36,.23,6.54,.34,2.47,4.49,6.66,4.57,11.06,4.56,41.18-.05,82.39,.95,123.54-.25,78.3-2.28,156.59-.38,234.88-1.1,21.38-.2,42.77,.53,64.13-.13,88.19-2.72,176.39-.51,264.59-1.21,4.19-.03,8.61-.91,12.43,1.84,.13,.89,.24-.28,.25,.62,.51,33.7,.65,67.41-.06,101.11-3.49,2.91-7.71,2.05-11.67,2.05-65.07,.06-130.16-.79-195.21,.34-41.64,.72-83.27,.76-124.91,1-4.46,.03-8.39,1.04-11.97,3.6-.97-3.41-3.28-4.01-6.35-3.02-215.86-1.2-431.71-.18-647.57-.56-6.17-.01-12.26-.36-15.9,6.05-2.24-.1-4.49-.21-6.73-.31-4.88-5.24-11.07-5.81-17.84-5.81-113.7,.12-227.42-1.07-341.1,.45-93.2,1.24-186.39,.2-279.57,.96-5.15,.04-10.27-.36-9.89,7.13-2.25,.52-4.51,1.03-6.76,1.55,0-37.84,0-75.68,0-113.52,3.4-2.61,6.56-1.26,9.69,.59,3.46,2.66,7.54,2.66,11.61,2.66,54.24,.01,108.51,1.16,162.72-.31,57.84-1.57,115.65-.31,173.47-.96,5.65-.06,10.78-.38,13.95-5.88,1.98,0,3.86-.32,5.52-1.51,2.14,6.57,7.08,7.44,13.24,7.4,32.17-.21,64.37,.61,96.52-.23,101.9-2.68,203.82,.39,305.7-1.55,51.07-.97,102.11-.37,153.16-.93,5.05-.06,9.22-1.12,12.54-4.97Z"/>
    <path class="cls-19" d="M0,299.96c38.47,2.92,73.48,15.98,105.95,36.35,27.32,17.14,51,38.28,69.51,64.86,8.76,12.58,16.16,25.92,20.59,40.73,.89,2.99,2.29,5.39,5.02,7.52,5.71,4.45,9.53,10.7,13.48,16.72,2.59,3.95,4.91,8.07,7.58,11.96,3.11,4.52,2.81,8.77-.29,13.08-.92,1.28-1.74,2.63-2.69,4.07,5.11,4.41,8.08,10.54,12.2,15.7,1.47-.25,1.19-1.33,1.19-2.11-.11-17.1,.29-34.23-.55-51.29-.91-18.55-3.2-37.02-6.68-55.3q-1.2-6.32,4.52-8.68c5.57-2.17,5.84,2.61,6.65,5.6,2.01,7.38,3.15,15,4.02,22.58,3.05,26.37,4.83,52.83,4.51,79.4-.05,3.85-1.03,7.58-1.13,11.41-.04,1.48-.3,3.53,1.81,3.76,1.52,.16,2.1-1.45,2.54-2.74,.58-1.71,.91-3.49,1.03-5.29,4.05-57.49-.86-113.86-23.5-167.46-25.1-59.43-66.9-102.22-128.22-124.65-9.55-3.49-11.82-6.6-9.92-13.53,.98-1.62,2.32-.88,3.54-.47,6.57,2.24,13.23,4.26,19.65,6.88,3.64,1.48,6.77,1.45,10.23-.21,9.09-4.39,18.31-8.5,27.36-12.98,13.07-6.47,26.05-13.12,39-19.83,2.71-1.4,5.45-1.92,8.4-1.94,4.85,.65,4.38,3.68,2.68,6.71-1.8,3.21-4.98,5.04-8.12,6.87-16.33,9.49-33.49,17.3-50.55,25.32-1.96,.92-5.02,1.35-5.29,3.64-.32,2.65,2.97,2.88,4.75,3.97,26.01,15.91,45.83,30.08,73.3,67.1,.38-3.04,1.13-5.66,2.76-7.87,2.04-2.75,4.59-3.44,7.62-1.58,1.73,.91,2.78,1.89,2.04,4.24-1.54,4.9-2.4,10.04-4.15,14.85-1.12,3.06-.92,5.36,.7,8.12,19.95,34.01,31.01,71,36.76,109.8,4.1,27.68,4.54,55.48,3.54,83.36-.11,3.13-.93,6.17-.95,9.36-.06,8.31-.52,8.61,5,14.51,2.3,2.45,2.28,4.34,1.9,7.09-2.84,20.73-7.39,41.07-13.85,60.97-1.02,3.15-2.68,5.95,1.51,8.75,2.73,1.83,2.77,5.97,2.78,9.38,0,6.95,.26,13.91-1.11,20.82-.93,4.69-.29,5.24,4.55,5.66,8.35,.72,10.26,3.52,9.21,11.88-1.99,15.92-7.05,31.05-11.5,46.34-1.02,3.5-2.61,6.75-4.62,9.71-4.03,5.95-9.75,7.25-16.59,3.93-2.45,2.37-3.14,5.8-4.71,8.7-2.68,4.94-5.24,9.91-8.74,14.38-2.54,3.24-5.5,4.27-9.36,3.56-19.24-3.52-38.26-7.8-57.05-13.36-10.43-3.09-17.13-8.06-20.66-19.13-2.52-7.89-3.19-15.62-3.54-23.47-1.04-23.49,6.16-45.16,15.59-66.27,5.3-11.85,12.91-22.04,21.62-31.57,2.43-2.66,4.79-3.57,8.12-3.39,7.89,.44,15.57,2.08,23.25,3.71,6.15,1.3,12.23,2.94,18.29,4.6,2.82,.77,3.92,.01,4.67-2.89,4.17-16.21,5.95-32.63,5.29-49.37-.13-3.29-2.27-5.2-3.29-7.81-3.16-8.09-9.43-14.24-13.23-21.9-.72-1.45-1.76-1.79-3.29-1.49-3.89,.76-6.45-1.56-8.63-4.2-7.99-9.71-15.97-19.43-23.74-29.32-4.23-5.39-4.48-11.7-2.22-17.89,.91-2.5,.64-4.11-.7-6.16-9.72-14.91-20.49-28.99-32.43-42.2-5.89-6.52-11.94-12.87-18.38-18.83-2.07-1.92-2.83-4.56-4.32-6.79-1.1-1.64,.18-2.96,.95-4.3,3.81-4.41,6.77-1.47,9.6,1.23,12.2,11.67,23.74,23.95,34.17,37.26,5.24,6.69,10.36,13.44,14.53,20.87-7.75-12.92-15.26-25.94-25.25-37.39-24.82-28.44-54.42-50.26-88.99-65.3-18.87-8.21-38.48-13.88-59.01-16.08-2.49-.27-4.87-.93-6.7-2.82v-9.46Z"/>
    <path class="cls-9" d="M8.11,886.47c-2.5-1.63-5.33-1.37-8.11-1.35v-4.05c.51-.4,1.07-.65,1.75-.65,1.07,0,2.15,0,3.22-.03-1.07-.03-2.15-.04-3.22-.03-.68,0-1.23-.25-1.75-.65v-67.57c2.84-2.45,6.31-2.04,9.64-2.05,16.17-.05,32.34-.18,48.5,.05,6.46,.09,12.5-.48,17.58-4.9,1.29,.88,2.63,1.09,4.04,.28,2.89,4.38,7.29,4.54,11.92,4.54,44.91-.04,89.82-.03,134.73-.03,1.8,0,3.59-.02,5.39,.02,9.09,.22,10.33,1.61,10.81,10.63,.26,4.95-1.63,10.53,3.41,14.39,2.41,2.14-.36,4.42,.18,6.61-3.66,5.06-3.63,10.87-3.65,16.77-.07,26.2,2.46,23.29-23.62,23.37-36.44,.11-72.88,.06-109.31,.02-30.8-.04-61.56,2.3-92.37,1.37-3.5-.11-6.71,.47-9.16,3.27Z"/>
    <path class="cls-9" d="M30.95,536.44c-1.62,2.66-1.3,4.97,1.26,6.86-4.92,3.64-4.37,8.99-4.37,14.14,0,78.27-.02,156.53,0,234.8,0,2.02,.04,4.05-.09,6.07-.15,2.25-1.01,4.23-3.34,4.41-8.18,.65-16.48,2.54-24.41-1.39V322.93c7.45-.32,14.64,1.76,21.97,2.56,3.59,.39,5.13,3.29,5.55,6.72,.39,3.13,.28,6.28,.28,9.43,0,60.22,.01,120.45,0,180.67,0,4.97-.12,9.92,3.16,14.13Z"/>
    <path class="cls-23" d="M87.63,202.64c.14,6.71,1.37,8.48,8.34,10.94,12.76,4.49,25.07,9.92,36.8,16.69,40.02,23.11,69.23,56.14,89.28,97.52,14.23,29.38,22.62,60.47,26.76,92.79,1.37,10.69,2.08,21.42,2.87,32.16,.73,9.9,1.2,19.79,.63,29.62-.63,10.96-.35,21.99-2.17,32.87-.49,2.93-3.14,4.93-5.92,4.43-1.25-.23-2.02-1.01-2.09-2.26-.11-2.02-.36-4.09-.05-6.07,1.91-12.09,1.25-24.29,.77-36.37-1-25.09-2.73-50.16-7.78-74.85-.61-3-.76-6.54-5.22-6.55-.22-1.6-.9-2.82-2.63-3.17,2.44-6.13,1.25-12.09-.5-18.18-11.16-38.77-27.9-74.43-56.93-103.36-26.38-26.29-58.02-42.82-94.23-50.74-17.37-3.8-34.94-6.1-52.8-5.65-4.23,.11-8.1,.58-10.49,4.65-4.14,.38-8.1-1.56-12.26-.95v-16.22c5.64-3.53,11.84-2.02,17.76-1.6,19.04,1.34,38.21,1.92,56.79,6.98,4.28,1.17,6.74-1.29,9.22-3.98,1.23,.61,1.75,3.34,3.87,1.28Z"/>
    <path class="cls-7" d="M0,801.33H25.67c0-82.33,0-164.18,0-246.03,0-1.8-.03-3.6,0-5.4,.12-6.06,.18-6.11,6.53-6.59,1.86,1.17,2.83,2.78,2.71,5.05-.09,1.57,0,3.15,0,4.72,0,79.8,0,159.61-.01,239.41,0,2.69,.31,5.4-.48,8.21,2.25,1.27,4.74,.61,7.09,.64,9.44,.09,18.88,.13,28.32-.02,3.08-.05,5.32,.53,5.9,3.93-1.25,5.22-4.67,6.96-9.86,6.93-21.95-.13-43.91-.04-65.87-.03v-10.81Z"/>
    <path class="cls-5" d="M30.95,536.44c-3.67,.24-5.45-1.43-5.28-5.16,.08-1.79,0-3.59,0-5.39,0-62.68,0-125.35,0-188.03,0-1.57,.04-3.15-.01-4.72-.18-5.41-.74-6.22-6.38-6.07-4.99,.13-9.66-1.96-14.65-1.57-1.9,.15-2.98-1.87-4.63-2.57v-6.76c5.22-3.24,11.01-2.09,16.42-1.45,36.32,4.32,67.87,19.78,96.16,42.37,3.85,3.07,8.41,6.76,4.77,12.99-3.54,3.07-6.26,.57-8.85-1.5-9.13-7.31-18.71-13.96-28.79-19.9-15.12-8.91-31.41-15.76-44.27-18.44-.98,2.49-.52,5.14-.52,7.69-.03,63.17-.03,126.35,0,189.52,0,3.65,.41,7.34-3.98,8.97Z"/>
    <path class="cls-16" d="M117.36,370.09c.8-4.73-1.13-8.2-4.79-11.07-25.21-19.78-52.76-34.75-84.49-40.98C18.85,316.23,9.47,315.15,0,316.18v-6.76c46.45,4.76,87.27,23.16,123.65,51.8,22.61,17.79,41.73,38.77,54.95,64.65,1.38,2.69,3.19,5.28,3.45,9.51-7.51-10.44-14.34-20.13-21.91-29.28-9.75-11.78-20.14-22.9-31.23-33.42-2.61-2.47-4.7-1.72-7.25-1.04-.81-2.24-2.46-2.16-4.29-1.56Z"/>
    <path class="cls-5" d="M83.77,201.36c-.27,6.61-1.51,7.88-7.43,6.43-17.41-4.27-35.03-6.42-52.96-7.02-7.78-.26-15.59-.58-23.38-.8v-5.41c7.06-4.34,14.91-3.36,22.56-3.14,18.63,.54,37.06,2.83,55.22,7.16,2.22,.53,4.35,1.09,5.99,2.79Z"/>
    <path class="cls-18" d="M0,879.71c1.45,.04,2.95-.27,4.43,.56-1.44,1.3-3,.64-4.43,.8v-1.35Z"/>
    <path class="cls-25" d="M6.76,997.09c-.77-1.11-1.8-2.12-2.25-3.34-1.44-3.94-.1-5.78,4.21-5.99,2.02-.1,4.05-.03,6.08-.03,87.34,0,174.69,1.07,262.01-.26,121.29-1.85,242.58-.19,363.86-.99,1.35,0,2.7,0,4.05,0,7.12,.05,7.9,.64,10.44,7.88-1.63,1.67-3.45,2.72-5.94,2.48-1.78-.18-3.6-.03-5.4-.03-152.97,.07-305.94,.13-458.92,.23-56.69,.04-113.38,.2-170.07,.28-2.69,0-5.39-.14-8.08-.22Z"/>
    <path class="cls-19" d="M661.9,994.66c.55-8.02,.72-8.18,9.5-8.18,189.07-.03,378.15-.07,567.22-.1,26.11,0,52.22,0,78.33,0,3.13,0,6.35-.36,8.41,2.81-.08,6.67-.08,6.7-6.5,6.75-6.53,.05-13.06,.03-19.59,.03-176.74,.05-353.49,.07-530.23,.18-33.32,.02-66.64,.45-99.96,.59-2.48,.01-5.57,1.26-7.19-2.07Z"/>
    <path class="cls-15" d="M1675.08,985.21c.66,12.08,.59,9.72-9.26,9.73-89.29,.09-178.57,.07-267.86,.12-2.66,0-5.4-.53-7.99,.64-17.49,.02-34.98,.02-52.47,.06-2.71,0-5.64,.52-5.79-3.56,1.59-5.75,1.59-5.81,7.71-5.81,35.06-.02,70.15,.86,105.18-.19,74.8-2.25,149.61-.3,224.41-1.07,2.02-.02,4.04,.05,6.07,.08Z"/>
    <path class="cls-19" d="M438.75,517.74c-3.19-1.81-3.58-4.7-3.56-8.06,.11-17.34,.05-34.68,.05-52.02,0-80.85,.11-161.71-.2-242.56-.03-7.21,2.46-11.1,8.47-14.1,11.46-5.72,22.76-11.77,34.11-17.7,47.83-24.94,95.65-49.91,143.49-74.83,35.09-18.27,70.23-36.43,105.32-54.7,30.11-15.67,60.16-31.44,90.28-47.08,4.74-2.46,9.37-5.05,14.8-6.29,3.47-.79,5.98-.4,8.85,1.09,21.74,11.29,43.52,22.52,65.27,33.8,33.72,17.49,67.42,35.02,101.13,52.53,39.1,20.31,78.19,40.63,117.29,60.93,32.92,17.08,65.85,34.15,98.79,51.18,3.17,1.64,6.24,3.42,10,3.82,3.14,.34,5.34,2.23,4.89,5.97-.16,1.33-.02,2.7-.02,4.05,0,134.91,0,269.81,.04,404.72,0,4.15,0,8.11-3.27,11.21-4.21,3.28-5.43-.44-6.44-3.12-1.36-3.62-.82-7.57-.82-11.38-.01-127.36-.01-254.73-.01-382.09,0-3.15,.07-6.3-.03-9.45-.22-7.12-.84-7.76-7.71-7.99-2.25-.08-4.5-.02-6.75-.02-67.04,0-134.07,.01-201.11-.02-5.38,0-11.11,.57-13.74-5.91-1.82-5.12,.73-7.1,5.44-7.46,2.7-.2,5.4-.13,8.1-.13,62.81,0,125.62,0,189.49,0-10.44-5.59-20.14-10.64-29.84-15.58-32.3-16.44-64.4-33.26-96.57-49.94-60.94-31.61-121.83-63.33-182.81-94.86-11.4-5.89-22.85-11.67-34.18-17.69-3.62-1.93-5.32-1.3-7.15,2.55-6.61,13.94-18.26,15.24-28.76,3.51-7.39-8.25-7.46-8.39-17.25-3.32-51.78,26.78-103.49,53.69-155.1,80.8-22.12,11.62-44.28,23.16-66.49,34.6-38.22,19.69-76.24,39.76-114.67,59.61,2.36,.66,4.62,.3,6.82,.3,167.28,.02,334.55,.02,501.83,.02,2.92,0,5.87-.21,8.76,.29,5.18,.9,6.15,2.75,4.73,8.6-2.33,3.19-5.65,4.3-9.4,4.51-3.37,.19-6.75,.12-10.13,.12-170.38,0-340.76,0-511.14,0q-12.91,0-12.92,12.87c0,91.41,0,182.81-.01,274.22,0,3.6,.34,7.24-.57,10.76-.98,3.76-2.98,6.14-7.33,4.23Z"/>
    <path class="cls-12" d="M998.62,208.03c1.99,4.35,5.13,5.6,10.06,5.59,70-.21,140-.14,210-.14,1.58,0,3.15-.02,4.73,0,5.86,.11,5.93,.12,5.96,6.11,.05,11.71,.02,23.42,.02,35.12,0,121.81,0,243.62,0,365.42,0,2.03-.29,4.12,.13,6.06,.52,2.42,1.41,5.06,4.96,3.5-1.02,3.06-.69,5.56,2.74,6.83-4.75,2.56-5.9,6.64-5.76,11.81,.29,10.57,.14,21.16,.07,31.75-.08,11.24-1.3,12.52-12.35,12.56-23.64,.07-47.27,.02-70.91,.02-38.94,0-77.88,.05-116.83-.04-6.52-.02-13,.49-19.51,.59-2.33-2.51-5.15-1.05-7.81-.95-4.92,.93-9.88,.41-14.82,.42-176.66,.03-353.33,.02-529.99,.02q-17.04,0-17.04-17.33c0-45.7-.03-91.4,.04-137.1,0-5.5-.46-10.76-3.54-15.48-.01-1.69-.02-3.37-.04-5.06q5.53-1.34,5.7-6.37c.05-1.57,.01-3.15,.01-4.73,0-94.13,0-188.27,0-282.4,0-1.13,0-2.25,0-3.38,.04-7.35,.04-7.38,7.41-7.38,93.2,0,186.41,0,279.61,0,82.17,0,164.35-.03,246.52,.08,4.73,0,8.84-.61,12.16-4.17,2.84-.34,5.72-.4,8.46-1.37Z"/>
    <path class="cls-19" d="M1675.04,872.97c.42,3.56,.45,7.11-.07,10.66-83.26,.06-166.53-.9-249.77,.43-102.35,1.64-204.7-.38-307.03,1.41-48.57,.85-97.13,.22-145.69,.92-.9,.01-1.8,.01-2.7,0q-6.86-.04-5.14-6.65c1.27-1.88,2.54-3.44,5.29-3.28,11.69,.65,23.35-.78,35.04-.78,41.15,.02,82.3,0,123.45,0h7.12c1.28-2.37-.63-3.22-1.47-4.31-7.5-9.8-15.1-19.53-22.67-29.28-1.1-1.42-2.4-2.73-3.27-4.27-3.85-6.84-4.2-6.2,2.3-10.27,72.67-45.64,145.32-91.3,217.98-136.96,.95-.6,1.91-1.18,2.87-1.77,5.86-3.6,6.03-3.53,8.49,3.45,1.07,4.09-1.33,6.11-4.42,8.05-22.46,14.11-44.89,28.27-67.38,42.33-47.64,29.8-95.06,59.96-142.77,89.66-3.71,2.31-4.51,4.52-1.64,8.05,5.96,7.32,11.73,14.8,17.4,22.35,2.46,3.27,4.79,3.36,7.95,1.15,8.66-6.06,17.89-11.25,26.57-17.28,3.32-2.3,6.75-3.76,10.52-.85,4.3,4.14,2.82,7.57-1.4,10.51-8.31,5.79-16.78,11.34-26.02,16.97,2.27,1.08,4.2,.59,5.99,.6,12.16,.05,24.31-.14,36.47,.06,57.84,.95,115.64-2.14,173.47-1.32,4.15,.06,6.35-.46,5.03-5.44-.68-2.55,.75-5.29,1.4-7.91,12.18-48.94,24.46-97.86,36.63-146.81,.54-2.15,1.48-4.25,1.19-7.07-5.84,2.69-10.86,6.38-15.99,9.73-44.67,29.16-89.57,57.96-134.25,87.12-21.49,14.02-43.05,27.93-64.65,41.78-6.88,4.41-8.3,4.27-14.85-1.04-2.41-4.1,.87-5.62,3.44-7.32,21.76-14.37,43.7-28.46,65.62-42.57,27.4-17.64,54.66-35.5,82.04-53.17,22.09-14.26,44.17-28.55,66.28-42.78,6.15-3.96,6.12-3.95,1.25-9.47-6.13-6.93-11.56-14.29-13.27-24.19-14.29,8.52-27.35,17.26-40.74,25.46-2.71,1.66-5.47,4.66-8.85,.97-4.42-5.48-4.3-6.82,1.28-10.34,15.38-9.7,30.73-19.45,46.2-28.99,7.25-4.47,9.84-5.71,17.68,1.53,6.17,5.7,11.09,12.29,15.3,19.5,.74,1.26,.86,3.01,3.21,3.82,2.09-8.28,4.17-16.46,6.23-24.64,2.57-10.21,5.31-20.39,7.57-30.67,.84-3.85,2.51-4.83,5.97-3.7,3.92,1.08,4.32,4.16,4.12,7.47-.15,2.48-.92,4.86-1.52,7.26-18.58,74.71-36.83,149.5-55.62,224.15-.73,2.91-2.25,5.84-.97,9.79,2.65-2.64,2.71-5.61,3.31-8.28,3.46-15.38,7.41-30.63,11.4-45.87,1.82-6.94,3.83-7.79,10.71-5.61,3.49,3.19,2.23,7.02,1.36,10.72-3.76,15.98-8.23,31.8-11.65,47.87-1.65,7.75-1.23,8.35,6.33,8.39,18.44,.08,36.88,.07,55.33,0,6.94-.02,6.85-.13,6.44-7.35-.47-8.31-.19-16.64-.19-24.97-.02-49.04-.05-98.09,.05-147.13,0-4.07-1.19-8.77,3.48-11.56,8.21-.86,9.95,.5,10.04,9,.22,20.02,.07,40.03,.08,60.05,.01,28.79,.07,57.58-.03,86.37-.04,9.91,.46,19.76,1.19,29.63,.32,4.34,2.01,6.09,6.2,5.88,2.02-.1,4.05,0,6.07,0,24.96,.08,49.91-.15,74.87,.1,28.5-1.68,57.02-1.58,85.54-1.42,3.53,.02,7.27-.6,10.27,2.14Z"/>
    <path class="cls-22" d="M1344.8,689.84c2.4,1.44,4.15,.04,6.11-1.2,12.33-7.84,24.69-15.62,37.09-23.34,2.07-1.29,3.92-3.05,7.29-3.77,2.63,12.68,10.11,22.43,20.05,30.75-1.72,2.47-4.28,3.49-6.44,4.89-67.31,43.66-134.66,87.28-202.01,130.89-4.9,3.18-9.81,6.35-14.73,9.5-1.53,.98-3.17,1.81-3.03,4.03,.14,3.39-2.31,3.95-4.83,4.43-2.88-1.59-5.04-.07-7.37,1.47-9.57,6.32-19.21,12.53-28.86,18.74-4.13,2.66-4.19,2.62-7.3-1.35-6.65-8.5-13.3-16.99-19.89-25.53-3.13-4.07-3.13-4.21,1.37-7.04,19.97-12.61,39.97-25.16,59.97-37.72,33.13-20.81,66.28-41.6,99.41-62.42,17.71-11.13,35.34-22.38,53.15-33.36,2.72-1.68,4.2-3.69,5-6.53,2.33,.54,3.7-.9,5.03-2.44Z"/>
    <path class="cls-19" d="M1675.11,275.65c.22,3.98,.47,7.96-.14,11.94-2.44,3.1-6.06,3.73-9.58,4.4-21.66,4.18-43.33,4.64-65,.06-9.21-1.95-9.49-1.77-9.49,7.72-.03,70.88,0,141.77-.06,212.65,0,4.82,1.12,10.04-3.1,14-8.42,3.14-10.49,1.7-10.52-8.07-.13-34.65-.04-69.29-.05-103.94,0-7.76,.01-7.68-7.79-6.41-21.01,3.42-42.13,2.46-63.25,1.55-.45-.02-.89-.13-1.34-.18-13.12-1.59-13.86-.95-13.86,12.21,0,81.22,.01,162.44-.03,243.65,0,5.55,.84,11.66-6.39,13.97-4.84,1.23-6.61-1.37-6.94-5.65-.33-4.27-.16-8.55-.16-12.82,0-26.09-.05-52.17,.03-75.68-2.74,13.38-6.93,29.08-10.78,44.85-13.13,53.77-26.5,107.48-39.55,161.27-1.05,4.34-1.68,9.02-6.65,11.04-7.15,.47-8.8-1.08-7.37-7.77,1.64-7.7,3.38-15.38,5.29-23.02,18.45-73.55,36.08-147.29,54.47-220.85,1.67-6.67,3.35-13.35,3.87-20.28-1.58,2.7-2.08,5.74-2.82,8.68-5.61,22.25-11.02,44.56-16.81,66.77-1.11,4.26-1.66,10.05-8.84,8-3.65-2.27-3.08-5.55-2.22-8.96,5.07-20.2,10.11-40.41,15.16-60.61,1.96-7.83,3.91-15.66,5.86-23.49,2.07-8.31,2.96-8.93,11.48-7.89,.78-2.17,.38-4.42,.38-6.63,.03-33.74,.02-67.49,.03-101.23,0-8.74,.83-9.98,9.31-12.13,12.86-3.25,26.01-5.05,39.23-5.35,15.25-.34,30.54-.74,45.75,1.32,5.78,.79,5.86,.6,5.86-5.39,.02-31.49,0-62.99,.01-94.48,0-13.25,1.46-14.51,14.67-15.98,20.83-2.32,41.7-2.16,62.55-1.13,6.32,.31,13.18-.48,18.8,3.87Z"/>
    <path class="cls-5" d="M438.79,522.79c4.03,.6,5.82,3,5.69,7-.05,1.57,0,3.15,0,4.73,0,49.3,0,98.59,0,147.89,0,8.62-.47,8.11,8.03,8.11,180.93,0,361.85,0,542.78,.06,2.98,0,6.38-1.28,8.86,1.7,0,0-.07,.49-.07,.49,.34,1.9,.86,3.81-.33,5.63-1.84,1.96-4.19,2.48-6.75,2.46-1.57,0-3.15,0-4.72,0-181.33,0-362.67,0-544,0-.9,0-1.8,0-2.7,0-6.19-.07-7.66-1.3-9.69-7.14-.78-2.24-.62-4.43-.62-6.64-.03-52.21-.02-104.42-.02-156.63,0-3.1-.68-6.51,3.55-7.63Z"/>
    <path class="cls-19" d="M958.11,879.41c-.94,6.99-.94,7.05-7.77,7.05-45.67,.03-91.37-.78-137.02,.21-101.43,2.2-202.87-.2-304.29,1.48-40.47,.67-80.92,.35-121.37,.92-.45,0-.9,0-1.35,0-9.63-.17-9.61,1.71-9.37-9.38,3.5-.9,7.07-1.26,10.68-1.27,1.35,0,2.7-.02,4.05-.03,94.79-.18,189.58,.2,284.36-.75,53.13-.54,106.26,.14,159.37-.71,38.5-.62,77-.16,115.49-.36,2.59-.01,6.17-1.54,7.2,2.83Z"/>
    <path class="cls-19" d="M8.11,886.47c-.49-5.22-.49-5.39,4.53-5.41,18.22-.08,36.46,.67,54.64-.17,55.49-2.55,110.99-.39,166.48-1.21,6.64-.1,6.67-.1,6.7-6.74,.04-7.87,.11-15.75-.03-23.62-.07-4.21,1.4-6.95,5.78-7.65,2.72,1.74,2.56,4.53,2.57,7.21,.03,8.09-.02,16.18,.02,24.28,.03,5.94,.07,6.01,5.87,6.03,13.26,.05,26.52,.02,39.77,.02,22.92,0,45.84,0,68.76,0,2.89,0,5.91-.46,8.22,1.98-.47,7.58-.74,7.88-8.3,7.88-54.42,.06-108.86-.94-163.24,.42-60.68,1.51-121.35,.14-182.01,1.03-3.89,.06-7.8,.38-9.76-4.07Z"/>
    <path class="cls-23" d="M222.95,278.25q-6.04,.11-7.83,5.15c-.37,1.06-.66,2.14-1,3.21-.34,1.06-.71,2.11-1.48,4.41-21.83-31.91-49.3-56.45-83.94-74.21,7.07-3.48,13.1-6.41,19.09-9.4,14.08-7.02,28.12-14.1,42.22-21.09,3.12-1.55,5.54-3.82,7.61-6.5,2.08-2.69,1.08-4.54-1.81-5.73,1.06-1.47,2.35-2.55,4.29-2.52,6.77,3.71,12.6,1.49,18.5-2.43,4.29-2.85,9.22-4.67,14.09-6.39,5.11-1.81,6.36-.94,6.84,4.57,.61,7.02-.92,13.88-1.96,20.74-3.86,25.34-9.28,50.36-15.13,75.3-.91,3.85-1.21,7.5,.39,11.17-.94,1.27-.7,2.51,.14,3.71Z"/>
    <path class="cls-2" d="M1011.95,693.22c1.87-2.95,4.79-2.73,7.75-2.73,25.4,.04,50.8,.02,76.2,.02h122.73c1.35,0,2.7,.01,4.05,0,6.64-.07,6.68-.07,6.7-6.71,.03-13.04,.06-26.08,0-39.12-.05-10.13,.51-7.95,7.86-8.15,1.05,6.03,.48,12.12,.44,18.17-.08,12.59,.6,25.2-.45,37.78-.58,6.88-1.99,8.35-8.48,8.35-69.33,.02-138.67-.03-208,.11-4.14,0-6.81-1.46-8.92-4.63-.68-1.02-.71-2.1,.14-3.09Z"/>
    <path class="cls-13" d="M1448.24,613.73c4.87,.3,5.84-3.32,6.73-6.85,4.1-16.3,8.14-32.61,12.21-48.91,2.55-10.22,5.11-20.44,7.71-30.65,.3-1.19,.28-3.02,2.22-2.67,1.52,.27,1.89,1.66,1.96,3.12,.17,3.87-.66,7.6-1.56,11.31-6.24,25.48-12.48,50.95-18.74,76.43-14.56,59.22-29.13,118.44-43.7,177.66-.16,.65-.31,1.31-.44,1.97q-1.12,5.63,5.23,6.14c1.34,1.9,.59,3.15-1.27,4.06-6.39-.37-6.42-.38-7.97,5.92-4.12,16.78-8.2,33.56-12.32,50.34-.58,2.36-1.29,4.69-1.93,7-6.32-1.16-5.89-2.19-4.46-8,7.2-29.18,14.55-58.31,21.8-87.48,12.24-49.22,24.43-98.47,36.74-147.67,.91-3.65,.54-6.55-2.22-9.1,0-.87,0-1.74,0-2.61Z"/>
    <path class="cls-6" d="M246.03,835.07c-4.68,1.14-5.34,.86-5.51-3.32-.2-4.93-.17-9.88-.02-14.81,.1-3.34-1.01-5.1-4.59-4.83-1.78,.14-3.59,.01-5.38,.01-46.9,0-93.79,0-140.69,0-1.12,0-2.24,0-3.37,0q-6.53-.05-6.69-6.59c.81-4.08,3.73-4.22,7.13-4.21,23.16,.09,46.33,.05,69.5,.05s48.58,.08,72.87-.06c5.39-.03,10.64,.57,15.92,1.43,2.36,.39,3.63,1.44,3.61,3.95-.04,6.97-.1,13.95,.03,20.92,.05,2.95-2.48,4.76-2.8,7.47Z"/>
    <path class="cls-19" d="M222.81,274.53c-4.42-2.13-4.4-2.13-3.33-6.94,3.64-16.39,7.54-32.73,10.82-49.2,2.8-14.03,4.98-28.19,7.2-42.33,.65-4.17,.85-8.47,.05-13.25-6.58,1.87-12.3,5.3-18.25,8.16-1.41,.68-2.77,1.48-4.15,2.23q-8.44,4.59-15.06-1.62c.19-2.1,1.76-3.05,3.37-3.85,10.45-5.17,20.63-10.88,31.46-15.27,1.24-.5,2.51-.98,3.82-1.26,4.35-.92,4.15-.39,6.32,3.87,3.19,6.28,2.36,12.8,1.6,19.05-3.91,32.27-10.9,63.97-18.33,95.58-.76,3.21-1.73,5.44-5.52,4.85Z"/>
    <path class="cls-12" d="M1003.74,698.38c.11-1.87,.22-3.75,.33-5.63,1.44,1.97,1.82,3.87-.33,5.63Z"/>
    <path class="cls-17" d="M12.26,217.12c-.39-.98-1.36-1.91-.4-3.04,1.98-2.35,4.38-3.63,7.6-3.66,34.13-.25,67.06,5.57,98.17,19.97,45.62,21.13,76.63,56.24,96.67,101.77,6.81,15.47,12.03,31.45,16.3,47.78,1.11,4.25,1.05,8.04-3.38,10.45-3.99,1-4.81-1.53-5.54-4.64-3.94-16.62-9.17-32.82-16.09-48.45-17.66-39.93-43.88-72.32-82.41-94-16.84-9.48-35.09-14.74-53.78-18.84-16.03-3.51-32.28-5.41-48.69-5.48-3.04-.01-5.69-.98-8.43-1.87Z"/>
    <path class="cls-4" d="M214.45,669.2c-5.95,1.31-9.05,5.13-10.33,10.99-2.65,12.14-8.6,23.08-12.93,34.61-.83,2.23-2.1,3.33-4.54,2.72-11.3-2.84-22.67-5.44-33.29-10.51-2.77-1.32-2.92-2.86-1.98-5.22,1.82-4.59,3.73-9.14,5.41-13.78,9.85-27.08,16.24-54.99,20.5-83.46,.87-5.78,.74-11.6,1.52-17.66,10.29,1.22,19.78,4.63,29.47,7.18,3.25,.86,6.43,1.99,9.61,3.09,5.47,1.89,5.76,2.25,4.82,7.63-1.01,5.74-2.22,11.44-3.4,17.14-2.42,11.63-5.19,23.18-8.29,34.65-1.6,5.91-1.22,6.33,5.3,8,1.12,2.25,.36,3.73-1.88,4.6Z"/>
    <path class="cls-20" d="M214.45,669.2c.84-1.45,1.84-2.83,1.88-4.6,3.03-1.27,3.07-4.32,3.74-6.78,4.37-16.02,7.84-32.26,10.92-48.57,.21-1.1,.17-2.26,.46-3.34,.53-1.93,1.38-3.18,3.82-2.08,2.19,.98,4.31,1.71,7.07,.74,2.67-.94,7.16,3.7,7.41,6.97,.48,6.32-.67,12.58-1.52,18.75-3.43,24.98-9.6,49.32-18.95,72.78-2.33,5.84-4.97,11.57-8.46,16.85-1.91,2.88-3.95,4.45-7.81,3.2-4.4-1.43-9.32-1.05-13.53-3.26,.12-2.75,1.01-5.07,2.19-7.2,5.71-10.34,8.42-21.75,12.11-32.83,1.19-3.57,1.28-7.02,.67-10.61Z"/>
    <path class="cls-24" d="M258.62,528.45c-2.64,21.6-7.34,42.01-14.19,61.94-.87,2.54-2.34,3.2-4.51,1.44-1.39-1.13-2.59-2.54-4.06-3.54-1.77-1.21-2.11-2.5-1.52-4.57,.93-3.21,1.3-6.58,2.17-9.82,1.98-7.42,2.96-14.92,2.71-22.61-.16-4.72-.04-9.44-.03-14.17,.02-7.43,.03-7.65,7.28-7.44,3.85,.11,7.5-1.09,12.15-1.23Z"/>
    <path class="cls-1" d="M168.71,599.9c-4.78,31.69-11.09,62.93-23.54,93.02-9.06-15.62,6.82-79.2,23.54-93.02Z"/>
    <path class="cls-14" d="M241.09,698.34c2.41-7.98,4.63-15.47,6.95-22.93,2.53-8.13,4.02-16.51,5.9-24.8,.25-1.09,.36-2.22,.72-3.27,.65-1.92,1.95-2.98,4.1-2.6,2.45,.43,3.54,2.05,3.14,4.35-.66,3.74-1.51,7.45-2.47,11.12-2.85,10.83-5.57,21.69-9.43,32.22-2.03,5.54-2.35,5.78-8.9,5.91Z"/>
    <path class="cls-11" d="M185.33,459.6q7.17-4.52,12.6,.95c6.4,6.42,10.73,14.31,15.62,21.82,1.54,2.36,.76,4.2-.62,6.13-1.3,1.82-2.77,2.23-4.4,.43-1.5-1.66-3.02-3.32-4.38-5.09-4.93-6.38-9.63-12.95-15.25-18.76-1.43-1.47-2.62-3.07-3.57-5.47Z"/>
    <path class="cls-3" d="M1587.22,525.71c2.03-2.77,1.6-5.99,1.6-9.11,0-73.11,0-146.22,0-219.34,0-1.57-.05-3.15,.01-4.72,.18-4.74,1.06-5.54,5.78-4.22,15.06,4.21,30.45,5.41,45.94,4.62,11.6-.59,23.15-2.23,34.41-5.35,.08,2.47,.24,4.94,.24,7.41,.01,190.19,.01,380.37,0,570.56,0,2.47-.11,4.95-.17,7.42-22.04,0-44.09,.03-66.13-.03-7.64-.02-15.16,1.93-22.83,1.22-2.23-.21-4.47-.31-6.71-.45-.67-3.07-1.08-6.08,2.05-8.2,3.75-.51,5.29-2.75,5.3-6.43,.09-18.11,.06-36.22,.02-54.34,0-2.84-1.27-5.15-2.72-7.44-.62-1.67-.52-3.29,.3-4.87,2.37-3.09,2.25-6.76,2.25-10.33,.05-80.88,.04-161.75,.02-242.63,0-2.7-.21-5.39-.88-8.01-.71-2.23-.06-4.11,1.51-5.74Z"/>
    <path class="cls-8" d="M753.85,677c-2.62,1.28-4.58-.41-6.69-1.47-91.33-.92-182.66-.15-273.99-.41-2.02,0-4.05-.06-6.07-.16-4.66-.24-6.86-2.77-7.1-7.3-.17-3.15-.15-6.3-.15-9.45,0-115.9-.02-231.79,.03-347.69,0-6.76-.07-13.47-1.88-20.04-.12-3.12-1.79-6.05-1.12-9.27,4.58-10.77,2.58-22.14,2.96-33.29,.13-3.82-.02-7.65,.16-11.48,.23-4.94,2.8-7.34,7.68-7.48,2.25-.07,4.5-.11,6.75-.11,243.82-.02,487.64,.04,731.46-.03,8.6,0,9.41,.77,9.43,10.6,.09,50.22,0,100.44,.1,150.66,0,4.34-1.04,8.99,2.01,12.92q1.63,5.05-2.87,7.77c1.02,2.59,.82,5.31,.82,8.01-.02,79.69,0,159.37-.01,239.06,0,16.78-.5,17.27-17.57,17.28-142.67,0-285.34,0-428.01,.03-5.36,0-10.83-.57-15.93,1.84Z"/>
    <path class="cls-19" d="M1217.43,403.02c-2.55,2.21-3.73,.36-4.21-1.75-.44-1.93-.21-4.03-.21-6.05,0-52.22,0-104.44-.03-156.66,0-2.44,.41-4.92-.4-7.48h-17.35c-241.44,0-482.89,0-724.33,.02-10.16,0-8.97-1.31-9.03,8.9-.06,10.13-.27,20.27,.1,30.38,.17,4.78-1.15,8.28-5.09,10.84-2.99-.32-4.3-2.01-4.29-4.98,.03-16.21-.08-32.43,.08-48.64,.05-4.78,1.44-5.83,6.15-6.02,2.25-.09,4.5-.04,6.75-.04,246.29,0,492.59,.01,738.88-.1,4.44,0,8.79,1.59,13.3,.4,1.73-.46,3.03,.98,3.32,2.66,.3,1.76,.22,3.59,.22,5.38,0,53.82-.1,107.65,.19,161.47,.03,4.8-2.86,7.74-4.05,11.66Z"/>
    <path class="cls-19" d="M753.85,677c.29-2.94,1.89-4.42,4.87-4.38,2.03,.02,4.05-.01,6.08-.01,146.34,0,292.68,0,439.02,0,10.41,0,9.17,.26,9.18-9.05,.02-81.53,0-163.05,.07-244.58,0-2.74-1.29-5.89,1.49-8.19,6.52,.59,6.58,.64,6.73,6.49,.03,1.35,0,2.7,0,4.05,0,82.21,0,164.41,0,246.62,0,1.13,.01,2.25,0,3.38-.14,9.32-1.82,11.03-11.08,11.03-148.6,.02-297.2,0-445.81,.16-4.94,0-8.03-1.8-10.56-5.53Z"/>
    <path class="cls-19" d="M458,290.49c2.86,1.16,4.14,3.22,3.88,6.34-.15,1.79-.02,3.6-.02,5.4,0,120.7,0,241.4,.01,362.1,0,8.87-1.18,8.26,8.39,8.26,89.37,0,178.74,0,268.12,.06,3.1,0,7.01-1.55,8.79,2.87-1.2,5.8-2.06,6.64-7.15,6.86-1.35,.06-2.7,.01-4.05,.01-89.14,0-178.28,0-267.42,0-1.58,0-3.15,.05-4.73-.02-6.43-.27-8.59-2.42-9.96-8.69-1.12-5.1-1.28-10.2-1.28-15.37,.02-119.11,.01-238.23,.01-357.34,0-1.8,.07-3.61,0-5.4-.16-3.83,1.85-5.27,5.42-5.1Z"/>
    <path class="cls-10" d="M1580.69,866.14c-.3,2.55,.47,5.29-1.33,7.57-2.24,.12-4.47,.35-6.71,.35-25.41,.03-50.81,.03-76.22,0-2.21,0-4.49,.44-7.21-.74,2.5-8.1-.69-16.13-.67-24.37,.16-51.95,.08-103.91,.08-155.86,0-.9,0-1.8,0-2.7q-.01-7.81-7.88-8.27c-.59-2.49,3.36-1.76,2.94-4.14,4.04-1.3,5.07-4.07,5.04-8.22-.2-23.18-.09-46.36-.09-69.55v-182.31c0-1.35,0-2.7,0-4.05,.03-7.55,.05-7.77,7.34-7.19,18.39,1.46,36.79,2.02,55.21,1.18,9.16-.42,18.27-1.52,27.4-4.25,1.04,2.51,.53,4.97,.53,7.33,.04,35.11,.03,70.22,.03,105.33,0,.45,0,.9,0,1.35q0,8.68,8.07,8.11c.17,1.38-.5,2.51-1.12,3.65-3.96,3.62-4.73,8.19-4.73,13.37,.09,78.77,.1,157.54-.03,236.31,0,5.16,1.4,9.62,3.59,14.05,0,1.4-.01,2.8-.02,4.21-3.01,3.39-3.64,7.43-3.61,11.83,.12,16.58,.01,33.16,.06,49.73,0,2.44,.53,4.94-.68,7.27Z"/>
    <path class="cls-21" d="M1407.06,664.55c5.07,4.02,8.42,9.31,10.73,15.3-5.31-3.83-8.81-8.96-10.73-15.3Z"/>
    <path class="cls-19" d="M219.01,182.48c5.48-.05,7.27,1.8,6.04,5.92-1.93,6.44-4.29,12.76-6.69,19.05-5.2,13.63-11.15,27.01-13.74,41.5-.6,3.38-2.39,6.29-3.8,9.34-1.39,3.03-2.56,3.11-4.94,.54-1.36-1.47-2.42-3.23-3.62-4.86-7.46-10.06-16.17-18.68-27.69-24.05-1.68-.79-3.03-1.71-4.05-3.34-3.23-5.16-3.09-6.28,2.22-9.55,16.27-10.01,32.49-20.11,48.31-30.83,2.79-1.89,5.69-3.64,7.95-3.72Z"/>
    <path class="cls-19" d="M1584.94,793.09c-5-1.38-5.91-4.74-5.9-9.66,.16-81.85,.11-163.71,.12-245.56,0-7.6,.03-7.6,6.95-8.51,1.31,.45,2.56,.98,2.61,2.65,.06,1.8,.11,3.6,.11,5.4,0,82.41,0,164.81,0,247.22,0,1.58,0,3.15-.05,4.73-.09,2.44-1.39,3.68-3.84,3.73Z"/>
    <path class="cls-19" d="M1580.69,866.14c-1.49-2.42-1.53-5.12-1.53-7.83,0-18.01-.03-36.02,.01-54.03,.01-5.67,.1-5.67,5.75-6.97,1.91,.03,3.7,.27,3.83,2.73,.09,1.79,.08,3.59,.08,5.39,0,17.3,0,34.6,0,51.91,0,1.12,.02,2.25-.01,3.37-.19,6.98-1.4,7.78-8.12,5.43Z"/>
    <path class="cls-24" d="M210.95,199.24c-4.35,14.7-11.22,28.33-14.43,44.42-6.5-7.55-13.31-13.2-20.47-18.44-2.29-1.68-1.86-3.37,.43-4.7,11.61-6.77,22.76-14.29,34.48-21.29Z"/>
  </g>
  <g>
    <path class="cls-2" d="M589.6,386.98c.16-1.93,.32-3.86,.16-5.63,0-2.42-.16-4.67-.32-6.92-.32-1.61-.81-3.38-.48-5.15,0-1.29-.16-2.58-.16-4.02,.16-.97,.16-2.09,.32-3.06,0-1.45,.16-3.06,.16-4.51,.16-.97,.16-2.09,0-3.06,0-.97,.16-2.09,.16-3.06l.48-4.35c.32-4.51,0-9.02,.16-13.52v-4.83c-.16-.64-.16-1.45,0-2.09v-.32c-.48-1.45-.32-3.06-.48-4.67-.32-1.45-.32-1.29,1.13-1.93,.8-.32,1.61-.32,2.42-.32,1.13,.16,1.93,.81,2.58,1.61,.32,.64,.48,1.29,.64,2.09q0,.16,.16,.32c.8,1.77,.64,3.7,.64,5.47v.81c0,.81,.16,1.61,.16,2.42l.48,5.15c0,1.61,.16,3.06,.16,4.51v.97c-.16,.16-.16,.32-.16,.48,.32,.97-.16,1.93,0,2.9v.48c-.32,1.13-.32,2.25-.16,3.38,.16,.32,.16,.48,.16,.64l-.48,3.7c0,.81,0,1.61-.16,2.58v2.74l.16,1.13c0,.8,.32,1.45,0,2.25v.32c.64,1.93,.16,4.02,.16,5.96v.64c0,.32,.16,.8,0,1.13-.32,1.29-.32,2.74-.16,4.02v.97c-.32,1.13,0,2.25,.16,3.38,0,.16,.16,.32,0,.48-.16,.97,.16,1.93-.16,2.9v.81c.32,1.45-.16,2.9-.32,4.19,0,1.29-.16,2.58-.16,3.86,0,1.13-.32,2.25-.64,3.54l-.48,1.93c0,.32-.16,.81-.32,1.29-.16,.8-.48,1.61-.81,2.58,0,.16-.16,.48-.32,.64-.48,.64-.64,1.45-.81,2.25l-.48,1.29c-.48,.64-.81,1.45-1.13,2.25-.97,1.61-1.77,3.38-2.74,4.99-.81,1.29-1.93,2.58-3.22,3.38-.8,.32-1.45,.97-2.09,1.45s-1.45,.81-2.25,.81c-.81,.16-1.61,.16-2.42,0-.48,0-.81,0-1.13-.16-.32,0-.64-.16-.97-.16-1.29,0-2.25-.64-3.22-1.29-.32-.16-.64-.32-.97-.32-1.13-.64-2.25-1.13-3.22-1.93l-.81-.48c-1.13-.64-1.77-1.45-2.42-2.42-.16-.32-.32-.64-.64-.97-1.61-1.13-2.41-2.74-3.06-4.35-.81-1.77-1.13-3.54-1.45-5.31-.16-1.13-.48-2.42-.48-3.7-.16-1.45-.64-3.06-.64-4.67,0-.48-.16-.81-.16-1.29,0-1.61-.16-3.06-.16-4.67-.16-2.25,.16-4.67,.16-7.08,0-1.45,.16-2.74,.48-4.19,.16-.97,0-1.93,0-2.9,0-.32-.16-.48-.16-.81,0-1.93-.16-4.02-.16-6.12v-3.54l.16-1.13c0-.32,.16-.48,0-.81-.32-1.29-.16-2.74,0-4.02v-8.37c0-1.13-.16-2.09-.32-3.22,0-.16,.16-.48,.16-.81v-1.45c0-.16-.16-.32-.16-.48,.32-1.13,0-2.09,.16-3.06,.32-1.13,.16-2.09,.32-3.22,0-.32-.16-.8-.16-1.29,0-.16-.16-.32-.16-.48,.32-1.61-.16-3.22-.16-4.83,0-1.93-.32-3.7-.32-5.63-.16-.64-.32-1.13-.32-1.77-.16-.81,.48-1.45,1.29-1.61,1.61-.32,2.9,0,4.02,.97l1.93,1.93c.16,.16,.16,.48,.16,.64-.16,.97,.16,1.93,.16,2.74v.8c0,2.58,.32,5.31,.48,7.89,.16,3.22,.32,6.44,.16,9.66,0,.97-.16,1.77-.16,2.74v3.54c0,1.29,.16,2.74,.16,4.19,0,.32-.16,.81-.16,1.29s-.16,.97,0,1.45c.16,.64,.16,1.13,0,1.77,0,.48,0,.97,.16,1.45,0,.97,0,1.77,.16,2.74v.48c.64,2.09,.32,4.19,.32,6.12,0,1.29-.16,2.58,.16,3.86,.16,.32,.16,.64,.16,.97,0,.81,0,1.61,.16,2.58,.16,.48,.16,1.29,0,1.93v1.45c0,.32,.16,.48,.16,.64-.48,.97-.32,2.09-.16,3.06v2.9c0,.48,0,1.13,.16,1.61,.16,.64,.16,1.29,.16,1.93v1.77l.32,1.29c0,.16,.16,.48,.16,.8,.16,1.29,.32,2.58,.32,3.86,.16,.16,.16,.32,.16,.48-.32,1.45,.16,2.74,.48,4.19,.16,.97,.48,1.93,.64,2.9,.32,1.45,1.13,2.74,2.09,3.86,1.13,1.13,2.41,1.93,4.19,2.25,.16,.16,.48,.16,.64,.16,.64,.16,1.13,0,1.45-.48,1.77-2.25,3.7-4.51,5.31-6.92l.48-.97c.32-1.61,1.29-2.9,1.77-4.35,.48-1.13,.81-2.42,1.13-3.54l1.45-4.67c.16-.32,.16-.64,.16-.97,.16-1.29,0-2.42,0-3.7Z"/>
    <path class="cls-2" d="M610.85,413.06c.32-.64,.32-1.29,.64-1.93,.48-.97,.64-1.77,.97-2.74,.16-1.13,.48-2.09,.81-3.06,.32-1.45,.8-2.9,1.29-4.19,.64-2.41,1.45-4.83,2.25-7.08,0-.48,.16-.81,.16-1.13,.48-1.29,.97-2.42,1.45-3.7l.97-2.58c.32-.97,.64-1.77,.81-2.58,.64-1.77,1.61-3.38,2.41-5.15,.48-.8,.64-1.61,.97-2.42l.48-2.09c.16-.48,.16-.81,0-1.29-.32-.64-.48-1.45-.64-2.09-.48-1.45-1.13-2.9-1.61-4.19,0-.16-.16-.32-.16-.48-.64-1.13-1.29-2.25-1.77-3.38-.64-1.45-1.29-2.74-1.61-4.19-.48-1.13-.64-2.25-.97-3.38-.32-1.13-.64-2.09-1.13-3.06-.16-.48-.16-.97-.32-1.45l-.97-4.02c-.81-2.25-1.45-4.51-2.09-6.76-.16-.32-.16-.64-.32-1.13-.32-1.93-.97-4.02-1.29-5.96-.16-1.45-.64-2.74-.97-4.02-.48-1.61-.97-3.22-1.93-4.67-.64-.81-.8-1.77-.64-2.9,.16-.32,.16-.81,.64-.97,.32-.16,.64-.48,.81-.64,.32,0,.81-.16,.97,0,.48,.16,.97,.32,1.45,.16,.64,0,.97,.16,1.29,.64,.16,.48,.48,.97,.97,1.13,.97,.32,1.29,1.13,1.45,1.93,.16,1.13,.64,2.09,1.29,2.9,.97,1.29,1.61,2.74,2.09,4.19l.97,2.42c.32,.48,.48,1.13,.64,1.77,.32,.97,.48,1.93,.64,3.06,.16,.32,.16,.64,.32,.97,.81,1.45,.81,3.06,1.45,4.51,.48,1.13,.64,2.25,.97,3.54l.97,2.58c.16,.32,.16,.81,.32,1.29l.16,.64c.48,.48,.48,.97,.64,1.61,.16,1.45,.48,3.06,1.13,4.51,.81,1.29,1.29,2.58,1.77,4.19v.32c.16,.48,.64,.48,.97,.16l.48-.64c.48-.97,1.13-2.09,1.45-3.22s.97-2.09,1.29-3.22c.48-1.45,.8-2.74,1.13-4.02l.48-1.29c.64-1.45,1.45-3.06,1.93-4.67,.32-.81,.81-1.61,1.13-2.25,.97-1.61,1.61-3.06,2.41-4.67,.32-.81,.81-1.61,1.13-2.25,.48-.64,.64-1.45,.81-2.09,0-1.61,.64-2.9,1.13-4.35,.32-.48,.48-1.13,.64-1.77v-.8c-.32-.48-.16-.81,0-1.29l1.61-2.58c.64-1.13,1.29-2.09,1.77-3.22,.64-.97,1.29-1.61,2.58-1.93,.81-.16,1.29,.16,1.61,.81,.32,.48,.48,.97,.64,1.45,.16,.64,.16,1.13-.16,1.77-.81,1.29-1.45,2.74-1.29,4.35,0,.64-.32,1.13-.48,1.77-.64,1.77-1.77,3.22-2.42,4.99l-.48,2.58c-.16,.32-.32,.64-.32,.97-.32,.48-.64,.97-.8,1.61-.32,.81-.48,1.61-1.13,2.09-.16,0-.16,.16-.16,.16-.32,.97-.64,1.93-1.13,2.9-.32,.48-.32,1.13-.8,1.61-.16,0-.16,.32-.32,.48-.16,.97-.48,2.09-1.13,2.9-.16,.16-.16,.64-.32,.97l-.64,.97c-.16,.16-.32,.48-.32,.64l-.97,2.9c-.48,1.29-1.13,2.58-1.77,4.02-.16,.48-.48,1.13-.64,1.61l-1.29,2.74c-.16,.32-.16,.81-.32,1.13-.48,1.61-.97,3.06-1.61,4.67-.32,.64-.48,1.29-.64,1.93-.16,.48-.16,.97,0,1.45,.32,.81,.64,1.61,.97,2.42l.48,2.25c0,.16,0,.32,.16,.48,.64,1.13,.81,2.42,1.13,3.7,0,0,0,.16,.16,.32,.48,.81,.48,1.77,.8,2.74,.48,1.29,.97,2.58,1.45,3.86l.97,3.38c.48,1.45,1.13,2.74,1.77,4.02,.48,1.13,.97,2.25,1.29,3.22,.32,.48,.48,1.13,.64,1.45,.64,.97,.97,1.93,1.45,2.9,.32,1.13,.81,2.09,1.29,3.22,.81,1.77,1.45,3.38,2.09,5.15,.32,.64,.32,1.29,0,1.93,0,.16-.16,.32-.16,.48-.16,.97-.64,1.29-1.45,1.45-.32,.16-.64,.16-.97,.16-1.13,.32-2.09-.16-3.06-.97-.64-.64-.97-1.45-1.45-2.25-.16-.32-.48-.64-.81-.97-.64-.64-.97-1.45-1.13-2.25-.16-.64-.32-1.29-.64-1.77-.64-1.77-1.29-3.54-2.09-5.31-.64-1.61-1.45-3.22-1.93-4.83,0-.16-.16-.32-.16-.48-.97-1.29-1.29-2.9-1.93-4.35-.16-.32-.32-.8-.32-1.13-.32-.8-.48-1.45-.81-2.09-.32-.97-.64-1.93-1.13-2.9,0-.16,0-.32-.16-.32-.32-.48-.8-.64-1.29-.16-.97,.64-1.45,1.61-1.77,2.9l-.48,1.45c-.32,1.13-1.13,1.93-1.13,3.06,0,.32-.16,.48-.16,.8-.64,.97-.81,2.25-1.13,3.38-.16,1.13-.32,2.25-.97,3.22-.16,.16-.16,.48-.16,.64l-.48,1.45c-.32,.32-.48,.81-.32,1.29,0,.16-.16,.32-.16,.48-.48,.97-.8,1.93-1.29,2.9v.16c.16,.8-.32,1.61-.48,2.42v.48c-.64,1.13-.97,2.25-1.13,3.54,0,.48-.32,1.13-.32,1.61,0,1.29-.64,2.09-1.45,2.74-.64,.64-1.77,.81-2.58,.64-.81-.16-1.13-.81-1.29-1.45-.32-.64-.48-1.29-.97-1.93-.32-.32-.48-.97-.64-1.61Z"/>
    <path class="cls-2" d="M698.91,313.57l2.09,.48c.48,.16,.8,.48,.64,.97,0,1.77,0,3.54-.48,5.31,0,0,0,.16-.16,.32-.81,1.13-.81,2.58-1.13,3.86-.16,.81-.32,1.77-.48,2.58l-1.45,4.35c-.64,1.77-1.45,3.7-1.93,5.63,0,.48-.16,.81-.32,1.13-.48,1.45-1.13,2.9-1.61,4.35-.32,.64-.48,1.45-.81,2.09-.64,1.61-1.29,3.06-1.77,4.67-.48,1.13-.8,2.42-1.29,3.7-.8,1.93-1.77,4.02-2.58,5.96l-1.45,3.7c-.64,1.45-.97,3.06-1.93,4.35-.64,1.13-1.29,2.25-1.61,3.54-.48,1.29-1.13,2.58-1.61,3.86-.32,.81-.64,1.61-.97,2.25l-1.45,3.7c-.64,1.45-.81,2.74-1.13,4.19-.32,.97-.64,1.93-1.13,2.74-.48,1.13-.97,2.25-1.29,3.22-.32,.64-.32,1.29-.64,1.93-.16,.8-.48,1.61-.81,2.25-.32,.8-.48,1.61-.64,2.41-.48,1.93-1.45,3.7-2.25,5.47-.64,1.45-.97,2.9-1.61,4.35-.48,1.13-.97,2.09-1.61,3.22,0,.16-.16,.16-.16,.32-.16,.64-.16,1.29-.32,1.93-.16,.32-.16,.48-.32,.64-.16,.32-.64,.64-.48,1.29,0,.32-.32,.81-.64,1.13,0,0-.16,0-.16-.16-.32-.16-.48-.16-.48,.16l-.32,.48c-.48,0-.64,.16-.8,.64,0,.32-.16,.32-.48,.16-.16-.32-.48-.32-.8,0-.16,.32-.48,0-.48-.16,0-.32-.16-.48,0-.8,0-.48,.16-1.13-.48-1.61,0-1.61-.32-3.22,.32-4.83,.97-2.58,1.77-5.15,2.74-7.57,.48-1.29,1.13-2.42,1.61-3.7,.48-1.29,1.13-2.58,1.45-3.86,.8-1.93,1.29-4.02,1.93-5.96,.32-1.29,.81-2.42,1.29-3.54,.48-1.29,1.13-2.42,1.29-3.54,.32-1.93,1.13-3.7,2.09-5.47,0-.16,.16-.32,.16-.48,.64-1.61,1.13-3.22,1.77-4.83,.64-1.77,1.29-3.7,2.25-5.31,1.45-2.74,2.58-5.63,3.54-8.53,.8-1.93,1.45-3.7,2.42-5.47,.64-1.45,1.13-3.22,1.77-4.67,.48-1.61,1.29-3.06,1.93-4.67,.16-.32,.16-.8,.32-1.13,.64-1.77,1.29-3.38,2.09-5.15,0-.16,.16-.48,.16-.8,.48-1.45,.97-3.06,1.61-4.51,.8-2.58,1.77-5.15,2.42-7.73,.32-.81,.32-1.77,.64-2.58l.48-1.93c.32-.64,.32-1.13,0-1.77-.32-.97,.32-2.09,1.45-2.42h1.45c0-.16,.16-.16,.16-.16Z"/>
    <path class="cls-2" d="M741.58,386.98c.16-1.93,.32-3.86,.16-5.63,0-2.42-.16-4.67-.32-6.92-.32-1.61-.81-3.38-.48-5.15,0-1.29-.16-2.58-.16-4.02,.16-.97,.16-2.09,.32-3.06,0-1.45,.16-3.06,.16-4.51,.16-.97,.16-2.09,0-3.06,0-.97,.16-2.09,.16-3.06l.48-4.35c.32-4.51,0-9.02,.16-13.52v-4.83c-.16-.64-.16-1.45,0-2.09v-.32c-.48-1.45-.32-3.06-.48-4.67-.32-1.45-.32-1.29,1.13-1.93,.8-.32,1.61-.32,2.41-.32,1.13,.16,1.93,.81,2.58,1.61,.32,.64,.48,1.29,.64,2.09q0,.16,.16,.32c.8,1.77,.64,3.7,.64,5.47v.81c0,.81,.16,1.61,.16,2.42l.48,5.15c0,1.61,.16,3.06,.16,4.51v.97c-.16,.16-.16,.32-.16,.48,.32,.97-.16,1.93,0,2.9v.48c-.32,1.13-.32,2.25-.16,3.38,.16,.32,.16,.48,.16,.64l-.48,3.7c0,.81,0,1.61-.16,2.58v2.74l.16,1.13c0,.8,.32,1.45,0,2.25v.32c.64,1.93,.16,4.02,.16,5.96v.64c0,.32,.16,.8,0,1.13-.32,1.29-.32,2.74-.16,4.02v.97c-.32,1.13,0,2.25,.16,3.38,0,.16,.16,.32,0,.48-.16,.97,.16,1.93-.16,2.9v.81c.32,1.45-.16,2.9-.32,4.19,0,1.29-.16,2.58-.16,3.86,0,1.13-.32,2.25-.64,3.54l-.48,1.93c0,.32-.16,.81-.32,1.29-.16,.8-.48,1.61-.81,2.58,0,.16-.16,.48-.32,.64-.48,.64-.64,1.45-.81,2.25l-.48,1.29c-.48,.64-.81,1.45-1.13,2.25-.97,1.61-1.77,3.38-2.74,4.99-.81,1.29-1.93,2.58-3.22,3.38-.8,.32-1.45,.97-2.09,1.45s-1.45,.81-2.25,.81c-.81,.16-1.61,.16-2.42,0-.48,0-.81,0-1.13-.16-.32,0-.64-.16-.97-.16-1.29,0-2.25-.64-3.22-1.29-.32-.16-.64-.32-.97-.32-1.13-.64-2.25-1.13-3.22-1.93l-.81-.48c-1.13-.64-1.77-1.45-2.42-2.42-.16-.32-.32-.64-.64-.97-1.61-1.13-2.41-2.74-3.06-4.35-.81-1.77-1.13-3.54-1.45-5.31-.16-1.13-.48-2.42-.48-3.7-.16-1.45-.64-3.06-.64-4.67,0-.48-.16-.81-.16-1.29,0-1.61-.16-3.06-.16-4.67-.16-2.25,.16-4.67,.16-7.08,0-1.45,.16-2.74,.48-4.19,.16-.97,0-1.93,0-2.9,0-.32-.16-.48-.16-.81,0-1.93-.16-4.02-.16-6.12v-3.54l.16-1.13c0-.32,.16-.48,0-.81-.32-1.29-.16-2.74,0-4.02v-8.37c0-1.13-.16-2.09-.32-3.22,0-.16,.16-.48,.16-.81v-1.45c0-.16-.16-.32-.16-.48,.32-1.13,0-2.09,.16-3.06,.32-1.13,.16-2.09,.32-3.22,0-.32-.16-.8-.16-1.29,0-.16-.16-.32-.16-.48,.32-1.61-.16-3.22-.16-4.83,0-1.93-.32-3.7-.32-5.63-.16-.64-.32-1.13-.32-1.77-.16-.81,.48-1.45,1.29-1.61,1.61-.32,2.9,0,4.02,.97l1.93,1.93c.16,.16,.16,.48,.16,.64-.16,.97,.16,1.93,.16,2.74v.8c0,2.58,.32,5.31,.48,7.89,.16,3.22,.32,6.44,.16,9.66,0,.97-.16,1.77-.16,2.74v3.54c0,1.29,.16,2.74,.16,4.19,0,.32-.16,.81-.16,1.29,0,.48-.16,.97,0,1.45,.16,.64,.16,1.13,0,1.77,0,.48,0,.97,.16,1.45,0,.97,0,1.77,.16,2.74v.48c.64,2.09,.32,4.19,.32,6.12,0,1.29-.16,2.58,.16,3.86,.16,.32,.16,.64,.16,.97,0,.81,0,1.61,.16,2.58,.16,.48,.16,1.29,0,1.93v1.45c0,.32,.16,.48,.16,.64-.48,.97-.32,2.09-.16,3.06v2.9c0,.48,0,1.13,.16,1.61,.16,.64,.16,1.29,.16,1.93v1.77l.32,1.29c0,.16,.16,.48,.16,.8,.16,1.29,.32,2.58,.32,3.86,.16,.16,.16,.32,.16,.48-.32,1.45,.16,2.74,.48,4.19,.16,.97,.48,1.93,.64,2.9,.32,1.45,1.13,2.74,2.09,3.86,1.13,1.13,2.41,1.93,4.19,2.25,.16,.16,.48,.16,.64,.16,.64,.16,1.13,0,1.45-.48,1.77-2.25,3.7-4.51,5.31-6.92l.48-.97c.32-1.61,1.29-2.9,1.77-4.35,.48-1.13,.81-2.42,1.13-3.54l1.45-4.67c.16-.32,.16-.64,.16-.97,.16-1.29,0-2.42,0-3.7Z"/>
    <path class="cls-2" d="M760.57,353.33c0-.48,.16-1.61,.16-2.58,.16-.8,.16-1.77,.32-2.74,0-.48,0-.97,.16-1.61,0-.97,0-1.93,.16-2.9,.32-1.13,0-2.42,0-3.7,.16-2.42,.16-4.67,.16-7.08,0-1.45-.32-2.74-.32-4.02s-.48-2.58-.32-4.02c.16-.16,0-.48-.16-.64-.16-.48-.16-1.13-.16-1.77,0-.16,0-.32,.16-.48l1.77-2.42c.48-.8,1.29-.97,2.09-.8q1.93,.32,2.9,2.09l1.93,3.38c.16,.48,.16,.97-.16,1.45-.16,.16-.16,.48-.16,.8l.48,4.67c.16,1.77,.16,3.38,.16,5.15v5.96c0,.32,.16,.64,.16,.97v1.77c0,.16-.16,.32-.16,.48,.32,1.61,0,3.22-.16,4.83-.16,1.13-.16,2.41-.32,3.54-.16,.64-.16,1.29-.16,1.93,.16,1.13,.16,2.25,.32,3.54,0,.97,.16,1.93,.16,2.9-.16,1.77-.32,3.54-.32,5.31v.97c-.64,3.86-.16,7.57-.32,11.43,0,.32-.16,.64-.16,.97-.16,.32-.32,.64-.32,.81,.16,.97,0,1.93,.16,2.9,.16,.97,0,1.93,0,2.74,0,.48-.16,1.13-.16,1.61v5.8c0,.48,.16,.97,.16,1.45,0,.16,.16,.32,0,.32-.32,1.45,0,2.9-.16,4.35,0,.81-.16,1.45-.32,2.25v3.22c-.16,.48-.16,.97-.16,1.45v4.02c0,.64,0,1.29-.16,1.93-.32,.64-.32,1.29-.8,1.77-.16,.16-.16,.48-.32,.64-.32,1.13-.64,1.45-1.61,1.45-.48,0-.97,.16-1.45,.48-.48,.32-1.13,0-1.45-.32-.81-.64-1.45-1.29-1.93-2.09-.32-.48-.48-.97-.48-1.45-.16-1.29-.16-2.58-.16-3.86,0-.64,.16-1.29,.16-1.93v-11.43c0-.64-.16-1.45-.16-2.25v-1.13c0-2.74,0-5.31,.16-8.05,0-1.93,0-4.02,.16-5.96,.32-1.77,.16-3.54,.16-5.47,.16-1.61,.16-3.38,.32-5.15,0-1.29,.16-2.58,.32-3.86v-1.93c0-1.93,0-3.7-.16-5.63-.16-1.13,0-2.42,0-4.02Z"/>
    <path class="cls-2" d="M848.8,315.5c1.13,.16,2.09,.16,3.06,.32,.97,.16,1.77,.48,2.58,.81l3.38,.97c1.29,.48,2.74,.48,3.86,1.29,.32,.16,.64,.16,.97,.16,1.61,.48,3.22,.97,4.67,1.77,.64,.32,1.45,.48,2.09,.8,.48,.16,.64,.48,1.13,.81,.64,.48,1.29,.32,1.77-.48,.32-.64,.64-1.29,.97-1.93l1.45-2.25c0-.16,.16-.16,.16-.32,.48-1.77,1.13-3.54,.48-5.47-.32-1.13-.16-2.42,.16-3.54,0-.48,.16-.64,.64-.64h.97c.64-.16,.97,.16,1.29,.48,.64,.64,1.13,1.29,1.77,1.77,.32,.32,.32,.64,.32,1.13,.16,.48,.16,.97,.32,1.45,0,.81,0,1.77,.16,2.58,0,.97,0,2.09-.48,3.06-.16,.48,0,.97-.16,1.29-.32,1.45-.81,2.74-1.61,4.02-.48,.97-.97,1.93-1.45,2.9v.48c.16,.97,.32,1.77,.81,2.74,.64,1.29,1.13,2.74,1.77,4.02,.64,.97,1.13,1.93,1.29,3.06,.32,1.29,.8,2.74,1.29,4.02,.32,.64,.48,1.45,.64,2.25,.16,1.29,.32,2.74,.32,4.02,.16,2.9,.16,5.96,.16,8.85,0,.81-.32,1.61-.32,2.42,0,.16-.16,.32-.16,.48,0,1.61-.32,3.22-.64,4.83-.16,.48-.32,1.13,0,1.61v.32c-.48,1.29-.32,2.74-.64,3.86-.64,1.93-.8,4.02-1.61,5.96-.32,.97-.48,1.93-.64,2.9l-.48,1.45c-.48,1.29-1.13,2.58-1.45,3.7-.64,1.77-1.45,3.38-2.25,5.15-.32,.97-.97,1.93-1.61,2.9l-1.13,2.09c-.32,.32-.48,.8-.8,1.13,0,0-.16,0-.16,.16l-3.38,3.86c-.97,.97-1.61,2.09-2.74,2.9-.64,.48-.97,1.13-1.61,1.61-.32,.48-.64,.8-1.13,1.13-.97,.97-2.09,1.77-3.06,2.58-.97,.81-1.77,1.45-2.58,2.09l-4.35,3.38c-.32,.32-.81,.48-1.29,.64-.32,.16-.64,.16-.97,.32-.32,.32-.64,.64-.81,.97-.16,.48-.32,1.13-.48,1.77v.16c-.32,1.29-.97,1.61-2.09,1.13-.64-.32-1.29-.48-1.61-1.29,0-.16-.32-.32-.48-.32-.97-.64-1.77-1.45-2.25-2.42-.8-1.29-1.13-2.42-1.13-3.86,0-.81-.16-1.61-.32-2.42l-.48-5.96c-.32-2.9-.48-5.63-.64-8.53,0-.97-.16-2.09-.16-3.22,.16-1.13,0-2.42-.16-3.54,0-.97-.16-1.77-.16-2.74,0-1.29-.32-2.74-.16-4.02,0-.48-.16-.97-.16-1.45v-9.02c0-1.45,.16-2.9,.16-4.35s.16-2.74,.16-4.02c.16-1.29,.16-2.58,.32-3.86,0-1.61,.16-3.22,.16-4.83v-3.86c.16-2.58,.48-5.15,.64-7.73,.16-1.45,.16-2.74,.16-4.19v-2.74c0-.64-.16-.97-.64-1.13-1.29-.48-1.93-1.45-2.74-2.58-.48-.81-.97-1.61-1.45-2.58-.16-.32-.32-.64-.32-.97,0-.97-.16-1.93,.16-2.9,0-.32,.16-.64,.48-.81l.32-.48c.8-.64,1.29-1.29,1.45-2.25,0-.32,.16-.64,.64-.8,.48-.16,1.13-.32,1.61-.48l1.93-.97c.81-.48,1.61-.97,2.74-1.13l3.54-.48Zm27.21,31.39c0-2.09,.16-4.02-.16-5.96-.32-2.09-.32-4.19-1.45-5.96-.64-.97-1.13-1.93-1.77-2.74-.32-.48-.64-.48-1.13-.32-.64,.48-1.29,.97-2.09,1.29-.16,.16-.48,.48-.64,.48-1.45,.64-2.9,1.29-4.35,1.77-.16,0-.32,.16-.48,.16-.64-.32-1.29,0-1.93,.16-2.58,.48-5.31,.64-8.05,1.13-.64,.16-1.29,0-1.93,.16-.16,0-.32,.16-.32,.32,0,.64-.16,1.13,0,1.61v4.02c-.16,.97-.16,1.93-.48,2.9v.48c.32,.32,.16,.81,0,1.29,0,.64-.16,1.13-.16,1.77v2.25c0,.8,0,1.45-.16,2.25-.16,1.13,0,2.25-.16,3.54v2.58c0,.48,0,1.13-.16,1.61-.16,.48-.16,.81,0,1.29,0,.81,.16,1.61,0,2.42,0,1.45-.16,2.74-.32,4.02v3.86c0,1.93-.48,3.7-.16,5.63,0,1.29-.32,2.74,0,4.02l-.16,.64c0,.32-.16,.64-.16,.97,0,2.58,0,5.15,.16,7.73,0,3.22,.16,6.44,.32,9.66v.64c0,.32,.32,.48,.48,.32,.48-.48,.97-.8,1.45-1.13,.81-.64,1.61-1.45,2.42-2.09l.81-.81c.32-.32,.64-.8,1.13-1.13,.8-.8,1.61-1.61,2.25-2.58l.97-.64c.64-.64,1.29-1.29,1.61-2.09,.16-.32,.48-.48,.64-.81,1.29-1.77,2.74-3.38,3.86-5.15,1.13-1.61,1.77-3.22,2.74-4.83,.16-.64,.48-1.13,.64-1.61,.48-1.77,1.29-3.22,1.93-4.83,.48-1.29,.8-2.42,1.13-3.54,.32-.81,.32-1.45,.64-2.09,.32-.64,.48-1.13,.48-1.77,.48-1.61,.8-3.06,1.13-4.51,.32-1.61,.64-3.38,.64-4.99l.32-2.74c.16-1.45,0-2.9,.48-4.19v-4.51Zm-22.54-15.46c.64,.16,1.61,0,2.58-.32,.16-.16,.48-.16,.64-.32,1.45,0,2.74-.64,4.02-.8l2.58-.97c.64-.32,1.29-.48,1.77-.8,.8-.48,.64-.81,0-1.13-.8-.48-1.77-.81-2.74-.81h-.8c-1.29-.32-2.58-.8-4.02-.48h-.48c-1.61-.48-3.22-.16-4.83,.32-.64,.32-1.13,.64-1.13,1.29,0,1.13,0,2.25,.16,3.38,0,.64,.16,.64,.8,.64h1.45Z"/>
    <path class="cls-2" d="M903.38,410.65c1.77-.32,3.38-.32,4.99-.64,1.29-.16,2.58-.64,3.86-.97,1.77-.16,3.54-.81,5.31-.81,1.13,0,2.42,0,3.38,.48,.16,.16,.32,.16,.48,.16,.32,.16,.64,.16,.8,.32,.48,.32,.8,.64,1.13,.97,.48,.32,.64,.97,.48,1.61-.32,.97-1.13,1.29-1.93,1.77-.32,.16-.64,.16-1.13,.32-.48,.16-.8,.32-1.13,.64-.48,.64-1.13,.81-1.93,.81,0,0-.16-.16-.32-.16-1.45,.48-3.06,.16-4.51,.48-1.29,.32-2.74,.32-4.02,.64-1.29,.16-2.58,.64-4.03,.32h-.32c-.97,.32-1.93,.48-2.9,.81-.81,.48-1.61,.32-2.42,0-.48-.16-1.13-.64-1.61-1.29-.32-.48-.8-.64-1.45-.8-.16,0-.32,0-.64-.16-.97-.16-1.45-.81-1.29-1.77,.16-.64,0-1.13-.16-1.77-.16-.32-.16-.64-.16-.81-.16-1.45-.16-2.74-.16-4.19,.16-1.77,0-3.54,.32-5.31l-.16-1.13c0-.32-.16-.48-.32-.81,0-1.29,0-2.74-.16-4.19,0-.81-.16-1.61-.16-2.42v-5.63c0-1.13,.16-2.25,.16-3.38,0-.64-.16-1.45-.16-2.09,.16-1.45,.16-2.74,.16-4.19v-.32c.16-2.58,.16-4.99,.32-7.57,0-.8,0-1.45,.16-2.25,0-.64,.16-1.13,.16-1.77v-3.86l.48-4.51c.16-1.29,.32-2.42,.32-3.7,.16-1.93,.48-4.02,.48-5.96v-3.22c.16-1.61,.16-3.22,.32-4.83v-7.24l-.48-3.54c0-.48,0-.97-.16-1.45v-.48c.16-.48,0-.97,0-1.45-.16-.97-.16-1.93-.16-2.74,0-.16,0-.48,.16-.48,.64-.64,.81-1.77,1.61-2.25,.48-.48,.97-.64,1.77-.48,.97,.16,1.93,0,3.06-.16,1.13-.32,2.42-.32,3.54-.48l7.25-.97c.97-.16,1.93-.16,2.9-.32,.16,0,.16-.16,.32-.16,2.25,0,4.67-.16,6.92,0,1.77,.16,3.54,.8,4.67,2.42,.16,.16,.32,.32,.32,.64,0,.97,0,1.93-.48,2.74-.48,.48-1.77,1.29-2.58,1.29-.8-.16-1.61-.16-2.42,.16h-.48c-1.13-.16-2.42,.16-3.7,.16-.97,.16-2.09,.16-3.22,.16h-.64c-1.29,.48-2.74,.8-4.02,.48h-.48c-.8,.16-1.45,.32-2.09,.32-.8-.16-1.61,0-2.42,.16-1.13,0-1.77,1.13-2.42,1.93-.16,.16-.16,.48-.16,.8,.32,1.29,.32,2.58,.32,3.86,0,.64,.16,1.45,.16,2.09,0,.48-.16,.81-.16,1.29v12.24c0,1.45-.32,3.06-.48,4.67,0,1.45-.16,2.9-.32,4.35-.32,3.06-.16,6.12-.32,9.18,0,1.93,0,3.7-.32,5.47v10.95c0,.48,.32,.64,.8,.64,1.45-.16,2.9-.32,4.19-.48l6.12-.97c.8-.16,1.61-.32,2.25-.32,1.45-.16,2.74,0,4.02,.64,.48,.48,1.29,.8,1.77,1.13,.64,.48,.8,.64,.48,1.45,0,.16-.16,.48-.16,.81,0,.48-.32,.8-.64,.97-.8,.48-1.45,1.13-2.25,1.13-1.13,.16-1.93,.48-2.9,.97-.64,.32-1.29,.32-2.09,.32-1.29,.16-2.58,.32-3.7,.32-.64,.16-1.29,.16-1.77,.16l-.8,.32c-.81,.32-1.93,.64-2.74,1.29-.48,.32-1.13,.48-1.77,.81-.64,.16-.97,.64-.97,1.45,0,1.77,.16,3.7,.32,5.47v3.54c-.16,1.29-.16,2.58,.16,3.7v4.02c0,.32,.32,.48,.64,.48h1.29v.16Z"/>
    <path class="cls-2" d="M966,328.86v-3.22c0-.8-.32-1.29-1.13-1.45-.16,0-.48-.16-.48-.32-.48-.64-1.29-.97-2.09-1.13-.48-.16-1.13-.48-1.77-.64-.8-.16-1.61-.32-2.42-.48h-.32c-.81,.16-1.61,.48-2.42,.64l-.64,.16c-.64-.16-1.13,.32-1.45,.81-.32,.48-.64,.8-1.13,.97-.81,.32-1.29,.8-1.61,1.61-.48,.97-1.13,1.93-1.93,2.74-.64,.64-.97,1.61-1.13,2.58-.16,.97-.48,1.93-1.13,2.74l-.48,1.13c-.16,.48-.32,1.13-.48,1.61l-.16,.64c.16,1.13,.16,2.25,.16,3.38v.32c0,.97,0,1.93-.16,2.74-.16,1.77,.32,3.38,.8,4.99,.32,1.45,.48,2.74,.97,4.02,.32,1.13,.8,2.09,1.13,3.22,.32,.48,.64,.97,.8,1.61,.97,2.09,1.77,4.35,2.58,6.6,.16,.16,.16,.32,.16,.32,.97,1.45,1.77,2.74,2.58,4.19l1.93,4.02c.16,.16,.16,.48,.32,.81,1.13,1.29,1.45,2.74,2.42,4.19,0,0,0,.16,.16,.32,.97,1.29,1.45,2.74,2.09,4.02,.8,1.61,1.61,3.06,2.25,4.67,.48,.97,.97,2.09,1.61,3.06,.16,.16,.32,.48,.32,.64,.32,.64,.64,1.29,.8,2.09,.16,.16,.16,.48,.32,.8v.48c.48,.64,.64,1.45,.97,2.09,.48,1.29,.97,2.58,1.13,4.02l.48,3.06c.16,.97,.32,2.09,.32,3.06-.16,1.77,.16,3.7-.81,5.31,0,1.29-.8,1.93-1.61,2.74-.97,.8-1.77,1.45-2.9,1.61-.64,.16-1.29,.48-1.93,.81-1.29,.64-2.74,1.13-4.35,1.29-.48,0-.81,0-1.29-.32-.48-.32-.97-.64-1.77-.48-.64,.16-1.29-.16-1.93-.64-.32-.64-.8-.97-1.45-1.29s-1.29-.97-1.93-1.45l-1.45-.97c-.16-.16-.48-.32-.48-.48-.48-.8-1.13-1.45-1.77-2.09-.48-.48-.8-.97-.97-1.61,0-.48-.16-.97-.48-1.29-.32-.81-.48-1.77-.64-2.74-.16-.81-.16-1.45-.32-2.25v-.64c.32-.97,.48-1.13,1.61-.97l1.77,.48c.32,.16,.64,.32,.81,.48l.97,2.25c.16,.48,.32,.8,.64,1.29,.48,.32,.81,.8,1.13,1.29,.32,.64,.81,1.13,1.45,1.61,.48,.32,.97,.64,1.45,1.13,.97,.97,1.93,1.77,3.38,2.09,1.61,.16,2.42-.32,2.74-1.61,.16-.48,.32-.97,.32-1.29l.48-6.44c0-1.29-.16-2.42-.48-3.54l-1.45-5.15c0-.32-.16-.64-.32-.97l-.97-1.93c-1.13-2.09-1.93-4.35-3.38-6.28,0-.16-.16-.16-.16-.32-.64-1.61-1.77-3.06-2.58-4.67s-1.77-2.9-2.58-4.51l-3.38-6.76-2.25-4.35c0-.16-.16-.32-.16-.48-.48-2.41-1.61-4.51-2.58-6.76-1.13-2.74-2.09-5.63-2.42-8.69,0-1.13,0-2.09-.16-3.06-.32-1.45-.16-2.9-.16-4.19,0-1.45,.16-2.74,.32-4.19,0-.97,.16-1.77,.16-2.74,.16-1.45,.64-2.74,1.29-4.02,.48-.81,.64-1.77,1.13-2.74,.64-1.45,1.45-2.9,2.25-4.19,.16-.48,.64-.97,.97-1.29,1.29-.8,2.25-1.77,3.7-2.41l.32-.32c1.29-1.13,2.74-1.61,4.51-1.77,1.13-.16,2.25-.48,3.22-.8,1.13-.32,2.09-.48,3.06-.32,1.13,0,2.25,.16,3.22,.32,1.45,.32,2.58,.97,3.86,1.45,.48,.32,1.13,.64,1.45,1.13,.64,.64,1.29,1.13,2.25,1.29,.8,.16,1.29,.81,1.45,1.61,.16,.48,0,.97,.48,1.45,.16,0,.16,.32,.16,.48-.16,.97-.32,2.09,.16,3.06,0,1.77,.64,3.54,.16,5.15-.16,.64-.16,1.13,0,1.77,0,1.13-.48,2.09-.97,3.22,0,.32-.16,.8-.32,1.13-.16,.64-.64,.8-1.29,.48-.48-.16-.8-.48-.97-1.13-.16-.81-.48-1.77-.8-2.58-.48-1.29-.81-2.58-.64-4.02v-1.29h-.16Z"/>
    <path class="cls-2" d="M980.98,337.07c0-.32,.16-.8,.32-1.29l.48-1.77c.16-.48,.32-.64,.64-1.13,.8-.81,1.61-1.61,2.74-2.25,.16,0,.32-.16,.48-.16,1.29,0,2.58-.81,4.02-.64,.64,.16,1.13,.32,1.45,.97,.97,1.29,1.45,2.58,1.13,4.19,0,.32-.16,.64-.32,.81l-.48,1.45c-.48,.64-.97,1.13-1.29,1.77l-1.13,1.45c-.48,.81-1.29,1.29-2.25,1.45-.81,.16-1.61,.16-2.42,.16-.16,0-.48-.16-.64-.32-.48-.48-.97-.8-1.29-1.29-.64-1.13-1.45-1.93-1.45-3.38Zm.97,56.67c.16-.8,.16-1.61,.32-2.41v-.48c-.16-1.45,0-2.74,0-4.19,0-1.29,0-2.58,.16-3.86,.16-.64,.48-1.29,.32-1.93-.32-1.29,0-2.42-.16-3.54,0-3.38,0-6.76,.16-10.14,0-.97,.16-2.09,.16-3.06,.16-.16,.16-.32,.16-.48-.32-1.13-.32-2.42,0-3.54,.16-.64,0-1.29,.16-1.93,.32-1.29,.16-2.41,.32-3.54,0-.48,.32-.81,.48-1.13l.48-.97c0-.8,.64-1.29,1.29-1.77,.32-.32,2.58-.32,3.06,0,.32,.32,.64,.81,.8,1.29,.32,.48,.48,1.13,.8,1.77,0,.16,.16,.48,0,.64-.48,.48-.16,.97-.16,1.45,0,1.13,.32,2.25,.16,3.38-.16,1.13,.16,2.25,.16,3.38v5.96l.16,.64c-.32,1.13,.16,2.25,.16,3.38,0,.48-.16,.97-.32,1.29-.16,.97,0,1.93,0,2.74,.16,1.13,.16,2.25,.16,3.22,0,.48-.16,.97-.16,1.29-.16,.81-.16,1.45-.16,2.25-.16,1.29,.16,2.58,.48,3.7,.16,.64,.32,1.13,.16,1.61-.16,.64-.16,1.29,0,1.77,.16,.64,.16,1.13-.32,1.61-.32,.32-.32,.81-.16,1.29,.16,.16,0,.48,0,.81,0,.16-.16,.48,0,.8,.16,1.29-.32,2.42-.97,3.38-.48,.97-1.29,1.93-2.58,1.61-1.13-.16-2.25-.48-3.22-.8-.97-.48-1.61-1.45-1.61-2.58-.16-.97-.16-1.93-.32-2.9Z"/>
    <path class="cls-2" d="M1002.23,378.77c-.16-.64-.16-1.45-.16-2.09v-3.38c0-.64,.16-1.29,.16-2.09,0-.48,.16-.97,.16-1.61,.32-1.45,.48-2.9,.81-4.51l.32-1.77c.16-1.13,.48-2.25,.8-3.38l.48-2.74c.16-.8,.48-1.61,.64-2.42l1.45-3.86c.64-1.45,1.29-2.9,1.77-4.35,.48-.81,.8-1.77,1.29-2.58,.32-.97,.8-1.77,1.29-2.58,.16-.48,.48-.81,.64-1.13,.64-1.77,1.93-3.22,3.22-4.67,.16-.16,.32-.16,.32-.32,.48-.97,1.29-1.61,2.09-2.25,1.13-1.13,2.25-2.09,3.38-3.06,.81-.64,1.45-1.29,2.42-1.61,.32-.16,.64-.32,.97-.64,1.29-.97,2.74-1.61,4.35-2.09,.48-.16,.97-.48,1.61-.8,.97-.48,2.09-.64,3.22-.97,1.45-.16,3.06-.32,4.67-.32,.97,0,2.09,.16,3.06,.48,.8,.32,1.61,.48,2.09,1.29l.64,.48c.97,.48,1.29,1.29,1.29,2.42,0,.32-.16,.64,0,.8,.48,.97-.16,1.77-.64,2.42,0,.16-.48,.32-.64,.32-.48,0-.8-.16-1.29-.48l-1.13-.64c-.8-.48-1.61-.81-2.42-.64-.48,0-.97,0-1.45-.32,0-.16-.32-.16-.48-.16-.64,.16-1.45,.16-1.93,.48-.8,.48-1.77,.8-2.74,1.13-.8,.32-1.77,.8-2.42,1.61-.32,.48-.97,.97-1.61,1.13-.32,0-.64,.16-.81,.48-.64,.81-1.45,1.45-2.25,2.09-.48,.16-.8,.64-1.13,.97-.48,.48-.97,1.13-1.29,1.61l-.97,.81c-.48,.8-.8,1.45-1.61,1.93,0,.16-.16,.16-.16,.32-.32,1.13-1.13,1.93-1.77,2.9-.48,.64-.97,1.45-1.13,2.25-.64,1.77-1.61,3.38-2.25,4.99-.48,.8-.8,1.77-1.13,2.74-.48,1.13-.8,2.25-1.29,3.54-.48,1.13-.64,2.25-.81,3.38-.32,1.61-.64,3.22-.8,4.83l-.97,5.96c.32,.81-.32,1.61-.32,2.42,.16,.81,0,1.61,0,2.42,0,2.74-.16,5.31,.64,7.89,.32,1.13,.32,2.09,.64,3.22l.48,1.77c.32,.64,.48,1.45,.64,2.25,.16,.48,.48,1.13,.97,1.61,.16,.16,.48,.48,.64,.81,.16,.32,.64,.64,.97,.97,1.29,.81,2.58,.48,4.02,.16,.32,0,.8-.16,1.29-.32,.8-.16,1.45-.64,2.09-1.29,.32-.48,.8-.81,1.13-1.13l2.25-2.42c.97-.97,1.61-1.93,2.25-3.06,.48-1.13,1.45-2.09,2.25-3.22,.48-.48,.97-1.13,1.45-1.77,.32-.16,.48-.48,.64-.8l2.09-5.47c.48-1.13,.8-2.42,.97-3.54,.16-.8,.32-1.61,.64-2.58l.97-2.58c.32-1.29,.64-2.58,.81-3.86,.48-1.45,.64-2.9,1.13-4.51,.64-1.77,1.13-3.7,1.13-5.63,0-2.25,0-4.35-.32-6.44l-.32-1.77c0-.8-.16-1.45-.48-2.25-.16-1.29-.48-2.42-.81-3.7-.16-.97,.32-1.77,1.13-2.25,.32-.16,.64-.48,.81-.64,.8-.64,1.61-.64,2.25-.16,.48,.32,.97,.97,1.29,1.45,.48,.97,.64,2.09,.97,3.06,.48,1.13,.8,2.25,1.61,3.22,.32,.32,.48,.64,.32,1.13-.16,.32,0,.81,.16,1.13,.16,.64,.16,1.29,.16,2.09,0,.64,0,1.29,.16,1.93,.32,1.13,.16,2.25,.32,3.38,.16,1.29,.16,2.74,.32,4.02,0,1.45-.16,2.74-.16,4.19v.16c.32,1.29,0,2.58,0,3.7s-.16,2.09-.16,3.06v1.61c0,1.13-.16,2.25-.16,3.38l.16,1.61c-.16,1.61-.16,3.22-.32,4.67-.16,2.25-.32,4.35-.32,6.6-.16,1.29-.48,2.42-.48,3.7,0,.97-.32,1.93-.16,3.06,0,.48-.32,.97-.32,1.61-.32,.81-.48,1.77-.48,2.74-.16,1.29-.64,2.42-.97,3.7-.32,.81-.48,1.61-.8,2.25-.48,1.29-.97,2.58-1.29,3.86-.32,1.13-.97,2.09-1.29,3.22-.48,1.29-1.13,2.41-2.09,3.22-.48,.48-.8,1.13-.97,1.77-.32,.48-.64,.97-.97,1.29l-1.61,1.93c-.97,1.45-2.58,1.93-4.03,2.74-.97,.64-2.09,.97-3.22,1.45-.16,.16-.48,.32-.64,.48l-1.13,.48c-.32,.16-.64,.16-.8,.32-.32,.16-.48,.16-.81,.16-1.29,.16-2.74,.16-4.19,0-.48,0-.97,.16-1.45,.16-.64,0-1.29,0-1.77,.16h-1.45c-.48,.16-.8,.16-.8-.32-.16-.97-.81-1.45-1.45-2.09-.8-.8-1.77-1.77-2.58-2.74s-1.13-2.09-1.45-3.22c-.16-.81-.48-1.61-.64-2.42,0-.32-.16-.48-.16-.81,0-.8,0-1.61,.8-2.09,.32-.16,.32-.32,.48-.48,.48-.64,1.13-.81,1.93-.48,.97,.48,1.93,1.29,2.25,2.58,0,.32,.16,.48,.16,.64,.32,1.29,.97,2.09,2.25,2.74,.81,.64,1.45,1.29,2.58,1.61h.8c1.45-.16,2.9-.32,4.51-.64,.32,0,.64-.16,.97-.32,.48-.32,1.13-.48,1.61-.81,1.13-.97,2.25-1.61,3.06-2.58,.32-.32,.64-.64,.97-.81,.64-.64,1.29-1.29,1.61-2.25,.64-1.29,1.45-2.42,2.09-3.54,.16-.32,.32-.64,.48-.8,.48-1.29,.8-2.58,1.45-3.86,.48-1.45,.8-3.06,1.13-4.67,.16-1.45,.48-2.74,.8-4.19,.32-1.45,.8-2.74,.8-4.19,.16-1.61,.64-3.06,.48-4.67-.16-.32,0-.64,0-.97,0-.16,0-.32-.16-.48-.16,0-.32,.16-.48,.16-.32,.32-.8,.8-.97,1.29-.48,.8-.97,1.61-1.45,2.58-.81,.97-1.29,2.09-1.77,3.22-.16,.32-.48,.81-.8,1.13-.8,.64-1.45,1.29-1.77,2.25-.16,.81-.8,1.45-1.45,1.93-.32,.16-.64,.64-.97,.97l-.48,.48c-.64,.48-1.13,1.13-1.45,1.77-1.13,1.45-2.25,2.58-4.19,2.58-.32,0-.48,0-.64,.16-.64,.16-1.13,.16-1.77,.16-.32,0-.64,.16-.97,.32-.16,0-.32,.16-.32,0-.8-.48-1.77,.16-2.58-.16-.8-.16-1.61-.16-2.42-.32-.64-.16-1.29-.16-1.77-.81-.32-.48-.97-.97-1.45-1.29-.32-.16-.64-.16-1.13-.32-.97-.32-1.93-.97-2.58-1.77-.64-.64-.97-1.29-1.29-1.93-.32-.64-.64-.97-.97-1.45-.32-.48-.64-1.13-.8-1.61-.32-.81-.48-1.61-.64-2.42l-.48-.97c-.32-1.61-.8-3.22-1.29-4.83-.32-1.77-.32-3.7-.64-5.47v-.48h.16Z"/>
    <path class="cls-2" d="M1058.9,411.61c-.16-1.61-.48-3.7-.64-5.8-.16-1.61-.32-3.38-.16-4.99,.16-.48,.16-.97,0-1.29,0-2.09-.32-4.02-.32-5.96-.16-1.61-.32-3.38-.32-5.15,0-.64,0-1.29,.16-1.93,.32-1.13,.16-2.42,.16-3.54-.16-1.61-.32-3.38-.32-4.99,0-.81,.16-1.61,.16-2.42,0-.97-.16-1.77,.16-2.74v-2.9c0-.48,0-.81-.16-1.29-.16-.48-.16-1.13-.16-1.61,0-1.61,0-3.06-.16-4.51,0-.48,0-.97-.16-1.29v-6.12c-.16-1.93,0-3.86,.16-5.8s0-3.7,.16-5.47c0-1.45,.16-2.9,.16-4.35v-4.67c.16-.32,.16-.8,.16-1.13,0-1.61-.16-3.38-.16-4.99v-1.29c0-.48,.16-.97,.16-1.61,0-.97,.16-1.93-.32-2.9-.16-.64,0-1.13,.48-1.45,.32-.32,.48-.48,.48-.97-.16-.64,.32-.97,.64-1.29l2.9-1.93c.16-.16,.32,0,.48,0,.32,1.13,1.13,1.61,1.77,2.42,.32,.64,.8,1.45,1.29,2.09,1.45,1.77,2.9,3.7,4.19,5.8,.48,.64,.97,1.45,1.29,2.25,.48,.97,.97,1.93,1.29,2.9,.32,.48,.64,1.13,.97,1.77,.16,.48,.32,.8,.64,1.29,0,.16,0,.48,.16,.48,.97,1.13,1.29,2.58,1.61,3.86,.48,1.45,.64,2.9,1.13,4.35,.64,1.77,1.13,3.54,2.09,5.31,.8,1.29,1.13,2.74,1.77,4.02,.16,.48,.32,.81,.32,1.29,.8,1.93,1.45,3.86,2.09,5.96,.16,.64,.32,1.29,.64,1.77,.64,1.29,.97,2.58,1.45,3.86,.48,2.25,1.29,4.35,1.93,6.6,.32,.81,.48,1.61,.64,2.58,.16,.8,.48,1.61,.8,2.58,.16,.81,.48,1.77,.64,2.74,.48,1.45,.97,2.9,1.29,4.51,.16,.81,.16,1.61,.64,2.42v.32c.32,.48,.64,.8,.8,.64,.32-.16,.16-.48,.16-.8v-2.25c0-.16,.16-.48,0-.64-.16-.32-.16-.64,.16-.97,0-.16,0-.32,.16-.64v-1.93c-.32-.64,0-1.29,.16-2.09,0-.16,.16-.48,.16-.81-.16-.64,0-1.13,.16-1.77v-.97c-.16-.48,0-1.13,.16-1.61,.32-.32,.64-.64,.48-1.13l.16-.16c.97,0,.32-.64,.32-1.13s.16-.81,0-1.29c-.16-.48-.16-.97-.64-1.29-.16-.16-.32-.48-.16-.64,.32-.48,.16-.81,0-1.13-.16-.32,0-.48,0-.81,0-1.13,.16-2.25,.32-3.22v-.48c0-1.29-.16-2.74-.16-4.02-.16-.32,0-.64,0-.97,.48-1.29,.48-2.74,.64-4.19,0-.97,.16-1.93,.16-2.9v-.16c.16-1.61,.16-3.22,.32-4.83,.16-1.77,0-3.54,0-5.31,0-.48,0-.97,.16-1.45,.16-.32,.16-.64,.16-.97,0-.81,0-1.61,.16-2.42,.16-1.29,0-2.58,0-3.86,0-.48,.16-.97,.16-1.61,.16-1.29,0-2.74-.32-4.02,0-.81,0-1.61,.16-2.42v-1.61c0-1.45,.48-2.74,1.29-3.86,.16-.16,.48-.32,.8-.64l.64-.48c.32-.8,1.13-.97,1.77-1.13,.48-.16,.97,0,1.13,.48,.32,.81,.64,1.45,1.13,2.09,.32,.32,.32,.8,.48,1.13,.16,.64,.32,1.45,.48,2.09v.64c-.16,2.09,0,4.19,0,6.28v4.51c-.64,1.61-.48,3.38-.64,5.15-.16,1.29-.16,2.74-.16,4.19-.16,1.29-.32,2.42-.32,3.7-.16,.81-.32,1.45-.16,2.25,.16,.48,.16,1.13,0,1.77l-.32,3.22c-.32,1.61-.32,3.22-.48,4.83,0,1.29-.16,2.74-.32,4.02v.48c.16,1.45-.16,2.74-.16,4.19,0,1.29-.32,2.42-.48,3.7v.16c.16,1.29,0,2.58,0,3.86l-.48,4.67c0,.81-.16,1.61-.16,2.58v17.87c0,.97-.16,2.09-.16,3.06,0,.64,0,1.29,.16,1.93,0,.97-.16,1.93-.48,2.9-.16,.32-.32,.81-.32,1.29s0,.8-.32,1.29c-.8,.81-1.13,1.93-1.45,2.9-.32,.81-.8,1.29-1.61,1.61-2.25,.64-3.54,.16-4.51-1.93l-1.93-3.38c-.48-1.61-.97-3.06-1.13-4.67,0-.64-.16-1.13-.32-1.61,0-.81-.16-1.61-.16-2.58,0,0,0-.16-.16-.16-.64-1.77-.64-3.38-.97-5.15-.16-1.13-.32-2.25-.8-3.22-.81-1.61-1.13-3.38-1.45-4.99-.32-.97-.64-1.77-.8-2.74-.16-.16-.16-.32-.16-.48-.16-1.93-.97-3.7-1.45-5.47-.48-.97-.8-2.09-.97-3.22,0-.32,0-.48-.16-.64-.48-1.29-.64-2.42-1.13-3.7-.64-1.45-1.13-2.74-1.61-4.19-.16-.81-.48-1.61-.8-2.25-.97-1.93-1.45-4.02-1.93-5.96-.32-1.13-.81-2.09-1.13-3.22-.97-1.45-1.29-3.06-2.25-4.35-.81-1.29-1.13-2.74-1.45-4.02-.32-1.61-.8-3.06-1.13-4.51,0-.16,0-.32-.16-.48-.64-1.45-1.45-2.9-2.09-4.19-.16-.32-.48-.64-.64-.8-.16-.32-.48-.48-.64-.32-.16,.16-.32,.48-.32,.64,0,1.93,0,4.02-.16,5.96l-.16,1.61c-.16,1.45-.16,2.74-.16,4.02-.16,.81-.16,1.45-.16,2.25,0,.97,.16,1.93-.16,2.9v.81c.48,2.41,.32,4.83,.48,7.24,.16,.8,.16,1.61,.16,2.42v24.15c0,2.42,.16,4.83,.32,7.08,0,1.45,.16,2.74,.16,4.19,0,1.13-.16,2.25,.16,3.38v.16c-.16,1.13,.16,2.25,.32,3.38,.16,2.25,.32,4.67,.97,6.76q.32,.97-.48,1.45c-.8,.32-1.45,.81-2.25,1.29-.32,.32-.8,.48-1.29,.81-1.13,.48-1.93,.16-2.58-.81-.81-1.45-.97-3.06-.81-5.15Z"/>
    <path class="cls-2" d="M653.43,489.25c2.9,.16,5.47,.16,7.89,.8,1.13,.16,2.25,.48,3.38,.81,1.29,.32,2.74,.64,4.02,1.13l.97,.48c1.29,.64,2.42,1.29,3.7,2.09,.64,.32,1.29,.97,1.93,1.61,.97,.8,1.77,1.93,2.58,3.06,.8,1.29,1.61,2.42,2.25,3.7,.32,.64,.48,1.45,.64,2.25,.16,.32,.16,.8,.32,1.13v.8c0,1.61,0,3.38,.16,4.99,0,.64,0,1.13-.32,1.61-.16,.16-.16,.48-.16,.81-.16,.8-.32,1.77-.97,2.42-.32,.48-.48,.97-.64,1.61l-.48,.64c0,.16-.32,.32-.32,.64-.16,.97-1.13,1.77-1.45,2.58-1.13,.64-1.45,1.77-2.25,2.58-.64,.64-1.29,1.45-1.77,2.09-.64,.8-1.45,1.29-2.25,1.93-.64,.48-1.29,1.13-2.09,1.61-.64,.32-1.29,.97-2.09,.97-.32,0-.48,.32-.8,.48l-1.93,1.13c-.32,.16-.48,.16-.8,.16-.64,.16-1.13,.32-1.61,.8-.97,.64-1.93,1.13-3.06,1.13s-2.25,.32-3.22,.64c-.8,.32-1.61,.48-2.41,.64l-1.13,.48c-.64,.32-.97,.8-.97,1.45,0,1.77-.32,3.54-.32,5.31,0,.8,0,1.77,.16,2.58v1.93c.16,.8,.16,1.61,.32,2.42,.16,1.29,.16,2.58,0,3.86-.16,1.45,.16,2.74,.16,4.19,0,.64,.16,1.29,.16,1.93,.16,1.93,.16,4.03,.16,5.96,.16,.8,.16,1.77,.32,2.58,.32,1.13,.32,2.42,.32,3.7s-.32,2.58,0,3.7v.64c-.16,.32-.16,.8-.16,1.13,.16,1.93,.48,3.86,.64,5.96,0,.8,.16,1.77,.16,2.74,0,1.61-.97,2.74-2.25,3.54-.97,.48-1.77,.64-2.74,.16-.32-.16-.64,0-.81,0h-.64c-.97-.16-1.29-.8-.97-1.61l.48-.97c.16-.48,.32-1.13,0-1.77-.16-.16-.16-.32-.16-.48,.16-1.13-.32-2.42-.32-3.7-.16-1.29-.32-2.74-.16-4.02,.16-.8,0-1.77,0-2.58,0-.64,.16-1.45,.16-2.25,0-.32-.16-.64-.16-.97-.16-.48-.16-.97-.32-1.61-.16-1.77,0-3.54,0-5.47v-.97c0-.16-.16-.32-.16-.48,0-2.25-.32-4.51-.32-6.76,.16-1.45,.16-2.9,.32-4.19v-.64c-.48-1.61-.16-3.38-.32-5.15-.16-1.93,.16-3.7,.16-5.47v-.32c.48-2.09,.32-4.02,.32-6.12v-4.35c0-.32,.16-.8,.16-1.29,.16-.8,.16-1.61,.32-2.41,0-1.45,0-2.9,.16-4.35v-.64c-.32-1.45,0-2.9,0-4.19,.16-1.93,.64-3.7,.64-5.64v-3.06c-.16-1.29,0-2.58,.32-3.86,.32-1.61,.32-3.22,.16-4.83-.48-.8-.16-1.77-.16-2.74,0-.8,.16-1.45-.16-2.25,.32-.8,0-1.45-.64-2.09-.16-.16-.16-.64-.16-.97,0-.48,.32-.48,.64-.81,.16,0,.48-.16,.48-.48,.48-.64,1.29-.97,1.77-1.61,.16-.16,.48-.16,.8-.16,1.61-.16,3.22-.16,4.51-.32Zm1.29,7.41h-1.77c-.81,0-1.13,.32-1.13,1.13v.48c.32,1.29,.32,2.58,0,3.7-.16,1.29-.16,2.58-.32,3.7v.48c0,2.74,.16,5.31,.16,8.05,0,.8-.32,1.61-.32,2.42-.16,1.93,0,4.02,0,5.96,0,.32,.16,.8,0,1.29-.32,1.93,.16,4.03-.48,5.8v.16c0,.48,.48,.81,.8,.64l3.38-1.45c.81-.16,1.45-.48,2.25-.8,1.29-.48,2.58-.81,3.86-1.29l3.86-2.25c.48-.48,1.13-.81,1.61-1.29,.32-.32,.64-.8,1.13-1.13,1.45-.97,2.42-2.42,3.38-3.86,.64-1.13,1.45-2.25,1.77-3.54,.48-.48,.64-1.29,.81-1.93,.32-1.13,.16-2.42,.16-3.7l-.48-1.93c-.48-.97-.97-1.93-1.61-2.9-.32-.64-.97-1.29-1.45-1.93-.48-.64-.81-1.29-1.45-1.77-.8-.64-1.93-1.13-2.9-1.77-.64-.32-1.45-.64-2.25-.8-.48-.32-1.13-.48-1.61-.64-.32,0-.48,0-.64-.16-1.13-.48-2.09-.64-3.22-.64h-3.54Z"/>
    <path class="cls-2" d="M691.91,582.47c0-1.61,0-3.22-.16-4.67,0-.48,.16-1.13,.16-1.61v-.48c-.48-4.02-.48-8.21-.64-12.24,0-.48-.16-.8-.16-1.29v-3.38c0-2.42,0-4.83-.16-7.25v-3.22c0-.97,.16-1.93,.16-2.9,0-.16,.16-.32,0-.32-.32-2.25-.16-4.51-.16-6.6v-17.87c0-1.29,.32-2.42,.32-3.7v-10.95c.16-.97,.16-1.77,0-2.74,0-.97-.16-1.77-.16-2.74,0-.48,.16-.8,.16-1.29,.16-1.13,.32-2.42,.32-3.7,0-.32,0-.8,.16-1.13,.16-.32,.32-.48,.48-.48,.48-.32,.97-.64,1.13-1.13,0-.16,.16-.32,.32-.32,.97-.48,1.93-.97,2.9-.97,.32,0,.64,0,.8,.16,.32,.48,.97,.48,1.45,.48,1.61-.16,3.22-.16,4.83,0,1.29,0,2.58,.16,3.86,.32,1.13,.32,2.41,.8,3.54,1.13l2.74,.48c1.29,.16,2.41,.8,3.54,1.13,.81,.16,1.29,.48,1.93,.97,.64,.32,1.29,.64,1.93,1.13,.16,0,.32,.16,.48,.32,.8,.97,1.77,1.61,2.74,2.25,.32,.16,.48,.32,.64,.64,.64,1.13,1.13,2.25,1.61,3.38,1.29,2.25,.97,4.67,.64,7.08-.16,2.09-.81,3.86-1.77,5.63-.32,.64-.8,.97-1.13,1.61-.97,1.13-2.25,2.09-3.06,3.22-.16,.32-.48,.48-.64,.8-.16,.16-.32,.48-.64,.48-.81,.32-1.13,1.13-1.93,1.45-.64,.16-1.29,.8-1.77,1.29-1.45,.8-2.9,1.93-4.51,2.42-.48,.16-.97,.16-1.29,.32-.48,.16-.64,.48-.32,.97,.48,.48,1.13,.97,1.61,1.61,.32,.32,.81,.64,1.13,1.13l2.25,2.9c.48,.8,1.13,1.61,1.13,2.58,0,.16,0,.32,.16,.48,.8,2.09,1.45,4.35,1.93,6.6,.16,.81,.16,1.77,.32,2.58,.48,2.58,.32,5.15,.64,7.73,.16,1.61,.32,3.22,.64,4.83,.16,1.61,.48,3.22,.8,4.83,.32,1.45,.64,2.74,1.45,4.03,.48,.97,1.45,1.77,2.74,1.77h.48c1.13,.32,1.45,.64,1.13,1.77-.32,1.29-1.13,1.93-2.42,1.93h-1.45c-1.13-.32-2.25-.81-3.38-1.29-.48,0-.81-.32-1.13-.64-.32-.16-.48-.64-.97-.8-.64-.32-.97-.64-1.29-1.29-1.29-1.93-2.25-3.86-2.42-6.28-.16-1.61-.64-3.22-.81-4.83l-.48-4.35c0-1.29,0-2.74-.32-4.03-.16-1.29-.16-2.58-.32-3.86-.32-.97-.32-2.09-.64-3.22-.32-.8-.32-1.77-.48-2.58-.32-1.29-.8-2.58-1.45-3.86-.16-.32-.48-.64-.81-.97-.32-.48-.8-.97-1.29-1.29-1.13-1.45-2.41-2.74-4.19-3.38-.81-.32-1.61-.32-2.58-.48-.64-.16-.97,.32-.8,.97,.16,.48,.16,.97,.16,1.45,0,.97-.16,1.93-.16,2.9,0,1.77,.16,3.54,.16,5.31,.16,.48,.16,.97,.32,1.61v.48c.16,2.09,.16,4.19,0,6.28,0,1.29,0,2.42-.64,3.7v.32c.48,.97,.32,1.93,.32,2.9-.16,1.29,0,2.74,.16,4.02v1.93c.16,2.09,.16,4.35,.32,6.6,0,1.13,.32,2.09,.48,3.22,.16,1.61,.32,3.22,.32,4.83,0,.64-.16,1.29-.32,1.93v.16c.16,.97-.32,1.93-.16,3.06v.16c-.16,1.45,.16,2.74-.16,4.19l-.48,2.9c-.16,.97-.48,1.29-1.61,1.29-.16,0-.48,0-.81,.16-1.61,.16-2.74-.64-3.7-1.93-.81-.97-1.45-2.25-1.45-3.54-.16-1.13-.32-2.25-.32-3.22Zm28.33-75.67c.16-.97-.32-2.09-.64-3.22-.32-1.29-1.29-2.09-2.58-2.42-.97-.32-1.93-.48-2.74-.8-1.61-.97-3.54-1.29-5.31-1.61-1.61-.32-3.38-.48-5.15-.48-.16,0-.48,0-.64-.16-.97-.16-1.77,0-2.74,.16-.81,.16-.97,.32-.97,1.29,0,2.09,.32,4.02,.16,5.96,0,.32,.16,.48,.16,.8,.16,.97,.32,1.93,0,2.9-.16,.97,0,1.77,0,2.74-.16,.32,0,.48,0,.8,0,1.93,.32,4.03,0,5.96-.16,.16-.16,.32,0,.48,.16,.64,0,1.45-.16,2.25-.16,.97-.16,1.93-.16,2.9,0,.48,.32,.64,.8,.32,1.13-.64,2.09-1.45,3.38-1.77,1.45-.32,2.9-.97,4.19-1.45l4.19-1.45c.64-.32,1.13-.64,1.61-1.13,.32-.48,.81-.8,1.29-1.13,.32-.32,.8-.48,1.13-.8,.8-.81,1.45-1.61,1.93-2.42,.48-.64,.97-1.29,1.29-1.93,.64-1.77,1.13-3.54,.97-5.8Z"/>
    <path class="cls-2" d="M771.76,532.72c0,1.13,.16,2.09,.16,3.06v4.35s-.16,.16,0,.32c.32,1.77-.16,3.7-.16,5.47,0,1.13-.48,2.25-.48,3.38-.48,.81-.32,1.61-.32,2.42,0,.64-.16,1.29-.32,1.93-.48,.81-.64,1.77-.8,2.74-.32,1.61-.81,3.38-1.61,4.99-.32,.48-.48,.97-.64,1.45-.64,.97-1.13,1.77-1.77,2.58-.16,.32-.48,.48-.64,.64-.48,.16-.81,.48-1.13,.97-.16,.48-.64,.8-1.13,.97-.97,.48-2.09,1.13-3.22,1.29-.8,.16-1.61,.32-2.25,.64-.64,.16-1.29,.48-1.93,.97-.16,0-.32,.16-.48,.32-.64,.32-.97,.16-1.45-.32-.16-.16-.32-.48-.64-.64-.16-.32-.64-.48-.97-.48-.81-.16-1.45-.48-2.09-.8-.32-.16-.81,0-.97-.48,0,0-.32-.16-.48,0-.48,.16-.8,0-1.13-.16-.64-.48-1.45-.81-1.93-1.45-.32-.16-.64-.32-.97-.64,0,0-.16,0-.32-.16-2.09-1.61-3.86-3.38-4.35-6.12l-.48-1.77c-.32-1.45-.8-2.9-1.13-4.19v-.8c-.16-.48-.16-.97-.32-1.45,0-.32,0-.64-.16-1.13,0-1.29-.16-2.58-.32-4.02v-2.25c.16-2.09,.32-4.35,.64-6.44,.32-2.25,.81-4.35,1.29-6.44,.16-1.29,.48-2.58,.81-3.86,.32-1.13,.48-2.09,.97-3.06,.64-1.45,1.13-3.06,1.77-4.67,.32-.8,.97-1.77,1.45-2.58,.16-.32,.32-.48,.48-.64,.8-2.25,2.58-3.7,4.02-5.63,.48-.81,1.29-1.29,2.25-1.77,.8-.48,1.61-.97,2.09-1.77,.32-.48,.81-.64,1.45-.97,.48-.16,.81,0,.97,.32l.32,.32c.16,1.29,1.45,1.45,2.25,1.93l1.45,.97c1.29,.97,2.74,1.93,3.86,3.22,.97,.97,2.09,1.93,2.9,3.22,.32,.48,.64,1.13,.97,1.77s.64,1.29,1.13,1.93c.64,.97,.81,1.93,1.13,2.9,.16,.64,.48,1.13,.64,1.77,.32,1.29,.81,2.58,1.13,3.86,.32,1.45,.64,2.74,.48,4.03Zm-5.31-2.09c-.16-.64,0-1.29-.16-1.93-.48-1.61-1.13-3.22-1.61-4.67-.16-.8-.32-1.61-.81-2.25-.97-1.61-2.42-2.9-3.7-4.35-.81-.8-1.93-.64-2.74,0-.48,.48-1.13,.8-1.77,.97-1.45,.48-2.58,1.29-3.38,2.58-.16,.32-.48,.64-.64,.8-.97,.32-1.29,.97-1.45,1.77-.64,1.93-1.61,3.86-2.25,5.8-.81,1.77-1.13,3.7-1.77,5.47-.48,1.77-.48,3.38-.81,5.15-.32,1.61-.32,3.22-.8,4.67v.48c0,.64,.32,1.45-.16,2.09-.16,0,0,.32,0,.48,0,1.77,0,3.54,.16,5.31,.16,2.09,.32,4.03,.8,5.96,.16,.64,.32,.97,.81,1.45,.32,.48,.81,.8,1.45,1.13,1.93,1.13,4.19,1.13,6.28,1.13,.97,0,1.93-.16,2.74-.48,1.45-.32,2.58-.8,3.54-1.93,.8-.81,1.45-1.77,2.41-2.58,.64-.64,1.13-1.61,1.45-2.58l1.29-4.67c.16-.97,.32-1.93,.64-3.06,.16-.64,0-1.45,.16-2.25,0-1.13,.16-2.25,.32-3.38,.16-1.45,.48-3.06,.16-4.67-.16-1.29-.16-2.58,.16-3.86v-.32c-.48-.64-.32-1.45-.32-2.25Z"/>
    <path class="cls-2" d="M791.73,574.9c.64,0,1.29,0,1.93,.16,1.13,.32,2.25,.8,3.38,1.29,.64,.16,.97,.8,1.13,1.61,0,.97,0,1.93-.48,2.74-.32,.48-.64,.8-1.13,.8s-1.13,.16-1.61,0c-.64,0-1.45-.16-2.09-.48-.48-.16-.8-.48-1.13-.81-.8-1.29-2.09-1.29-3.38-.97-.32,0-.64,.32-.97,.64-.48,.48-.81,.97-1.29,1.45l-.48,.64c-.16,.64,0,2.74,.16,3.22l.97,2.42c.16,.64,.48,.97,.8,1.29,.81,.32,1.61,.64,2.58,.64,.64,0,1.13,.16,1.77,.16,1.77,.16,3.54,.48,5.31-.16,.32-.16,.8-.16,1.13-.32,1.29-.32,2.41-.8,3.22-1.93,.16-.16,.48-.16,.64-.32,.48-.32,.97-.64,1.29-1.13,1.45-1.61,2.9-3.38,3.54-5.63,.64-1.61,1.13-3.22,1.61-4.83,.16-.64,.32-1.29,.32-1.93,.32-1.93,.48-3.86,.64-5.8l.48-3.22c.32-1.61,.64-3.06,.81-4.67,.16-.64,.16-1.45,.32-2.09,0,0,0-.16-.16-.16-.32-1.45,0-2.9-.16-4.35,0-1.77,.32-3.54,.32-5.31,0-1.13,.16-2.25,.16-3.38,0-.48,.16-.97,.16-1.61s-.16-1.45-.16-2.25c-.16-1.61,0-3.06,0-4.67v-4.99c0-1.61-.16-3.06-.16-4.51-.16-1.61-.32-3.22-.48-4.83v-1.61c-.16-1.45-.16-2.9-.32-4.35,0-.32,0-.64-.16-.97,0-.16-.16-.32,0-.32,.16-.97-.16-1.93-.32-2.74,0-1.45-.32-2.74-.16-4.02,.16-1.45-.48-2.74-.16-4.19l-.16-.64c0-.48-.16-.8-.16-1.13,0-1.61,0-3.22-.32-4.83-.16-1.13,0-2.09,.97-2.9,.32-.16,.64-.64,.81-.97,.48-.48,.97-.97,1.77-.8,1.13-.48,1.77,.16,2.25,.97,.64,.64,1.13,1.45,1.13,2.58,0,.16,0,.32,.16,.48,.48,1.13,.32,2.25,.48,3.38s.16,2.09,.16,3.06c0,.64,.32,1.29,.32,1.77,.16,.81,.16,1.61,.16,2.42s.16,1.61,.16,2.42c-.16,.81,.16,1.61,0,2.42,0,.48,.16,1.13,.32,1.61,.16,1.45,.32,2.74,.48,4.19v.16c-.32,1.93,0,3.54,.32,5.31v.48c0,1.45,0,2.9,.16,4.19,0,.81,.16,1.61,.32,2.42v1.93c-.16,1.61,0,3.22,0,4.67v1.61c0,.32-.16,.64,0,.97,0,1.45-.16,2.9-.16,4.35,0,.48-.16,.81-.16,1.13,0,.81-.16,1.61-.16,2.25v.64c-.32,1.29,0,2.42-.16,3.7v5.15c0,.97,0,1.77-.16,2.74,0,1.13,0,2.25-.32,3.38v.8c0,.64-.16,1.13-.16,1.77,0,1.29-.48,2.42-.64,3.7-.16,.64,0,1.29-.16,1.77-.48,1.77-.8,3.54-1.29,5.15-.16,1.13-.64,2.09-.97,3.06-.16,.48-.16,1.13-.32,1.61-.32,1.29-.97,2.58-1.61,3.86-.48,.8-.97,1.77-1.45,2.58l-.64,1.13c-.64,.64-1.29,1.45-1.61,2.25-.32,.8-.97,1.29-1.61,1.61-.97,.48-1.77,.8-2.25,1.77-.16,.16-.48,.32-.64,.48l-1.93,.48c-.48,.16-.8,.32-.97,.64-1.13,.8-2.25,.8-3.38,.64-.97,0-1.93,0-2.74,.16-.64,.16-1.45,.16-2.09,0-.32,0-.64-.16-.97-.16-.64,0-.97-.32-1.13-.81-.16-.32-.32-.48-.81-.48-.97-.16-1.77-.64-2.74-.97-1.13-.48-2.25-1.29-3.22-2.09-.48-.32-.97-.8-1.13-1.29-.48-.81-1.13-1.61-1.29-2.42-.32-1.45-.64-3.06,.16-4.35,.16-.16,.32-.48,.32-.64,0-1.29,.48-2.42,.97-3.54,.16-.64,.81-.97,1.29-1.45,.48-.32,.97-.64,1.29-1.29,.48-.64,1.29-.97,2.09-1.13,1.13-.32,2.42-.32,3.54-.48Z"/>
    <path class="cls-2" d="M838.74,584.08c1.77-.32,3.38-.32,4.99-.64,1.29-.16,2.58-.64,3.86-.97,1.77-.16,3.54-.8,5.31-.8,1.13,0,2.42,0,3.38,.48,.16,.16,.32,.16,.48,.16,.32,.16,.64,.16,.81,.32,.48,.32,.81,.64,1.13,.97,.48,.32,.64,.97,.48,1.61-.32,.97-1.13,1.29-1.93,1.77-.32,.16-.64,.16-1.13,.32-.48,.16-.8,.32-1.13,.64-.48,.64-1.13,.8-1.93,.8,0,0-.16-.16-.32-.16-1.45,.48-3.06,.16-4.51,.48-1.29,.32-2.74,.32-4.02,.64-1.29,.16-2.58,.64-4.02,.32h-.32c-.97,.32-1.93,.48-2.9,.8-.81,.48-1.61,.32-2.42,0-.48-.16-1.13-.64-1.61-1.29-.32-.48-.81-.64-1.45-.8-.16,0-.32,0-.64-.16-.97-.16-1.45-.8-1.29-1.77,.16-.64,0-1.13-.16-1.77-.16-.32-.16-.64-.16-.8-.16-1.45-.16-2.74-.16-4.19,.16-1.77,0-3.54,.32-5.31l-.16-1.13c0-.32-.16-.48-.32-.8,0-1.29,0-2.74-.16-4.19,0-.8-.16-1.61-.16-2.42v-5.63c0-1.13,.16-2.25,.16-3.38,0-.64-.16-1.45-.16-2.09,.16-1.45,.16-2.74,.16-4.19v-.32c.16-2.58,.16-4.99,.32-7.57,0-.81,0-1.45,.16-2.25,0-.64,.16-1.13,.16-1.77v-3.86l.48-4.51c.16-1.29,.32-2.42,.32-3.7,.16-1.93,.48-4.03,.48-5.96v-3.22c.16-1.61,.16-3.22,.32-4.83v-7.25l-.48-3.54c0-.48,0-.97-.16-1.45v-.48c.16-.48,0-.97,0-1.45-.16-.97-.16-1.93-.16-2.74,0-.16,0-.48,.16-.48,.64-.64,.81-1.77,1.61-2.25,.48-.48,.97-.64,1.77-.48,.97,.16,1.93,0,3.06-.16,1.13-.32,2.42-.32,3.54-.48l7.24-.97c.97-.16,1.93-.16,2.9-.32,.16,0,.16-.16,.32-.16,2.25,0,4.67-.16,6.92,0,1.77,.16,3.54,.8,4.67,2.41,.16,.16,.32,.32,.32,.64,0,.97,0,1.93-.48,2.74-.48,.48-1.77,1.29-2.58,1.29-.8-.16-1.61-.16-2.42,.16h-.48c-1.13-.16-2.41,.16-3.7,.16-.97,.16-2.09,.16-3.22,.16h-.64c-1.29,.48-2.74,.8-4.02,.48h-.48c-.8,.16-1.45,.32-2.09,.32-.8-.16-1.61,0-2.42,.16-1.13,0-1.77,1.13-2.41,1.93-.16,.16-.16,.48-.16,.81,.32,1.29,.32,2.58,.32,3.86,0,.64,.16,1.45,.16,2.09,0,.48-.16,.81-.16,1.29v12.24c0,1.45-.32,3.06-.48,4.67,0,1.45-.16,2.9-.32,4.35-.32,3.06-.16,6.12-.32,9.18,0,1.93,0,3.7-.32,5.47v10.95c0,.48,.32,.64,.8,.64,1.45-.16,2.9-.32,4.19-.48l6.12-.97c.81-.16,1.61-.32,2.25-.32,1.45-.16,2.74,0,4.02,.64,.48,.48,1.29,.8,1.77,1.13,.64,.48,.81,.64,.48,1.45,0,.16-.16,.48-.16,.8,0,.48-.32,.8-.64,.97-.81,.48-1.45,1.13-2.25,1.13-1.13,.16-1.93,.48-2.9,.97-.64,.32-1.29,.32-2.09,.32-1.29,.16-2.58,.32-3.7,.32-.64,.16-1.29,.16-1.77,.16l-.8,.32c-.81,.32-1.93,.64-2.74,1.29-.48,.32-1.13,.48-1.77,.8-.64,.16-.97,.64-.97,1.45,0,1.77,.16,3.7,.32,5.47v3.54c-.16,1.29-.16,2.58,.16,3.7v4.02c0,.32,.32,.48,.64,.48h1.29v.16Z"/>
    <path class="cls-2" d="M880.43,538.52c-.16,1.61,0,3.06-.32,4.67-.16,.32,.16,.8,0,1.13-.32,1.77,0,3.54,0,5.31,.16,2.9,.16,5.63,.32,8.53,0,.48,0,.8,.16,1.29,.32,.97,.48,1.93,.64,2.9l.48,2.74c0,.32,.16,.64,.16,.97s0,.64,.16,.97c.48,.8,.48,1.93,.8,2.9,.16,.97,.64,1.93,.97,2.9,.48,.97,.8,1.93,1.13,2.9s.97,1.77,1.61,2.58c.64,.64,1.13,1.29,1.61,1.93,.16,.16,.32,.48,.48,.48,1.29,.97,2.42,1.77,3.7,2.58,.48,.32,1.13,.32,1.61,.32,1.29,.16,2.58,.16,3.7-.48,.64-.32,1.13-.64,1.77-.97l3.86-2.9c.8-.64,1.45-1.29,2.25-2.09,.48-.48,.8-1.13,1.29-1.61,.64-.8,1.45-1.45,2.09-2.25l1.45-1.45c.48-.32,.8-.81,1.29-1.13,.48-.48,.64-.32,1.13,0,.32,.32,.64,.64,.48,1.29,0,.97,0,1.93-.32,2.9-.16,.32-.16,.64-.16,.8,0,.81-.16,1.45-.48,2.09-.64,1.13-1.13,2.42-2.09,3.38-.32,.32-.48,.64-.48,1.13-.16,.64-.48,.97-.97,1.45-.8,.8-1.77,1.61-2.25,2.74,0,.16-.16,.32-.32,.32-.81,.32-1.13,1.29-1.77,1.61-.48,.48-1.13,.97-1.61,1.13-1.61,.8-3.22,1.61-5.15,1.77-2.42,.32-4.99,.32-7.41-.32-.48-.16-1.13-.48-1.61-.8l-1.93-.97c-.48-.16-.81-.48-1.13-.8-.64-.8-1.45-1.45-2.09-2.09l-.97-1.13c-.48-.64-1.13-1.29-1.61-1.93l-.48-.64c-.32-.64-.64-1.29-1.13-1.77,0-.16-.16-.16-.16-.16-.16-.97-.8-1.61-1.29-2.42-.32-.97-.48-1.93-.8-2.74-.16-.64-.48-1.13-.8-1.77-.48-.97-.97-2.09-1.13-3.38-.32-.97-.32-1.93-.64-2.9,0-.48-.16-.97-.32-1.45-.32-1.29-.48-2.58-.8-3.7-.32-.8-.32-1.61-.32-2.42,0-.32-.32-.8-.32-1.29-.16-1.61-.16-3.06-.16-4.51-.16-2.42-.16-4.67-.16-7.08,0-2.9,0-5.96,.16-8.85,.16-1.61,.32-3.06,.64-4.67,0-.64,0-1.29,.16-1.93,.16-1.13,.48-2.25,.64-3.38,.32-1.45,.64-2.9,.97-4.35l.97-3.38c.32-.97,.8-1.77,.97-2.58,.16-.32,.16-.81,.32-1.13,.48-1.45,1.13-2.74,1.93-3.86,.32-.48,.64-.97,.8-1.45,.32-1.29,1.29-2.42,2.09-3.7,.32-.48,.64-.97,.8-1.45,.32-.32,.48-.8,.8-1.13,.8-.64,1.45-1.45,1.77-2.42l.16-.16c.8-.8,1.45-1.61,2.25-2.25,.16-.16,.16-.32,.32-.32,1.45-.97,2.74-1.93,4.19-2.74,.64-.48,1.29-.64,1.93-.81,.16,0,.48-.16,.64-.32,.81-.48,1.77-.81,2.58-1.13,.97-.32,2.09-.48,3.06-.48,1.77-.16,3.38-.16,5.15-.16,.64,0,1.45,0,2.09,.32,1.45,.64,2.9,1.13,4.35,1.45,.16,0,.48,.16,.64,.32,.16,0,.16,.32,.16,.48,0,.48-.16,1.13,0,1.61,0,.97-.8,1.45-1.45,1.93-.32,.16-.64,.32-.8,.48-1.13,.81-2.25,.81-3.38,0-.81-.48-1.77-.64-2.58-.64-1.13-.16-2.25-.16-3.38,.16h-.81c-.64-.16-1.45-.16-2.25,.16l-.97,.48c-.64,.48-1.29,.97-2.09,1.13-.8,0-1.45,.48-1.77,1.13-.16,.32-.48,.48-.81,.81l-1.29,1.13c-.32,.32-.48,.8-.64,1.29-.32,.97-.64,1.93-1.45,2.58-.32,.32-.48,.81-.64,1.29-.48,1.29-1.45,2.25-2.09,3.38,0,.16-.16,.32-.32,.48-.32,.32-.48,.64-.48,.97,0,.48-.16,.8-.32,1.29-.48,.97-.81,2.09-1.61,3.06v.48c-.32,1.13-.64,2.09-.8,3.22-.32,1.29-.81,2.42-.97,3.7-.16,.97-.64,1.77-.81,2.74l-.48,2.58c0,.8,0,1.61-.16,2.42-.16,.64-.16,1.45-.16,2.25v1.45Z"/>
    <path class="cls-2" d="M946.76,580.7c0-1.13,.16-2.25,.16-3.38,0-.8-.16-1.45-.16-2.09,.16-1.93,.32-3.86,.48-5.63v-.97c.16-1.77,.32-3.38,.32-4.99,0-1.93,.32-3.86,.48-5.8,.16-2.25,.32-4.35,.32-6.6,.16-1.29,.16-2.58,.16-3.86,0-2.09,0-4.19,.32-6.12,.16-1.61,0-3.22,0-4.83v-4.99c0-1.93,0-3.86,.16-5.8,.32-3.54,.32-7.25,.16-10.79,0-2.25-.16-4.51-.32-6.76v-2.58c0-1.61,0-3.38-.32-4.99-.16-.64-.16-.8-.97-.64-1.61,0-3.22,0-4.67,.16-1.61,.32-3.06,0-4.51,.16h-4.35c-.48,0-.97,.16-1.45,.16-.32,.16-.64,.32-.8,.48-.48,.48-.8,1.13-1.29,1.77-.48,.64-1.29,.97-2.09,.64-.97-.16-1.61-.48-2.25-1.29-.32-.48-.8-.97-.97-1.61,0-.16-.16-.32-.32-.48-.64-.32-.8-.97-.8-1.61-.32-.97-.48-1.77-.64-2.74,0-.16,0-.32-.16-.48-.32-.48-.32-.97-.16-1.45,0-.16-.16-.48-.16-.8v-1.13c0-.48,.32-.64,.8-.8,.8-.16,1.61-.32,2.42-.48h.32c.8-.8,1.77-.48,2.74-.32,.16,0,.32,.16,.48,.16,1.45,0,3.06,0,4.51-.16s2.9-.32,4.19-.48l4.99-.48c2.09-.16,4.19-.48,6.28-.32,1.13,0,2.09-.32,3.22-.16,1.93,0,3.86,.16,5.8,.32,1.45,0,2.74,.16,4.02,.32l2.58,.48c.32,0,.64,0,.97,.16,1.61,0,3.22,.64,4.83,1.13,1.29,.32,2.25,1.13,2.58,2.58,.32,1.29,.48,2.74-.32,4.02-.32,.32-.64,.64-1.29,.64h-3.38c-.48-.16-.97,0-1.45,0l-6.44,.48c-1.13,0-2.25,.16-3.38,.32-.97,.16-1.29,.48-1.45,1.45-.16,1.29-.32,2.58,.16,3.7v.64c-.16,.64,0,1.13,0,1.77s.16,1.29,.16,2.09c.16,1.93,.32,3.86,.48,5.96v.16c0,.97,0,1.93-.16,2.74-.16,1.61-.32,3.22,0,4.83,0,.32,0,.64-.16,.97v.8c0,.48,.16,1.13,0,1.77-.16,.48,0,.97-.16,1.45,0,.81,0,1.61-.16,2.42-.32,.64-.16,1.45,0,2.09,0,.64,0,1.29-.32,1.93-.16,.64-.16,1.29-.16,1.93,0,1.13,.16,2.09,0,3.22-.16,1.45-.16,2.9-.16,4.51,0,.64,0,1.45-.16,2.25,0,.97-.16,2.09,0,3.22,0,.8-.16,1.77-.16,2.58-.32,2.9-.48,5.96-.48,8.86,0,.97-.16,1.93-.32,2.9,0,.97,0,1.93-.16,3.06,0,.16,.16,.48,0,.64-.48,1.29-.32,2.58-.32,3.86,0,.97-.16,1.93-.16,3.06v1.45c-.16,1.45-.16,2.9-.32,4.51,0,.64,.16,1.45,.16,2.09,0,1.13-.16,2.42-.16,3.54,0,.64,0,1.13,.32,1.77,.32,.48,.32,1.13,.48,1.77q.16,.16,0,.16c-.32,.97-.97,1.45-1.77,1.93-.64,.32-1.29,0-1.77-.32-1.13-1.13-2.25-2.09-2.74-3.54-.97-2.09-1.29-4.35-1.13-6.6Z"/>
    <path class="cls-2" d="M1012.61,502.29v-3.22c0-.8-.32-1.29-1.13-1.45-.16,0-.48-.16-.48-.32-.48-.64-1.29-.97-2.09-1.13-.48-.16-1.13-.48-1.77-.64-.8-.16-1.61-.32-2.42-.48h-.32c-.81,.16-1.61,.48-2.42,.64l-.64,.16c-.64-.16-1.13,.32-1.45,.8-.32,.48-.64,.81-1.13,.97-.81,.32-1.29,.81-1.61,1.61-.48,.97-1.13,1.93-1.93,2.74-.64,.64-.97,1.61-1.13,2.58-.16,.97-.48,1.93-1.13,2.74l-.48,1.13c-.16,.48-.32,1.13-.48,1.61l-.16,.64c.16,1.13,.16,2.25,.16,3.38v.32c0,.97,0,1.93-.16,2.74-.16,1.77,.32,3.38,.8,4.99,.32,1.45,.48,2.74,.97,4.03,.32,1.13,.8,2.09,1.13,3.22,.32,.48,.64,.97,.8,1.61,.97,2.09,1.77,4.35,2.58,6.6,.16,.16,.16,.32,.16,.32,.97,1.45,1.77,2.74,2.58,4.19l1.93,4.02c.16,.16,.16,.48,.32,.8,1.13,1.29,1.45,2.74,2.42,4.19,0,0,0,.16,.16,.32,.97,1.29,1.45,2.74,2.09,4.03,.8,1.61,1.61,3.06,2.25,4.67,.48,.97,.97,2.09,1.61,3.06,.16,.16,.32,.48,.32,.64,.32,.64,.64,1.29,.8,2.09,.16,.16,.16,.48,.32,.8v.48c.48,.64,.64,1.45,.97,2.09,.48,1.29,.97,2.58,1.13,4.02l.48,3.06c.16,.97,.32,2.09,.32,3.06-.16,1.77,.16,3.7-.81,5.31,0,1.29-.8,1.93-1.61,2.74-.97,.8-1.77,1.45-2.9,1.61-.64,.16-1.29,.48-1.93,.8-1.29,.64-2.74,1.13-4.35,1.29-.48,0-.81,0-1.29-.32-.48-.32-.97-.64-1.77-.48-.64,.16-1.29-.16-1.93-.64-.32-.64-.8-.97-1.45-1.29-.64-.32-1.29-.97-1.93-1.45l-1.45-.97c-.16-.16-.48-.32-.48-.48-.48-.81-1.13-1.45-1.77-2.09-.48-.48-.8-.97-.97-1.61,0-.48-.16-.97-.48-1.29-.32-.8-.48-1.77-.64-2.74-.16-.8-.16-1.45-.32-2.25v-.64c.32-.97,.48-1.13,1.61-.97l1.77,.48c.32,.16,.64,.32,.81,.48l.97,2.25c.16,.48,.32,.8,.64,1.29,.48,.32,.81,.8,1.13,1.29,.32,.64,.81,1.13,1.45,1.61,.48,.32,.97,.64,1.45,1.13,.97,.97,1.93,1.77,3.38,2.09,1.61,.16,2.42-.32,2.74-1.61,.16-.48,.32-.97,.32-1.29l.48-6.44c0-1.29-.16-2.42-.48-3.54l-1.45-5.15c0-.32-.16-.64-.32-.97l-.97-1.93c-1.13-2.09-1.93-4.35-3.38-6.28,0-.16-.16-.16-.16-.32-.64-1.61-1.77-3.06-2.58-4.67-.8-1.61-1.77-2.9-2.58-4.51-1.13-2.25-2.25-4.51-3.38-6.76l-2.25-4.35c0-.16-.16-.32-.16-.48-.48-2.42-1.61-4.51-2.58-6.76-1.13-2.74-2.09-5.64-2.42-8.69,0-1.13,0-2.09-.16-3.06-.32-1.45-.16-2.9-.16-4.19,0-1.45,.16-2.74,.32-4.19,0-.97,.16-1.77,.16-2.74,.16-1.45,.64-2.74,1.29-4.03,.48-.8,.64-1.77,1.13-2.74,.64-1.45,1.45-2.9,2.25-4.19,.16-.48,.64-.97,.97-1.29,1.29-.8,2.25-1.77,3.7-2.42l.32-.32c1.29-1.13,2.74-1.61,4.51-1.77,1.13-.16,2.25-.48,3.22-.8,1.13-.32,2.09-.48,3.06-.32,1.13,0,2.25,.16,3.22,.32,1.45,.32,2.58,.97,3.86,1.45,.48,.32,1.13,.64,1.45,1.13,.64,.64,1.29,1.13,2.25,1.29,.8,.16,1.29,.81,1.45,1.61,.16,.48,0,.97,.48,1.45,.16,0,.16,.32,.16,.48-.16,.97-.32,2.09,.16,3.06,0,1.77,.64,3.54,.16,5.15-.16,.64-.16,1.13,0,1.77,0,1.13-.48,2.09-.97,3.22,0,.32-.16,.8-.32,1.13-.16,.64-.64,.8-1.29,.48-.48-.16-.8-.48-.97-1.13-.16-.8-.48-1.77-.8-2.58-.48-1.29-.81-2.58-.64-4.03v-1.29h-.16Z"/>
  </g>
</svg>