<?xml version="1.0" encoding="UTF-8"?>
<svg id="Layer_1" data-name="Layer 1" xmlns="http://www.w3.org/2000/svg" viewBox="0 0 63.76 65.53">
  <defs>
    <style>
      .cls-1 {
        fill: #784f48;
      }

      .cls-2 {
        fill: #785049;
      }

      .cls-3 {
        fill: #fefefe;
      }
    </style>
  </defs>
  <path class="cls-1" d="M29.98,33.52c-1.65-.75-1.24-1.38-.46-2.25,4.1-4.55,1.83-13.7-5.27-15.35-4.51-1.05-9.08-1.02-13.64-.81-1.68,.08-2.68,1.26-2.65,3.15,.05,4.6,0,9.2,0,13.8s-.02,9.35,.01,14.03c.02,2.49,1.73,4.58,3.97,4.67,5.44,.22,10.86-.07,16.18-1.26,4.16-.93,6.12-3.36,6.56-7.65,.44-4.24-.7-6.52-4.71-8.33ZM13.16,22.81c.11-1.67,.68-2.64,2.67-2.68,2.59-.05,5.03,.46,7.44,1.24,2.89,.93,3.12,1.69,3.04,6.3-.05,2.34-1.82,2.22-3.21,2.52-2.1,.46-4.23,.88-6.41,.76-3.06,0-3.16,0-3.02-3.09,.08-1.73-.62-3.34-.51-5.05Zm13.98,21.28c-1.42,.85-3.06,1.22-4.58,1.3-2.55,.12-5.04,.73-7.62,.61-1.42-.06-1.97-.38-1.8-1.83,.12-1,.02-2.02,.02-3.04v-.7c0-3.65,.03-3.44,3.67-3.91,3.49-.45,6.84-.78,10.12,.9,1.23,.63,2.64,.94,2.61,2.77-.02,1.83-.94,3.02-2.42,3.9Zm24.08-20.64c-2.1,0-4.21,0-6.31,0s-4.06-.02-6.08,0c-.81,.01-2.05-.28-2.07,.87-.02,1.1,.59,2.49,1.92,2.54,4.2,.15,8.39,.79,12.6,.47,1.58-.12,1.97-1.59,2.06-2.72,.09-1.21-1.19-1.16-2.12-1.16Zm-8.79,18.13c1.39,.1,2.8,.02,4.35,.02,2.38-.15,4.9,.1,7.46-.6,1.62-.45,2.04-1.47,1.93-2.57-.25-2.6-.79-5.18-3.48-6.59-3.97-2.09-7.95-1.82-11.95-.17-2.09,.86-3.63,2.3-4.39,4.45-2.04,5.74,.18,15.33,9.45,16.36,3.99,.44,8.64-1.84,9.66-5.76,.32-1.23,.05-1.69-.97-1.67-2,.05-4.23-.74-5.72,1.51-.63,.94-1.83,.99-2.79,.7-2.12-.64-3.89-1.78-4.78-4.01-.55-1.4-.19-1.77,1.23-1.67Zm7.26-6.37c.86,.43,1.68,.97,1.47,2.1-.21,1.21-1.24,.64-1.89,.66-2.6,.07-5.2,.03-7.94,.03,1.91-3,5.56-4.14,8.36-2.79Zm-7.26,6.37c1.39,.1,2.8,.02,4.35,.02,2.38-.15,4.9,.1,7.46-.6,1.62-.45,2.04-1.47,1.93-2.57-.25-2.6-.79-5.18-3.48-6.59-3.97-2.09-7.95-1.82-11.95-.17-2.09,.86-3.63,2.3-4.39,4.45-2.04,5.74,.18,15.33,9.45,16.36,3.99,.44,8.64-1.84,9.66-5.76,.32-1.23,.05-1.69-.97-1.67-2,.05-4.23-.74-5.72,1.51-.63,.94-1.83,.99-2.79,.7-2.12-.64-3.89-1.78-4.78-4.01-.55-1.4-.19-1.77,1.23-1.67Zm7.26-6.37c.86,.43,1.68,.97,1.47,2.1-.21,1.21-1.24,.64-1.89,.66-2.6,.07-5.2,.03-7.94,.03,1.91-3,5.56-4.14,8.36-2.79Zm-11.01-8.35c4.2,.15,8.39,.79,12.6,.47,1.58-.12,1.97-1.59,2.06-2.72,.09-1.21-1.19-1.16-2.12-1.16-2.1,0-4.21,0-6.31,0s-4.06-.02-6.08,0c-.81,.01-2.05-.28-2.07,.87-.02,1.1,.59,2.49,1.92,2.54Zm-8.7,6.66c-1.65-.75-1.24-1.38-.46-2.25,4.1-4.55,1.83-13.7-5.27-15.35-4.51-1.05-9.08-1.02-13.64-.81-1.68,.08-2.68,1.26-2.65,3.15,.05,4.6,0,9.2,0,13.8s-.02,9.35,.01,14.03c.02,2.49,1.73,4.58,3.97,4.67,5.44,.22,10.86-.07,16.18-1.26,4.16-.93,6.12-3.36,6.56-7.65,.44-4.24-.7-6.52-4.71-8.33ZM13.16,22.81c.11-1.67,.68-2.64,2.67-2.68,2.59-.05,5.03,.46,7.44,1.24,2.89,.93,3.12,1.69,3.04,6.3-.05,2.34-1.82,2.22-3.21,2.52-2.1,.46-4.23,.88-6.41,.76-3.06,0-3.16,0-3.02-3.09,.08-1.73-.62-3.34-.51-5.05Zm13.98,21.28c-1.42,.85-3.06,1.22-4.58,1.3-2.55,.12-5.04,.73-7.62,.61-1.42-.06-1.97-.38-1.8-1.83,.12-1,.02-2.02,.02-3.04v-.7c0-3.65,.03-3.44,3.67-3.91,3.49-.45,6.84-.78,10.12,.9,1.23,.63,2.64,.94,2.61,2.77-.02,1.83-.94,3.02-2.42,3.9ZM63.73,3.21c-.01-2.72-.5-3.16-3.3-3.16H31.66C22.07,.05,12.47,.12,2.88,0,.61-.03,0,.64,0,2.89,.09,21.92,.05,40.95,.05,59.98c0,3.45,1.27,4.7,4.73,4.7,17.94,0,35.88,0,53.81,.02,.82,0,1.73-.34,2.45,.35,1.12,1.07,1.79,.13,2.09-.68,.34-.89,.63-1.85,.63-2.89-.04-19.43-.02-38.85-.03-58.27Zm-3.74,29.17c0,8.73-.04,17.46,.03,26.2,.02,1.55-.43,1.92-1.94,1.92-17.62-.05-35.24-.05-52.86,0-1.55,0-1.93-.43-1.92-1.94,.05-17.63,.05-35.25-.01-52.87,0-1.55,.44-1.93,1.95-1.93,17.62,.05,35.24,.06,52.86,0,1.54,0,1.93,.44,1.92,1.95-.07,8.89-.03,17.78-.03,26.67Zm-7.3-.54c-3.97-2.09-7.95-1.82-11.95-.17-2.09,.86-3.63,2.3-4.39,4.45-2.04,5.74,.18,15.33,9.45,16.36,3.99,.44,8.64-1.84,9.66-5.76,.32-1.23,.05-1.69-.97-1.67-2,.05-4.23-.74-5.72,1.51-.63,.94-1.83,.99-2.79,.7-2.12-.64-3.89-1.78-4.78-4.01-.55-1.4-.19-1.77,1.23-1.67,1.39,.1,2.8,.02,4.35,.02,2.38-.15,4.9,.1,7.46-.6,1.62-.45,2.04-1.47,1.93-2.57-.25-2.6-.79-5.18-3.48-6.59Zm-1.53,5.47c-.21,1.21-1.24,.64-1.89,.66-2.6,.07-5.2,.03-7.94,.03,1.91-3,5.56-4.14,8.36-2.79,.86,.43,1.68,.97,1.47,2.1Zm-12.48-10.45c4.2,.15,8.39,.79,12.6,.47,1.58-.12,1.97-1.59,2.06-2.72,.09-1.21-1.19-1.16-2.12-1.16-2.1,0-4.21,0-6.31,0s-4.06-.02-6.08,0c-.81,.01-2.05-.28-2.07,.87-.02,1.1,.59,2.49,1.92,2.54Zm-8.7,6.66c-1.65-.75-1.24-1.38-.46-2.25,4.1-4.55,1.83-13.7-5.27-15.35-4.51-1.05-9.08-1.02-13.64-.81-1.68,.08-2.68,1.26-2.65,3.15,.05,4.6,0,9.2,0,13.8s-.02,9.35,.01,14.03c.02,2.49,1.73,4.58,3.97,4.67,5.44,.22,10.86-.07,16.18-1.26,4.16-.93,6.12-3.36,6.56-7.65,.44-4.24-.7-6.52-4.71-8.33ZM13.16,22.81c.11-1.67,.68-2.64,2.67-2.68,2.59-.05,5.03,.46,7.44,1.24,2.89,.93,3.12,1.69,3.04,6.3-.05,2.34-1.82,2.22-3.21,2.52-2.1,.46-4.23,.88-6.41,.76-3.06,0-3.16,0-3.02-3.09,.08-1.73-.62-3.34-.51-5.05Zm13.98,21.28c-1.42,.85-3.06,1.22-4.58,1.3-2.55,.12-5.04,.73-7.62,.61-1.42-.06-1.97-.38-1.8-1.83,.12-1,.02-2.02,.02-3.04v-.7c0-3.65,.03-3.44,3.67-3.91,3.49-.45,6.84-.78,10.12,.9,1.23,.63,2.64,.94,2.61,2.77-.02,1.83-.94,3.02-2.42,3.9Z"/>
  <path class="cls-3" d="M29.98,33.52c-1.65-.75-1.24-1.38-.46-2.25,4.1-4.55,1.83-13.7-5.27-15.35-4.51-1.05-9.08-1.02-13.64-.81-1.68,.08-2.68,1.26-2.65,3.15,.05,4.6,0,9.2,0,13.8s-.02,9.35,.01,14.03c.02,2.49,1.73,4.58,3.97,4.67,5.44,.22,10.86-.07,16.18-1.26,4.16-.93,6.12-3.36,6.56-7.65,.44-4.24-.7-6.52-4.71-8.33ZM13.16,22.81c.11-1.67,.68-2.64,2.67-2.68,2.59-.05,5.03,.46,7.44,1.24,2.89,.93,3.12,1.69,3.04,6.3-.05,2.34-1.82,2.22-3.21,2.52-2.1,.46-4.23,.88-6.41,.76-3.06,0-3.16,0-3.02-3.09,.08-1.73-.62-3.34-.51-5.05Zm13.98,21.28c-1.42,.85-3.06,1.22-4.58,1.3-2.55,.12-5.04,.73-7.62,.61-1.42-.06-1.97-.38-1.8-1.83,.12-1,.02-2.02,.02-3.04v-.7c0-3.65,.03-3.44,3.67-3.91,3.49-.45,6.84-.78,10.12,.9,1.23,.63,2.64,.94,2.61,2.77-.02,1.83-.94,3.02-2.42,3.9Zm24.08-20.64c-2.1,0-4.21,0-6.31,0s-4.06-.02-6.08,0c-.81,.01-2.05-.28-2.07,.87-.02,1.1,.59,2.49,1.92,2.54,4.2,.15,8.39,.79,12.6,.47,1.58-.12,1.97-1.59,2.06-2.72,.09-1.21-1.19-1.16-2.12-1.16Zm-8.79,18.13c1.39,.1,2.8,.02,4.35,.02,2.38-.15,4.9,.1,7.46-.6,1.62-.45,2.04-1.47,1.93-2.57-.25-2.6-.79-5.18-3.48-6.59-3.97-2.09-7.95-1.82-11.95-.17-2.09,.86-3.63,2.3-4.39,4.45-2.04,5.74,.18,15.33,9.45,16.36,3.99,.44,8.64-1.84,9.66-5.76,.32-1.23,.05-1.69-.97-1.67-2,.05-4.23-.74-5.72,1.51-.63,.94-1.83,.99-2.79,.7-2.12-.64-3.89-1.78-4.78-4.01-.55-1.4-.19-1.77,1.23-1.67Zm7.26-6.37c.86,.43,1.68,.97,1.47,2.1-.21,1.21-1.24,.64-1.89,.66-2.6,.07-5.2,.03-7.94,.03,1.91-3,5.56-4.14,8.36-2.79Z"/>
  <path class="cls-1" d="M29.98,33.52c-1.65-.75-1.24-1.38-.46-2.25,4.1-4.55,1.83-13.7-5.27-15.35-4.51-1.05-9.08-1.02-13.64-.81-1.68,.08-2.68,1.26-2.65,3.15,.05,4.6,0,9.2,0,13.8s-.02,9.35,.01,14.03c.02,2.49,1.73,4.58,3.97,4.67,5.44,.22,10.86-.07,16.18-1.26,4.16-.93,6.12-3.36,6.56-7.65,.44-4.24-.7-6.52-4.71-8.33ZM13.16,22.81c.11-1.67,.68-2.64,2.67-2.68,2.59-.05,5.03,.46,7.44,1.24,2.89,.93,3.12,1.69,3.04,6.3-.05,2.34-1.82,2.22-3.21,2.52-2.1,.46-4.23,.88-6.41,.76-3.06,0-3.16,0-3.02-3.09,.08-1.73-.62-3.34-.51-5.05Zm13.98,21.28c-1.42,.85-3.06,1.22-4.58,1.3-2.55,.12-5.04,.73-7.62,.61-1.42-.06-1.97-.38-1.8-1.83,.12-1,.02-2.02,.02-3.04v-.7c0-3.65,.03-3.44,3.67-3.91,3.49-.45,6.84-.78,10.12,.9,1.23,.63,2.64,.94,2.61,2.77-.02,1.83-.94,3.02-2.42,3.9Z"/>
  <path class="cls-1" d="M42.43,41.58c1.39,.1,2.8,.02,4.35,.02,2.38-.15,4.9,.1,7.46-.6,1.62-.45,2.04-1.47,1.93-2.57-.25-2.6-.79-5.18-3.48-6.59-3.97-2.09-7.95-1.82-11.95-.17-2.09,.86-3.63,2.3-4.39,4.45-2.04,5.74,.18,15.33,9.45,16.36,3.99,.44,8.64-1.84,9.66-5.76,.32-1.23,.05-1.69-.97-1.67-2,.05-4.23-.74-5.72,1.51-.63,.94-1.83,.99-2.79,.7-2.12-.64-3.89-1.78-4.78-4.01-.55-1.4-.19-1.77,1.23-1.67Zm7.26-6.37c.86,.43,1.68,.97,1.47,2.1-.21,1.21-1.24,.64-1.89,.66-2.6,.07-5.2,.03-7.94,.03,1.91-3,5.56-4.14,8.36-2.79Z"/>
  <path class="cls-2" d="M53.34,24.61c-.09,1.13-.48,2.6-2.06,2.72-4.21,.32-8.4-.32-12.6-.47-1.33-.05-1.94-1.44-1.92-2.54,.02-1.15,1.26-.86,2.07-.87,2.02-.02,4.05,0,6.08,0s4.21,0,6.31,0c.93,0,2.21-.05,2.12,1.16Z"/>
</svg>