<?xml version="1.0" encoding="UTF-8"?>
<svg id="Layer_1" data-name="Layer 1" xmlns="http://www.w3.org/2000/svg" viewBox="0 0 64.62 65.51">
  <defs>
    <style>
      .cls-1 {
        fill: #784f48;
      }

      .cls-2 {
        fill: #fefefe;
      }
    </style>
  </defs>
  <path class="cls-1" d="M32.2,24.19c-6.25,.12-9.54,3.63-9.66,9.02-.1,4.62,4.19,10.29,9.55,10.06,5.66-.25,9.21-3.87,9.22-9.98,.39-5.56-3.69-9.2-9.11-9.1Zm-.11,15.73c-3.17-.07-6.34-3.34-6.33-6.55,0-3.1,3.07-5.72,6.63-5.68,3.44,.04,5.9,2.37,5.85,5.55-.05,3.49-3.05,6.75-6.15,6.68Z"/>
  <path class="cls-1" d="M46.81,21.38c0,2-1.32,3.5-2.9,3.5-2.01,.12-3.12-.83-3.21-2.64-.11-2.3,1.14-3.4,3.37-3.46,1.86-.05,2.74,.81,2.74,2.6Z"/>
  <path class="cls-1" d="M53.81,19.81c-.09-5.95-2.28-8.56-8.55-8.52-4.21,.04-8.42,.01-12.63,.01-3.04,0-6.08-.04-9.12,.01-2.47,.04-4.93-.11-7.39,.42-3.25,.7-6.02,2.71-5.86,6.71,.18,4.67,.02,9.36,.04,14.04,.03,5.2-.16,10.4,.44,15.59,.37,3.2,3.16,6.2,6.31,6.82,2.62,.52,5.16,.19,7.77,.04,4.51-.26,9.04-.11,13.56-.06,2.16,.03,4.29,.08,6.46,.36,5.27,.7,9.01-2.07,9.01-7.78,0-9.21,.1-18.42-.04-27.64Zm-3.26,21.04c0,2.38-.2,4.76-.46,7.13-.2,1.9-1.31,3.12-3.33,3.12-9.21,.02-18.41,.05-27.62-.01-3.35-.03-4.99-1.66-5.05-5.44-.14-9.13-.06-18.26-.03-27.39,0-1.62,1.77-2.72,4.35-2.73,4.76-.04,9.52-.01,14.27-.01s9.36-.02,14.04,0c2.38,.02,3.18,1,3.4,3.41,.68,7.3,.42,14.61,.43,21.92Z"/>
  <path class="cls-1" d="M63.88,1.1c-1.4-.31-2.6-1.18-4.19-1.09-2.95,.17-5.92,.05-8.89,.05H4.47C1.08,.07,0,1.14,0,4.42V60.83c0,3.93,.7,4.67,4.7,4.67,18.56,.02,37.12,.01,55.68,.01,2.52-.01,4.22-1.6,4.22-4.11,.03-19.51,.01-39.01,.02-58.52,0-.72,.05-1.61-.74-1.78Zm-5.16,60.36c-8.96-.09-17.93-.05-26.9-.05s-17.62-.05-26.43,.05c-1.78,.02-2.16-.47-2.16-2.2,.07-17.62,.07-35.24,0-52.87-.01-1.78,.47-2.16,2.19-2.16,17.78,.07,35.56,.07,53.33,0,1.78-.01,2.17,.47,2.16,2.19-.06,17.63-.07,35.25,.01,52.88,0,1.77-.48,2.17-2.2,2.16Z"/>
  <path class="cls-2" d="M32.2,24.19c-6.25,.12-9.54,3.63-9.66,9.02-.1,4.62,4.19,10.29,9.55,10.06,5.66-.25,9.21-3.87,9.22-9.98,.39-5.56-3.69-9.2-9.11-9.1Zm-.11,15.73c-3.17-.07-6.34-3.34-6.33-6.55,0-3.1,3.07-5.72,6.63-5.68,3.44,.04,5.9,2.37,5.85,5.55-.05,3.49-3.05,6.75-6.15,6.68Z"/>
  <path class="cls-2" d="M46.81,21.38c0,2-1.32,3.5-2.9,3.5-2.01,.12-3.12-.83-3.21-2.64-.11-2.3,1.14-3.4,3.37-3.46,1.86-.05,2.74,.81,2.74,2.6Z"/>
  <path class="cls-2" d="M53.81,19.81c-.09-5.95-2.28-8.56-8.55-8.52-4.21,.04-8.42,.01-12.63,.01-3.04,0-6.08-.04-9.12,.01-2.47,.04-4.93-.11-7.39,.42-3.25,.7-6.02,2.71-5.86,6.71,.18,4.67,.02,9.36,.04,14.04,.03,5.2-.16,10.4,.44,15.59,.37,3.2,3.16,6.2,6.31,6.82,2.62,.52,5.16,.19,7.77,.04,4.51-.26,9.04-.11,13.56-.06,2.16,.03,4.29,.08,6.46,.36,5.27,.7,9.01-2.07,9.01-7.78,0-9.21,.1-18.42-.04-27.64Zm-3.26,21.04c0,2.38-.2,4.76-.46,7.13-.2,1.9-1.31,3.12-3.33,3.12-9.21,.02-18.41,.05-27.62-.01-3.35-.03-4.99-1.66-5.05-5.44-.14-9.13-.06-18.26-.03-27.39,0-1.62,1.77-2.72,4.35-2.73,4.76-.04,9.52-.01,14.27-.01s9.36-.02,14.04,0c2.38,.02,3.18,1,3.4,3.41,.68,7.3,.42,14.61,.43,21.92Z"/>
  <path class="cls-1" d="M32.2,24.19c-6.25,.12-9.54,3.63-9.66,9.02-.1,4.62,4.19,10.29,9.55,10.06,5.66-.25,9.21-3.87,9.22-9.98,.39-5.56-3.69-9.2-9.11-9.1Zm-.11,15.73c-3.17-.07-6.34-3.34-6.33-6.55,0-3.1,3.07-5.72,6.63-5.68,3.44,.04,5.9,2.37,5.85,5.55-.05,3.49-3.05,6.75-6.15,6.68Z"/>
  <path class="cls-1" d="M46.81,21.38c0,2-1.32,3.5-2.9,3.5-2.01,.12-3.12-.83-3.21-2.64-.11-2.3,1.14-3.4,3.37-3.46,1.86-.05,2.74,.81,2.74,2.6Z"/>
  <path class="cls-1" d="M53.81,19.81c-.09-5.95-2.28-8.56-8.55-8.52-4.21,.04-8.42,.01-12.63,.01-3.04,0-6.08-.04-9.12,.01-2.47,.04-4.93-.11-7.39,.42-3.25,.7-6.02,2.71-5.86,6.71,.18,4.67,.02,9.36,.04,14.04,.03,5.2-.16,10.4,.44,15.59,.37,3.2,3.16,6.2,6.31,6.82,2.62,.52,5.16,.19,7.77,.04,4.51-.26,9.04-.11,13.56-.06,2.16,.03,4.29,.08,6.46,.36,5.27,.7,9.01-2.07,9.01-7.78,0-9.21,.1-18.42-.04-27.64Zm-3.26,21.04c0,2.38-.2,4.76-.46,7.13-.2,1.9-1.31,3.12-3.33,3.12-9.21,.02-18.41,.05-27.62-.01-3.35-.03-4.99-1.66-5.05-5.44-.14-9.13-.06-18.26-.03-27.39,0-1.62,1.77-2.72,4.35-2.73,4.76-.04,9.52-.01,14.27-.01s9.36-.02,14.04,0c2.38,.02,3.18,1,3.4,3.41,.68,7.3,.42,14.61,.43,21.92Z"/>
  <path class="cls-2" d="M32.2,24.19c-6.25,.12-9.54,3.63-9.66,9.02-.1,4.62,4.19,10.29,9.55,10.06,5.66-.25,9.21-3.87,9.22-9.98,.39-5.56-3.69-9.2-9.11-9.1Zm-.11,15.73c-3.17-.07-6.34-3.34-6.33-6.55,0-3.1,3.07-5.72,6.63-5.68,3.44,.04,5.9,2.37,5.85,5.55-.05,3.49-3.05,6.75-6.15,6.68Z"/>
  <path class="cls-2" d="M46.81,21.38c0,2-1.32,3.5-2.9,3.5-2.01,.12-3.12-.83-3.21-2.64-.11-2.3,1.14-3.4,3.37-3.46,1.86-.05,2.74,.81,2.74,2.6Z"/>
  <path class="cls-1" d="M32.2,24.19c-6.25,.12-9.54,3.63-9.66,9.02-.1,4.62,4.19,10.29,9.55,10.06,5.66-.25,9.21-3.87,9.22-9.98,.39-5.56-3.69-9.2-9.11-9.1Zm-.11,15.73c-3.17-.07-6.34-3.34-6.33-6.55,0-3.1,3.07-5.72,6.63-5.68,3.44,.04,5.9,2.37,5.85,5.55-.05,3.49-3.05,6.75-6.15,6.68Z"/>
  <path class="cls-1" d="M46.81,21.38c0,2-1.32,3.5-2.9,3.5-2.01,.12-3.12-.83-3.21-2.64-.11-2.3,1.14-3.4,3.37-3.46,1.86-.05,2.74,.81,2.74,2.6Z"/>
</svg>