<?xml version="1.0" encoding="UTF-8"?>
<svg id="Layer_1" data-name="Layer 1" xmlns="http://www.w3.org/2000/svg" viewBox="0 0 63.7 64.22">
  <defs>
    <style>
      .cls-1 {
        fill: #784f48;
      }

      .cls-2 {
        fill: #fefefe;
      }
    </style>
  </defs>
  <path class="cls-1" d="M17.35,20.13c-1.84-.1-2.46-1.54-2.59-3.01-.16-1.73,1.42-3.02,3.3-3.01,1.55-.1,2.6,.39,2.56,2.17-.04,1.77-1.8,3.94-3.27,3.85Z"/>
  <path class="cls-1" d="M21.59,25.11c-.1,5.92-.07,11.84,0,17.76,.01,.97-.44,1.78-.52,2.7-.12,1.41-.29,2.94-2.29,2.71-1.82-.2-2.38-1.49-2.38-3.14,0-3.35,0-6.7,0-10.05s.09-6.7-.04-10.05c-.08-1.99,1-2.11,2.49-2.05,1.45,.07,2.77-.06,2.73,2.12Z"/>
  <path class="cls-1" d="M47.68,35.59c.37,3.46,.22,7.01,.03,10.51-.09,1.61-1.59,2.37-3.08,2.64-1.43,.25-1.7-1.04-2.2-1.99-.43-.82-.25-1.68-.26-2.52-.04-4.24,.21-8.5-.93-12.67-.55-1.97-1.75-2.68-3.69-1.98-2.22,.8-3.86,2.49-5.76,3.76-.63,.42-.35,.97-.36,1.46-.03,3.19-.08,6.38,0,9.57,.02,1.04-.19,1.99-.53,2.92-.36,.97-.62,2.12-2.14,1.95-1.68-.18-2.48-1.75-2.32-2.71,.95-5.61-.36-11.16-.2-16.73,.04-1.24,0-2.49,0-3.74,0-2.97,.17-3.14,3.13-3.05q1.87,.05,2.21,2.6c1.82-.93,3.32-2.34,5.51-2.67,3.69-.55,6.16,.49,8.08,3.68,1.68,2.77,2.18,5.9,2.51,8.97Z"/>
  <path class="cls-1" d="M59.71,.06C40.98,.06,22.26,.1,3.54,0,1.27,0,.34,.88,.05,2.88c-.09,.69-.03,1.4-.03,2.1V59.29c0,4.45,.47,4.93,4.87,4.93H59.65c3.29,0,4.04-.75,4.05-4.09V3.95c0-3.58-.31-3.89-3.99-3.89Zm-1.91,59.99c-17.31-.07-34.62-.07-51.92,0-1.79,.01-2.17-.48-2.16-2.19,.07-17.16,.07-34.32,0-51.47,0-1.79,.48-2.18,2.2-2.16,8.65,.09,17.3,.04,25.96,.04s17.31,.06,25.96-.04c1.79-.02,2.16,.49,2.15,2.2-.06,17.15-.07,34.31,.01,51.47,0,1.78-.49,2.16-2.2,2.15Z"/>
  <path class="cls-2" d="M17.35,20.13c-1.84-.1-2.46-1.54-2.59-3.01-.16-1.73,1.42-3.02,3.3-3.01,1.55-.1,2.6,.39,2.56,2.17-.04,1.77-1.8,3.94-3.27,3.85Z"/>
  <path class="cls-2" d="M21.59,25.11c-.1,5.92-.07,11.84,0,17.76,.01,.97-.44,1.78-.52,2.7-.12,1.41-.29,2.94-2.29,2.71-1.82-.2-2.38-1.49-2.38-3.14,0-3.35,0-6.7,0-10.05s.09-6.7-.04-10.05c-.08-1.99,1-2.11,2.49-2.05,1.45,.07,2.77-.06,2.73,2.12Z"/>
  <path class="cls-2" d="M47.71,46.1c-.09,1.61-1.59,2.37-3.08,2.64-1.43,.25-1.7-1.04-2.2-1.99-.43-.82-.25-1.68-.26-2.52-.04-4.24,.21-8.5-.93-12.67-.55-1.97-1.75-2.68-3.69-1.98-2.22,.8-3.86,2.49-5.76,3.76-.63,.42-.35,.97-.36,1.46-.03,3.19-.08,6.38,0,9.57,.02,1.04-.19,1.99-.53,2.92-.36,.97-.62,2.12-2.14,1.95-1.68-.18-2.48-1.75-2.32-2.71,.95-5.61-.36-11.16-.2-16.73,.04-1.24,0-2.49,0-3.74,0-2.97,.17-3.14,3.13-3.05q1.87,.05,2.21,2.6c1.82-.93,3.32-2.34,5.51-2.67,3.69-.55,6.16,.49,8.08,3.68,1.68,2.77,2.18,5.9,2.51,8.97,.37,3.46,.22,7.01,.03,10.51Z"/>
  <path class="cls-1" d="M47.71,46.1c-.09,1.61-1.59,2.37-3.08,2.64-1.43,.25-1.7-1.04-2.2-1.99-.43-.82-.25-1.68-.26-2.52-.04-4.24,.21-8.5-.93-12.67-.55-1.97-1.75-2.68-3.69-1.98-2.22,.8-3.86,2.49-5.76,3.76-.63,.42-.35,.97-.36,1.46-.03,3.19-.08,6.38,0,9.57,.02,1.04-.19,1.99-.53,2.92-.36,.97-.62,2.12-2.14,1.95-1.68-.18-2.48-1.75-2.32-2.71,.95-5.61-.36-11.16-.2-16.73,.04-1.24,0-2.49,0-3.74,0-2.97,.17-3.14,3.13-3.05q1.87,.05,2.21,2.6c1.82-.93,3.32-2.34,5.51-2.67,3.69-.55,6.16,.49,8.08,3.68,1.68,2.77,2.18,5.9,2.51,8.97,.37,3.46,.22,7.01,.03,10.51Z"/>
  <path class="cls-1" d="M21.59,42.87c.01,.97-.44,1.78-.52,2.7-.12,1.41-.29,2.94-2.29,2.71-1.82-.2-2.38-1.49-2.38-3.14,0-3.35,0-6.7,0-10.05s.09-6.7-.04-10.05c-.08-1.99,1-2.11,2.49-2.05,1.45,.07,2.77-.06,2.73,2.12-.1,5.92-.07,11.84,0,17.76Z"/>
  <path class="cls-1" d="M20.62,16.28c-.04,1.77-1.8,3.94-3.27,3.85-1.84-.1-2.46-1.54-2.59-3.01-.16-1.73,1.42-3.02,3.3-3.01,1.55-.1,2.6,.39,2.56,2.17Z"/>
</svg>