<?xml version="1.0" encoding="UTF-8"?>
<svg id="Layer_1" data-name="Layer 1" xmlns="http://www.w3.org/2000/svg" viewBox="0 0 64.65 64.19">
  <defs>
    <style>
      .cls-1 {
        fill: #784f48;
      }

      .cls-2 {
        fill: #fefefe;
      }
    </style>
  </defs>
  <path class="cls-1" d="M51.23,18.32c-11.38-.04-22.76-.07-34.14,0-3.43,.02-5.3,2.17-5.3,5.59v18.25c.01,3.82,1.32,5.15,5.11,5.16,5.69,.01,11.38,0,17.07,0h16.6c3.28,0,3.77-.49,3.77-3.91,0-7.25,0-14.5,0-21.75,0-2.27-.91-3.35-3.11-3.35Zm-5.12,4.36c-4.18,2.58-7.96,4.91-11.75,7.23-.52,.31-.91,.37-1.58-.08-3.47-2.37-7.05-4.58-11.05-7.15h24.38Zm2.82,20.93c-10.61-.05-21.22-.05-31.83,.01-1.38,0-1.66-.48-1.65-1.75,.06-6,.03-12.01,.03-18.49,2.82,1.78,5.44,3.38,8,5.05,3.02,1.96,6.07,3.9,8.98,6.01,1.2,.88,2.01,.23,2.84-.27,4.65-2.83,9.26-5.72,13.9-8.58,.37-.23,.8-.37,1.4-.65,0,5.91-.04,11.44,.03,16.98,.02,1.34-.38,1.7-1.7,1.69Z"/>
  <path class="cls-1" d="M61.03,.03h-29.02C22.11,.03,12.2,.06,2.29,0,.57,0,0,.5,0,2.26,.05,21.38,.02,40.49,.03,59.61c0,2.99,1.67,4.58,4.68,4.58H60.41c3.43,0,4.23-.8,4.24-4.19V3.59C64.65,.04,64.65,.03,61.03,.03Zm.37,58.05c0,1.52-.4,1.95-1.93,1.93-8.97-.07-17.93-.03-26.9-.03s-17.93-.04-26.89,.03c-1.53,.02-1.95-.4-1.94-1.93,.05-17.47,.05-34.94,0-52.4,0-1.53,.4-1.94,1.93-1.94,17.93,.05,35.86,.05,53.8,0,1.52,0,1.94,.4,1.93,1.93-.05,17.47-.05,34.94,0,52.41Z"/>
  <path class="cls-2" d="M51.23,18.32c-11.38-.04-22.76-.07-34.14,0-3.43,.02-5.3,2.17-5.3,5.59v18.25c.01,3.82,1.32,5.15,5.11,5.16,5.69,.01,11.38,0,17.07,0h16.6c3.28,0,3.77-.49,3.77-3.91,0-7.25,0-14.5,0-21.75,0-2.27-.91-3.35-3.11-3.35Zm-5.12,4.36c-4.18,2.58-7.96,4.91-11.75,7.23-.52,.31-.91,.37-1.58-.08-3.47-2.37-7.05-4.58-11.05-7.15h24.38Zm2.82,20.93c-10.61-.05-21.22-.05-31.83,.01-1.38,0-1.66-.48-1.65-1.75,.06-6,.03-12.01,.03-18.49,2.82,1.78,5.44,3.38,8,5.05,3.02,1.96,6.07,3.9,8.98,6.01,1.2,.88,2.01,.23,2.84-.27,4.65-2.83,9.26-5.72,13.9-8.58,.37-.23,.8-.37,1.4-.65,0,5.91-.04,11.44,.03,16.98,.02,1.34-.38,1.7-1.7,1.69Z"/>
  <path class="cls-1" d="M51.23,18.32c-11.38-.04-22.76-.07-34.14,0-3.43,.02-5.3,2.17-5.3,5.59v18.25c.01,3.82,1.32,5.15,5.11,5.16,5.69,.01,11.38,0,17.07,0h16.6c3.28,0,3.77-.49,3.77-3.91,0-7.25,0-14.5,0-21.75,0-2.27-.91-3.35-3.11-3.35Zm-5.12,4.36c-4.18,2.58-7.96,4.91-11.75,7.23-.52,.31-.91,.37-1.58-.08-3.47-2.37-7.05-4.58-11.05-7.15h24.38Zm2.82,20.93c-10.61-.05-21.22-.05-31.83,.01-1.38,0-1.66-.48-1.65-1.75,.06-6,.03-12.01,.03-18.49,2.82,1.78,5.44,3.38,8,5.05,3.02,1.96,6.07,3.9,8.98,6.01,1.2,.88,2.01,.23,2.84-.27,4.65-2.83,9.26-5.72,13.9-8.58,.37-.23,.8-.37,1.4-.65,0,5.91-.04,11.44,.03,16.98,.02,1.34-.38,1.7-1.7,1.69Z"/>
</svg>