<?xml version="1.0" encoding="UTF-8"?>
<svg xmlns="http://www.w3.org/2000/svg" viewBox="0 0 196.87 221.19">
  <defs>
    <style>
      .cls-1 {
        fill: #a67773;
      }

      .cls-2 {
        fill: #fff;
        font-family: ArialMT, Arial;
        font-size: 18px;
      }

      .cls-3 {
        fill: #d0b6a4;
      }

      .cls-4 {
        fill: #9fb571;
      }

      .cls-5 {
        fill: #ba9288;
      }

      .cls-6 {
        fill: #785049;
      }

      .cls-7 {
        fill: #b6d080;
      }
    </style>
  </defs>
  <g id="Layer_3" data-name="Layer 3">
    <g>
      <path class="cls-1" d="M32.4,144.4c0-1.3,.01-2.61,.02-3.91,.51,.32,.37,1.49,1.26,1.21,.87-.27,1.37-1,1.28-2.02-.04-.38,0-.76,0-1.14,0-31.7,.01-63.41-.04-95.11,0-1.68,.46-2.05,2.07-2.04,15.04,.06,30.07,.02,45.11,.06,1.5,0,2.15-.44,1.86-1.95,.57,0,1.13,.01,1.7,.02-.07,1.48,.68,1.98,2.1,1.93,2.22-.08,4.44,.08,6.65-.05,1.6-.1,1.95,.46,1.95,1.99-.05,24.2-.03,48.39-.03,72.59,0,.43,0,.87,0,1.3,0,.74,.35,1.31,1.09,1.38,.72,.07,1.24-.44,1.4-1.12,.13-.57,.1-1.18,.11-1.77,0-24.14,.01-48.29-.02-72.43,0-1.39,.22-1.96,1.82-1.95,19.7,.06,39.4,.06,59.1,0,1.43,0,1.84,.37,1.81,1.81-.1,4.22-.05,8.44-.02,12.67,0,1.2,.32,2.19,1.9,1.77,0,.67,0,1.34,0,2-1.71,.23-1.92,1.43-1.92,2.84,0,31.68,0,63.36,0,95.04,0,.22-.01,.43,0,.65,.09,1.12,.57,1.85,1.83,1.74,.05,.77,.1,1.54,.15,2.3-1.45,.27-2.09,1.07-2,2.61,.11,1.83-.04,3.68,.05,5.52,.06,1.23-.28,1.61-1.6,1.71-1.88,.15-3.51-.76-5.37-.75-17.96,.08-35.92,.03-53.88,.08-1.51,0-1.9-.42-1.88-1.9,.08-6.38,.03-12.77,.03-19.15,0-9.52,0-19.05,0-28.57,0-.72,.2-1.7-.95-1.68-1.03,.01-1.75,.52-1.64,1.73,.03,.38,0,.76,0,1.14,0,15.48-.03,30.95,.04,46.43,0,1.71-.51,2.03-2.09,2.02-10.82-.07-21.64-.02-32.46-.05-1.23,0-2.03,.22-1.89,1.66h-1.23c.1-1.25-.45-1.68-1.72-1.67-6.81,.05-13.61,0-20.42,.05-1.3,.01-1.64-.38-1.63-1.65,.05-7.89,.03-15.77,.03-23.66,0-2.1-.48-2.41-2.54-1.67Zm97.56-39.31c-5.62,0-11.24,0-16.86,0-.66,0-1.44-.03-1.7,.65-.28,.74,.37,1.27,.83,1.8,.4,.45,.92,.49,1.48,.49,10.92,0,21.84-.02,32.76,.01,1.38,0,1.65-.96,1.75-1.87,.15-1.26-.93-1.06-1.71-1.06-5.51,0-11.03,0-16.54,0Zm-62.92-22.09c-5.51,0-11.02,0-16.53,0-.64,0-1.42-.13-1.55,.76-.11,.8,.23,1.5,1.01,1.85,.38,.17,.83,.28,1.24,.28,10.7,.01,21.39,0,32.09,.02,1.33,0,1.88-.85,1.92-1.93,.04-1.27-1.06-.96-1.81-.96-5.46-.02-10.91-.01-16.37,0Zm63.14-21.44c-6.22,0-12.44,0-18.66,0-.63,0-1.47-.13-1.49,.8-.01,.77,.45,1.45,1.24,1.73,.29,.1,.64,.06,.96,.06,12.12,0,24.23-.01,36.35,.02,1.23,0,1.9-.49,1.91-1.64,.01-1.28-1.07-.97-1.82-.97-6.17-.02-12.33,0-18.5,0Zm-62.44,86.07c-5.41,0-10.82,0-16.22,0-.86,0-1.8,.05-1.87,1.08-.07,1.04,.71,1.62,1.72,1.82,.21,.04,.43,.02,.65,.02,10.55,0,21.09-.02,31.64,.03,1.44,0,1.81-.89,1.9-1.9,.11-1.26-.97-1.04-1.75-1.04-5.35-.01-10.71,0-16.06,0Zm-1.3-21.44c-5.25,0-10.49,0-15.74,0-.74,0-1.68-.08-1.74,.97-.06,.96,.55,1.61,1.49,1.87,.31,.08,.64,.08,.96,.08,10.11,0,20.23-.02,30.34,.03,1.47,0,1.77-.86,1.84-1.9,.09-1.27-.98-1.04-1.75-1.04-5.14-.01-10.28,0-15.42,0Zm61.37-.32c-4.7,0-9.41,0-14.11,0-.71,0-1.63-.02-1.69,.82-.06,.84,.44,1.66,1.37,2,.25,.09,.53,.1,.8,.1,9.52,0,19.03,0,28.55,0,.5,0,1.04,0,1.23-.56,.2-.58,.13-1.13-.32-1.66-.56-.67-1.26-.72-2.04-.71-4.6,.02-9.19,0-13.79,0ZM70.66,60.26c-4.33,0-8.66,.05-12.98-.03-1.21-.02-1.78,.53-1.82,1.53-.05,1.17,.78,1.44,1.86,1.44,8.49-.03,16.99-.05,25.48,.02,1.37,.01,1.98-.6,1.99-1.73,.01-1.3-1.1-1.23-2.03-1.23-4.17,0-8.33,0-12.5,0Zm68.84,22.41c-3.02,0-6.05,.03-9.07-.01-1.17-.02-1.26,.84-1.42,1.61-.16,.8,.38,1.01,1.07,1,6.1,0,12.2,0,18.3,0,1.08,0,1.4-.74,1.47-1.57,.09-1.02-.71-1.03-1.45-1.03-2.97,0-5.94,0-8.91,0Zm-.15,67.56c2.65,0,5.3-.04,7.95,.02,1.36,.03,1.4-.99,1.58-1.84,.15-.72-.32-1.1-1.05-1.1-5.3,0-10.61-.02-15.91,0-1.32,0-1.26,1.24-1.41,2.02-.17,.92,.71,.88,1.36,.89,2.49,0,4.98,0,7.47,0Zm-65.43-45.79c-2.43,0-4.86,.04-7.29-.02-1.3-.03-1.73,.7-1.78,1.79-.06,1.23,.85,1.16,1.68,1.15,2.38,0,4.75,0,7.13,0,2.38,0,4.75-.02,7.13,0,1.41,.01,1.75-1.05,1.81-2.05,.06-1.16-1.01-.86-1.71-.87-2.32-.03-4.65-.01-6.97-.01Zm47.61,42.87c-2.05,0-4.1-.02-6.14,0-.76,0-1.84-.27-1.79,.99,.04,1.01,.54,1.91,1.76,1.91,4.2,.02,8.41,0,12.61,0,1.09,0,1.63-.75,1.67-1.62,.04-.92-.65-1.34-1.64-1.32-2.15,.05-4.31,.02-6.47,.02Zm-2.87-64.63c-2.43,0-4.86,0-7.29,0-.61,0-1.27-.01-1.37,.78-.08,.68,.2,1.31,.78,1.67,.29,.18,.73,.14,1.1,.14,4.7,0,9.4,0,14.1,0,.85,0,1.76-.05,1.7-1.18-.05-.97-.62-1.48-1.73-1.44-2.43,.08-4.86,.02-7.29,.02Zm-62.34,21.76c-1.94,0-3.88,0-5.82,0-.53,0-1.13-.11-1.44,.48-.3,.57,.15,1.02,.37,1.49,.34,.73,.97,.95,1.72,.95,3.66,0,7.33,0,10.99,0,1.01,0,1.7-.37,1.7-1.47,0-1.1-.69-1.47-1.7-1.47-1.94,.02-3.88,0-5.82,0Zm-5.55-44.16s0,0,0-.01c-.59,0-1.18-.03-1.77,0-.74,.05-1.68,0-1.65,1.05,.03,.87,.47,1.75,1.49,1.83,1.33,.1,2.68,.06,4.02,.01,.73-.03,1.23-.5,1.21-1.24-.02-.77-.27-1.53-1.21-1.62-.69-.07-1.39-.01-2.09-.01Zm97.2,65.64c-1.46-.11-2.79-.24-2.85,1.37-.05,1.46,1.11,1.53,2.28,1.54,1.3,0,2.44-.06,2.49-1.72,.05-1.77-1.35-1.05-1.92-1.18Z"/>
      <path class="cls-5" d="M58.68,172.99c.41,0,.82,0,1.23,0,.2,1.22,.87,1.63,2.13,1.63,32.93,.08,65.86-.25,98.79,.22,3.91,.06,7.87-.14,11.8-.27,1.27-.04,1.66,.31,1.64,1.62-.06,7.74,0,15.47-.05,23.21,0,1.42,.46,2.16,1.93,2.1,.02,.33,.04,.65,.06,.98-1.46,.08-1.92,1.06-1.95,2.3-.05,1.68-.01,3.35-.01,5.03q0,2.14-2.2,2.14c-39.92,0-79.83,0-119.75-.03-1.55,0-2.21,.48-2.14,1.99-.4,0-.81,0-1.21,0,.07-1.58-.77-1.99-2.24-1.98-7.46,.05-14.93,0-22.39,.05-1.31,.01-1.77-.29-1.75-1.69,.09-4.7,.03-9.41,.03-14.12,0-4.26-.1-8.52,.31-12.77,.07-.77,.07-1.57-1.01-1.7,0-.41,0-.82,0-1.22,.85-.07,1.03-.62,1.01-1.36-.02-.92,.08-1.85-.03-2.75-.17-1.42,.32-1.82,1.77-1.81,10.47,.07,20.95,.02,31.42,.05,1.27,0,2.22-.29,2.58-1.62Z"/>
      <path class="cls-5" d="M85.65,39.52c-.57,0-1.13-.01-1.7-.02-.96-.79-2.08-1.01-3.31-1.01-16.32,.02-32.64,.01-48.96,.01-2.7,0-5.41-.03-8.11,.02-.97,.02-1.32-.27-1.31-1.28,.05-4.27,.04-8.54,0-12.81,0-.92,.31-1.23,1.22-1.2,1.94,.05,3.9-.07,5.83,.04,1.4,.08,2.29-.38,2.74-1.69,.5-.01,.99-.02,1.49-.04,.88,1.23,2.02,1.72,3.58,1.72,19.47-.04,38.93-.03,58.4-.03,12.11,0,24.22,0,36.34,0,1.49,0,2.64-.44,3.12-1.98,.54,0,1.07,.02,1.61,.03-.17,1.87,1.09,1.94,2.42,1.94,11.3,0,22.6,.02,33.9-.03,1.36,0,1.73,.39,1.7,1.73-.09,3.84-.03,7.68-.03,11.52q0,2.05-2.11,2.05c-28.11,0-56.23,0-84.34-.01-1,0-1.95-.04-2.48,1.02Z"/>
      <path class="cls-3" d="M48.95,213.91c.4,0,.81,0,1.21,0,.22,1.31,1.26,.95,2.05,.95,26.54,.01,53.09,.01,79.63,.01,14.38,0,28.76-.02,43.14,.02,1.36,0,1.95-.31,1.9-1.8-.1-2.97-.04-5.95-.04-8.92,0-.64,.11-1.33-.63-1.69-.02-.33-.04-.65-.06-.98,.62-.75,.7-1.63,.7-2.57-.02-7.94-.03-15.88,0-23.82,0-1.09-.04-2.13-.74-3.03,1.66-.09,3.26-.73,4.98-.01,1.1,.46,1.27,1.06,1.27,2.08-.03,9.52-.02,19.04-.02,28.57,0,4-.07,8.01,.04,12.01,.04,1.41-.4,2.63-.81,3.89-.6,1.83-2.06,2.43-3.86,2.43-3.46,0-6.98,.38-10.38-.07-9.19-1.23-18.39-.49-27.58-.52-38.13-.13-76.27-.05-114.4-.05-3.37,0-4.71-1.25-5.04-4.73-.03-.27,0-.54,0-.81,9.07,0,18.13,.01,27.2,.01,.68,0,1.49,.17,1.41-.96Z"/>
      <path class="cls-3" d="M163.57,162.22c-.05-.77-.1-1.54-.14-2.3,.3-.72,.8-1.29,.8-2.21-.04-32.06-.04-64.12-.02-96.18,0-.76-.2-1.36-.71-1.88,0-.67,0-1.34,0-2,.59-.56,.71-1.25,.7-2.05-.03-4.27,.02-8.55-.04-12.82-.01-1.07,.32-1.38,1.38-1.36,3.03,.06,6.06-.04,9.09,.05,1.32,.04,1.96-.62,2.16-1.69,.2-1.1,.43-2.19,.41-3.34-.06-4.71-.09-9.42,.01-14.12,.03-1.58-.48-2.2-2.01-2.03,1.13-.57,2.36-.4,3.47-.2,1.04,.19,1.81,.87,1.78,2.27-.08,5.46-.02,10.93-.04,16.39,0,2.53-.65,4.84-2.23,6.89-.48,.62-1.02,1.01-1.74,.98-1.58-.07-3.11,.25-4.67,.32-.85,.04-1.19,.32-1.1,1.15,.02,.21,0,.43,0,.65,0,40.58,0,81.15,0,121.73,0,.49,.03,.97,.04,1.46-1.77,.02-3.54,0-5.31,.08-1.04,.05-1.26-.39-1.24-1.32,.05-2.25,.02-4.51,.02-6.77,0-.64,.12-1.32-.62-1.68Z"/>
      <path class="cls-6" d="M175.2,20.27c1.53-.17,2.05,.45,2.01,2.03-.1,4.71-.07,9.42-.01,14.12,.01,1.15-.21,2.25-.41,3.34-.2,1.07-.84,1.73-2.16,1.69-3.03-.09-6.06,.01-9.09-.05-1.05-.02-1.39,.29-1.38,1.36,.06,4.27,0,8.55,.04,12.82,0,.8-.11,1.49-.7,2.05-1.58,.42-1.89-.57-1.9-1.77-.02-4.22-.07-8.45,.02-12.67,.03-1.44-.38-1.81-1.81-1.81-19.7,.05-39.4,.05-59.1,0-1.6,0-1.83,.57-1.82,1.95,.03,24.14,.03,48.29,.02,72.43,0,.59,.03,1.2-.11,1.77-.16,.68-.68,1.19-1.4,1.12-.74-.07-1.08-.64-1.09-1.38,0-.43,0-.87,0-1.3,0-24.2-.01-48.39,.03-72.59,0-1.54-.35-2.09-1.95-1.99-2.21,.14-4.44-.02-6.65,.05-1.42,.05-2.17-.45-2.1-1.93,.53-1.06,1.48-1.02,2.48-1.02,28.11,.01,56.23,.01,84.34,.01q2.11,0,2.11-2.05c0-3.84-.06-7.68,.03-11.52,.03-1.34-.34-1.73-1.7-1.73-11.3,.05-22.6,.03-33.9,.03-1.33,0-2.59-.08-2.42-1.94,.42-.96,1.22-1,2.14-1,11.56,.02,23.13,.02,34.69,.01,.59,0,1.19-.03,1.78-.04Z"/>
      <path class="cls-6" d="M163.57,162.22c.74,.37,.62,1.05,.62,1.68,0,2.26,.03,4.51-.02,6.77-.02,.93,.2,1.37,1.24,1.32,1.77-.09,3.54-.06,5.31-.08,1.8,.06,3.61,.12,5.41,.17,.7,.9,.74,1.93,.74,3.03-.03,7.94-.02,15.88,0,23.82,0,.94-.08,1.82-.7,2.57-1.47,.06-1.94-.68-1.93-2.1,.04-7.74,0-15.48,.05-23.21,.01-1.3-.38-1.66-1.64-1.62-3.93,.13-7.88,.32-11.8,.27-32.93-.47-65.86-.14-98.79-.22-1.27,0-1.93-.42-2.13-1.63-.14-1.44,.66-1.66,1.89-1.66,10.82,.03,21.64-.01,32.46,.05,1.58,0,2.1-.31,2.09-2.02-.08-15.47-.04-30.95-.04-46.43,0-.38,.03-.76,0-1.14-.11-1.21,.62-1.71,1.64-1.73,1.16-.01,.95,.96,.95,1.68,0,9.52,0,19.05,0,28.57,0,6.38,.04,12.77-.03,19.15-.02,1.48,.37,1.9,1.88,1.9,17.96-.05,35.92,0,53.88-.08,1.86,0,3.49,.9,5.37,.75,1.31-.1,1.66-.48,1.6-1.71-.09-1.84,.06-3.68-.05-5.52-.09-1.54,.55-2.34,2-2.61Z"/>
      <path class="cls-6" d="M32.06,21.58c-.45,1.31-1.34,1.77-2.74,1.69-1.94-.12-3.89,0-5.83-.04-.91-.02-1.23,.28-1.22,1.2,.04,4.27,.04,8.54,0,12.81-.01,1.01,.33,1.3,1.31,1.28,2.7-.05,5.4-.02,8.11-.02,16.32,0,32.64,0,48.96-.01,1.23,0,2.34,.22,3.31,1.01,.28,1.52-.37,1.96-1.86,1.95-15.04-.04-30.07,0-45.11-.06-1.62,0-2.08,.36-2.07,2.04,.06,31.7,.04,63.41,.04,95.11,0,.38-.03,.76,0,1.14,.1,1.01-.41,1.74-1.28,2.02-.89,.28-.74-.89-1.26-1.21-.02-.65-.06-1.29-.06-1.94,0-31.74-.02-63.49,.04-95.23,0-1.57-.36-2-1.93-1.92-2.8,.14-5.62,.05-8.43,.04-1.98,0-2.75-.96-2.38-2.88,.08-.42,.04-.86,.04-1.29,0-4.87,0-9.73,0-14.6,0-1.59,.61-2.3,2.15-2.32,2.65-.04,5.3,0,7.95-.02,1.01,0,1.64,.63,2.28,1.27Z"/>
      <path class="cls-6" d="M134.98,21.27c-.48,1.54-1.63,1.98-3.12,1.98-12.11-.01-24.22,0-36.34,0-19.47,0-38.93-.01-58.4,.03-1.55,0-2.7-.49-3.58-1.72,.43-.95,1.18-1.24,2.2-1.24,32.57,.01,65.14,.01,97.71,0,.73,0,1.45-.06,1.52,.96Z"/>
      <path class="cls-6" d="M58.68,172.99c-.36,1.34-1.31,1.63-2.58,1.62-10.47-.03-20.95,.01-31.42-.05-1.45,0-1.94,.39-1.77,1.81,.11,.91,0,1.83,.03,2.75,.02,.74-.17,1.28-1.01,1.36-1.61,.22-2.07-.55-1.94-2.05,.11-1.29,.02-2.59,.02-3.88,0-1.71,.78-2.54,2.48-2.56,2.7-.03,5.4-.09,8.09,.01,1.47,.06,1.8-.47,1.8-1.86-.04-8.58,0-17.16,.02-25.74,2.07-.74,2.54-.44,2.54,1.67,0,7.89,.03,15.78-.03,23.66,0,1.27,.33,1.66,1.63,1.65,6.81-.06,13.61,0,20.42-.05,1.27,0,1.82,.41,1.72,1.67Z"/>
      <path class="cls-6" d="M48.95,213.91c.08,1.13-.73,.96-1.41,.96-9.07,0-18.13,0-27.2-.01-.82-1.76-.31-3.63-.33-5.43-.08-8.55,0-17.1-.03-25.66,0-1.43,.45-2.16,1.93-2.07,1.07,.13,1.08,.93,1.01,1.7-.41,4.25-.31,8.51-.31,12.77,0,4.71,.05,9.41-.03,14.12-.03,1.4,.44,1.7,1.75,1.69,7.46-.06,14.93,0,22.39-.05,1.46,0,2.3,.4,2.24,1.98Z"/>
      <path class="cls-6" d="M163.49,59.64c.51,.53,.71,1.12,.71,1.88-.02,32.06-.02,64.12,.02,96.18,0,.91-.5,1.49-.8,2.21-1.26,.11-1.74-.62-1.83-1.74-.02-.21,0-.43,0-.65,0-31.68,0-63.36,0-95.04,0-1.41,.21-2.61,1.92-2.84Z"/>
      <path class="cls-6" d="M129.96,105.09c5.51,0,11.03,0,16.54,0,.78,0,1.86-.19,1.71,1.06-.1,.91-.38,1.88-1.75,1.87-10.92-.03-21.84-.02-32.76-.01-.56,0-1.08-.03-1.48-.49-.46-.52-1.11-1.06-.83-1.8,.26-.68,1.04-.65,1.7-.65,5.62,0,11.24,0,16.86,0Z"/>
      <path class="cls-6" d="M67.04,83c5.46,0,10.91,0,16.37,.01,.75,0,1.86-.3,1.81,.96-.04,1.09-.6,1.93-1.92,1.93-10.7,0-21.39,0-32.09-.02-.42,0-.86-.11-1.24-.28-.78-.35-1.12-1.05-1.01-1.85,.13-.89,.91-.76,1.55-.76,5.51,0,11.02,0,16.53,0Z"/>
      <path class="cls-6" d="M130.18,61.56c6.17,0,12.33,0,18.5,0,.75,0,1.83-.31,1.82,.97,0,1.15-.68,1.64-1.91,1.64-12.12-.04-24.23-.02-36.35-.02-.32,0-.67,.04-.96-.06-.79-.28-1.25-.96-1.24-1.73,.01-.93,.85-.79,1.49-.8,6.22,0,12.44,0,18.66,0Z"/>
      <path class="cls-6" d="M67.74,147.63c5.35,0,10.71,0,16.06,0,.77,0,1.86-.21,1.75,1.04-.09,1.01-.46,1.91-1.9,1.9-10.55-.05-21.09-.03-31.64-.03-.22,0-.44,.02-.65-.02-1-.2-1.79-.79-1.72-1.82,.07-1.03,1.01-1.08,1.87-1.08,5.41,0,10.82,0,16.22,0Z"/>
      <path class="cls-6" d="M66.44,126.2c5.14,0,10.28,0,15.42,0,.77,0,1.83-.23,1.75,1.04-.07,1.04-.37,1.91-1.84,1.9-10.11-.06-20.23-.03-30.34-.03-.32,0-.66,0-.96-.08-.94-.26-1.55-.91-1.49-1.87,.06-1.05,1-.97,1.74-.97,5.25-.01,10.49,0,15.74,0Z"/>
      <path class="cls-6" d="M127.81,125.87c4.6,0,9.19,0,13.79,0,.78,0,1.48,.05,2.04,.71,.44,.53,.52,1.08,.32,1.66-.19,.55-.73,.56-1.23,.56-9.52,0-19.03,0-28.55,0-.27,0-.55-.01-.8-.1-.92-.34-1.43-1.16-1.37-2,.06-.84,.98-.82,1.69-.82,4.7,0,9.41,0,14.11,0Z"/>
      <path class="cls-6" d="M70.66,60.26c4.17,0,8.33,0,12.5,0,.94,0,2.05-.07,2.03,1.23-.01,1.13-.62,1.74-1.99,1.73-8.49-.07-16.99-.05-25.48-.02-1.08,0-1.91-.27-1.86-1.44,.04-1,.61-1.55,1.82-1.53,4.33,.08,8.66,.03,12.98,.03Z"/>
      <path class="cls-6" d="M139.5,82.68c2.97,0,5.94,0,8.91,0,.74,0,1.53,0,1.45,1.03-.07,.83-.39,1.58-1.47,1.57-6.1,0-12.2,0-18.3,0-.69,0-1.23-.2-1.07-1,.15-.77,.24-1.62,1.42-1.61,3.02,.04,6.05,.01,9.07,.01Z"/>
      <path class="cls-6" d="M139.34,150.23c-2.49,0-4.98,0-7.47,0-.65,0-1.53,.04-1.36-.89,.14-.79,.08-2.02,1.41-2.02,5.3-.02,10.61,0,15.91,0,.73,0,1.2,.37,1.05,1.1-.18,.85-.22,1.87-1.58,1.84-2.65-.06-5.3-.02-7.95-.02Z"/>
      <path class="cls-6" d="M73.91,104.44c2.32,0,4.65-.02,6.97,.01,.69,0,1.77-.29,1.71,.87-.05,1-.39,2.06-1.81,2.05-2.38-.02-4.75,0-7.13,0-2.38,0-4.75,0-7.13,0-.83,0-1.74,.08-1.68-1.15,.05-1.09,.48-1.82,1.78-1.79,2.43,.06,4.86,.02,7.29,.02Z"/>
      <path class="cls-6" d="M121.52,147.31c2.16,0,4.31,.04,6.47-.02,.99-.02,1.68,.4,1.64,1.32-.04,.87-.58,1.62-1.67,1.62-4.2,0-8.41,.01-12.61,0-1.23,0-1.73-.9-1.76-1.91-.05-1.26,1.04-.98,1.79-.99,2.05-.03,4.1,0,6.14,0Z"/>
      <path class="cls-6" d="M118.65,82.68c2.43,0,4.86,.05,7.29-.02,1.11-.04,1.68,.47,1.73,1.44,.06,1.13-.85,1.18-1.7,1.18-4.7,0-9.4,0-14.1,0-.37,0-.81,.04-1.1-.14-.58-.36-.87-.98-.78-1.67,.1-.8,.76-.78,1.37-.78,2.43,0,4.86,0,7.29,0Z"/>
      <path class="cls-6" d="M56.31,104.44c1.94,0,3.88,.01,5.82,0,1.01,0,1.7,.37,1.7,1.47,0,1.1-.69,1.47-1.7,1.47-3.66-.01-7.33,0-10.99,0-.75,0-1.38-.22-1.72-.95-.22-.47-.67-.92-.37-1.49,.31-.58,.91-.47,1.44-.48,1.94,0,3.88,0,5.82,0Z"/>
      <path class="cls-6" d="M50.76,60.28c.7,0,1.4-.05,2.09,.01,.95,.09,1.2,.85,1.21,1.62,.02,.74-.49,1.22-1.21,1.24-1.34,.05-2.69,.09-4.02-.01-1.02-.08-1.46-.96-1.49-1.83-.03-1.05,.91-1,1.65-1.05,.59-.04,1.18,0,1.77,0,0,0,0,0,0,.01Z"/>
      <path class="cls-6" d="M147.96,125.92c.57,.13,1.97-.58,1.92,1.18-.04,1.66-1.19,1.73-2.49,1.72-1.18,0-2.34-.08-2.28-1.54,.06-1.61,1.39-1.48,2.85-1.37Z"/>
      <path class="cls-6" d="M176.22,202.48c.74,.37,.63,1.05,.63,1.69,0,2.97-.06,5.95,.04,8.92,.05,1.49-.54,1.8-1.9,1.8-14.38-.04-28.76-.02-43.14-.02-26.54,0-53.09,0-79.63-.01-.79,0-1.83,.37-2.05-.95-.07-1.51,.58-2,2.14-1.99,39.92,.04,79.83,.03,119.75,.03q2.2,0,2.2-2.14c0-1.68-.04-3.36,.01-5.03,.04-1.24,.5-2.22,1.95-2.3Z"/>
    </g>
  </g>
  <g id="Layer_1" data-name="Layer 1">
    <text class="cls-2" transform="translate(69.46 198.8)"><tspan x="0" y="0">Coding</tspan></text>
    <g>
      <path class="cls-4" d="M163.97,12.89c.33,.14,.65,.27,.98,.41-.23,1.35,.08,2.57,.64,3.83,.9,2.04,.15,3.56-2.13,4.88-.42,.24-.88,.39-1.31,.62-.9,.5-.99,1.19-.44,2.01-.09,.55-.53,.75-.98,.94-1.38-.19-2.57,.31-3.82,.87-3.9,1.75-7.99,2.54-12.24,1.79-1.3-.23-2.31-.06-3.17,.92-.41-.03-.82-.05-1.23-.08-.42-.68-.8-1.42-1.68-1.64-2.68-.67-4.85-2.31-7.03-3.88-1.15-.82-1.94-.64-2.74,.38-1.2,1.53-2.75,2.68-4.21,3.92-.53-.15-1.05-.3-1.58-.45,.15-1.18-.37-1.95-1.44-2.41-1-.43-1.74-.07-2.5,.58-2.93,2.49-5.47,2.13-7.62-1.03-.24-.36-.44-.75-.7-1.09-.72-.95-1.34-.98-2.07-.04-.53,.68-1.01,1.39-1.78,1.85-1.45,.86-2.86,.96-4.21-.16-.8-.67-1.53-.8-2.17,.17-1.55,2.32-5.41,2.56-8.03,.63-.26-.19-.49-.42-.73-.64q-1.43-1.31-2.22,.49c-.07,.15-.17,.28-.3,.38-.54,.03-1.07,.07-1.61,.1-1.27,0-1.89-1.07-2.74-1.73-1.35-1.04-1.79-1.15-3,.07-1.5,1.51-3.26,2.72-4.73,4.26-.65-.03-1.23,.52-1.91,.25-.43-.91-1.1-1.5-2.03-1.95-1.87-.89-3.44-2.11-4.41-4.07-1.02-2.06-1.73-2.04-3.01-.2-.96,1.38-2.03,2.67-3.56,3.44-1.02,.51-1.47,1.54-2.29,2.21-.91-.11-1.69,.07-2.19,.92-.63-.9-1.42-1.5-2.53-1.82-1.47-.42-2.65-1.42-3.79-2.42-1.21-1.05-2.46-1.21-3.87-.44-1.97,1.08-4.03,2.01-5.8,3.43-1.65,.08-3.02-.52-4.18-1.67-.54-.82-1.25-1.37-2.16-1.81-3.54-1.68-5.17-4.72-4.33-7.88,.27-1,.68-1.92,1.7-2.41,3.24-1.81,6.82-2.5,10.42-2.81,3.86-.34,7.57-1.11,11.24-2.32,6.82-2.24,13.8-2.38,20.84-1.23,2.61,.42,5.25,.75,7.72,1.82,.96,.41,1.9,.21,2.83-.17,2-.81,4.03-1.55,6.1-2.2,3.33-1.04,6.7-1.08,10.12-.68,3.44,.4,6.87,.77,10.35,.77,2.62,0,5.2,.43,7.64,1.35,3.73,1.4,7.48,1.46,11.34,.76,3.99-.72,8.01-1.16,12.09-1.19,3.41-.02,6.68,.6,9.9,1.57,2.69,.81,5.37,1.67,7.99,2.7,.82,.57,1.7-.09,2.54,.11Z"/>
      <path class="cls-7" d="M161.66,13.23c-4.08-1.18-8.02-2.84-12.21-3.69-3.68-.74-7.37-.61-11.08-.29-3.43,.29-6.8,.96-10.2,1.4-3.9,.49-7.38-1.25-11.05-2.01-1.36-.28-2.75-.55-4.13-.56-3.99-.04-7.93-.44-11.88-.94-4.08-.52-8.05,.25-11.87,1.75-1.25,.49-2.49,1.01-3.74,1.52-.84,.34-1.68,.35-2.51,0-3.87-1.65-8-1.92-12.11-2.36-4.64-.5-9.21-.07-13.73,.99-1.1,.26-2.2,.55-3.25,.94-3.31,1.2-6.7,1.78-10.23,2.05-3.78,.29-7.5,1.22-10.99,2.84-.26-.62,.13-1.04,.5-1.42,3.61-3.78,7.91-6.09,13.25-6.12,.65,0,1.28,.08,1.91,.29,1.96,.66,6.58-.78,7.79-2.4,.37-.49,.37-1.12,.67-1.64,.71-.37,1.44-.67,2.25-.72,1.05,.45,2.12,.26,3.19,.11,2.59-.36,5.19-.48,7.69,.38,3.12,1.07,6.38,1.03,9.59,1.28,2.21,.17,4.4,.36,6.59,.72,1.04,.17,2.05,.21,3-.31,2.66-1.46,5.56-2.33,8.35-3.47l1.86-.32c.82,.76,1.89,.93,2.89,1.31,4.09,1.56,8.14,1.63,12.33,.38,1.88-.56,3.86-.14,5.71,.58,1.46,.56,2.96,1.05,4.34,1.79,1.28,.69,2.35,.63,3.34-.45,.35-.53,.87-.27,1.34-.28,.53,.47,1.07,.76,1.86,.73,1.88-.05,3.73,.23,5.52,.87,1.79,.65,2.06,.49,2.65-1.28,.33-.02,.67-.05,1-.07,.76,.82,1.63,.5,2.55,.33,4.85-.9,9.57-.72,14,1.8,1.53,.87,2.83,2,3.9,3.38,.65,.83,1.33,1.74,.95,2.94Z"/>
      <path class="cls-6" d="M56.79,3.55c.6,1.18-.04,1.99-.95,2.52-1.25,.73-2.58,1.32-3.91,1.9-1.24,.54-2.41,.64-3.81,.07-2-.83-4.12-.32-6.14,.32-3.77,1.2-7.04,3.13-9.31,6.49-2.68,3.39-1.07,8.03,3.42,9.68,1.01,.37,1.79,.73,1.56,1.99-.61,1.21-1.55,1-2.52,.55-7.67-3.54-8.16-11.59-2.13-16.89,3.57-3.13,7.86-4.88,12.61-5.34,.93-.09,2.03-.03,2.81,.4,1.44,.81,2.49,.16,3.7-.39,1.48-.67,2.89-1.69,4.68-1.31Z"/>
      <path class="cls-6" d="M89.3,26.13c-.08-.55,.08-1.05,.25-1.57,.37-1.15,.96-1.23,1.73-.41,1.12,1.2,2.31,2.18,4.01,2.52,2.1,.42,3.79-.08,5.08-1.86,.73-1.01,1.39-1.16,2.37-.28,1.83,1.65,4.07,1.21,5.39-.99,1.12-1.87,2.14-1.89,3.21-.04,.24,.42,.48,.83,.76,1.23,1.82,2.57,4.45,2.8,6.71,.58,1.53-1.5,3.68-1.15,4.65,.69,.37,.71,.16,1.07-.41,1.42-2.02-.42-3.65,.58-5.37,1.4-2.85,1.36-5.42,.55-7.34-2.12-.51-.71-.88-.97-1.75-.23-1.87,1.6-4.02,2.36-6.46,1.17-.4-.19-.79-.16-1.22,.07-5.09,2.73-7.32,2.42-11.62-1.59Z"/>
      <path class="cls-6" d="M97.44,1.54c-.22,1-1.15,1.08-1.86,1.27-1.31,.34-2.67,.67-3.74,1.41-2.7,1.87-5.58,1.91-8.56,1.19-2.07-.5-4.17-.3-6.25-.52-2.29-.24-4.58-.31-6.8-1.04-3.21-1.06-6.47-.78-9.71-.17-.88,.17-1.36,.09-1.5-.84,.99-2.62,3.45-1.87,5.34-2.21,3.35-.59,6.54,.64,9.75,1.37,1.86,.42,3.75,.3,5.6,.43,2.51,.17,5,.51,7.49,.8,.75,.09,1.3-.02,1.9-.39,1.81-1.13,3.83-1.8,5.82-2.46,1.05-.35,2.18-.32,2.5,1.16Z"/>
      <path class="cls-6" d="M127.91,4.81c-.26,1.39-1.19,1.88-2.5,1.32-1.48-.63-2.96-1.24-4.42-1.9-2.71-1.23-5.51-1.39-8.31-.54-2.86,.87-5.63,.94-8.45-.18-1.18-.47-2.46-.76-3.72-.93-.94-.12-1.19-.57-1.19-1.37,.55-1.08,1.26-1.42,2.56-1.1,1.79,.44,3.62,.8,5.34,1.46,1.52,.59,2.98,.27,4.36-.2,5.59-1.89,10.51,0,15.38,2.45,.47,.24,.55,.75,.97,.98Z"/>
      <path class="cls-6" d="M161.66,13.23c-1.52-4.68-5.32-6.68-9.65-7.7-3.39-.8-6.91-.82-10.29,.34-1.18,.4-1.47-.05-1.44-1.09,.97-1.72,2.76-2.05,4.4-2.19,5.25-.42,10.42-.02,14.81,3.28,2.3,1.73,4.4,3.78,4.48,7.01-.75,.23-1.4,1.18-2.31,.34Z"/>
      <path class="cls-6" d="M60.01,28.52c.2-1.08,.8-1.85,1.77-2.36,1.76-.92,3.03-2.34,4.05-4.01,.99-1.63,2.07-1.72,2.96,0,1.25,2.43,3.05,4.06,5.57,5.05,.73,.29,1.37,.88,.96,1.88-1.37,.99-2.69,.57-3.94-.21-1.71-1.07-3.35-2.24-4.16-4.28-1.63,1.99-3.44,3.49-5.76,4.35-.69,.25-1.11,.25-1.43-.43Z"/>
      <path class="cls-6" d="M141.52,29.17c.26-1.48,.99-1.79,2.52-1.48,4.9,1,9.56,.02,13.95-2.25,1.02-.53,1.88-.72,2.76,.15,.08,.81-.38,1.28-1.02,1.66-3.14,1.88-6.55,2.85-10.19,3.22-2.36,.24-4.67,.26-6.98-.32-.61-.15-.98-.34-1.04-.97Z"/>
      <path class="cls-6" d="M124.63,27.87c.19-1.15,1.19-1.55,1.98-2.15,1.16-.87,1.79-2.25,3.03-3.06,.54-.35,.9-.38,1.43,.01,2.53,1.87,5.05,3.78,8.21,4.57,.77,.19,1.35,.86,1.01,1.85-2.15,1.51-3.91-.11-5.8-.72-.19-.06-.34-.26-.52-.38-1.11-.71-2.14-1.76-3.35-2.04-1.3-.3-1.74,1.55-2.92,1.98-.68,.25-1.28,.74-2.02,.88-.76,.14-1.11-.17-1.05-.94Z"/>
      <path class="cls-6" d="M41.82,28.19c.38-.94,1.01-1.52,2.01-1.91,1.39-.54,2.68-1.34,3.99-2.08,1.43-.8,2.66-.44,3.81,.55,1.47,1.26,2.97,2.43,4.94,2.85,.9,.19,1.25,.94,1.25,1.84-1.05,1.18-2.3,.78-3.49,.36-1.63-.57-2.97-1.65-4.26-2.75-.69-.59-1.24-.62-2-.21-1.35,.72-2.72,1.42-4.14,2-.77,.31-1.87,1.04-2.1-.66Z"/>
      <path class="cls-6" d="M161.72,24.64c-.49-.04-1.05-.05-.99-.74,.06-.72,.36-1.32,1.08-1.64,.82-.36,1.68-.58,2.36-1.27,1.6-1.62,1.9-2.53,.71-4.47-.74-1.21-.66-2.16,.06-3.22,.54-.23,.94,0,1.27,.41,2.04,2.58,3.25,6.08,0,8.76-1.3,1.08-2.68,2.11-4.5,2.17Z"/>
      <path class="cls-6" d="M77.22,28.84c.29-1.03,.93-1.76,1.87-2.27,1.11-.6,1.8-1.68,2.73-2.49,1.41-1.24,1.92-1.21,3.27,.01,.83,.75,1.73,1.43,2.6,2.14,.16,.52,.35,1-.38,1.31-.82,.35-1.6,.54-2.39-.01-1.87-1.31-1.84-1.28-3.63,.33-.89,.8-1.79,1.67-3.15,1.62-.46-.02-.87-.04-.91-.63Z"/>
      <path class="cls-6" d="M139.26,4.85c.04,.58,.8,1.25-.03,1.72-.61,.34-1.26,.65-2.11,.26-2.05-.95-4.24-1.35-6.51-1.06-.91,.11-1.49-.18-1.36-1.24,1.22-2.31,3.39-1.34,5.13-1.26,1.69,.07,3.4,.64,4.89,1.58Z"/>
    </g>
  </g>
</svg>