<?xml version="1.0" encoding="UTF-8"?>
<svg xmlns="http://www.w3.org/2000/svg" viewBox="0 0 196.87 226.26">
  <defs>
    <style>
      .cls-1 {
        fill: #cfe6ee;
      }

      .cls-2 {
        fill: #bbadaf;
      }

      .cls-3 {
        fill: #93a668;
      }

      .cls-4 {
        fill: #a67773;
      }

      .cls-5 {
        fill: #a77975;
      }

      .cls-6 {
        fill: #ac8381;
      }

      .cls-7 {
        fill: #bfa49e;
      }

      .cls-8 {
        fill: #fff;
        font-family: ArialMT, Arial;
        font-size: 18px;
      }

      .cls-9 {
        fill: #d0b6a4;
      }

      .cls-10 {
        fill: #9fb571;
      }

      .cls-11 {
        fill: #ba9288;
      }

      .cls-12 {
        fill: #bb9389;
      }

      .cls-13 {
        fill: #785049;
      }

      .cls-14 {
        fill: #b6d080;
      }

      .cls-15 {
        fill: #b08e8c;
      }
    </style>
  </defs>
  <g id="Layer_3" data-name="Layer 3">
    <g>
      <path class="cls-4" d="M32.4,149.47c0-1.3,.01-2.61,.02-3.91,.51,.32,.37,1.49,1.26,1.21,.87-.27,1.37-1,1.28-2.02-.04-.38,0-.76,0-1.14,0-31.7,.01-63.41-.04-95.11,0-1.68,.46-2.05,2.07-2.04,15.04,.06,30.07,.02,45.11,.06,1.5,0,2.15-.44,1.86-1.95,.57,0,1.13,.01,1.7,.02-.07,1.48,.68,1.98,2.1,1.93,2.22-.08,4.44,.08,6.65-.05,1.6-.1,1.95,.46,1.95,1.99-.05,24.2-.03,48.39-.03,72.59,0,.43,0,.87,0,1.3,0,.74,.35,1.31,1.09,1.38,.72,.07,1.24-.44,1.4-1.12,.13-.57,.1-1.18,.11-1.77,0-24.14,.01-48.29-.02-72.43,0-1.39,.22-1.96,1.82-1.95,19.7,.06,39.4,.06,59.1,0,1.43,0,1.84,.37,1.81,1.81-.1,4.22-.05,8.44-.02,12.67,0,1.2,.32,2.19,1.9,1.77,0,.67,0,1.34,0,2-1.71,.23-1.92,1.43-1.92,2.84,0,31.68,0,63.36,0,95.04,0,.22-.01,.43,0,.65,.09,1.12,.57,1.85,1.83,1.74,.05,.77,.1,1.54,.15,2.3-1.45,.27-2.09,1.07-2,2.61,.11,1.83-.04,3.68,.05,5.52,.06,1.23-.28,1.61-1.6,1.71-1.88,.15-3.51-.76-5.37-.75-17.96,.08-35.92,.03-53.88,.08-1.51,0-1.9-.42-1.88-1.9,.08-6.38,.03-12.77,.03-19.15,0-9.52,0-19.05,0-28.57,0-.72,.2-1.7-.95-1.68-1.03,.01-1.75,.52-1.64,1.73,.03,.38,0,.76,0,1.14,0,15.48-.03,30.95,.04,46.43,0,1.71-.51,2.03-2.09,2.02-10.82-.07-21.64-.02-32.46-.05-1.23,0-2.03,.22-1.89,1.66h-1.23c.1-1.25-.45-1.68-1.72-1.67-6.81,.05-13.61,0-20.42,.05-1.3,.01-1.64-.38-1.63-1.65,.05-7.89,.03-15.77,.03-23.66,0-2.1-.48-2.41-2.54-1.67Zm97.56-39.31c-5.62,0-11.24,0-16.86,0-.66,0-1.44-.03-1.7,.65-.28,.74,.37,1.27,.83,1.8,.4,.45,.92,.49,1.48,.49,10.92,0,21.84-.02,32.76,.01,1.38,0,1.65-.96,1.75-1.87,.15-1.26-.93-1.06-1.71-1.06-5.51,0-11.03,0-16.54,0Zm-62.92-22.09c-5.51,0-11.02,0-16.53,0-.64,0-1.42-.13-1.55,.76-.11,.8,.23,1.5,1.01,1.85,.38,.17,.83,.28,1.24,.28,10.7,.01,21.39,0,32.09,.02,1.33,0,1.88-.85,1.92-1.93,.04-1.27-1.06-.96-1.81-.96-5.46-.02-10.91-.01-16.37,0Zm63.14-21.44c-6.22,0-12.44,0-18.66,0-.63,0-1.47-.13-1.49,.8-.01,.77,.45,1.45,1.24,1.73,.29,.1,.64,.06,.96,.06,12.12,0,24.23-.01,36.35,.02,1.23,0,1.9-.49,1.91-1.64,.01-1.28-1.07-.97-1.82-.97-6.17-.02-12.33,0-18.5,0Zm-62.44,86.07c-5.41,0-10.82,0-16.22,0-.86,0-1.8,.05-1.87,1.08-.07,1.04,.71,1.62,1.72,1.82,.21,.04,.43,.02,.65,.02,10.55,0,21.09-.02,31.64,.03,1.44,0,1.81-.89,1.9-1.9,.11-1.26-.97-1.04-1.75-1.04-5.35-.01-10.71,0-16.06,0Zm-1.3-21.44c-5.25,0-10.49,0-15.74,0-.74,0-1.68-.08-1.74,.97-.06,.96,.55,1.61,1.49,1.87,.31,.08,.64,.08,.96,.08,10.11,0,20.23-.02,30.34,.03,1.47,0,1.77-.86,1.84-1.9,.09-1.27-.98-1.04-1.75-1.04-5.14-.01-10.28,0-15.42,0Zm61.37-.32c-4.7,0-9.41,0-14.11,0-.71,0-1.63-.02-1.69,.82-.06,.84,.44,1.66,1.37,2,.25,.09,.53,.1,.8,.1,9.52,0,19.03,0,28.55,0,.5,0,1.04,0,1.23-.56,.2-.58,.13-1.13-.32-1.66-.56-.67-1.26-.72-2.04-.71-4.6,.02-9.19,0-13.79,0Zm-57.15-65.61c-4.33,0-8.66,.05-12.98-.03-1.21-.02-1.78,.53-1.82,1.53-.05,1.17,.78,1.44,1.86,1.44,8.49-.03,16.99-.05,25.48,.02,1.37,.01,1.98-.6,1.99-1.73,.01-1.3-1.1-1.23-2.03-1.23-4.17,0-8.33,0-12.5,0Zm68.84,22.41c-3.02,0-6.05,.03-9.07-.01-1.17-.02-1.26,.84-1.42,1.61-.16,.8,.38,1.01,1.07,1,6.1,0,12.2,0,18.3,0,1.08,0,1.4-.74,1.47-1.57,.09-1.02-.71-1.03-1.45-1.03-2.97,0-5.94,0-8.91,0Zm-.15,67.56c2.65,0,5.3-.04,7.95,.02,1.36,.03,1.4-.99,1.58-1.84,.15-.72-.32-1.1-1.05-1.1-5.3,0-10.61-.02-15.91,0-1.32,0-1.26,1.24-1.41,2.02-.17,.92,.71,.88,1.36,.89,2.49,0,4.98,0,7.47,0Zm-65.43-45.79c-2.43,0-4.86,.04-7.29-.02-1.3-.03-1.73,.7-1.78,1.79-.06,1.23,.85,1.16,1.68,1.15,2.38,0,4.75,0,7.13,0,2.38,0,4.75-.02,7.13,0,1.41,.01,1.75-1.05,1.81-2.05,.06-1.16-1.01-.86-1.71-.87-2.32-.03-4.65-.01-6.97-.01Zm47.61,42.87c-2.05,0-4.1-.02-6.14,0-.76,0-1.84-.27-1.79,.99,.04,1.01,.54,1.91,1.76,1.91,4.2,.02,8.41,0,12.61,0,1.09,0,1.63-.75,1.67-1.62,.04-.92-.65-1.34-1.64-1.32-2.15,.05-4.31,.02-6.47,.02Zm-2.87-64.63c-2.43,0-4.86,0-7.29,0-.61,0-1.27-.01-1.37,.78-.08,.68,.2,1.31,.78,1.67,.29,.18,.73,.14,1.1,.14,4.7,0,9.4,0,14.1,0,.85,0,1.76-.05,1.7-1.18-.05-.97-.62-1.48-1.73-1.44-2.43,.08-4.86,.02-7.29,.02Zm-62.34,21.76c-1.94,0-3.88,0-5.82,0-.53,0-1.13-.11-1.44,.48-.3,.57,.15,1.02,.37,1.49,.34,.73,.97,.95,1.72,.95,3.66,0,7.33,0,10.99,0,1.01,0,1.7-.37,1.7-1.47,0-1.1-.69-1.47-1.7-1.47-1.94,.02-3.88,0-5.82,0Zm-5.55-44.16s0,0,0-.01c-.59,0-1.18-.03-1.77,0-.74,.05-1.68,0-1.65,1.05,.03,.87,.47,1.75,1.49,1.83,1.33,.1,2.68,.06,4.02,.01,.73-.03,1.23-.5,1.21-1.24-.02-.77-.27-1.53-1.21-1.62-.69-.07-1.39-.01-2.09-.01Zm97.2,65.64c-1.46-.11-2.79-.24-2.85,1.37-.05,1.46,1.11,1.53,2.28,1.54,1.3,0,2.44-.06,2.49-1.72,.05-1.77-1.35-1.05-1.92-1.18Z"/>
      <path class="cls-11" d="M58.68,178.06c.41,0,.82,0,1.23,0,.2,1.22,.87,1.63,2.13,1.63,32.93,.08,65.86-.25,98.79,.22,3.91,.06,7.87-.14,11.8-.27,1.27-.04,1.66,.31,1.64,1.62-.06,7.74,0,15.47-.05,23.21,0,1.42,.46,2.16,1.93,2.1,.02,.33,.04,.65,.06,.98-1.46,.08-1.92,1.06-1.95,2.3-.05,1.68-.01,3.35-.01,5.03q0,2.14-2.2,2.14c-39.92,0-79.83,0-119.75-.03-1.55,0-2.21,.48-2.14,1.99-.4,0-.81,0-1.21,0,.07-1.58-.77-1.99-2.24-1.98-7.46,.05-14.93,0-22.39,.05-1.31,.01-1.77-.29-1.75-1.69,.09-4.7,.03-9.41,.03-14.12,0-4.26-.1-8.52,.31-12.77,.07-.77,.07-1.57-1.01-1.7,0-.41,0-.82,0-1.22,.85-.07,1.03-.62,1.01-1.36-.02-.92,.08-1.85-.03-2.75-.17-1.42,.32-1.82,1.77-1.81,10.47,.07,20.95,.02,31.42,.05,1.27,0,2.22-.29,2.58-1.62Z"/>
      <path class="cls-11" d="M85.65,44.59c-.57,0-1.13-.01-1.7-.02-.96-.79-2.08-1.01-3.31-1.01-16.32,.02-32.64,.01-48.96,.01-2.7,0-5.41-.03-8.11,.02-.97,.02-1.32-.27-1.31-1.28,.05-4.27,.04-8.54,0-12.81,0-.92,.31-1.23,1.22-1.2,1.94,.05,3.9-.07,5.83,.04,1.4,.08,2.29-.38,2.74-1.69,.5-.01,.99-.02,1.49-.04,.88,1.23,2.02,1.72,3.58,1.72,19.47-.04,38.93-.03,58.4-.03,12.11,0,24.22,0,36.34,0,1.49,0,2.64-.44,3.12-1.98,.54,0,1.07,.02,1.61,.03-.17,1.87,1.09,1.94,2.42,1.94,11.3,0,22.6,.02,33.9-.03,1.36,0,1.73,.39,1.7,1.73-.09,3.84-.03,7.68-.03,11.52q0,2.05-2.11,2.05c-28.11,0-56.23,0-84.34-.01-1,0-1.95-.04-2.48,1.02Z"/>
      <path class="cls-9" d="M48.95,218.99c.4,0,.81,0,1.21,0,.22,1.31,1.26,.95,2.05,.95,26.54,.01,53.09,.01,79.63,.01,14.38,0,28.76-.02,43.14,.02,1.36,0,1.95-.31,1.9-1.8-.1-2.97-.04-5.95-.04-8.92,0-.64,.11-1.33-.63-1.69-.02-.33-.04-.65-.06-.98,.62-.75,.7-1.63,.7-2.57-.02-7.94-.03-15.88,0-23.82,0-1.09-.04-2.13-.74-3.03,1.66-.09,3.26-.73,4.98-.01,1.1,.46,1.27,1.06,1.27,2.08-.03,9.52-.02,19.04-.02,28.57,0,4-.07,8.01,.04,12.01,.04,1.41-.4,2.63-.81,3.89-.6,1.83-2.06,2.43-3.86,2.43-3.46,0-6.98,.38-10.38-.07-9.19-1.23-18.39-.49-27.58-.52-38.13-.13-76.27-.05-114.4-.05-3.37,0-4.71-1.25-5.04-4.73-.03-.27,0-.54,0-.81,9.07,0,18.13,.01,27.2,.01,.68,0,1.49,.17,1.41-.96Z"/>
      <path class="cls-9" d="M163.57,167.29c-.05-.77-.1-1.54-.14-2.3,.3-.72,.8-1.29,.8-2.21-.04-32.06-.04-64.12-.02-96.18,0-.76-.2-1.36-.71-1.88,0-.67,0-1.34,0-2,.59-.56,.71-1.25,.7-2.05-.03-4.27,.02-8.55-.04-12.82-.01-1.07,.32-1.38,1.38-1.36,3.03,.06,6.06-.04,9.09,.05,1.32,.04,1.96-.62,2.16-1.69,.2-1.1,.43-2.19,.41-3.34-.06-4.71-.09-9.42,.01-14.12,.03-1.58-.48-2.2-2.01-2.03,1.13-.57,2.36-.4,3.47-.2,1.04,.19,1.81,.87,1.78,2.27-.08,5.46-.02,10.93-.04,16.39,0,2.53-.65,4.84-2.23,6.89-.48,.62-1.02,1.01-1.74,.98-1.58-.07-3.11,.25-4.67,.32-.85,.04-1.19,.32-1.1,1.15,.02,.21,0,.43,0,.65,0,40.58,0,81.15,0,121.73,0,.49,.03,.97,.04,1.46-1.77,.02-3.54,0-5.31,.08-1.04,.05-1.26-.39-1.24-1.32,.05-2.25,.02-4.51,.02-6.77,0-.64,.12-1.32-.62-1.68Z"/>
      <path class="cls-13" d="M175.2,25.35c1.53-.17,2.05,.45,2.01,2.03-.1,4.71-.07,9.42-.01,14.12,.01,1.15-.21,2.25-.41,3.34-.2,1.07-.84,1.73-2.16,1.69-3.03-.09-6.06,.01-9.09-.05-1.05-.02-1.39,.29-1.38,1.36,.06,4.27,0,8.55,.04,12.82,0,.8-.11,1.49-.7,2.05-1.58,.42-1.89-.57-1.9-1.77-.02-4.22-.07-8.45,.02-12.67,.03-1.44-.38-1.81-1.81-1.81-19.7,.05-39.4,.05-59.1,0-1.6,0-1.83,.57-1.82,1.95,.03,24.14,.03,48.29,.02,72.43,0,.59,.03,1.2-.11,1.77-.16,.68-.68,1.19-1.4,1.12-.74-.07-1.08-.64-1.09-1.38,0-.43,0-.87,0-1.3,0-24.2-.01-48.39,.03-72.59,0-1.54-.35-2.09-1.95-1.99-2.21,.14-4.44-.02-6.65,.05-1.42,.05-2.17-.45-2.1-1.93,.53-1.06,1.48-1.02,2.48-1.02,28.11,.01,56.23,.01,84.34,.01q2.11,0,2.11-2.05c0-3.84-.06-7.68,.03-11.52,.03-1.34-.34-1.73-1.7-1.73-11.3,.05-22.6,.03-33.9,.03-1.33,0-2.59-.08-2.42-1.94,.42-.96,1.22-1,2.14-1,11.56,.02,23.13,.02,34.69,.01,.59,0,1.19-.03,1.78-.04Z"/>
      <path class="cls-13" d="M163.57,167.29c.74,.37,.62,1.05,.62,1.68,0,2.26,.03,4.51-.02,6.77-.02,.93,.2,1.37,1.24,1.32,1.77-.09,3.54-.06,5.31-.08,1.8,.06,3.61,.12,5.41,.17,.7,.9,.74,1.93,.74,3.03-.03,7.94-.02,15.88,0,23.82,0,.94-.08,1.82-.7,2.57-1.47,.06-1.94-.68-1.93-2.1,.04-7.74,0-15.48,.05-23.21,.01-1.3-.38-1.66-1.64-1.62-3.93,.13-7.88,.32-11.8,.27-32.93-.47-65.86-.14-98.79-.22-1.27,0-1.93-.42-2.13-1.63-.14-1.44,.66-1.66,1.89-1.66,10.82,.03,21.64-.01,32.46,.05,1.58,0,2.1-.31,2.09-2.02-.08-15.47-.04-30.95-.04-46.43,0-.38,.03-.76,0-1.14-.11-1.21,.62-1.71,1.64-1.73,1.16-.01,.95,.96,.95,1.68,0,9.52,0,19.05,0,28.57,0,6.38,.04,12.77-.03,19.15-.02,1.48,.37,1.9,1.88,1.9,17.96-.05,35.92,0,53.88-.08,1.86,0,3.49,.9,5.37,.75,1.31-.1,1.66-.48,1.6-1.71-.09-1.84,.06-3.68-.05-5.52-.09-1.54,.55-2.34,2-2.61Z"/>
      <path class="cls-13" d="M32.06,26.66c-.45,1.31-1.34,1.77-2.74,1.69-1.94-.12-3.89,0-5.83-.04-.91-.02-1.23,.28-1.22,1.2,.04,4.27,.04,8.54,0,12.81-.01,1.01,.33,1.3,1.31,1.28,2.7-.05,5.4-.02,8.11-.02,16.32,0,32.64,0,48.96-.01,1.23,0,2.34,.22,3.31,1.01,.28,1.52-.37,1.96-1.86,1.95-15.04-.04-30.07,0-45.11-.06-1.62,0-2.08,.36-2.07,2.04,.06,31.7,.04,63.41,.04,95.11,0,.38-.03,.76,0,1.14,.1,1.01-.41,1.74-1.28,2.02-.89,.28-.74-.89-1.26-1.21-.02-.65-.06-1.29-.06-1.94,0-31.74-.02-63.49,.04-95.23,0-1.57-.36-2-1.93-1.92-2.8,.14-5.62,.05-8.43,.04-1.98,0-2.75-.96-2.38-2.88,.08-.42,.04-.86,.04-1.29,0-4.87,0-9.73,0-14.6,0-1.59,.61-2.3,2.15-2.32,2.65-.04,5.3,0,7.95-.02,1.01,0,1.64,.63,2.28,1.27Z"/>
      <path class="cls-13" d="M134.98,26.35c-.48,1.54-1.63,1.98-3.12,1.98-12.11-.01-24.22,0-36.34,0-19.47,0-38.93-.01-58.4,.03-1.55,0-2.7-.49-3.58-1.72,.43-.95,1.18-1.24,2.2-1.24,32.57,.01,65.14,.01,97.71,0,.73,0,1.45-.06,1.52,.96Z"/>
      <path class="cls-13" d="M58.68,178.06c-.36,1.34-1.31,1.63-2.58,1.62-10.47-.03-20.95,.01-31.42-.05-1.45,0-1.94,.39-1.77,1.81,.11,.91,0,1.83,.03,2.75,.02,.74-.17,1.28-1.01,1.36-1.61,.22-2.07-.55-1.94-2.05,.11-1.29,.02-2.59,.02-3.88,0-1.71,.78-2.54,2.48-2.56,2.7-.03,5.4-.09,8.09,.01,1.47,.06,1.8-.47,1.8-1.86-.04-8.58,0-17.16,.02-25.74,2.07-.74,2.54-.44,2.54,1.67,0,7.89,.03,15.78-.03,23.66,0,1.27,.33,1.66,1.63,1.65,6.81-.06,13.61,0,20.42-.05,1.27,0,1.82,.41,1.72,1.67Z"/>
      <path class="cls-13" d="M48.95,218.99c.08,1.13-.73,.96-1.41,.96-9.07,0-18.13,0-27.2-.01-.82-1.76-.31-3.63-.33-5.43-.08-8.55,0-17.1-.03-25.66,0-1.43,.45-2.16,1.93-2.07,1.07,.13,1.08,.93,1.01,1.7-.41,4.25-.31,8.51-.31,12.77,0,4.71,.05,9.41-.03,14.12-.03,1.4,.44,1.7,1.75,1.69,7.46-.06,14.93,0,22.39-.05,1.46,0,2.3,.4,2.24,1.98Z"/>
      <path class="cls-13" d="M163.49,64.72c.51,.53,.71,1.12,.71,1.88-.02,32.06-.02,64.12,.02,96.18,0,.91-.5,1.49-.8,2.21-1.26,.11-1.74-.62-1.83-1.74-.02-.21,0-.43,0-.65,0-31.68,0-63.36,0-95.04,0-1.41,.21-2.61,1.92-2.84Z"/>
      <path class="cls-13" d="M129.96,110.16c5.51,0,11.03,0,16.54,0,.78,0,1.86-.19,1.71,1.06-.1,.91-.38,1.88-1.75,1.87-10.92-.03-21.84-.02-32.76-.01-.56,0-1.08-.03-1.48-.49-.46-.52-1.11-1.06-.83-1.8,.26-.68,1.04-.65,1.7-.65,5.62,0,11.24,0,16.86,0Z"/>
      <path class="cls-13" d="M67.04,88.08c5.46,0,10.91,0,16.37,.01,.75,0,1.86-.3,1.81,.96-.04,1.09-.6,1.93-1.92,1.93-10.7,0-21.39,0-32.09-.02-.42,0-.86-.11-1.24-.28-.78-.35-1.12-1.05-1.01-1.85,.13-.89,.91-.76,1.55-.76,5.51,0,11.02,0,16.53,0Z"/>
      <path class="cls-13" d="M130.18,66.64c6.17,0,12.33,0,18.5,0,.75,0,1.83-.31,1.82,.97,0,1.15-.68,1.64-1.91,1.64-12.12-.04-24.23-.02-36.35-.02-.32,0-.67,.04-.96-.06-.79-.28-1.25-.96-1.24-1.73,.01-.93,.85-.79,1.49-.8,6.22,0,12.44,0,18.66,0Z"/>
      <path class="cls-13" d="M67.74,152.71c5.35,0,10.71,0,16.06,0,.77,0,1.86-.21,1.75,1.04-.09,1.01-.46,1.91-1.9,1.9-10.55-.05-21.09-.03-31.64-.03-.22,0-.44,.02-.65-.02-1-.2-1.79-.79-1.72-1.82,.07-1.03,1.01-1.08,1.87-1.08,5.41,0,10.82,0,16.22,0Z"/>
      <path class="cls-13" d="M66.44,131.28c5.14,0,10.28,0,15.42,0,.77,0,1.83-.23,1.75,1.04-.07,1.04-.37,1.91-1.84,1.9-10.11-.06-20.23-.03-30.34-.03-.32,0-.66,0-.96-.08-.94-.26-1.55-.91-1.49-1.87,.06-1.05,1-.97,1.74-.97,5.25-.01,10.49,0,15.74,0Z"/>
      <path class="cls-13" d="M127.81,130.95c4.6,0,9.19,0,13.79,0,.78,0,1.48,.05,2.04,.71,.44,.53,.52,1.08,.32,1.66-.19,.55-.73,.56-1.23,.56-9.52,0-19.03,0-28.55,0-.27,0-.55-.01-.8-.1-.92-.34-1.43-1.16-1.37-2,.06-.84,.98-.82,1.69-.82,4.7,0,9.41,0,14.11,0Z"/>
      <path class="cls-13" d="M70.66,65.34c4.17,0,8.33,0,12.5,0,.94,0,2.05-.07,2.03,1.23-.01,1.13-.62,1.74-1.99,1.73-8.49-.07-16.99-.05-25.48-.02-1.08,0-1.91-.27-1.86-1.44,.04-1,.61-1.55,1.82-1.53,4.33,.08,8.66,.03,12.98,.03Z"/>
      <path class="cls-13" d="M139.5,87.75c2.97,0,5.94,0,8.91,0,.74,0,1.53,0,1.45,1.03-.07,.83-.39,1.58-1.47,1.57-6.1,0-12.2,0-18.3,0-.69,0-1.23-.2-1.07-1,.15-.77,.24-1.62,1.42-1.61,3.02,.04,6.05,.01,9.07,.01Z"/>
      <path class="cls-13" d="M139.34,155.31c-2.49,0-4.98,0-7.47,0-.65,0-1.53,.04-1.36-.89,.14-.79,.08-2.02,1.41-2.02,5.3-.02,10.61,0,15.91,0,.73,0,1.2,.37,1.05,1.1-.18,.85-.22,1.87-1.58,1.84-2.65-.06-5.3-.02-7.95-.02Z"/>
      <path class="cls-13" d="M73.91,109.51c2.32,0,4.65-.02,6.97,.01,.69,0,1.77-.29,1.71,.87-.05,1-.39,2.06-1.81,2.05-2.38-.02-4.75,0-7.13,0-2.38,0-4.75,0-7.13,0-.83,0-1.74,.08-1.68-1.15,.05-1.09,.48-1.82,1.78-1.79,2.43,.06,4.86,.02,7.29,.02Z"/>
      <path class="cls-13" d="M121.52,152.39c2.16,0,4.31,.04,6.47-.02,.99-.02,1.68,.4,1.64,1.32-.04,.87-.58,1.62-1.67,1.62-4.2,0-8.41,.01-12.61,0-1.23,0-1.73-.9-1.76-1.91-.05-1.26,1.04-.98,1.79-.99,2.05-.03,4.1,0,6.14,0Z"/>
      <path class="cls-13" d="M118.65,87.75c2.43,0,4.86,.05,7.29-.02,1.11-.04,1.68,.47,1.73,1.44,.06,1.13-.85,1.18-1.7,1.18-4.7,0-9.4,0-14.1,0-.37,0-.81,.04-1.1-.14-.58-.36-.87-.98-.78-1.67,.1-.8,.76-.78,1.37-.78,2.43,0,4.86,0,7.29,0Z"/>
      <path class="cls-13" d="M56.31,109.51c1.94,0,3.88,.01,5.82,0,1.01,0,1.7,.37,1.7,1.47,0,1.1-.69,1.47-1.7,1.47-3.66-.01-7.33,0-10.99,0-.75,0-1.38-.22-1.72-.95-.22-.47-.67-.92-.37-1.49,.31-.58,.91-.47,1.44-.48,1.94,0,3.88,0,5.82,0Z"/>
      <path class="cls-13" d="M50.76,65.35c.7,0,1.4-.05,2.09,.01,.95,.09,1.2,.85,1.21,1.62,.02,.74-.49,1.22-1.21,1.24-1.34,.05-2.69,.09-4.02-.01-1.02-.08-1.46-.96-1.49-1.83-.03-1.05,.91-1,1.65-1.05,.59-.04,1.18,0,1.77,0,0,0,0,0,0,.01Z"/>
      <path class="cls-13" d="M147.96,131c.57,.13,1.97-.58,1.92,1.18-.04,1.66-1.19,1.73-2.49,1.72-1.18,0-2.34-.08-2.28-1.54,.06-1.61,1.39-1.48,2.85-1.37Z"/>
      <path class="cls-13" d="M176.22,207.56c.74,.37,.63,1.05,.63,1.69,0,2.97-.06,5.95,.04,8.92,.05,1.49-.54,1.8-1.9,1.8-14.38-.04-28.76-.02-43.14-.02-26.54,0-53.09,0-79.63-.01-.79,0-1.83,.37-2.05-.95-.07-1.51,.58-2,2.14-1.99,39.92,.04,79.83,.03,119.75,.03q2.2,0,2.2-2.14c0-1.68-.04-3.36,.01-5.03,.04-1.24,.5-2.22,1.95-2.3Z"/>
    </g>
  </g>
  <g id="Layer_2" data-name="Layer 2">
    <g>
      <path class="cls-13" d="M167.01,51.7c7.36,4.23,14.74,8.44,22.07,12.73,.97,.57,1.1,1.81,1.27,2.86,.12,.74,.07,1.5,.09,2.26-.02,.54-.07,1.08-.07,1.62,0,14.22,0,28.45,0,42.67,0,27.58-.01,55.16-.02,82.74,0,.8-.02,1.39-.88,2-1.91,1.34-3.49,1.02-5.33-.1-2.16-1.31-4.29-2.73-6.78-3.76v2c0,6.98,0,13.96,0,20.94,0,2.46-.19,2.64-2.69,2.64-4.17,0-8.33-.06-12.5,.03-1.51,.03-2.27-.36-2.07-1.96,.13-1.09,.94-1,1.7-1,3.79,0,7.58-.05,11.36,.03,1.3,.03,1.63-.38,1.62-1.64-.06-6.98-.06-13.96,.01-20.94,.01-1.39-.36-2.27-1.68-2.7-6-3.47-12.15-6.7-17.94-10.49-4.3-2.81-8.68-3.72-13.75-3.66-19.3,.23-38.61,.1-57.92,.09-.72,0-1.56,.26-1.99-.66-.61-1.94-.38-2.25,1.65-2.25,21.32,0,42.64-.02,63.97,.04,1.65,0,2.01-.41,2.01-2.03-.06-27.06-.04-54.13-.05-81.19,0-.82-.05-1.62,.71-2.18,1.77-.27,1.91,.83,1.91,2.17-.02,23.19-.02,46.38-.01,69.56,0,3.78,.04,7.57,.06,11.35-.18,3.5-.03,3.76,2.84,4.9,.05,.28,.18,.49,.44,.64,3.65,2.06,7.3,4.12,10.95,6.18,3.16,1.97,6.3,3.99,9.74,5.47,2.4,1.85,5.09,3.22,7.72,4.69,1.68,.94,1.7,.91,1.7-1.1,0-15.25,0-30.5,0-45.76,0-25.91-.01-51.81,.03-77.72,0-1.25-.38-1.88-1.48-2.5-8.1-4.6-16.15-9.28-24.21-13.94-2.27-1.31-4.54-2.61-6.81-3.92-.88-.56-.97-.05-.97,.68,.03,4.1,.04,8.2,.06,12.3,0,5.41,0,10.82,0,16.22-.02,2.34-.04,4.69-.05,7.03,0,1.26-.56,1.99-1.89,1.98-.77-.55-.72-1.35-.72-2.17,.01-11.41,.02-22.82-.01-34.24,0-1.09,.15-2.14,.38-3.17,.39-1.7,.26-1.92-1.52-1.92-6.6,0-13.19-.04-19.79,.03-1.84,.02-3.48-.38-5-1.37-.25-1.4,.53-1.59,1.69-1.59,8.95,.01,17.89-.02,26.84-.04,7.39,.3,14.79-.37,22.17,.37,.89,.09,1.24-.23,1.23-1.18-.04-4.54-.03-9.09,0-13.63,0-.85-.29-1.13-1.13-1.13-1.24,0-2.43,.37-3.68,.37-40.45-.03-80.89-.03-121.34-.03-.49,0-.97,0-1.46,0-.66,0-.97-.38-1.03-1.01-.33-1.63,.48-1.94,1.94-1.94,42.12,.03,84.23,.02,126.35,.02,.65,0,1.3-.02,1.95-.03,.8,.49,.66,1.28,.66,2.03,0,5.34,0,10.69,0,16.03,0,2.58-.5,3.08-3.12,3.08-4.8,0-9.61,0-14.41,0-.43,0-.87,.05-1.58,.1,3.11,1.8,5.92,3.43,8.74,5.06Z"/>
      <path class="cls-9" d="M160.12,218.38c-.2,1.6,.57,1.99,2.07,1.96,4.16-.09,8.33-.03,12.5-.03,2.5,0,2.69-.18,2.69-2.64,0-6.98,0-13.96,0-20.94v-2c2.49,1.03,4.62,2.45,6.78,3.76,1.84,1.12,3.42,1.44,5.33,.1,.86-.61,.88-1.2,.88-2,0-27.58,.02-55.16,.02-82.74,0-14.22,0-28.45,0-42.67,0-.54,.04-1.08,.07-1.62,1.86,1.07,3.71,2.18,5.6,3.2,.62,.34,.85,.76,.81,1.42-.03,.43,0,.87,0,1.3,0,43.3,0,86.6,0,129.9,0,3.75-1.02,4.48-4.76,3.3-2.49-.79-4.54-2.43-6.81-3.66-1.04-.56-2.05-1.16-3.11-1.76-.39,.42-.24,.87-.23,1.26,.16,4.85-.33,9.72,.23,14.57,.07,.63-.12,1.39-.54,1.99-.71,1.01-1.37,2.04-2.11,3.03-.84,1.14-1.89,1.75-3.43,1.75-50.11-.03-100.21-.03-150.32-.03-2.46,0-3.09-.53-3.72-3.05-.21-.83-.56-1.63-.5-2.51,4.72,.01,9.44,.02,14.16,.05,1.15,0,1.75-.6,2.08-1.61,.4,0,.8,0,1.2,0,.06,1.64,1.2,1.62,2.4,1.62,38.16-.01,76.32,0,114.48,0,2.15,0,2.58-.56,2-2.6,.87-.2,1.39,.81,2.24,.67Z"/>
      <path class="cls-13" d="M37.79,218.7c-.33,1.01-.92,1.62-2.08,1.61-4.72-.03-9.44-.04-14.16-.05-.92-.6-1.03-1.5-1.03-2.51,.02-9.14,.01-18.29,.01-27.63-3.19,1.84-6.25,3.61-9.33,5.37-2.58,1.48-5.16,2.96-7.75,4.42-1.35,.76-3.31-.38-3.38-1.94-.02-.38,0-.76,0-1.14,0-41.78,.01-83.56-.01-125.35,0-6.68-.99-4.83,5.22-8.52,9.2-5.46,18.51-10.74,27.77-16.1,.07-.04,.1-.14,.21-.33-1.83,0-3.6-.09-5.36,.02-2.06,.13-4.06-.35-6.11-.37-1.34-.01-1.55-1.16-1.56-2.05-.07-5.68-.04-11.37-.04-17.05,0-.76,.44-1.17,1.14-1.34,.73-.18,1.44-.35,2.22-.34,6.49,.03,12.99,.06,19.48-.02,1.54-.02,2.08,.5,1.87,1.95-.28,.53-.52,1.02-1.29,1.02-6.6-.03-13.2,0-19.8-.09-.78-.01-1.04-.07-1.04,.77,.02,4.97,.01,9.95,.01,15.01,4.38-.87,8.7-.21,13-.49,.76,.01,1.51,.04,2.27,.04,26.61,0,53.22,.01,79.83,.02,.43,0,.89-.09,1.29,.02,.95,.26,2.09,.31,2.35,1.6-.66,1.12-1.69,1.3-2.89,1.3-24.44-.02-48.89-.02-73.33,0-.96,0-2.15-.41-2.79,.26-.33,.35,.24,1.56,.39,2.38,.03,.16,0,.32,0,.49,0,7.25,0,14.5,.02,21.74,0,.72-.16,1.26-.79,1.62-1.29,.32-1.81-.29-1.82-1.51-.02-1.08-.03-2.15-.05-3.23,.31-6.16-.36-12.35,.35-18.5,.13-1.11-.42-.84-.97-.37-1.94,1.1-3.88,2.2-5.82,3.31-1.63,.96-3.26,1.92-4.88,2.87-7.67,4.39-15.34,8.79-23.02,13.17-1.09,.62-2,1.2-1.35,2.7,.18,.41,.03,.96,.03,1.45,0,40.27,0,80.55,0,120.82v2.24c5.15-3.03,10.05-5.92,14.94-8.8,2.6-1.51,5.2-3.02,7.8-4.53,2.75-1.45,5.61-2.7,8.13-4.56,.91-.55,2.05-.91,2.66-1.69,.65-.83,2.19-.8,2.14-2.23,.02-.97,.05-1.95,.05-2.92,0-31.28,.01-62.56-.02-93.84,0-1.5,.32-2.44,2-2.37,1.1,.26,.59,1.14,.59,1.73,.03,32.13,.02,64.25,.02,96.38,0,.49,0,.97,.01,1.46,0,.3,.09,.54,.46,.46,1.45-.32,2.88,.09,4.32,.09,9.79-.02,19.57-.01,29.36-.01q2.21,0,2.19,2.27c-.63,.61-1.4,.66-2.24,.66-11.47-.02-22.94,0-34.41-.02-.82,0-1.54,.14-2.28,.58-5.1,3-10.21,5.97-15.37,8.85-1.13,.63-1.8,1.25-1.47,2.58-.02,8.71-.02,17.43-.07,26.14,0,.96,.37,1.18,1.24,1.17,3.35-.04,6.71-.05,10.07,0,1.15,.02,2.41-.02,3.04,1.3Z"/>
      <path class="cls-12" d="M35.8,43.57c-4.29,.28-8.62-.38-13,.49,0-5.06,.01-10.04-.01-15.01,0-.84,.27-.78,1.04-.77,6.6,.09,13.2,.06,19.8,.09,.77,0,1.01-.49,1.29-1.02,.52,0,1.03,0,1.55,0,.06,.62,.37,1,1.03,1.01,.49,0,.97,0,1.46,0,40.45,0,80.89,0,121.34,.03,1.26,0,2.44-.36,3.68-.37,.84,0,1.14,.28,1.13,1.13-.03,4.54-.03,9.09,0,13.63,0,.94-.34,1.27-1.23,1.18-7.38-.75-14.78-.08-22.17-.37,.08-.6-.2-1.03-.65-1.39-2.81-2.25-5.95-3.95-9.38-4.97-5.74-1.7-11.69-2.31-17.64-2.66-4.94-.29-9.9,.09-14.85,.05-2.85-.02-5.76,.44-8.6,.47-6.5,.07-12.94,.95-19.42,1.03-5.18,.06-10.35,.1-15.54-.18-4.3-.23-8.62-.52-12.94-.43-5.68,.11-10.81,1.77-15.14,5.51-.76,.66-1.79,1.29-1.74,2.57Z"/>
      <path class="cls-9" d="M167.01,51.7c-2.82-1.63-5.64-3.26-8.74-5.06,.71-.05,1.14-.1,1.58-.1,4.8,0,9.61,0,14.41,0,2.62,0,3.12-.5,3.12-3.08,0-5.34,0-10.69,0-16.03,0-.75,.13-1.54-.66-2.03,.61-.9,1.38-.98,2.17-.32,1.78,1.48,3.45,2.94,3.39,5.64-.11,5.99-.14,11.99,.02,17.98,.05,1.99-1.14,2.68-2.92,2.7-3.62,.04-7.23,0-10.85,.02-.51,0-1.09-.23-1.52,.28Z"/>
      <path class="cls-1" d="M42.16,73.05c.63-.36,.8-.9,.79-1.62-.03-7.25-.02-14.5-.02-21.74,0-.16,.02-.33,0-.49-.15-.82-.73-2.04-.39-2.38,.64-.67,1.83-.26,2.79-.26,24.44-.01,48.89-.02,73.33,0,1.2,0,2.24-.18,2.89-1.3,.55-.02,1.09-.03,1.64-.05,1.52,.99,3.16,1.39,5,1.37,6.6-.07,13.19-.03,19.79-.03,1.77,0,1.9,.22,1.52,1.92-.24,1.03-.39,2.08-.38,3.17,.03,11.41,.02,22.82,.01,34.24,0,.82-.05,1.62,.72,2.17,0,.59,0,1.17,0,1.76-.75,.56-.71,1.36-.71,2.18,0,27.06,0,54.13,.05,81.19,0,1.62-.36,2.03-2.01,2.03-21.32-.06-42.64-.04-63.97-.04-2.03,0-2.26,.32-1.65,2.25-.75,0-1.5,.01-2.25,.02q.02-2.27-2.19-2.27c-9.79,0-19.57-.01-29.36,.01-1.44,0-2.88-.41-4.32-.09-.37,.08-.46-.16-.46-.46,0-.49-.01-.97-.01-1.46,0-32.13,0-64.25-.02-96.38,0-.58,.5-1.47-.59-1.73-.05-.67-.11-1.34-.16-2.01Z"/>
      <path class="cls-12" d="M37.79,218.7c-.63-1.32-1.9-1.28-3.04-1.3-3.35-.06-6.71-.04-10.07,0-.87,0-1.25-.21-1.24-1.17,.05-8.71,.05-17.43,.07-26.14,2.53,.77,5.13,1.23,7.76,1.29,3.71,.08,7.19-1.22,10.74-2.03,3.86-.88,7.6-1.25,11.35,.46,3.27,1.49,6.89,1.5,10.31,1.4,3.43-.1,6.9-.28,10.32-.34,8.47-.15,16.95-.27,25.44,.13,7.48,.36,14.98,.39,22.48,.69,3.01,.12,6.03-.07,9.05-.19,4.17-.16,8.18-1.27,12.29-1.58,3.99-.3,8.08-.76,11.95,1.07,4.24,2,8.77,2.99,13.44,2.95,1.6-.02,3.5,.03,4.5-1.81,1.32,.43,1.69,1.31,1.68,2.7-.07,6.98-.07,13.96-.01,20.94,.01,1.26-.32,1.67-1.62,1.64-3.79-.09-7.57-.03-11.36-.03-.77,0-1.58-.09-1.7,1-.86,.14-1.37-.87-2.24-.67-.57-.4-1.23-.33-1.88-.33-38.25,0-76.5,0-114.75-.02-1.11,0-1.89,.24-2.25,1.34-.4,0-.8,0-1.2,0Z"/>
      <path class="cls-7" d="M173.13,192.13c-1,1.83-2.91,1.79-4.5,1.81-4.68,.05-9.2-.94-13.44-2.95-3.87-1.83-7.96-1.37-11.95-1.07-4.1,.31-8.11,1.42-12.29,1.58-3.02,.12-6.04,.31-9.05,.19-7.49-.3-14.99-.33-22.48-.69-8.49-.41-16.97-.29-25.44-.13-3.42,.06-6.89,.24-10.32,.34-3.43,.1-7.04,.09-10.31-1.4-3.75-1.71-7.49-1.34-11.35-.46-3.55,.81-7.04,2.11-10.74,2.03-2.63-.06-5.23-.52-7.76-1.29-.33-1.33,.34-1.95,1.47-2.58,5.16-2.88,10.28-5.86,15.37-8.85,.75-.44,1.46-.58,2.28-.58,11.47,.01,22.94,0,34.41,.02,.84,0,1.61-.05,2.24-.66,.75,0,1.5-.01,2.25-.02,.43,.92,1.27,.66,1.99,.66,19.31,0,38.62,.13,57.92-.09,5.07-.06,9.45,.85,13.75,3.66,5.79,3.79,11.94,7.02,17.94,10.49Z"/>
      <path class="cls-5" d="M159.5,53.74c8.06,4.66,16.11,9.35,24.21,13.94,1.1,.62,1.48,1.25,1.48,2.5-.04,25.91-.03,51.81-.03,77.72,0,15.25,0,30.5,0,45.76,0,2.01-.02,2.04-1.7,1.1-2.63-1.47-5.32-2.84-7.72-4.69,1.32-2.74,2.23-5.71,2.19-8.68-.06-5.48,1.29-10.82,1.16-16.31-.06-2.79-.75-5.36-1.33-8-.08-.39-.21-.74-.69-.76-.02-.22-.03-.43-.05-.65,.08-.13,.26-.29,.24-.39-1.11-4.44-.4-8.73,.91-13.02,.9-2.94,1.32-6,1.1-9.09-.24-3.37-.66-6.73-.93-10.1-.27-3.4-1.17-6.71-1.1-10.18,.05-2.44-.54-4.9-.54-7.38,0-3.31,.8-6.58,.64-9.9,.6-.14,1.47,.27,1.75-.46,.31-.81-.48-1.3-.95-1.87-.42-.51-1.17-.6-1.45-1.24,.26-.49,.32-1,.34-1.55,.18-5.32-1.42-10.13-4.17-14.62-.33-.53-.85-1.01-.7-1.74,.83,.22,1.65,.5,2.49,.64,.43,.07,1.05,.23,1.3-.34,.27-.59,.11-1.19-.42-1.6-.77-.59-1.58-1.12-2.35-1.7-1.07-.81-1.56-.04-1.94,.76-.17,.36-.07,.85-.1,1.28-.91-.05-1.19-1.03-1.94-1.32,1.12-2.17,1-2.47-1.09-3.63-1.82-1.01-3.59-2.11-5.38-3.17,.1-.88-.18-1.68-.44-2.5-.94-2.94-2.16-5.79-2.82-8.82Z"/>
      <path class="cls-7" d="M123.18,45.2c-.55,.02-1.09,.03-1.64,.05-.26-1.29-1.4-1.34-2.35-1.6-.4-.11-.86-.02-1.29-.02-26.61,0-53.22,0-79.83-.02-.76,0-1.51-.03-2.27-.04-.04-1.27,.98-1.91,1.74-2.57,4.33-3.75,9.45-5.4,15.14-5.51,4.32-.08,8.64,.2,12.94,.43,5.19,.28,10.37,.24,15.54,.18,6.48-.08,12.92-.96,19.42-1.03,2.85-.03,5.75-.49,8.6-.47,4.95,.04,9.9-.35,14.85-.05,5.95,.35,11.9,.96,17.64,2.66,3.43,1.02,6.56,2.72,9.38,4.97,.45,.36,.73,.79,.65,1.39-8.95,.02-17.89,.05-26.84,.04-1.17,0-1.94,.19-1.69,1.59Z"/>
      <path class="cls-7" d="M154.61,177.78c-2.87-1.14-3.02-1.4-2.84-4.9,1.52-1.06,2.6-2.48,3.32-4.16,1.62-3.78,2.45-7.74,2.84-11.84,.57-6.04,.54-12.12,.15-18.12-.43-6.6-1.15-13.17-1.19-19.8-.01-2.09-.23-4.19-.37-6.28-.27-4.01-.94-8-1.19-12.01-.27-4.3,.1-8.62-.32-12.94-.26-2.67-.89-5.18-1.95-7.62-.24-.56-.6-1.03-1.29-1.09,0-5.41,0-10.82,0-16.22,.47,0,.62,.38,.82,.68,1.62,2.52,3.35,4.98,4.84,7.57,2.25,3.95,3.93,8.13,4.01,12.78-1.7,.84-1.79,1.65-.28,2.68,.95,.65,1.93,1.27,2.9,1.9-.09,.2-.25,.4-.25,.59,.07,5.01-.85,9.97-.71,14.98,.02,.78,.52,1.56-.02,2.33-.2-.06-.41-.1-.6-.18-.89-.36-1.71-.3-2.19,.61-.49,.93,.25,1.48,.86,1.98,.52,.43,1.28,.53,1.69,1.13-.59,.36-.47,.96-.39,1.46,.62,4.12,.19,8.26,.26,12.39-.53-.07-1.05-.15-1.58-.2-.61-.05-1.15,0-1.47,.67-.36,.72,.1,1.12,.54,1.49,.72,.61,1.5,1.17,2.25,1.75-.56,.46-.33,1.1-.34,1.67,0,6.14-.11,12.28,.3,18.42-1.47,1.37,.11,2.05,.67,2.97-.74,2.28,.16,4.52,.16,6.79,0,2.27,.62,4.52,.14,6.8-.39-.18-.76-.44-1.17-.52-.74-.15-1.53-.3-1.93,.64-.35,.82,.04,1.3,.73,1.71,.31,.18,.52,.53,.78,.81-.12,.52-.24,1.04-.37,1.55-1.03,4.07-2.84,7.59-6.82,9.54Z"/>
      <path class="cls-2" d="M151.77,79.02c.69,.06,1.05,.53,1.29,1.09,1.06,2.43,1.69,4.95,1.95,7.62,.42,4.32,.06,8.64,.32,12.94,.25,4.01,.92,8,1.19,12.01,.14,2.09,.36,4.19,.37,6.28,.04,6.62,.75,13.2,1.19,19.8,.4,6.01,.42,12.08-.15,18.12-.39,4.1-1.22,8.06-2.84,11.84-.72,1.68-1.8,3.1-3.32,4.16-.02-3.78-.05-7.57-.05-11.35,0-23.19,0-46.38,.01-69.56,0-1.35-.14-2.44-1.91-2.17,0-.59,0-1.17,0-1.76,1.33,0,1.88-.73,1.89-1.98,.01-2.34,.03-4.69,.05-7.03Z"/>
      <path class="cls-15" d="M163.4,164.06c.48-2.28-.15-4.54-.14-6.8,0-2.27-.91-4.51-.16-6.79,2.81,1.35,5.44,2.99,8.1,4.6-.07,.89,.36,1.66,.59,2.48,1.05,3.86,1.48,7.76,.72,11.73-1.72-.99-3.44-2-5.17-2.97-.39-.22-.82-.77-1.28-.34-.46,.43-.74,1.09-.49,1.74,.26,.69,.57,1.32,1.31,1.75,1.89,1.12,3.91,2.03,5.64,3.42-.34,1.07-.51,2.23-1.05,3.18-.72,1.27-.23,2.81-1.11,3.97-1.12,1.48-1.64,3.56-3.87,3.97-.19,.04-.32,.4-.48,.62-3.65-2.06-7.3-4.12-10.95-6.18-.26-.15-.39-.36-.44-.64,3.98-1.96,5.79-5.48,6.82-9.54,.13-.52,.25-1.04,.37-1.55,.86,.14,1.9,1.14,2.47-.24,.37-.89,.35-1.94-.87-2.39Z"/>
      <path class="cls-6" d="M166,184.6c.16-.21,.29-.58,.48-.62,2.24-.41,2.76-2.49,3.87-3.97,.88-1.16,.39-2.71,1.11-3.97,.54-.95,.71-2.11,1.05-3.18,.85,.31,1.67,.71,2.55,.92,.64,.15,1.51,.38,1.86-.43,.31-.72-.18-1.33-.8-1.73-1.2-.79-2.41-1.56-3.62-2.34,.77-3.97,.33-7.87-.72-11.73-.22-.82-.65-1.59-.59-2.48,1.2,.54,2.4,1.07,3.59,1.63,.87,.41,1.62,.34,2.3-.36,.49,.02,.61,.37,.69,.76,.58,2.64,1.26,5.2,1.33,8,.12,5.49-1.23,10.83-1.16,16.31,.03,2.97-.87,5.93-2.19,8.68-3.44-1.48-6.58-3.5-9.74-5.47Z"/>
      <path class="cls-15" d="M161.45,83.84c-.09-4.65-1.76-8.83-4.01-12.78-1.48-2.6-3.21-5.06-4.84-7.57-.2-.31-.35-.69-.82-.68-.02-4.1-.03-8.2-.06-12.3,0-.73,.09-1.24,.97-.68-.25,1.44,1.01,2.3,1.37,3.52,.8,2.76,1.73,5.49,2.6,8.23,.38,1.18,.89,2.29,1.66,3.27-.22,1.02,.61,1.37,1.19,1.87-.01,.54,.06,1.06,.31,1.56,1.74,3.46,3.6,6.87,4.79,10.57,.77,2.38,1.78,4.72,1.72,7.3-1.67-.67-3.01-2.05-4.88-2.31Z"/>
      <path class="cls-6" d="M158.32,64.84c-.78-.98-1.29-2.09-1.66-3.27-.87-2.74-1.8-5.47-2.6-8.23-.36-1.22-1.61-2.08-1.37-3.52,2.27,1.31,4.54,2.61,6.81,3.92,.66,3.03,1.88,5.88,2.82,8.82,.26,.82,.54,1.62,.44,2.5-.48-.24-1-.42-1.43-.72-1.2-.84-2.19-.72-3.01,.51Z"/>
      <path class="cls-13" d="M38.99,218.7c.37-1.1,1.14-1.34,2.25-1.34,38.25,.03,76.5,.02,114.75,.02,.65,0,1.3-.08,1.88,.33,.58,2.04,.15,2.6-2,2.6-38.16,0-76.32,0-114.48,0-1.21,0-2.34,.03-2.4-1.62Z"/>
      <path class="cls-5" d="M19.57,187.2c-4.9,2.89-9.8,5.77-14.94,8.8v-2.24c0-40.27,0-80.55,0-120.82,0-.49,.15-1.04-.03-1.45-.65-1.5,.27-2.09,1.35-2.7,7.68-4.38,15.35-8.78,23.02-13.17,.15,1.92-.35,3.74-.82,5.56-1.05,4.16-2.59,8.22-2.42,12.61-2.09,1.22-4.21,2.39-6.27,3.66-1.83,1.13-3.86,1.92-5.47,3.39-.55,.5-.79,1.02-.29,1.69,.43,.58,.95,.86,1.67,.53,.43-.2,.88-.39,1.3-.62,3.14-1.77,6.27-3.55,9.4-5.32,.18,2.05-.23,4.07-.37,6.1-.19,2.82-.56,5.64-.89,8.45-.31,2.6-.68,5.19-1.02,7.78-1.11,.96-3.57,1.18-2,3.62-.99,.26-.86,1.08-.94,1.82-.15,1.38-.32,2.76-.53,4.14-.76,4.87-3.2,9.11-5.15,13.53-2.01,4.55-2.71,9.21-1.49,14.13,.97,3.93,2.55,7.65,3.61,11.54-.83,.56-1.69,1.09-2.49,1.69-.58,.43-1.05,1.01-.6,1.78,.45,.76,1.1,.91,1.92,.51,.8-.4,1.64-.73,2.46-1.09,.16,1.38,.5,2.76,.81,4.08,.26,1.1,.04,2.19,.39,3.26,.62,1.88,1.08,3.79,.26,5.79-.32,.77-.58,1.63-.48,2.51-.96,1.05-2.4,1.37-3.46,2.27-.78,.66-2.18,1.05-1.58,2.41,.67,1.5,1.82,.41,2.77,.19-.02,.43,.06,.9-.08,1.28-.83,2.18-.65,4.46-.52,6.69,.07,1.3-.09,2.78,.75,3.87,.9,1.17,1.32,2.56,2.13,3.75Zm.54-83.85c-.12-.47-.46-.85-1.06-.9-.78-.06-2.74,1.59-2.64,2.25,.11,.79,.65,1.23,1.44,1.23,1.07,.01,2.32-1.37,2.27-2.59Z"/>
      <path class="cls-2" d="M42.16,73.05c.05,.67,.11,1.34,.16,2.01-1.69-.07-2,.86-2,2.37,.03,31.28,.02,62.56,.02,93.84,0,.97-.03,1.95-.05,2.92-2.15-.97-3.91-2.48-4.65-4.69-1.21-3.61-1.3-7.4-.34-11.09,1.11-4.29,.76-8.52,.02-12.77-.57-3.28-1.43-6.53-1.73-9.83-.51-5.58-.91-11.18-.71-16.79,.32-.28,.64-.56,.96-.85,.6-.56,1.28-1.18,.91-2.05-.35-.8-1.24-.25-1.87-.43,.47-1.85,.17-3.76,.37-5.63,.48-4.58,1.19-9.15,1.54-13.74,.39-5.04,.42-10.11,.71-15.15,.19-3.23,.68-6.45,2.18-9.35,.66-1.27,1.11-2.82,2.62-3.51,.02,1.08,.03,2.15,.05,3.23,.02,1.22,.53,1.83,1.82,1.51Z"/>
      <path class="cls-7" d="M32.88,119.02c-.2,5.61,.2,11.21,.71,16.79,.3,3.3,1.16,6.55,1.73,9.83,.74,4.25,1.09,8.48-.02,12.77-.95,3.69-.86,7.47,.34,11.09,.74,2.2,2.5,3.71,4.65,4.69,.05,1.43-1.49,1.4-2.14,2.23-.61,.78-1.75,1.14-2.66,1.69-.84-.66-1.96-1-2.56-1.91-1.83-2.71-2.56-5.67-2.18-8.98,.12-1.04,.35-2.2,0-3.29,.67-.93,1.71-1.76,.84-3.1,.79-3.72,.87-7.45,.19-11.18-.36-2-.16-4.07-.87-6.01,1.14-2.11,1.1-2.19-1.27-2.3-1.19-6.42-1.59-12.9-1.63-19.41,1.62-.96,3.25-1.93,4.87-2.89Z"/>
      <path class="cls-7" d="M40.29,68.31c-1.51,.69-1.96,2.24-2.62,3.51-1.5,2.9-2,6.12-2.18,9.35-.29,5.05-.33,10.11-.71,15.15-.35,4.59-1.06,9.16-1.54,13.74-.19,1.87,.1,3.77-.37,5.63-1.19,.64-2.37,1.29-3.56,1.93,0-.76-.06-1.52,0-2.27,.41-5.41,.85-10.82,1.27-16.23,.24-.28,.47-.58,.74-.84,.53-.5,.94-1.18,.77-1.83-.23-.89-1.17-.44-1.8-.6,.32-4.26,.73-8.51,.93-12.78,.13-2.68,.39-5.32,.85-7.95,.09-.48,.3-.94-.2-1.31,1.11-.78,1.86-1.75,1.63-3.21,.55-1.57,1.05-3.16,1.64-4.72,1.74-4.59,2.27-9.51,3.86-14.15,.26-.74,.82-1.43,.66-2.3,.55-.48,1.1-.75,.97,.37-.72,6.16-.05,12.34-.35,18.5Z"/>
      <path class="cls-6" d="M19.57,187.2c-.81-1.19-1.23-2.58-2.13-3.75-.84-1.09-.68-2.57-.75-3.87-.12-2.23-.3-4.5,.52-6.69,.14-.38,.06-.85,.08-1.28,2.85-1.46,5.46-3.35,8.41-4.64-.05,1.03-.43,1.97-.73,2.95-.83,2.68-1.12,5.34-.48,8.21,.45,2.01,1.87,3.06,2.88,4.52-2.6,1.51-5.2,3.02-7.8,4.53Z"/>
      <path class="cls-15" d="M27.37,182.66c-1-1.47-2.43-2.51-2.88-4.52-.64-2.88-.35-5.53,.48-8.21,.3-.98,.68-1.92,.73-2.95,1.6-1.16,3.26-2.2,5.05-3.05,.35,1.09,.12,2.25,0,3.29-.38,3.31,.36,6.27,2.18,8.98,.61,.9,1.72,1.25,2.56,1.91-2.52,1.86-5.38,3.1-8.13,4.56Z"/>
      <path class="cls-15" d="M39.67,49.44c.16,.87-.41,1.56-.66,2.3-1.6,4.63-2.12,9.56-3.86,14.15-.59,1.56-1.1,3.14-1.64,4.72-1.42-.25-2.67,.23-3.87,.92,.27-2.59,1.27-4.98,1.95-7.46,1.02-3.72,2.09-7.43,2.28-11.32,1.94-1.1,3.88-2.2,5.82-3.31Z"/>
      <path class="cls-6" d="M33.85,52.74c-.19,3.89-1.25,7.6-2.28,11.32-.68,2.48-1.68,4.87-1.95,7.46-1.3,.76-2.6,1.51-3.89,2.27-.17-4.39,1.36-8.45,2.42-12.61,.46-1.82,.97-3.64,.82-5.56,1.63-.96,3.26-1.92,4.88-2.87Z"/>
      <path class="cls-6" d="M163.09,106.32c.55-.78,.04-1.55,.02-2.33-.14-5.01,.78-9.97,.71-14.98,0-.2,.16-.39,.25-.59,.35,0,.59,.21,.87,.36,4.17,2.23,8.02,5.02,12.42,6.83,.15,3.32-.65,6.58-.64,9.9,0,2.48,.59,4.94,.54,7.38-.07,3.47,.83,6.78,1.1,10.18,.26,3.37,.69,6.73,.93,10.1,.22,3.09-.21,6.15-1.1,9.09-1.31,4.3-2.02,8.58-.91,13.02,.03,.1-.15,.26-.24,.39-1.04-1.27-2.42-2.08-3.8-2.91-1.98-1.18-4.08-2.18-5.93-3.57,.07-.61-.1-1.16-.29-1.73-.88-2.74-1.28-5.59-.94-8.42,.3-2.48,.17-4.94,.27-7.41,.02-.59,.07-1.18,.1-1.77,1.46,.16,2.49,1.21,3.72,1.82,1.76,.88,3.29,2.27,5.34,2.52,.49,.06,1.17,.28,1.46-.32,.31-.65,.06-1.3-.52-1.71-1.05-.74-2.12-1.46-3.21-2.13-2.51-1.53-5.19-2.79-7.57-4.54,.45-1.37,.86-2.81,.64-4.22-.52-3.36-.16-6.72-.29-10.08,1.88-1.59,1.81-2.14-.35-3.3-.88-.48-1.71-1.05-2.57-1.59Zm5.21,5.51c-.05,.52,.05,.96,.55,1.25,1.77,1.01,3.44,2.23,5.41,2.87,.83,.27,1.84,.63,2.27-.37,.36-.83-.47-1.51-1.12-1.94-1.62-1.06-3.3-2.03-4.97-3.01-1.23-.72-2.06-.25-2.14,1.2Z"/>
      <path class="cls-6" d="M166.33,86.14c.06-2.58-.96-4.92-1.72-7.3-1.19-3.7-3.05-7.11-4.79-10.57-.25-.5-.32-1.02-.31-1.56,1.16,.66,2.3,1.37,3.5,1.96,2.1,1.02,3.88,2.68,6.23,3.2,.75,.29,1.03,1.26,1.94,1.32,.34,.32,.68,.63,1.01,.95-.15,.73,.37,1.21,.7,1.74,2.75,4.49,4.36,9.29,4.17,14.62-.02,.55-.08,1.07-.34,1.55-3.6-1.72-6.97-3.86-10.39-5.9Z"/>
      <path class="cls-13" d="M166.33,86.14c3.43,2.03,6.79,4.17,10.39,5.9,.28,.64,1.03,.73,1.45,1.24,.47,.57,1.26,1.07,.95,1.87-.28,.73-1.15,.32-1.75,.46-4.4-1.8-8.26-4.6-12.42-6.83-.29-.15-.53-.37-.87-.36-.97-.63-1.95-1.25-2.9-1.9-1.51-1.04-1.42-1.84,.28-2.68,1.87,.26,3.21,1.64,4.88,2.31Z"/>
      <path class="cls-13" d="M167.3,149.2c1.86,1.39,3.95,2.39,5.93,3.57,1.38,.82,2.76,1.64,3.8,2.91,.02,.22,.03,.43,.05,.65-.67,.7-1.43,.78-2.3,.36-1.19-.57-2.39-1.09-3.59-1.63-2.66-1.6-5.3-3.25-8.1-4.6-.57-.91-2.15-1.59-.67-2.97,1.88-.17,3.26,1.11,4.88,1.71Z"/>
      <path class="cls-13" d="M169.24,71.86c-2.36-.52-4.13-2.17-6.23-3.2-1.2-.58-2.33-1.3-3.5-1.96-.59-.5-1.41-.85-1.19-1.87,.82-1.23,1.81-1.35,3.01-.51,.43,.31,.95,.49,1.43,.72,1.79,1.06,3.56,2.16,5.38,3.17,2.09,1.16,2.21,1.47,1.09,3.63Z"/>
      <path class="cls-13" d="M172.19,74.13c-.34-.32-.68-.63-1.01-.95,.02-.43-.07-.92,.1-1.28,.37-.81,.86-1.57,1.94-.76,.77,.58,1.58,1.11,2.35,1.7,.53,.41,.69,1,.42,1.6-.25,.56-.87,.41-1.3,.34-.84-.14-1.66-.42-2.49-.64Z"/>
      <path class="cls-15" d="M167.3,149.2c-1.62-.6-3-1.87-4.88-1.71-.41-6.13-.3-12.28-.3-18.42,0-.56-.22-1.2,.33-1.67,1.43,.65,2.94,1.18,3.98,2.46-.03,.59-.08,1.18-.1,1.77-.1,2.47,.03,4.93-.27,7.41-.34,2.83,.06,5.68,.94,8.42,.18,.57,.35,1.13,.29,1.73Z"/>
      <path class="cls-13" d="M166.44,129.87c-1.04-1.28-2.55-1.8-3.98-2.46-.75-.58-1.52-1.13-2.25-1.75-.44-.37-.9-.76-.54-1.49,.33-.66,.86-.72,1.47-.67,.53,.05,1.05,.13,1.58,.19,.79,.92,1.83,1.43,2.94,1.81,2.38,1.75,5.06,3,7.57,4.54,1.1,.67,2.16,1.39,3.21,2.13,.59,.41,.83,1.06,.52,1.71-.29,.61-.97,.38-1.46,.32-2.05-.25-3.58-1.64-5.34-2.52-1.24-.62-2.26-1.66-3.72-1.82Z"/>
      <path class="cls-15" d="M165.66,125.51c-1.12-.39-2.16-.89-2.94-1.81-.08-4.13,.36-8.27-.26-12.39-.07-.49-.2-1.1,.39-1.46,1.18,.16,1.93,1.31,3.16,1.36,.14,3.36-.23,6.72,.29,10.08,.22,1.41-.19,2.85-.64,4.22Z"/>
      <path class="cls-13" d="M166,111.21c-1.23-.05-1.98-1.19-3.16-1.36-.42-.6-1.17-.7-1.69-1.13-.61-.5-1.35-1.04-.86-1.98,.48-.91,1.3-.97,2.19-.61,.19,.08,.4,.12,.6,.18,.85,.53,1.68,1.11,2.57,1.59,2.15,1.16,2.23,1.71,.35,3.3Z"/>
      <path class="cls-13" d="M163.4,164.06c1.23,.45,1.25,1.51,.87,2.39-.57,1.38-1.61,.37-2.47,.24-.26-.27-.47-.62-.78-.81-.69-.41-1.08-.88-.73-1.71,.4-.93,1.19-.79,1.93-.64,.41,.08,.78,.34,1.17,.52Z"/>
      <path class="cls-13" d="M172.5,169.27c1.21,.78,2.42,1.55,3.62,2.34,.62,.41,1.11,1.02,.8,1.73-.35,.81-1.22,.58-1.86,.43-.87-.21-1.7-.6-2.55-.92-1.73-1.38-3.75-2.3-5.64-3.42-.74-.44-1.05-1.06-1.31-1.75-.25-.65,.03-1.31,.49-1.74,.46-.43,.89,.12,1.28,.34,1.73,.98,3.45,1.98,5.17,2.97Z"/>
      <path class="cls-6" d="M19.56,166.74c-.1-.89,.16-1.74,.48-2.51,.82-2,.36-3.91-.26-5.79-.35-1.07-.14-2.16-.39-3.26-.31-1.32-.65-2.7-.81-4.08,1.28-.79,2.53-1.62,3.83-2.35,1.1-.62,.85-1.58,.55-2.38-.37-.99-1.14-.66-1.86-.25-1.26,.72-2.54,1.4-3.81,2.1-1.07-3.89-2.64-7.62-3.61-11.54-1.21-4.91-.52-9.57,1.49-14.13,1.95-4.42,4.39-8.66,5.15-13.53,.22-1.37,.38-2.75,.53-4.14,.08-.74-.05-1.56,.94-1.82,.31,.59,.62,.66,1.26,.29,1.2-.67,2.28-1.58,3.63-1.96-.12,2.36-.16,4.73-.37,7.08-.35,3.84-.81,7.67-1.23,11.5-.67,.43-1.33,.89-2.02,1.29-2.32,1.34-4.67,2.62-6.96,4-.72,.43-1.49,1.07-.91,2.1,.5,.89,1.3,.8,2.11,.41,.96-.46,1.92-.91,2.89-1.37-.28,2.73-.62,5.45,.01,8.17,.8,3.47,2.23,6.6,4.89,9.07,0,.91,0,1.82-.03,2.73-.04,.94,.55,.48,.95,.46,.25,1.04,.55,2.07,.75,3.12,.51,2.72,.78,5.44,.63,8.22-.1,1.78-1.3,3.18-1.35,4.93-2.1,1.32-4.24,2.58-6.5,3.63Z"/>
      <path class="cls-15" d="M31.87,73.82c.5,.37,.29,.83,.2,1.31-.47,2.63-.72,5.28-.85,7.95-.21,4.26-.61,8.52-.93,12.78-2.16,1.19-4.33,2.39-6.49,3.58,.34-2.59,.71-5.18,1.02-7.78,.33-2.81,.7-5.63,.89-8.45,.14-2.03,.55-4.05,.37-6.1,1.93-1.11,3.76-2.39,5.8-3.29Z"/>
      <path class="cls-13" d="M31.87,73.82c-2.05,.9-3.88,2.18-5.8,3.29-3.13,1.78-6.26,3.56-9.4,5.32-.42,.23-.86,.42-1.3,.62-.72,.33-1.24,.05-1.67-.53-.5-.66-.26-1.19,.29-1.69,1.61-1.47,3.65-2.26,5.47-3.39,2.06-1.27,4.18-2.44,6.27-3.66,1.3-.76,2.6-1.51,3.89-2.27,1.2-.68,2.45-1.17,3.87-.92,.22,1.46-.52,2.43-1.63,3.21Z"/>
      <path class="cls-13" d="M19.56,166.74c2.26-1.04,4.39-2.31,6.5-3.63,1.86-.73,3.43-2.14,5.53-2.29,.87,1.35-.17,2.18-.84,3.1-1.79,.85-3.45,1.89-5.05,3.05-2.95,1.29-5.55,3.18-8.41,4.64-.95,.22-2.1,1.31-2.77-.19-.61-1.36,.8-1.75,1.58-2.41,1.07-.9,2.5-1.21,3.46-2.27Z"/>
      <path class="cls-13" d="M23.79,99.44c2.16-1.19,4.33-2.39,6.49-3.58,.63,.16,1.57-.29,1.8,.6,.17,.65-.24,1.32-.77,1.83-.27,.25-.49,.56-.74,.84-1.43,.52-2.69,1.36-3.89,2.27-1.36,.37-2.44,1.28-3.63,1.96-.64,.36-.95,.3-1.26-.29-1.57-2.44,.89-2.66,2-3.62Z"/>
      <path class="cls-13" d="M17.29,148.22c1.27-.7,2.56-1.37,3.81-2.1,.72-.41,1.49-.75,1.86,.25,.3,.8,.55,1.76-.55,2.38-1.31,.74-2.56,1.57-3.83,2.35-.82,.36-1.66,.69-2.46,1.09-.82,.41-1.48,.25-1.92-.51-.45-.77,.02-1.35,.6-1.78,.8-.6,1.66-1.13,2.49-1.69Z"/>
      <path class="cls-13" d="M20.11,103.34c.05,1.21-1.19,2.6-2.27,2.59-.79,0-1.33-.45-1.44-1.23-.09-.66,1.87-2.31,2.64-2.25,.6,.05,.94,.43,1.06,.9Z"/>
      <path class="cls-13" d="M20.2,126.42c-.96,.45-1.92,.91-2.89,1.37-.81,.38-1.61,.47-2.11-.41-.58-1.03,.19-1.67,.91-2.1,2.29-1.38,4.64-2.67,6.96-4,.69-.4,1.35-.86,2.02-1.29,1.41-.79,2.82-1.57,4.22-2.35,1.19-.64,2.37-1.29,3.56-1.93,.62,.18,1.52-.38,1.87,.43,.38,.87-.31,1.5-.91,2.05-.31,.29-.64,.57-.96,.85-1.62,.96-3.25,1.93-4.87,2.89-2.6,1.5-5.21,3-7.81,4.51Z"/>
      <path class="cls-15" d="M20.2,126.42c2.6-1.5,5.21-3,7.81-4.51,.04,6.51,.44,13,1.63,19.41-1.51,.78-3.03,1.56-4.54,2.34-2.66-2.47-4.09-5.6-4.89-9.07-.63-2.72-.29-5.45-.01-8.17Z"/>
      <path class="cls-15" d="M31.59,160.82c-2.1,.16-3.67,1.56-5.53,2.29,.05-1.74,1.26-3.14,1.35-4.93,.15-2.79-.12-5.51-.63-8.22-.2-1.05-.5-2.08-.75-3.11,1.63-1.07,3.25-2.15,4.88-3.22,.71,1.94,.51,4.02,.87,6.01,.68,3.74,.6,7.47-.19,11.18Z"/>
      <path class="cls-13" d="M30.91,143.62c-1.63,1.07-3.25,2.15-4.88,3.22-.4,.02-.99,.48-.96-.46,.04-.91,.02-1.82,.03-2.73,1.51-.78,3.03-1.56,4.54-2.34,2.37,.11,2.41,.19,1.27,2.3Z"/>
      <path class="cls-15" d="M29.31,117.62c-1.41,.78-2.82,1.57-4.22,2.35,.42-3.83,.88-7.66,1.23-11.5,.21-2.35,.25-4.72,.37-7.08,1.2-.92,2.46-1.75,3.89-2.27-.43,5.41-.86,10.82-1.27,16.23-.06,.75,0,1.51,0,2.27Z"/>
      <path class="cls-13" d="M168.3,111.84c.09-1.45,.92-1.92,2.14-1.2,1.67,.98,3.35,1.95,4.97,3.01,.65,.43,1.48,1.11,1.12,1.94-.43,1-1.45,.64-2.27,.37-1.97-.64-3.63-1.86-5.41-2.87-.5-.29-.59-.73-.55-1.25Z"/>
    </g>
  </g>
  <g id="Layer_1" data-name="Layer 1">
    <text class="cls-8" transform="translate(35.95 203.88)"><tspan x="0" y="0">Graphic Design</tspan></text>
    <g>
      <path class="cls-10" d="M146.38,13.85c.31,.21,.61,.42,.92,.62,.63,.35,.78,1.03,1.11,1.59,.36,.78,.9,.33,1.35,.17,1.36-.48,2.74-.87,4.16-1.17,2.2-.46,4.35-.33,6.49,.29,.45,.02,.87,.15,1.22,.44,.21,0,.42,0,.62,0,.28,.93,.7,1.77,1.48,2.38,2.27,.73,4.65,.69,6.98,1.03,1.91,.28,3.85,.41,5.76,.78,1.65,.78,3.4,1.38,4.92,2.42,1.97,1.34,2.41,3,1.27,5.1-.45,.84-.21,1.49,.37,2.03,2.49,2.34,2.95,5.13,1.99,8.28-.25,.83,0,1.61,.28,2.37,.57,1.55,.3,3.08-.08,4.61-.14,.58-.36,1.14-1.01,1.37-2.58-.52-3.32-1.37-3.27-3.84,.02-1.05-.14-2.06-.63-2.98-1.06-1.97-1.39-4.1-1.29-6.28,.09-1.8-.56-3.14-2.01-4.16-.62-.43-1.15-.99-1.72-1.48-.72-.62-1.54-1.12-2.49-1.04-2.74,.23-5.48,.08-8.24,.29-3.69,.29-7.29,1.62-11.08,.98-1.27-.22-2.6,.15-3.86,.42-3.83,.84-7.65,.17-11.47,.05-3.06-.1-6.08-.89-9.19-.09-1.23,.32-2.59-.07-3.82-.49-1.3-.44-2.61-.72-3.98-.44-.98,.2-1.7-.14-2.13-1.04-.57-1.18-1.44-1.34-2.54-.75-1.13,.61-2.37,.73-3.63,.68-3.15-.11-6.26,.1-9.35,.79-2.24,.5-4.4-.2-6.57-.65-.86-.18-1.24-.98-1.67-1.67-.89-1.41-1.15-1.37-2.57-.63-2.64,1.37-5.37,2.71-8.4,2.72-6.6,.03-13.11,1.4-19.72,1.08-4.05-.2-7.98-.78-11.51-2.92-2.52-1.53-5.01-1.62-7.73-.46-3.54,1.51-7.36,2.19-11.06,3.2-.73,.2-1.5,.24-2.24-.01-1.38-1.06-1.18-2.59-1.22-4.06,1.5-2.75,3.99-4.33,6.71-5.62,4.2-1.99,8.57-2.97,13.22-2,.95,.2,1.91,.32,2.68,1.03,.66,.61,1.43,.34,2.14,.07,2.19-.81,4.43-1.41,6.76-1.63,.38-.04,.76-.19,1.13-.11,2.84,.63,4.69-.68,6.29-2.88,2.77-3.8,6.8-5.55,11.28-6.43,.48-.1,.97-.13,1.42,.13,.77,.64,.67,1.53,.67,2.38,0,1.14,.08,2.25,.65,3.27,.29,1.32,1.12,2,2.45,2.19,1.11,.16,1.96,.87,2.83,1.52,.61,.45,1.19,.95,2,.96,.16,.03,.31,.08,.45,.15,2.61,.74,5.24,1.19,7.96,.7,1.12-.2,2.25-.12,3.38-.07,1.72,.08,2.05-.3,1.83-2.06-.09-.39,.06-.65,.42-.8,.57,.24,.8,1.03,1.56,.95,.66,.11,1.08,.61,1.59,.96,.53,.55,1.17,.47,1.79,.24,2.54-.91,5.04-.78,7.51,.23,.58,.23,1.15,.17,1.73,.06,.68,0,1.24,.41,1.87,.56,1.49,.78,2.97,.27,4.4-.15,1.08-.31,2.08-.33,3.17-.05,3.46,.89,6.87,1.13,10.25-.5,1.59-.77,3.34-1.21,5.11-1.5,1.04,.2,1.64-.47,2.24-1.13Z"/>
      <path class="cls-3" d="M32.03,27.16c3.08,.04,5.86-1.28,8.8-1.93,2.11-.46,4.09-1.34,6.12-2.05,1.47-.51,3.16-.65,4.55,.24,6.28,4.05,13.3,3.93,20.33,3.68,2.02-.07,4.03-.61,6.04-.87,1.64-.21,3.3,.03,4.94,.01,3.29-.04,6.16-1.36,9.15-2.35,.41-.14,.53-.52,.8-.77,.9-.84,1.99-.84,2.43,.23,1.6,3.82,5.1,3.21,7.85,2.94,3.42-.33,6.82-.88,10.27-.78,1.16,.04,2.2-.19,3.24-.79,1.48-.85,2.18-.58,2.86,1.05,.36,.86,.77,1.15,1.72,.86,1.22-.38,2.45-.17,3.65,.26,1.84,.66,3.64,.88,5.64,.36,2.37-.61,4.82,.1,7.23,.29,4.61,.36,9.21,.79,13.78-.23,2.19-.49,4.38,.26,6.56-.17,.57-.11,1.16-.21,1.74-.29,3.57-.51,7.12-1.37,10.77-.84,.3,.04,.63-.02,.94-.06,.27-.03,.53-.11,.79-.13,3.03-.22,7.28,3.69,7.25,6.71-.02,2.39,.17,4.72,1.42,6.86,.62,1.06,.76,2.31,.49,3.46-.29,1.24,.26,1.79,1.22,2.19,.6,.25,1.01,.84,1.7,.88,.05,1.32-.71,2.02-1.86,2.43-.79-.17-1.48-.58-2.21-.91-.85-.77-1.21-1.78-1.02-2.85,.18-1.03-.12-1.86-.63-2.68-.26-1.07-.74-2.03-1.31-2.96-.34-.55-.52-1.14-.41-1.8,.02-.09,.02-.18,0-.27q1.41-1.61-.03-3.32c-.88-1.05-1.41-2.29-2.01-3.5-.75-1.52-1.36-1.78-2.82-.99-2.34,1.28-4.76,1.41-7.22,.65-2.67-.83-5.2-.91-7.88,.17-2.56,1.02-5.37,1.18-8.13,1.22-1,.01-1.94,.1-2.71,.82-.43,.03-.85,.05-1.28,.08-1.41-.08-2.8-.31-4.16-.67-4.38-1.16-8.8-.84-13.21-.35-2.16,.24-4.32,.3-6.47,0-1.21-.17-2.37-.12-3.49,.37l-1.93-.05c-.54-1.59-.7-1.69-2.64-1.05-5.58,1.82-11.05,1.43-16.44-.75-.99-.4-1.8-.88-1.87-2.15-.06-1.07-.9-.91-1.58-.65-.96,.36-1.85,.89-2.74,1.38-2.72,1.49-5.65,2.08-8.72,2.07-1.11,0-2.15,.08-3.02,.87-.44-.02-.87-.04-1.31-.06-.1-.33,.02-.64,.11-.95,.25-.86-.23-1.07-.94-1.04-.6,.02-1.17,.19-1.75,.34-6.61,1.69-13.19,1.31-19.72-.35-1.14-.29-2.23-.24-3.35-.19-.32-.02-.65-.05-.97-.07-.14-.53,.21-.92,.39-1.36,.14-.37,.24-.75-.14-1.02-.35-.25-.72-.15-1.06,.07-.23,.14-.4,.35-.59,.54-1.98,1.93-4.33,2.93-7.12,2.9-2.04-.02-4.05-.06-6.04,.7-1.53,.58-3.89-1.57-3.96-3.39Z"/>
      <path class="cls-13" d="M178.83,41.77c.7,.83,1.24,1.6,.77,2.87-.33,.88,.2,1.86,.84,2.63,.61,.4,1.17,.89,1.95,.93,1.01-.43,1.4-1.4,1.92-2.24,.96-2.06,1.29-4.17,.37-6.33-.34-.8-.24-1.52,0-2.32,.8-2.71,.49-5.16-1.72-7.2-1.02-.94-1.94-1.91-.3-3.28,.92-.77,.15-2.92-1.12-3.89-1.51-1.15-3.43-1.5-4.95-2.6-1.1-2.49-3.25-2.53-5.54-2.47-1.83,.05-3.65,.16-5.45,.51-.8,.15-1.6,.25-2.33-.25-.78-.58-1.53-1.18-1.01-2.33,1.81-1.06,3.91-.96,5.86-1.19,2.36-.27,4.82-.38,7.21,.22,1.93,.48,2.72,1.32,3.07,3.24,.1,.56,.76,.46,1.17,.64,2.14,.91,4.19,1.93,5.24,4.15,.58,1.23,1.08,2.49,.57,3.96-.29,.83-.25,1.68,.48,2.56,2.02,2.46,2.21,5.36,1.4,8.33-.2,.72,.03,1.32,.15,1.97,.65,3.69,.04,7.05-2.38,10.05-2.1,2.6-5.44,1.79-6.89-1.02-.68-1.32-1.12-2.68-1.29-4.2-.16-1.51-1.54-2.63-1.68-4.23-.02-.27-.2-.58-.23-.9q-.18-2.14,1.92-2.18c.53,.43,.26,1.21,.72,1.67,.36,1,.74,1.98,1.25,2.91Z"/>
      <path class="cls-13" d="M32.03,27.16c.45,1.36,1.72,2.01,2.6,3,.32,.36,.84,.35,1.2,.12,1.82-1.15,3.84-.87,5.81-.85,3,.03,5.57-.8,7.5-3.23,.56-.7,1.33-.84,2.16-.32,.97,.62,.23,1.21-.02,1.77-.17,.38-.48,.71-.72,1.06-3.06,3.57-7.17,3.82-11.43,3.63-.39-.02-.71-.18-1.19,.07-2.92,1.51-3.13,1.24-5.8-.98-2.61-2.17-3.25-5.02-3.62-8.03-.34-2.73,1.28-4.8,2.87-6.71,2.86-3.44,6.74-4.76,11.13-5.17,2.92-.28,5.7,.07,8.51,.67,.78,.17,1.31,.59,1.87,1.05,.42,2.48-.09,2.86-2.57,2.2-3.67-.99-7.38-1.13-11.04,.02-3.96,1.25-6.65,3.91-8.15,7.77,.2,1.33,.14,2.73,.9,3.93Z"/>
      <path class="cls-14" d="M31.13,23.23c-.07-1.88,1-3.31,2.15-4.52,2.3-2.43,5.17-3.8,8.58-4.26,3.32-.45,6.43-.04,9.6,.91,1.88,.56,1.16-1.25,1.44-2.12,.24,.82,.67,.85,1.22,.27,2.04-.32,3.88-1.31,5.83-1.91,1.86-.57,3.74-.7,5.59-.16,1.35,.4,2.21-.03,2.84-1.15,.72-1.27,1.37-2.58,2.25-3.75,1.59-2.1,3.6-3.55,6.25-4.01,1.79-.31,3.32,.28,4.65,1.39,.6,.51,1.14,1.18,.82,2.12-5,.75-9.45,2.5-12.5,6.83-1.53,2.16-3.41,3.13-6.29,2.73-1.97-.27-4.15,.32-6.12,1.1-.85,.34-1.74,.56-2.61,.87-.43,.15-.88,.29-1.24,0-2.62-2.1-5.59-1.82-8.66-1.52-4.05,.4-7.52,2.07-10.86,4.22-1.23,.79-1.69,2.24-2.93,2.96Z"/>
      <path class="cls-13" d="M108.06,16.17c-.67-.07-1.05-.51-1.35-1.05-.29-1.42,.6-1.97,1.72-2.42,4.05-1.63,7.96-1.63,11.66,.96,.44,.31,.78,.29,1.37,.01,2.68-1.26,5.55-1.62,8.4-.77,2,.6,3.8,.15,5.65-.43,2.29-.72,4.58-1.35,7.04-1.25,1.32,.06,2.31,.7,3.34,1.34,.48,.29,.52,.78,.5,1.28-.33,.91-.42,2.18-1.94,1.27-2.24-.78-4.47-.56-6.65,.18-3.17,1.07-6.3,1.64-9.64,.6-1.68-.53-3.41,.12-5.02,.77-.7,.28-1.35,.68-2.13,.72-.69,.2-1.09-.32-1.57-.65-.51-.01-.95-.23-1.35-.49-2.69-1.78-5.49-1.56-8.34-.46-.54,.21-1.05,.59-1.69,.39Z"/>
      <path class="cls-13" d="M82.34,6.05c-1.1-3.59-5.35-3.9-8.48-1.97-2.04,1.26-3.36,3.13-4.45,5.2-.45,.86-.84,1.73-1.57,2.42-.43,.41-.89,.7-1.44,.47-3.66-1.5-6.92-.08-10.19,1.32-.71,.31-1.39,.64-2.1,.03-.63-1.6,.15-2.44,1.56-2.99,3.24-1.25,6.46-2.57,10.05-1.55,.89,.25,1.1-.43,1.46-1.06,1.86-3.32,4.03-6.31,7.93-7.5,5.43-1.65,10.26,1.88,10.19,7.48-.01,1.26,.18,2.56-.65,3.67-.19,.46-.48,.64-.96,.39-.93-.7-.93-1.72-1-2.74-.07-1.06,.31-2.17-.36-3.16Z"/>
      <path class="cls-13" d="M78.49,31.04c-.01-1.14,.78-1.33,1.64-1.29,4.52,.24,8.6-.98,12.4-3.39,1.51-.96,2.36-.38,2.39,1.43,.01,.61,.44,.83,.88,1,3.97,1.62,8.01,2.63,12.38,2.01,1.88-.26,3.69-.67,5.48-1.26,.67-.22,1.48-.4,2,.13,.44,.44,.18,1.12-.14,1.66-1.5,1.85-3.75,1.97-5.79,2.25-4.65,.63-9.24,.08-13.65-1.59-.93-.35-1.98-.68-2.68-1.34-.96-.9-1.63-.6-2.59-.11-3.14,1.64-6.53,2.17-10.05,2.13-1.2-.01-1.86-.61-2.26-1.64Z"/>
      <path class="cls-13" d="M146.05,31.97c-.09-.92,.37-1.27,1.25-1.25,4.01,.07,7.94-.44,11.69-1.94,1.92-.77,3.72,0,5.51,.49,2.71,.74,5.28,.81,7.75-.83,.96-.64,1.91-.55,2.57,.65,.7,1.26,1.05,2.71,2.03,3.83,.28,.32,.5,.76,.85,.94,.79,.4,.95,1.02,.75,1.75-.21,.77-.64,1.38-1.59,1.31-1.6-1.23-2.63-2.89-3.45-4.69-.26-.56-.41-.89-1.11-.53-2.83,1.45-5.81,1.29-8.65,.25-2.03-.74-3.75-.37-5.67,.23-3.28,1.03-6.65,1.62-10.15,1.18-1.01-.13-1.24-.86-1.76-1.39Z"/>
      <path class="cls-13" d="M117.44,31.39c.38-1.68,1.81-1.09,2.65-.93,3.46,.67,6.91,.26,10.28-.16,4.05-.5,7.91,.04,11.78,.95,.87,.21,2.04-.39,2.62,.79-.5,2.01-1.36,2.55-3.87,1.83-4.86-1.39-9.72-.84-14.6-.29-2.37,.27-4.71-.13-7.05-.37-.94-.1-1.46-.97-1.83-1.83Z"/>
      <path class="cls-13" d="M51.53,28.79c.73-.93,1.7-.8,2.62-.48,3.81,1.33,7.8,1.58,11.74,1.66,2.96,.06,6.02-.16,8.9-1.19,.25-.09,.52-.16,.78-.2,.83-.13,1.84-.54,2.4,.3,.55,.83-.39,1.43-.79,2.09-3.54,1.57-7.3,1.73-11.09,1.74-3.91,.01-7.75-.41-11.56-1.32-1.56-.37-2.59-1.07-3-2.62Z"/>
      <path class="cls-13" d="M105.14,14.17c-.12,.22-.24,.43-.35,.65-.08,.95-.81,1.1-1.52,1.09-3.2-.08-6.33,.3-9.46,.94-.86,.18-1.83,.07-2.65-.43h.02c-1.37-1.33-2.72-2.66-4.57-3.39-.65-.26-.93-1.01-.69-1.79,.24-1.46,1.42-1.04,2.17-.87,1.57,.35,3.09,1.04,4.04,2.42,.54,.79,1.11,.86,1.88,.65,2.93-.79,5.91-1.05,8.92-.85,.97,.06,2.29-.06,2.22,1.59Z"/>
      <path class="cls-13" d="M161.63,15.78c-.43,0-.86,0-1.29,0-1.99-2.92-4.58-2.31-7.26-1.25-1.05,.42-2.07,.87-3.05,1.44-.64,.37-1.34,.79-2.04,.08-.23-.53-.46-1.06-.7-1.59,.04-.68,.54-1,1.05-1.31,2.3-1.4,4.75-2.44,7.42-2.84,1.55-.23,3.12,.12,4.5,.82,1.91,.97,2.28,2.46,1.37,4.64Z"/>
      <path class="cls-14" d="M85.92,11.23c.33,1.14,1.04,1.79,2.24,2.13,1.52,.43,2.37,1.7,3.02,3.07-.94,.66-1.52-.19-2.06-.63-1.1-.88-2.24-1.66-3.65-1.84-1.24-.16-1.77-.82-1.76-2.01,.32-.13,.64-.26,.96-.39,.42-.11,.84-.22,1.26-.33Z"/>
      <path class="cls-14" d="M121,17.39c2.36-1.74,5.07-2.73,7.87-1.83,3,.96,5.66,.26,8.43-.6,1.63-.51,3.3-.91,5.04-.8,.85,.05,1.58,.22,2.09,.96-2.93,1.02-5.8,2.33-8.82,2.96-1.92,.4-4.2,.34-6.04-.46-2.05-.89-3.83-.19-5.63,.25-1.2,.3-2.04,.15-2.95-.49Z"/>
      <path class="cls-14" d="M163.26,18.11c3.1-.22,6.15-.92,9.29-.73,3.1,.19,3.11,.1,4.02,2.95-3.25-.37-6.49-.71-9.73-1.15-.7-.09-1.39-.1-2.09-.15-.65-.05-1.32-.09-1.5-.92Z"/>
      <path class="cls-14" d="M91.16,16.42c1.73,.26,3.38-.12,5.05-.53,2.27-.55,4.59-.43,6.9-.41,.67,0,1.3,.01,1.68-.66,1.12,.4,.64,1.17,.37,1.81-.28,.66-.67,1.21-1.58,1-1.53-.35-3.05-.23-4.6,.02-2.52,.41-4.98-.18-7.43-.75-.16-.04-.26-.32-.39-.48Z"/>
      <path class="cls-14" d="M147.99,16.06c.81,.22,1.44-.17,2.09-.58,1.79-1.11,3.75-1.82,5.79-2.24,2.19-.45,3.6,.41,4.47,2.55-3.79-1.21-7.39-.38-10.92,1.07-.87,.36-1.35,.17-1.43-.8Z"/>
      <path class="cls-14" d="M108.06,16.17c4.28-2.43,8.08-2.24,11.38,.57-.47,.58-.98,.69-1.69,.35-2.56-1.2-5.18-1.3-7.83-.26-.81,.32-1.6,.57-1.85-.66Z"/>
      <path class="cls-10" d="M178.83,41.77c-.96-.74-1.19-1.79-1.25-2.91,.63,.88,1.22,1.78,1.25,2.91Z"/>
      <path class="cls-10" d="M182.38,48.2c-1.01,.46-1.47-.26-1.95-.93,.75,.11,1.39,.43,1.95,.93Z"/>
    </g>
  </g>
</svg>