<?xml version="1.0" encoding="UTF-8"?>
<svg xmlns="http://www.w3.org/2000/svg" viewBox="0 0 196.87 216.49">
  <defs>
    <style>
      .cls-1 {
        fill: #cfe6ee;
      }

      .cls-2 {
        fill: #bbadaf;
      }

      .cls-3 {
        fill: #a77975;
      }

      .cls-4 {
        fill: #ac8381;
      }

      .cls-5 {
        fill: #bfa49e;
      }

      .cls-6 {
        fill: #fff;
        font-family: ArialMT, Arial;
        font-size: 18px;
      }

      .cls-7 {
        fill: #d0b6a4;
      }

      .cls-8 {
        fill: #9fb571;
      }

      .cls-9 {
        fill: #92a568;
      }

      .cls-10 {
        fill: #bb9389;
      }

      .cls-11 {
        fill: #785049;
      }

      .cls-12 {
        fill: #b6d080;
      }

      .cls-13 {
        fill: #b08e8c;
      }
    </style>
  </defs>
  <g id="Layer_2" data-name="Layer 2">
    <g>
      <path class="cls-11" d="M167.01,41.92c7.36,4.23,14.74,8.44,22.07,12.73,.97,.57,1.1,1.81,1.27,2.86,.12,.74,.07,1.5,.09,2.26-.02,.54-.07,1.08-.07,1.62,0,14.22,0,28.45,0,42.67,0,27.58-.01,55.16-.02,82.74,0,.8-.02,1.39-.88,2-1.91,1.34-3.49,1.02-5.33-.1-2.16-1.31-4.29-2.73-6.78-3.76v2c0,6.98,0,13.96,0,20.94,0,2.46-.19,2.64-2.69,2.64-4.17,0-8.33-.06-12.5,.03-1.51,.03-2.27-.36-2.07-1.96,.13-1.09,.94-1,1.7-1,3.79,0,7.58-.05,11.36,.03,1.3,.03,1.63-.38,1.62-1.64-.06-6.98-.06-13.96,.01-20.94,.01-1.39-.36-2.27-1.68-2.7-6-3.47-12.15-6.7-17.94-10.49-4.3-2.81-8.68-3.72-13.75-3.66-19.3,.23-38.61,.1-57.92,.09-.72,0-1.56,.26-1.99-.66-.61-1.94-.38-2.25,1.65-2.25,21.32,0,42.64-.02,63.97,.04,1.65,0,2.01-.41,2.01-2.03-.06-27.06-.04-54.13-.05-81.19,0-.82-.05-1.62,.71-2.18,1.77-.27,1.91,.83,1.91,2.17-.02,23.19-.02,46.38-.01,69.56,0,3.78,.04,7.57,.06,11.35-.18,3.5-.03,3.76,2.84,4.9,.05,.28,.18,.49,.44,.64,3.65,2.06,7.3,4.12,10.95,6.18,3.16,1.97,6.3,3.99,9.74,5.47,2.4,1.85,5.09,3.22,7.72,4.69,1.68,.94,1.7,.91,1.7-1.1,0-15.25,0-30.5,0-45.76,0-25.91-.01-51.81,.03-77.72,0-1.25-.38-1.88-1.48-2.5-8.1-4.6-16.15-9.28-24.21-13.94-2.27-1.31-4.54-2.61-6.81-3.92-.88-.56-.97-.05-.97,.68,.03,4.1,.04,8.2,.06,12.3,0,5.41,0,10.82,0,16.22-.02,2.34-.04,4.69-.05,7.03,0,1.26-.56,1.99-1.89,1.98-.77-.55-.72-1.35-.72-2.17,.01-11.41,.02-22.82-.01-34.24,0-1.09,.15-2.14,.38-3.17,.39-1.7,.26-1.92-1.52-1.92-6.6,0-13.19-.04-19.79,.03-1.84,.02-3.48-.38-5-1.37-.25-1.4,.53-1.59,1.69-1.59,8.95,.01,17.89-.02,26.84-.04,7.39,.3,14.79-.37,22.17,.37,.89,.09,1.24-.23,1.23-1.18-.04-4.54-.03-9.09,0-13.63,0-.85-.29-1.13-1.13-1.13-1.24,0-2.43,.37-3.68,.37-40.45-.03-80.89-.03-121.34-.03-.49,0-.97,0-1.46,0-.66,0-.97-.38-1.03-1.01-.33-1.63,.48-1.94,1.94-1.94,42.12,.03,84.23,.02,126.35,.02,.65,0,1.3-.02,1.95-.03,.8,.49,.66,1.28,.66,2.03,0,5.34,0,10.69,0,16.03,0,2.58-.5,3.08-3.12,3.08-4.8,0-9.61,0-14.41,0-.43,0-.87,.05-1.58,.1,3.11,1.8,5.92,3.43,8.74,5.06Z"/>
      <path class="cls-7" d="M160.12,208.6c-.2,1.6,.57,1.99,2.07,1.96,4.16-.09,8.33-.03,12.5-.03,2.5,0,2.69-.18,2.69-2.64,0-6.98,0-13.96,0-20.94v-2c2.49,1.03,4.62,2.45,6.78,3.76,1.84,1.12,3.42,1.44,5.33,.1,.86-.61,.88-1.2,.88-2,0-27.58,.02-55.16,.02-82.74,0-14.22,0-28.45,0-42.67,0-.54,.04-1.08,.07-1.62,1.86,1.07,3.71,2.18,5.6,3.2,.62,.34,.85,.76,.81,1.42-.03,.43,0,.87,0,1.3,0,43.3,0,86.6,0,129.9,0,3.75-1.02,4.48-4.76,3.3-2.49-.79-4.54-2.43-6.81-3.66-1.04-.56-2.05-1.16-3.11-1.76-.39,.42-.24,.87-.23,1.26,.16,4.85-.33,9.72,.23,14.57,.07,.63-.12,1.39-.54,1.99-.71,1.01-1.37,2.04-2.11,3.03-.84,1.14-1.89,1.75-3.43,1.75-50.11-.03-100.21-.03-150.32-.03-2.46,0-3.09-.53-3.72-3.05-.21-.83-.56-1.63-.5-2.51,4.72,.01,9.44,.02,14.16,.05,1.15,0,1.75-.6,2.08-1.61,.4,0,.8,0,1.2,0,.06,1.64,1.2,1.62,2.4,1.62,38.16-.01,76.32,0,114.48,0,2.15,0,2.58-.56,2-2.6,.87-.2,1.39,.81,2.24,.67Z"/>
      <path class="cls-11" d="M37.79,208.92c-.33,1.01-.92,1.62-2.08,1.61-4.72-.03-9.44-.04-14.16-.05-.92-.6-1.03-1.5-1.03-2.51,.02-9.14,.01-18.29,.01-27.63-3.19,1.84-6.25,3.61-9.33,5.37-2.58,1.48-5.16,2.96-7.75,4.42-1.35,.76-3.31-.38-3.38-1.94-.02-.38,0-.76,0-1.14,0-41.78,.01-83.56-.01-125.35,0-6.68-.99-4.83,5.22-8.52,9.2-5.46,18.51-10.74,27.77-16.1,.07-.04,.1-.14,.21-.33-1.83,0-3.6-.09-5.36,.02-2.06,.13-4.06-.35-6.11-.37-1.34-.01-1.55-1.16-1.56-2.05-.07-5.68-.04-11.37-.04-17.05,0-.76,.44-1.17,1.14-1.34,.73-.18,1.44-.35,2.22-.34,6.49,.03,12.99,.06,19.48-.02,1.54-.02,2.08,.5,1.87,1.95-.28,.53-.52,1.02-1.29,1.02-6.6-.03-13.2,0-19.8-.09-.78-.01-1.04-.07-1.04,.77,.02,4.97,.01,9.95,.01,15.01,4.38-.87,8.7-.21,13-.49,.76,.01,1.51,.04,2.27,.04,26.61,0,53.22,.01,79.83,.02,.43,0,.89-.09,1.29,.02,.95,.26,2.09,.31,2.35,1.6-.66,1.12-1.69,1.3-2.89,1.3-24.44-.02-48.89-.02-73.33,0-.96,0-2.15-.41-2.79,.26-.33,.35,.24,1.56,.39,2.38,.03,.16,0,.32,0,.49,0,7.25,0,14.5,.02,21.74,0,.72-.16,1.26-.79,1.62-1.29,.32-1.81-.29-1.82-1.51-.02-1.08-.03-2.15-.05-3.23,.31-6.16-.36-12.35,.35-18.5,.13-1.11-.42-.84-.97-.37-1.94,1.1-3.88,2.2-5.82,3.31-1.63,.96-3.26,1.92-4.88,2.87-7.67,4.39-15.34,8.79-23.02,13.17-1.09,.62-2,1.2-1.35,2.7,.18,.41,.03,.96,.03,1.45,0,40.27,0,80.55,0,120.82v2.24c5.15-3.03,10.05-5.92,14.94-8.8,2.6-1.51,5.2-3.02,7.8-4.53,2.75-1.45,5.61-2.7,8.13-4.56,.91-.55,2.05-.91,2.66-1.69,.65-.83,2.19-.8,2.14-2.23,.02-.97,.05-1.95,.05-2.92,0-31.28,.01-62.56-.02-93.84,0-1.5,.32-2.44,2-2.37,1.1,.26,.59,1.14,.59,1.73,.03,32.13,.02,64.25,.02,96.38,0,.49,0,.97,.01,1.46,0,.3,.09,.54,.46,.46,1.45-.32,2.88,.09,4.32,.09,9.79-.02,19.57-.01,29.36-.01q2.21,0,2.19,2.27c-.63,.61-1.4,.66-2.24,.66-11.47-.02-22.94,0-34.41-.02-.82,0-1.54,.14-2.28,.58-5.1,3-10.21,5.97-15.37,8.85-1.13,.63-1.8,1.25-1.47,2.58-.02,8.71-.02,17.43-.07,26.14,0,.96,.37,1.18,1.24,1.17,3.35-.04,6.71-.05,10.07,0,1.15,.02,2.41-.02,3.04,1.3Z"/>
      <path class="cls-10" d="M35.8,33.79c-4.29,.28-8.62-.38-13,.49,0-5.06,.01-10.04-.01-15.01,0-.84,.27-.78,1.04-.77,6.6,.09,13.2,.06,19.8,.09,.77,0,1.01-.49,1.29-1.02,.52,0,1.03,0,1.55,0,.06,.62,.37,1,1.03,1.01,.49,0,.97,0,1.46,0,40.45,0,80.89,0,121.34,.03,1.26,0,2.44-.36,3.68-.37,.84,0,1.14,.28,1.13,1.13-.03,4.54-.03,9.09,0,13.63,0,.94-.34,1.27-1.23,1.18-7.38-.75-14.78-.08-22.17-.37,.08-.6-.2-1.03-.65-1.39-2.81-2.25-5.95-3.95-9.38-4.97-5.74-1.7-11.69-2.31-17.64-2.66-4.94-.29-9.9,.09-14.85,.05-2.85-.02-5.76,.44-8.6,.47-6.5,.07-12.94,.95-19.42,1.03-5.18,.06-10.35,.1-15.54-.18-4.3-.23-8.62-.52-12.94-.43-5.68,.11-10.81,1.77-15.14,5.51-.76,.66-1.79,1.29-1.74,2.57Z"/>
      <path class="cls-7" d="M167.01,41.92c-2.82-1.63-5.64-3.26-8.74-5.06,.71-.05,1.14-.1,1.58-.1,4.8,0,9.61,0,14.41,0,2.62,0,3.12-.5,3.12-3.08,0-5.34,0-10.69,0-16.03,0-.75,.13-1.54-.66-2.03,.61-.9,1.38-.98,2.17-.32,1.78,1.48,3.45,2.94,3.39,5.64-.11,5.99-.14,11.99,.02,17.98,.05,1.99-1.14,2.68-2.92,2.7-3.62,.04-7.23,0-10.85,.02-.51,0-1.09-.23-1.52,.28Z"/>
      <path class="cls-1" d="M42.16,63.27c.63-.36,.8-.9,.79-1.62-.03-7.25-.02-14.5-.02-21.74,0-.16,.02-.33,0-.49-.15-.82-.73-2.04-.39-2.38,.64-.67,1.83-.26,2.79-.26,24.44-.01,48.89-.02,73.33,0,1.2,0,2.24-.18,2.89-1.3,.55-.02,1.09-.03,1.64-.05,1.52,.99,3.16,1.39,5,1.37,6.6-.07,13.19-.03,19.79-.03,1.77,0,1.9,.22,1.52,1.92-.24,1.03-.39,2.08-.38,3.17,.03,11.41,.02,22.82,.01,34.24,0,.82-.05,1.62,.72,2.17,0,.59,0,1.17,0,1.76-.75,.56-.71,1.36-.71,2.18,0,27.06,0,54.13,.05,81.19,0,1.62-.36,2.03-2.01,2.03-21.32-.06-42.64-.04-63.97-.04-2.03,0-2.26,.32-1.65,2.25-.75,0-1.5,.01-2.25,.02q.02-2.27-2.19-2.27c-9.79,0-19.57-.01-29.36,.01-1.44,0-2.88-.41-4.32-.09-.37,.08-.46-.16-.46-.46,0-.49-.01-.97-.01-1.46,0-32.13,0-64.25-.02-96.38,0-.58,.5-1.47-.59-1.73-.05-.67-.11-1.34-.16-2.01Z"/>
      <path class="cls-10" d="M37.79,208.92c-.63-1.32-1.9-1.28-3.04-1.3-3.35-.06-6.71-.04-10.07,0-.87,0-1.25-.21-1.24-1.17,.05-8.71,.05-17.43,.07-26.14,2.53,.77,5.13,1.23,7.76,1.29,3.71,.08,7.19-1.22,10.74-2.03,3.86-.88,7.6-1.25,11.35,.46,3.27,1.49,6.89,1.5,10.31,1.4,3.43-.1,6.9-.28,10.32-.34,8.47-.15,16.95-.27,25.44,.13,7.48,.36,14.98,.39,22.48,.69,3.01,.12,6.03-.07,9.05-.19,4.17-.16,8.18-1.27,12.29-1.58,3.99-.3,8.08-.76,11.95,1.07,4.24,2,8.77,2.99,13.44,2.95,1.6-.02,3.5,.03,4.5-1.81,1.32,.43,1.69,1.31,1.68,2.7-.07,6.98-.07,13.96-.01,20.94,.01,1.26-.32,1.67-1.62,1.64-3.79-.09-7.57-.03-11.36-.03-.77,0-1.58-.09-1.7,1-.86,.14-1.37-.87-2.24-.67-.57-.4-1.23-.33-1.88-.33-38.25,0-76.5,0-114.75-.02-1.11,0-1.89,.24-2.25,1.34-.4,0-.8,0-1.2,0Z"/>
      <path class="cls-5" d="M173.13,182.35c-1,1.83-2.91,1.79-4.5,1.81-4.68,.05-9.2-.94-13.44-2.95-3.87-1.83-7.96-1.37-11.95-1.07-4.1,.31-8.11,1.42-12.29,1.58-3.02,.12-6.04,.31-9.05,.19-7.49-.3-14.99-.33-22.48-.69-8.49-.41-16.97-.29-25.44-.13-3.42,.06-6.89,.24-10.32,.34-3.43,.1-7.04,.09-10.31-1.4-3.75-1.71-7.49-1.34-11.35-.46-3.55,.81-7.04,2.11-10.74,2.03-2.63-.06-5.23-.52-7.76-1.29-.33-1.33,.34-1.95,1.47-2.58,5.16-2.88,10.28-5.86,15.37-8.85,.75-.44,1.46-.58,2.28-.58,11.47,.01,22.94,0,34.41,.02,.84,0,1.61-.05,2.24-.66,.75,0,1.5-.01,2.25-.02,.43,.92,1.27,.66,1.99,.66,19.31,0,38.62,.13,57.92-.09,5.07-.06,9.45,.85,13.75,3.66,5.79,3.79,11.94,7.02,17.94,10.49Z"/>
      <path class="cls-3" d="M159.5,43.96c8.06,4.66,16.11,9.35,24.21,13.94,1.1,.62,1.48,1.25,1.48,2.5-.04,25.91-.03,51.81-.03,77.72,0,15.25,0,30.5,0,45.76,0,2.01-.02,2.04-1.7,1.1-2.63-1.47-5.32-2.84-7.72-4.69,1.32-2.74,2.23-5.71,2.19-8.68-.06-5.48,1.29-10.82,1.16-16.31-.06-2.79-.75-5.36-1.33-8-.08-.39-.21-.74-.69-.76-.02-.22-.03-.43-.05-.65,.08-.13,.26-.29,.24-.39-1.11-4.44-.4-8.73,.91-13.02,.9-2.94,1.32-6,1.1-9.09-.24-3.37-.66-6.73-.93-10.1-.27-3.4-1.17-6.71-1.1-10.18,.05-2.44-.54-4.9-.54-7.38,0-3.31,.8-6.58,.64-9.9,.6-.14,1.47,.27,1.75-.46,.31-.81-.48-1.3-.95-1.87-.42-.51-1.17-.6-1.45-1.24,.26-.49,.32-1,.34-1.55,.18-5.32-1.42-10.13-4.17-14.62-.33-.53-.85-1.01-.7-1.74,.83,.22,1.65,.5,2.49,.64,.43,.07,1.05,.23,1.3-.34,.27-.59,.11-1.19-.42-1.6-.77-.59-1.58-1.12-2.35-1.7-1.07-.81-1.56-.04-1.94,.76-.17,.36-.07,.85-.1,1.28-.91-.05-1.19-1.03-1.94-1.32,1.12-2.17,1-2.47-1.09-3.63-1.82-1.01-3.59-2.11-5.38-3.17,.1-.88-.18-1.68-.44-2.5-.94-2.94-2.16-5.79-2.82-8.82Z"/>
      <path class="cls-5" d="M123.18,35.42c-.55,.02-1.09,.03-1.64,.05-.26-1.29-1.4-1.34-2.35-1.6-.4-.11-.86-.02-1.29-.02-26.61,0-53.22,0-79.83-.02-.76,0-1.51-.03-2.27-.04-.04-1.27,.98-1.91,1.74-2.57,4.33-3.75,9.45-5.4,15.14-5.51,4.32-.08,8.64,.2,12.94,.43,5.19,.28,10.37,.24,15.54,.18,6.48-.08,12.92-.96,19.42-1.03,2.85-.03,5.75-.49,8.6-.47,4.95,.04,9.9-.35,14.85-.05,5.95,.35,11.9,.96,17.64,2.66,3.43,1.02,6.56,2.72,9.38,4.97,.45,.36,.73,.79,.65,1.39-8.95,.02-17.89,.05-26.84,.04-1.17,0-1.94,.19-1.69,1.59Z"/>
      <path class="cls-5" d="M154.61,168.01c-2.87-1.14-3.02-1.4-2.84-4.9,1.52-1.06,2.6-2.48,3.32-4.16,1.62-3.78,2.45-7.74,2.84-11.84,.57-6.04,.54-12.12,.15-18.12-.43-6.6-1.15-13.17-1.19-19.8-.01-2.09-.23-4.19-.37-6.28-.27-4.01-.94-8-1.19-12.01-.27-4.3,.1-8.62-.32-12.94-.26-2.67-.89-5.18-1.95-7.62-.24-.56-.6-1.03-1.29-1.09,0-5.41,0-10.82,0-16.22,.47,0,.62,.38,.82,.68,1.62,2.52,3.35,4.98,4.84,7.57,2.25,3.95,3.93,8.13,4.01,12.78-1.7,.84-1.79,1.65-.28,2.68,.95,.65,1.93,1.27,2.9,1.9-.09,.2-.25,.4-.25,.59,.07,5.01-.85,9.97-.71,14.98,.02,.78,.52,1.56-.02,2.33-.2-.06-.41-.1-.6-.18-.89-.36-1.71-.3-2.19,.61-.49,.93,.25,1.48,.86,1.98,.52,.43,1.28,.53,1.69,1.13-.59,.36-.47,.96-.39,1.46,.62,4.12,.19,8.26,.26,12.39-.53-.07-1.05-.15-1.58-.2-.61-.05-1.15,0-1.47,.67-.36,.72,.1,1.12,.54,1.49,.72,.61,1.5,1.17,2.25,1.75-.56,.46-.33,1.1-.34,1.67,0,6.14-.11,12.28,.3,18.42-1.47,1.37,.11,2.05,.67,2.97-.74,2.28,.16,4.52,.16,6.79,0,2.27,.62,4.52,.14,6.8-.39-.18-.76-.44-1.17-.52-.74-.15-1.53-.3-1.93,.64-.35,.82,.04,1.3,.73,1.71,.31,.18,.52,.53,.78,.81-.12,.52-.24,1.04-.37,1.55-1.03,4.07-2.84,7.59-6.82,9.54Z"/>
      <path class="cls-2" d="M151.77,69.25c.69,.06,1.05,.53,1.29,1.09,1.06,2.43,1.69,4.95,1.95,7.62,.42,4.32,.06,8.64,.32,12.94,.25,4.01,.92,8,1.19,12.01,.14,2.09,.36,4.19,.37,6.28,.04,6.62,.75,13.2,1.19,19.8,.4,6.01,.42,12.08-.15,18.12-.39,4.1-1.22,8.06-2.84,11.84-.72,1.68-1.8,3.1-3.32,4.16-.02-3.78-.05-7.57-.05-11.35,0-23.19,0-46.38,.01-69.56,0-1.35-.14-2.44-1.91-2.17,0-.59,0-1.17,0-1.76,1.33,0,1.88-.73,1.89-1.98,.01-2.34,.03-4.69,.05-7.03Z"/>
      <path class="cls-13" d="M163.4,154.28c.48-2.28-.15-4.54-.14-6.8,0-2.27-.91-4.51-.16-6.79,2.81,1.35,5.44,2.99,8.1,4.6-.07,.89,.36,1.66,.59,2.48,1.05,3.86,1.48,7.76,.72,11.73-1.72-.99-3.44-2-5.17-2.97-.39-.22-.82-.77-1.28-.34-.46,.43-.74,1.09-.49,1.74,.26,.69,.57,1.32,1.31,1.75,1.89,1.12,3.91,2.03,5.64,3.42-.34,1.07-.51,2.23-1.05,3.18-.72,1.27-.23,2.81-1.11,3.97-1.12,1.48-1.64,3.56-3.87,3.97-.19,.04-.32,.4-.48,.62-3.65-2.06-7.3-4.12-10.95-6.18-.26-.15-.39-.36-.44-.64,3.98-1.96,5.79-5.48,6.82-9.54,.13-.52,.25-1.04,.37-1.55,.86,.14,1.9,1.14,2.47-.24,.37-.89,.35-1.94-.87-2.39Z"/>
      <path class="cls-4" d="M166,174.82c.16-.21,.29-.58,.48-.62,2.24-.41,2.76-2.49,3.87-3.97,.88-1.16,.39-2.71,1.11-3.97,.54-.95,.71-2.11,1.05-3.18,.85,.31,1.67,.71,2.55,.92,.64,.15,1.51,.38,1.86-.43,.31-.72-.18-1.33-.8-1.73-1.2-.79-2.41-1.56-3.62-2.34,.77-3.97,.33-7.87-.72-11.73-.22-.82-.65-1.59-.59-2.48,1.2,.54,2.4,1.07,3.59,1.63,.87,.41,1.62,.34,2.3-.36,.49,.02,.61,.37,.69,.76,.58,2.64,1.26,5.2,1.33,8,.12,5.49-1.23,10.83-1.16,16.31,.03,2.97-.87,5.93-2.19,8.68-3.44-1.48-6.58-3.5-9.74-5.47Z"/>
      <path class="cls-13" d="M161.45,74.06c-.09-4.65-1.76-8.83-4.01-12.78-1.48-2.6-3.21-5.06-4.84-7.57-.2-.31-.35-.69-.82-.68-.02-4.1-.03-8.2-.06-12.3,0-.73,.09-1.24,.97-.68-.25,1.44,1.01,2.3,1.37,3.52,.8,2.76,1.73,5.49,2.6,8.23,.38,1.18,.89,2.29,1.66,3.27-.22,1.02,.61,1.37,1.19,1.87-.01,.54,.06,1.06,.31,1.56,1.74,3.46,3.6,6.87,4.79,10.57,.77,2.38,1.78,4.72,1.72,7.3-1.67-.67-3.01-2.05-4.88-2.31Z"/>
      <path class="cls-4" d="M158.32,55.06c-.78-.98-1.29-2.09-1.66-3.27-.87-2.74-1.8-5.47-2.6-8.23-.36-1.22-1.61-2.08-1.37-3.52,2.27,1.31,4.54,2.61,6.81,3.92,.66,3.03,1.88,5.88,2.82,8.82,.26,.82,.54,1.62,.44,2.5-.48-.24-1-.42-1.43-.72-1.2-.84-2.19-.72-3.01,.51Z"/>
      <path class="cls-11" d="M38.99,208.92c.37-1.1,1.14-1.34,2.25-1.34,38.25,.03,76.5,.02,114.75,.02,.65,0,1.3-.08,1.88,.33,.58,2.04,.15,2.6-2,2.6-38.16,0-76.32,0-114.48,0-1.21,0-2.34,.03-2.4-1.62Z"/>
      <path class="cls-3" d="M19.57,177.42c-4.9,2.89-9.8,5.77-14.94,8.8v-2.24c0-40.27,0-80.55,0-120.82,0-.49,.15-1.04-.03-1.45-.65-1.5,.27-2.09,1.35-2.7,7.68-4.38,15.35-8.78,23.02-13.17,.15,1.92-.35,3.74-.82,5.56-1.05,4.16-2.59,8.22-2.42,12.61-2.09,1.22-4.21,2.39-6.27,3.66-1.83,1.13-3.86,1.92-5.47,3.39-.55,.5-.79,1.02-.29,1.69,.43,.58,.95,.86,1.67,.53,.43-.2,.88-.39,1.3-.62,3.14-1.77,6.27-3.55,9.4-5.32,.18,2.05-.23,4.07-.37,6.1-.19,2.82-.56,5.64-.89,8.45-.31,2.6-.68,5.19-1.02,7.78-1.11,.96-3.57,1.18-2,3.62-.99,.26-.86,1.08-.94,1.82-.15,1.38-.32,2.76-.53,4.14-.76,4.87-3.2,9.11-5.15,13.53-2.01,4.55-2.71,9.21-1.49,14.13,.97,3.93,2.55,7.65,3.61,11.54-.83,.56-1.69,1.09-2.49,1.69-.58,.43-1.05,1.01-.6,1.78,.45,.76,1.1,.91,1.92,.51,.8-.4,1.64-.73,2.46-1.09,.16,1.38,.5,2.76,.81,4.08,.26,1.1,.04,2.19,.39,3.26,.62,1.88,1.08,3.79,.26,5.79-.32,.77-.58,1.63-.48,2.51-.96,1.05-2.4,1.37-3.46,2.27-.78,.66-2.18,1.05-1.58,2.41,.67,1.5,1.82,.41,2.77,.19-.02,.43,.06,.9-.08,1.28-.83,2.18-.65,4.46-.52,6.69,.07,1.3-.09,2.78,.75,3.87,.9,1.17,1.32,2.56,2.13,3.75Zm.54-83.85c-.12-.47-.46-.85-1.06-.9-.78-.06-2.74,1.59-2.64,2.25,.11,.79,.65,1.23,1.44,1.23,1.07,.01,2.32-1.37,2.27-2.59Z"/>
      <path class="cls-2" d="M42.16,63.27c.05,.67,.11,1.34,.16,2.01-1.69-.07-2,.86-2,2.37,.03,31.28,.02,62.56,.02,93.84,0,.97-.03,1.95-.05,2.92-2.15-.97-3.91-2.48-4.65-4.69-1.21-3.61-1.3-7.4-.34-11.09,1.11-4.29,.76-8.52,.02-12.77-.57-3.28-1.43-6.53-1.73-9.83-.51-5.58-.91-11.18-.71-16.79,.32-.28,.64-.56,.96-.85,.6-.56,1.28-1.18,.91-2.05-.35-.8-1.24-.25-1.87-.43,.47-1.85,.17-3.76,.37-5.63,.48-4.58,1.19-9.15,1.54-13.74,.39-5.04,.42-10.11,.71-15.15,.19-3.23,.68-6.45,2.18-9.35,.66-1.27,1.11-2.82,2.62-3.51,.02,1.08,.03,2.15,.05,3.23,.02,1.22,.53,1.83,1.82,1.51Z"/>
      <path class="cls-5" d="M32.88,109.24c-.2,5.61,.2,11.21,.71,16.79,.3,3.3,1.16,6.55,1.73,9.83,.74,4.25,1.09,8.48-.02,12.77-.95,3.69-.86,7.47,.34,11.09,.74,2.2,2.5,3.71,4.65,4.69,.05,1.43-1.49,1.4-2.14,2.23-.61,.78-1.75,1.14-2.66,1.69-.84-.66-1.96-1-2.56-1.91-1.83-2.71-2.56-5.67-2.18-8.98,.12-1.04,.35-2.2,0-3.29,.67-.93,1.71-1.76,.84-3.1,.79-3.72,.87-7.45,.19-11.18-.36-2-.16-4.07-.87-6.01,1.14-2.11,1.1-2.19-1.27-2.3-1.19-6.42-1.59-12.9-1.63-19.41,1.62-.96,3.25-1.93,4.87-2.89Z"/>
      <path class="cls-5" d="M40.29,58.53c-1.51,.69-1.96,2.24-2.62,3.51-1.5,2.9-2,6.12-2.18,9.35-.29,5.05-.33,10.11-.71,15.15-.35,4.59-1.06,9.16-1.54,13.74-.19,1.87,.1,3.77-.37,5.63-1.19,.64-2.37,1.29-3.56,1.93,0-.76-.06-1.52,0-2.27,.41-5.41,.85-10.82,1.27-16.23,.24-.28,.47-.58,.74-.84,.53-.5,.94-1.18,.77-1.83-.23-.89-1.17-.44-1.8-.6,.32-4.26,.73-8.51,.93-12.78,.13-2.68,.39-5.32,.85-7.95,.09-.48,.3-.94-.2-1.31,1.11-.78,1.86-1.75,1.63-3.21,.55-1.57,1.05-3.16,1.64-4.72,1.74-4.59,2.27-9.51,3.86-14.15,.26-.74,.82-1.43,.66-2.3,.55-.48,1.1-.75,.97,.37-.72,6.16-.05,12.34-.35,18.5Z"/>
      <path class="cls-4" d="M19.57,177.42c-.81-1.19-1.23-2.58-2.13-3.75-.84-1.09-.68-2.57-.75-3.87-.12-2.23-.3-4.5,.52-6.69,.14-.38,.06-.85,.08-1.28,2.85-1.46,5.46-3.35,8.41-4.64-.05,1.03-.43,1.97-.73,2.95-.83,2.68-1.12,5.34-.48,8.21,.45,2.01,1.87,3.06,2.88,4.52-2.6,1.51-5.2,3.02-7.8,4.53Z"/>
      <path class="cls-13" d="M27.37,172.88c-1-1.47-2.43-2.51-2.88-4.52-.64-2.88-.35-5.53,.48-8.21,.3-.98,.68-1.92,.73-2.95,1.6-1.16,3.26-2.2,5.05-3.05,.35,1.09,.12,2.25,0,3.29-.38,3.31,.36,6.27,2.18,8.98,.61,.9,1.72,1.25,2.56,1.91-2.52,1.86-5.38,3.1-8.13,4.56Z"/>
      <path class="cls-13" d="M39.67,39.66c.16,.87-.41,1.56-.66,2.3-1.6,4.63-2.12,9.56-3.86,14.15-.59,1.56-1.1,3.14-1.64,4.72-1.42-.25-2.67,.23-3.87,.92,.27-2.59,1.27-4.98,1.95-7.46,1.02-3.72,2.09-7.43,2.28-11.32,1.94-1.1,3.88-2.2,5.82-3.31Z"/>
      <path class="cls-4" d="M33.85,42.96c-.19,3.89-1.25,7.6-2.28,11.32-.68,2.48-1.68,4.87-1.95,7.46-1.3,.76-2.6,1.51-3.89,2.27-.17-4.39,1.36-8.45,2.42-12.61,.46-1.82,.97-3.64,.82-5.56,1.63-.96,3.26-1.92,4.88-2.87Z"/>
      <path class="cls-4" d="M163.09,96.55c.55-.78,.04-1.55,.02-2.33-.14-5.01,.78-9.97,.71-14.98,0-.2,.16-.39,.25-.59,.35,0,.59,.21,.87,.36,4.17,2.23,8.02,5.02,12.42,6.83,.15,3.32-.65,6.58-.64,9.9,0,2.48,.59,4.94,.54,7.38-.07,3.47,.83,6.78,1.1,10.18,.26,3.37,.69,6.73,.93,10.1,.22,3.09-.21,6.15-1.1,9.09-1.31,4.3-2.02,8.58-.91,13.02,.03,.1-.15,.26-.24,.39-1.04-1.27-2.42-2.08-3.8-2.91-1.98-1.18-4.08-2.18-5.93-3.57,.07-.61-.1-1.16-.29-1.73-.88-2.74-1.28-5.59-.94-8.42,.3-2.48,.17-4.94,.27-7.41,.02-.59,.07-1.18,.1-1.77,1.46,.16,2.49,1.21,3.72,1.82,1.76,.88,3.29,2.27,5.34,2.52,.49,.06,1.17,.28,1.46-.32,.31-.65,.06-1.3-.52-1.71-1.05-.74-2.12-1.46-3.21-2.13-2.51-1.53-5.19-2.79-7.57-4.54,.45-1.37,.86-2.81,.64-4.22-.52-3.36-.16-6.72-.29-10.08,1.88-1.59,1.81-2.14-.35-3.3-.88-.48-1.71-1.05-2.57-1.59Zm5.21,5.51c-.05,.52,.05,.96,.55,1.25,1.77,1.01,3.44,2.23,5.41,2.87,.83,.27,1.84,.63,2.27-.37,.36-.83-.47-1.51-1.12-1.94-1.62-1.06-3.3-2.03-4.97-3.01-1.23-.72-2.06-.25-2.14,1.2Z"/>
      <path class="cls-4" d="M166.33,76.36c.06-2.58-.96-4.92-1.72-7.3-1.19-3.7-3.05-7.11-4.79-10.57-.25-.5-.32-1.02-.31-1.56,1.16,.66,2.3,1.37,3.5,1.96,2.1,1.02,3.88,2.68,6.23,3.2,.75,.29,1.03,1.26,1.94,1.32,.34,.32,.68,.63,1.01,.95-.15,.73,.37,1.21,.7,1.74,2.75,4.49,4.36,9.29,4.17,14.62-.02,.55-.08,1.07-.34,1.55-3.6-1.72-6.97-3.86-10.39-5.9Z"/>
      <path class="cls-11" d="M166.33,76.36c3.43,2.03,6.79,4.17,10.39,5.9,.28,.64,1.03,.73,1.45,1.24,.47,.57,1.26,1.07,.95,1.87-.28,.73-1.15,.32-1.75,.46-4.4-1.8-8.26-4.6-12.42-6.83-.29-.15-.53-.37-.87-.36-.97-.63-1.95-1.25-2.9-1.9-1.51-1.04-1.42-1.84,.28-2.68,1.87,.26,3.21,1.64,4.88,2.31Z"/>
      <path class="cls-11" d="M167.3,139.43c1.86,1.39,3.95,2.39,5.93,3.57,1.38,.82,2.76,1.64,3.8,2.91,.02,.22,.03,.43,.05,.65-.67,.7-1.43,.78-2.3,.36-1.19-.57-2.39-1.09-3.59-1.63-2.66-1.6-5.3-3.25-8.1-4.6-.57-.91-2.15-1.59-.67-2.97,1.88-.17,3.26,1.11,4.88,1.71Z"/>
      <path class="cls-11" d="M169.24,62.08c-2.36-.52-4.13-2.17-6.23-3.2-1.2-.58-2.33-1.3-3.5-1.96-.59-.5-1.41-.85-1.19-1.87,.82-1.23,1.81-1.35,3.01-.51,.43,.31,.95,.49,1.43,.72,1.79,1.06,3.56,2.16,5.38,3.17,2.09,1.16,2.21,1.47,1.09,3.63Z"/>
      <path class="cls-11" d="M172.19,64.35c-.34-.32-.68-.63-1.01-.95,.02-.43-.07-.92,.1-1.28,.37-.81,.86-1.57,1.94-.76,.77,.58,1.58,1.11,2.35,1.7,.53,.41,.69,1,.42,1.6-.25,.56-.87,.41-1.3,.34-.84-.14-1.66-.42-2.49-.64Z"/>
      <path class="cls-13" d="M167.3,139.43c-1.62-.6-3-1.87-4.88-1.71-.41-6.13-.3-12.28-.3-18.42,0-.56-.22-1.2,.33-1.67,1.43,.65,2.94,1.18,3.98,2.46-.03,.59-.08,1.18-.1,1.77-.1,2.47,.03,4.93-.27,7.41-.34,2.83,.06,5.68,.94,8.42,.18,.57,.35,1.13,.29,1.73Z"/>
      <path class="cls-11" d="M166.44,120.09c-1.04-1.28-2.55-1.8-3.98-2.46-.75-.58-1.52-1.13-2.25-1.75-.44-.37-.9-.76-.54-1.49,.33-.66,.86-.72,1.47-.67,.53,.05,1.05,.13,1.58,.19,.79,.92,1.83,1.43,2.94,1.81,2.38,1.75,5.06,3,7.57,4.54,1.1,.67,2.16,1.39,3.21,2.13,.59,.41,.83,1.06,.52,1.71-.29,.61-.97,.38-1.46,.32-2.05-.25-3.58-1.64-5.34-2.52-1.24-.62-2.26-1.66-3.72-1.82Z"/>
      <path class="cls-13" d="M165.66,115.74c-1.12-.39-2.16-.89-2.94-1.81-.08-4.13,.36-8.27-.26-12.39-.07-.49-.2-1.1,.39-1.46,1.18,.16,1.93,1.31,3.16,1.36,.14,3.36-.23,6.72,.29,10.08,.22,1.41-.19,2.85-.64,4.22Z"/>
      <path class="cls-11" d="M166,101.43c-1.23-.05-1.98-1.19-3.16-1.36-.42-.6-1.17-.7-1.69-1.13-.61-.5-1.35-1.04-.86-1.98,.48-.91,1.3-.97,2.19-.61,.19,.08,.4,.12,.6,.18,.85,.53,1.68,1.11,2.57,1.59,2.15,1.16,2.23,1.71,.35,3.3Z"/>
      <path class="cls-11" d="M163.4,154.28c1.23,.45,1.25,1.51,.87,2.39-.57,1.38-1.61,.37-2.47,.24-.26-.27-.47-.62-.78-.81-.69-.41-1.08-.88-.73-1.71,.4-.93,1.19-.79,1.93-.64,.41,.08,.78,.34,1.17,.52Z"/>
      <path class="cls-11" d="M172.5,159.49c1.21,.78,2.42,1.55,3.62,2.34,.62,.41,1.11,1.02,.8,1.73-.35,.81-1.22,.58-1.86,.43-.87-.21-1.7-.6-2.55-.92-1.73-1.38-3.75-2.3-5.64-3.42-.74-.44-1.05-1.06-1.31-1.75-.25-.65,.03-1.31,.49-1.74,.46-.43,.89,.12,1.28,.34,1.73,.98,3.45,1.98,5.17,2.97Z"/>
      <path class="cls-4" d="M19.56,156.96c-.1-.89,.16-1.74,.48-2.51,.82-2,.36-3.91-.26-5.79-.35-1.07-.14-2.16-.39-3.26-.31-1.32-.65-2.7-.81-4.08,1.28-.79,2.53-1.62,3.83-2.35,1.1-.62,.85-1.58,.55-2.38-.37-.99-1.14-.66-1.86-.25-1.26,.72-2.54,1.4-3.81,2.1-1.07-3.89-2.64-7.62-3.61-11.54-1.21-4.91-.52-9.57,1.49-14.13,1.95-4.42,4.39-8.66,5.15-13.53,.22-1.37,.38-2.75,.53-4.14,.08-.74-.05-1.56,.94-1.82,.31,.59,.62,.66,1.26,.29,1.2-.67,2.28-1.58,3.63-1.96-.12,2.36-.16,4.73-.37,7.08-.35,3.84-.81,7.67-1.23,11.5-.67,.43-1.33,.89-2.02,1.29-2.32,1.34-4.67,2.62-6.96,4-.72,.43-1.49,1.07-.91,2.1,.5,.89,1.3,.8,2.11,.41,.96-.46,1.92-.91,2.89-1.37-.28,2.73-.62,5.45,.01,8.17,.8,3.47,2.23,6.6,4.89,9.07,0,.91,0,1.82-.03,2.73-.04,.94,.55,.48,.95,.46,.25,1.04,.55,2.07,.75,3.12,.51,2.72,.78,5.44,.63,8.22-.1,1.78-1.3,3.18-1.35,4.93-2.1,1.32-4.24,2.58-6.5,3.63Z"/>
      <path class="cls-13" d="M31.87,64.04c.5,.37,.29,.83,.2,1.31-.47,2.63-.72,5.28-.85,7.95-.21,4.26-.61,8.52-.93,12.78-2.16,1.19-4.33,2.39-6.49,3.58,.34-2.59,.71-5.18,1.02-7.78,.33-2.81,.7-5.63,.89-8.45,.14-2.03,.55-4.05,.37-6.1,1.93-1.11,3.76-2.39,5.8-3.29Z"/>
      <path class="cls-11" d="M31.87,64.04c-2.05,.9-3.88,2.18-5.8,3.29-3.13,1.78-6.26,3.56-9.4,5.32-.42,.23-.86,.42-1.3,.62-.72,.33-1.24,.05-1.67-.53-.5-.66-.26-1.19,.29-1.69,1.61-1.47,3.65-2.26,5.47-3.39,2.06-1.27,4.18-2.44,6.27-3.66,1.3-.76,2.6-1.51,3.89-2.27,1.2-.68,2.45-1.17,3.87-.92,.22,1.46-.52,2.43-1.63,3.21Z"/>
      <path class="cls-11" d="M19.56,156.96c2.26-1.04,4.39-2.31,6.5-3.63,1.86-.73,3.43-2.14,5.53-2.29,.87,1.35-.17,2.18-.84,3.1-1.79,.85-3.45,1.89-5.05,3.05-2.95,1.29-5.55,3.18-8.41,4.64-.95,.22-2.1,1.31-2.77-.19-.61-1.36,.8-1.75,1.58-2.41,1.07-.9,2.5-1.21,3.46-2.27Z"/>
      <path class="cls-11" d="M23.79,89.66c2.16-1.19,4.33-2.39,6.49-3.58,.63,.16,1.57-.29,1.8,.6,.17,.65-.24,1.32-.77,1.83-.27,.25-.49,.56-.74,.84-1.43,.52-2.69,1.36-3.89,2.27-1.36,.37-2.44,1.28-3.63,1.96-.64,.36-.95,.3-1.26-.29-1.57-2.44,.89-2.66,2-3.62Z"/>
      <path class="cls-11" d="M17.29,138.44c1.27-.7,2.56-1.37,3.81-2.1,.72-.41,1.49-.75,1.86,.25,.3,.8,.55,1.76-.55,2.38-1.31,.74-2.56,1.57-3.83,2.35-.82,.36-1.66,.69-2.46,1.09-.82,.41-1.48,.25-1.92-.51-.45-.77,.02-1.35,.6-1.78,.8-.6,1.66-1.13,2.49-1.69Z"/>
      <path class="cls-11" d="M20.11,93.57c.05,1.21-1.19,2.6-2.27,2.59-.79,0-1.33-.45-1.44-1.23-.09-.66,1.87-2.31,2.64-2.25,.6,.05,.94,.43,1.06,.9Z"/>
      <path class="cls-11" d="M20.2,116.64c-.96,.45-1.92,.91-2.89,1.37-.81,.38-1.61,.47-2.11-.41-.58-1.03,.19-1.67,.91-2.1,2.29-1.38,4.64-2.67,6.96-4,.69-.4,1.35-.86,2.02-1.29,1.41-.79,2.82-1.57,4.22-2.35,1.19-.64,2.37-1.29,3.56-1.93,.62,.18,1.52-.38,1.87,.43,.38,.87-.31,1.5-.91,2.05-.31,.29-.64,.57-.96,.85-1.62,.96-3.25,1.93-4.87,2.89-2.6,1.5-5.21,3-7.81,4.51Z"/>
      <path class="cls-13" d="M20.2,116.64c2.6-1.5,5.21-3,7.81-4.51,.04,6.51,.44,13,1.63,19.41-1.51,.78-3.03,1.56-4.54,2.34-2.66-2.47-4.09-5.6-4.89-9.07-.63-2.72-.29-5.45-.01-8.17Z"/>
      <path class="cls-13" d="M31.59,151.05c-2.1,.16-3.67,1.56-5.53,2.29,.05-1.74,1.26-3.14,1.35-4.93,.15-2.79-.12-5.51-.63-8.22-.2-1.05-.5-2.08-.75-3.11,1.63-1.07,3.25-2.15,4.88-3.22,.71,1.94,.51,4.02,.87,6.01,.68,3.74,.6,7.47-.19,11.18Z"/>
      <path class="cls-11" d="M30.91,133.85c-1.63,1.07-3.25,2.15-4.88,3.22-.4,.02-.99,.48-.96-.46,.04-.91,.02-1.82,.03-2.73,1.51-.78,3.03-1.56,4.54-2.34,2.37,.11,2.41,.19,1.27,2.3Z"/>
      <path class="cls-13" d="M29.31,107.84c-1.41,.78-2.82,1.57-4.22,2.35,.42-3.83,.88-7.66,1.23-11.5,.21-2.35,.25-4.72,.37-7.08,1.2-.92,2.46-1.75,3.89-2.27-.43,5.41-.86,10.82-1.27,16.23-.06,.75,0,1.51,0,2.27Z"/>
      <path class="cls-11" d="M168.3,102.06c.09-1.45,.92-1.92,2.14-1.2,1.67,.98,3.35,1.95,4.97,3.01,.65,.43,1.48,1.11,1.12,1.94-.43,1-1.45,.64-2.27,.37-1.97-.64-3.63-1.86-5.41-2.87-.5-.29-.59-.73-.55-1.25Z"/>
    </g>
  </g>
  <g id="Layer_1" data-name="Layer 1">
    <text class="cls-6" transform="translate(52.46 194.1)"><tspan x="0" y="0">Illustrations</tspan></text>
    <g>
      <path class="cls-8" d="M119.5,4.83c.3,0,.6,0,.9,0,.71,.68,1.69,.71,2.54,1.05,.3,.32,.49,.71,.77,1.04,1.42,1.67,2.49,1.96,4.58,1.3,1.44-.45,2.76-1.23,4.27-1.49,1.93-.33,3.84-.36,5.76,.16,.98,.27,2.02,.33,3.02,.53,1.82,.36,3.04-.27,3.8-1.92,.18-.39,.41-.76,.76-1.03,.47-.29,.96-.18,1.38,.06,1.16,.68,2.01,.25,2.75-.68,.53-.1,1.05-.21,1.58-.31,.83-.11,.99,.57,1.31,1.08,1.24,2.59,2.8,3.48,5.44,2.67,3.9-1.19,7.92-.79,11.87-1.25,.7-.08,1.43,.03,2.04,.39,2.35,1.36,4.76,2.22,7.49,1.2,.38,.21,.46,.58,.49,.96,.18,2.12,1.23,3.73,2.88,5.01,.6,.55,.17,1.29,.34,1.92-.5,1.27-.32,2.56,0,3.81,.35,1.41,.7,2.84,1.28,4.17,.85,1.96,1.02,3.98,.61,6.02-.57,2.8-.45,5.39,1.11,7.92,1.32,2.14,.99,4.57,.51,6.92-.1,.51-.26,1.08-.96,1.14-2.22-1.75-3.79-3.75-4.06-6.81-.35-4.03-.97-8.05-1.9-12-.42-1.79-.85-3.57-1.18-5.38-.8-4.33-3.28-6.09-7.7-5.47-2.3,.32-4.6,.76-6.84,1.36-3.9,1.05-7.86,1.45-11.88,1.44-5.08,0-10.17,.05-15.22-.64-1.1-.15-2.08-.48-3-1.11-1.54-1.05-3.23-1.37-5.1-1-2.92,.58-5.79,1.34-8.71,1.93-5.16,1.04-10.25,1.21-15.43,.05-2.19-.49-4.51-.44-6.76-.77-.67-.1-1.26,.23-1.81,.61-3.23,2.21-6.85,2.63-10.58,2-4.59-.78-9.24-1.14-13.77-2.24-1.08-.26-2.14-.05-3.19,.3-3.43,1.15-6.73,2.69-10.27,3.55-3.56,.86-7.1,.74-10.62,.02-1.46-.3-2.78-.33-4.11,.2-1.34,.54-2.71,.71-4.13,.66-5.09-.15-10.14-.66-15.02-2.19-1.13-.35-2.1-.2-3.08,.41-2.4,1.5-4.17,3.36-4.23,6.43-.05,2.43-.3,4.87,.65,7.2,.33,.95,.46,2.09,1.93,1.94,.22-.02,.37,.21,.49,.39,1.4,2.2,2.62,4.47,1.27,7.11-.75,1.47-.92,2.82,.02,4.22-.08,.36,.13,.62,.31,.89-.51,.63-.64,1.3-.36,2.1,.89,2.56,.42,4.99-.8,7.33-.79,1.53-1.37,3.17-2.33,4.61-.87,1.29-1.49,1.33-2.5,.12-1.04-1.24-2.1-2.5-1.92-4.29,.09-.94-.72-1.23-1.21-1.76,.13-.53,.27-1.07,.4-1.6,.9-1.2,.92-2.41,.23-3.74-.9-1.73-.51-3.57-.1-5.33,.24-1.06,.02-1.74-.84-2.29,.24-.39,.46-.78,.34-1.26,.4-.82,.91-1.59,1.06-2.51,.48-1.68,.15-3.29-.25-4.94-.77-3.21-1.05-6.46-.61-9.75,.16-1.22,.66-2.29,1.54-3.14,2.41-2.32,4.1-5.12,5.6-8.06,.2-.39,.39-.77,.78-1.01,.52-.24,1.04-.23,1.57-.07,1.42,.83,2.5-.06,3.54-.77,2.96-2.02,6.24-3.14,9.74-3.71,3.37-.55,6.66-.15,9.86,.98,.59,.21,1.14,.26,1.73,.09,1.09,.03,1.44,1.28,2.44,1.48,1.86,1.77,3.64,1.57,5.96,.51,3.13-1.44,6.66-1.8,10.12-1.98,1.34-.07,2.69-.26,4.05-.08,.86,.12,1.57-.33,2.24-.79,.95-.02,1.12-1.24,2.03-1.32,.43,.41,.87,.24,1.3,0,.47-.02,.59,.35,.74,.67,1.36,3.33,3.31,4.43,6.85,3.87,4.84-.77,9.73-1.12,14.61-1.51,4.12-.33,8.22-1.05,12.36-1.34,1.21-.09,2.09-.8,2.59-1.93,.26-.59,.48-1.21,.92-1.7,.89-.67,1.88-.44,2.76-.1,1.18,.45,2.15,.34,3.01-.58Z"/>
      <path class="cls-9" d="M17.79,34.38c-1.65-3.6-1.36-7.36-.06-10.84,.8-2.15,3.1-3.48,5.36-4.37,.18-.07,.46-.06,.64,.02,2.57,1.2,5.47,1.1,8.11,2.04,.2,.07,.42,.14,.63,.15,3.02,.12,6.03,.23,9.05,.33,.27,0,.58,.02,.79-.1,2.4-1.32,4.88-1.1,7.44-.54,4.9,1.08,9.51-.18,14.05-1.88,1.91-.72,3.79-1.55,5.74-2.16,2.06-.64,4.03,.31,6.03,.62,4.29,.67,8.57,1.52,12.91,1.76,2.89,.16,5.66-.44,8.02-2.38,1.43-1.18,3.06-.22,4.54-.05,5.02,.58,10,1.69,15.08,1.14,2.71-.29,5.41-.85,8.06-1.53,1.77-.45,3.55-.85,5.33-1.27,1.65-.39,3.42-.12,4.59,.9,1.62,1.42,3.48,1.38,5.28,1.58,4.94,.55,9.92,.37,14.89,.36,2.91-.01,5.78-.41,8.62-1.07,2.77-.65,5.56-1.24,8.35-1.79,1.55-.31,2.97,.56,4.45,.66,2.74,.19,3.09,2.38,3.41,4.13,.64,3.43,1.71,6.77,2.14,10.24,.43,3.45,1.09,6.88,1.53,10.33,.11,.83,.38,1.42,.96,1.94,.92,.84,1.75,1.76,2.34,2.87,.42,1.1-.33,2.31,.29,3.4l-.61,.45c-.86,.54-1.91,.63-2.74,1.3-.72,.58-1.48,.17-1.97-.47-1.14-1.5-2.11-3.12-2.9-4.82-.35-.76-.08-1.5,.3-2.16,.61-1.07,.43-1.93-.54-2.65-.21-.42-.41-.84-.62-1.26,.85-1.11,.86-2.22,.2-3.46-.79-1.46-.79-2.97-.15-4.53,.89-2.2,.54-4.21-1.12-5.97-1.28-1.36-2.27-2.87-2.31-4.85-.02-1.08-.71-1.56-1.73-1.44-1.02,.12-2.06,.16-3.03,.5-.8,.28-1.56,.32-2.37,.06-.94-.31-1.67-.23-1.45,1.06,.11,.66-.17,.99-.78,1.19-3.35,1.11-6.72,2-10.31,1.28-1.02-.21-2.08-.41-2.8-1.16-.88-.92-1.7-.99-2.67-.27-.33,.14-.66,.28-.98,.42-.63-.93-1.44-1.16-2.51-.74-1.26,.5-2.61,.67-3.94,.93-3.83,.75-7.07-.25-9.52-3.34-.62-.78-1.02-.97-2.11-.59-4.51,1.57-9.1,3.06-13.93,3.13-2.68,.03-5.4-.07-8.07-.38-2.57-.3-5.18,.12-7.73-.58-1.33-.37-.86,1.06-1.3,1.59-.3,.12-.6,.23-.89,.35-.81-.86-1.74-.76-2.82-.57-5.59,.96-11.18,2.07-16.85,.39-1.68-.5-3.23-1.22-4.75-2.05-1.56-.86-2.24-.77-3.43,.5-1.3,1.39-2.93,2.23-4.65,2.88-1.05,.4-1.78,.95-2,2.07-.73,.22-1.47,.43-2.2,.65-.75-.75-1.62-.72-2.54-.39-1.85,.68-3.77,.81-5.74,.82-1.91,.01-3.66-.32-5.16-1.54-.94-.76-1.87-.68-2.86-.19l-.55-.27c-.72-.73-1.5-.87-2.47-.42-2.69,1.24-5.56,1.22-8.42,1.05-1.14-.06-2.28-.31-3.18-1.05-1.11-.9-2.13-.86-3.19,.03-.26-.04-.56,.01-.67-.33-.02-.05-.07-.1-.07-.15-.05-2.09-.05-2.1-2.15-1.58-.64,.16-1.28,.14-1.93,.08-2.01-.21-2.69,.44-2.59,2.41,.12,2.48,.32,4.96-.34,7.4-.23,.87-.39,1.82-1.4,2.22Z"/>
      <path class="cls-11" d="M49.63,11.34c-1.04-.08-1.32-1.04-1.9-1.65-.6-.03-1.02-.42-1.33-.85-2.52-3.4-6.08-3.81-9.9-3.5-4.14,.33-7.96,1.47-11.11,4.35-.51,.47-1.14,.97-1.72,.01-1.13-1.46-.54-2.56,.76-3.48,3.23-2.3,6.8-3.81,10.78-3.92,2.51-.07,5.08-.42,7.56,.29,2.15,.61,3.97,1.73,5.27,3.62,1.21,1.76,1.67,1.92,3.47,.93,4.98-2.73,10.35-3.52,15.92-3.22,2.24,.12,4.4,.68,6.21,2.21,.48,.4,.68,.77,.71,1.32-.55,.46-.41,1.77-1.68,1.35-.16,.03-.33,.06-.48,0-6.68-3.15-13.04-1.76-19.27,1.39-1.05,.53-2.09,1.09-3.31,1.16Z"/>
      <path class="cls-11" d="M98.65,22.08c-.25-.66-.58-1.36-.03-1.98,.61-.69,1.3-.11,1.95,.02,.47,.1,.94,.27,1.41,.29,3.49,.13,7.03-.06,10.48,.41,3.96,.55,7.66-.45,11.44-1.04,1.02-.16,1.97-.51,2.81-1.14,.48-.37,1.05-.58,1.67-.48,.57,.09,.96,.12,1.41-.51,.51-.72,1.53-.46,1.92,.2,2.49,4.23,6.26,4.75,10.57,3.79,1.25-.28,2.48-.67,3.72-1,1.3-.35,1.83,.08,1.76,1.44-.62,1.62-2.12,1.7-3.49,2.01-2.79,.63-5.52,1.17-8.45,.32-2.94-.85-4.84-2.72-6.44-5.07-.84,2.24-2.95,2.83-4.96,3.31-4.51,1.08-9.13,1.35-13.74,.98-3.42-.27-6.86-.23-10.27-.59-.74-.08-1.32-.35-1.75-.95Z"/>
      <path class="cls-11" d="M119.5,4.83c-.38,1.35-.97,1.95-2.49,1.15-.88-.46-2-.66-3.09-.43-.5,.41-1.1,.45-1.69,.4-3.56-.3-6.88,.65-10.03,2.12-2.16,1.01-4.22,.95-6.24,.04-2.2-1-4.27-.89-6.38,.15-1.26,.62-2.57,.7-3.94,.32-2.59-.72-5.18-1.08-7.72,.27-.88,.47-1.56,.06-1.97-.81,0-.26-.01-.5-.31-.61,.2-1.29,1.8-2.52,3.69-2.55,2.29-.03,4.62-.34,6.85,.55,1.6,.64,2.76-.8,4.22-1,2.04-.28,4.05-.61,5.93,.42,2.23,1.23,4.21,.37,6.23-.48,3.81-1.61,7.73-2.25,11.86-1.5,1.14,.21,2.37-.13,3.47,.4,.68,.33,1.6,.5,1.61,1.55Z"/>
      <path class="cls-11" d="M148.73,21.66c.91-1.64,1.38-1.68,2.63-.23,.45,.51,1.05,.74,1.67,.93,3.42,1.06,6.77,.51,10.06-.57,.61-.2,1.21-.39,1.88-.46,.19-.75-.93-1.49-.02-2.2,.79-.61,1.49-.07,2.27,.12,1.44,.37,2.78-.48,4.19-.65,2.21-.27,2.87,.08,2.93,2.27,.05,1.76,1.08,3.01,2.21,4.16,1.75,1.78,2.21,3.88,1.28,6.05-.84,1.96-.56,3.62,.37,5.36,.69,1.3,.4,2.11-.93,2.8-2.24-1.92-3.14-5.41-2.02-8.37,.69-1.82,.42-3.21-1-4.61-1.12-1.1-2.12-2.43-2.18-4.16-.04-1.19-.95-.76-1.4-.62-1.44,.44-2.79,1.3-4.39,.46-.57-.3-.53,.45-.58,.64-.36,1.24-1.29,1.85-2.39,2.16-3.8,1.08-7.62,1.32-11.47,.2-1.7-.5-2.55-1.74-3.12-3.28Z"/>
      <path class="cls-11" d="M152.6,4.57c-.42-.26-.45-.89-1-1.03-.17-.89,.4-1.32,1.1-1.5,3.38-.84,6.69-2.18,10.24-2.03,3.72,.16,7.34,.89,10.67,2.68,1.03,.55,1.96,.89,3.28,.62,3.26-.67,5.63,1.83,5.27,5.26-.04,.42,.12,.77,.37,1.03,1.21,1.2,1.01,2.58,.57,4.01-1,.17-1.48-.52-1.89-1.21-.85-1.42-1.7-2.86-1.41-4.63-.74-.93-1.73-1.25-2.87-1.15-1.89,.16-3.54-.49-5.25-1.24-4.19-1.82-8.51-3.03-13.12-1.48-1.43,.48-2.95,.61-4.4,1.04-.58,.17-1.18,.3-1.57-.36Z"/>
      <path class="cls-11" d="M63.25,25.65c-.5-1.08-.35-1.71,.95-2.15,2.24-.75,4.36-1.72,5.89-3.73,.76-1,2.04-.89,3.1-.22,5.15,3.27,10.72,3.62,16.57,2.65,2.16-.36,4.35-.48,6.48-1.08,.98-.27,1.53,.27,1.52,1.31-.67,2.21-2.73,1.96-4.29,2.14-3.5,.41-6.99,.94-10.55,.75-3.62-.2-7.05-.93-10.13-2.86-.78-.49-1.08-.24-1.57,.25-1.61,1.6-3.54,2.7-5.68,3.4-.79,.26-1.69,.53-2.29-.46Z"/>
      <path class="cls-11" d="M14.25,40.22c-.11,.94-.26,1.86-1.3,2.28-1.99-1.99-2.83-4.58-3.55-7.17-1.06-3.85-.9-7.67,.55-11.43,.22-.57,.14-1.29,.07-1.93-.46-4.36,3.79-10.02,8.69-11.15,1.39-.32,2.86-.3,4.29-.44,1.34,.99,1.25,1.95-.28,2.96-.56,0-1.12,0-1.68,0-.61,.35-1.28,.57-1.95,.79-3.19,1.06-4.99,3.43-6.1,6.46-.15,.41-.25,.87-.05,1.27,.67,1.37,.18,2.56-.33,3.86-1.47,3.7-1.07,7.4,.38,11.02,.46,1.15,1.15,2.21,1.25,3.48Z"/>
      <path class="cls-12" d="M22.72,13.33c.63-.94,1.43-1.86,.28-2.96,.13-.32,.35-.54,.67-.67,.51,.36,.88,.31,1.37-.18,2.75-2.71,6.12-3.99,9.94-4.4,2.04-.22,4.02-.29,6.08-.06,3.13,.35,4.81,2.55,6.66,4.62-.42,.82-1.04,.76-1.78,.46-6.49-2.62-12.61-1.41-18.52,1.84-.89,.49-1.74,1.08-2.61,1.61-.77,.47-1.5,.62-2.1-.26Z"/>
      <path class="cls-11" d="M186.34,48.86c-1.34-1.03-.51-2.24-.29-3.4,1.09-2.84,1.3-5.64-.29-8.41-1.02-1.79-1.7-3.63-1.07-5.82,1.04-3.63,.02-7.11-1.32-10.46-.56-1.39-.41-2.85-.83-4.23-.2-.67,.32-.95,.93-1.03,1.08-.08,1.67,.2,1.63,1.51-.05,1.65,.67,3.21,1.21,4.73,1.12,3.12,1.78,6.17,.79,9.5-.37,1.26-.3,2.73,.53,4.02,2.7,4.22,1.96,8.57,.25,12.88-.19,.47-.45,1.73-1.53,.7Z"/>
      <path class="cls-11" d="M150.03,3.85c-.25,1.56-1.08,1.93-2.47,1.25-.47-.23-.9-.58-1.47-.55-1.93-.33-3.68,.23-5.44,.97-1.63,.69-3.49,.82-5.03-.03-3.56-1.97-7.02-1.47-10.57-.15-.74,.27-1.46,.74-2.31,.53-1.15,.48-1.95,.18-2.33-1.05-.3-.65-.15-1.02,.55-1.33,5.01-2.19,10.03-4.03,15.4-1.07,1.1,.61,2.21,.55,3.31-.05,3.33-1.78,6.54-1.25,9.75,.41,.54,.28,.74,.52,.61,1.07Z"/>
      <path class="cls-11" d="M17.79,34.38c1.93-3.14,1.43-6.61,1.27-9.99-.08-1.65,1.1-2.97,2.74-2.57,.81,.2,1.56,.36,2.35-.01,.79-.37,1.73-.79,2.42-.13,.8,.75-.09,1.56-.31,2.34-1.18,.48-2.34,1.03-3.65,.95-.74-.05-.91,.26-.89,.94,.1,2.94,.04,5.88-1.06,8.67-.16,.42-.07,.69,.26,.71,2.75,.2,2.88,2.6,3.32,4.35,.7,2.82-.63,5.4-1.9,7.88-.07,.13-.38,.15-.57,.22-1.32-.82-1.68-1.89-.87-3.28,1.62-2.76,1.03-5.32-.76-7.75-.09-.12,.07-.36-.31-.38-1.65-.09-1.7-.17-2.02-1.94Z"/>
      <path class="cls-11" d="M12.93,56.73c1.23-.09,1.86,.42,1.65,1.7-.34,2.07,1.25,3.19,2.25,4.6,.32,.45,.75,.52,1.01,0,1.56-3.15,3.79-6.04,3.88-9.78,.03-1.1-.29-2.13-.67-3.13-.42-1.1-.08-1.52,1.02-1.5,1.9-.08,1.66,1.52,1.9,2.58,.71,3.14-.07,6.05-1.59,8.82-.89,1.62-1.47,3.41-2.58,4.92-1.37,1.87-2.74,2.04-4.33,.39-1.83-1.89-3.53-3.86-3.51-6.76,0-.85,.25-1.44,.97-1.85Z"/>
      <path class="cls-11" d="M26.93,24.34c.6-1.41,1.4-1.81,2.56-.97,3.49,2.5,7.21,1.78,10.95,.93,.62-.14,1.23-.39,1.81-.67,1.2-.56,1.86-.27,1.95,1.1-.83,2.46-3.17,2.27-5.04,2.81-2.41,.69-4.88,.36-7.3-.01-2.06-.31-3.67-1.53-4.93-3.19Z"/>
      <path class="cls-11" d="M177.89,40.51c1.39,.05,1.99,.82,1.25,1.97-1.12,1.76-.74,3.16,.43,4.65,.69,.88,1.16,1.92,1.8,2.84,.4,.57,1.03,.97,1.6,.24,.75-.96,1.72-.97,2.76-.9-.02,.9,.06,1.81-.54,2.61-1.68,2.25-4.36,2.13-5.96-.37-1.06-1.65-2.01-3.38-2.91-5.13-.99-1.92-.18-4.78,1.56-5.92Z"/>
      <path class="cls-11" d="M44.75,25c.56-1.21,1.57-1.39,2.45-.63,3.13,2.71,6.66,2.09,10.21,1.42,.68-.13,1.36-.31,2-.57,1.14-.48,1.63-.08,1.65,1.08-.01,.91-.46,1.31-1.34,1.7-3.32,1.46-6.79,1.04-10.15,.73-2.06-.19-3.85-1.66-4.81-3.73Z"/>
      <path class="cls-11" d="M12.61,43.76c1.32-.04,1.83,.31,1.39,1.82-.64,2.21-.89,4.44,.35,6.67,.57,1.02,.48,2.33-1.02,2.87-2.14-2.36-2.66-5.19-2.19-8.2,.11-.7,.07-1.46,.42-2.17,.26-.51,.37-.99,1.04-.99Z"/>
      <path class="cls-12" d="M75.96,8.04c.48,.27,.84,1.02,1.53,.58,2.77-1.81,5.69-1.22,8.55-.44,1.26,.34,2.32,.18,3.4-.34,2.18-1.05,4.28-1.32,6.6-.17,1.89,.93,3.87,1.05,6-.03,3.7-1.88,7.72-2.54,11.89-2.08-1.25,3.73-1.88,4.29-6.55,4.39-2.47,.05-4.9,.29-7.29,.79-2.6,.55-5.24,.09-7.86,.56-2.99,.54-6.11,.39-9.06,1.19-3.06,.83-6.68-1.27-7.2-4.45Z"/>
      <path class="cls-12" d="M152.6,4.57c1.71,.44,3.14-.7,4.77-.86,1.52-.15,2.99-.71,4.5-1.03,.57-.12,1.22-.22,1.76-.06,2.94,.88,6.18,.81,8.83,2.6,1.66,1.13,3.47,.89,5.28,.94,1.05,.03,2.11,.13,2.08,1.6-2.04,1.3-4.08,1.07-6.05-.12-1.9-1.15-3.86-1.1-6.04-.98-3.62,.21-7.16,.52-10.69,1.38-2,.49-4.05-1.32-4.44-3.47Z"/>
      <path class="cls-12" d="M49.63,11.34c4.33-2.69,9.02-4.61,14.1-4.73,3.02-.07,6.45-.43,8.96,2.19-.55,.93-1.4,1.33-2.45,1.25-4.39-.35-8.65,.48-12.89,1.42-.93,.2-1.83,.66-2.67,1.14-1.36,.77-2.57,1.08-3.71-.36-.32-.4-.88-.6-1.33-.9Z"/>
      <path class="cls-12" d="M122.73,5.87c4.16-1.77,8.26-3.46,12.8-.85,1.89,1.08,4.04,.63,6.03-.32,1.46-.7,2.97-1.32,4.52-.15-.02,.05-.04,.1-.06,.15-1.97,4.33-2.84,3.37-6.16,2.96-2.2-.27-4.31-.97-6.63-.6-1.8,.29-3.32,1.16-5,1.67-2.58,.78-4.59-.23-5.5-2.85Z"/>
      <path class="cls-12" d="M14.25,40.22c-2.69-4.2-3.55-8.74-2.54-13.62,.14-.66,.63-1.24,.88-1.88,.33-.83,.77-1.67-.11-2.5-.18-.17-.19-.61-.16-.91,.34-3.74,4.93-7.92,8.72-7.96-1.38,3.25-3.12,6.27-5.69,8.72-1.97,1.88-2.09,4.21-1.96,6.69,.17,3.12,.71,6.16,1.4,9.2,.15,.67-.02,1.59-.53,2.27Z"/>
    </g>
  </g>
</svg>