<?xml version="1.0" encoding="UTF-8"?>
<svg xmlns="http://www.w3.org/2000/svg" viewBox="0 0 196.87 216.49">
  <defs>
    <style>
      .cls-1 {
        fill: #a67773;
      }

      .cls-2 {
        fill: #fff;
        font-family: ArialMT, Arial;
        font-size: 18px;
      }

      .cls-3 {
        fill: #d0b6a4;
      }

      .cls-4 {
        fill: #9fb571;
      }

      .cls-5 {
        fill: #92a568;
      }

      .cls-6 {
        fill: #ba9288;
      }

      .cls-7 {
        fill: #785049;
      }

      .cls-8 {
        fill: #b6d080;
      }
    </style>
  </defs>
  <g id="Layer_3" data-name="Layer 3">
    <g>
      <path class="cls-1" d="M32.4,139.7c0-1.3,.01-2.61,.02-3.91,.51,.32,.37,1.49,1.26,1.21,.87-.27,1.37-1,1.28-2.02-.04-.38,0-.76,0-1.14,0-31.7,.01-63.41-.04-95.11,0-1.68,.46-2.05,2.07-2.04,15.04,.06,30.07,.02,45.11,.06,1.5,0,2.15-.44,1.86-1.95,.57,0,1.13,.01,1.7,.02-.07,1.48,.68,1.98,2.1,1.93,2.22-.08,4.44,.08,6.65-.05,1.6-.1,1.95,.46,1.95,1.99-.05,24.2-.03,48.39-.03,72.59,0,.43,0,.87,0,1.3,0,.74,.35,1.31,1.09,1.38,.72,.07,1.24-.44,1.4-1.12,.13-.57,.1-1.18,.11-1.77,0-24.14,.01-48.29-.02-72.43,0-1.39,.22-1.96,1.82-1.95,19.7,.06,39.4,.06,59.1,0,1.43,0,1.84,.37,1.81,1.81-.1,4.22-.05,8.44-.02,12.67,0,1.2,.32,2.19,1.9,1.77,0,.67,0,1.34,0,2-1.71,.23-1.92,1.43-1.92,2.84,0,31.68,0,63.36,0,95.04,0,.22-.01,.43,0,.65,.09,1.12,.57,1.85,1.83,1.74,.05,.77,.1,1.54,.15,2.3-1.45,.27-2.09,1.07-2,2.61,.11,1.83-.04,3.68,.05,5.52,.06,1.23-.28,1.61-1.6,1.71-1.88,.15-3.51-.76-5.37-.75-17.96,.08-35.92,.03-53.88,.08-1.51,0-1.9-.42-1.88-1.9,.08-6.38,.03-12.77,.03-19.15,0-9.52,0-19.05,0-28.57,0-.72,.2-1.7-.95-1.68-1.03,.01-1.75,.52-1.64,1.73,.03,.38,0,.76,0,1.14,0,15.48-.03,30.95,.04,46.43,0,1.71-.51,2.03-2.09,2.02-10.82-.07-21.64-.02-32.46-.05-1.23,0-2.03,.22-1.89,1.66h-1.23c.1-1.25-.45-1.68-1.72-1.67-6.81,.05-13.61,0-20.42,.05-1.3,.01-1.64-.38-1.63-1.65,.05-7.89,.03-15.77,.03-23.66,0-2.1-.48-2.41-2.54-1.67Zm97.56-39.31c-5.62,0-11.24,0-16.86,0-.66,0-1.44-.03-1.7,.65-.28,.74,.37,1.27,.83,1.8,.4,.45,.92,.49,1.48,.49,10.92,0,21.84-.02,32.76,.01,1.38,0,1.65-.96,1.75-1.87,.15-1.26-.93-1.06-1.71-1.06-5.51,0-11.03,0-16.54,0Zm-62.92-22.09c-5.51,0-11.02,0-16.53,0-.64,0-1.42-.13-1.55,.76-.11,.8,.23,1.5,1.01,1.85,.38,.17,.83,.28,1.24,.28,10.7,.01,21.39,0,32.09,.02,1.33,0,1.88-.85,1.92-1.93,.04-1.27-1.06-.96-1.81-.96-5.46-.02-10.91-.01-16.37,0Zm63.14-21.44c-6.22,0-12.44,0-18.66,0-.63,0-1.47-.13-1.49,.8-.01,.77,.45,1.45,1.24,1.73,.29,.1,.64,.06,.96,.06,12.12,0,24.23-.01,36.35,.02,1.23,0,1.9-.49,1.91-1.64,.01-1.28-1.07-.97-1.82-.97-6.17-.02-12.33,0-18.5,0Zm-62.44,86.07c-5.41,0-10.82,0-16.22,0-.86,0-1.8,.05-1.87,1.08-.07,1.04,.71,1.62,1.72,1.82,.21,.04,.43,.02,.65,.02,10.55,0,21.09-.02,31.64,.03,1.44,0,1.81-.89,1.9-1.9,.11-1.26-.97-1.04-1.75-1.04-5.35-.01-10.71,0-16.06,0Zm-1.3-21.44c-5.25,0-10.49,0-15.74,0-.74,0-1.68-.08-1.74,.97-.06,.96,.55,1.61,1.49,1.87,.31,.08,.64,.08,.96,.08,10.11,0,20.23-.02,30.34,.03,1.47,0,1.77-.86,1.84-1.9,.09-1.27-.98-1.04-1.75-1.04-5.14-.01-10.28,0-15.42,0Zm61.37-.32c-4.7,0-9.41,0-14.11,0-.71,0-1.63-.02-1.69,.82-.06,.84,.44,1.66,1.37,2,.25,.09,.53,.1,.8,.1,9.52,0,19.03,0,28.55,0,.5,0,1.04,0,1.23-.56,.2-.58,.13-1.13-.32-1.66-.56-.67-1.26-.72-2.04-.71-4.6,.02-9.19,0-13.79,0ZM70.66,55.56c-4.33,0-8.66,.05-12.98-.03-1.21-.02-1.78,.53-1.82,1.53-.05,1.17,.78,1.44,1.86,1.44,8.49-.03,16.99-.05,25.48,.02,1.37,.01,1.98-.6,1.99-1.73,.01-1.3-1.1-1.23-2.03-1.23-4.17,0-8.33,0-12.5,0Zm68.84,22.41c-3.02,0-6.05,.03-9.07-.01-1.17-.02-1.26,.84-1.42,1.61-.16,.8,.38,1.01,1.07,1,6.1,0,12.2,0,18.3,0,1.08,0,1.4-.74,1.47-1.57,.09-1.02-.71-1.03-1.45-1.03-2.97,0-5.94,0-8.91,0Zm-.15,67.56c2.65,0,5.3-.04,7.95,.02,1.36,.03,1.4-.99,1.58-1.84,.15-.72-.32-1.1-1.05-1.1-5.3,0-10.61-.02-15.91,0-1.32,0-1.26,1.24-1.41,2.02-.17,.92,.71,.88,1.36,.89,2.49,0,4.98,0,7.47,0Zm-65.43-45.79c-2.43,0-4.86,.04-7.29-.02-1.3-.03-1.73,.7-1.78,1.79-.06,1.23,.85,1.16,1.68,1.15,2.38,0,4.75,0,7.13,0,2.38,0,4.75-.02,7.13,0,1.41,.01,1.75-1.05,1.81-2.05,.06-1.16-1.01-.86-1.71-.87-2.32-.03-4.65-.01-6.97-.01Zm47.61,42.87c-2.05,0-4.1-.02-6.14,0-.76,0-1.84-.27-1.79,.99,.04,1.01,.54,1.91,1.76,1.91,4.2,.02,8.41,0,12.61,0,1.09,0,1.63-.75,1.67-1.62,.04-.92-.65-1.34-1.64-1.32-2.15,.05-4.31,.02-6.47,.02Zm-2.87-64.63c-2.43,0-4.86,0-7.29,0-.61,0-1.27-.01-1.37,.78-.08,.68,.2,1.31,.78,1.67,.29,.18,.73,.14,1.1,.14,4.7,0,9.4,0,14.1,0,.85,0,1.76-.05,1.7-1.18-.05-.97-.62-1.48-1.73-1.44-2.43,.08-4.86,.02-7.29,.02Zm-62.34,21.76c-1.94,0-3.88,0-5.82,0-.53,0-1.13-.11-1.44,.48-.3,.57,.15,1.02,.37,1.49,.34,.73,.97,.95,1.72,.95,3.66,0,7.33,0,10.99,0,1.01,0,1.7-.37,1.7-1.47,0-1.1-.69-1.47-1.7-1.47-1.94,.02-3.88,0-5.82,0Zm-5.55-44.16s0,0,0-.01c-.59,0-1.18-.03-1.77,0-.74,.05-1.68,0-1.65,1.05,.03,.87,.47,1.75,1.49,1.83,1.33,.1,2.68,.06,4.02,.01,.73-.03,1.23-.5,1.21-1.24-.02-.77-.27-1.53-1.21-1.62-.69-.07-1.39-.01-2.09-.01Zm97.2,65.64c-1.46-.11-2.79-.24-2.85,1.37-.05,1.46,1.11,1.53,2.28,1.54,1.3,0,2.44-.06,2.49-1.72,.05-1.77-1.35-1.05-1.92-1.18Z"/>
      <path class="cls-6" d="M58.68,168.29c.41,0,.82,0,1.23,0,.2,1.22,.87,1.63,2.13,1.63,32.93,.08,65.86-.25,98.79,.22,3.91,.06,7.87-.14,11.8-.27,1.27-.04,1.66,.31,1.64,1.62-.06,7.74,0,15.47-.05,23.21,0,1.42,.46,2.16,1.93,2.1,.02,.33,.04,.65,.06,.98-1.46,.08-1.92,1.06-1.95,2.3-.05,1.68-.01,3.35-.01,5.03q0,2.14-2.2,2.14c-39.92,0-79.83,0-119.75-.03-1.55,0-2.21,.48-2.14,1.99-.4,0-.81,0-1.21,0,.07-1.58-.77-1.99-2.24-1.98-7.46,.05-14.93,0-22.39,.05-1.31,.01-1.77-.29-1.75-1.69,.09-4.7,.03-9.41,.03-14.12,0-4.26-.1-8.52,.31-12.77,.07-.77,.07-1.57-1.01-1.7,0-.41,0-.82,0-1.22,.85-.07,1.03-.62,1.01-1.36-.02-.92,.08-1.85-.03-2.75-.17-1.42,.32-1.82,1.77-1.81,10.47,.07,20.95,.02,31.42,.05,1.27,0,2.22-.29,2.58-1.62Z"/>
      <path class="cls-6" d="M85.65,34.82c-.57,0-1.13-.01-1.7-.02-.96-.79-2.08-1.01-3.31-1.01-16.32,.02-32.64,.01-48.96,.01-2.7,0-5.41-.03-8.11,.02-.97,.02-1.32-.27-1.31-1.28,.05-4.27,.04-8.54,0-12.81,0-.92,.31-1.23,1.22-1.2,1.94,.05,3.9-.07,5.83,.04,1.4,.08,2.29-.38,2.74-1.69,.5-.01,.99-.02,1.49-.04,.88,1.23,2.02,1.72,3.58,1.72,19.47-.04,38.93-.03,58.4-.03,12.11,0,24.22,0,36.34,0,1.49,0,2.64-.44,3.12-1.98,.54,0,1.07,.02,1.61,.03-.17,1.87,1.09,1.94,2.42,1.94,11.3,0,22.6,.02,33.9-.03,1.36,0,1.73,.39,1.7,1.73-.09,3.84-.03,7.68-.03,11.52q0,2.05-2.11,2.05c-28.11,0-56.23,0-84.34-.01-1,0-1.95-.04-2.48,1.02Z"/>
      <path class="cls-3" d="M48.95,209.21c.4,0,.81,0,1.21,0,.22,1.31,1.26,.95,2.05,.95,26.54,.01,53.09,.01,79.63,.01,14.38,0,28.76-.02,43.14,.02,1.36,0,1.95-.31,1.9-1.8-.1-2.97-.04-5.95-.04-8.92,0-.64,.11-1.33-.63-1.69-.02-.33-.04-.65-.06-.98,.62-.75,.7-1.63,.7-2.57-.02-7.94-.03-15.88,0-23.82,0-1.09-.04-2.13-.74-3.03,1.66-.09,3.26-.73,4.98-.01,1.1,.46,1.27,1.06,1.27,2.08-.03,9.52-.02,19.04-.02,28.57,0,4-.07,8.01,.04,12.01,.04,1.41-.4,2.63-.81,3.89-.6,1.83-2.06,2.43-3.86,2.43-3.46,0-6.98,.38-10.38-.07-9.19-1.23-18.39-.49-27.58-.52-38.13-.13-76.27-.05-114.4-.05-3.37,0-4.71-1.25-5.04-4.73-.03-.27,0-.54,0-.81,9.07,0,18.13,.01,27.2,.01,.68,0,1.49,.17,1.41-.96Z"/>
      <path class="cls-3" d="M163.57,157.52c-.05-.77-.1-1.54-.14-2.3,.3-.72,.8-1.29,.8-2.21-.04-32.06-.04-64.12-.02-96.18,0-.76-.2-1.36-.71-1.88,0-.67,0-1.34,0-2,.59-.56,.71-1.25,.7-2.05-.03-4.27,.02-8.55-.04-12.82-.01-1.07,.32-1.38,1.38-1.36,3.03,.06,6.06-.04,9.09,.05,1.32,.04,1.96-.62,2.16-1.69,.2-1.1,.43-2.19,.41-3.34-.06-4.71-.09-9.42,.01-14.12,.03-1.58-.48-2.2-2.01-2.03,1.13-.57,2.36-.4,3.47-.2,1.04,.19,1.81,.87,1.78,2.27-.08,5.46-.02,10.93-.04,16.39,0,2.53-.65,4.84-2.23,6.89-.48,.62-1.02,1.01-1.74,.98-1.58-.07-3.11,.25-4.67,.32-.85,.04-1.19,.32-1.1,1.15,.02,.21,0,.43,0,.65,0,40.58,0,81.15,0,121.73,0,.49,.03,.97,.04,1.46-1.77,.02-3.54,0-5.31,.08-1.04,.05-1.26-.39-1.24-1.32,.05-2.25,.02-4.51,.02-6.77,0-.64,.12-1.32-.62-1.68Z"/>
      <path class="cls-7" d="M175.2,15.57c1.53-.17,2.05,.45,2.01,2.03-.1,4.71-.07,9.42-.01,14.12,.01,1.15-.21,2.25-.41,3.34-.2,1.07-.84,1.73-2.16,1.69-3.03-.09-6.06,.01-9.09-.05-1.05-.02-1.39,.29-1.38,1.36,.06,4.27,0,8.55,.04,12.82,0,.8-.11,1.49-.7,2.05-1.58,.42-1.89-.57-1.9-1.77-.02-4.22-.07-8.45,.02-12.67,.03-1.44-.38-1.81-1.81-1.81-19.7,.05-39.4,.05-59.1,0-1.6,0-1.83,.57-1.82,1.95,.03,24.14,.03,48.29,.02,72.43,0,.59,.03,1.2-.11,1.77-.16,.68-.68,1.19-1.4,1.12-.74-.07-1.08-.64-1.09-1.38,0-.43,0-.87,0-1.3,0-24.2-.01-48.39,.03-72.59,0-1.54-.35-2.09-1.95-1.99-2.21,.14-4.44-.02-6.65,.05-1.42,.05-2.17-.45-2.1-1.93,.53-1.06,1.48-1.02,2.48-1.02,28.11,.01,56.23,.01,84.34,.01q2.11,0,2.11-2.05c0-3.84-.06-7.68,.03-11.52,.03-1.34-.34-1.73-1.7-1.73-11.3,.05-22.6,.03-33.9,.03-1.33,0-2.59-.08-2.42-1.94,.42-.96,1.22-1,2.14-1,11.56,.02,23.13,.02,34.69,.01,.59,0,1.19-.03,1.78-.04Z"/>
      <path class="cls-7" d="M163.57,157.52c.74,.37,.62,1.05,.62,1.68,0,2.26,.03,4.51-.02,6.77-.02,.93,.2,1.37,1.24,1.32,1.77-.09,3.54-.06,5.31-.08,1.8,.06,3.61,.12,5.41,.17,.7,.9,.74,1.93,.74,3.03-.03,7.94-.02,15.88,0,23.82,0,.94-.08,1.82-.7,2.57-1.47,.06-1.94-.68-1.93-2.1,.04-7.74,0-15.48,.05-23.21,.01-1.3-.38-1.66-1.64-1.62-3.93,.13-7.88,.32-11.8,.27-32.93-.47-65.86-.14-98.79-.22-1.27,0-1.93-.42-2.13-1.63-.14-1.44,.66-1.66,1.89-1.66,10.82,.03,21.64-.01,32.46,.05,1.58,0,2.1-.31,2.09-2.02-.08-15.47-.04-30.95-.04-46.43,0-.38,.03-.76,0-1.14-.11-1.21,.62-1.71,1.64-1.73,1.16-.01,.95,.96,.95,1.68,0,9.52,0,19.05,0,28.57,0,6.38,.04,12.77-.03,19.15-.02,1.48,.37,1.9,1.88,1.9,17.96-.05,35.92,0,53.88-.08,1.86,0,3.49,.9,5.37,.75,1.31-.1,1.66-.48,1.6-1.71-.09-1.84,.06-3.68-.05-5.52-.09-1.54,.55-2.34,2-2.61Z"/>
      <path class="cls-7" d="M32.06,16.88c-.45,1.31-1.34,1.77-2.74,1.69-1.94-.12-3.89,0-5.83-.04-.91-.02-1.23,.28-1.22,1.2,.04,4.27,.04,8.54,0,12.81-.01,1.01,.33,1.3,1.31,1.28,2.7-.05,5.4-.02,8.11-.02,16.32,0,32.64,0,48.96-.01,1.23,0,2.34,.22,3.31,1.01,.28,1.52-.37,1.96-1.86,1.95-15.04-.04-30.07,0-45.11-.06-1.62,0-2.08,.36-2.07,2.04,.06,31.7,.04,63.41,.04,95.11,0,.38-.03,.76,0,1.14,.1,1.01-.41,1.74-1.28,2.02-.89,.28-.74-.89-1.26-1.21-.02-.65-.06-1.29-.06-1.94,0-31.74-.02-63.49,.04-95.23,0-1.57-.36-2-1.93-1.92-2.8,.14-5.62,.05-8.43,.04-1.98,0-2.75-.96-2.38-2.88,.08-.42,.04-.86,.04-1.29,0-4.87,0-9.73,0-14.6,0-1.59,.61-2.3,2.15-2.32,2.65-.04,5.3,0,7.95-.02,1.01,0,1.64,.63,2.28,1.27Z"/>
      <path class="cls-7" d="M134.98,16.57c-.48,1.54-1.63,1.98-3.12,1.98-12.11-.01-24.22,0-36.34,0-19.47,0-38.93-.01-58.4,.03-1.55,0-2.7-.49-3.58-1.72,.43-.95,1.18-1.24,2.2-1.24,32.57,.01,65.14,.01,97.71,0,.73,0,1.45-.06,1.52,.96Z"/>
      <path class="cls-7" d="M58.68,168.29c-.36,1.34-1.31,1.63-2.58,1.62-10.47-.03-20.95,.01-31.42-.05-1.45,0-1.94,.39-1.77,1.81,.11,.91,0,1.83,.03,2.75,.02,.74-.17,1.28-1.01,1.36-1.61,.22-2.07-.55-1.94-2.05,.11-1.29,.02-2.59,.02-3.88,0-1.71,.78-2.54,2.48-2.56,2.7-.03,5.4-.09,8.09,.01,1.47,.06,1.8-.47,1.8-1.86-.04-8.58,0-17.16,.02-25.74,2.07-.74,2.54-.44,2.54,1.67,0,7.89,.03,15.78-.03,23.66,0,1.27,.33,1.66,1.63,1.65,6.81-.06,13.61,0,20.42-.05,1.27,0,1.82,.41,1.72,1.67Z"/>
      <path class="cls-7" d="M48.95,209.21c.08,1.13-.73,.96-1.41,.96-9.07,0-18.13,0-27.2-.01-.82-1.76-.31-3.63-.33-5.43-.08-8.55,0-17.1-.03-25.66,0-1.43,.45-2.16,1.93-2.07,1.07,.13,1.08,.93,1.01,1.7-.41,4.25-.31,8.51-.31,12.77,0,4.71,.05,9.41-.03,14.12-.03,1.4,.44,1.7,1.75,1.69,7.46-.06,14.93,0,22.39-.05,1.46,0,2.3,.4,2.24,1.98Z"/>
      <path class="cls-7" d="M163.49,54.94c.51,.53,.71,1.12,.71,1.88-.02,32.06-.02,64.12,.02,96.18,0,.91-.5,1.49-.8,2.21-1.26,.11-1.74-.62-1.83-1.74-.02-.21,0-.43,0-.65,0-31.68,0-63.36,0-95.04,0-1.41,.21-2.61,1.92-2.84Z"/>
      <path class="cls-7" d="M129.96,100.39c5.51,0,11.03,0,16.54,0,.78,0,1.86-.19,1.71,1.06-.1,.91-.38,1.88-1.75,1.87-10.92-.03-21.84-.02-32.76-.01-.56,0-1.08-.03-1.48-.49-.46-.52-1.11-1.06-.83-1.8,.26-.68,1.04-.65,1.7-.65,5.62,0,11.24,0,16.86,0Z"/>
      <path class="cls-7" d="M67.04,78.3c5.46,0,10.91,0,16.37,.01,.75,0,1.86-.3,1.81,.96-.04,1.09-.6,1.93-1.92,1.93-10.7,0-21.39,0-32.09-.02-.42,0-.86-.11-1.24-.28-.78-.35-1.12-1.05-1.01-1.85,.13-.89,.91-.76,1.55-.76,5.51,0,11.02,0,16.53,0Z"/>
      <path class="cls-7" d="M130.18,56.86c6.17,0,12.33,0,18.5,0,.75,0,1.83-.31,1.82,.97,0,1.15-.68,1.64-1.91,1.64-12.12-.04-24.23-.02-36.35-.02-.32,0-.67,.04-.96-.06-.79-.28-1.25-.96-1.24-1.73,.01-.93,.85-.79,1.49-.8,6.22,0,12.44,0,18.66,0Z"/>
      <path class="cls-7" d="M67.74,142.93c5.35,0,10.71,0,16.06,0,.77,0,1.86-.21,1.75,1.04-.09,1.01-.46,1.91-1.9,1.9-10.55-.05-21.09-.03-31.64-.03-.22,0-.44,.02-.65-.02-1-.2-1.79-.79-1.72-1.82,.07-1.03,1.01-1.08,1.87-1.08,5.41,0,10.82,0,16.22,0Z"/>
      <path class="cls-7" d="M66.44,121.5c5.14,0,10.28,0,15.42,0,.77,0,1.83-.23,1.75,1.04-.07,1.04-.37,1.91-1.84,1.9-10.11-.06-20.23-.03-30.34-.03-.32,0-.66,0-.96-.08-.94-.26-1.55-.91-1.49-1.87,.06-1.05,1-.97,1.74-.97,5.25-.01,10.49,0,15.74,0Z"/>
      <path class="cls-7" d="M127.81,121.17c4.6,0,9.19,0,13.79,0,.78,0,1.48,.05,2.04,.71,.44,.53,.52,1.08,.32,1.66-.19,.55-.73,.56-1.23,.56-9.52,0-19.03,0-28.55,0-.27,0-.55-.01-.8-.1-.92-.34-1.43-1.16-1.37-2,.06-.84,.98-.82,1.69-.82,4.7,0,9.41,0,14.11,0Z"/>
      <path class="cls-7" d="M70.66,55.56c4.17,0,8.33,0,12.5,0,.94,0,2.05-.07,2.03,1.23-.01,1.13-.62,1.74-1.99,1.73-8.49-.07-16.99-.05-25.48-.02-1.08,0-1.91-.27-1.86-1.44,.04-1,.61-1.55,1.82-1.53,4.33,.08,8.66,.03,12.98,.03Z"/>
      <path class="cls-7" d="M139.5,77.98c2.97,0,5.94,0,8.91,0,.74,0,1.53,0,1.45,1.03-.07,.83-.39,1.58-1.47,1.57-6.1,0-12.2,0-18.3,0-.69,0-1.23-.2-1.07-1,.15-.77,.24-1.62,1.42-1.61,3.02,.04,6.05,.01,9.07,.01Z"/>
      <path class="cls-7" d="M139.34,145.53c-2.49,0-4.98,0-7.47,0-.65,0-1.53,.04-1.36-.89,.14-.79,.08-2.02,1.41-2.02,5.3-.02,10.61,0,15.91,0,.73,0,1.2,.37,1.05,1.1-.18,.85-.22,1.87-1.58,1.84-2.65-.06-5.3-.02-7.95-.02Z"/>
      <path class="cls-7" d="M73.91,99.74c2.32,0,4.65-.02,6.97,.01,.69,0,1.77-.29,1.71,.87-.05,1-.39,2.06-1.81,2.05-2.38-.02-4.75,0-7.13,0-2.38,0-4.75,0-7.13,0-.83,0-1.74,.08-1.68-1.15,.05-1.09,.48-1.82,1.78-1.79,2.43,.06,4.86,.02,7.29,.02Z"/>
      <path class="cls-7" d="M121.52,142.61c2.16,0,4.31,.04,6.47-.02,.99-.02,1.68,.4,1.64,1.32-.04,.87-.58,1.62-1.67,1.62-4.2,0-8.41,.01-12.61,0-1.23,0-1.73-.9-1.76-1.91-.05-1.26,1.04-.98,1.79-.99,2.05-.03,4.1,0,6.14,0Z"/>
      <path class="cls-7" d="M118.65,77.98c2.43,0,4.86,.05,7.29-.02,1.11-.04,1.68,.47,1.73,1.44,.06,1.13-.85,1.18-1.7,1.18-4.7,0-9.4,0-14.1,0-.37,0-.81,.04-1.1-.14-.58-.36-.87-.98-.78-1.67,.1-.8,.76-.78,1.37-.78,2.43,0,4.86,0,7.29,0Z"/>
      <path class="cls-7" d="M56.31,99.74c1.94,0,3.88,.01,5.82,0,1.01,0,1.7,.37,1.7,1.47,0,1.1-.69,1.47-1.7,1.47-3.66-.01-7.33,0-10.99,0-.75,0-1.38-.22-1.72-.95-.22-.47-.67-.92-.37-1.49,.31-.58,.91-.47,1.44-.48,1.94,0,3.88,0,5.82,0Z"/>
      <path class="cls-7" d="M50.76,55.58c.7,0,1.4-.05,2.09,.01,.95,.09,1.2,.85,1.21,1.62,.02,.74-.49,1.22-1.21,1.24-1.34,.05-2.69,.09-4.02-.01-1.02-.08-1.46-.96-1.49-1.83-.03-1.05,.91-1,1.65-1.05,.59-.04,1.18,0,1.77,0,0,0,0,0,0,.01Z"/>
      <path class="cls-7" d="M147.96,121.22c.57,.13,1.97-.58,1.92,1.18-.04,1.66-1.19,1.73-2.49,1.72-1.18,0-2.34-.08-2.28-1.54,.06-1.61,1.39-1.48,2.85-1.37Z"/>
      <path class="cls-7" d="M176.22,197.78c.74,.37,.63,1.05,.63,1.69,0,2.97-.06,5.95,.04,8.92,.05,1.49-.54,1.8-1.9,1.8-14.38-.04-28.76-.02-43.14-.02-26.54,0-53.09,0-79.63-.01-.79,0-1.83,.37-2.05-.95-.07-1.51,.58-2,2.14-1.99,39.92,.04,79.83,.03,119.75,.03q2.2,0,2.2-2.14c0-1.68-.04-3.36,.01-5.03,.04-1.24,.5-2.22,1.95-2.3Z"/>
    </g>
  </g>
  <g id="Layer_1" data-name="Layer 1">
    <text class="cls-2" transform="translate(52.46 194.1)"><tspan x="0" y="0">Illustrations</tspan></text>
    <g>
      <path class="cls-4" d="M119.5,4.83c.3,0,.6,0,.9,0,.71,.68,1.69,.71,2.54,1.05,.3,.32,.49,.71,.77,1.04,1.42,1.67,2.49,1.96,4.58,1.3,1.44-.45,2.76-1.23,4.27-1.49,1.93-.33,3.84-.36,5.76,.16,.98,.27,2.02,.33,3.02,.53,1.82,.36,3.04-.27,3.8-1.92,.18-.39,.41-.76,.76-1.03,.47-.29,.96-.18,1.38,.06,1.16,.68,2.01,.25,2.75-.68,.53-.1,1.05-.21,1.58-.31,.83-.11,.99,.57,1.31,1.08,1.24,2.59,2.8,3.48,5.44,2.67,3.9-1.19,7.92-.79,11.87-1.25,.7-.08,1.43,.03,2.04,.39,2.35,1.36,4.76,2.22,7.49,1.2,.38,.21,.46,.58,.49,.96,.18,2.12,1.23,3.73,2.88,5.01,.6,.55,.17,1.29,.34,1.92-.5,1.27-.32,2.56,0,3.81,.35,1.41,.7,2.84,1.28,4.17,.85,1.96,1.02,3.98,.61,6.02-.57,2.8-.45,5.39,1.11,7.92,1.32,2.14,.99,4.57,.51,6.92-.1,.51-.26,1.08-.96,1.14-2.22-1.75-3.79-3.75-4.06-6.81-.35-4.03-.97-8.05-1.9-12-.42-1.79-.85-3.57-1.18-5.38-.8-4.33-3.28-6.09-7.7-5.47-2.3,.32-4.6,.76-6.84,1.36-3.9,1.05-7.86,1.45-11.88,1.44-5.08,0-10.17,.05-15.22-.64-1.1-.15-2.08-.48-3-1.11-1.54-1.05-3.23-1.37-5.1-1-2.92,.58-5.79,1.34-8.71,1.93-5.16,1.04-10.25,1.21-15.43,.05-2.19-.49-4.51-.44-6.76-.77-.67-.1-1.26,.23-1.81,.61-3.23,2.21-6.85,2.63-10.58,2-4.59-.78-9.24-1.14-13.77-2.24-1.08-.26-2.14-.05-3.19,.3-3.43,1.15-6.73,2.69-10.27,3.55-3.56,.86-7.1,.74-10.62,.02-1.46-.3-2.78-.33-4.11,.2-1.34,.54-2.71,.71-4.13,.66-5.09-.15-10.14-.66-15.02-2.19-1.13-.35-2.1-.2-3.08,.41-2.4,1.5-4.17,3.36-4.23,6.43-.05,2.43-.3,4.87,.65,7.2,.33,.95,.46,2.09,1.93,1.94,.22-.02,.37,.21,.49,.39,1.4,2.2,2.62,4.47,1.27,7.11-.75,1.47-.92,2.82,.02,4.22-.08,.36,.13,.62,.31,.89-.51,.63-.64,1.3-.36,2.1,.89,2.56,.42,4.99-.8,7.33-.79,1.53-1.37,3.17-2.33,4.61-.87,1.29-1.49,1.33-2.5,.12-1.04-1.24-2.1-2.5-1.92-4.29,.09-.94-.72-1.23-1.21-1.76,.13-.53,.27-1.07,.4-1.6,.9-1.2,.92-2.41,.23-3.74-.9-1.73-.51-3.57-.1-5.33,.24-1.06,.02-1.74-.84-2.29,.24-.39,.46-.78,.34-1.26,.4-.82,.91-1.59,1.06-2.51,.48-1.68,.15-3.29-.25-4.94-.77-3.21-1.05-6.46-.61-9.75,.16-1.22,.66-2.29,1.54-3.14,2.41-2.32,4.1-5.12,5.6-8.06,.2-.39,.39-.77,.78-1.01,.52-.24,1.04-.23,1.57-.07,1.42,.83,2.5-.06,3.54-.77,2.96-2.02,6.24-3.14,9.74-3.71,3.37-.55,6.66-.15,9.86,.98,.59,.21,1.14,.26,1.73,.09,1.09,.03,1.44,1.28,2.44,1.48,1.86,1.77,3.64,1.57,5.96,.51,3.13-1.44,6.66-1.8,10.12-1.98,1.34-.07,2.69-.26,4.05-.08,.86,.12,1.57-.33,2.24-.79,.95-.02,1.12-1.24,2.03-1.32,.43,.41,.87,.24,1.3,0,.47-.02,.59,.35,.74,.67,1.36,3.33,3.31,4.43,6.85,3.87,4.84-.77,9.73-1.12,14.61-1.51,4.12-.33,8.22-1.05,12.36-1.34,1.21-.09,2.09-.8,2.59-1.93,.26-.59,.48-1.21,.92-1.7,.89-.67,1.88-.44,2.76-.1,1.18,.45,2.15,.34,3.01-.58Z"/>
      <path class="cls-5" d="M17.79,34.38c-1.65-3.6-1.36-7.36-.06-10.84,.8-2.15,3.1-3.48,5.36-4.37,.18-.07,.46-.06,.64,.02,2.57,1.2,5.47,1.1,8.11,2.04,.2,.07,.42,.14,.63,.15,3.02,.12,6.03,.23,9.05,.33,.27,0,.58,.02,.79-.1,2.4-1.32,4.88-1.1,7.44-.54,4.9,1.08,9.51-.18,14.05-1.88,1.91-.72,3.79-1.55,5.74-2.16,2.06-.64,4.03,.31,6.03,.62,4.29,.67,8.57,1.52,12.91,1.76,2.89,.16,5.66-.44,8.02-2.38,1.43-1.18,3.06-.22,4.54-.05,5.02,.58,10,1.69,15.08,1.14,2.71-.29,5.41-.85,8.06-1.53,1.77-.45,3.55-.85,5.33-1.27,1.65-.39,3.42-.12,4.59,.9,1.62,1.42,3.48,1.38,5.28,1.58,4.94,.55,9.92,.37,14.89,.36,2.91-.01,5.78-.41,8.62-1.07,2.77-.65,5.56-1.24,8.35-1.79,1.55-.31,2.97,.56,4.45,.66,2.74,.19,3.09,2.38,3.41,4.13,.64,3.43,1.71,6.77,2.14,10.24,.43,3.45,1.09,6.88,1.53,10.33,.11,.83,.38,1.42,.96,1.94,.92,.84,1.75,1.76,2.34,2.87,.42,1.1-.33,2.31,.29,3.4l-.61,.45c-.86,.54-1.91,.63-2.74,1.3-.72,.58-1.48,.17-1.97-.47-1.14-1.5-2.11-3.12-2.9-4.82-.35-.76-.08-1.5,.3-2.16,.61-1.07,.43-1.93-.54-2.65-.21-.42-.41-.84-.62-1.26,.85-1.11,.86-2.22,.2-3.46-.79-1.46-.79-2.97-.15-4.53,.89-2.2,.54-4.21-1.12-5.97-1.28-1.36-2.27-2.87-2.31-4.85-.02-1.08-.71-1.56-1.73-1.44-1.02,.12-2.06,.16-3.03,.5-.8,.28-1.56,.32-2.37,.06-.94-.31-1.67-.23-1.45,1.06,.11,.66-.17,.99-.78,1.19-3.35,1.11-6.72,2-10.31,1.28-1.02-.21-2.08-.41-2.8-1.16-.88-.92-1.7-.99-2.67-.27-.33,.14-.66,.28-.98,.42-.63-.93-1.44-1.16-2.51-.74-1.26,.5-2.61,.67-3.94,.93-3.83,.75-7.07-.25-9.52-3.34-.62-.78-1.02-.97-2.11-.59-4.51,1.57-9.1,3.06-13.93,3.13-2.68,.03-5.4-.07-8.07-.38-2.57-.3-5.18,.12-7.73-.58-1.33-.37-.86,1.06-1.3,1.59-.3,.12-.6,.23-.89,.35-.81-.86-1.74-.76-2.82-.57-5.59,.96-11.18,2.07-16.85,.39-1.68-.5-3.23-1.22-4.75-2.05-1.56-.86-2.24-.77-3.43,.5-1.3,1.39-2.93,2.23-4.65,2.88-1.05,.4-1.78,.95-2,2.07-.73,.22-1.47,.43-2.2,.65-.75-.75-1.62-.72-2.54-.39-1.85,.68-3.77,.81-5.74,.82-1.91,.01-3.66-.32-5.16-1.54-.94-.76-1.87-.68-2.86-.19l-.55-.27c-.72-.73-1.5-.87-2.47-.42-2.69,1.24-5.56,1.22-8.42,1.05-1.14-.06-2.28-.31-3.18-1.05-1.11-.9-2.13-.86-3.19,.03-.26-.04-.56,.01-.67-.33-.02-.05-.07-.1-.07-.15-.05-2.09-.05-2.1-2.15-1.58-.64,.16-1.28,.14-1.93,.08-2.01-.21-2.69,.44-2.59,2.41,.12,2.48,.32,4.96-.34,7.4-.23,.87-.39,1.82-1.4,2.22Z"/>
      <path class="cls-7" d="M49.63,11.34c-1.04-.08-1.32-1.04-1.9-1.65-.6-.03-1.02-.42-1.33-.85-2.52-3.4-6.08-3.81-9.9-3.5-4.14,.33-7.96,1.47-11.11,4.35-.51,.47-1.14,.97-1.72,.01-1.13-1.46-.54-2.56,.76-3.48,3.23-2.3,6.8-3.81,10.78-3.92,2.51-.07,5.08-.42,7.56,.29,2.15,.61,3.97,1.73,5.27,3.62,1.21,1.76,1.67,1.92,3.47,.93,4.98-2.73,10.35-3.52,15.92-3.22,2.24,.12,4.4,.68,6.21,2.21,.48,.4,.68,.77,.71,1.32-.55,.46-.41,1.77-1.68,1.35-.16,.03-.33,.06-.48,0-6.68-3.15-13.04-1.76-19.27,1.39-1.05,.53-2.09,1.09-3.31,1.16Z"/>
      <path class="cls-7" d="M98.65,22.08c-.25-.66-.58-1.36-.03-1.98,.61-.69,1.3-.11,1.95,.02,.47,.1,.94,.27,1.41,.29,3.49,.13,7.03-.06,10.48,.41,3.96,.55,7.66-.45,11.44-1.04,1.02-.16,1.97-.51,2.81-1.14,.48-.37,1.05-.58,1.67-.48,.57,.09,.96,.12,1.41-.51,.51-.72,1.53-.46,1.92,.2,2.49,4.23,6.26,4.75,10.57,3.79,1.25-.28,2.48-.67,3.72-1,1.3-.35,1.83,.08,1.76,1.44-.62,1.62-2.12,1.7-3.49,2.01-2.79,.63-5.52,1.17-8.45,.32-2.94-.85-4.84-2.72-6.44-5.07-.84,2.24-2.95,2.83-4.96,3.31-4.51,1.08-9.13,1.35-13.74,.98-3.42-.27-6.86-.23-10.27-.59-.74-.08-1.32-.35-1.75-.95Z"/>
      <path class="cls-7" d="M119.5,4.83c-.38,1.35-.97,1.95-2.49,1.15-.88-.46-2-.66-3.09-.43-.5,.41-1.1,.45-1.69,.4-3.56-.3-6.88,.65-10.03,2.12-2.16,1.01-4.22,.95-6.24,.04-2.2-1-4.27-.89-6.38,.15-1.26,.62-2.57,.7-3.94,.32-2.59-.72-5.18-1.08-7.72,.27-.88,.47-1.56,.06-1.97-.81,0-.26-.01-.5-.31-.61,.2-1.29,1.8-2.52,3.69-2.55,2.29-.03,4.62-.34,6.85,.55,1.6,.64,2.76-.8,4.22-1,2.04-.28,4.05-.61,5.93,.42,2.23,1.23,4.21,.37,6.23-.48,3.81-1.61,7.73-2.25,11.86-1.5,1.14,.21,2.37-.13,3.47,.4,.68,.33,1.6,.5,1.61,1.55Z"/>
      <path class="cls-7" d="M148.73,21.66c.91-1.64,1.38-1.68,2.63-.23,.45,.51,1.05,.74,1.67,.93,3.42,1.06,6.77,.51,10.06-.57,.61-.2,1.21-.39,1.88-.46,.19-.75-.93-1.49-.02-2.2,.79-.61,1.49-.07,2.27,.12,1.44,.37,2.78-.48,4.19-.65,2.21-.27,2.87,.08,2.93,2.27,.05,1.76,1.08,3.01,2.21,4.16,1.75,1.78,2.21,3.88,1.28,6.05-.84,1.96-.56,3.62,.37,5.36,.69,1.3,.4,2.11-.93,2.8-2.24-1.92-3.14-5.41-2.02-8.37,.69-1.82,.42-3.21-1-4.61-1.12-1.1-2.12-2.43-2.18-4.16-.04-1.19-.95-.76-1.4-.62-1.44,.44-2.79,1.3-4.39,.46-.57-.3-.53,.45-.58,.64-.36,1.24-1.29,1.85-2.39,2.16-3.8,1.08-7.62,1.32-11.47,.2-1.7-.5-2.55-1.74-3.12-3.28Z"/>
      <path class="cls-7" d="M152.6,4.57c-.42-.26-.45-.89-1-1.03-.17-.89,.4-1.32,1.1-1.5,3.38-.84,6.69-2.18,10.24-2.03,3.72,.16,7.34,.89,10.67,2.68,1.03,.55,1.96,.89,3.28,.62,3.26-.67,5.63,1.83,5.27,5.26-.04,.42,.12,.77,.37,1.03,1.21,1.2,1.01,2.58,.57,4.01-1,.17-1.48-.52-1.89-1.21-.85-1.42-1.7-2.86-1.41-4.63-.74-.93-1.73-1.25-2.87-1.15-1.89,.16-3.54-.49-5.25-1.24-4.19-1.82-8.51-3.03-13.12-1.48-1.43,.48-2.95,.61-4.4,1.04-.58,.17-1.18,.3-1.57-.36Z"/>
      <path class="cls-7" d="M63.25,25.65c-.5-1.08-.35-1.71,.95-2.15,2.24-.75,4.36-1.72,5.89-3.73,.76-1,2.04-.89,3.1-.22,5.15,3.27,10.72,3.62,16.57,2.65,2.16-.36,4.35-.48,6.48-1.08,.98-.27,1.53,.27,1.52,1.31-.67,2.21-2.73,1.96-4.29,2.14-3.5,.41-6.99,.94-10.55,.75-3.62-.2-7.05-.93-10.13-2.86-.78-.49-1.08-.24-1.57,.25-1.61,1.6-3.54,2.7-5.68,3.4-.79,.26-1.69,.53-2.29-.46Z"/>
      <path class="cls-7" d="M14.25,40.22c-.11,.94-.26,1.86-1.3,2.28-1.99-1.99-2.83-4.58-3.55-7.17-1.06-3.85-.9-7.67,.55-11.43,.22-.57,.14-1.29,.07-1.93-.46-4.36,3.79-10.02,8.69-11.15,1.39-.32,2.86-.3,4.29-.44,1.34,.99,1.25,1.95-.28,2.96-.56,0-1.12,0-1.68,0-.61,.35-1.28,.57-1.95,.79-3.19,1.06-4.99,3.43-6.1,6.46-.15,.41-.25,.87-.05,1.27,.67,1.37,.18,2.56-.33,3.86-1.47,3.7-1.07,7.4,.38,11.02,.46,1.15,1.15,2.21,1.25,3.48Z"/>
      <path class="cls-8" d="M22.72,13.33c.63-.94,1.43-1.86,.28-2.96,.13-.32,.35-.54,.67-.67,.51,.36,.88,.31,1.37-.18,2.75-2.71,6.12-3.99,9.94-4.4,2.04-.22,4.02-.29,6.08-.06,3.13,.35,4.81,2.55,6.66,4.62-.42,.82-1.04,.76-1.78,.46-6.49-2.62-12.61-1.41-18.52,1.84-.89,.49-1.74,1.08-2.61,1.61-.77,.47-1.5,.62-2.1-.26Z"/>
      <path class="cls-7" d="M186.34,48.86c-1.34-1.03-.51-2.24-.29-3.4,1.09-2.84,1.3-5.64-.29-8.41-1.02-1.79-1.7-3.63-1.07-5.82,1.04-3.63,.02-7.11-1.32-10.46-.56-1.39-.41-2.85-.83-4.23-.2-.67,.32-.95,.93-1.03,1.08-.08,1.67,.2,1.63,1.51-.05,1.65,.67,3.21,1.21,4.73,1.12,3.12,1.78,6.17,.79,9.5-.37,1.26-.3,2.73,.53,4.02,2.7,4.22,1.96,8.57,.25,12.88-.19,.47-.45,1.73-1.53,.7Z"/>
      <path class="cls-7" d="M150.03,3.85c-.25,1.56-1.08,1.93-2.47,1.25-.47-.23-.9-.58-1.47-.55-1.93-.33-3.68,.23-5.44,.97-1.63,.69-3.49,.82-5.03-.03-3.56-1.97-7.02-1.47-10.57-.15-.74,.27-1.46,.74-2.31,.53-1.15,.48-1.95,.18-2.33-1.05-.3-.65-.15-1.02,.55-1.33,5.01-2.19,10.03-4.03,15.4-1.07,1.1,.61,2.21,.55,3.31-.05,3.33-1.78,6.54-1.25,9.75,.41,.54,.28,.74,.52,.61,1.07Z"/>
      <path class="cls-7" d="M17.79,34.38c1.93-3.14,1.43-6.61,1.27-9.99-.08-1.65,1.1-2.97,2.74-2.57,.81,.2,1.56,.36,2.35-.01,.79-.37,1.73-.79,2.42-.13,.8,.75-.09,1.56-.31,2.34-1.18,.48-2.34,1.03-3.65,.95-.74-.05-.91,.26-.89,.94,.1,2.94,.04,5.88-1.06,8.67-.16,.42-.07,.69,.26,.71,2.75,.2,2.88,2.6,3.32,4.35,.7,2.82-.63,5.4-1.9,7.88-.07,.13-.38,.15-.57,.22-1.32-.82-1.68-1.89-.87-3.28,1.62-2.76,1.03-5.32-.76-7.75-.09-.12,.07-.36-.31-.38-1.65-.09-1.7-.17-2.02-1.94Z"/>
      <path class="cls-7" d="M12.93,56.73c1.23-.09,1.86,.42,1.65,1.7-.34,2.07,1.25,3.19,2.25,4.6,.32,.45,.75,.52,1.01,0,1.56-3.15,3.79-6.04,3.88-9.78,.03-1.1-.29-2.13-.67-3.13-.42-1.1-.08-1.52,1.02-1.5,1.9-.08,1.66,1.52,1.9,2.58,.71,3.14-.07,6.05-1.59,8.82-.89,1.62-1.47,3.41-2.58,4.92-1.37,1.87-2.74,2.04-4.33,.39-1.83-1.89-3.53-3.86-3.51-6.76,0-.85,.25-1.44,.97-1.85Z"/>
      <path class="cls-7" d="M26.93,24.34c.6-1.41,1.4-1.81,2.56-.97,3.49,2.5,7.21,1.78,10.95,.93,.62-.14,1.23-.39,1.81-.67,1.2-.56,1.86-.27,1.95,1.1-.83,2.46-3.17,2.27-5.04,2.81-2.41,.69-4.88,.36-7.3-.01-2.06-.31-3.67-1.53-4.93-3.19Z"/>
      <path class="cls-7" d="M177.89,40.51c1.39,.05,1.99,.82,1.25,1.97-1.12,1.76-.74,3.16,.43,4.65,.69,.88,1.16,1.92,1.8,2.84,.4,.57,1.03,.97,1.6,.24,.75-.96,1.72-.97,2.76-.9-.02,.9,.06,1.81-.54,2.61-1.68,2.25-4.36,2.13-5.96-.37-1.06-1.65-2.01-3.38-2.91-5.13-.99-1.92-.18-4.78,1.56-5.92Z"/>
      <path class="cls-7" d="M44.75,25c.56-1.21,1.57-1.39,2.45-.63,3.13,2.71,6.66,2.09,10.21,1.42,.68-.13,1.36-.31,2-.57,1.14-.48,1.63-.08,1.65,1.08-.01,.91-.46,1.31-1.34,1.7-3.32,1.46-6.79,1.04-10.15,.73-2.06-.19-3.85-1.66-4.81-3.73Z"/>
      <path class="cls-7" d="M12.61,43.76c1.32-.04,1.83,.31,1.39,1.82-.64,2.21-.89,4.44,.35,6.67,.57,1.02,.48,2.33-1.02,2.87-2.14-2.36-2.66-5.19-2.19-8.2,.11-.7,.07-1.46,.42-2.17,.26-.51,.37-.99,1.04-.99Z"/>
      <path class="cls-8" d="M75.96,8.04c.48,.27,.84,1.02,1.53,.58,2.77-1.81,5.69-1.22,8.55-.44,1.26,.34,2.32,.18,3.4-.34,2.18-1.05,4.28-1.32,6.6-.17,1.89,.93,3.87,1.05,6-.03,3.7-1.88,7.72-2.54,11.89-2.08-1.25,3.73-1.88,4.29-6.55,4.39-2.47,.05-4.9,.29-7.29,.79-2.6,.55-5.24,.09-7.86,.56-2.99,.54-6.11,.39-9.06,1.19-3.06,.83-6.68-1.27-7.2-4.45Z"/>
      <path class="cls-8" d="M152.6,4.57c1.71,.44,3.14-.7,4.77-.86,1.52-.15,2.99-.71,4.5-1.03,.57-.12,1.22-.22,1.76-.06,2.94,.88,6.18,.81,8.83,2.6,1.66,1.13,3.47,.89,5.28,.94,1.05,.03,2.11,.13,2.08,1.6-2.04,1.3-4.08,1.07-6.05-.12-1.9-1.15-3.86-1.1-6.04-.98-3.62,.21-7.16,.52-10.69,1.38-2,.49-4.05-1.32-4.44-3.47Z"/>
      <path class="cls-8" d="M49.63,11.34c4.33-2.69,9.02-4.61,14.1-4.73,3.02-.07,6.45-.43,8.96,2.19-.55,.93-1.4,1.33-2.45,1.25-4.39-.35-8.65,.48-12.89,1.42-.93,.2-1.83,.66-2.67,1.14-1.36,.77-2.57,1.08-3.71-.36-.32-.4-.88-.6-1.33-.9Z"/>
      <path class="cls-8" d="M122.73,5.87c4.16-1.77,8.26-3.46,12.8-.85,1.89,1.08,4.04,.63,6.03-.32,1.46-.7,2.97-1.32,4.52-.15-.02,.05-.04,.1-.06,.15-1.97,4.33-2.84,3.37-6.16,2.96-2.2-.27-4.31-.97-6.63-.6-1.8,.29-3.32,1.16-5,1.67-2.58,.78-4.59-.23-5.5-2.85Z"/>
      <path class="cls-8" d="M14.25,40.22c-2.69-4.2-3.55-8.74-2.54-13.62,.14-.66,.63-1.24,.88-1.88,.33-.83,.77-1.67-.11-2.5-.18-.17-.19-.61-.16-.91,.34-3.74,4.93-7.92,8.72-7.96-1.38,3.25-3.12,6.27-5.69,8.72-1.97,1.88-2.09,4.21-1.96,6.69,.17,3.12,.71,6.16,1.4,9.2,.15,.67-.02,1.59-.53,2.27Z"/>
    </g>
  </g>
</svg>