<?xml version="1.0" encoding="UTF-8"?>
<svg xmlns="http://www.w3.org/2000/svg" viewBox="0 0 196.87 219.39">
  <defs>
    <style>
      .cls-1 {
        fill: #a67773;
      }

      .cls-2 {
        fill: #fff;
        font-family: ArialMT, Arial;
        font-size: 18px;
      }

      .cls-3 {
        fill: #d0b6a4;
      }

      .cls-4 {
        fill: #ba9288;
      }

      .cls-5 {
        fill: #785049;
      }

      .cls-6 {
        fill: #b6d080;
      }

      .cls-7 {
        fill: #93a568;
      }

      .cls-8 {
        fill: #9fb570;
      }
    </style>
  </defs>
  <g id="Layer_3" data-name="Layer 3">
    <g>
      <path class="cls-1" d="M32.4,142.6c0-1.3,.01-2.61,.02-3.91,.51,.32,.37,1.49,1.26,1.21,.87-.27,1.37-1,1.28-2.02-.04-.38,0-.76,0-1.14,0-31.7,.01-63.41-.04-95.11,0-1.68,.46-2.05,2.07-2.04,15.04,.06,30.07,.02,45.11,.06,1.5,0,2.15-.44,1.86-1.95,.57,0,1.13,.01,1.7,.02-.07,1.48,.68,1.98,2.1,1.93,2.22-.08,4.44,.08,6.65-.05,1.6-.1,1.95,.46,1.95,1.99-.05,24.2-.03,48.39-.03,72.59,0,.43,0,.87,0,1.3,0,.74,.35,1.31,1.09,1.38,.72,.07,1.24-.44,1.4-1.12,.13-.57,.1-1.18,.11-1.77,0-24.14,.01-48.29-.02-72.43,0-1.39,.22-1.96,1.82-1.95,19.7,.06,39.4,.06,59.1,0,1.43,0,1.84,.37,1.81,1.81-.1,4.22-.05,8.44-.02,12.67,0,1.2,.32,2.19,1.9,1.77,0,.67,0,1.34,0,2-1.71,.23-1.92,1.43-1.92,2.84,0,31.68,0,63.36,0,95.04,0,.22-.01,.43,0,.65,.09,1.12,.57,1.85,1.83,1.74,.05,.77,.1,1.54,.15,2.3-1.45,.27-2.09,1.07-2,2.61,.11,1.83-.04,3.68,.05,5.52,.06,1.23-.28,1.61-1.6,1.71-1.88,.15-3.51-.76-5.37-.75-17.96,.08-35.92,.03-53.88,.08-1.51,0-1.9-.42-1.88-1.9,.08-6.38,.03-12.77,.03-19.15,0-9.52,0-19.05,0-28.57,0-.72,.2-1.7-.95-1.68-1.03,.01-1.75,.52-1.64,1.73,.03,.38,0,.76,0,1.14,0,15.48-.03,30.95,.04,46.43,0,1.71-.51,2.03-2.09,2.02-10.82-.07-21.64-.02-32.46-.05-1.23,0-2.03,.22-1.89,1.66h-1.23c.1-1.25-.45-1.68-1.72-1.67-6.81,.05-13.61,0-20.42,.05-1.3,.01-1.64-.38-1.63-1.65,.05-7.89,.03-15.77,.03-23.66,0-2.1-.48-2.41-2.54-1.67Zm97.56-39.31c-5.62,0-11.24,0-16.86,0-.66,0-1.44-.03-1.7,.65-.28,.74,.37,1.27,.83,1.8,.4,.45,.92,.49,1.48,.49,10.92,0,21.84-.02,32.76,.01,1.38,0,1.65-.96,1.75-1.87,.15-1.26-.93-1.06-1.71-1.06-5.51,0-11.03,0-16.54,0Zm-62.92-22.09c-5.51,0-11.02,0-16.53,0-.64,0-1.42-.13-1.55,.76-.11,.8,.23,1.5,1.01,1.85,.38,.17,.83,.28,1.24,.28,10.7,.01,21.39,0,32.09,.02,1.33,0,1.88-.85,1.92-1.93,.04-1.27-1.06-.96-1.81-.96-5.46-.02-10.91-.01-16.37,0Zm63.14-21.44c-6.22,0-12.44,0-18.66,0-.63,0-1.47-.13-1.49,.8-.01,.77,.45,1.45,1.24,1.73,.29,.1,.64,.06,.96,.06,12.12,0,24.23-.01,36.35,.02,1.23,0,1.9-.49,1.91-1.64,.01-1.28-1.07-.97-1.82-.97-6.17-.02-12.33,0-18.5,0Zm-62.44,86.07c-5.41,0-10.82,0-16.22,0-.86,0-1.8,.05-1.87,1.08-.07,1.04,.71,1.62,1.72,1.82,.21,.04,.43,.02,.65,.02,10.55,0,21.09-.02,31.64,.03,1.44,0,1.81-.89,1.9-1.9,.11-1.26-.97-1.04-1.75-1.04-5.35-.01-10.71,0-16.06,0Zm-1.3-21.44c-5.25,0-10.49,0-15.74,0-.74,0-1.68-.08-1.74,.97-.06,.96,.55,1.61,1.49,1.87,.31,.08,.64,.08,.96,.08,10.11,0,20.23-.02,30.34,.03,1.47,0,1.77-.86,1.84-1.9,.09-1.27-.98-1.04-1.75-1.04-5.14-.01-10.28,0-15.42,0Zm61.37-.32c-4.7,0-9.41,0-14.11,0-.71,0-1.63-.02-1.69,.82-.06,.84,.44,1.66,1.37,2,.25,.09,.53,.1,.8,.1,9.52,0,19.03,0,28.55,0,.5,0,1.04,0,1.23-.56,.2-.58,.13-1.13-.32-1.66-.56-.67-1.26-.72-2.04-.71-4.6,.02-9.19,0-13.79,0ZM70.66,58.47c-4.33,0-8.66,.05-12.98-.03-1.21-.02-1.78,.53-1.82,1.53-.05,1.17,.78,1.44,1.86,1.44,8.49-.03,16.99-.05,25.48,.02,1.37,.01,1.98-.6,1.99-1.73,.01-1.3-1.1-1.23-2.03-1.23-4.17,0-8.33,0-12.5,0Zm68.84,22.41c-3.02,0-6.05,.03-9.07-.01-1.17-.02-1.26,.84-1.42,1.61-.16,.8,.38,1.01,1.07,1,6.1,0,12.2,0,18.3,0,1.08,0,1.4-.74,1.47-1.57,.09-1.02-.71-1.03-1.45-1.03-2.97,0-5.94,0-8.91,0Zm-.15,67.56c2.65,0,5.3-.04,7.95,.02,1.36,.03,1.4-.99,1.58-1.84,.15-.72-.32-1.1-1.05-1.1-5.3,0-10.61-.02-15.91,0-1.32,0-1.26,1.24-1.41,2.02-.17,.92,.71,.88,1.36,.89,2.49,0,4.98,0,7.47,0Zm-65.43-45.79c-2.43,0-4.86,.04-7.29-.02-1.3-.03-1.73,.7-1.78,1.79-.06,1.23,.85,1.16,1.68,1.15,2.38,0,4.75,0,7.13,0,2.38,0,4.75-.02,7.13,0,1.41,.01,1.75-1.05,1.81-2.05,.06-1.16-1.01-.86-1.71-.87-2.32-.03-4.65-.01-6.97-.01Zm47.61,42.87c-2.05,0-4.1-.02-6.14,0-.76,0-1.84-.27-1.79,.99,.04,1.01,.54,1.91,1.76,1.91,4.2,.02,8.41,0,12.61,0,1.09,0,1.63-.75,1.67-1.62,.04-.92-.65-1.34-1.64-1.32-2.15,.05-4.31,.02-6.47,.02Zm-2.87-64.63c-2.43,0-4.86,0-7.29,0-.61,0-1.27-.01-1.37,.78-.08,.68,.2,1.31,.78,1.67,.29,.18,.73,.14,1.1,.14,4.7,0,9.4,0,14.1,0,.85,0,1.76-.05,1.7-1.18-.05-.97-.62-1.48-1.73-1.44-2.43,.08-4.86,.02-7.29,.02Zm-62.34,21.76c-1.94,0-3.88,0-5.82,0-.53,0-1.13-.11-1.44,.48-.3,.57,.15,1.02,.37,1.49,.34,.73,.97,.95,1.72,.95,3.66,0,7.33,0,10.99,0,1.01,0,1.7-.37,1.7-1.47,0-1.1-.69-1.47-1.7-1.47-1.94,.02-3.88,0-5.82,0Zm-5.55-44.16s0,0,0-.01c-.59,0-1.18-.03-1.77,0-.74,.05-1.68,0-1.65,1.05,.03,.87,.47,1.75,1.49,1.83,1.33,.1,2.68,.06,4.02,.01,.73-.03,1.23-.5,1.21-1.24-.02-.77-.27-1.53-1.21-1.62-.69-.07-1.39-.01-2.09-.01Zm97.2,65.64c-1.46-.11-2.79-.24-2.85,1.37-.05,1.46,1.11,1.53,2.28,1.54,1.3,0,2.44-.06,2.49-1.72,.05-1.77-1.35-1.05-1.92-1.18Z"/>
      <path class="cls-4" d="M58.68,171.19c.41,0,.82,0,1.23,0,.2,1.22,.87,1.63,2.13,1.63,32.93,.08,65.86-.25,98.79,.22,3.91,.06,7.87-.14,11.8-.27,1.27-.04,1.66,.31,1.64,1.62-.06,7.74,0,15.47-.05,23.21,0,1.42,.46,2.16,1.93,2.1,.02,.33,.04,.65,.06,.98-1.46,.08-1.92,1.06-1.95,2.3-.05,1.68-.01,3.35-.01,5.03q0,2.14-2.2,2.14c-39.92,0-79.83,0-119.75-.03-1.55,0-2.21,.48-2.14,1.99-.4,0-.81,0-1.21,0,.07-1.58-.77-1.99-2.24-1.98-7.46,.05-14.93,0-22.39,.05-1.31,.01-1.77-.29-1.75-1.69,.09-4.7,.03-9.41,.03-14.12,0-4.26-.1-8.52,.31-12.77,.07-.77,.07-1.57-1.01-1.7,0-.41,0-.82,0-1.22,.85-.07,1.03-.62,1.01-1.36-.02-.92,.08-1.85-.03-2.75-.17-1.42,.32-1.82,1.77-1.81,10.47,.07,20.95,.02,31.42,.05,1.27,0,2.22-.29,2.58-1.62Z"/>
      <path class="cls-4" d="M85.65,37.72c-.57,0-1.13-.01-1.7-.02-.96-.79-2.08-1.01-3.31-1.01-16.32,.02-32.64,.01-48.96,.01-2.7,0-5.41-.03-8.11,.02-.97,.02-1.32-.27-1.31-1.28,.05-4.27,.04-8.54,0-12.81,0-.92,.31-1.23,1.22-1.2,1.94,.05,3.9-.07,5.83,.04,1.4,.08,2.29-.38,2.74-1.69,.5-.01,.99-.02,1.49-.04,.88,1.23,2.02,1.72,3.58,1.72,19.47-.04,38.93-.03,58.4-.03,12.11,0,24.22,0,36.34,0,1.49,0,2.64-.44,3.12-1.98,.54,0,1.07,.02,1.61,.03-.17,1.87,1.09,1.94,2.42,1.94,11.3,0,22.6,.02,33.9-.03,1.36,0,1.73,.39,1.7,1.73-.09,3.84-.03,7.68-.03,11.52q0,2.05-2.11,2.05c-28.11,0-56.23,0-84.34-.01-1,0-1.95-.04-2.48,1.02Z"/>
      <path class="cls-3" d="M48.95,212.12c.4,0,.81,0,1.21,0,.22,1.31,1.26,.95,2.05,.95,26.54,.01,53.09,.01,79.63,.01,14.38,0,28.76-.02,43.14,.02,1.36,0,1.95-.31,1.9-1.8-.1-2.97-.04-5.95-.04-8.92,0-.64,.11-1.33-.63-1.69-.02-.33-.04-.65-.06-.98,.62-.75,.7-1.63,.7-2.57-.02-7.94-.03-15.88,0-23.82,0-1.09-.04-2.13-.74-3.03,1.66-.09,3.26-.73,4.98-.01,1.1,.46,1.27,1.06,1.27,2.08-.03,9.52-.02,19.04-.02,28.57,0,4-.07,8.01,.04,12.01,.04,1.41-.4,2.63-.81,3.89-.6,1.83-2.06,2.43-3.86,2.43-3.46,0-6.98,.38-10.38-.07-9.19-1.23-18.39-.49-27.58-.52-38.13-.13-76.27-.05-114.4-.05-3.37,0-4.71-1.25-5.04-4.73-.03-.27,0-.54,0-.81,9.07,0,18.13,.01,27.2,.01,.68,0,1.49,.17,1.41-.96Z"/>
      <path class="cls-3" d="M163.57,160.42c-.05-.77-.1-1.54-.14-2.3,.3-.72,.8-1.29,.8-2.21-.04-32.06-.04-64.12-.02-96.18,0-.76-.2-1.36-.71-1.88,0-.67,0-1.34,0-2,.59-.56,.71-1.25,.7-2.05-.03-4.27,.02-8.55-.04-12.82-.01-1.07,.32-1.38,1.38-1.36,3.03,.06,6.06-.04,9.09,.05,1.32,.04,1.96-.62,2.16-1.69,.2-1.1,.43-2.19,.41-3.34-.06-4.71-.09-9.42,.01-14.12,.03-1.58-.48-2.2-2.01-2.03,1.13-.57,2.36-.4,3.47-.2,1.04,.19,1.81,.87,1.78,2.27-.08,5.46-.02,10.93-.04,16.39,0,2.53-.65,4.84-2.23,6.89-.48,.62-1.02,1.01-1.74,.98-1.58-.07-3.11,.25-4.67,.32-.85,.04-1.19,.32-1.1,1.15,.02,.21,0,.43,0,.65,0,40.58,0,81.15,0,121.73,0,.49,.03,.97,.04,1.46-1.77,.02-3.54,0-5.31,.08-1.04,.05-1.26-.39-1.24-1.32,.05-2.25,.02-4.51,.02-6.77,0-.64,.12-1.32-.62-1.68Z"/>
      <path class="cls-5" d="M175.2,18.48c1.53-.17,2.05,.45,2.01,2.03-.1,4.71-.07,9.42-.01,14.12,.01,1.15-.21,2.25-.41,3.34-.2,1.07-.84,1.73-2.16,1.69-3.03-.09-6.06,.01-9.09-.05-1.05-.02-1.39,.29-1.38,1.36,.06,4.27,0,8.55,.04,12.82,0,.8-.11,1.49-.7,2.05-1.58,.42-1.89-.57-1.9-1.77-.02-4.22-.07-8.45,.02-12.67,.03-1.44-.38-1.81-1.81-1.81-19.7,.05-39.4,.05-59.1,0-1.6,0-1.83,.57-1.82,1.95,.03,24.14,.03,48.29,.02,72.43,0,.59,.03,1.2-.11,1.77-.16,.68-.68,1.19-1.4,1.12-.74-.07-1.08-.64-1.09-1.38,0-.43,0-.87,0-1.3,0-24.2-.01-48.39,.03-72.59,0-1.54-.35-2.09-1.95-1.99-2.21,.14-4.44-.02-6.65,.05-1.42,.05-2.17-.45-2.1-1.93,.53-1.06,1.48-1.02,2.48-1.02,28.11,.01,56.23,.01,84.34,.01q2.11,0,2.11-2.05c0-3.84-.06-7.68,.03-11.52,.03-1.34-.34-1.73-1.7-1.73-11.3,.05-22.6,.03-33.9,.03-1.33,0-2.59-.08-2.42-1.94,.42-.96,1.22-1,2.14-1,11.56,.02,23.13,.02,34.69,.01,.59,0,1.19-.03,1.78-.04Z"/>
      <path class="cls-5" d="M163.57,160.42c.74,.37,.62,1.05,.62,1.68,0,2.26,.03,4.51-.02,6.77-.02,.93,.2,1.37,1.24,1.32,1.77-.09,3.54-.06,5.31-.08,1.8,.06,3.61,.12,5.41,.17,.7,.9,.74,1.93,.74,3.03-.03,7.94-.02,15.88,0,23.82,0,.94-.08,1.82-.7,2.57-1.47,.06-1.94-.68-1.93-2.1,.04-7.74,0-15.48,.05-23.21,.01-1.3-.38-1.66-1.64-1.62-3.93,.13-7.88,.32-11.8,.27-32.93-.47-65.86-.14-98.79-.22-1.27,0-1.93-.42-2.13-1.63-.14-1.44,.66-1.66,1.89-1.66,10.82,.03,21.64-.01,32.46,.05,1.58,0,2.1-.31,2.09-2.02-.08-15.47-.04-30.95-.04-46.43,0-.38,.03-.76,0-1.14-.11-1.21,.62-1.71,1.64-1.73,1.16-.01,.95,.96,.95,1.68,0,9.52,0,19.05,0,28.57,0,6.38,.04,12.77-.03,19.15-.02,1.48,.37,1.9,1.88,1.9,17.96-.05,35.92,0,53.88-.08,1.86,0,3.49,.9,5.37,.75,1.31-.1,1.66-.48,1.6-1.71-.09-1.84,.06-3.68-.05-5.52-.09-1.54,.55-2.34,2-2.61Z"/>
      <path class="cls-5" d="M32.06,19.79c-.45,1.31-1.34,1.77-2.74,1.69-1.94-.12-3.89,0-5.83-.04-.91-.02-1.23,.28-1.22,1.2,.04,4.27,.04,8.54,0,12.81-.01,1.01,.33,1.3,1.31,1.28,2.7-.05,5.4-.02,8.11-.02,16.32,0,32.64,0,48.96-.01,1.23,0,2.34,.22,3.31,1.01,.28,1.52-.37,1.96-1.86,1.95-15.04-.04-30.07,0-45.11-.06-1.62,0-2.08,.36-2.07,2.04,.06,31.7,.04,63.41,.04,95.11,0,.38-.03,.76,0,1.14,.1,1.01-.41,1.74-1.28,2.02-.89,.28-.74-.89-1.26-1.21-.02-.65-.06-1.29-.06-1.94,0-31.74-.02-63.49,.04-95.23,0-1.57-.36-2-1.93-1.92-2.8,.14-5.62,.05-8.43,.04-1.98,0-2.75-.96-2.38-2.88,.08-.42,.04-.86,.04-1.29,0-4.87,0-9.73,0-14.6,0-1.59,.61-2.3,2.15-2.32,2.65-.04,5.3,0,7.95-.02,1.01,0,1.64,.63,2.28,1.27Z"/>
      <path class="cls-5" d="M134.98,19.48c-.48,1.54-1.63,1.98-3.12,1.98-12.11-.01-24.22,0-36.34,0-19.47,0-38.93-.01-58.4,.03-1.55,0-2.7-.49-3.58-1.72,.43-.95,1.18-1.24,2.2-1.24,32.57,.01,65.14,.01,97.71,0,.73,0,1.45-.06,1.52,.96Z"/>
      <path class="cls-5" d="M58.68,171.19c-.36,1.34-1.31,1.63-2.58,1.62-10.47-.03-20.95,.01-31.42-.05-1.45,0-1.94,.39-1.77,1.81,.11,.91,0,1.83,.03,2.75,.02,.74-.17,1.28-1.01,1.36-1.61,.22-2.07-.55-1.94-2.05,.11-1.29,.02-2.59,.02-3.88,0-1.71,.78-2.54,2.48-2.56,2.7-.03,5.4-.09,8.09,.01,1.47,.06,1.8-.47,1.8-1.86-.04-8.58,0-17.16,.02-25.74,2.07-.74,2.54-.44,2.54,1.67,0,7.89,.03,15.78-.03,23.66,0,1.27,.33,1.66,1.63,1.65,6.81-.06,13.61,0,20.42-.05,1.27,0,1.82,.41,1.72,1.67Z"/>
      <path class="cls-5" d="M48.95,212.12c.08,1.13-.73,.96-1.41,.96-9.07,0-18.13,0-27.2-.01-.82-1.76-.31-3.63-.33-5.43-.08-8.55,0-17.1-.03-25.66,0-1.43,.45-2.16,1.93-2.07,1.07,.13,1.08,.93,1.01,1.7-.41,4.25-.31,8.51-.31,12.77,0,4.71,.05,9.41-.03,14.12-.03,1.4,.44,1.7,1.75,1.69,7.46-.06,14.93,0,22.39-.05,1.46,0,2.3,.4,2.24,1.98Z"/>
      <path class="cls-5" d="M163.49,57.85c.51,.53,.71,1.12,.71,1.88-.02,32.06-.02,64.12,.02,96.18,0,.91-.5,1.49-.8,2.21-1.26,.11-1.74-.62-1.83-1.74-.02-.21,0-.43,0-.65,0-31.68,0-63.36,0-95.04,0-1.41,.21-2.61,1.92-2.84Z"/>
      <path class="cls-5" d="M129.96,103.29c5.51,0,11.03,0,16.54,0,.78,0,1.86-.19,1.71,1.06-.1,.91-.38,1.88-1.75,1.87-10.92-.03-21.84-.02-32.76-.01-.56,0-1.08-.03-1.48-.49-.46-.52-1.11-1.06-.83-1.8,.26-.68,1.04-.65,1.7-.65,5.62,0,11.24,0,16.86,0Z"/>
      <path class="cls-5" d="M67.04,81.21c5.46,0,10.91,0,16.37,.01,.75,0,1.86-.3,1.81,.96-.04,1.09-.6,1.93-1.92,1.93-10.7,0-21.39,0-32.09-.02-.42,0-.86-.11-1.24-.28-.78-.35-1.12-1.05-1.01-1.85,.13-.89,.91-.76,1.55-.76,5.51,0,11.02,0,16.53,0Z"/>
      <path class="cls-5" d="M130.18,59.77c6.17,0,12.33,0,18.5,0,.75,0,1.83-.31,1.82,.97,0,1.15-.68,1.64-1.91,1.64-12.12-.04-24.23-.02-36.35-.02-.32,0-.67,.04-.96-.06-.79-.28-1.25-.96-1.24-1.73,.01-.93,.85-.79,1.49-.8,6.22,0,12.44,0,18.66,0Z"/>
      <path class="cls-5" d="M67.74,145.84c5.35,0,10.71,0,16.06,0,.77,0,1.86-.21,1.75,1.04-.09,1.01-.46,1.91-1.9,1.9-10.55-.05-21.09-.03-31.64-.03-.22,0-.44,.02-.65-.02-1-.2-1.79-.79-1.72-1.82,.07-1.03,1.01-1.08,1.87-1.08,5.41,0,10.82,0,16.22,0Z"/>
      <path class="cls-5" d="M66.44,124.41c5.14,0,10.28,0,15.42,0,.77,0,1.83-.23,1.75,1.04-.07,1.04-.37,1.91-1.84,1.9-10.11-.06-20.23-.03-30.34-.03-.32,0-.66,0-.96-.08-.94-.26-1.55-.91-1.49-1.87,.06-1.05,1-.97,1.74-.97,5.25-.01,10.49,0,15.74,0Z"/>
      <path class="cls-5" d="M127.81,124.08c4.6,0,9.19,0,13.79,0,.78,0,1.48,.05,2.04,.71,.44,.53,.52,1.08,.32,1.66-.19,.55-.73,.56-1.23,.56-9.52,0-19.03,0-28.55,0-.27,0-.55-.01-.8-.1-.92-.34-1.43-1.16-1.37-2,.06-.84,.98-.82,1.69-.82,4.7,0,9.41,0,14.11,0Z"/>
      <path class="cls-5" d="M70.66,58.47c4.17,0,8.33,0,12.5,0,.94,0,2.05-.07,2.03,1.23-.01,1.13-.62,1.74-1.99,1.73-8.49-.07-16.99-.05-25.48-.02-1.08,0-1.91-.27-1.86-1.44,.04-1,.61-1.55,1.82-1.53,4.33,.08,8.66,.03,12.98,.03Z"/>
      <path class="cls-5" d="M139.5,80.88c2.97,0,5.94,0,8.91,0,.74,0,1.53,0,1.45,1.03-.07,.83-.39,1.58-1.47,1.57-6.1,0-12.2,0-18.3,0-.69,0-1.23-.2-1.07-1,.15-.77,.24-1.62,1.42-1.61,3.02,.04,6.05,.01,9.07,.01Z"/>
      <path class="cls-5" d="M139.34,148.44c-2.49,0-4.98,0-7.47,0-.65,0-1.53,.04-1.36-.89,.14-.79,.08-2.02,1.41-2.02,5.3-.02,10.61,0,15.91,0,.73,0,1.2,.37,1.05,1.1-.18,.85-.22,1.87-1.58,1.84-2.65-.06-5.3-.02-7.95-.02Z"/>
      <path class="cls-5" d="M73.91,102.64c2.32,0,4.65-.02,6.97,.01,.69,0,1.77-.29,1.71,.87-.05,1-.39,2.06-1.81,2.05-2.38-.02-4.75,0-7.13,0-2.38,0-4.75,0-7.13,0-.83,0-1.74,.08-1.68-1.15,.05-1.09,.48-1.82,1.78-1.79,2.43,.06,4.86,.02,7.29,.02Z"/>
      <path class="cls-5" d="M121.52,145.52c2.16,0,4.31,.04,6.47-.02,.99-.02,1.68,.4,1.64,1.32-.04,.87-.58,1.62-1.67,1.62-4.2,0-8.41,.01-12.61,0-1.23,0-1.73-.9-1.76-1.91-.05-1.26,1.04-.98,1.79-.99,2.05-.03,4.1,0,6.14,0Z"/>
      <path class="cls-5" d="M118.65,80.88c2.43,0,4.86,.05,7.29-.02,1.11-.04,1.68,.47,1.73,1.44,.06,1.13-.85,1.18-1.7,1.18-4.7,0-9.4,0-14.1,0-.37,0-.81,.04-1.1-.14-.58-.36-.87-.98-.78-1.67,.1-.8,.76-.78,1.37-.78,2.43,0,4.86,0,7.29,0Z"/>
      <path class="cls-5" d="M56.31,102.64c1.94,0,3.88,.01,5.82,0,1.01,0,1.7,.37,1.7,1.47,0,1.1-.69,1.47-1.7,1.47-3.66-.01-7.33,0-10.99,0-.75,0-1.38-.22-1.72-.95-.22-.47-.67-.92-.37-1.49,.31-.58,.91-.47,1.44-.48,1.94,0,3.88,0,5.82,0Z"/>
      <path class="cls-5" d="M50.76,58.48c.7,0,1.4-.05,2.09,.01,.95,.09,1.2,.85,1.21,1.62,.02,.74-.49,1.22-1.21,1.24-1.34,.05-2.69,.09-4.02-.01-1.02-.08-1.46-.96-1.49-1.83-.03-1.05,.91-1,1.65-1.05,.59-.04,1.18,0,1.77,0,0,0,0,0,0,.01Z"/>
      <path class="cls-5" d="M147.96,124.13c.57,.13,1.97-.58,1.92,1.18-.04,1.66-1.19,1.73-2.49,1.72-1.18,0-2.34-.08-2.28-1.54,.06-1.61,1.39-1.48,2.85-1.37Z"/>
      <path class="cls-5" d="M176.22,200.69c.74,.37,.63,1.05,.63,1.69,0,2.97-.06,5.95,.04,8.92,.05,1.49-.54,1.8-1.9,1.8-14.38-.04-28.76-.02-43.14-.02-26.54,0-53.09,0-79.63-.01-.79,0-1.83,.37-2.05-.95-.07-1.51,.58-2,2.14-1.99,39.92,.04,79.83,.03,119.75,.03q2.2,0,2.2-2.14c0-1.68-.04-3.36,.01-5.03,.04-1.24,.5-2.22,1.95-2.3Z"/>
    </g>
  </g>
  <g id="Layer_1" data-name="Layer 1">
    <text class="cls-2" transform="translate(44.96 197.01)"><tspan x="0" y="0">UX/UI design</tspan></text>
    <g>
      <path class="cls-8" d="M57.22,4.36c.21-.03,.42-.05,.63-.08,.57,.45,.84,1.13,1.27,1.69,.27,.84,.88,1.1,1.73,1.18,1.66,.16,3.34,.31,4.94,.84,1.46,.49,2.77,1.24,3.8,2.39,.72,.8,1.52,.97,2.45,.43,.65-.19,1.09-.59,1.31-1.24,.17-.51,.4-1,1.09-.9,.84,.37,1.63,.31,2.49-.03,2.71-1.06,5.47-1.93,8.36-2.39,1.83-.29,2.29-.89,2.43-2.63,.06-.52,.2-1.01,.71-1.29,.78,.13,1.51-.04,2.23-.31,2.51,1.71,5.73,1.77,8.19,3.62,1.14,.85,2.21,1.72,2.99,2.92,.31,.47,.61,1.06,1.38,.39,1.65-1.44,3.96-1.38,5.85,.06,.3,.23,.55,.52,.84,.76,.53,.45,.83,1.29,1.55,1.36,.8,.07,.71-.99,1.23-1.34,1.69-1.13,3.56-1.46,5.39-.59,1.42,.68,2.59,.57,3.99-.01,2.11-.88,4.35-1.22,6.67-1.11,1.81,.09,3.41,.63,4.71,1.88,.87,.83,1.73,1.12,2.93,.69,1.45-.52,3.79,.53,4.47,1.83,.64,1.21,.19,3.31-.96,4.43-7.16,.48-14.31,.98-21.47-.23-5.65-.95-11.35-1.55-17.02-2.27-3.85-.49-7.57,.9-11.05,2.64-.48,.24-.99,.48-1.4,.82-2.76,2.28-5.88,2.2-9.19,1.68-4.86-.76-9.76-1.44-14.69-1.11-7.12,.48-14.24,.58-21.36,.85-5.31,.2-10.54,.95-15.79,1.6-2.1,.26-4.08,1.04-5.99,1.96-.92,.44-1.54,1.23-1.73,2.23-.95,4.96-3.17,9.4-5.58,13.75-.83,1.49-1.06,2.94-.98,4.63,.14,2.83-1.15,5.2-3.06,7.24-.26,.28-.61,.44-1.02,.41-.99-1.06-.8-2.39-.83-3.66-.04-1.77,.07-3.52-.83-5.18-.57-1.07-1.16-2.02-2.27-2.59,.06-1.04-.15-1.9-.94-2.74-.73-.78-1.23-1.82-1.5-2.93-.32-1.31,.09-1.9,1.44-1.64,.58,.11,.64-.1,.7-.51,.91,.23,1.69-.1,2.46-.54,1.37-.37,1.89-1.2,1.28-2.47-.48-1-.36-1.83,0-2.78,1.43-3.68,2.22-7.57,3.56-11.28,.25-.71,.38-1.47,.93-2.04,.14-.09,.29-.12,.45-.1,.35,.17,.57,.48,.81,.77,.77,.9,1.6,1.04,2.48,.17,2.52-2.48,5.53-4.03,8.98-4.74,.96-.2,1.6-.83,2.06-1.67,.25-.47,.36-1.02,.86-1.32,1.84,.11,1.85,.11,1.98-1.67,.02-.29,.02-.58,.34-.63,.69-.11,1.1,.31,1.44,.84,.66,1.08,1.64,1.43,2.87,1.43,3.11,0,6.19-.52,9.33-.06,2.5,.37,5.03,.44,7.26,1.86,1.28,.81,2.24,0,3.15-.79,1.04-.5,1-1.7,1.62-2.47Z"/>
      <path class="cls-7" d="M9.54,51.02c2.3-1.53,2.87-4.08,3.79-6.43,.06-.14,.09-.34,.04-.48-1.16-2.97,.77-5.12,1.94-7.5,1.77-3.62,3.67-7.19,4.29-11.26,.25-1.65,1.13-2.85,2.89-3.27,.93-.22,1.75-.79,2.71-1.02,4.12-.97,8.3-1.45,12.51-1.85,5.54-.52,11.09-.52,16.64-.7,4.9-.16,9.79-.67,14.69-.57,3.71,.08,7.42,.44,11.04,1.2,3.58,.75,6.55-.18,9.5-2.17,3.29-2.22,7.17-2.87,11.04-3.22,1.35-.12,2.76,.35,4.13,.59,4.28,.77,8.65,.92,12.93,1.67,4.6,.81,9.2,1,13.84,.92,1.24-.02,2.48,.08,3.69-.31,1.59-.52,3.19,.21,4.79-.02,.28,.45,.02,.83-.2,1.19-1.11,1.78-2.57,3.18-4.53,3.98-1.69,.69-3.36,.62-4.95-.35-.69-.42-1.32-.93-1.97-1.41-1.22-.9-1.57-.81-2.33,.5-1.45,.09-2.54,1.06-3.81,1.57-.84,.75-1.84,.47-2.77,.32-1.78-.28-3.41-.97-4.91-1.98-.68-.46-1.44-.82-1.61,.48-.11,.9-.76,.93-1.42,.97-1.88,.12-3.66-.3-5.32-1.14-1.94-.98-4.03-1.51-6.07-2.2-1.09-.37-1.94-.1-2.27,1.1-.4,1.47-1.19,2.08-2.74,1.53-1.05-.37-1.24,.5-1.5,1.21-.43,.24-.85,.49-1.28,.73-.99-.29-1.87-.07-2.78,.43-2.77,1.54-5.6,1.78-8.5,.23-1.83-.98-2.1-.79-2.38,1.2-.64,.14-1.29,.27-1.93,.41-.62-.6-1.3-.85-2.19-.67-1.88,.37-3.55-.29-5.32-.91-4.3-1.49-8.69-2.34-13.22-.64-2.93,1.1-5.98,1.4-9.05,.5-1.77-.52-3.49-.53-5.24,.1-1.71,.61-3.68,.21-5.3,1.27-.31-.1-.62-.2-.93-.3-1.99,.18-3.99,.07-5.99,.07-1.37,0-2.4,.4-3.01,1.71-.56,1.2-1.84,1.99-1.94,3.48-.03,.44-.55,.46-.93,.46-.87,0-1.25,.47-1.38,1.27-.47,2.85-1.61,5.49-2.83,8.07-.65,1.37-.68,2.44,.49,3.44-.03,1.4-.06,2.79-.08,4.19-.41,.08-.69-.25-1.05-.33-.63-.13-.91,.17-.92,.77,0,.38,.11,.74,.23,1.1,1.26,3.81,.16,7.18-1.99,10.31-.48,.7-.85,1.48-1.44,2.11-.28-.18-.54-.42-.91-.31-.55-1.75-1.55-3.24-2.65-4.69-.88-1.16-1.45-2.49-1.74-3.92-.1-.51-.33-1.05,.17-1.49Z"/>
      <path class="cls-5" d="M126.03,20.55c-.15-.45-.47-.91-.02-1.35,.45-.43,1.01-.35,1.53-.19,.58,.18,1,.6,1.45,1,2.81,2.47,5.75,2.46,8.52-.05,1.04-.94,1.88-2.06,2.49-3.33,.82-1.13,.8-2.44,.64-3.7-.15-1.22-3.07-2.5-4.22-1.87-1.03,.56-1.93,.64-2.74-.29-2.25-2.61-5.23-2.49-8.2-2.08-1.63,.23-3.26,.67-4.73,1.51-.63,.36-1.15,.3-1.78-.11-1.35-.88-2.81-1.16-4.45-.68-1.05,.31-1.79,.69-2.16,1.81-.33,1.01-.87,1.26-1.63,.14-1.08-1.59-2.51-2.75-4.53-3.03-1.18-.16-2.19-.3-2.74,1.15-.48,1.26-1.24,.58-1.61-.09-1.51-2.73-4.01-4.08-6.77-5.13-1-.38-2.09-.38-3.07-.88-.62-.32-.85-.94-1.34-1.35,0-.92,.63-.94,1.33-.97,3.7-.16,6.69,1.43,9.39,3.75,.65,.56,1.09,1.07,2.26,.89,2.44-.38,4.93-.2,6.98,1.53,.45,.38,.78,.31,1.3,.11,2.53-.99,5.08-1.42,7.64,0,.42,.23,.88-.11,1.3-.26,2.36-.84,4.76-1.52,7.3-1.46,2.11,.06,4.1,.55,5.8,1.89,.76,.6,1.45,.78,2.48,.51,3.49-.92,7.76,3.63,6.76,7.31-1.23,4.53-3.77,8.01-8.64,9.25-2.42,.62-4.4-.37-6.24-1.68-.88-.62-1.98-1.13-2.31-2.34Z"/>
      <path class="cls-5" d="M32.57,4.22c-.31-.18-.62-.36-1.2-.7,.44,1.15,.81,2.16-.16,2.86-.72,.51-1.27-.23-1.87-.49-.32,.04-.65,.09-.96-.02-5.07-1.81-10.34,1.21-12.92,5.54-.33,.56-.46,1.4-1.39,1.38-.12,0-.24,0-.36,0-1.59,.31-1.4-1.06-1.8-2.01-3.35,1.4-6.1,3.28-6.91,7.08-.43,2,.16,3.85,.95,5.63,.53,1.19,.96,2.28,.02,3.46-.54,.68,.23,1.03,.49,1.51,.55,.96,1.89,1.64,1.14,3.08-.61,1.09-1.36,1.24-2.26,.32-.76-.89-1.61-1.71-2.11-2.81-.69-1.53-.46-1.95,1.29-2.1-1.45-2.32-2.44-4.72-2.52-7.5-.15-5.24,2.98-9.23,7.53-11.21,1.09-.47,2.22-.89,3.41-.73,.93,.12,1.57-.18,2.13-.82,2.53-2.87,5.83-4.2,9.54-4.63,1.34-.16,2.64,.21,3.92,.56,.68,.18,1.34,.39,1.97-.13,1.91-1.56,4.32-1.62,6.58-2.04,3.29-.61,6.66-.47,9.98-.32,3.84,.18,7.48,1.12,10.15,4.23-.1,1,.12,2.15-1.25,2.51-.28,0-.55-.09-.74-.29-2.94-3.01-6.83-3.18-10.63-3.41-3.34-.19-6.64,.31-9.91,1.06-.68,.16-1.42,.65-2.12-.01Z"/>
      <path class="cls-5" d="M36.44,25.08c.26-1.31,1.38-1.18,2.28-1.28,.8-.09,1.62,.04,2.38-.32,2.47-1.17,4.95-.52,7.39,.04,2.63,.6,5.19,.18,7.53-.84,2.05-.89,4.08-.96,6.15-.8,1.75,.14,3.48,.6,5.25,.59,.46,0,.8,.21,1.17,.45,2.03,1.25,4.15,1.99,6.58,1.23,1-.31,1.71,.04,1.57,1.27-.18,1.03-.74,1.55-1.84,1.6-2.65,.12-5.16-.1-7.53-1.58-1.41-.88-3.27-.23-4.86-.71-2.83-.85-5.23,.8-7.83,1.3-3.04,.58-6.05,.54-9.03-.33-1.93-.57-3.56,.6-5.34,.88-2.02,.32-2.99,.08-3.88-1.52Z"/>
      <path class="cls-5" d="M93.62,22.43c-.26-.48-.59-1-.07-1.46,.46-.4,1.08-.64,1.65-.27,1.52,1.01,1.94,.08,2.28-1.18,.42-1.6,1.41-1.84,3.05-1.36,2.94,.86,5.61,2.4,8.58,3.17,.76,.2,1.49,.14,2.24,.18,.7,.04,1.34,.18,1.15-1.02-.16-1.02,1-1.48,1.92-.72,2.29,1.89,4.91,2.56,7.81,2.36,.75,0,1.48,.14,2.23-.15,.71-.28,1.54-.16,1.57,.71,.03,.76,0,1.99-1.08,2.02-4.08,.1-8.29,.63-11.71-2.49-.71,2.24-1.22,2.3-3.53,2.03-3.13-.37-5.67-2.28-8.67-2.92-.69-.15-1.39-.47-1.74,.65-.97,3.07-4.23,2.49-5.68,.46Z"/>
      <path class="cls-5" d="M88.45,2.34c-.12,.43-.24,.87-.37,1.3-.32,.39-.71,.65-1.22,.72-4.08,.58-7.71,2.39-11.37,4.12-.34,.16-.67,.36-1.07,.34-.71,.05-.53,.63-.68,1.05-.25,.72-.57,1.4-1.55,1.24-.69-.24-.92-.85-1.2-1.43-1.1-2.32-3.01-3.42-5.48-3.6-1.55-.11-3.1-.09-4.63,.35-.72,.21-1.49,.39-2.01-.45-.67-.37-1.07-.9-1.03-1.7,2.53-1.51,5.29-1.73,8.13-1.45,2.36,.23,4.36,1.28,6.11,2.84,.79,.71,1.53,.21,2.2-.15,3.6-1.92,7.32-3.55,11.36-4.28,1-.18,2.58-1.05,2.79,1.1Z"/>
      <path class="cls-5" d="M19.93,43.28c-1.42-.41-1.92-1.22-1.4-2.42,1.37-3.21,2.95-6.32,3.4-9.87,.16-1.27,1.33-1.14,2.6-.67-.68-1.2-.17-1.81,.5-2.44,.46-.44,.95-.96,1.14-1.54,.55-1.68,1.79-2.03,3.31-1.9,2.01,.17,4.07-.42,6.05,.34-.18,2.05-.38,2.24-2.4,2.24-.7,0-1.4,0-2.1,0-1.49-.02-2.65,.33-3.42,1.88-.52,1.06-1.16,2.64-3.02,1.68-.52,4.39-2.3,8.27-4.09,12.15-.1,.22-.37,.37-.56,.55Z"/>
      <path class="cls-5" d="M9.54,51.02c.19,2.2,1.05,4.09,2.37,5.86,.93,1.25,2.19,2.41,1.85,4.24-.48,1.22-1.23,1.37-1.93,.29-1.95-3-4.23-5.82-4.76-9.55-.15-1.08-.18-2.14-.13-3.2,.11-2.34-.1-4.56-1.39-6.61-.48-.76-.84-1.62,.1-2.37,1.08-.12,1.62,.27,2.17,1.33,1.05,2.03,1.63,4.07,1.37,6.33-.15,1.25,.25,2.45,.37,3.67Z"/>
      <path class="cls-5" d="M14.67,61.43c.02-.59,.06-1.12,.49-1.65,2.76-3.31,3.89-6.99,2.36-11.21-.26-.73-.55-1.55,.35-1.98,.88-.42,1.53,.09,1.97,.88,1.52,4.73,.72,9.13-1.95,13.25-.23,.36-.48,.72-.77,1.03-1.15,1.22-1.47,1.17-2.45-.31Z"/>
      <path class="cls-5" d="M78.69,25.02c.1-.71-1.18-1.37-.26-1.99,.75-.5,1.68-.32,2.56,.22,2.9,1.82,5.8,1.47,8.67-.19,.87-.5,1.84-1.37,2.69,.09-.29,2.93-2.8,3.18-4.83,3.82-3.25,1.03-6.16-.08-8.83-1.96Z"/>
      <path class="cls-6" d="M7.6,31.55c.06-1.46-1.07-2.26-1.86-3.24-.46-.57-.86-.94-.04-1.64,.87-.74,.52-1.69,.05-2.64-1.11-2.23-1.8-4.53-.97-7.07,1.23-3.75,4.16-5.51,7.74-6.82-.2,1.24-.26,2.34,1.19,2.66-1.64,4.7-2.71,9.58-4.53,14.22-.16,.42-.38,.8,.04,1.16,.71,.63,.57,1.35,.45,2.2-.21,1.42-.83,1.73-2.06,1.17Z"/>
      <path class="cls-6" d="M32.57,4.22c4.13-.95,8.29-1.8,12.54-1.5,3.07,.22,6.22,.36,8.9,2.23,.76,.53,1.33,1.25,1.95,1.92-1.59,2-2.28,2.04-4.43,.72-1.78-1.09-3.89-1.04-5.89-1.35-3.48-.54-6.96,.01-10.43,.03-1.46,0-2.31-.66-2.64-2.04Z"/>
      <path class="cls-6" d="M14.07,12.79c1.45-2.11,2.68-4.4,4.95-5.82,3.27-2.05,6.65-2.9,10.32-1.07-.59,2.2-1.95,3.31-4.26,3.71-2.8,.48-5.11,2.1-7.2,4.01-1.77,1.63-2.75,1.4-3.81-.83Z"/>
      <path class="cls-6" d="M58.88,5.98c.61,.31,1.17,.2,1.84,.05,2.91-.62,5.79-.92,8.53,.81,1.63,1.03,2.11,2.75,2.95,4.27-.78,.56-1.56,1.08-2.38,.08-2.42-2.94-5.81-3.44-9.28-3.61-1.18-.06-1.7-.46-1.66-1.61Z"/>
      <path class="cls-6" d="M74.42,8.82c3.16-2.18,6.72-3.46,10.38-4.5,1.07-.31,2.19-.46,3.29-.68,.27,1.29-.57,2.73-1.89,2.91-3.41,.48-6.66,1.47-9.83,2.78-.73,.3-1.48,.36-1.94-.52Z"/>
    </g>
  </g>
</svg>