<?xml version="1.0" encoding="UTF-8"?>
<svg id="Layer_1" data-name="Layer 1" xmlns="http://www.w3.org/2000/svg" viewBox="0 0 140.36 98.76">
  <defs>
    <style>
      .cls-1 {
        fill: #a69080;
      }

      .cls-2 {
        fill: #f1b078;
      }

      .cls-3 {
        fill: #785049;
      }

      .cls-4 {
        fill: #feeddf;
      }

      .cls-5 {
        fill: #a69180;
      }
    </style>
  </defs>
  <path class="cls-4" d="M46.44,8.79c.26-.4,.56-.74,1.01-.94,.98-.57,1.72-1.39,2.44-2.25,1-1.19,2.1-2.28,3.65-2.75,.57-.17,1.14-.31,1.7,.03,.5,.54,.68,1.23,.81,1.9,.53,2.64,1.92,4.88,3.17,7.2,.98,1.82,2.73,2.85,4.19,4.19,.65,.91,.24,1.35-.7,1.58-.4,.1-.92,.19-.9,.75,.02,.41,.41,.64,.75,.77,3.09,1.17,5.59,3.15,7.77,5.58,.56,.63,1.47,.65,2.06,1.22l.7,1c.37,1.7,1.17,3.26,1.59,4.93,2.95,11.84-1.94,23.76-13.67,28.84-3,1.3-6.29,1.5-9.53,1.73-.53,.04-1.33-.33-1.36,.64-.02,.74,.5,1.15,1.21,1.3,1.2,.25,2.36-.17,3.54-.23,5.34-.29,9.97-2.31,13.92-5.87,8.6-7.74,10.39-17.28,7.3-28.07-.16-.55-.58-1.09-.11-1.67l-.03,.02c2.68-.13,4.84-1.72,7.22-2.66,3.94-1.57,7.94-2.8,12.25-2.61,.77,.13,1.27,.66,1.55,1.31,1.22,2.89,3.59,4.77,6.08,6.34,4.42,2.79,8.9,5.53,14.3,6.14,3.28,.37,6.54,.7,9.83,.24,.48-.07,.97-.1,1.44,.07,2.49,2.44,3.94,5.53,5.1,8.73,1.24,3.42,1.97,6.97,1.79,10.65-.06,1.26,.08,2.5,.58,3.66,3.06,7.1,1.89,13.99-1.2,20.7-1.93,4.19-4.78,7.7-8.64,10.32-1.03,.7-2.06,1.41-3.37,1.48-5.29-1.32-10.53-.81-15.77,.37-.52,.12-1.04,.28-1.59,.23-2.8-.97-4.57-3.22-6.37-5.34-4.76-5.62-6.23-12.09-4.63-19.27,.14-.63,.35-1.26,.28-1.92-.04-.33-.14-.66-.5-.76-.37-.11-.6,.17-.8,.42-.36,.42-.55,.93-.68,1.46-1.23,4.72-1.31,9.4,.41,14.03,.75,2.02,.51,2.37-1.61,2.46-10.8,.46-21.61,.32-32.42,.33-1.35,.05-2.21-.42-1.89-1.95,.35-1.69-.61-2.65-1.82-3.49-.23-1.05,.65-1.28,1.27-1.59,1.25-.64,2.58-1.11,3.93-1.51,.36-.11,.74-.17,1.09-.31,.76-.29,1.78-.59,1.51-1.57-.27-1.02-1.33-.72-2.09-.53-5.94,1.5-10.76,4.63-14.05,9.91-.87,1.39-1.21,1.4-2.33-.03-3.15-4.02-7.24-6.75-11.92-8.66-.6-.25-1.22-.46-1.89-.33-.5,.09-.98,.28-1.06,.84-.08,.54,.37,.75,.76,.92,1.28,.57,2.59,1.07,3.84,1.73,.91,.48,1.81,.97,2.65,1.56,.46,.32,1.07,.63,.72,1.4-2.07,.3-2.79,1.82-3.22,3.6-2.88,.44-5.76,.82-8.68,.56-1.26-.11-2.16-.94-2.91-1.9-3.01-3.87-3.78-8.15-2.29-12.83,.1-.31,.19-.63,.35-.91,.84-1.48,1.13-2.98,.19-4.54,.23-.21,.46-.41,.69-.62,.79-.78,1.71-.41,2.59-.27,.66,.11,1.35,.3,1.55-.62,.2-.95-.44-1.23-1.19-1.38-1.32-.27-2.67-.37-4-.61-5.42-.99-10.11-3.43-13.92-7.38-2.93-3.04-4-6.95-4.63-11.01-.29-1.92-.24-3.87-.53-5.79,0-.4,0-.79,0-1.19,.19-.57,.56-1,1.1-1.28,1.47-.3,2.96-.49,4.39-1.03,1.66-.63,2.77-1.77,3.55-3.33,1.47-2.95,2.45-5.97,1.55-9.31,.13-.38,.46-.57,.74-.83,1.17-1.06,1.16-1.61-.15-2.43-.55-.35-.72-.74-.65-1.33,.09-.75,.15-1.5,.36-2.23,.32-1.1,.26-2.11-.5-3.02,.12-.32,.23-.64,.35-.97,.75-.64,1.3-1.41,1.68-2.33,.52-1.26,1.23-2.4,2.26-3.32,1.66-1.49,3.47-1.61,5.32-.39,1.15,.76,1.99,1.81,2.87,2.83,1.53,1.75,3.02,3.53,4.43,5.38,.59,.77,.69,1.44-.31,1.98-.62,.33-1.03,.87-.74,1.6,.31,.78,1.02,.45,1.56,.36,4.2-.69,8.38-.63,12.55,.17,.48,.09,.97,.18,1.44,.01,.76-.26,1.35-.7,.65-1.52-.72-.86-.45-1.57,.12-2.32,.49-.65,.97-1.3,1.44-1.96,.54-.75,.78-1.53,.48-2.43Z"/>
  <path class="cls-3" d="M21.4,65.37c1.39,.87,1.59,1.81,.81,3.39-2.54,5.16-2.24,10.17,1.46,14.77,.84,1.04,1.82,1.74,3.29,1.63,2.58-.19,5.18-.27,7.77-.39,1.32-.7,2.75-.24,4.12-.37,.69-.06,1.39,.09,2.2-.12-.81-1.29-2.35-1.76-3.05-3.04-1.9-1.88-4.35-2.8-6.72-3.87-.84-.38-2.3-.27-1.92-1.8,.29-1.18,1.54-1.48,3.17-.87,5.05,1.89,9.42,4.74,12.73,9.08,.22,.29,.61,.45,.96,.7,1.75-3.09,4.37-5.71,7.53-7.77,2.39-1.56,5.03-2.57,7.79-3.2,.84-.19,2.06-.37,2.38,.69,.37,1.24-.54,1.94-1.71,2.28-2.33,.68-4.72,1.25-6.69,2.8-.78,1.15-2.1,1.65-3.05,2.59-.72,.71-1.51,1.36-2.13,2.35,.89,.29,1.69,.19,2.45,.14,2.09-.14,4.16,.29,6.24,.19,6.98-.02,13.95-.1,20.92-.05,4.48,.03,8.94-.56,13.66-.32-1.46-2.83-2.07-5.66-2.15-8.6-.09-2.96,.31-5.86,1.24-8.66,.26-.77,.88-1.81,1.82-1.5,1.01,.34,1.08,1.42,.82,2.46-1.31,5.21-1.43,10.34,1.1,15.27,2.14,4.17,5.08,7.64,9.08,10.14,.84,.16,1.66,.37,2.43,.75,2.9,1.43,5.96,1.56,9.1,1.21,.95-.11,2.07-.46,2.46,.96,.47,1.05,.55,1.65-.96,1.98-6.83,1.49-12.75-.09-17.92-4.77-1.76-1.6-3.42-3.25-4.68-5.28-.35-.56-.81-.76-1.48-.74-8.71,.18-17.41-.14-26.13,.25-7.02,.31-14.07-.04-21.1,.13-6.54,.15-13.09,.15-19.63,.38-2.89,.1-4.65-1.2-6.27-3.1-4.39-5.12-4.88-10.78-2.18-16.83,.3-.68,.65-1.34,.88-2.04,.23-.69,.65-.94,1.34-.83Z"/>
  <path class="cls-2" d="M128.62,37.71c-5,.74-9.97,.52-14.81-.88-4.89-1.42-9.2-4.03-13.23-7.12-1.7-1.31-3.05-2.82-3.92-4.81-.22-.49-.51-1.09-1.16-1.27,.29-.73,.96-.63,1.52-.61,9.07,.18,17.69,1.84,25.06,7.63,.59,.47,1.18,.94,1.72,1.47,1.74,1.71,3.26,3.72,5.8,4.37-.01,.08-.01,.15,0,.23-.09,.56-.58,.73-.97,.99Z"/>
  <path class="cls-3" d="M128.62,37.71c-.06-.71,.63-.67,.97-.99,1.36-.17,2.2,.58,2.89,1.61,3.18,4.78,5.13,9.96,5.58,15.73,.14,1.82,.17,3.62,.19,5.43,.01,1.38,1,2.73,1.37,4.14,1.47,5.68,.62,11.23-1.43,16.59-2.36,6.15-6.25,11.12-12.1,14.38-.37,.21-.75,.45-1.03,.76-1.1,1.23-2.32,1.49-3.89,.79-.97-1.83-.39-2.86,1.94-3.47,4.35-1.77,7.44-4.98,9.88-8.84,3.4-5.36,4.81-11.27,4.36-17.58-.13-1.85-.75-3.62-1.54-5.32-.43-.92-.72-1.92-.68-2.93,.3-7.56-2.01-14.27-6.5-20.3Z"/>
  <path class="cls-3" d="M129.59,36.49c-1.67,.26-2.8-.58-3.86-1.76-5.71-6.31-12.92-9.68-21.32-10.64-2.96-.34-5.91-.94-8.92-.45-6.07,.24-11.62,2.21-16.93,5.02-.88,.46-1.72,.43-2.59,0,.03-1.13,.7-1.9,1.59-2.38,4.83-2.61,9.87-4.53,15.4-5.13,8.01-.87,15.77-.04,23.23,3,5.41,2.2,9.81,5.84,13.49,10.34,.48,.59,1.01,1.39-.1,2Z"/>
  <path class="cls-3" d="M76.01,28.64c1.6,3.98,2.23,8.13,1.92,12.39-.42,5.81-2.33,11.03-6.42,15.33-2.94,3.1-6.22,5.69-10.32,7.11-3.01,1.04-6.15,1.25-9.27,1.54-.78,.07-1.62-.06-2.04-.7-.35-.53-.57-1.37-.41-1.95,.19-.66,1.03-.28,1.58-.28,11.89,.05,21.05-6.95,23.51-18.38,1.04-4.86,.83-9.79-1.32-14.47-.3-.65-.92-1.42-.14-2.21,1.36-.19,2.14,.68,2.9,1.59Z"/>
  <path class="cls-3" d="M46.44,8.79c.94,.24,1,.87,.57,1.55-.75,1.17-1.56,2.3-2.41,3.4-.37,.49-.7,.83,0,1.29,.49,.32,1.1,.67,.8,1.4-.26,.64-.89,.96-1.5,1.11-.5,.13-1.09,.11-1.6-.02-4.35-1.08-8.72-.83-13.08-.15-.68,.11-1.39,.48-1.55-.41-.14-.76-.48-1.77,.57-2.31,.38-.19,.8-.29,1.32-.47-1.3-2.1-3-3.86-4.51-5.77-.53-.68-1.15-1.29-1.7-1.95-2.67-3.21-6.06-2.86-7.97,.83-.41,.8-.78,1.63-1.13,2.46-.3,.72-.69,1.23-1.57,1-1.14-1.08-1.17-2.24-.45-3.62,.79-1.51,1.42-3.15,2.78-4.24,2.88-2.31,6.47-2.19,9.12,.43,2.85,2.83,5.4,5.94,7.62,9.3,.55,.83,1.08,1.13,2.05,1.13,1.98,.01,3.97-.26,5.94,.27,.87,.23,1.55-.05,2.09-.99,.79-1.37,1.89-2.57,2.81-3.87,.51-.73,1.08-.77,1.78-.37Z"/>
  <path class="cls-3" d="M55.18,3.02c-2.83-.06-4.28,1.96-5.77,3.87-.53,.68-1.01,1.23-1.95,.95-.64-1.27-.55-2.48,.43-3.53,.84-.89,1.53-1.88,2.53-2.67,3.35-2.67,8.14-2.23,10.67,2.31,2.42,4.34,4.11,8.95,5.43,13.7,.22,.78,.52,1.2,1.15,1.56,1.6,.91,2.92,2.17,4.18,3.49,.96,1,1.23,2.08,.56,3.33-1.07,.17-1.86-.31-2.54-1.06-2.06-2.29-4.35-4.24-7.37-5.24-.53-.17-1.49-.46-1.41-1.34,.09-.93,.95-1.1,1.69-1.1,.92,0,.52-.54,.51-.95-1.03-.98-1.25-2.36-1.73-3.59-.65-1.65-1.32-3.29-2.08-4.89-.98-2.04-2.24-3.79-4.3-4.85Z"/>
  <path class="cls-3" d="M1.96,37.68c1.04,.15,.65,.97,.65,1.53,.02,3.22,.55,6.33,1.57,9.39,1.84,5.51,6.08,8.53,10.99,10.97,3.27,1.63,6.81,1.92,10.31,2.52,1.06,.18,1.58,.5,1.36,1.8-.23,1.38-.83,1.53-1.91,1.12-.93-.35-1.87-.39-2.84-.27-.93-.67-2.06-.36-3.09-.68-6.66-2.08-12.54-5.29-16.05-11.62C.67,48.35-.13,43.79,.02,39.09c.04-1.29,1.01-1.33,1.94-1.4Z"/>
  <path class="cls-3" d="M12.35,11.71c1.14,.3,1.56,.92,1.1,2.12-.28,.73-.35,1.55-.43,2.33-.09,.84-.78,1.97,1.09,1.87,.79-.04,.73,2.18-.14,2.81-.38,.28-.83,.47-1.24,.69-.17,.35-.44,.61-.75,.83-4.08,2.9-6.47,7-8.24,11.55-.21,.55-.36,1.13-.77,1.59-.31,.36-.41,.93-1.01,.99-1.89-1.66-2-2.02-1.16-4.22,1.17-3.09,2.75-5.99,4.64-8.67,.96-1.37,2.44-2.4,3.78-3.47,.61-.49,.96-.94,.87-1.72-.22-1.84,.53-3.56,.69-5.37,.07-.81,.78-1.2,1.57-1.34Z"/>
  <path class="cls-5" d="M123.1,92.68c-1.22,.84-2.68,1.54-1.94,3.47-.54,.03-1.08,.05-1.62,.08-.5-.58-1.15-.79-1.89-.64-4.36,.91-8.37,.07-12.11-2.28,3.63-1.02,7.33-1.6,11.09-1.64,2.2-.03,4.35,.44,6.47,1.01Z"/>
  <path class="cls-1" d="M76.52,69.62c-1.89-.04-2.82-1.18-3.38-2.33-.77-1.57-2.03-3.15-1.45-5.09,.95-3.17,2.2-6.2,5.41-7.8,1.98-.98,4.22-.98,6.29-.95,2.51,.04,3.84,2.48,2.86,5.25-1.56,4.39-3.98,8.22-8.35,10.43-.53,.27-1.07,.53-1.38,.48Z"/>
  <path class="cls-3" d="M96.81,64.71c-.4,.33-.57,1.29-1.3,.76-.75-.55-1.64-1.37-1.06-2.4,2.43-4.4,5.82-7.74,10.83-9.07,2.48-.66,4.87-.52,6.9,1.27,2.51,2.21,2.42,5.16,1.98,8.03-.5,3.33-2.15,6.2-4.39,8.7-1.67,1.85-2.16,3.75-.65,5.91,.53,.76,.31,1.51,.02,2.28-.42,1.12-1.12,1.01-1.64,.23-1.99-2.93-3.13-6.1-.44-9.6-.25-.85,.43-1.28,.84-1.8,1.54-1.97,2.91-4.02,3.24-6.59,.03-.21,.09-.42,.11-.64,.4-3.55-1.64-5.3-5.1-4.44-3.52,.88-5.79,3.39-8.03,5.97-.42,.48-.66,1.13-1.31,1.39Z"/>
  <path class="cls-2" d="M96.81,64.71c2.27-3.72,5.11-6.76,9.55-7.81,3.78-.89,6.05,1.54,5.29,5.4-.56,2.85-1.97,5.18-3.75,7.36-.3,.37-.57,.77-.85,1.15-4.12,.08-7.46-1.26-9.45-5.12-.19-.37-.33-.81-.79-.99Z"/>
  <path class="cls-3" d="M118.67,87.8c-3.95-.05-6.97-1.88-9.38-4.89-.41-.51-.89-1.17-.22-1.7,.65-.51,1.49-.5,2.21,.09,1.16,.94,2.32,1.87,3.65,2.59,4.31,2.35,8.91,.23,11.4-3.96,1.14-1.92,2.47-3.74,3.4-5.79,1.1-2.44,1.94-4.95,2.11-7.64,.03-.52,.02-1.04-.18-1.58-.25-.68-.48-1.6,.62-1.79,.81-.14,1.65-.28,1.92,1.05,.47,2.28,.23,4.44-.38,6.63-1.42,5.16-3.83,9.81-7.43,13.77-2.19,2.42-4.4,3.2-7.73,3.23Z"/>
  <path class="cls-1" d="M2.97,35.51c.62-3.41,2.36-6.3,4.31-9.07,1.43-2.04,3.16-3.79,5.44-4.9,.89,1.43,.77,3.05,.51,4.55-.36,2.05-1.25,3.98-2.29,5.78-1.78,3.05-4.87,3.4-7.97,3.65Z"/>
  <path class="cls-3" d="M52.14,13.4c-.91,1.11-1.38,2.27-2.33,3.08-.57,.48-1.16,1.25-1.92,.59-.67-.59-1.18-1.57-.62-2.44,1.64-2.56,3.49-4.99,5.54-7.24,.77-.85,2.14-.2,2.41,1,.5,2.16,1.79,4.06,2.05,6.33,.16,1.41-.61,3.16-1.98,3.47-.93,.21-1.93,.15-2.89,.12-.46-.01-.76-.39-.76-.89,0-.65-.59-1.61,.15-1.89,1.45-.56,.59-1.27,.34-2.12Z"/>
  <path class="cls-3" d="M19.01,12.88c-.67,1.25-.88,2.69-1.67,3.9-.27,.41-.44,.88-1.05,.82-.62-.06-.77-.64-.88-1.03-.16-.6-.28-1.35-.08-1.9,.77-2.04,1.58-4.07,2.56-6.01,.86-1.71,2.87-1.83,3.85-.21,1.21,2,2.23,4.12,3.23,6.23,.41,.86-.53,2.12-1.54,2.3-.57,.1-1.19,.13-1.7,.37-.78,.36-1.45,.46-1.99-.3-.54-.77-.91-1.63-.32-2.53,.5-.76,.4-1.27-.41-1.62Z"/>
  <path class="cls-3" d="M22.76,37.09c2.03-.02,3.85,1.38,3.78,3.15-.11,2.53-1.59,4.7-3.68,4.65-1.98-.04-3.66-2.02-3.68-4.45-.02-2.14,1.25-3.33,3.59-3.35Z"/>
  <path class="cls-3" d="M53.26,36.12c2.17,0,3.55,1.16,3.58,3.01,.03,2.12-1.71,4.43-3.37,4.46-1.89,.03-3.78-2.06-3.76-4.27,.01-2.22,1.57-3.23,3.55-3.2Z"/>
  <path class="cls-5" d="M55.18,3.02c1.66-.06,2.51,1.13,3.28,2.28,2.29,3.38,3.5,7.25,4.84,11.05-1.56-.96-3.02-2.02-4.04-3.61-1.93-3.01-3.43-6.18-4.08-9.72Z"/>
  <path class="cls-2" d="M59.05,84.57c-3.1,.55-6.22,.11-9.68,.32,1.67-2.58,3.62-4.4,6.16-5.59,2.11,.57,2.76,2.04,2.27,4.02-.32,1.29,.47,1.2,1.25,1.26Z"/>
  <path class="cls-3" d="M40.93,41.83c-.58,1.86-1.87,3.42-3.31,4.85-.46,.45-.86-.16-1-.46-.62-1.3-1.64-2.33-2.24-3.65-.43-.96-.17-1.44,.62-1.79,1.59-.7,3.29-.46,4.94-.37,.58,.03,1,.58,.98,1.43Z"/>
  <path class="cls-3" d="M68.96,36.77c.05,0,.11,0,.16,0,.78,.02,1.79-.17,1.95,.88,.16,1.06-.78,1.8-1.58,1.96-1.83,.38-3.62,.76-5.29,1.6-.71,.36-1.21-.17-1.37-.71-.25-.88-.26-1.84,.78-2.32,1.7-.79,3.45-1.41,5.36-1.41Z"/>
  <path class="cls-3" d="M132.84,48.38c-.08,.47,.15,1.03-.54,1.05-.79,.02-1.66,.15-2.05-.79-.2-.48-.28-1.01-.39-1.53-.35-1.63-1.03-3.14-2.42-4.19-.79-.6-.3-1.2,.1-1.61,.4-.41,.92-.89,1.63-.26,2.24,1.98,3.18,4.57,3.67,7.32Z"/>
  <path class="cls-3" d="M67.12,46.2c-.53,.02-1.36,0-2.2,.27-.83,.27-1.64-.02-1.87-1-.21-.89,.1-1.65,1.04-1.87,1.81-.41,3.64-.89,5.51-.55,.7,.13,1.83,.25,1.73,1.3-.1,1-.95,1.65-1.96,1.83-.62,.12-1.29,.02-2.25,.02Z"/>
  <path class="cls-3" d="M6.52,39.55c-.19-1.11,.38-1.68,1.44-1.45,1.69,.37,3.4,.81,4.91,1.69,.59,.35,1.39,.68,.84,1.72-.51,.96-1.19,1.42-2.19,.95-1.26-.59-2.49-1.12-3.92-1.2-.88-.05-1.18-.81-1.08-1.71Z"/>
  <path class="cls-2" d="M38,81.25c1.62,.76,2.85,1.98,4.24,3.53-2.67,0-5.09,0-7.51,0,.02-2.93,.36-3.3,3.27-3.53Z"/>
  <path class="cls-3" d="M66.27,27.12c-.4-.01-.83-.08-1.22-.47-.75-.76-1.47-1.55-2.35-2.18-.66-.48-.51-1.21-.01-1.81,.46-.55,.89-.99,1.72-.47,1.3,.82,2.26,1.95,3.12,3.16,.25,.35,.62,.84,.21,1.31-.34,.39-.79,.7-1.46,.46Z"/>
  <path class="cls-3" d="M13.32,45.84c-.35,.74-.86,1.57-1.86,1.6-.83,.02-1.66,.15-2.34,.45-1.31,.57-1.65-.12-1.9-1.11-.25-1.02,.15-1.6,1.18-1.9,1.21-.35,2.44-.35,3.66-.29,.65,.03,1.29,.24,1.27,1.26Z"/>
  <path class="cls-3" d="M129.25,47.06c.02,.61-.17,1.06-.88,1.06-.93,0-2.5-1.9-2.39-2.94,.07-.72,.49-1.2,1.22-1.24,.76-.05,2.08,2.02,2.05,3.12Z"/>
  <path class="cls-3" d="M107.17,58.71c.55,0,1.2,.13,1.22,.74,.03,.78-.17,1.7-1.05,1.97-2,.61-3.7,1.64-5.18,3.11-.44,.43-1.16,1.17-1.84,.09-.54-.87-.97-1.56,.19-2.45,1.63-1.24,3.18-2.56,5.21-3.1,.47-.12,.93-.24,1.44-.36Z"/>
</svg>