<?xml version="1.0" encoding="UTF-8"?>
<svg id="Layer_1" data-name="Layer 1" xmlns="http://www.w3.org/2000/svg" viewBox="0 0 535.66 149">
  <defs>
    <style>
      .cls-1 {
        fill: #b5ce80;
      }

      .cls-2 {
        fill: #d9c3bd;
      }

      .cls-3 {
        fill: #fde6e6;
      }

      .cls-4 {
        fill: #a1ad72;
      }

      .cls-5 {
        fill: #9fb371;
      }

      .cls-6 {
        fill: #b5ce7f;
      }

      .cls-7 {
        fill: #ae987f;
      }

      .cls-8 {
        fill: #a1ad73;
      }

      .cls-9 {
        fill: #9eb370;
      }

      .cls-10 {
        fill: #9eb470;
      }

      .cls-11 {
        fill: #784f48;
      }

      .cls-12 {
        fill: #a6bc78;
      }

      .cls-13 {
        fill: #9fb571;
      }

      .cls-14 {
        fill: #f2b7b9;
      }

      .cls-15 {
        fill: #a0b271;
      }

      .cls-16 {
        fill: #9fb171;
      }

      .cls-17 {
        fill: #ba9288;
      }

      .cls-18 {
        fill: #b6d080;
      }

      .cls-19 {
        fill: #91a568;
      }

      .cls-20 {
        fill: #b1ca7d;
      }

      .cls-21 {
        fill: #b3cc7e;
      }

      .cls-22 {
        fill: #b29781;
      }

      .cls-23 {
        fill: #9fb570;
      }

      .cls-24 {
        fill: #fcfcfc;
      }
    </style>
  </defs>
  <path class="cls-17" d="M297.22,136.25h-3.29c-1.28-.86-2.72-.82-4.18-.82-52.39,0-104.78,0-157.17,0-1.15,0-2.37,.27-3.4-.54-1.02,.16-2.12-.37-3.07,.35-.36,.19-.75,.2-1.14,.2-9.21-.04-18.41,0-27.62-.02-.45,0-.89-.03-1.33-.11-.88-.29-1.76-.35-2.65-.03-.89,.16-1.78,.13-2.67,.13-22.84,0-45.68,0-68.53,0-1.09,0-2.57,.44-3.15-.55-.6-1.01,.76-1.82,1.31-2.66,2.24-3.4,2.88-7.22,2.96-11.18,.02-1.03-.46-1.95-.85-2.87-.2-.6-.08-1.16,.23-1.7,1.57-1.48,1.45-3.45,1.19-5.27-.22-1.6-.02-2.82,.89-4.19,1.6-2.41,2.94-5.01,2.6-8.09-.1-.86,.38-1.21,1.13-1.34,.88-.15,1.72-.41,2.51-.86,1.84-1.04,1.96-1.31,1.33-3.3-.08-.84,.25-1.52,.79-2.13,2.51,.26,3.62-1.88,5.16-3.17,2.23-1.86,4.09-4.1,5.82-6.46,1.39-1.89,1.87-4.17,2.94-6.19,.45-.84-.56-1.53-.58-2.37,.04-.45,.21-.84,.61-1.1,5.67,.01,10.08-2.97,14.36-6.16,2.46-1.83,4.96-3.64,7.07-5.91,1.5-1.62,2.82-3.35,3.42-5.49,.35-1.25,1.06-1.48,2.25-1.34,3.71,.43,7.2-.59,10.61-1.89,1.12-.43,1.93-1.34,2.67-2.25,.95-1.17,2.09-1.51,3.56-1.27,3.16,.52,6.4,.76,9.43-.35,2.08-.76,3.97-.83,6.13-.56,4.21,.53,8.04-.85,11.54-3.2,.56-.37,1.07-.85,1.71-1.05,1.25-.4,2.13-1.18,2.72-2.33,.54-1.05,1.32-1.26,2.36-.73,3.68,1.88,7.45,1.7,11.22,.37,.9-.32,1.67-.32,2.57,.06,1.8,.75,3.65,1.4,5.5,2.03,1.02,.35,1.81,.84,1.87,2.06,.06,1.19-.35,1.97-1.46,2.55-2.8,1.48-3.11,2.86-1.35,5.5,.59,.88,1.15,1.79,2.07,2.4,.38,.36,.66,.8,.95,1.23,1.76,2.83,4.23,3.09,6.37,.55,.91-1.09,1.8-1.7,3.3-1.82,1.81-.15,3.4-1.09,4.32-2.82,.58-1.08,1.44-1.68,2.68-1.71,.33,0,.73,0,.97-.2,1.72-1.35,3.73-1.09,5.71-1.21,2.72-.15,5.15-1.4,7.59-2.51,.66-.3,1.32-.58,2.02-.8,1.19-.37,2.14-.12,3.06,.74,3.49,3.26,7.57,5.27,12.35,5.83,2.85,.33,5.42-.41,7.84-1.81,.78-.45,1.21-1.14,1.1-2.09,.25-.49,.65-.5,1.11-.34,.74,1.37,1.84,2.04,3.42,1.7,2.25-.48,4.58-.13,6.83-.64,.49-.11,1.11-.05,1.44-.39,1.99-2.13,4.1-.81,5.99-.05,2.98,1.2,5.55,.49,8.13-.98,1.24-.71,1.03-1.67,.62-2.72,.9-.88,1.72-.5,2.54,.14,.44,1.53,1.56,2.15,3.04,2.47,6.51,1.44,12.97,.94,19.42-.35,1.07-.21,1.68-1.04,2.42-1.71,.41-.22,.71,0,.99,.27,1.5,2.44,2.82,2.86,5.42,1.57,.93-.46,1.79-.52,2.73-.16,5.42,2.05,10.74,1.89,16.09-.46,2.06-.91,4.31-1.35,6.4,.46,1.11,.96,2.69,1.06,4.13,1.17,3.36,.27,6.68-.03,9.9-1.1,.53-.18,1.05-.39,1.61-.46,2.37-.29,4.36-1.29,5.89-3.15,.77-.32,1.47-.26,2.09,.33,1.35,4.23,5.04,4.64,8.58,5.07,4.12,.5,7.91-1.11,11.73-2.33,2.39-.76,4.77-1.59,6.48-3.63,.64-.76,1.06-.03,1.42,.45,1.79,2.41,3.93,4.38,6.75,5.58,3.45,1.47,6.95,1.52,10.45,.5,2.02-.58,4.09-1.14,5.85-2.41,.85-.2,1.64,.04,2.42,.35,1.61,1.79,3.72,1.18,5.66,1.04,1.44-.1,2.9-.15,4.33-.43,.62-.12,1.24-.01,1.8,.27,3.35,1.66,6.81,1.43,10.31,.6,2.13-.51,4.22-1.11,6.12-2.22,1.36-.79,1.42-1.35,.5-2.64,.45-1.21,1.5-.77,2.36-.84,1.52,1.75,3.27,1.5,5.14,.65,1.87-.85,3.87-1.41,5.66-2.46,.61-.36,1.28-.33,1.95-.24,2.81,.39,5.31-.32,7.46-2.17,.77-.66,1.54-.77,2.47-.43,1.98,.73,4.04,.67,6.11,.65,.98,0,1.63-.65,2.41-1.05,.66-.14,1.05,.15,1.27,.75-.08,1.55,.67,2.58,1.9,3.48,5.66,4.11,11.83,7.07,18.89,7.38,3.38,.15,6.92,.13,10.13-1.49,.55-.03,.77,.36,1,.75,2.1,3.7,5.54,5.23,9.55,5.58,2.66,.23,5.37,.18,7.93-.82,.88-.34,1.64-.12,2.32,.49,3.62,3.24,7.74,4.26,12.41,2.75,.81-.26,1.32-.02,1.46,.83,.48,2.97,2.07,5.27,4.33,7.14,.92,.76,.93,1.48,.37,2.47-1.64,2.92-3.21,5.87-3.77,9.25-.37,2.21-.11,4.11,1.71,5.59,.82,.66,.88,1.26,.1,2.07-1.72,1.78-2.96,3.92-3.98,6.16-1.53,3.37-.79,5.55,2.39,7.44,.29,.17,.58,.33,.81,.59,.22,.36,.06,.65-.14,.95-2.95,2.78-3.49,5.68-1.75,9.54,1.36,3,3.02,5.84,4.93,8.53,1.07,1.5,2.2,2.95,2.96,4.65,.16,.36,.38,.69,.73,.89,.35,.2,.75,.36,1.09,.08,.31-.26,.03-.61-.01-.93-.1-.77-.98-1.45-.24-2.31,.54-.24,1.08-.23,1.63-.04,.84,.4,.96,1.16,1,1.96,.05,1.22,.08,2.45,0,3.67-.1,1.72,.14,3.32,1.22,4.72-.61,1.49-.71,3.1-1.88,4.5-1.29,1.53-2.75,1.82-4.47,1.9-.65-.6-1.41-.87-2.29-.83-.5,.02-1.01,0-1.51,0-66.12,0-132.25,0-198.37,0-1.46,0-2.91-.05-4.19,.83Z"/>
  <path class="cls-13" d="M272.78,20.13c.36-.45,.9-.16,1.33-.33,.62-.32,1.27-.11,1.91-.14,.78,.35,1.07,.98,1.01,1.81-.44,1.13-1.6,1.51-2.37,2.3-.74,.75-1.57,1.41-2.18,2.45,.74,.26,1.18-.15,1.59-.44,3.14-2.25,6.77-2.16,10.31-1.88,2.07,.16,4.16,.75,6.24,1.2,2.24,.48,4.03,1.89,6.11,2.68,1.5,.57,2.88,.84,4.15-.51,.59-.62,.97-1.21,.64-2.08-.44-1.14,.03-1.85,1.12-2.18,1.41-.42,2.88-.32,4.32-.43,.39-.03,.87,.17,.99,.53,.42,1.23,1.15,.88,1.95,.5,2.4-1.12,4.84-.2,7.27-.1,2.13,.6,3.94,1.85,5.79,2.98,.82,.5,1.54,.82,2.47,.57,.49,.16,.81-.1,1.18-.39,2.28-1.8,4.45-3.71,6.42-5.84,1.22-1.32,2.74-2.04,4.47-2.44,2.6-.59,5.18-1.29,7.87-1.38,.35,.15,.52,.46,.54,.79,.09,1.84,1.15,2.66,2.87,2.83,.52,1.17-.61,1.62-1.05,2.36-.37,.64-1.12,1.08-.93,2.2,1.95-1.2,3.4-3.12,5.83-3.06,.39,.03,.78,.12,1.09,.33,1.71,1.12,3.33,1.54,4.84-.38,.3-.39,.89-.68,1.48-.26,.12,1.61-1.19,2.57-1.86,4.03,.74-.02,1.19-.43,1.61-.77,1.23-1.01,2.64-1.26,4.19-1.38,4.4-.35,8.42,.46,11.96,3.22,.92,.72,1.78,.35,2.59-.29,.62-.48,1.21-.88,1.67,.22,.35,.82,.93,.46,1.33,.06,1.9-1.91,4.18-2.22,6.78-2.03,1.68,.12,3.46-.02,5.1-.66,1.55-.12,2.42,1.46,3.88,1.55,.29,.02,.56-.05,.78-.24,3.28-2.8,7.23-2.61,11.13-2.37,1.53,.09,3.07,.33,4.56,.94,1.38,.57,2.72-.2,4.02-.69,1.19-.45,2.29-1.17,3.61-1.26,1.02,.1,1.42,.91,1.93,1.64,1,1.44,1.84,3.07,3.86,3.33,.36,.3,.5,.66,.31,1.12-1.26,1.45-.15,2.65,.41,3.91,.27,.62,1.23,1.17,.27,1.97-.96,.21-1.91,0-2.83-.13-2-.28-3.89,.04-5.74,.79-1.1,.45-2.25,.72-3.44,.6-3.39-.35-6.8-.35-10.18-.76-2.89-.35-5.67,.2-8.45,.8-.56,.12-1,.46-1.42,.84-3.23,2.94-6.91,4.53-11.34,3.48-3.01-.71-5.88,.3-8.81,.52-2.08,.16-4.06,.04-6.13-.41-3.28-.72-6.64-.9-9.88,.42-.62,.25-1.27,.45-1.86,.75-1.97,1.01-3.92,.83-5.78-.22-5.05-2.84-10.26-2.54-15.56-.93-1.08,.33-2.17,.56-3.3,.54-1.29-.02-2.57,.1-3.82,.42-2.2,.56-4.22,.04-6.1-1.08-.98-.58-1.99-1-3.1-1.23-3.78-.78-7.56-1.52-11.45-.82-1.23,.22-2.37,.61-3.48,1.14-2.47,1.16-4.85,1.56-7.53,.26-3.27-1.59-6.89-1.02-10.4-.93-3.54,.09-6.96,.82-10.38,1.63-.71,.17-1.41,.36-2.07,.65-1.32,.58-2.7,.74-4.1,.59-1.28-.14-2.55-.31-3.84-.32-.88,0-1.6-.43-2.3-.9-2.93-1.99-6.15-2.02-9.29-.91-3.73,1.32-7.45,1.92-11.34,1.13-1.56-.32-3.1-.32-4.66,0-3.91,.79-7.87,.39-11.81,.42-3.75,.03-7.47-.24-11.19-.65-1.47-.16-2.92,.25-4.22,.9-1.99,.99-4.09,1.5-6.26,1.76-3.37,.4-6.72,1.15-10.15,.65-.72-.1-1.44-.11-2.13-.38-4.38-1.71-8.92-2.44-13.61-2.31-.67,.02-1.39-.05-1.97,.31-3.43,2.13-7.12,1.86-10.86,1.27-.52-.12-.91-.43-1.18-.86-1.59-2.53-3.8-2.81-6.38-1.81-.16,.06-.32,.09-.49,.12-.7,0-1.39-.05-2.02-.39-.89-1.02-2.2-.5-3.26-.89-1.59-.92-3.16-1.87-4.99-2.32-1.02-.25-1.92-.85-2.82-1.43-2.35-1.52-4.94-2.52-7.67-3.15-.88-.2-1.78-.4-2.55-.81-3.43-1.85-6.95-.95-10.04,.34-3.5,1.45-7,3.2-9.93,5.79-3.34,2.95-7.34,4.06-11.69,4.11-4.99,.06-9.91,.45-14.66,2.15-1.3,.47-2.6,.9-3.96-.15-.78-.6-1.82-.31-2.39,.5-2.83,3.98-6.69,3.65-10.7,2.6-.95-.25-1.54,0-2.41,.46-3.03,1.6-4.54,4.56-6.67,6.95-1.55,1.73-3.24,3.22-5.32,4.25-4.95,2.45-9.68,5.34-14.82,7.41-1.5,.61-2.71,1.77-4.24,2.36-.54,.21-.7,.65-.62,1.23,.22,1.72,1.38,2.74,3.15,2.73,1.44,0,1.62,.35,1.2,1.72-1.18,3.85-4.3,6-7.21,8.32-.46,.37-1.18,.82-1.72-.06-.23-.64-.23-1.32-.17-1.98,.12-1.38-.4-2.36-1.65-2.96-.27-.58-.21-1.04,.47-1.27,1.2,.15,1.98-.45,2.63-1.39,1.46-2.08,1.72-4.81,.58-6.61-1.13-1.78-2.23-2.25-4.37-1.89-.44,.08-.86,.06-1.26-.14-1.59-.98-3.17-.89-4.97,.78-1.35,1.26-2.73,1.82-4.55,1.98-2.84,.24-4.29,1.93-4.37,4.97-.05,1.82-.62,3.32-1.58,4.81-1.66,2.58-1.9,5.26-.32,8.05,1.31,2.3,3.55,3.26,6.07,2.42,.26-.09,.55-.15,.78-.3,2.39-1.57,4.92-2.38,7.84-1.92,1.36,.21,2.27-1.07,3.48-1.47,1.1-.01,1.45,.54,.62,1.26-1.36,1.18-2.42,2.62-3.67,3.89-.93,.94-2.07,.96-3.26,.96-3.06,.02-3.4,.26-3.66,3.24-.32,3.56-1.46,6.72-3.86,9.41-1.17,1.31-1.39,2.83-1.4,4.63-.02,3.15,.22,6.22,.94,9.28,.12,.5,.06,1.01-.16,1.48-.98,2.15-1.38,4.48-2.07,6.71-.6,1.95-1.77,3.59-2.72,5.35-.24,.44-.59,.83-1.18,.81-1.95-2.55-2.98-5.55-4.14-8.48-.94-2.37-1.31-4.83-.89-7.36,.2-1.18-.2-1.95-1.38-2.25-.42-.62,.27-1.1,.2-1.67,.31-.43,.71-.2,1.06-.1,1.07,.33,1.68-.36,2.26-1.03,.57-.66,.26-1.36-.08-2.02-.26-.49-.64-.91-.8-1.46-1.06-4.96-1.05-9.81,1.17-14.52,1.17-2.49,1.86-5.13,1.79-7.93-.03-1.18-.3-2.2-1.38-2.87-.54-.33-.92-.83-1.19-1.38-1.61-3.34-2.68-6.69-.86-10.37,.92-1.85,1.8-3.71,2.9-5.46,1.24-1.99,1.14-2.89-.54-4.53-.95-.94-.81-1.74,.03-2.58,.43-.43,.94-.79,1.37-1.23,2.02-2.14,3.06-4.55,2.56-7.61-.52-3.24-.77-6.52-1.72-9.71-.48-1.61-.23-3.34,.26-4.96,.59-1.96,2.48-2.72,4.25-1.66,1.58,.95,3.09,2,4.74,2.82,1.2,.6,2.05,.51,2.99-.71,1.21-1.58,2.81-2.84,4.6-3.81,.59-.07,.88,.36,1.24,.7,1.39,1.31,2.38,1.43,3.77,.22,.91-.79,1.69-.99,2.83-.49,1.64,.72,2.83-.42,4.03-1.3,.79-.58,1.18-1.64,2.24-1.92,.79,0,1.41,.42,1.89,.95,.86,.93,1.69,.85,2.66,.23,5.99-3.84,12.75-4.69,19.64-5.04,1.35,.05,2.56,.62,3.43,1.53,1.11,1.15,2.29,1.76,3.87,1.6,.42,.78,.91,1.02,1.72,.43,2.45-1.8,5.36-2.39,8.24-3.06,.22-.05-.05-.04,.16-.03,2.64,.24,5.4,.42,7.69,1.63,1.97,1.04,3.45,1.26,5.14-.11,.54-.1,1.03,.02,1.44,.39,.13,.58-.34,.77-.68,1.02-.5,.36-1.05,.64-1.5,1.06-.58,.56-1.65,1.22-1.04,2,.71,.92,1.25-.38,1.85-.69,.44-.23,.85-.6,1.34-.67,3.09-.45,6.14-.52,9.08,.81,1.37,.62,2.62,1.46,3.95,2.15,1.18,.61,2.17,.54,3.19-.4,.81-.75,1.67-1.49,2.77-1.83,1.39-.19,2.42-.93,3.22-2.04,.38-.53,.83-1.01,1.37-1.4,1.47-1.16,3.21-1.82,4.94-2.44,5.82-2.11,11.77-2.96,17.92-1.66,1.1,.23,2.11,.73,3.17,1.07,1.1,.53,1.54,1.32,1.21,2.57-.59,2.28-.1,2.88,2.24,2.93,.23,0,.43,.08,.62,.21,.23,.56-.15,.95-.37,1.39-.2,.39-.56,.71-.52,1.34,1.02-.06,1.68-1.03,2.68-1.06,1.01-.03,2.01-.05,3.02-.03,2.41,.04,4.6,.7,6.53,2.22,2.12,1.67,3,1.64,5.24,.05,.91-.65,1.69-1.46,2.55-2.15,2.62-2.1,5.71-2.94,9.06-2.69,.89,.06,1.77,.2,2.66,.27,.75,.27,1.39-.04,2.02-.4,.52-.02,.52,.68,1,.72l.03,.09-.06,.07c.16,.92,.35,1.83,.56,2.74-.06,.74,.04,1.17,1,.93,2.72-.7,5.46-.95,8.2-.02,2.24,.76,3.81-.65,5.48-1.73,.15-.08,.34-.17,.47-.1,1.34,.72,1.93,.03,2.27-1.17,.11-.37,.26-.74,.57-1,3.44-1.62,6.93-2.79,10.8-1.6,1.26,.39,2.56,.89,3.93,.42,1.43,.02,2.18,1.18,3.19,1.89,.5,.35,.97,.73,1.41,1.15q2.6,2.45,5.01,0c2.76-2.1,5.85-3.35,9.32-3.63,1.06-.09,2.13-.15,3.13,.2,1.69,.59,3.15,.32,4.45-.92,.32-.3,.71-.53,1.14-.67,.84-.1,1.25,.51,1.71,1.03,.81,.86,1.15-.02,1.56-.45,2.66-2.84,5.75-4.96,9.69-5.51,2.39-.34,4.78-.02,7.17,.27,1.06,.1,1.62,.86,2.13,1.66,.48,.75,1.11,.99,1.98,.78,.83-.21,1.69-.39,1.92-1.33,.22-.9-.9-.82-1.2-1.38Z"/>
  <path class="cls-11" d="M297.22,136.25c.25-1.25,1.11-1.39,2.22-1.39,67.5,.02,134.99,.02,202.49,.02,.93,0,2.07-.24,1.65,1.38-.39,1.11-1.19,1.33-2.31,1.33-67.43-.03-134.87-.02-202.3-.02-.93,0-2.01,.24-1.75-1.32Z"/>
  <path class="cls-11" d="M5.77,113.09c1.32-.31,2.27,.42,1.94,1.79-1.11,4.58,.97,8.43,2.64,12.38,.56,1.32,1.21,2.6,1.82,3.9,.73,.49,.58,1.08,0,1.49-4.09,2.92-4.52,6.94-3.48,11.42,.13,.48,.25,.96,.32,1.28,1.12-1.68,2.54-3.32,3.25-5.37,.86-3.17,2.19-5.82,4.82-8.17,3.29-2.95,3.73-7.42,3.59-11.76-.06-1.74,.33-2.27,1.87-2.32,1.03,.85,1.39,2.04,1.31,3.27-.29,4.67-.43,8.61-4.76,13.65,.15,.35,.47,.22,.72,.22,24.35,0,48.7,0,73.05,0,.28,0,.56-.03,.84-.05,.64-.17,1.28-.18,1.92,0,9.47,.02,18.94,.03,28.42,.05,.71,0,1.46-.15,2.09,.35,.7,1.61,.29,2.32-1.38,2.32-35.09,0-70.18,0-105.27,.01-.75,0-1.44,.03-1.74-.88-.06-.18-.07-.73-.54-.6-.35,.1-.63,.24-.71,.76-.48,3.39-2.04,6.32-4,9.06-.42,.58-.92,1.09-1.33,1.68-1.33,1.89-3.25,1.95-4.27-.13-2.16-4.42-3.17-11.56,1.63-15.77,.85-.75,.75-1.33,.29-2.2-1.69-3.2-3.19-6.5-3.83-10.08-.36-1.98-.69-4.07,.47-5.98,.11-.12,.13-.32,.34-.33Z"/>
  <path class="cls-11" d="M129.19,134.89c54.19,0,108.37,0,162.56-.02,1.12,0,1.95,.16,2.18,1.4,.08,.91-.12,1.41-1.26,1.34-2-.12-4.02-.03-6.03-.03H131.92q-2.7,0-2.73-2.68Z"/>
  <path class="cls-18" d="M29.61,30.54c-1.68,1.56-3.89,2.52-5.01,4.72-.45,.89-1.37,.77-2.22,.41-1.9-.8-3.61-1.91-5.32-3.05-1.92-1.29-3.45-.56-3.96,1.74-.47,2.07-.24,4.02,.32,6.06,.95,3.48,1.47,7.09,1.33,10.69-.1,2.56-1.78,4.5-3.7,6.11-1.46,1.23-1.5,1.34-.1,2.51,1.44,1.21,1.64,2.76,.44,4.59-1.37,2.11-2.43,4.35-3.43,6.66-1.34,3.1-.07,5.8,.97,8.56,.34,.9,.91,1.58,1.85,2.04,.96,.47,.96,1.54,1.01,2.49,.18,3.43-.83,6.59-2.3,9.62-.7,1.44-.95,2.88-1.11,4.46-.29,3.01-.31,5.97,.39,8.92-1.2-.04-1.34-1.07-1.59-1.86-1.83-5.79-1.67-11.54,.54-17.21,.46-1.19,.98-2.36-.63-3.12-.32-.21-.54-.48-.54-.88,.55-1.3,.26-2.4-.79-3.3-3.41-2.94-4.17-6.46-2.66-10.68,.81-2.25,1.33-4.61,2.62-6.67,.5-.8,.6-1.64,.42-2.57-.45-2.42-.96-4.81,.46-7.15,.6-.98-.38-1.75-.77-2.58,.12-.33,.37-.55,.68-.69,1.62-.61,1.68-1.73,1.36-3.27-.47-2.29-.3-4.66-.21-7,.06-1.68,1.06-2.87,2.33-3.89,1.53-1.23,1.62-1.82,.73-3.58-1.69-3.3-.45-5.35,3.26-5.54,3.33-.17,6.45,.33,9.18,2.37,.73,.54,1.42,.51,2.17,.06,.52-.32,1.04-.65,1.57-.95,.65-.36,1.33-1.16,2.09-.57,.76,.6,1.04,1.55,.62,2.56Z"/>
  <path class="cls-11" d="M29.61,30.54c-.76-2.64-.77-2.66-3.07-1.17-1.46,.95-2.66,1.4-4.35,.02-2.71-2.21-6.13-2.18-9.42-1.78-2.38,.29-3.11,2.17-1.94,4.27,.22,.39,.51,.74,.66,1.15,.45,1.19,.69,2.27-.75,3.13-2.21,1.33-2.98,3.36-2.71,5.96,.24,2.31-.08,4.67,.67,6.95,.25,.77-.09,1.31-1.05,1.22-.38-.04-.76,.02-1.15,.03-1.52-3.83-1.12-7.84-.99-11.81,.04-1.43,1.03-2.58,2.19-3.36,1.25-.84,1.26-1.74,.6-2.9-1.08-1.92-.55-3.66,.56-5.38,1.24-1.92,4.91-2.65,7.14-2.27,2.69,.46,5.4,.81,7.71,2.48,.33,.24,.81,.1,1.25-.15,1.08-.62,2.05-1.45,3.14-2.02,1.18-.61,.53-.98,0-1.32-1.38-.9-2.36-1.95-2.69-3.72-.65-3.52,.92-6.3,4.13-7.12,1.15-.29,1.99-.59,1.74-2.11-.16-1.02,.5-1.66,1.63-1.61,1.46,.87,1.82,4.85,.53,5.83-.38,.29-.8,.38-1.25,.4-.91,.04-1.76,.32-2.56,.71-1.89,.93-2.26,3.03-.82,4.57,.31,.33,.68,.58,1.03,.86,1.38,1.09,2.41,2.28,1.87,4.27-.22,.84-.13,1.79,.13,2.65,.33,1.1,.88,1.23,1.63,.41,1.6-1.73,1.61-1.74,3.9-.67,.65,.31,1.18,.13,1.73-.19,1.38-.79,2.17-2.09,2.8-3.46,.53-1.15,1.22-1.83,2.58-1.59,1.4,.24,2.34-.62,3.16-1.54,.97-1.08,1.74-2.33,2.65-3.45,1.62-2-.03-4.45-2.11-4.47-1.08-.02-2.23-.06-2.18-1.63-.1-.63,.1-1.08,.74-1.29,1.86-.62,4.82,.69,5.87,2.35,1.61,2.53,1.37,4.88-.38,7.15-.62,.8-.11,1.01,.45,1.16,1.84,.48,3.57,.73,5.47-.23,3.04-1.53,6.23-.76,9.33,.12,2.01,.57,3.92,1.39,5.48,2.82,.85,.78,1.54,.18,2-.34,.76-.86,1.55-1.08,2.57-.67,.83,.07,.63,.7,.66,1.21-.66,1.48-1.64,2.61-3.34,2.9-1.39,.64-2.43,.6-3.47-.86-.75-1.04-2.06-1.78-3.51-1.89-3.38-.81-6.75-1.56-10.06,.36-.98,.57-2.2,.62-3.26,.21-2.73-1.05-5.17-.85-7.42,1.19-1.07,.97-2.43,1.54-3.83,1.94-1,1.17-1.95,2.36-3.4,3.07-1.17,.57-2.24,.91-3.4,.06-.52-.39-.92-.21-1.41,.24-2.37,2.14-3.55,1.97-5.49-.68Z"/>
  <path class="cls-11" d="M509.93,129.86c-1.28-.36-1.65-1.37-1.68-2.53-.04-1.94-.01-3.89-.01-5.83,0-.66,.11-1.36-.65-1.74-.55-.78,0-1.47,.21-2.18,.26-.9,.57-1.78,.75-2.69,.89-4.73,1.72-9.46,.9-14.3-.15-.88-.2-1.81-.58-2.61-1.15-2.35-.39-4.2,1.35-5.86,2.06-1.84,1.71-4.19,1.37-6.54-.2-.78-.52-1.55-.24-2.37,.25-.57,.61-1.06,1.11-1.43,2.66-1.95,3.65-4.7,2.83-7.96-.25-.97-.55-1.92-.78-2.89-.51-2.63,.13-3.67,2.72-4.37,.86-.23,1.68-.59,2.47-.98,.95-.37,1.78-.92,2.49-1.65,1.17-1.22,1.16-1.88-.03-3.29-.65,.51-1.13,1.23-1.9,1.6-1.89,1-3.63,.81-5.2-.66-1.57-1.47-2.2-3.94-1.49-5.79,.61-1.58,1.54-1.99,3.07-1.34,.52,.67,.3,1.37,.05,2.06-.38,1.04-.37,2.06,.68,2.64,1.09,.61,1.75-.34,2.38-1,.83-.87,1.42-2.09,2.96-1.72,.43,.13,.74,.42,1.01,.76,.77,.96,1.39,2.02,2.11,3.01,.99,1.37,2.05,1.22,2.73-.33,.75-1.73,.91-3.56,.82-5.41-.04-.9,.13-1.59,.98-2.12,2.11-1.28,2.97-3.66,2.28-6.05-.14-.48-.34-.95-.43-1.44-.27-1.46,.32-1.95,1.88-1.6,1.68,2.16,1.94,4.52,1.11,7.08-.52,1.6-1.18,3.07-2.47,4.23-1.27,1.15-.6,2.81-.97,4.21-.47,1.78-.88,3.5-2.33,4.8-.61,.55-1.45,1.05-2.06,.8-1.47-.58-1.8,.37-2.47,1.26-1.52,2-3.79,2.97-6.08,3.71-1.18,.39-1.21,.74-.92,1.86,.98,3.73,1.47,7.48-.94,10.95-.08,.11-1.67,5.67-1.7,5.84-.36,2.47-.95,4.84-2.85,6.65-.54,.51-.97,1.02-.7,1.89,2.26,7.17,1.1,14.27-.52,21.35-.65,2.86-.16,5.76-.27,8.64-.05,1.24-.12,2.41-1.01,3.36Z"/>
  <path class="cls-14" d="M46.01,11.75c.48,.82,.93,1.36,2.15,1.21,1.47-.18,2.46,.76,3.13,2.21,.59,1.27-.09,2-.64,2.81-1.24,1.82-2.34,3.79-4.32,4.97-.42,.25-.92,.68-1.37,.47-1.64-.74-2.18,.04-2.76,1.48-.48,1.18-1.22,2.34-2.41,3.12-1.18,.77-2.13,1.23-3.32-.11-.65-.73-1.75-.86-2.19,.48-.19,.58-.62,.91-1.03,1.27-.73,.63-1.28,.4-1.64-.45-.49-1.17-.63-2.47-.31-3.59,.65-2.26-.81-3.2-2.21-4.24-.84-.62-1.47-1.31-1.54-2.42-.16-2.39,1.79-4.15,4.63-4.13,1.32,0,2.13-.87,1.68-2.07-.32-.85-.52-1.61-.27-2.49,.17-.6-.31-.88-.67-1.22,.24-.58,.86-.67,1.29-1,.86,.66,1.72,.73,2.77,.31,1.53-.63,3.15-.48,4.75-.21,1.17,.2,1.74,.86,1.7,2.06-.01,.28-.01,.56,.01,.83,.07,.69-.25,1.61,.52,1.96,.65,.3,.76-.86,1.41-.91,.21-.11,.43-.22,.64-.33Z"/>
  <path class="cls-14" d="M427.44,28.11c-.14-.31-.28-.63-.42-.94-.05-1.11-.59-1.91-1.35-2.73-1.44-1.55-2.52-3.4-3.64-5.19-.81-1.3-.44-2.48,.74-3.56,1.99-1.84,4.4-2.58,7.03-2.65,1.16-.03,2.04-.36,2.69-1.31,.3-.11,.6-.22,.91-.33,1.01,.43,2.01,.37,3.05,0,.88-.31,1.8-.56,2.74-.63,1.57-.13,2.34,.8,1.74,2.26-.37,.91-.38,1.8-.42,2.73-.02,.92,.98,.78,1.35,1.31-.06,1.07,.38,1.9,1.11,2.68,2.46,2.62,1.27,8.34-2,9.79-.49,.22-.96,.25-1.46,.06-1.12-.44-1.53,.04-1.86,1.14-.61,2.06-2.37,3.01-4.24,3.67-.73,.26-1.42-.2-2.01-.62-1.29-.93-2.26-2.16-2.87-3.62-.3-.73-.67-1.39-1.09-2.04Z"/>
  <path class="cls-11" d="M495.2,22.5c1.62-1.4,3.45-.48,5.07-.21,2.88,.48,5.78,.99,8.57,1.97,1.13,.4,1.07-.39,.88-1.14-.23-.9-.5-1.78-.48-2.75,.04-3.19,2.67-6.05,5.88-6.26,.69-.05,1.48-.22,1.91,.62,.55,1.18-.14,1.77-1.07,2.2-.76,.35-1.56,.59-2.28,1.03-2.03,1.23-2.29,2.13-1.2,4.27,.33,.65,.65,1.34,1.18,1.82,1.92,1.73,1.95,3.86,1.52,6.16-.33,1.77,.18,3.27,1.44,4.59,.94,.98,1.9,1.04,3,.41,1.15-.66,1.96-1.65,2.54-2.82,.56-1.14,1.38-1.57,2.67-1.55,3.35,.05,5.81-3.69,4.54-6.81-.25-.62-.57-1.24,.01-1.86,2.53-.04,3.49,.98,3.34,3.51-.22,3.87-3.8,8.45-7.38,8.23-.84-.05-.92,.56-1.02,1.22-.27,1.78-1.04,3.36-2.14,4.76-1.01,1.31-.83,2.47,.72,2.94,.94,.28,1.99,.41,2.94-.49,1.32-1.25,3-1.83,4.87-1.74,.59,.03,1.11,.07,1.39,.67,.39,1.22-.35,1.8-1.32,2.09-1.62,.49-3.12,1.11-4.35,2.33-.6,.59-1.43,.52-2.21,.32-1.15-.3-2.3-.34-3.45,.02-2.22,.71-3.05,2.27-2.42,4.52,.55,1.94,.39,2.41-1.05,3.08-1.59-.65-2.55-2.35-2.41-4.48,.12-1.8,.55-3.53,1.95-4.84,1.2-.57,1.53-1.4,.77-2.57-.11-1.03,.34-1.83,1.02-2.53-2.97-.08-6.12-3.18-6.47-6.3-.19-1.67-.05-3.33-.07-5-.18-.7-.47-1.22-1.24-.59-.76,.61-1.51,.48-2.35,.2-3.71-1.24-7.49-2.09-11.42-2.25-1.31-.05-2.29-.52-2.26-2.07,.08-.26,.17-.5,.37-.7Z"/>
  <path class="cls-14" d="M529.39,22.17c-.09,.63-.01,1.25,.37,1.75,1.25,1.64,.63,3.15-.38,4.54-1.09,1.52-2.23,3.12-4.49,2.8-1.19-.17-1.95,.04-2.35,1.41-.34,1.15-1.29,2.11-2.33,2.75-.8,.5-1.87,1.26-2.76,.65-1.5-1.04-2.74-2.4-2.84-4.43-.07-1.45,.5-2.83,.37-4.29-.07-.81-.24-1.48-.85-2.07-1.22-1.21-2.03-2.66-2.64-4.29-.44-1.18-.04-1.98,.75-2.63,.89-.73,1.86-1.47,3.05-1.63,1.23-.16,1.7-.88,1.73-2.01,.44-.24,.82-.55,1.02-1.03,.76,.19,1.34,.11,1.86-.64,.99-1.43,2.54-1.55,4.06-1.27,1.46,.27,2.01,1.44,2.29,2.78,.29,1.39,.26,2.77,0,4.16-.19,1.04,.03,1.89,1.07,2.37,.53,.66,1.52,.41,2.06,1.06Z"/>
  <path class="cls-11" d="M153.01,28.84c-2.59,.51-2.92,.39-3.53-1.31-.21-.59-.31-1.2,.1-1.73,.8-1.02,.37-1.71-.55-2.31-4.77-2.31-9.68-4.09-15.08-3.89-2.93,.11-5.46,1.08-7.08,3.75-.4,.66-.89,1.45-1.8,1.27-.99-.19-1.14-1.1-1.18-1.97,.04-.18,.11-.34,.21-.49,1.95-4.3,6.94-6.51,12.52-5.74,4.14,.57,8.13,1.63,11.87,3.46,2.12,1.04,4.21,2.34,3.86,5.29-.1,.85,.51,.73,.98,.65,3.53-.63,7.06-.33,10.59,.05,.26,.03,.52,.17,.76,.29,1.56,.8,2.95,.92,4.78,.28,1.27-.45,2.29-.81,3.4-1.7,4.13-3.3,10.09-2.1,13,1.56,.32,.4,.37,.78,.36,1.22-.05,.14-.14,.23-.28,.28-.43,.58-.77,1.38-1.72,.73-.64-.35-1.21-.79-1.78-1.23-2.85-2.17-6.99-1.41-8.87,1.61-.54,.87-1.21,1.6-2.31,1.1-1.19-.54-2.02-.19-2.78,.74-.67,.83-1.62,1.1-2.29,.22-1.75-2.3-4.26-2.1-6.69-2.33-2.18-.2-4.33,.38-6.5,.21Z"/>
  <path class="cls-14" d="M517.3,53.41c1.09-.37,1.31-1.35,.88-2.11-.91-1.62-.84-3.22,.28-4.46,1.32-1.46,3.27-1.96,5.19-1.43,1.36,.38,2.3,.46,3.3-.76,.76-.92,2-1.41,3.23-1.53,1.2-.12,1.79-.72,1.94-1.86,.81,.51,1.92,.72,1.98,1.98-1.58-.08-2.06,.63-1.33,2.02,1.23,2.32,.45,4.37-.7,6.41-.26,.46-.57,.9-1.08,.96-1.38,.14-1.27,.93-1.17,2.01,.2,2.21-.13,4.39-1.26,6.33-.68,1.18-2.1,1.01-3.01-.29-.75-1.08-1.44-2.2-2.16-3.31,.84-.45,2.04,.12,2.65-1.01,.88-1.62,1.75-3.25,1.77-5.14,.01-.99-.55-1.67-1.65-1.71-2.98-.12-4.92,2.73-3.74,5.45,.23,.53,.69,1.05,.26,1.7-.95-.04-1.68,.22-2.1,1.2-.18,.43-.65,.73-1,1.09-.71,.75-1.54,1.39-2.54,.63-.98-.75-1.49-1.76-.82-3.03,.31-.6,.53-1.21,.33-1.89-.28-.73,.14-1.04,.74-1.25Z"/>
  <path class="cls-11" d="M276.8,21.46c-.24-.57-.48-1.14-.73-1.71-.1-.13-.07-.22,.08-.27,1.16-1.05,2.58-1.06,4.02-1.02,.83,.02,1.67,0,2.74,0-1.18-1.76-1.36-3.47-.81-5.36,.58-1.99,1.82-3.13,3.74-3.74,1.09-.35,1.77-.7,1.49-2.41-.7-4.27,1.12-7.03,5.38-6.96,.5,0,.89,.06,.92,.66,.62,1.19-.07,1.74-1.03,2.18-2.76,1.27-2.91,1.54-2.51,4.56,.31,2.35-.25,3.41-2.35,4.41-.97,.46-1.91,.95-2.57,1.81-.91,1.17-.65,2.4,.77,2.71,1.62,.36,2.58,1.15,3.29,2.67,.79,1.71,2.13,1.78,3.5,.49,.71-.67,1.22-1.43,1.49-2.38,.19-.65,.47-1.3,1.07-1.65,.7-.4,1.5-.87,2,.31,.1,1.55-.78,2.8-1.34,4.49,1.48-.72,2.7-1.57,4.16-1.91,1.34-.32,2.65-.62,4.03-.59,.73,.02,1.16,.26,1.19,1.03,.43,1.25-.33,1.83-1.33,2.03-2.43,.5-4.79,1.09-6.78,2.69-.31,.25-.76,.42-1.11,.28-1.56-.62-3.06-.15-4.59,.11-1.23,.2-2.31-.31-3.26-1.06-1.2-.96-2.55-1.32-4.06-1.25-2.06,.1-4.13-.21-6.16,.38-.52,.15-1.01,.06-1.25-.53Z"/>
  <path class="cls-11" d="M432.49,11.73c-.04,1.27-.54,1.8-1.96,1.75-2.7-.1-5.23,.55-7.38,2.37-1.27,1.08-1.65,2.37-.56,3.59,1.6,1.79,2.29,4.28,4.51,5.62,.66,.4,.4,1.41-.08,2.11-1.56,.63-2.11-.73-2.9-1.52-.94-.94-1.25-2.36-2.38-3.17-.93-1.06-1.84-1.22-2.94-.13-.78,.77-1.87,.66-2.86,.37-1.7-.51-3.34-.75-4.99,.25-.76,.46-1.48,0-2.12-.52-3.17-2.52-6.36-2.12-8.98,1.02-.8,.96-1.33,2.22-2.66,2.67-1.51,.09-2.21-1.57-3.64-1.65-1.37-.96-1.52-1.54-.68-2.61,.61,0,1.4-.24,1.8,.05,1.63,1.21,2.25,.19,3.32-.95,2.97-3.17,7.15-5.15,11.74-1.88,.34,.24,.71,.55,1.04,.32,1.89-1.32,3.71-.01,5.55,.12,.64,.05,3.36-1.32,3.34-1.9-.11-3.01,2.31-4.09,4.22-5.41,2.42-1.68,5.32-1.12,8.06-1.07,.19,0,.37,.38,.56,.59Z"/>
  <path class="cls-18" d="M276.8,21.46c.66,.45,1.28,.02,1.92-.09,2.54-.42,5.09-.26,7.64-.09,1.07,.07,1.76,.9,2.55,1.46,1.32,.95,2.65,1.09,4.06,.39,.77-.39,1.47-.42,2.21,0,.81,.47,1.46,.43,2.24-.25,1.67-1.47,3.78-2.1,5.92-2.34,1.26-.14,1.79-.62,2-1.73,.43,.12,.85-.31,1.27-.01,.7,1.11,1.71,1.59,3,1.84,2.08,.41,4.12,1.03,6.1,1.81,.66,.26,1.6,.32,1.63,1.38-1.16-.01-2.31-.02-3.48-.25-1.68-.34-3.31,.05-4.82,.9-.62,.35-1.49,.81-1.22-.64,.14-.76-.52-1.01-.86-.91-1.46,.45-3.01-.04-4.45,.55-.68,.28-1.16,.66-.66,1.34,.68,.92,.54,1.84-.2,2.37-.96,.69-1.61,2.07-3.25,1.6-1.45-.42-2.96-.86-4.15-1.67-2.27-1.55-4.91-1.57-7.37-2.32-2.88-.87-5.71-.42-8.57-.3-1.86,.08-3.15,1.27-4.65,2.08-.47,.25-.92,1.07-1.53,.25-.48-.65,.05-1.14,.44-1.61,1.23-1.45,2.8-2.52,4.23-3.75Z"/>
  <path class="cls-14" d="M297.29,15.79c-1.49-.55-2.29-.23-2.64,1.36-.25,1.11-.81,1.94-1.54,2.7-1.61,1.67-3.41,1.51-4.3-.63-.63-1.5-1.49-2.15-3.01-2.46-1.89-.39-2.28-2.01-1-3.45,.79-.9,1.78-1.46,2.87-1.93,1.81-.77,2.4-1.99,1.98-3.93-.68-3.07-.18-4.12,2.77-4.97,1.12-.32,1.19-.97,1.23-1.83,.99,.36,2,.67,2.63,1.62-.67,.64-.79,1.38-.52,2.27,.41,1.33,.64,2.68,.49,4.12-.13,1.23,.57,1.68,1.83,1.35,.92-.23,1.75-.75,2.69-.91,1.09-.18,2.2-.1,2.88,.87,.65,.92,.06,1.83-.43,2.64-.77,1.29-1.74,2.35-3.43,2.27-.7-.03-1.28,.36-1.91,.57-.2,.11-.39,.22-.59,.33Z"/>
  <path class="cls-11" d="M99.35,26.23c-.47-.03-.93-.11-1.31-.42-.44-.07-.69-.38-.83-.74-1.53-3.92-4.79-4.88-8.54-5.18-2.62-.21-4.58,1-6.53,2.45-.76,.57-1.49,1.48-2.65,.73-.34-.31-.54-.68-.56-1.14,.02-.26,.13-.5,.19-.76,1.58-2.24,3.85-3.82,6.37-4.25,3.17-.54,6.5-.22,9.53,1.23,1.91,.91,3.14,2.57,4.3,4.25,.26,.38,.27,.68,.92,.53,5.43-1.27,10.49,.46,15.55,2.09,.62,.2,1.3,.39,1.79,.78,1.57,1.27,2.49,.39,3.23-.91,.41-.72,.95-1.04,1.71-1.1,.17-.07,.35-.08,.52-.03,1.18,1.17,1.16,1.53-.17,2.76-.89,.96-1.44,2.21-2.67,2.91-.57,.33-1.09,.49-1.71,.45-2.33-.86-4.4-2.28-6.87-2.91-3.8-.96-7.55-1.85-11.45-.67-.27,.08-.55,.07-.81-.06Z"/>
  <path class="cls-11" d="M359.97,21.79c-.79,.16-1.57,.58-1.92,1.2-.85,1.52-1.81,1.27-3.02,.56-.75-.44-1.61-.72-2.41-1.06-1.19-.65-2.52-.97-3.71-1.62-3.07,.53-3.16-1.82-3.66-3.77-2.93-3.71-7.62-3.45-10.41-.23-.18,.21-.39,.41-.6,.59-.59,.5-1.16,1.23-2.02,.63-.77-.53-1.3-1.25-.79-2.28,1.96-1.61,3.49-3.74,6.16-4.45,2.94-.78,7.77,.69,9.46,3.11,.54,.78,.69,1.73,.81,2.63,.09,.67,.53,.98,.92,.95,2.41-.17,4.11,1.34,6.02,2.4,.82,.46,1.41,.57,2.36-.22,2.55-2.11,5.61-2.71,8.91-2.14,.74,.13,1.01,.54,1.31,1.07,.39,1.23-.31,1.93-1.35,1.93-2.06,0-4.06,.41-6.07,.7Z"/>
  <path class="cls-18" d="M359.97,21.79c1.51-1.27,3.49-1.26,5.15-1.11,1.57,.14,1.96-.34,2.27-1.53,.44,.21,.88,.42,1.33,.62,.16,1.42,.99,2.3,2.27,2.83,.15,.06,.3,.15,.44,.25,2.48,1.79,4.7,2.36,7.58,.2,2.7-2.03,6.23-1.94,9.52-1.18,1.25,.29,2.15,.05,3.03-.74,.42,.29,.72,.78,1.32,.74-.66,1.1,.2,1.81,.68,2.61-1.91,.93-3.94,.87-5.98,.76-2.06-.11-3.99,.16-5.49,1.79-.48,.53-1.01,1.19-1.81,.98-.75-.2-.32-1.09-.65-1.6-.61,.1-.84,.72-1.32,.98-.82,.45-1.65,.76-2.47,.02-3.83-3.44-8.49-3.56-13.23-3.24-1.43,.1-2.31,1.26-3.47,1.88-.46,.24-.91,1.17-1.54,.45-.57-.65,.25-1.16,.56-1.55,.79-.97,1.31-2.07,1.83-3.18Z"/>
  <path class="cls-11" d="M249.27,26.14c-.45-.31-.9-.62-1.34-.93-.42,.11-.76-.08-1.11-.27-1.86-.99-3.81-1.52-5.94-1.32-1.08,.1-1.92-.17-1.83-1.51-.33-1.14,.08-1.61,1.28-1.66,2.56-.09,5.07,.1,7.34,1.39,.75,.43,1.02,.2,1.59-.38,2.2-2.26,4.04-4.94,7.61-5.47,5.52-.82,10.5-.04,14.5,4.12,.69,.72,.96-.35,1.4,.02,.79,.14,1.92,.1,1.85,1.15-.06,.89-.83,1.56-1.85,1.9-1.62,.52-2.74,.23-3.4-1.43-.21-.51-.65-.9-1.27-.94-2.63-.84-5.1-2.08-8.04-1.97-4.2,.15-6.98,2.27-9.12,5.59-.45,.7-.7,1.55-1.68,1.72Z"/>
  <path class="cls-11" d="M427.44,28.11c.82-.01,1.15,.46,1.31,1.21,.43,2.02,1.74,3.39,3.42,4.46,.59,.38,1.2,.49,1.82,.03,1.47-1.1,3.48-1.63,3.41-4.17-.03-.96,1.28-1.06,2.01-.53,.82,.6,1.33,.21,1.89-.24,2.4-1.91,2.81-4.53,2.49-7.35-.09-.78-1.02-1.17-1.39-1.79-.45-.75-2.16-1.44-.55-2.67,.83,0,1.53,.18,2.16,.86,1.65,1.79,4.34,2.19,5.81,4.29,.46,.66,1.11,1.2,1.46,1.96,.11,.22,.17,.45,.11,.7-1.16,1.8-1.52,1.84-2.95,.31-.42-.45-.85-.88-1.28-1.32-.12-.12-.22-.25-.52-.32-.1,.79-.27,1.58-.4,2.37-.86,3.2-2.36,5.81-5.94,6.52-.47,.09-.81,.37-1.06,.75-.91,1.41-2.32,2.23-3.67,3.12-2.36,1.64-5.94,.22-7.1-2.43-.6-1.3-1.69-2.36-1.95-3.82-.15-.84-.54-1.85,.92-1.96Z"/>
  <path class="cls-11" d="M5.84,51.03c1.4,.33,1.93,1.69,1.37,2.5-1.7,2.44-1.04,4.87-.53,7.36,.2,.99,0,1.82-.54,2.68-2.01,3.21-2.75,6.86-3.38,10.52-.48,2.81,1.77,4.27,3.2,6.11,.51,.65,1.23,1.17,1.44,2.01,.17,.68,.12,1.35-.66,1.69-.33,.18-.44-.15-.64-.28-1.98-1.64-3.62-3.58-5.07-5.68-1.54-2.23-1.01-4.67-.49-7.04,.69-3.13,1.58-6.22,3.27-9,.72-1.19,.08-2.46-.17-3.5-.71-3,.24-5.28,2.2-7.37Z"/>
  <path class="cls-11" d="M229.79,30.54c-.08,.07-.17,.14-.24,.22-1.84,2.59-2.1,2.61-4.3,.4-1.48-1.48-3.1-2.78-4.84-3.92-2.19-.94-4.37-1.91-6.55-2.88-1.28-.57-1.39-2.09-.44-3.14,5.01,.98,9.11,3.59,12.67,7.12,.9,.89,1.27,1.02,2-.19,1.61-2.66,3.82-4.72,6.66-6.13,1.3-.64,2.35-.67,3.49,.14,.56,1.22-.18,2.07-1.1,2.38-3.22,1.09-5.39,3.38-7.34,5.99Z"/>
  <path class="cls-11" d="M187.25,31.19c-.69-.78-.96-1.62-.39-2.58,3.15-2.07,6.56-2.71,10.31-2.2,1.74,.24,3.44,.57,5.08,1.14,.85,.29,.88-.09,1.14-.75,.77-2.02,1.49-4.09,3.49-5.37,1.31-.84,2.52-1.18,3.9-.28,.85,1.16,.08,2.06-.79,2.36-2.15,.75-3.34,2.19-3.95,4.28-.09,.32-.36,.54-.65,.73-.03,.22-.02,.45-.08,.66-.62,2.18-.99,2.35-3,1.42-1.89-.04-3.6-.96-5.51-1.03-2.65-.09-5.18,.17-7.58,1.36-.62,.3-1.21,.89-1.97,.28Z"/>
  <path class="cls-18" d="M331.44,15.8c.13,.48,.18,1,.42,1.42,.44,.77,.98,1.22,1.77,.28,.53-.64,1.16-1.21,1.77-1.78,2.14-2.01,5.98-2.39,8.45-.75,.7,.47,1.5,1.04,1.41,2.12-2.43,.94-5.07,.92-7.56,1.67-1.58,.47-3.1,.91-4.2,2.21-2.12,2.52-4.9,4.33-7.16,6.71-.73,.77-.61-.35-.92-.51-.45-.65,.03-1.17,.27-1.7,.9-1.94,2.07-3.71,3.5-5.29,.7-.77,.84-1.53,.28-2.41,.66-.65,1.31-1.3,1.97-1.95Z"/>
  <path class="cls-11" d="M329.47,17.75c1.27,.65,1.35,1.22,.23,2.48-1.83,2.07-3.37,4.3-4.29,6.92-.74,.75-1.32,.8-2.24,.03-1.73-1.46-3.86-2.31-5.84-3.38-2.65-1.73-5.72-2.32-8.72-2.92-1.43-.29-1.91-.85-2.01-2.1,.85-1.14,2-.71,3.04-.5,4.68,.94,9.03,2.75,13.04,5.35,1,.65,1.36,.34,1.88-.63,.83-1.53,1.91-2.93,2.89-4.38,.48-.72,1.19-.95,2.02-.87Z"/>
  <path class="cls-11" d="M7.12,84.57c1.59,.13,2.15,1.13,1.41,2.76-1.68,3.71-2.33,7.61-2.07,11.64,.15,2.36,.58,4.71,1.43,6.94,.17,.45,.36,.95,.89,1.15,1.87,2.36,1.77,3.02-.27,4.61-1.03,.8-1.62-.01-2.39-.27-.22-.03-.24-.24-.34-.37,1.38-1.49,.4-2.83-.14-4.32-2.64-7.41-2.85-14.73,1.15-21.8,.06-.16,.17-.27,.33-.33Z"/>
  <path class="cls-11" d="M452.23,25.19c2.83-2.43,5.49-5.16,8.99-6.61,2.64-1.1,5.45-1.7,8.08,.23,1.15,.67,1.6,1.73,1.72,3-.06,.48,.13,.71,.64,.69,.6-.03,1.21-.07,1.71,.4,.97,.54,.46,1.2,.1,1.78-.39,.62-1.03,.95-1.68,1.25-1.17,.5-2.1,.26-2.74-.89-.27-.67-.57-1.32-.9-1.96-1.12-2.24-1.89-2.59-4.36-2.01-1.98,.47-3.68,1.48-5.24,2.76-1.61,1.19-3.05,2.56-4.5,3.93-1.25,1.19-1.95,1.02-2.8-.5-.12-.61-.07-1.2,.33-1.71,.17-.2,.38-.34,.66-.36Z"/>
  <path class="cls-11" d="M391.55,21.13c-.26,1.32-1.09,1.65-2.3,1.34-4.48-1.15-8.65-.57-12.36,2.32-1.03,.8-1.85,.82-2.95,.02-1.29-.93-2.78-1.57-4.18-2.35-1.08-.6-1.71-1.4-1.05-2.69,1.1-.7,2.15-.06,2.86,.51,2.38,1.92,4.46,1.94,7.16,.28,3.78-2.32,7.98-1.59,12.08-.49,.72,.19,.67,.57,.73,1.05Z"/>
  <path class="cls-11" d="M473.98,22.82c.71-2.32,2.9-2.71,4.72-3.26,2.95-.89,5.7,.04,8.19,1.82,.92,.66,1.16,1.66,1.6,2.57,.28,.58,.47,1.27,1.34,.4,.96-.97,2.22-1.39,3.63-1.18,.28,.17,.71,.05,.89,.43,.39,1.12-.19,1.91-1.08,2.34-1.63,.78-2.98,1.92-4.41,2.97-.78,.57-1.57,.92-2.3-.09-.23-.5-.23-1.04-.25-1.58-.37-3.65-3.51-5.52-7.36-4.39-1.02,.3-1.95,.81-2.83,1.39-.51,.34-1.06,.73-1.68,.34-.67-.42-.68-1.08-.45-1.77Z"/>
  <path class="cls-11" d="M297.87,15.46c.1-1.15,.95-1.02,1.74-1.03,1.9-.02,3.86-1.86,3.99-3.71,.04-.63-.34-.79-.85-1.03-1.81-.81-3.21,.39-4.75,.86-.6,.18-1.25,.49-1.67-.08-.4-.53-1.04-1.11-.62-1.95,.32-.64,.26-1.3,.11-1.96-.2-.91-.33-1.87-.69-2.71-.56-1.3,0-1.6,1.14-1.58,1.72,.59,1.33,2.27,1.58,3.46,.27,1.31,.14,2.19,1.93,1.41,.89-.39,2.13-.26,3.14-.05,1.82,.38,2.88,1.31,2.77,3.41-.15,2.66-1.82,5.49-3.99,6.27-1.93,.69-2.73,.41-3.81-1.33Z"/>
  <path class="cls-18" d="M229.79,30.54c1.23-3.06,3.6-4.95,6.56-6.06,1.21-.46,1.79-1.09,1.87-2.3,.28,.11,.57,.39,.81-.06,.33,.81,.66,1.27,1.79,1.11,2.6-.38,4.99,.38,7.09,1.99-1.71,1.76-3.44,2.56-6.17,1.88-3.62-.9-7.12,.43-10.29,2.35-.57,.34-1.11,.73-1.67,1.09Z"/>
  <path class="cls-18" d="M205.39,28.51c.44-1.06,.62-2.22,1.32-3.18,.66-.9,1.36-1.64,2.56-1.89,1.12-.23,1.8-1.01,1.51-2.3,.88,.03,1.76,.05,2.64,.08-.65,1.74-.27,2.55,1.42,3.16,1.98,.71,4,1.34,5.58,2.85-.62,.62-1.3,.7-2.14,.42-1-.33-2.05-.48-3.06-.79-3.12-.96-5.87,.51-8.73,1.27-.37,.1-.73,.25-1.09,.38Z"/>
  <path class="cls-11" d="M527.33,21.11c-1.26,.25-2-.67-1.6-2.23,.4-1.55,.29-3.02,0-4.56-.23-1.22-.85-2.04-1.94-2.15-1.32-.12-2.88-.26-3.62,1.28-.64,1.32-1.24,1.6-2.12,.25-.09-1.9,.73-3.26,2.53-3.69,4.14-.98,7.07,0,7.51,5.04,.19,2.14,.05,4.11-.76,6.06Z"/>
  <path class="cls-11" d="M45.38,12.07c-.55,.61-.33,2.13-1.47,1.88-1-.22-.92-1.47-.92-2.42,0-3.12-.01-3.1-3.24-3.15-1.19-.02-2.33,.1-3.37,.68-1.23,.68-1.86,.22-2.15-1.01,.07-.55,.13-1.04,.76-1.35,2.96-1.47,5.97-1.1,8.9-.08,1.18,.41,1.27,1.83,1.44,2.96,.12,.82,.05,1.67,.06,2.5Z"/>
  <path class="cls-18" d="M473.98,22.82c.38,1.91,.46,1.9,2.06,.89,2.5-1.59,5.14-2.22,7.99-.91,1.88,.86,2.61,2.39,2.67,4.35-.78,.28-1.44-.13-2.04-.46-3.32-1.82-6.72-1.54-10.18-.54-.64,.18-1.27,.47-1.95,.38-.5-.07-1.25-.05-.84-.96,.88-.69,2.35-1.01,1.66-2.67,.21-.02,.41-.04,.62-.07Z"/>
  <path class="cls-11" d="M440.49,15.76c-.55-.69-.83-1.35-.23-2.23,.37-.54,.95-1.26,.32-1.96-.54-.59-1.25-.49-2-.23-.98,.34-2.08,.38-3.02,.8-1.07,.47-1.68,.16-2.18-.74-.38-.65-.31-1.06,.49-1.37,2.07-.79,4.14-1.48,6.4-1.29,1.45,.12,2.95,1.82,2.87,3.33-.07,1.28-.57,2.44-1.29,3.5-.38,.56-.83,.67-1.37,.2Z"/>
  <path class="cls-12" d="M79.14,21.75c.14,.35,.28,.71,.42,1.06,0,1.12-.65,1.43-1.64,1.35-.13-.45,.14-1.01-.37-1.36,.11-.1,.21-.19,.32-.29,.44-.23,.7-.75,1.27-.76Z"/>
  <path class="cls-24" d="M471.02,21.8c-.59-.99-.93-2.12-1.72-3,1.67,.67,2.15,1.51,1.72,3Z"/>
  <path class="cls-24" d="M122.83,23.85c-.11-.03-.22-.06-.33-.08,.4-.67,.64-1.51,1.6-1.62,0,.11,.02,.22,.02,.33-.36,.53-.36,1.39-1.3,1.37Z"/>
  <path class="cls-24" d="M5.77,111.03c.11,.12,.23,.25,.34,.37-.12,.56-.23,1.13-.35,1.69-.11,.11-.23,.22-.34,.33,.11-.8,.23-1.6,.34-2.4Z"/>
  <path class="cls-24" d="M494.15,23.47c-.26-.03-.57,.04-.69-.3,.58-.22,1.17-.45,1.75-.67-.04,.2-.08,.4-.12,.61-.21,.38-.56,.42-.94,.37Z"/>
  <path class="cls-24" d="M79.14,21.75c-.46,.19-.69,.77-1.27,.76,.28-.57,.75-.96,1.24-1.35,.01,.2,.02,.39,.04,.59Z"/>
  <path class="cls-24" d="M452.23,25.19l-.32,.31c-.4-.06-.63-.29-.69-.69,.02-.21,.04-.43,.05-.64,.41,.25,.75,.57,.95,1.01Z"/>
  <path class="cls-24" d="M276.15,19.48c-.03,.09-.06,.18-.08,.27-.66,.02-1.31,.03-1.97,.05,.6-.61,1.36-.24,2.05-.32Z"/>
  <path class="cls-24" d="M7.12,84.57c-.11,.11-.22,.22-.33,.33-.44-.31-.62-.77-.7-1.29,.21,.09,.42,.19,.64,.28,.13,.22,.26,.45,.39,.67Z"/>
  <path class="cls-24" d="M185.94,27.79c.09-.09,.19-.18,.28-.28,.22,.31,.45,.63,.67,.94-.61,.2-.64-.43-.95-.66Z"/>
  <path class="cls-19" d="M428.46,33.89c1.05,.86,1.95,1.93,3.24,2.46,1.32,.53,2.57,.22,3.78-.4,2.01,.25,3.74,1.3,5.3,2.39,3.89,2.73,8.29,3.32,12.82,3.82,4.17,.45,8.34,.56,12.53,.74,4.16,.18,8.33,.76,12.26,2.34,.75,.3,1.52,.37,2.29,.42,2.84,.18,5.67,.62,8.52,.5,2.32-.1,4.56,.46,6.81,.8,2.23,.34,4.07-.19,5.82-1.43,1.18-.83,2.46-1.01,3.83-.61,1.38,.4,2.08,1.32,1.93,2.73-.22,2.05-.38,4.11-1,6.11-.45,1.46-.57,2.95,.36,4.35,.52,.79,.49,1.71,.33,2.6-.39,2.18-.38,4.28,.43,6.41,1.06,2.82,.46,5.88,1,8.79,.09,.49,0,1.05,.25,1.48,1.19,2.15,.15,3.88-1.02,5.55-.46,.66-.76,1.22-.24,1.95,1.72,2.43,.87,4.6-.84,6.52-.93,1.04-1.34,1.84-.55,3.21,.87,1.5,.14,3-.89,4.15-1.1,1.23-.99,2.16,.06,3.31,1.9,2.07,2.07,4.86,2.34,7.38,.21,1.93,.33,3.8,1.08,5.6-.03,1.67-1.04,3.08-1.28,4.69-.57,0-1.14,.02-1.71,.03-.58,.1-.75-.38-1-.72-2.5-3.43-4.79-6.98-6.57-10.84-1.11-2.41-1.2-4.74,.52-6.9,.91-1.16-.11-1.67-.64-2.38,.11-.2,.22-.4,.32-.6,.52-.49,1.72,.34,1.79-.69,.06-.9-.98-1.07-1.68-1.4-1.95-.93-2.59-2.33-1.9-4.39,.7-2.09,1.83-3.95,3.18-5.68,.5-.65,.93-1.25,.63-2.12-.11-.31-.21-.73,.12-.93,1.41-.87,.44-1.51-.16-2.22-.46-.53-1.16-.93-1.05-1.8,2.25-1.48,1.23-3.59,1.05-5.53,.17-2.08,1.39-3.71,2.34-5.44,1.2-2.19,1.11-2.93-.78-4.56-.82-.72-1.81-1.32-2.05-2.52,.27-1.8-.05-3.48-1.06-5.01q-.57-3.1-3.41-1.7c-4.21,2.07-8.2,1.45-11.93-2.1-1.3-1.24-2.33-1.26-3.99-.71-5.08,1.7-10,1.55-14.23-2.33-.85-.78-1.71-1.27-2.83-.55-.19-.22-.38-.43-.58-.65-.62-.93-1.42-1.15-2.57-1.06-3.72,.28-7.43,.91-11.18,.16-5.21-1.03-9.82-3.32-14.05-6.43-1.09-.8-2.23-1.45-3.41-2.05-.19-.42-.5-.68-.98-.68-.58-.79-1.34-1.05-2.33-.97-2.36,.2-4.68,.06-6.86-1.07-.9-.47-1.67-.3-2.37,.52-1.87,2.17-4.25,2.98-7.07,2.45-.68-.13-1.36-.09-1.97,.21-3.42,1.64-6.93,3.05-10.64,3.91-.69,.55-1.65,.04-2.33,.6-.05,.1-.08,.23-.17,.28-4.93,2.89-10.12,4.53-15.75,2.48-2.4-.87-4.62-.23-6.92-.08-1.11,.07-2.21,.27-3.32,.07-.38-.08-.73-.24-1.07-.42-1.08-.58-2.13-.96-3.05,.3-.16,.23-.48,.25-.76,.11-.76-.62-1.6-.69-2.52-.4-.8,.24-1.59,.52-2.37,.81-6.14,2.26-11.81,1.24-16.09-3.73-.7-.81-1.47-1.34-2.54-1.41-.65-.24-1.3-.24-1.94,.06-3.7,2-7.63,3.4-11.68,4.42-2.31,.59-4.66,1.16-7.06,.33-1.23-1.11-2.69-1.68-4.33-1.77-.92-.44-2.01-.39-2.88-.98-.64-.37-1.33-.41-2.04-.34-1.1-.37-2.09-.13-3.2,.22-3.17,.99-6.34,2.08-9.7,2.34-2.66,.01-5.12-1.32-7.81-1.18-.38-.07-.77-.19-1.07-.43-1.86-1.49-3.81-1.03-5.77-.31-1.45,.53-2.8,1.33-4.38,1.46-.93,.01-1.86,.02-2.76-.31-1.61-.6-3.12-.41-4.48,.69-1.74,.27-3.3-.41-4.84-1.04-1.24-.51-2.31-.65-3.42,.29-.84,.71-1.83,.81-2.81,.21-.76-.47-1.47-.41-2.2,.05-.19-.1-.39-.21-.58-.31-1.08-.43-2.14-.31-3.27-.08-5.32,1.1-10.66,1.6-16.09,.86-1.99-.27-3.85-1.16-5.89-1.11-.76-.11-1.5-.76-2.28-.06-2.83,1.91-5.71,3.39-9.11,1.29-.54-.33-1.17-.46-1.78-.27-5.1,1.63-10.45,1.26-15.65,2.04-.35,.01-.72-.05-.97,.3-1.79,.2-3.33,1.26-5.11,1.48-3.21-.06-6.25-.68-9-2.49-1.54-1.01-3.4-1.33-5.14-1.88-.61-.17-1.16-.49-1.52-.99-.9-1.24-1.93-1.33-3.37-.91-2.32,.69-4.44,1.82-6.7,2.64-1.66,.61-3.36,.82-5.1,.69-1.25-.09-1.84-.73-1.49-2.02,.26-.96,.18-2.01,.84-2.85,2.6,.25,5.19,.5,7.8,0,.54-.1,1.17,.02,1.6-.36,2.63-2.32,5.75-1.39,8.64-1.12,3.18,.3,6.3,1.09,9.37,2.23,1.67,.62,3.78,.65,5.73,.34,2.68-.43,5.39-.72,8.07-1.13,.82-.12,1.72-.24,2.39-.67,3.28-2.12,6.85-1.57,10.37-1.22,.94,.09,1.87,.18,2.81,.25,4.15,.3,8.3-.24,12.46,.23,1,.11,2.08-.29,3.09-.59,1.89-.57,3.76-.29,5.61,.06,3.69,.7,7.11-.08,10.6-1.28,3.13-1.08,6.43-1.14,9.34,.97,.89,.65,1.79,1.06,2.93,.96,.82-.07,1.65,.06,2.48,.21,1.6,.29,3.15-.04,4.75-.49,3.24-.91,6.43-2.09,9.88-2.11,2.44-.02,4.88-.34,7.34-.33,2.5,0,4.87,.44,7.08,1.61,1.87,.99,3.71,.31,5.28-.52,4.11-2.15,8.35-1.82,12.7-1.26,2.92,.38,5.53,1.45,8.12,2.73,1.23,.6,2.54,.64,3.91,.23,2.26-.67,4.77,.05,6.92-.85,2.99-1.25,6.05-1.2,9.16-1.26,2.25-.05,4.33,.62,6.2,1.7,2.19,1.27,4.25,1.7,6.61,.5,4.2-2.15,8.56-1.99,12.99-.73,2.44,.7,4.9,.08,7.28-.3,2.51-.4,4.91-.53,7.41,.04,2.38,.54,4.64-.17,6.74-1.34,1.24-.69,2.38-1.46,3.4-2.54,1.24-1.3,3.19-1.08,4.86-1.31,4.77-.66,9.5,.34,14.25,.61,1.05,.06,2.17,.3,3.15-.18,3.26-1.6,6.64-1.47,10.07-.8Z"/>
  <path class="cls-19" d="M22.54,117.74c-1.15,.35-1.52,.91-1.44,2.29,.27,4.49-.69,8.72-3.61,12.33-.03,.04-.07,.1-.12,.12-3,1.42-3.78,4.21-4.44,7.09-.06,.25-.28,.46-.43,.69-.77,1.22-1.57,2.43-2.69,3.36-.4,.34-.71,.91-1.4,.67-1.33-3.79-.8-7.3,1.65-10.49,.4-.51,.81-1.1,1.52-1.25,.89-.19,.83-.74,.58-1.38,1.93-2.34,3.22-5,3.97-7.93,.17-.65,.15-1.39,.48-1.93,1.87-3.13,.52-6.3,.36-9.49-.18-3.53-.9-7.2,2.27-10.22,2.33-2.22,2.73-5.49,2.93-8.63,.15-2.32,.85-3.19,3.21-2.99,2.47,.21,4.16-.61,5.41-2.71,.47-.79,1.24-1.43,2.09-1.91,.22-.12,.69-.33,.31-.73-.12-.12-.42-.06-.64-.09,.34-1.23,.53-2.54,1.7-3.35,.9,.29,1.44-.35,2-.82,1.44-1.23,2.88-2.46,4.21-3.8,1.24-1.24,1.59-3.02,2.32-4.56,.28-.59-.5-.5-.9-.45-2.19,.32-4.07-1.45-3.92-3.69,.03-.49,.2-.82,.68-1.04,6.93-3.3,13.79-6.71,20.54-10.36,3.01-1.63,4.87-4.51,6.92-7.12,.97-1.24,2.36-2.05,3.33-3.11,1.53-1.68,2.84-1.02,4.35-.58,1.08,.32,2.21,.23,3.3,.35,2.56,.3,4.24-1,5.69-2.83,1.19-1.5,2.44-1.73,3.78-.48,.58,.54,.99,.29,1.5,.18,2.49-.55,4.84-1.64,7.4-1.96,2.87-.36,5.74-.65,8.63-.64,4.66,.03,8.85-1.29,12.3-4.51,.75-.7,1.63-1.18,2.46-1.7,4.26-2.64,8.68-4.94,13.83-5.13,1.41-.05,2.65,.72,3.89,1.3,1.66,.78,3.5,.95,5.22,1.5,3.32,1.06,5.81,3.71,9.31,4.32,1.07,.19,2.12,.95,2.93,1.82-.3,.61-.96,.72-1.47,1.03-1.82,1.1-3.07,2.56-3.02,4.82,.01,.63-.11,1.14-.86,1.15-.81,.01-1.01-.54-1.04-1.22-.01-.22,.01,.06,0-.17-.04-.81,.68-1.65,.07-2.41-.52-.65-1.52-.24-2.16-.73-.59-.55-1.42-.71-2.06-1.18-1.16-1.27-2.48-2.03-4.26-1.39-.87-.54-1.85-.59-2.84-.64-1.87-.43-3.62-1.21-5.7-.89-1.58,.24-2.79,1.03-4.15,1.6-.65,.09-1.17-.24-1.72-.52-1.59-.82-1.89-.61-3.09,.69-3.78,4.08-8.27,6.86-14.03,7.06-.96,.03-1.88-.17-2.8-.39-1.22-.28-2.42-.33-3.63,0-1.02,.15-2.01-.12-2.98-.36-1.9-.48-3.76-.35-5.63,.12-1.19,.3-2.37,.64-3.61,.71-2.5,.15-4.39,1.8-6.55,2.75-1.55,.68-3.09,1.18-4.69,.78-2-.49-3.36-.04-4.08,1.95-.08,.08-.18,.2-.27,.19-2.14-.32-2.59,.97-3,2.73-.54,2.34-2.1,4.22-3.88,5.74-3.43,2.93-6.94,5.78-10.82,8.11-2.02,1.22-4.13,2.24-6.5,2.49-1.41,.15-2.42,.56-2.26,2.24-.12,.36-.24,.71-.36,1.07-1.72,1.48-2.23,3.62-3.13,5.57-.84,1.81-2.11,3.39-3.53,4.82-1.76,1.78-3.52,3.56-5.31,5.3-.7,.68-1.25,1.4-1.42,2.37-.24,.7-.49,1.39-.73,2.09-1.35,1.42-2.92,2.34-4.96,2.41-2.09,.07-2.31,.45-2.04,2.58,.4,3.23-1.01,5.89-2.91,8.28-.81,1.02-1.28,1.84-.63,3.12,.46,.91,.43,1.99,.19,2.96-.35,1.39-.19,2.63,.68,3.78,.04,.46-.11,.87-.32,1.27Z"/>
  <path class="cls-11" d="M136.6,36.94c.98-.17,1.96-.35,2.66,.64,1.33,.09,2.5,.7,3.73,1.12,.73,.74,1.79,.78,2.64,1.27,.84,.7,2.33-.21,2.84,.9,.4,.88-.44,1.87-.49,2.85-.03,.47,.03,.92,.67,.89,.38-.02,.53-.16,.54-.61,.05-3.14,1.27-4.84,4.2-5.93,.21-.08,.42-.13,.63-.19,.82,.01,1.65,.07,2.47,.03,.78-.03,.9,.44,.93,1.04,.35,1.07-.42,1.38-1.17,1.63-.63,.21-1.31,.24-1.95,.46-1.44,.49-2.38,1.26-2.32,3.01,.07,1.93-.75,3.28-2.86,3.67-1.02,.19-2.01,.65-3.01,.99-1.54,.52-1.66,.92-.8,2.27,.3,.47,.63,.93,.78,1.47,.27,.94,.22,1.77-.84,2.21-2.1-.69-4.06-4.54-3.33-6.44,.47-1.25,1.57-1.78,2.63-2.13,1.13-.37,1.05-1.08,1.09-1.93,.04-.92-.28-1.36-1.21-1.66-2.21-.72-4.39-1.56-6.53-2.47-.53-.22-.79-.02-1.2,.12-4.13,1.46-8.23,1.79-12.25-.37-.4-.22-.97-.71-1.23,.06-.66,1.93-2.35,2.55-3.89,3.51-2.04,1.28-4.09,2.43-6.37,3.21-2.88,.97-5.78,1.06-8.69,.32-.77-.19-1.34-.28-1.98,.3-.91,.81-2.17,.85-3.28,1.05-2.68,.48-5.4,.42-8.08-.09-1.28-.24-2.21-.13-3.03,1.01-2.23,3.1-5.75,3.52-9.12,4.2-1.75,.35-3.5,.61-5.27,.06-.44-.13-.85-.07-1,.55-1.02,4.22-4.06,6.92-7.25,9.48-3.34,2.67-6.71,5.33-10.59,7.21-2.4,1.16-4.9,2.01-7.64,1.48-.14-.36-.24-.74-.42-1.08-.41-.8-.07-1.18,.7-1.24,6.32-.46,10.85-4.4,15.54-8,2.28-1.75,4.57-3.49,6.13-6.02,.72-1.16,1.35-2.36,1.44-3.67,.13-1.8,.96-2.05,2.43-1.52,.2,.07,.44,.02,.66,.02,2.55-.13,5.08-.35,7.55-1.07,2.07-.6,3.97-1.37,5.11-3.43,.69-1.26,2.18-.94,3.33-1.11,1.43-.22,2.88,.12,4.32,.25,2.59,.23,5.08-.22,7.54-.97,.82-.52,1.79-.52,2.6-.27,5.27,1.63,9.75-.17,13.92-3.16,1.46-1.05,3.06-1.97,3.94-3.72,.57-1.14,1.69-1.16,2.75-.52,.62,.37,1.14,.91,1.91,.97,3.45,1.02,6.78,.27,10.1-.65Z"/>
  <path class="cls-11" d="M462.55,48.65c.5-1.23,1.44-1.38,2.62-.25,1.26,1.21,2.57,2.26,4.24,2.85,3.69,1.31,7.35,1.11,10.84-.45,1.37-.61,2.11-.41,3.03,.55,2.32,2.43,5.05,3.9,8.55,3.71,1.7-.09,3.06-.92,4.5-1.63,2.26-1.12,2.86-.76,2.86,1.78,0,.28,0,.56,0,.84-.09,1.76,.83,3.3,1.05,5,.59,1.02,1.51,1.71,2.4,2.45,1.33,1.12,2.11,2.5,.91,4.31-1.15,1.74-2.25,3.54-2.7,5.63-.38,1.92-.52,3.89-1.26,5.72,.43,1.02,1.47,1.51,2.07,2.38,.43,.64,1.02,1.45-.41,1.66-.43,.07-.65,.2-.38,.62,.71,1.12,.01,1.78-.65,2.62-1.34,1.71-2.48,3.57-3.15,5.67-.62,1.95-.06,3.11,1.82,3.82,.1,.04,.22,.04,.33,.07,.99,.38,2.12,1.05,1.78,2.08-.37,1.12-1.6,.51-2.49,.27-3.83-1.09-5.49-4.36-3.69-8.22,1.22-2.62,2.67-5.11,4.91-7.24-4.03-2.38-3.03-5.92-2.03-9.41,.71-2.47,2.06-4.68,3.31-6.9,.39-.7,.38-.94-.22-1.44-2.02-1.71-3.73-3.68-4.4-6.34-.16-.64-.26-1.29-.39-1.96-4.32,1.61-8.38,1.17-12.18-1.46-.36-.25-.75-.5-1.03-.83-.78-.89-1.51-.98-2.75-.65-6.17,1.67-11.99,1.27-16.82-3.61-.48-.49-.58-1.05-.68-1.65Z"/>
  <path class="cls-11" d="M167.08,41.62c.2,1.08-.16,2.12-.44,3.1-.31,1.1,.08,1.22,.97,1.3,1.62,.15,3.2,.04,4.72-.5,2.54-.91,4.93-2.22,7.55-2.95,1.25-.35,2.2-.52,2.98,.81,.34,.58,.83,1.21,1.66,1.27,3.98,2.89,8.33,4.68,13.34,4.53,.27,0,.56,.04,.79-.17,1.1-.02,2-.63,2.96-1.03,.73-.3,1.37-.38,2.06-.02,.54,1.05,.01,2-1.37,2.7-5.66,2.87-10.99,1.6-16.16-1.28-1.64-.91-3.18-2.05-4.49-3.43-1.27-1.35-2.53-.28-3.65,.17-2.52,1.01-4.92,2.34-7.66,2.73-.49,.07-.99,.16-1.49,.14-1.58-.06-2.97,.41-4.49,.85-2.17,.64-3.63,1.55-4.84,3.41-.66,1.01-2.21,1.74-3.36,1.62-1.96-.21-2.62,1.14-3.64,2.16-2.35,2.34-5.43,1.71-6.6-1.36,.29-1.33,1.23-1.06,2.09-.8,2.06,.63,2.59,.49,3.62-1.41,.72-1.33,1.58-2.09,3.21-1.66,1.35,.36,2.37-.41,3.23-1.35,.57-.62,.97-1.36,1.35-2.12,.44-.89,1.06-1.55,2.06-1.82,1.02-.28,1.77-.97,2.25-1.89,.39-.75,.73-1.55,.18-2.37-.54-.81-1.35-.87-2.23-.81-1.79,.13-2.39-.25-2.54-1.58-.03-.23,.09-.43,.24-.6,2.63-1.68,5.21-1.19,6.92,1.3,.25,.36,.52,.71,.78,1.06Z"/>
  <path class="cls-14" d="M159.38,39.26c.15,1.39,.47,2.22,2.3,1.75,2.26-.58,3.57,1.19,2.68,3.38-.5,1.23-1.36,2.31-2.68,2.51-1.11,.16-1.5,.82-1.9,1.6-.74,1.44-1.43,2.9-3.1,3.52-.71,.27-1.3,.59-2.16,.12-.85-.46-1.74-.12-2.19,.89-.2,.45-.43,.9-.68,1.33-.88,1.49-2.08,1.82-3.55,.97-.84-.48-1.56-.48-2.18,.34-.47-.17-.63-.55-.67-1.01,1.22-1.39,.43-2.52-.46-3.65-1.11-1.4-.96-2.02,.73-2.61,1.5-.52,3.01-1.06,4.56-1.4,1.68-.37,1.32-1.84,1.5-2.8,.51-2.76,1.29-3.67,4.21-3.91,.92-.08,1.44-.45,1.62-1.34,.67-.02,1.36-.12,1.96,.31Z"/>
  <path class="cls-11" d="M298.9,45.58c2.61-.64,5.21-1.31,7.83-1.91,.87-.2,1.66-.49,2.44-.93,.95-.53,1.9-.55,2.55,.56-.87,2.02-2.64,2.64-4.59,3.12-3.93,.98-7.78,2.24-11.94,1.93-2.43-.18-4.75-.53-6.64-2.21-.48-.43-.88-.37-1.49-.29-2.53,.31-4.8,1.43-7.19,2.14-4,1.17-7.92,.6-11.74-.73-1.29-.45-2.27-.51-3.52,.25-2.27,1.37-4.79,.2-5.3-2.21,.23-1.73,1.4-1.08,2.06-.6,1.22,.89,2.17,.64,3.1-.3,.85-.86,1.78-.81,2.75-.34,1.66,.82,3.44,1.24,5.25,1.54,1.48-.76,3.06-.47,4.6-.39,.95,.05,1.86,0,2.78-.23,1.43-.09,2.71-.71,3.9-1.36,1.43-.78,2.92-.61,4.39-.75,1.15-.11,1.75,1.11,2.75,1.45,2.61,.86,5.32,1.1,8.04,1.28Z"/>
  <path class="cls-11" d="M321.07,46.02c2.21,.71,4.4,.28,6.51-.31,3.73-1.05,7.55-1.91,10.89-4.05,.4-.26,.94-.28,1.42-.41,.57-.33,1.12,.09,1.68,.06,1.17-.13,1.96,.19,2.8,1.22,4.1,4.95,9.61,6.2,16.25,3.65,.88-.34,1.77-.66,2.69-.85,.86-.18,1.84-.33,2.02,.99,.05,.3-.12,.5-.32,.68-2.05,1.88-4.73,2.41-7.27,2.93-3.69,.76-7.34,.33-10.73-1.66-2.46-1.44-4.35-3.36-5.91-5.76-1.54,2.35-4.05,3.16-6.55,3.98-3.89,1.27-7.71,2.77-11.95,2.55-2.93-.15-5.51-1.12-7.89-2.73-.93-.63-1.05-1.62-.94-2.65,1.06-.14,2.04,.04,2.92,.65,1.49,.49,2.96,1.04,4.37,1.72Z"/>
  <path class="cls-11" d="M430.77,38.62c1.03-.23,1.85,.2,2.6,.82,4.68,3.84,9.98,6.41,15.96,7.39,1.63,.27,3.34,.21,5,.13,1.88-.09,3.75-.35,5.61-.59,1.41-.19,2.1,.33,2.02,1.64-1.57,1.95-3.9,1.29-5.9,1.62-5.96,.97-11.52-.71-16.84-3.18-2.76-1.28-5.3-3.01-7.69-4.91-.9-.72-1.44-1.7-.78-2.91Z"/>
  <path class="cls-11" d="M398.56,42.98c.26-.4,.32-1,.98-1.01,3.25-.04,5.89-1.82,8.74-3.03,1.07-.45,2.07-.73,3.35-.46,2.53,.53,4.81-.35,6.35-2.43,.86-1.16,1.8-1.1,2.72-.6,2.28,1.24,4.68,1.18,7.15,1.08,.87-.03,2.34-.5,1.95,1.4-.63,1.1-1.57,1.39-2.81,1.35-2.17-.06-4.34,.07-6.39-.87-.52-.24-.9-.12-1.33,.29-2.39,2.26-5.26,3.03-8.47,2.42-.58-.11-.98,.02-1.39,.28-2.24,1.39-4.75,2.15-7.19,3.04-1.91,.7-2.71,.28-3.66-1.47Z"/>
  <path class="cls-11" d="M369.68,45.93c2.29,.18,4.52-.26,6.77-.55,1.04-.13,2.13-.32,3.12,.19,4.16,2.16,8.28,1.15,12.37-.18,1.47-.48,2.86-1.2,4.29-1.81,.56,.04,1.19,.05,1.28,.78,.1,.84-.25,1.49-.98,1.97-1.99,1.29-4.21,1.98-6.47,2.54-3.78,.93-7.51,1.28-11.19-.6-1.54-.78-3.28,.05-4.89,.21-1.73,.18-3.45,.02-5.16,.18-1.05,.09-.98-.89-1.43-1.36-.26-1.62,.17-1.87,2.3-1.37Z"/>
  <path class="cls-11" d="M22.87,116.47c-1.67-.56-1.51-1.9-1.24-3.15,.35-1.58,.42-3.09-.5-4.47-.61-.91,.07-1.34,.57-1.8,1.87-1.73,2.7-4.04,3.41-6.37,.28-.93,.25-1.98-.18-2.94-.62-1.37,.36-2.37,1.3-2.29,2.48,.2,4.31-1.11,6.31-2.09,1.18,1.57,1.05,2.32-.57,3.3-.33,.2-.65,.43-.98,.63-1.01,.61-2.66,.27-3.16,1.05-.45,.69,.12,2.06-.15,3.19-.53,2.2-1.41,4.24-2.76,6-.84,1.09-1.02,2.15-.58,3.32,.61,1.65-.35,3.17-.25,4.77,.04,.61-.58,.89-1.21,.86Z"/>
  <path class="cls-11" d="M204.65,47.65c1.19-1.21,2.82-.81,4.21-.93,2.59-.22,5.15-.4,7.73-.84,1.25-.21,2.48-.5,3.71-.82,.69-.18,1.36-.11,1.91,.31,2.15,1.6,4.31,1.35,6.52,.18,.78-.41,1.52-.94,2.46-.95,1.25,.89,1.34,1.83-.02,2.64-2.43,1.45-4.93,2.79-7.98,1.63-1.11-.42-2.15-1.35-3.58-.77-.45,.18-.76-.68-1.23-1.19-1.08,2.28-3.24,2.21-5.07,2.33-2.04,.14-4.09,.32-6.13,.46-1.63,.11-2.38-.51-2.53-2.05Z"/>
  <path class="cls-11" d="M498.19,98.95c.88-.07,1.3,.46,1.58,1.2,.29,.75-.21,1.06-.67,1.5-1.36,1.28-1.55,3.97-.51,6.24,1.65,3.6,3.78,6.92,6.06,10.14,.41,.59,.82,1.17,1.23,1.76,.26,.61,.58,1.2,.78,1.84,.18,.57,.85,1.3-.03,1.73-.81,.39-1.83,.13-2.21-.66-2.3-4.81-6.05-8.75-8.15-13.69-1.29-3.06-1.6-5.93,.42-8.8,.42-.59,.93-.92,1.49-1.25Z"/>
  <path class="cls-11" d="M233.47,44.65c.53-.74,1.18-.59,1.92-.36,4.18,1.32,8.43,1.54,12.81,1.11,2.93-.29,5.82-.61,8.68-1.34,.82-.21,1.55-.04,1.84,.91-.35,1.17-1.1,1.86-2.31,2.12-6.92,1.46-13.84,1.9-20.79,.19-1.34-.33-2.39-.97-2.15-2.63Z"/>
  <path class="cls-11" d="M33.28,91.25c-.56-.75-.24-1.3,.35-1.87,1.79-1.75,3.53-3.56,5.33-5.3,2.3-2.23,4.22-4.71,5.14-7.83,.42-1.42,1.22-2.47,2.58-3.06,1.26,1.23,.73,2.31,.2,3.82-1.61,4.57-4.71,7.94-8.04,11.22-1.02,1-2.26,1.73-3.11,2.97-.58,.85-1.61,.42-2.44,.05Z"/>
  <path class="cls-5" d="M369.68,45.93c-.9,.24-2.39-.52-2.3,1.37-.79-.11-1.58-.22-2.37-.33,.02-.26,.04-.53,.32-.68,.05-.02,.11-.03,.15-.07q1.73-1.84,4.21-.3Z"/>
  <path class="cls-2" d="M95.61,134.84c-.64,0-1.28,0-1.92,0,.64-.44,1.28-.47,1.92,0Z"/>
  <path class="cls-14" d="M30.29,64.78c.42,0,.84,0,1.26,0,.67,.87,1.43,1.64,2.32,2.32,1.84,1.41,1.89,3.19,.15,5.55-.58,.78-1,1.55-1.12,2.5-.7,.03-.64,.54-.64,1.01,.11,1.22,.14,2.45,.1,3.68-.12,3.09-2.46,4.98-5.43,4.23-1.56-.39-2.83-.21-4.06,.79-.52,.42-1.12,.74-1.71,1.04-1.66,.84-3.3,1.09-4.83-.25-1.41-1.23-1.98-3.59-1.3-5.4,.43-1.16,1.07-2.21,1.83-3.18,.76-.97,1.06-1.99,.95-3.26-.27-3.16,.98-4.52,4.11-4.44,1.48,.04,2.78,.06,3.44-1.6,.21-.51,.78-.79,1.3-1.01,1.28-.54,2.48-1.23,3.65-1.98Z"/>
  <path class="cls-11" d="M30.29,64.78c-.3,.92-.92,1.41-1.88,1.68-1.52,.42-2.88,1.12-3.44,2.79-.22,.65-.57,1.03-1.37,.63-.36-.18-.87-.08-1.32-.09-3.51-.14-4.78,1.28-3.98,4.66,.27,1.14-.26,1.83-.82,2.53-.84,1.04-1.54,2.15-2.05,3.38-.63,1.52-.23,3.86,1,4.94,1.3,1.16,2.79,1.19,4.29,.3,.47-.28,1.02-.47,1.43-.81,1.64-1.39,3.3-1.83,5.45-1.01,1.79,.68,4.15-1.31,4.29-3.35,.07-.99,.07-2.02-.12-2.99-.13-.64,.13-.93,.48-1.28,1.43-.14,1.98,.64,2,1.93,.02,1.03,0,2.07,0,3.11-.53,1.14-.8,2.4-1.7,3.35-1.66,1.79-3.81,2.06-5.99,1.59-1.09-.24-1.8,.01-2.6,.55-.64,.43-1.31,.84-2,1.19-4.39,2.21-7.61,.06-8.84-4.24-.7-2.46,.05-4.62,1.38-6.59,.91-1.35,1.36-2.67,1.35-4.32-.02-3.5,2.13-5.59,5.63-5.58,1.2,0,2.01-.3,2.83-1.25,1.15-1.33,2.75-2.03,4.55-2.14,.76-.05,1.33,.16,1.42,1.03Z"/>
  <path class="cls-18" d="M77.93,24.16c.63-.35,1.32-.62,1.64-1.35,.39,.22,.74,.47,1.18,.02,.35-.35,.84-.55,1.19-.9,3-2.89,6.59-2.85,10.26-1.97,2.5,.6,4.3,2.18,5.22,4.66,.15,.41,.41,.79,.61,1.18-1.54,1.85-3.07,2.14-4.84,.69-.94-.77-1.89-1.07-3.06-1.01-.49,.03-1.03,.02-1.48-.16-4.47-1.73-8.15,.35-11.83,2.41-.48,.27-.88,.82-1.46,.61-.66-.23-.48-.91-.49-1.46,1.16-.76,2.23-1.61,3.05-2.74Z"/>
  <path class="cls-18" d="M153.01,28.84c2.8-.91,5.67-.73,8.53-.51,1.96,.15,3.81,.46,4.97,2.4,.5,.84,1.19,.55,1.67-.27,.75-1.25,1.73-1.86,3.13-.87,.87,.61,1.5,.06,1.72-.62,.88-2.78,3.29-3.23,5.54-3.37,2.25-.13,4.33,.85,5.65,2.92-2.21,.16-4.44-.88-6.61,.03-2.04,.85-4.39,.91-5.9,3.09-.85,1.23-2.49,2.08-3.95,2.67-1.3,.52-2.61-.35-3.6-1.23-1.68-1.51-3.68-2.11-5.82-2.17-2-.06-4.18-.58-5.8,1.26-.23,.27-.55,.42-.88,.13-.35-.3-.38-.69-.16-1.06,.48-.81,1-1.6,1.5-2.4Z"/>
  <path class="cls-18" d="M99.35,26.23c3.86-1.73,7.72-.95,11.55,.05,2.32,.61,4.61,1.36,6.67,2.64,.36,.23,.62,.62,.92,.94-.83,.55-1.85,.94-2.45,1.68-1.41,1.74-2.91,1.28-4.41,.4-1.1-.64-2.28-1.17-3.3-1.87-1.06-.74-2.08-.92-3.25-.87-1,.04-1.98-.13-2.97-.28-1.65-.25-3.19,.16-4.43,1.42-.53,.54-1.11,1.35-1.93,.56-.78-.75-.28-1.54,.27-2.22,.89-1.12,2.21-1.66,3.33-2.46Z"/>
  <path class="cls-18" d="M122.83,23.85c.43-.46,.87-.91,1.3-1.37,.08,.26,.15,.53,.25,.79,.17,.45,.2,1.08,.84,1.1,.48,.02,.81-.44,1-.8,2.46-4.66,6.83-4.82,11.13-4.35,3.77,.42,7.47,1.55,10.81,3.53,.34,.2,.67,.38,.87,.73-3.34-1.39-6.92-1.78-10.42-1.58-5.38,.3-10.6,1.57-15.28,4.49-.13,.08-.32,.07-.48,.11,.55-.89,1.19-1.78-.03-2.65Z"/>
  <path class="cls-18" d="M43.31,27.85c.2-1.03,1.25-.65,1.7-1.01,1.09-.89,2.47-1.31,3.44-2.29,1.07-1.08,2.27-1.33,3.66-.86,2.61,.89,5.01,.85,7.65-.4,2.64-1.25,5.52-.46,8.12,.86-5.69-.05-11.13,1.33-16.46,3.11-1.43,.48-2.71,1.49-3.97,2.38-.79,.56-1.32,.38-1.85-.24-.63-.74-1.35-1.31-2.3-1.55Z"/>
  <path class="cls-18" d="M397.19,26.15c1.66-1.89,2.85-4.19,5.41-5.23,2.67-1.09,4.21-1,6.32,1.06,.83,.81,1.45,1.15,2.54,.27,1.06-.86,2.43-.57,3.65-.17,1.62,.52,2.96,.67,4.38-.77,1.35-1.38,1.74,.28,2.25,1.18-2.24,.28-4.05,1.83-6.29,2.17-.61,.09-1.19,.28-1.79,.01-3.84-1.74-7.83-1.21-11.8-.73-1.41,.17-2.46,1.25-3.59,2.04-.34,.24-.61,.77-1.08,.17Z"/>
  <path class="cls-18" d="M249.27,26.14c1.3-1.82,2.41-3.76,4.12-5.32,1.26-1.14,2.62-1.73,4.21-2.07,3.8-.8,7.33-.31,10.51,2.04-1.67,.1-3.3-.34-4.98-.37-5.11-.09-8.92,2.28-12.1,5.99-.38,.44-.69,.97-1.3,.85-.55-.11-.41-.71-.46-1.13Z"/>
  <path class="cls-18" d="M187.25,31.19c1.75-.44,3.24-1.56,5.08-1.85,3.47-.53,6.81-.44,9.98,1.24-1.77,2.3-3.6,2.78-6.91,1.84-2.36-.67-4.68-.27-6.99,.26-.44,.1-.87,.84-1.3,.31-.42-.52-.41-1.24,.13-1.81Z"/>
  <path class="cls-11" d="M32.9,75.14c-.56-.84-.39-1.37,.32-2.22,2.16-2.58,2.49-4.56-.48-6.16-.8-.43-1.19-1.09-1.19-1.99,2.18-.84,4.93,.83,5.35,3.42,.42,2.61-.27,4.94-2.28,6.79-.56,.51-1.09,.79-1.72,.15Z"/>
  <path class="cls-6" d="M348.91,20.86c1.54-.15,2.7,.56,3.71,1.62-1.97,.07-3.31,1.32-4.7,2.5-.43,.36-.85,1.21-1.46,.64-.52-.5-.37-1.34,.13-1.96,.76-.94,1.54-1.86,2.32-2.79Z"/>
  <path class="cls-10" d="M8.42,144.29c1.6-1.11,2.7-2.72,4.09-4.03-.67,2.16-2.07,3.85-3.5,5.55-.49-.44-.59-.96-.59-1.52Z"/>
  <path class="cls-13" d="M508.88,115.07c-1.19-1.39-1.49-2.85-1.51-4.8-.03-2.7-.31-5.69-2.34-7.95-1.05-1.17-1.79-2.1-.14-3.62,1.76-1.62,1.68-2.99,.37-4.84-.55-.77-.23-1.2,.29-1.72,.79-.78,1.57-1.54,2.09-2.59,.83-1.7,.75-3.21-.54-4.62-.65-.71-.6-1.18,.11-1.95,1.34-1.43,2.38-2.96,1.38-5.25-.62-1.41-.62-3.15-.65-4.74-.05-2.75-.42-5.36-1.44-7.97-.43-1.1,.05-2.6,.24-3.9,.18-1.24,.35-2.34-.61-3.43-.93-1.06-.51-2.52-.13-3.62,.76-2.2,.79-4.48,1.2-6.71,.23-1.27-.81-2.07-2.71-2.22-.72-.06-1.53,0-2.04,.5-2.5,2.37-5.48,2.11-8.46,1.55-1.71-.32-3.39-.59-5.13-.53-3.27,.1-6.52-.34-9.76-.58-1.46-.11-2.95-1.36-4.63-1.55-3.68-.41-7.26-1.51-11.05-1.26-4.79,.32-9.49-.96-14.24-1.15-3.81-.16-6.45-2.51-9.59-3.92-1.41-.64-2.74-1.48-4.1-2.23,1.35-1.02,2.91-1.82,3.69-3.45,.15-.31,.37-.51,.76-.52,3.17-.14,4.48-2.4,5.57-4.9,.17-.4,.28-.83,.41-1.25,2.09-.48,3.93,.11,5.61,1.35,.54,1.29,1.27,1.35,2.21,.36,1.4-1.46,2.84-2.88,4.56-3.99,.11,.13,.2,.29,.17,.45-.17,1.1,.16,1.37,1.12,.72,2.57-1.72,5.33-1.63,8.15-.83,.6,.17,1.15,.42,1.55,.92,.56,1.05,1.38,1.26,2.42,.74,.46,1.16,1.25,.52,1.93,.34,2.79-.73,5.59-1.62,8.48-.69,1.58,.5,3.06,1.29,4.59,1.94,.02,.57,.05,1.13,.07,1.7,.35,.8,.83,.85,1.6,.47,5.66-2.81,11.46-2.48,17.24-.51,1.17,.4,2.07,.35,3.17-.06,1.19-.44,2.28-1.54,3.75-.91,.24,1.48-.09,2.95,.01,4.45,.2,2.88,1.9,4.61,4.05,6.12,.85,.59,1.8,.26,2.93,.19-.7,1.17-1.8,2-1.61,3.39-.35,.74-.48,1.54-.61,2.35-1.81,2.01-2.39,4.31-1.66,6.92,.26,.93,.68,1.77,1.65,2.17-.27,.4-.69,.71-.74,1.25-1.86-.56-3.23,.97-2.92,3.25,.49,3.62,3.35,5.28,6.71,3.9,.69,1.4,.86,2.75-.35,3.98-.72,.74-1.7,1.01-2.63,1.25-2.46,.65-2.97,1.36-2.45,3.77-.92-.02-1.22,.44-1.2,1.34,.04,1.6,.1,3.21-.29,4.8-.28,1.14-.61,2.28-1.3,3.22-.73,.99-.94,1.97-.46,3.09-.24,.81,.34,1.51,.34,2.28-.1,.31-.28,.62-.19,.95,.51,2.12-.18,4-1.2,5.8-.24,.3-.49,.6-.73,.9-1,1.22-1.35,2.35-.74,4.07,1.28,3.63,1.46,7.45,.86,11.31-.34,2.17-.37,4.39-1.11,6.5Z"/>
  <path class="cls-3" d="M522.68,56.66c-.24-.56-.39-1.18-.74-1.67-1.09-1.54-.43-2.97,.47-4.13,1.02-1.32,2.6-1.98,4.29-1.77,1.37,.17,1.72,1.4,1.58,2.55-.23,1.84-1.03,3.52-1.96,5.11-.72,1.21-1.82,1.05-2.94,.63-.23-.24-.47-.47-.7-.71Z"/>
  <path class="cls-18" d="M511.64,83.25c-.75-.51-1.35-1.2-.68-2.06,2.24-2.86,2.47-6.17,2.32-9.59-.02-.46-.23-1.08,.33-1.36,.57-.28,.86,.36,1.28,.56,.98,3.03,1.77,6.07,.17,9.16-.46,.88-.78,1.85-2.02,1.96-.76,.07-.77,1.05-1.41,1.33Z"/>
  <path class="cls-18" d="M519.99,65.79c.63-1.28,.19-2.66,.35-3.98,.67-.59,1.33-1.17,1.98-1.75,2.01,2.42,1.23,4.5-2.34,5.73Z"/>
  <path class="cls-20" d="M510.6,92.29c-.06-.68,.07-1.31,.43-1.89,.68-1.1,.74-2.27,.4-3.48-.17-.62-.35-1.21,.56-1.38,.47,2.44,.8,4.86-1.39,6.75Z"/>
  <path class="cls-3" d="M40.98,18.79c0,1.68-.92,2.67-2.46,2.68-1.16,0-2.92-1.84-2.89-3.03,.03-.94,2.25-2.64,3.38-2.57,1.05,.06,1.97,1.42,1.97,2.92Z"/>
  <path class="cls-3" d="M436.81,20.71c-.03,.79,.02,1.33-.23,1.87-.6,1.32-1.33,2.59-2.97,2.55-1.6-.04-2.37-1.33-2.95-2.6-.61-1.33-.25-2.49,.93-3.38,.09-.07,.16-.16,.24-.24,1.02-1.03,2.21-1.93,3.69-1.33,1.44,.59,1.07,2.15,1.3,3.13Z"/>
  <path class="cls-18" d="M512.54,27.84c-.11,0-.23,0-.33,.03-5.35,1.51-5.31,1.36-10.4,.36-4.54-.89-9.09-.73-13.34,1.47-1.01,.53-1.84,.84-1.69-.86,.64,.48,1.12,.32,1.75-.17,1.38-1.07,2.63-2.33,4.37-2.92,.92-.31,1.46-1.17,1.25-2.27,.22-.36,.59-.34,.94-.37,.11,1.3,.78,1.74,2.1,1.76,4.05,.07,7.98,.94,11.77,2.37,.65,.24,1.09,.31,1.65-.18,.36-.31,.46-1.19,1.08-.88,.56,.28,.94,.92,.86,1.66Z"/>
  <path class="cls-21" d="M517.31,44.32c-.57-.98-.42-1.78,.61-2.35q1.21,1.37-.61,2.35Z"/>
  <path class="cls-3" d="M524.01,24.87c0,2.84-1.46,4.71-3.64,4.67-1.75-.03-3.66-2.5-3.63-4.7,.02-1.61,1.45-2.36,4.46-2.35,2.47,0,2.81,.29,2.81,2.38Z"/>
  <path class="cls-3" d="M293.11,10.07c1.21-.11,2.18,.2,2.14,1.85-.04,1.61-1.51,3.79-2.67,3.84-1.2,.05-3-1.84-3.01-3.14,0-1.3,1.65-2.53,3.54-2.54Z"/>
  <path class="cls-1" d="M451.52,27.17c-1.78-.82-3.7-1.06-5.61-1.35-.03-1.05,.55-2.02,.21-3.1,.16-.09,.31-.19,.47-.28,.68,.78,1.48,1.49,2.03,2.35,.92,1.44,1.72,1.44,2.61,.02,.23,.23,.46,.46,.69,.69-.38,.5-.36,1.09-.4,1.67Z"/>
  <path class="cls-18" d="M469.28,24.82c-2.43-.85-4.87-1.43-7.47-.71-.78,.22-1.43,.51-2.04,1.03-.49,.41-1.08,.98-1.77,.5-.74-.52,.01-1.07,.15-1.61,.04-.16,.08-.32,.12-.48,2.2-1.85,4.58-3.17,7.6-3.11,1.11,.02,1.75,.35,2.12,1.37,.36,1.03,1.16,1.87,1.28,3Z"/>
  <path class="cls-15" d="M198.65,49c-4.02,.95-7.73,.09-11.19-2-1.07-.65-2.24-1.22-2.94-2.36,2.2,.73,4.4,1.33,6.44,2.6,2.26,1.41,4.97,1.85,7.69,1.76Z"/>
  <path class="cls-9" d="M279.83,44.97c-2.38,1.17-4.91,.52-7.37,.62,1.1-1.67,2.76-1.56,4.3-1.07,1.04,.33,2.03,.45,3.08,.45Z"/>
  <path class="cls-9" d="M499.59,79.16c-.12-2.03,.29-3.94,1.26-5.72,.6,1.31,.28,2.74,.57,4.11,.24,1.15-1.18,1.1-1.83,1.61Z"/>
  <path class="cls-8" d="M298.9,45.58c-2.15,.16-4.29,.07-6.41-.29-.67-.11-1.28-.35-1.63-.99,2.79-.29,5.34,.97,8.04,1.28Z"/>
  <path class="cls-10" d="M500.24,61.04c-.83-1.57-1.97-3.06-1.05-5,1.45,1.43,1.62,3.14,1.05,5Z"/>
  <path class="cls-4" d="M321.07,46.02c-1.64-.1-3.06-.77-4.37-1.72,1.71-.08,3.18,.48,4.37,1.72Z"/>
  <path class="cls-22" d="M341.56,41.29c-.58,.62-1.11-.25-1.68-.06,.58-.46,1.14-.45,1.68,.06Z"/>
  <path class="cls-23" d="M101.37,44.3c-.23,.63-.84,.69-1.36,.85-2.97,.89-5.98,.73-9.01,.33-1.94-.26-3.95-.64-4.99,1.83-.31,.73-1.09,1.26-1.89,1.59-3.4,1.38-6.83,2.62-10.6,1.73,.98-2.92,.97-2.86,4.03-2.39,1.54,.24,3.11,.26,4.53-.67,4.11-2.68,8.85-3.37,13.55-4.08,1.33-.2,2.61,.39,3.91,.62,.61,.11,1.21,.17,1.82,.19Z"/>
  <path class="cls-23" d="M136.6,36.94c-3.27,1.72-6.61,2.44-10.1,.65,3.21-2.64,6.62-2.29,10.1-.65Z"/>
  <path class="cls-16" d="M142.92,38.94c-1.33-.16-2.52-.7-3.66-1.36,1.77-.85,2.87-.51,4.36,1.34-.23,.2-.47,.18-.71,.02Z"/>
  <path class="cls-7" d="M142.92,38.94c.24,0,.47-.01,.71-.02,.63,.42,1.54,.3,2.01,1.04-.98-.14-1.93-.36-2.72-1.03Z"/>
  <path class="cls-3" d="M156.07,49.67c-1.22,.01-3.04-2.1-3.02-3.52,0-.86,1.66-1.95,3.01-1.81,1.13,.12,2.22,.57,2.29,1.97,.08,1.69-1.09,3.34-2.28,3.35Z"/>
  <path class="cls-3" d="M28.23,74.93c-.02,2.43-1.04,4.23-2.33,4.24-1.29,.01-3.05-2.12-3.03-3.69,.02-1.38,1.76-2.73,3.46-2.67,1.46,.06,2.13,.79,1.9,2.11Z"/>
</svg>