<?xml version="1.0" encoding="UTF-8"?>
<svg id="Layer_1" data-name="Layer 1" xmlns="http://www.w3.org/2000/svg" viewBox="0 0 541.62 24.99">
  <defs>
    <style>
      .cls-1 {
        fill: #ba9288;
      }

      .cls-2 {
        fill: #785049;
      }
    </style>
  </defs>
  <path class="cls-1" d="M422.78,21.11c-1.95,0-3.91,0-5.86,0-.55,.31-1.16,.22-1.75,.22-34.47-.01-68.94-.22-103.4,.09-15.8,.14-31.59,.07-47.39,.19-1.5,.01-2.65,.73-3.96,1.12-1.18,0-2.36,.02-3.54,.02-1.36-1.06-2.93-1.12-4.58-1.12-70.89,.02-141.79,.02-212.68,.02-.11,0-.22,0-.32,0-1.8-.18-3.44,.07-4.55,1.72-1.94,.01-3.88,.03-5.82,.04-.57-.59-1.11-1.13-2.07-1.03-4.37,.46-8.76,.15-13.14,.21-3.79,.05-7.58,.02-11.36,0-.8,0-1.64,.13-2.32-.48,0-5.43,0-10.86,0-16.3,.32-.33,.74-.42,1.18-.47,.32-.03,.65-.04,.97-.04,11.13-.02,22.27-.14,33.4-.24,6.15-.06,12.32,.39,18.47,.21,21.62-.65,43.25,.1,64.87-.37,12.49-.27,24.97-.09,37.46-.22,1.48-.02,2.78-.19,3.71-1.46,1.75,.57,3.49,.58,5.24,0,1.55,1.67,3.57,1.46,5.55,1.43,25.64-.46,51.29-.03,76.94-.41,21.16-.32,42.31,.17,63.46-.3,20.02-.44,40.04-.07,60.05-.27,.7,0,1.41-.14,2.07,.22,1.69,0,3.39,.02,5.08,0,.5,0,1.08,.22,1.46-.34,.56-.29,1.16-.2,1.75-.2,19.26,.01,38.53,.28,57.79-.07,21.53-.4,43.07,.14,64.59-.33,11.58-.25,23.15-.08,34.73-.24,.96-.01,1.97-.17,2.8,.53V20.79c-.78,.67-1.73,.54-2.64,.54-6.93,.01-13.85,0-20.78,0-31.22,0-62.45,0-93.67,0-.59,0-1.2,.09-1.75-.23Z"/>
  <path class="cls-2" d="M541.62,3.25c-10.39,0-20.78-.22-31.16,.05-22.01,.56-44.02-.12-66.02,.34-20.82,.44-41.64,.06-62.45,.26-.69,0-1.42,.16-2.03-.34-.96-1.68-.47-2.6,1.45-2.57,12.33,.22,24.64-.37,36.97-.34,15.68,.04,31.37,.28,47.04-.06,21.46-.46,42.92,0,64.38-.32,3.94-.06,7.88-.24,11.82-.27V3.25Z"/>
  <path class="cls-2" d="M422.78,21.11c.68-.46,1.46-.32,2.2-.32,38.88,0,77.76,0,116.63,0v2.92c-38.92,.53-77.84,.26-116.75,.32-.88,0-1.77,.21-2.3-.95-.37-.82-.36-1.36,.22-1.97Z"/>
  <path class="cls-2" d="M373.42,3.89c-.58,.38-1.23,.33-1.88,.33-37.64-.23-75.29,.27-112.93,.42-23.58,.09-47.16,0-70.73,.31-6.48,.09-12.97,.05-19.45,.28-1.67,.06-2.61-.49-3.09-2.01,.38-1.2,1.33-1.29,2.38-1.29,13.36,.01,26.72,.26,40.07-.05,21.84-.51,43.69,.14,65.53-.33,20.93-.45,41.85,.12,62.77-.33,11.79-.25,23.57-.12,35.35-.25,2.83-.03,3.05,.33,1.97,2.91Z"/>
  <path class="cls-2" d="M160.11,3.22c-.04,1.48-.75,2.01-2.26,2-25.31-.24-50.62,.52-75.94,.31-6.38-.05-12.77-.16-19.15,.03-7.24,.22-14.49,.45-21.72,.22-4.15-.13-8.31-.45-12.45-.21-9.51,.55-19.03,.13-28.54,.24Q-.09,2.93,2.82,2.93c3.52,0,7.03,0,10.55,0,22.44-.07,44.89-.16,67.33-.43,21.15-.25,42.29,.04,63.44-.27,4.7-.07,9.4-.27,14.1-.29,.97,0,1.7,.19,1.87,1.28Z"/>
  <path class="cls-2" d="M.04,22.11c7.04,0,14.07,0,21.11-.03,1.94,0,3.88,.09,5.82-.25,1.1-.19,2.31-.18,1.96,1.58-.21,1.03-.85,1.3-1.87,1.29-6.21-.03-12.42-.03-18.63,.04-2.8,.03-5.6,.35-8.41,.23,0-.95,0-1.9,.01-2.85Z"/>
  <path class="cls-2" d="M34.75,23.37c.13-1.87,1.19-2.29,2.95-2.29,72.12,.04,144.24,.04,216.37,0,1.41,0,2.4,.24,2.82,1.68-.28,.89-.97,1.21-1.82,1.27-.43,.03-.87,0-1.3,0-27.92,.02-55.84-.14-83.76,.11-44.37,.4-88.73,.06-133.1,.25-1,0-1.57-.41-2.16-1.02Z"/>
  <path class="cls-2" d="M260.43,22.73c.76-1.28,1.85-1.66,3.36-1.66,14.01,.05,28.03,.19,42.04-.03,36.3-.57,72.6-.08,108.89-.26,.75,0,1.52-.14,2.21,.32,.21,.49,.5,.97,.61,1.48,.19,.88-.06,1.51-1.14,1.44-.27-.02-.54,0-.81,0-50.94,0-101.88,0-152.83,0-1.02,0-2.13,.18-2.33-1.3Z"/>
</svg>